G04*
G04 #@! TF.GenerationSoftware,Altium Limited,Altium Designer,21.1.1 (26)*
G04*
G04 Layer_Color=8388736*
%FSLAX25Y25*%
%MOIN*%
G70*
G04*
G04 #@! TF.SameCoordinates,A5F47C6F-2453-4AC6-896B-71FEB3B9F667*
G04*
G04*
G04 #@! TF.FilePolarity,Negative*
G04*
G01*
G75*
G04:AMPARAMS|DCode=23|XSize=81.73mil|YSize=278.58mil|CornerRadius=21.18mil|HoleSize=0mil|Usage=FLASHONLY|Rotation=0.000|XOffset=0mil|YOffset=0mil|HoleType=Round|Shape=RoundedRectangle|*
%AMROUNDEDRECTD23*
21,1,0.08173,0.23622,0,0,0.0*
21,1,0.03937,0.27858,0,0,0.0*
1,1,0.04236,0.01968,-0.11811*
1,1,0.04236,-0.01968,-0.11811*
1,1,0.04236,-0.01968,0.11811*
1,1,0.04236,0.01968,0.11811*
%
%ADD23ROUNDEDRECTD23*%
%ADD24R,0.05024X0.05811*%
%ADD25R,0.04236X0.04433*%
%ADD26R,0.04433X0.04236*%
%ADD27O,0.05811X0.01480*%
%ADD28O,0.01480X0.05811*%
G04:AMPARAMS|DCode=29|XSize=26.61mil|YSize=42.36mil|CornerRadius=7.4mil|HoleSize=0mil|Usage=FLASHONLY|Rotation=270.000|XOffset=0mil|YOffset=0mil|HoleType=Round|Shape=RoundedRectangle|*
%AMROUNDEDRECTD29*
21,1,0.02661,0.02756,0,0,270.0*
21,1,0.01181,0.04236,0,0,270.0*
1,1,0.01480,-0.01378,-0.00591*
1,1,0.01480,-0.01378,0.00591*
1,1,0.01480,0.01378,0.00591*
1,1,0.01480,0.01378,-0.00591*
%
%ADD29ROUNDEDRECTD29*%
G04:AMPARAMS|DCode=30|XSize=48.27mil|YSize=60.08mil|CornerRadius=12.82mil|HoleSize=0mil|Usage=FLASHONLY|Rotation=0.000|XOffset=0mil|YOffset=0mil|HoleType=Round|Shape=RoundedRectangle|*
%AMROUNDEDRECTD30*
21,1,0.04827,0.03445,0,0,0.0*
21,1,0.02264,0.06008,0,0,0.0*
1,1,0.02563,0.01132,-0.01722*
1,1,0.02563,-0.01132,-0.01722*
1,1,0.02563,-0.01132,0.01722*
1,1,0.02563,0.01132,0.01722*
%
%ADD30ROUNDEDRECTD30*%
%ADD31C,0.06992*%
%ADD32C,0.06598*%
%ADD33O,0.10142X0.06598*%
%ADD34R,0.10142X0.06598*%
%ADD35R,0.06598X0.06598*%
%ADD36R,0.06992X0.06992*%
%ADD37C,0.07099*%
D23*
X9169Y19700D02*
D03*
X19169D02*
D03*
X29169D02*
D03*
X39169D02*
D03*
X49169D02*
D03*
X59169D02*
D03*
X69169D02*
D03*
X79169D02*
D03*
X89169D02*
D03*
X99169D02*
D03*
X109169D02*
D03*
X119169D02*
D03*
X129169D02*
D03*
X139169D02*
D03*
X149169D02*
D03*
X159169D02*
D03*
X169169D02*
D03*
X179169D02*
D03*
X189169D02*
D03*
X199169D02*
D03*
X209169D02*
D03*
X219169D02*
D03*
D24*
X131000Y53000D02*
D03*
X141000D02*
D03*
Y61661D02*
D03*
X131000D02*
D03*
D25*
X211500Y82453D02*
D03*
Y76547D02*
D03*
X121000Y60953D02*
D03*
Y55047D02*
D03*
X122500Y123248D02*
D03*
Y117342D02*
D03*
X212500Y99094D02*
D03*
Y105000D02*
D03*
D26*
X162953Y62500D02*
D03*
X157047D02*
D03*
X167500Y152500D02*
D03*
X173406D02*
D03*
X147953D02*
D03*
X142047D02*
D03*
X130000Y77000D02*
D03*
X124094D02*
D03*
D27*
X137185Y131122D02*
D03*
Y129154D02*
D03*
Y127185D02*
D03*
Y125216D02*
D03*
Y123248D02*
D03*
Y121280D02*
D03*
Y119311D02*
D03*
Y117342D02*
D03*
Y115374D02*
D03*
Y113406D02*
D03*
Y111437D02*
D03*
Y109468D02*
D03*
Y107500D02*
D03*
Y105532D02*
D03*
Y103563D02*
D03*
Y101594D02*
D03*
Y99626D02*
D03*
Y97658D02*
D03*
Y95689D02*
D03*
Y93721D02*
D03*
Y91752D02*
D03*
Y89784D02*
D03*
Y87815D02*
D03*
Y85847D02*
D03*
Y83878D02*
D03*
X197815D02*
D03*
Y85847D02*
D03*
Y87815D02*
D03*
Y89784D02*
D03*
Y91752D02*
D03*
Y93721D02*
D03*
Y95689D02*
D03*
Y97658D02*
D03*
Y99626D02*
D03*
Y101594D02*
D03*
Y103563D02*
D03*
Y105532D02*
D03*
Y107500D02*
D03*
Y109468D02*
D03*
Y111437D02*
D03*
Y113406D02*
D03*
Y115374D02*
D03*
Y117342D02*
D03*
Y119311D02*
D03*
Y121280D02*
D03*
Y123248D02*
D03*
Y125216D02*
D03*
Y127185D02*
D03*
Y129154D02*
D03*
Y131122D02*
D03*
D28*
X143878Y77185D02*
D03*
X145846D02*
D03*
X147815D02*
D03*
X149784D02*
D03*
X151752D02*
D03*
X153720D02*
D03*
X155689D02*
D03*
X157658D02*
D03*
X159626D02*
D03*
X161594D02*
D03*
X163563D02*
D03*
X165532D02*
D03*
X167500D02*
D03*
X169468D02*
D03*
X171437D02*
D03*
X173406D02*
D03*
X175374D02*
D03*
X177342D02*
D03*
X179311D02*
D03*
X181280D02*
D03*
X183248D02*
D03*
X185216D02*
D03*
X187185D02*
D03*
X189154D02*
D03*
X191122D02*
D03*
Y137815D02*
D03*
X189154D02*
D03*
X187185D02*
D03*
X185216D02*
D03*
X183248D02*
D03*
X181280D02*
D03*
X179311D02*
D03*
X177342D02*
D03*
X175374D02*
D03*
X173406D02*
D03*
X171437D02*
D03*
X169468D02*
D03*
X167500D02*
D03*
X165532D02*
D03*
X163563D02*
D03*
X161594D02*
D03*
X159626D02*
D03*
X157658D02*
D03*
X155689D02*
D03*
X153720D02*
D03*
X151752D02*
D03*
X149784D02*
D03*
X147815D02*
D03*
X145846D02*
D03*
X143878D02*
D03*
D29*
X15784Y156300D02*
D03*
Y152560D02*
D03*
Y148820D02*
D03*
X24131Y156300D02*
D03*
Y148820D02*
D03*
D30*
X23374Y163600D02*
D03*
X16287D02*
D03*
X16487Y141500D02*
D03*
X23574D02*
D03*
D31*
X184000Y184500D02*
D03*
X174000D02*
D03*
X164000D02*
D03*
X154000D02*
D03*
X144000D02*
D03*
X134000D02*
D03*
X124000D02*
D03*
Y194500D02*
D03*
X134000D02*
D03*
X144000D02*
D03*
X154000D02*
D03*
X164000D02*
D03*
X174000D02*
D03*
X184000D02*
D03*
X222000Y195000D02*
D03*
Y185000D02*
D03*
Y175000D02*
D03*
Y165000D02*
D03*
Y155000D02*
D03*
D32*
X52500Y92500D02*
D03*
X62500D02*
D03*
Y122500D02*
D03*
X52500D02*
D03*
X62500Y62500D02*
D03*
X52500D02*
D03*
X62500Y77500D02*
D03*
X52500D02*
D03*
X62500Y137500D02*
D03*
X52500D02*
D03*
X62500Y107500D02*
D03*
X52500D02*
D03*
X82500D02*
D03*
X72500D02*
D03*
X82500Y92500D02*
D03*
X72500D02*
D03*
X82500Y137500D02*
D03*
X72500D02*
D03*
X82500Y77500D02*
D03*
X72500D02*
D03*
X82500Y62500D02*
D03*
X72500D02*
D03*
X82500Y122500D02*
D03*
X72500D02*
D03*
X59369Y288300D02*
D03*
X69369D02*
D03*
X7658Y65000D02*
D03*
D33*
X85369Y328300D02*
D03*
Y338300D02*
D03*
Y348300D02*
D03*
Y358300D02*
D03*
Y368300D02*
D03*
Y378300D02*
D03*
Y318300D02*
D03*
Y308300D02*
D03*
Y298300D02*
D03*
Y288300D02*
D03*
Y278300D02*
D03*
Y268300D02*
D03*
Y258300D02*
D03*
Y248300D02*
D03*
Y238300D02*
D03*
Y228300D02*
D03*
Y218300D02*
D03*
Y208300D02*
D03*
Y198300D02*
D03*
X25369Y378300D02*
D03*
Y368300D02*
D03*
Y358300D02*
D03*
Y348300D02*
D03*
Y338300D02*
D03*
Y328300D02*
D03*
Y318300D02*
D03*
Y308300D02*
D03*
Y298300D02*
D03*
Y288300D02*
D03*
Y278300D02*
D03*
Y268300D02*
D03*
Y258300D02*
D03*
Y248300D02*
D03*
Y238300D02*
D03*
Y228300D02*
D03*
Y218300D02*
D03*
Y208300D02*
D03*
Y198300D02*
D03*
Y188300D02*
D03*
D34*
X85369D02*
D03*
D35*
X17500Y65000D02*
D03*
D36*
X222000Y145000D02*
D03*
D37*
X152004Y375500D02*
D03*
X192000D02*
D03*
X182000D02*
D03*
X172000D02*
D03*
X162000D02*
D03*
X142000D02*
D03*
X132000D02*
D03*
X122000D02*
D03*
X112000D02*
D03*
X102000Y375492D02*
D03*
X172000Y205500D02*
D03*
X192000D02*
D03*
X182000D02*
D03*
X212000D02*
D03*
X202000Y375500D02*
D03*
X212000D02*
D03*
Y365500D02*
D03*
X192000D02*
D03*
X182000D02*
D03*
X172000D02*
D03*
X122000D02*
D03*
X132000D02*
D03*
X142000D02*
D03*
X152000D02*
D03*
X162000D02*
D03*
X112000D02*
D03*
X102000D02*
D03*
X202000D02*
D03*
Y345500D02*
D03*
X102000D02*
D03*
X112000D02*
D03*
X162000D02*
D03*
X152000D02*
D03*
X142000D02*
D03*
X132000D02*
D03*
X122000D02*
D03*
X172000D02*
D03*
X182000D02*
D03*
X192000D02*
D03*
X212000D02*
D03*
Y355500D02*
D03*
X192000D02*
D03*
X182000D02*
D03*
X172000D02*
D03*
X122000D02*
D03*
X132000D02*
D03*
X142000D02*
D03*
X152000D02*
D03*
X162000D02*
D03*
X112000D02*
D03*
X102000D02*
D03*
X202000D02*
D03*
Y325500D02*
D03*
X102000D02*
D03*
X112000D02*
D03*
X162000D02*
D03*
X152000D02*
D03*
X142000D02*
D03*
X132000D02*
D03*
X122000D02*
D03*
X172000D02*
D03*
X182000D02*
D03*
X192000D02*
D03*
X212000D02*
D03*
Y335500D02*
D03*
X192000D02*
D03*
X182000D02*
D03*
X172000D02*
D03*
X122000D02*
D03*
X132000D02*
D03*
X142000D02*
D03*
X152000D02*
D03*
X162000D02*
D03*
X112000D02*
D03*
X102000D02*
D03*
X202000D02*
D03*
Y305500D02*
D03*
X102000D02*
D03*
X112000D02*
D03*
X162000D02*
D03*
X152000D02*
D03*
X142000D02*
D03*
X132000D02*
D03*
X122000D02*
D03*
X172000D02*
D03*
X182000D02*
D03*
X192000D02*
D03*
X212000D02*
D03*
Y315500D02*
D03*
X192000D02*
D03*
X182000D02*
D03*
X172000D02*
D03*
X122000D02*
D03*
X132000D02*
D03*
X142000D02*
D03*
X152000D02*
D03*
X162000D02*
D03*
X112000D02*
D03*
X102000D02*
D03*
X202000D02*
D03*
Y285500D02*
D03*
X102000D02*
D03*
X112000D02*
D03*
X162000D02*
D03*
X152000D02*
D03*
X142000D02*
D03*
X132000D02*
D03*
X122000D02*
D03*
X172000D02*
D03*
X182000D02*
D03*
X192000D02*
D03*
X212000D02*
D03*
Y295500D02*
D03*
X192000D02*
D03*
X182000D02*
D03*
X172000D02*
D03*
X122000D02*
D03*
X132000D02*
D03*
X142000D02*
D03*
X152000D02*
D03*
X162000D02*
D03*
X112000D02*
D03*
X102000D02*
D03*
X202000D02*
D03*
Y265500D02*
D03*
X102000D02*
D03*
X112000D02*
D03*
X162000D02*
D03*
X152000D02*
D03*
X142000D02*
D03*
X132000D02*
D03*
X122000D02*
D03*
X172000D02*
D03*
X182000D02*
D03*
X192000D02*
D03*
X212000D02*
D03*
Y275500D02*
D03*
X192000D02*
D03*
X182000D02*
D03*
X172000D02*
D03*
X122000D02*
D03*
X132000D02*
D03*
X142000D02*
D03*
X152000D02*
D03*
X162000D02*
D03*
X112000D02*
D03*
X102000D02*
D03*
X202000D02*
D03*
Y245500D02*
D03*
X102000D02*
D03*
X112000D02*
D03*
X162000D02*
D03*
X152000D02*
D03*
X142000D02*
D03*
X132000D02*
D03*
X122000D02*
D03*
X172000D02*
D03*
X182000D02*
D03*
X192000D02*
D03*
X212000D02*
D03*
Y255500D02*
D03*
X192000D02*
D03*
X182000D02*
D03*
X172000D02*
D03*
X122000D02*
D03*
X132000D02*
D03*
X142000D02*
D03*
X152000D02*
D03*
X162000D02*
D03*
X112000D02*
D03*
X102000D02*
D03*
X202000D02*
D03*
Y225500D02*
D03*
X102000D02*
D03*
X112000D02*
D03*
X162000D02*
D03*
X152000D02*
D03*
X142000D02*
D03*
X132000D02*
D03*
X122000D02*
D03*
X172000D02*
D03*
X182000D02*
D03*
X192000D02*
D03*
X212000D02*
D03*
Y235500D02*
D03*
X192000D02*
D03*
X182000D02*
D03*
X172000D02*
D03*
X122000D02*
D03*
X132000D02*
D03*
X142000D02*
D03*
X152000D02*
D03*
X162000D02*
D03*
X112000D02*
D03*
X102000D02*
D03*
X202000D02*
D03*
Y215500D02*
D03*
X102000D02*
D03*
X112000D02*
D03*
X162000D02*
D03*
X152000D02*
D03*
X142000D02*
D03*
X132000D02*
D03*
X122000D02*
D03*
X172000D02*
D03*
X182000D02*
D03*
X192000D02*
D03*
X212000D02*
D03*
X122000Y205500D02*
D03*
X132000D02*
D03*
X142000D02*
D03*
X152000D02*
D03*
X162000D02*
D03*
X112000D02*
D03*
X102000D02*
D03*
X202000D02*
D03*
M02*
