G04*
G04 #@! TF.GenerationSoftware,Altium Limited,Altium Designer,21.1.1 (26)*
G04*
G04 Layer_Color=16711935*
%FSLAX25Y25*%
%MOIN*%
G70*
G04*
G04 #@! TF.SameCoordinates,A5F47C6F-2453-4AC6-896B-71FEB3B9F667*
G04*
G04*
G04 #@! TF.FilePolarity,Positive*
G04*
G01*
G75*
%ADD10C,0.00394*%
D10*
X228317Y367752D02*
X228295Y368741D01*
X228229Y369728D01*
X228118Y370711D01*
X227963Y371689D01*
X227765Y372658D01*
X227523Y373618D01*
X227238Y374565D01*
X226911Y375499D01*
X226543Y376417D01*
X226134Y377318D01*
X225685Y378200D01*
X225196Y379060D01*
X224670Y379898D01*
X224107Y380712D01*
X223507Y381499D01*
X222873Y382258D01*
X222205Y382989D01*
X221506Y383688D01*
X220776Y384356D01*
X220016Y384990D01*
X219229Y385589D01*
X218415Y386153D01*
X217578Y386679D01*
X216717Y387167D01*
X215836Y387617D01*
X214935Y388026D01*
X214016Y388394D01*
X213083Y388721D01*
X212135Y389005D01*
X211175Y389247D01*
X210206Y389446D01*
X209229Y389600D01*
X208246Y389711D01*
X207259Y389778D01*
X206269Y389800D01*
X22048Y389779D02*
X21059Y389756D01*
X20072Y389690D01*
X19089Y389579D01*
X18111Y389424D01*
X17142Y389226D01*
X16183Y388984D01*
X15235Y388700D01*
X14301Y388373D01*
X13383Y388004D01*
X12482Y387595D01*
X11600Y387146D01*
X10740Y386658D01*
X9902Y386131D01*
X9088Y385568D01*
X8301Y384969D01*
X7542Y384334D01*
X6812Y383667D01*
X6112Y382967D01*
X5444Y382237D01*
X4810Y381477D01*
X4211Y380690D01*
X3647Y379877D01*
X3121Y379039D01*
X2633Y378179D01*
X2183Y377297D01*
X1774Y376396D01*
X1406Y375478D01*
X1079Y374544D01*
X795Y373596D01*
X553Y372637D01*
X354Y371668D01*
X200Y370690D01*
X89Y369707D01*
X22Y368720D01*
X0Y367731D01*
X-0Y5100D02*
X97Y4111D01*
X386Y3159D01*
X855Y2282D01*
X1485Y1514D01*
X2254Y883D01*
X3131Y415D01*
X4082Y126D01*
X5071Y28D01*
X223317Y48D02*
X224297Y144D01*
X225239Y430D01*
X226107Y894D01*
X226868Y1519D01*
X227492Y2279D01*
X227956Y3148D01*
X228242Y4090D01*
X228339Y5069D01*
X22048Y389779D02*
X206269D01*
X228339Y367752D02*
X228339Y5069D01*
X0Y5100D02*
Y367731D01*
X-0Y5100D02*
X0D01*
X223317Y28D02*
Y48D01*
X5071Y28D02*
X223317D01*
M02*
