G04*
G04 #@! TF.GenerationSoftware,Altium Limited,Altium Designer,21.1.1 (26)*
G04*
G04 Layer_Physical_Order=1*
G04 Layer_Color=255*
%FSLAX25Y25*%
%MOIN*%
G70*
G04*
G04 #@! TF.SameCoordinates,4EBEE0B8-8E4E-43C0-80E5-A374C2A04DA5*
G04*
G04*
G04 #@! TF.FilePolarity,Positive*
G04*
G01*
G75*
%ADD13C,0.02362*%
G04:AMPARAMS|DCode=17|XSize=23.62mil|YSize=39.37mil|CornerRadius=5.91mil|HoleSize=0mil|Usage=FLASHONLY|Rotation=0.000|XOffset=0mil|YOffset=0mil|HoleType=Round|Shape=RoundedRectangle|*
%AMROUNDEDRECTD17*
21,1,0.02362,0.02756,0,0,0.0*
21,1,0.01181,0.03937,0,0,0.0*
1,1,0.01181,0.00591,-0.01378*
1,1,0.01181,-0.00591,-0.01378*
1,1,0.01181,-0.00591,0.01378*
1,1,0.01181,0.00591,0.01378*
%
%ADD17ROUNDEDRECTD17*%
G04:AMPARAMS|DCode=18|XSize=45.28mil|YSize=57.09mil|CornerRadius=11.32mil|HoleSize=0mil|Usage=FLASHONLY|Rotation=90.000|XOffset=0mil|YOffset=0mil|HoleType=Round|Shape=RoundedRectangle|*
%AMROUNDEDRECTD18*
21,1,0.04528,0.03445,0,0,90.0*
21,1,0.02264,0.05709,0,0,90.0*
1,1,0.02264,0.01722,0.01132*
1,1,0.02264,0.01722,-0.01132*
1,1,0.02264,-0.01722,-0.01132*
1,1,0.02264,-0.01722,0.01132*
%
%ADD18ROUNDEDRECTD18*%
%ADD19O,0.05512X0.01181*%
%ADD20O,0.01181X0.05512*%
%ADD21R,0.03937X0.04134*%
%ADD22R,0.04134X0.03937*%
G04:AMPARAMS|DCode=36|XSize=78.74mil|YSize=275.59mil|CornerRadius=19.68mil|HoleSize=0mil|Usage=FLASHONLY|Rotation=0.000|XOffset=0mil|YOffset=0mil|HoleType=Round|Shape=RoundedRectangle|*
%AMROUNDEDRECTD36*
21,1,0.07874,0.23622,0,0,0.0*
21,1,0.03937,0.27559,0,0,0.0*
1,1,0.03937,0.01968,-0.11811*
1,1,0.03937,-0.01968,-0.11811*
1,1,0.03937,-0.01968,0.11811*
1,1,0.03937,0.01968,0.11811*
%
%ADD36ROUNDEDRECTD36*%
%ADD37C,0.01181*%
%ADD38C,0.05906*%
%ADD39C,0.01575*%
%ADD40C,0.01968*%
%ADD41O,0.05512X0.07874*%
%ADD42C,0.06299*%
%ADD43R,0.06299X0.06299*%
%ADD44O,0.06299X0.09843*%
%ADD45R,0.06299X0.09843*%
%ADD46R,0.06299X0.06299*%
%ADD47C,0.01968*%
%ADD48C,0.02362*%
%ADD49C,0.02756*%
%ADD50C,0.05906*%
G36*
X15700Y327180D02*
X212700D01*
X213662Y327180D01*
X215570Y326929D01*
X217429Y326431D01*
X219207Y325695D01*
X220873Y324732D01*
X222400Y323561D01*
X223761Y322200D01*
X224933Y320673D01*
X225895Y319007D01*
X226631Y317229D01*
X227129Y315370D01*
X227380Y313462D01*
X227380Y312500D01*
Y293264D01*
X226653Y292962D01*
X213137Y306478D01*
Y315909D01*
X205263D01*
Y306653D01*
X204536Y306351D01*
X203088Y307799D01*
X203171Y308428D01*
Y311972D01*
X203036Y312999D01*
X202639Y313957D01*
X202008Y314780D01*
X201185Y315411D01*
X200228Y315807D01*
X199200Y315943D01*
X198172Y315807D01*
X197214Y315411D01*
X196392Y314780D01*
X195761Y313957D01*
X195364Y312999D01*
X195229Y311972D01*
Y308428D01*
X195364Y307401D01*
X195761Y306443D01*
X196392Y305620D01*
X197214Y304989D01*
X198172Y304593D01*
X199200Y304457D01*
X200228Y304593D01*
X201185Y304989D01*
X201603Y305310D01*
X222076Y284837D01*
X221700Y284275D01*
Y282200D01*
X220700D01*
Y284141D01*
X220076Y283882D01*
X219518Y283324D01*
X219216Y282595D01*
Y282285D01*
X218428Y281959D01*
X193021Y307366D01*
X193036Y307401D01*
X193171Y308428D01*
Y311972D01*
X193036Y312999D01*
X192639Y313957D01*
X192008Y314780D01*
X191185Y315411D01*
X190228Y315807D01*
X189200Y315943D01*
X188172Y315807D01*
X187215Y315411D01*
X186392Y314780D01*
X185761Y313957D01*
X185364Y312999D01*
X185229Y311972D01*
Y308428D01*
X185364Y307401D01*
X185761Y306443D01*
X186392Y305620D01*
X187215Y304989D01*
X188172Y304593D01*
X189200Y304457D01*
X190228Y304593D01*
X191185Y304989D01*
X191320Y305093D01*
X220076Y276337D01*
X219700Y275775D01*
Y273700D01*
X218700D01*
Y275641D01*
X218076Y275382D01*
X217518Y274824D01*
X217216Y274095D01*
Y273513D01*
X216600Y273154D01*
X216488Y273127D01*
X182795Y306820D01*
X183036Y307401D01*
X183171Y308428D01*
Y311972D01*
X183036Y312999D01*
X182639Y313957D01*
X182008Y314780D01*
X181185Y315411D01*
X180228Y315807D01*
X179200Y315943D01*
X178172Y315807D01*
X177215Y315411D01*
X176392Y314780D01*
X175761Y313957D01*
X175364Y312999D01*
X175229Y311972D01*
Y308428D01*
X175364Y307401D01*
X175761Y306443D01*
X176392Y305620D01*
X177215Y304989D01*
X178172Y304593D01*
X179200Y304457D01*
X180228Y304593D01*
X180808Y304833D01*
X218466Y267176D01*
X218020Y266508D01*
X217700Y266641D01*
Y264700D01*
X216700D01*
Y266641D01*
X216076Y266382D01*
X215518Y265824D01*
X215331Y265373D01*
X214488Y265103D01*
X172788Y306803D01*
X173036Y307401D01*
X173171Y308428D01*
Y311972D01*
X173036Y312999D01*
X172639Y313957D01*
X172008Y314780D01*
X171186Y315411D01*
X170228Y315807D01*
X169200Y315943D01*
X168172Y315807D01*
X167215Y315411D01*
X166392Y314780D01*
X165761Y313957D01*
X165364Y312999D01*
X165229Y311972D01*
Y308428D01*
X165364Y307401D01*
X165761Y306443D01*
X166392Y305620D01*
X167215Y304989D01*
X168172Y304593D01*
X169200Y304457D01*
X170228Y304593D01*
X170791Y304826D01*
X217530Y258087D01*
Y243113D01*
X216803Y242812D01*
X212795Y246820D01*
X213036Y247401D01*
X213171Y248428D01*
Y251972D01*
X213036Y252999D01*
X212639Y253957D01*
X212008Y254780D01*
X211186Y255411D01*
X210228Y255807D01*
X209200Y255943D01*
X208172Y255807D01*
X207214Y255411D01*
X206392Y254780D01*
X205761Y253957D01*
X205364Y252999D01*
X205229Y251972D01*
Y248428D01*
X205364Y247401D01*
X205761Y246443D01*
X206029Y246093D01*
X205641Y245306D01*
X204310D01*
X202795Y246820D01*
X203036Y247401D01*
X203171Y248428D01*
Y251972D01*
X203036Y252999D01*
X202639Y253957D01*
X202008Y254780D01*
X201185Y255411D01*
X200228Y255807D01*
X199200Y255943D01*
X198172Y255807D01*
X197214Y255411D01*
X196392Y254780D01*
X195761Y253957D01*
X195364Y252999D01*
X195229Y251972D01*
Y248428D01*
X195277Y248062D01*
X194597Y247274D01*
X193664D01*
X193100Y247890D01*
X193171Y248428D01*
Y251972D01*
X193036Y252999D01*
X192639Y253957D01*
X192008Y254780D01*
X191185Y255411D01*
X190228Y255807D01*
X189200Y255943D01*
X188172Y255807D01*
X187215Y255411D01*
X186392Y254780D01*
X185761Y253957D01*
X185364Y252999D01*
X185229Y251972D01*
Y248428D01*
X185364Y247401D01*
X185761Y246443D01*
X185997Y246135D01*
X185678Y245456D01*
X184917Y245382D01*
X182996Y247304D01*
X183036Y247401D01*
X183171Y248428D01*
Y251972D01*
X183036Y252999D01*
X182639Y253957D01*
X182008Y254780D01*
X181185Y255411D01*
X180228Y255807D01*
X179200Y255943D01*
X178172Y255807D01*
X177215Y255411D01*
X176392Y254780D01*
X175761Y253957D01*
X175364Y252999D01*
X175229Y251972D01*
Y248428D01*
X175364Y247401D01*
X175761Y246443D01*
X176029Y246093D01*
X175641Y245306D01*
X174310D01*
X172795Y246820D01*
X173036Y247401D01*
X173171Y248428D01*
Y251972D01*
X173036Y252999D01*
X172639Y253957D01*
X172008Y254780D01*
X171186Y255411D01*
X170228Y255807D01*
X169200Y255943D01*
X168172Y255807D01*
X167215Y255411D01*
X166392Y254780D01*
X165761Y253957D01*
X165364Y252999D01*
X165229Y251972D01*
Y248428D01*
X165277Y248062D01*
X164597Y247274D01*
X163664D01*
X163100Y247890D01*
X163171Y248428D01*
Y251972D01*
X163036Y252999D01*
X162639Y253957D01*
X162008Y254780D01*
X161186Y255411D01*
X160228Y255807D01*
X159200Y255943D01*
X158172Y255807D01*
X157214Y255411D01*
X156392Y254780D01*
X155761Y253957D01*
X155364Y252999D01*
X155229Y251972D01*
Y248428D01*
X155364Y247401D01*
X155761Y246443D01*
X156029Y246093D01*
X155641Y245306D01*
X154309D01*
X152795Y246820D01*
X153036Y247401D01*
X153171Y248428D01*
Y251972D01*
X153036Y252999D01*
X152639Y253957D01*
X152008Y254780D01*
X151186Y255411D01*
X150228Y255807D01*
X149200Y255943D01*
X148172Y255807D01*
X147214Y255411D01*
X146392Y254780D01*
X145761Y253957D01*
X145364Y252999D01*
X145229Y251972D01*
Y248939D01*
X145118Y248794D01*
X144469Y248371D01*
X144460Y248371D01*
X144210Y248420D01*
X143178D01*
X143171Y248428D01*
Y251972D01*
X143036Y252999D01*
X142639Y253957D01*
X142008Y254780D01*
X141185Y255411D01*
X140228Y255807D01*
X139200Y255943D01*
X138172Y255807D01*
X137215Y255411D01*
X136392Y254780D01*
X135761Y253957D01*
X135364Y252999D01*
X135229Y251972D01*
Y248428D01*
X135364Y247401D01*
X135761Y246443D01*
X136392Y245620D01*
X137215Y244989D01*
X138172Y244593D01*
X139200Y244457D01*
X140228Y244593D01*
X141185Y244989D01*
X141996Y245611D01*
X141998Y245610D01*
X143628D01*
X147142Y242096D01*
X146841Y241369D01*
X138247D01*
X132795Y246820D01*
X133036Y247401D01*
X133171Y248428D01*
Y251972D01*
X133036Y252999D01*
X132639Y253957D01*
X132008Y254780D01*
X131185Y255411D01*
X130228Y255807D01*
X129200Y255943D01*
X128172Y255807D01*
X127215Y255411D01*
X126392Y254780D01*
X125761Y253957D01*
X125364Y252999D01*
X125229Y251972D01*
Y248428D01*
X125364Y247401D01*
X125761Y246443D01*
X126392Y245620D01*
X127215Y244989D01*
X128172Y244593D01*
X129200Y244457D01*
X130228Y244593D01*
X130808Y244833D01*
X135514Y240128D01*
X135212Y239400D01*
X130215D01*
X122795Y246820D01*
X123036Y247401D01*
X123171Y248428D01*
Y251972D01*
X123036Y252999D01*
X122639Y253957D01*
X122008Y254780D01*
X121186Y255411D01*
X120228Y255807D01*
X119200Y255943D01*
X118172Y255807D01*
X117215Y255411D01*
X116392Y254780D01*
X115761Y253957D01*
X115364Y252999D01*
X115229Y251972D01*
Y248428D01*
X115364Y247401D01*
X115551Y246949D01*
X114884Y246503D01*
X113378Y248009D01*
X113137Y248170D01*
X113171Y248428D01*
Y251972D01*
X113036Y252999D01*
X112639Y253957D01*
X112008Y254780D01*
X111186Y255411D01*
X110228Y255807D01*
X109200Y255943D01*
X108172Y255807D01*
X107214Y255411D01*
X106392Y254780D01*
X105761Y253957D01*
X105364Y252999D01*
X105229Y251972D01*
Y248428D01*
X105364Y247401D01*
X105761Y246443D01*
X106392Y245620D01*
X107214Y244989D01*
X108172Y244593D01*
X109200Y244457D01*
X110228Y244593D01*
X111186Y244989D01*
X111886Y245527D01*
X122380Y235033D01*
X122836Y234729D01*
X123373Y234622D01*
X160697D01*
X164223Y231096D01*
X164679Y230792D01*
X165216Y230685D01*
X168926D01*
X171429Y228182D01*
Y225514D01*
X170642Y225126D01*
X170594Y225162D01*
X169681Y225540D01*
X169200Y225604D01*
Y220700D01*
X168700D01*
D01*
X169200D01*
Y215796D01*
X169681Y215860D01*
X170594Y216238D01*
X171379Y216840D01*
X171836Y217436D01*
X172740Y217646D01*
X174203Y216183D01*
X173835Y215437D01*
X173700Y215455D01*
X172775Y215333D01*
X171913Y214976D01*
X171173Y214408D01*
X170605Y213668D01*
X170248Y212806D01*
X170126Y211881D01*
Y209519D01*
X170248Y208594D01*
X170605Y207732D01*
X171173Y206992D01*
X171873Y206455D01*
X171878Y206373D01*
X171545Y205667D01*
X169538D01*
X166994Y208212D01*
X167152Y208594D01*
X167274Y209519D01*
Y211881D01*
X167152Y212806D01*
X166795Y213668D01*
X166227Y214408D01*
X165487Y214976D01*
X164625Y215333D01*
X163700Y215455D01*
X162775Y215333D01*
X161913Y214976D01*
X161173Y214408D01*
X160605Y213668D01*
X160248Y212806D01*
X160126Y211881D01*
Y209519D01*
X160248Y208594D01*
X160605Y207732D01*
X161173Y206992D01*
X161913Y206424D01*
X162775Y206067D01*
X163700Y205945D01*
X164625Y206067D01*
X165007Y206225D01*
X167963Y203269D01*
X168419Y202964D01*
X168956Y202857D01*
X177993D01*
X178954Y201896D01*
X178653Y201168D01*
X175586D01*
Y200956D01*
X169893D01*
Y195444D01*
X171342D01*
Y193209D01*
X171276Y193110D01*
X171169Y192572D01*
Y190591D01*
X170606Y189900D01*
X170068Y189793D01*
X169621Y189495D01*
X169175Y189793D01*
X168637Y189900D01*
X168099Y189793D01*
X167653Y189495D01*
X167206Y189793D01*
X166668Y189900D01*
X166105Y190591D01*
Y198472D01*
X165998Y199010D01*
X165693Y199466D01*
X160623Y204536D01*
X160168Y204840D01*
X159630Y204947D01*
X129162D01*
X128624Y204840D01*
X128230Y204577D01*
X123467D01*
X123143Y205365D01*
X123567Y206098D01*
X123850Y207154D01*
Y207200D01*
X119700D01*
Y207700D01*
X119200D01*
Y211850D01*
X119154D01*
X118098Y211567D01*
X117152Y211020D01*
X116379Y210248D01*
X116269Y210056D01*
X115239Y209847D01*
X115105Y209947D01*
Y213479D01*
X115249Y213623D01*
X115553Y214079D01*
X115660Y214616D01*
Y220321D01*
X115924Y220585D01*
X116224Y221308D01*
Y222092D01*
X115924Y222815D01*
X115370Y223369D01*
X114647Y223669D01*
X113864D01*
X113140Y223369D01*
X112586Y222815D01*
X112287Y222092D01*
Y221308D01*
X112586Y220585D01*
X112511Y220454D01*
X112024Y219869D01*
X111300Y220168D01*
X110517D01*
X109794Y219869D01*
X109334Y219409D01*
X108874Y219869D01*
X108151Y220168D01*
X107368D01*
X106605Y220705D01*
Y221491D01*
X109137D01*
Y232909D01*
X101263D01*
Y222665D01*
X100536Y222363D01*
X98878Y224021D01*
X99036Y224401D01*
X99171Y225428D01*
Y228972D01*
X99036Y229999D01*
X98639Y230957D01*
X98008Y231780D01*
X97185Y232411D01*
X96806Y232568D01*
Y244076D01*
X97593Y244602D01*
X98117Y244386D01*
X98700Y244309D01*
Y250200D01*
X99200D01*
D01*
X98700D01*
Y256091D01*
X98117Y256014D01*
X97107Y255596D01*
X96317Y254990D01*
X95996Y255058D01*
X95530Y255299D01*
Y293704D01*
X95530Y293704D01*
X95408Y294318D01*
X95060Y294839D01*
X82878Y307021D01*
X83036Y307401D01*
X83171Y308428D01*
Y311972D01*
X83036Y312999D01*
X82639Y313957D01*
X82008Y314780D01*
X81186Y315411D01*
X80228Y315807D01*
X79200Y315943D01*
X78172Y315807D01*
X77214Y315411D01*
X76392Y314780D01*
X75761Y313957D01*
X75364Y312999D01*
X75229Y311972D01*
Y308428D01*
X75364Y307401D01*
X75761Y306443D01*
X75834Y306347D01*
X75241Y305827D01*
X73109Y307959D01*
X73171Y308428D01*
Y311972D01*
X73036Y312999D01*
X72639Y313957D01*
X72008Y314780D01*
X71185Y315411D01*
X70228Y315807D01*
X69200Y315943D01*
X68172Y315807D01*
X67215Y315411D01*
X66392Y314780D01*
X65761Y313957D01*
X65364Y312999D01*
X65229Y311972D01*
Y308428D01*
X65364Y307401D01*
X65761Y306443D01*
X66392Y305620D01*
X67215Y304989D01*
X68172Y304593D01*
X69200Y304457D01*
X70228Y304593D01*
X71185Y304989D01*
X71385Y305142D01*
X73741Y302786D01*
X73586Y301874D01*
X73565Y301849D01*
X73031Y301315D01*
X72732Y300592D01*
Y299808D01*
X73031Y299085D01*
X73094Y299022D01*
Y297077D01*
X72789Y296772D01*
X72441Y296251D01*
X72319Y295637D01*
X72319Y295637D01*
Y285316D01*
X71531Y284990D01*
X71324Y285197D01*
X70700Y285456D01*
Y283515D01*
Y281574D01*
X71324Y281833D01*
X71531Y282040D01*
X72319Y281714D01*
Y255534D01*
X71531Y255145D01*
X71185Y255411D01*
X70228Y255807D01*
X69200Y255943D01*
X68172Y255807D01*
X67215Y255411D01*
X66593Y254934D01*
X65806Y255219D01*
Y265952D01*
X68335Y268482D01*
X68683Y269003D01*
X68806Y269617D01*
X68806Y269617D01*
Y281093D01*
X69593Y281619D01*
X69700Y281574D01*
Y283515D01*
Y285456D01*
X69593Y285411D01*
X68806Y285937D01*
Y288627D01*
X68869Y288690D01*
X69169Y289414D01*
Y290197D01*
X68869Y290920D01*
X68315Y291474D01*
X67592Y291774D01*
X66808D01*
X66085Y291474D01*
X66026Y291415D01*
X65564Y291349D01*
X65012Y291480D01*
X64897Y291652D01*
X65168Y292308D01*
Y293092D01*
X64869Y293815D01*
X64315Y294369D01*
X63927Y294530D01*
Y295382D01*
X64315Y295543D01*
X64869Y296096D01*
X65168Y296820D01*
Y297603D01*
X64869Y298326D01*
X64315Y298880D01*
X63954Y299029D01*
Y299882D01*
X64315Y300031D01*
X64869Y300585D01*
X65168Y301308D01*
Y302092D01*
X64869Y302815D01*
X64315Y303369D01*
X63592Y303668D01*
X62808D01*
X62085Y303369D01*
X61531Y302815D01*
X61231Y302092D01*
Y302002D01*
X23065Y263835D01*
X22717Y263315D01*
X22594Y262700D01*
X22594Y262700D01*
Y255219D01*
X21807Y254934D01*
X21185Y255411D01*
X20228Y255807D01*
X19200Y255943D01*
X18172Y255807D01*
X17214Y255411D01*
X16392Y254780D01*
X15761Y253957D01*
X15364Y252999D01*
X15229Y251972D01*
Y248428D01*
X15364Y247401D01*
X15761Y246443D01*
X16392Y245620D01*
X17214Y244989D01*
X18172Y244593D01*
X19200Y244457D01*
X20228Y244593D01*
X21185Y244989D01*
X21807Y245466D01*
X22594Y245181D01*
Y240753D01*
X18789Y236948D01*
X18441Y236427D01*
X18319Y235812D01*
X18319Y235812D01*
Y232802D01*
X17531Y232413D01*
X17293Y232596D01*
X16283Y233014D01*
X15700Y233091D01*
Y227200D01*
Y221309D01*
X16283Y221386D01*
X17293Y221804D01*
X17531Y221987D01*
X18319Y221599D01*
Y204247D01*
X18319Y204247D01*
X18441Y203633D01*
X18789Y203112D01*
X21522Y200379D01*
X21364Y199999D01*
X21229Y198972D01*
Y195428D01*
X21364Y194401D01*
X21761Y193443D01*
X22392Y192620D01*
X23214Y191989D01*
X23594Y191832D01*
Y182345D01*
X23214Y182188D01*
X22593Y181711D01*
X21806Y181996D01*
Y186243D01*
X22036Y186473D01*
X22365Y187269D01*
Y188131D01*
X22036Y188927D01*
X21427Y189536D01*
X20631Y189865D01*
X19769D01*
X18973Y189536D01*
X18364Y188927D01*
X18035Y188131D01*
Y187269D01*
X18364Y186473D01*
X18594Y186243D01*
Y182368D01*
X17807Y181979D01*
X17293Y182374D01*
X16283Y182792D01*
X15985Y182831D01*
X15703Y183663D01*
X16335Y184295D01*
X16335Y184295D01*
X16683Y184816D01*
X16806Y185430D01*
Y191832D01*
X17186Y191989D01*
X18008Y192620D01*
X18639Y193443D01*
X19036Y194401D01*
X19171Y195428D01*
Y198972D01*
X19036Y199999D01*
X18639Y200957D01*
X18008Y201780D01*
X17186Y202411D01*
X16228Y202807D01*
X15200Y202943D01*
X14172Y202807D01*
X13215Y202411D01*
X12392Y201780D01*
X11761Y200957D01*
X11364Y199999D01*
X11229Y198972D01*
Y195428D01*
X11364Y194401D01*
X11761Y193443D01*
X12392Y192620D01*
X13215Y191989D01*
X13594Y191832D01*
Y186095D01*
X9340Y181841D01*
X8992Y181321D01*
X8870Y180706D01*
X8870Y180706D01*
Y121424D01*
X8870Y121424D01*
X8992Y120810D01*
X9340Y120289D01*
X32992Y96637D01*
X32666Y95850D01*
X32154D01*
X31098Y95567D01*
X30152Y95021D01*
X29379Y94248D01*
X28833Y93302D01*
X28550Y92246D01*
Y92200D01*
X32700D01*
Y91700D01*
X33200D01*
Y87550D01*
X33246D01*
X34302Y87833D01*
X35248Y88380D01*
X36020Y89152D01*
X36567Y90098D01*
X36850Y91154D01*
Y91666D01*
X37637Y91992D01*
X46506Y83124D01*
X46263Y82218D01*
Y81182D01*
X46531Y80180D01*
X47050Y79283D01*
X47783Y78550D01*
X48193Y78313D01*
Y75087D01*
X47783Y74850D01*
X47050Y74117D01*
X46531Y73220D01*
X46263Y72218D01*
Y71182D01*
X46531Y70180D01*
X47050Y69283D01*
X47783Y68550D01*
X48680Y68031D01*
X49682Y67763D01*
X50718D01*
X51720Y68031D01*
X52617Y68550D01*
X53350Y69283D01*
X53869Y70180D01*
X54137Y71182D01*
Y72218D01*
X53869Y73220D01*
X53350Y74117D01*
X52617Y74850D01*
X52207Y75087D01*
Y78313D01*
X52617Y78550D01*
X53350Y79283D01*
X53869Y80180D01*
X54137Y81182D01*
Y82218D01*
X53869Y83220D01*
X53350Y84117D01*
X52617Y84850D01*
X51720Y85369D01*
X50718Y85637D01*
X49682D01*
X48776Y85394D01*
X12081Y122090D01*
Y128259D01*
X12161Y128292D01*
X12869Y128500D01*
X13680Y128031D01*
X14682Y127763D01*
X15718D01*
X16176Y127886D01*
X46529Y97533D01*
X47180Y97098D01*
X47948Y96945D01*
X119070D01*
X119398Y96517D01*
X119104Y95702D01*
X118598Y95567D01*
X117652Y95021D01*
X116879Y94248D01*
X116333Y93302D01*
X116050Y92246D01*
Y92200D01*
X120200D01*
Y91700D01*
X120700D01*
Y87550D01*
X120746D01*
X121802Y87833D01*
X122748Y88380D01*
X123521Y89152D01*
X123658Y89389D01*
X124445Y89200D01*
Y83796D01*
X123658Y83585D01*
X123350Y84117D01*
X122617Y84850D01*
X121720Y85369D01*
X120718Y85637D01*
X119682D01*
X118680Y85369D01*
X117783Y84850D01*
X117050Y84117D01*
X116531Y83220D01*
X116263Y82218D01*
Y81182D01*
X116531Y80180D01*
X117050Y79283D01*
X117783Y78550D01*
X118193Y78313D01*
Y75087D01*
X117783Y74850D01*
X117050Y74117D01*
X116531Y73220D01*
X116263Y72218D01*
Y71182D01*
X116531Y70180D01*
X117050Y69283D01*
X117783Y68550D01*
X118680Y68031D01*
X119682Y67763D01*
X120718D01*
X121720Y68031D01*
X122617Y68550D01*
X123350Y69283D01*
X123869Y70180D01*
X124137Y71182D01*
Y72218D01*
X123869Y73220D01*
X123350Y74117D01*
X122617Y74850D01*
X122207Y75087D01*
Y78313D01*
X122617Y78550D01*
X123350Y79283D01*
X123658Y79815D01*
X124445Y79604D01*
Y74509D01*
X124598Y73741D01*
X125033Y73090D01*
X137193Y60930D01*
Y34286D01*
X136512Y34196D01*
X135842Y33918D01*
X135266Y33477D01*
X134824Y32901D01*
X134608Y32379D01*
X134276Y32313D01*
X134124D01*
X133792Y32379D01*
X133576Y32901D01*
X133134Y33477D01*
X132558Y33918D01*
X131888Y34196D01*
X131168Y34291D01*
X130605D01*
Y62043D01*
X131036Y62473D01*
X131365Y63269D01*
Y64131D01*
X131036Y64927D01*
X130427Y65536D01*
X129631Y65865D01*
X128769D01*
X127973Y65536D01*
X127364Y64927D01*
X127035Y64131D01*
Y63269D01*
X127364Y62473D01*
X127795Y62043D01*
Y34291D01*
X127232D01*
X126512Y34196D01*
X125842Y33918D01*
X125266Y33477D01*
X124824Y32901D01*
X124608Y32379D01*
X124276Y32313D01*
X124124D01*
X123792Y32379D01*
X123576Y32901D01*
X123134Y33477D01*
X122558Y33918D01*
X121888Y34196D01*
X121707Y34220D01*
Y58028D01*
X121720Y58031D01*
X122617Y58550D01*
X123350Y59283D01*
X123869Y60180D01*
X124137Y61182D01*
Y62218D01*
X123869Y63220D01*
X123350Y64117D01*
X122617Y64850D01*
X121720Y65369D01*
X120718Y65637D01*
X119682D01*
X118680Y65369D01*
X117783Y64850D01*
X117050Y64117D01*
X116531Y63220D01*
X116263Y62218D01*
Y61182D01*
X116531Y60180D01*
X117050Y59283D01*
X117693Y58639D01*
Y34291D01*
X117232D01*
X116512Y34196D01*
X115842Y33918D01*
X115266Y33477D01*
X114824Y32901D01*
X114608Y32379D01*
X114276Y32313D01*
X114124D01*
X113792Y32379D01*
X113576Y32901D01*
X113134Y33477D01*
X112558Y33918D01*
X111888Y34196D01*
X111169Y34291D01*
X107231D01*
X106512Y34196D01*
X105842Y33918D01*
X105266Y33477D01*
X104824Y32901D01*
X104608Y32379D01*
X104276Y32313D01*
X104124D01*
X103792Y32379D01*
X103576Y32901D01*
X103134Y33477D01*
X102558Y33918D01*
X101888Y34196D01*
X101169Y34291D01*
X97232D01*
X96512Y34196D01*
X95842Y33918D01*
X95266Y33477D01*
X94824Y32901D01*
X94608Y32379D01*
X94276Y32313D01*
X94124D01*
X93792Y32379D01*
X93576Y32901D01*
X93134Y33477D01*
X92558Y33918D01*
X91888Y34196D01*
X91168Y34291D01*
X87231D01*
X86512Y34196D01*
X85842Y33918D01*
X85266Y33477D01*
X84824Y32901D01*
X84608Y32379D01*
X84276Y32313D01*
X84124D01*
X83792Y32379D01*
X83576Y32901D01*
X83134Y33477D01*
X82558Y33918D01*
X81888Y34196D01*
X81169Y34291D01*
X77232D01*
X76512Y34196D01*
X75842Y33918D01*
X75266Y33477D01*
X74824Y32901D01*
X74608Y32379D01*
X74276Y32313D01*
X74124D01*
X73792Y32379D01*
X73576Y32901D01*
X73134Y33477D01*
X72558Y33918D01*
X71888Y34196D01*
X71207Y34286D01*
Y35369D01*
X78031Y42193D01*
X95200D01*
X95968Y42346D01*
X96619Y42781D01*
X104119Y50281D01*
X104554Y50932D01*
X104707Y51700D01*
Y58313D01*
X105117Y58550D01*
X105850Y59283D01*
X106369Y60180D01*
X106637Y61182D01*
Y62218D01*
X106369Y63220D01*
X105850Y64117D01*
X105117Y64850D01*
X104220Y65369D01*
X103218Y65637D01*
X102182D01*
X101180Y65369D01*
X100283Y64850D01*
X99550Y64117D01*
X99031Y63220D01*
X98763Y62218D01*
Y61182D01*
X99031Y60180D01*
X99550Y59283D01*
X100283Y58550D01*
X100693Y58313D01*
Y52531D01*
X94369Y46207D01*
X77200D01*
X76432Y46054D01*
X75781Y45619D01*
X67781Y37619D01*
X67346Y36968D01*
X67193Y36200D01*
Y34286D01*
X66512Y34196D01*
X65842Y33918D01*
X65266Y33477D01*
X64824Y32901D01*
X64608Y32379D01*
X64276Y32313D01*
X64124D01*
X63792Y32379D01*
X63576Y32901D01*
X63134Y33477D01*
X62558Y33918D01*
X61888Y34196D01*
X61581Y34236D01*
X61394Y35055D01*
X84224Y57886D01*
X84682Y57763D01*
X85718D01*
X86720Y58031D01*
X87617Y58550D01*
X88350Y59283D01*
X88869Y60180D01*
X89137Y61182D01*
Y62218D01*
X88869Y63220D01*
X88350Y64117D01*
X87617Y64850D01*
X86720Y65369D01*
X85718Y65637D01*
X84682D01*
X83680Y65369D01*
X82783Y64850D01*
X82050Y64117D01*
X81531Y63220D01*
X81263Y62218D01*
Y61182D01*
X81386Y60724D01*
X57781Y37119D01*
X57346Y36468D01*
X57193Y35700D01*
Y34286D01*
X56512Y34196D01*
X55842Y33918D01*
X55266Y33477D01*
X54824Y32901D01*
X54608Y32379D01*
X54276Y32313D01*
X54124D01*
X53792Y32379D01*
X53576Y32901D01*
X53134Y33477D01*
X52558Y33918D01*
X51888Y34196D01*
X51207Y34286D01*
Y42369D01*
X66724Y57886D01*
X67182Y57763D01*
X68218D01*
X69220Y58031D01*
X70117Y58550D01*
X70850Y59283D01*
X71369Y60180D01*
X71637Y61182D01*
Y62218D01*
X71369Y63220D01*
X70850Y64117D01*
X70117Y64850D01*
X69220Y65369D01*
X68218Y65637D01*
X67182D01*
X66180Y65369D01*
X65283Y64850D01*
X64550Y64117D01*
X64031Y63220D01*
X63763Y62218D01*
Y61182D01*
X63886Y60724D01*
X47781Y44619D01*
X47346Y43968D01*
X47193Y43200D01*
Y34286D01*
X46512Y34196D01*
X45842Y33918D01*
X45266Y33477D01*
X44824Y32901D01*
X44608Y32379D01*
X44276Y32313D01*
X44124D01*
X43792Y32379D01*
X43576Y32901D01*
X43134Y33477D01*
X42558Y33918D01*
X41888Y34196D01*
X41168Y34291D01*
X37231D01*
X36512Y34196D01*
X35842Y33918D01*
X35266Y33477D01*
X34824Y32901D01*
X34608Y32379D01*
X34276Y32313D01*
X34124D01*
X33792Y32379D01*
X33576Y32901D01*
X33134Y33477D01*
X32558Y33918D01*
X31888Y34196D01*
X31168Y34291D01*
X27231D01*
X26512Y34196D01*
X25842Y33918D01*
X25266Y33477D01*
X24824Y32901D01*
X24608Y32379D01*
X24276Y32313D01*
X24124D01*
X23792Y32379D01*
X23576Y32901D01*
X23134Y33477D01*
X22972Y33601D01*
Y42200D01*
X22844Y43176D01*
X22467Y44086D01*
X21868Y44868D01*
X16972Y49763D01*
Y79921D01*
X17137D01*
Y87795D01*
X14598D01*
X13550Y88842D01*
X13911Y89595D01*
X14802Y89833D01*
X15748Y90380D01*
X16521Y91152D01*
X17067Y92098D01*
X17350Y93154D01*
Y93200D01*
X13200D01*
Y93700D01*
X12700D01*
Y97850D01*
X12654D01*
X11598Y97567D01*
X10652Y97021D01*
X9879Y96248D01*
X9333Y95302D01*
X9189Y94762D01*
X8357Y94442D01*
X7972Y94727D01*
Y187199D01*
X8716Y187305D01*
X9018Y186576D01*
X9576Y186018D01*
X10200Y185759D01*
Y187700D01*
Y189641D01*
X9576Y189382D01*
X9018Y188824D01*
X8716Y188095D01*
X7972Y188201D01*
Y312637D01*
X13263Y317928D01*
X105428D01*
Y313152D01*
X105364Y312999D01*
X105229Y311972D01*
Y308428D01*
X105364Y307401D01*
X105761Y306443D01*
X106392Y305620D01*
X107214Y304989D01*
X108172Y304593D01*
X109200Y304457D01*
X110228Y304593D01*
X111186Y304989D01*
X112008Y305620D01*
X112639Y306443D01*
X113036Y307401D01*
X113171Y308428D01*
Y311972D01*
X113036Y312999D01*
X112972Y313152D01*
Y320567D01*
X113137Y321182D01*
Y322218D01*
X112869Y323220D01*
X112350Y324117D01*
X111617Y324850D01*
X110720Y325369D01*
X109718Y325637D01*
X108682D01*
X108068Y325472D01*
X11700D01*
X10724Y325344D01*
X9814Y324967D01*
X9032Y324367D01*
X3135Y318470D01*
X2468Y318916D01*
X2505Y319007D01*
X3467Y320673D01*
X4639Y322200D01*
X6000Y323561D01*
X7526Y324733D01*
X9193Y325695D01*
X10971Y326431D01*
X12830Y326929D01*
X14738Y327181D01*
X15700Y327180D01*
D02*
G37*
G36*
X82594Y293932D02*
Y255219D01*
X81807Y254934D01*
X81186Y255411D01*
X80228Y255807D01*
X79200Y255943D01*
X78172Y255807D01*
X77214Y255411D01*
X76392Y254780D01*
X76318Y254682D01*
X75530Y254950D01*
Y258535D01*
X76318Y258918D01*
X76700Y258759D01*
Y260700D01*
Y262641D01*
X76318Y262482D01*
X75530Y262865D01*
Y294971D01*
X75835Y295277D01*
X76183Y295798D01*
X76306Y296412D01*
X76306Y296412D01*
Y299022D01*
X76369Y299085D01*
X77286Y299241D01*
X82594Y293932D01*
D02*
G37*
G36*
X78172Y304593D02*
X79200Y304457D01*
X80228Y304593D01*
X80608Y304750D01*
X92319Y293039D01*
Y255534D01*
X91531Y255145D01*
X91185Y255411D01*
X90228Y255807D01*
X89200Y255943D01*
X88172Y255807D01*
X87214Y255411D01*
X86593Y254934D01*
X85806Y255219D01*
Y294597D01*
X85683Y295212D01*
X85335Y295733D01*
X85335Y295733D01*
X76977Y304091D01*
X76967Y304240D01*
X77720Y304780D01*
X78172Y304593D01*
D02*
G37*
G36*
X61363Y291990D02*
X61531Y291585D01*
X61594Y291522D01*
Y289556D01*
X60836Y289018D01*
X60053D01*
X59329Y288718D01*
X58775Y288164D01*
X58476Y287441D01*
Y286658D01*
X58775Y285934D01*
X58838Y285871D01*
Y272609D01*
X43065Y256835D01*
X42717Y256314D01*
X42594Y255700D01*
X42594Y255700D01*
Y255219D01*
X41807Y254934D01*
X41186Y255411D01*
X40228Y255807D01*
X39200Y255943D01*
X38172Y255807D01*
X37214Y255411D01*
X36392Y254780D01*
X36318Y254682D01*
X35530Y254950D01*
Y267271D01*
X60504Y292245D01*
X61363Y291990D01*
D02*
G37*
G36*
X194223Y231096D02*
X194679Y230792D01*
X195216Y230685D01*
X201782D01*
Y225242D01*
X200995Y224854D01*
X200594Y225162D01*
X199680Y225540D01*
X199200Y225604D01*
Y220700D01*
X198200D01*
Y225604D01*
X197720Y225540D01*
X196806Y225162D01*
X196021Y224560D01*
X195564Y223964D01*
X194660Y223754D01*
X184520Y233894D01*
X184821Y234622D01*
X190697D01*
X194223Y231096D01*
D02*
G37*
G36*
X183161Y225769D02*
Y222803D01*
X182374Y222751D01*
X182359Y222862D01*
X181981Y223775D01*
X181379Y224560D01*
X180594Y225162D01*
X179681Y225540D01*
X179200Y225604D01*
Y220700D01*
X178200D01*
Y225604D01*
X177719Y225540D01*
X176806Y225162D01*
X176021Y224560D01*
X175419Y223775D01*
X175041Y222862D01*
X175026Y222751D01*
X174239Y222803D01*
Y228764D01*
X174132Y229302D01*
X173827Y229757D01*
X171659Y231926D01*
X171960Y232653D01*
X176277D01*
X183161Y225769D01*
D02*
G37*
G36*
X207688Y201172D02*
Y180771D01*
X207236Y180382D01*
X206364Y180540D01*
X206201Y180784D01*
X205675Y181135D01*
X205054Y181259D01*
X203389D01*
Y179637D01*
X202889D01*
Y179137D01*
X199201D01*
X199225Y179016D01*
X199577Y178490D01*
X199604Y178472D01*
X199426Y178206D01*
X199319Y177668D01*
X199426Y177131D01*
X199724Y176684D01*
X199426Y176238D01*
X199319Y175700D01*
X199426Y175162D01*
X199724Y174716D01*
X199426Y174269D01*
X199319Y173732D01*
X199426Y173194D01*
X199724Y172747D01*
X199426Y172301D01*
X199319Y171763D01*
X199426Y171225D01*
X199724Y170779D01*
X199426Y170332D01*
X199319Y169794D01*
X199426Y169257D01*
X199604Y168991D01*
X199577Y168973D01*
X199225Y168447D01*
X199201Y168326D01*
X202889D01*
Y167326D01*
X199201D01*
X199225Y167205D01*
X199577Y166679D01*
X199604Y166661D01*
X199426Y166395D01*
X199319Y165858D01*
X199426Y165320D01*
X199724Y164873D01*
X199426Y164427D01*
X199319Y163889D01*
X199426Y163351D01*
X199724Y162905D01*
X199426Y162458D01*
X199319Y161920D01*
X199426Y161383D01*
X199724Y160936D01*
X199426Y160490D01*
X199319Y159952D01*
X199426Y159414D01*
X199724Y158968D01*
X199426Y158521D01*
X199319Y157984D01*
X199426Y157446D01*
X199724Y156999D01*
X199426Y156553D01*
X199319Y156015D01*
X199426Y155477D01*
X199604Y155211D01*
X199577Y155193D01*
X199225Y154667D01*
X199102Y154046D01*
X198639Y153483D01*
X197701D01*
X197541Y153643D01*
X196818Y153943D01*
X196034D01*
X195311Y153643D01*
X194757Y153089D01*
X194457Y152366D01*
Y151582D01*
X194757Y150859D01*
X195311Y150305D01*
X196034Y150005D01*
X196818D01*
X197541Y150305D01*
X197909Y150673D01*
X198628D01*
X199319Y150109D01*
X199426Y149572D01*
X199724Y149125D01*
X199426Y148679D01*
X199319Y148141D01*
X198628Y147577D01*
X197607D01*
X197493Y147691D01*
X196770Y147991D01*
X195986D01*
X195263Y147691D01*
X194709Y147137D01*
X194410Y146414D01*
Y145631D01*
X194709Y144907D01*
X195263Y144353D01*
X195986Y144053D01*
X196770D01*
X197493Y144353D01*
X197907Y144767D01*
X198628D01*
X199319Y144204D01*
X199426Y143666D01*
X199724Y143220D01*
X199426Y142773D01*
X199319Y142235D01*
X199426Y141698D01*
X199724Y141251D01*
X199426Y140805D01*
X199319Y140267D01*
X199426Y139729D01*
X199724Y139283D01*
X199426Y138836D01*
X199319Y138298D01*
X198565Y138052D01*
X197585D01*
X197321Y138316D01*
X196597Y138616D01*
X195814D01*
X195091Y138316D01*
X194537Y137762D01*
X194237Y137039D01*
Y136256D01*
X194537Y135532D01*
X195091Y134978D01*
X195814Y134679D01*
X195882D01*
X196034Y134451D01*
Y133668D01*
X196333Y132945D01*
X196887Y132391D01*
X197610Y132091D01*
X198394D01*
X198562Y132161D01*
X199426Y131855D01*
X199730Y131400D01*
X200186Y131095D01*
X200724Y130988D01*
X211944D01*
Y129361D01*
X211732D01*
Y126795D01*
X214700D01*
Y126295D01*
D01*
Y126795D01*
X217669D01*
Y129361D01*
X217456D01*
Y130193D01*
X219869D01*
X222693Y127369D01*
Y115575D01*
X189454Y82336D01*
X189452Y82332D01*
X187478D01*
X186729Y82183D01*
X186094Y81759D01*
X185670Y81124D01*
X185521Y80375D01*
Y78111D01*
X185670Y77363D01*
X186094Y76728D01*
X186729Y76303D01*
X187200Y76210D01*
Y75407D01*
X186646Y75297D01*
X185941Y74826D01*
X185469Y74120D01*
X185304Y73289D01*
Y72657D01*
X189200D01*
X193096D01*
Y73289D01*
X192931Y74120D01*
X192459Y74826D01*
X191754Y75297D01*
X191200Y75407D01*
Y76210D01*
X191671Y76303D01*
X192306Y76728D01*
X192730Y77363D01*
X192745Y77437D01*
X195473D01*
X195832Y77197D01*
X196369Y77090D01*
X197550D01*
X198088Y77197D01*
X198544Y77502D01*
X198848Y77958D01*
X198955Y78495D01*
Y81251D01*
X198848Y81789D01*
X198544Y82245D01*
X198088Y82549D01*
X197550Y82656D01*
X196565D01*
X196279Y83131D01*
X196222Y83427D01*
X226119Y113324D01*
X226554Y113975D01*
X226593Y114170D01*
X227380Y114092D01*
X227380Y19003D01*
X224163D01*
Y19200D01*
X219200D01*
Y19700D01*
X218700D01*
Y34505D01*
X217231D01*
X216457Y34403D01*
X215734Y34104D01*
X215114Y33628D01*
X214638Y33008D01*
X214511Y32700D01*
X213659D01*
X213576Y32901D01*
X213134Y33477D01*
X212558Y33918D01*
X211888Y34196D01*
X211207Y34286D01*
Y36700D01*
X211054Y37468D01*
X210619Y38119D01*
X205619Y43119D01*
X205221Y43386D01*
X205211Y43401D01*
X205096Y44167D01*
X205128Y44322D01*
X205382Y44576D01*
X205641Y45200D01*
X201759D01*
X202018Y44576D01*
X202099Y44495D01*
X201773Y43707D01*
X191681D01*
X150707Y84681D01*
Y89200D01*
Y101618D01*
X150554Y102386D01*
X150119Y103037D01*
X130737Y122418D01*
X130086Y122854D01*
X129318Y123006D01*
X96732D01*
X92703Y127035D01*
X93004Y127763D01*
X99137D01*
Y135637D01*
X91263D01*
Y129504D01*
X90535Y129203D01*
X89014Y130724D01*
X89137Y131182D01*
Y132218D01*
X88869Y133220D01*
X88350Y134117D01*
X87617Y134850D01*
X87113Y135142D01*
Y141737D01*
X87186Y141767D01*
X88008Y142398D01*
X88639Y143220D01*
X89036Y144178D01*
X89171Y145206D01*
Y148749D01*
X89036Y149777D01*
X88639Y150735D01*
X88008Y151557D01*
X87186Y152188D01*
X86806Y152345D01*
Y154063D01*
X100640Y167897D01*
X101428Y167571D01*
Y149930D01*
X101364Y149777D01*
X101229Y148749D01*
Y145206D01*
X101364Y144178D01*
X101761Y143220D01*
X102392Y142398D01*
X103215Y141767D01*
X104172Y141370D01*
X105200Y141235D01*
X106228Y141370D01*
X107185Y141767D01*
X108008Y142398D01*
X108627Y143205D01*
X119371D01*
X119811Y143263D01*
X120218D01*
X121220Y143531D01*
X122117Y144050D01*
X122850Y144783D01*
X123369Y145680D01*
X123637Y146682D01*
Y147718D01*
X123369Y148720D01*
X122850Y149617D01*
X122117Y150350D01*
X121220Y150869D01*
X120218Y151137D01*
X119182D01*
X118180Y150869D01*
X117975Y150750D01*
X108972D01*
Y171269D01*
X109137D01*
Y182686D01*
X108972D01*
Y186807D01*
X109731Y186875D01*
X110031Y186152D01*
X110585Y185598D01*
X111308Y185298D01*
X111901D01*
X112241Y184740D01*
X112287Y184571D01*
X112031Y184315D01*
X111732Y183592D01*
Y182808D01*
X112031Y182085D01*
X112585Y181531D01*
X113308Y181231D01*
X114092D01*
X114114Y181241D01*
X115031Y181085D01*
X115585Y180531D01*
X116308Y180231D01*
X117092D01*
X117815Y180531D01*
X118369Y181085D01*
X118663Y181795D01*
X125522D01*
X126060Y181902D01*
X126516Y182206D01*
X134604Y190295D01*
X147367D01*
X147563Y190002D01*
X147715Y189508D01*
X147454Y189116D01*
X147330Y188495D01*
Y186830D01*
X148952D01*
Y186330D01*
X149452D01*
Y182642D01*
X149573Y182666D01*
X150099Y183018D01*
X150117Y183045D01*
X150383Y182867D01*
X150920Y182760D01*
X151484Y182069D01*
Y175511D01*
X151591Y174973D01*
X151895Y174518D01*
X164076Y162337D01*
X163858Y161441D01*
X163464Y161278D01*
X162851Y160664D01*
X162546Y159929D01*
X164700D01*
Y158929D01*
X162546D01*
X162851Y158193D01*
X163152Y157892D01*
X162826Y157105D01*
X161885D01*
X146262Y172728D01*
X146234Y172765D01*
X146272Y173111D01*
X146808Y173732D01*
X147592D01*
X148315Y174031D01*
X148869Y174585D01*
X149169Y175308D01*
Y176092D01*
X148869Y176815D01*
X148315Y177369D01*
X147592Y177668D01*
X146808D01*
X146589Y177578D01*
X146509Y177587D01*
X145803Y178031D01*
X145514Y178787D01*
X145722Y179099D01*
X145829Y179637D01*
X145722Y180175D01*
X145418Y180631D01*
X144962Y180935D01*
X144424Y181042D01*
X141499D01*
Y181487D01*
X141392Y182024D01*
X141168Y182358D01*
Y183092D01*
X140869Y183815D01*
X140315Y184369D01*
X139592Y184669D01*
X138808D01*
X138085Y184369D01*
X137531Y183815D01*
X137232Y183092D01*
Y182308D01*
X137531Y181585D01*
X138085Y181031D01*
X138689Y180781D01*
Y179658D01*
X138098Y179163D01*
X137573Y179244D01*
X137304Y179318D01*
X137019Y180007D01*
X136465Y180560D01*
X135741Y180860D01*
X134958D01*
X134235Y180560D01*
X133956Y180281D01*
X133168Y180607D01*
Y180720D01*
X130700D01*
Y177653D01*
X130200D01*
Y177153D01*
X127232D01*
Y174586D01*
X127444D01*
Y168893D01*
X132956D01*
Y170342D01*
X133918D01*
X134427Y169834D01*
X134493Y168959D01*
X134193Y168235D01*
Y167452D01*
X134493Y166728D01*
X135046Y166175D01*
X135770Y165875D01*
X136553D01*
X137277Y166175D01*
X137830Y166728D01*
X138679Y166719D01*
X138814Y166423D01*
X138796Y166395D01*
X138689Y165858D01*
X138796Y165320D01*
X139094Y164873D01*
X138796Y164427D01*
X138689Y163889D01*
X138796Y163351D01*
X139094Y162905D01*
X138796Y162458D01*
X138689Y161920D01*
X138796Y161383D01*
X139094Y160936D01*
X138796Y160490D01*
X138689Y159952D01*
X138796Y159414D01*
X139094Y158968D01*
X138796Y158521D01*
X138689Y157984D01*
X138796Y157446D01*
X139094Y156999D01*
X138796Y156553D01*
X138689Y156015D01*
X138796Y155477D01*
X139094Y155031D01*
X138796Y154584D01*
X138689Y154046D01*
X138796Y153509D01*
X139094Y153062D01*
X138796Y152616D01*
X138689Y152078D01*
X138796Y151540D01*
X139094Y151094D01*
X138796Y150647D01*
X138689Y150109D01*
X138796Y149572D01*
X139094Y149125D01*
X138796Y148679D01*
X138689Y148141D01*
X138796Y147603D01*
X139094Y147157D01*
X138796Y146710D01*
X138689Y146172D01*
X138796Y145635D01*
X139094Y145188D01*
X138796Y144742D01*
X138689Y144204D01*
X137998Y143640D01*
X135110D01*
X134716Y143562D01*
X134592Y143613D01*
X133808D01*
X133085Y143314D01*
X132531Y142760D01*
X132231Y142036D01*
Y141253D01*
X132531Y140530D01*
X133085Y139976D01*
X133808Y139676D01*
X134592D01*
X135315Y139976D01*
X135869Y140530D01*
X135993Y140831D01*
X138010D01*
X138472Y140267D01*
X138595Y139646D01*
X138947Y139120D01*
X138974Y139102D01*
X138796Y138836D01*
X138689Y138298D01*
X137998Y137735D01*
X135579D01*
X135315Y137999D01*
X134592Y138298D01*
X133808D01*
X133085Y137999D01*
X132531Y137445D01*
X132231Y136722D01*
Y135938D01*
X132531Y135215D01*
X133085Y134661D01*
X133808Y134361D01*
X133923D01*
X134249Y133574D01*
X133618Y132943D01*
X109449D01*
X98795Y143597D01*
X99036Y144178D01*
X99171Y145206D01*
Y148749D01*
X99036Y149777D01*
X98639Y150735D01*
X98008Y151557D01*
X97185Y152188D01*
X96228Y152585D01*
X95200Y152720D01*
X94172Y152585D01*
X93214Y152188D01*
X92392Y151557D01*
X91761Y150735D01*
X91364Y149777D01*
X91229Y148749D01*
Y145206D01*
X91364Y144178D01*
X91761Y143220D01*
X92392Y142398D01*
X93214Y141767D01*
X94172Y141370D01*
X95200Y141235D01*
X96228Y141370D01*
X96808Y141611D01*
X107874Y130545D01*
X108330Y130240D01*
X108867Y130134D01*
X132236D01*
X132562Y129346D01*
X132531Y129315D01*
X132231Y128592D01*
Y127808D01*
X132531Y127085D01*
X133085Y126531D01*
X133808Y126232D01*
X134592D01*
X135315Y126531D01*
X135805Y127021D01*
X136127D01*
X136664Y127128D01*
X137120Y127433D01*
X140676Y130988D01*
X144424D01*
X144962Y131095D01*
X145418Y131400D01*
X145722Y131855D01*
X145829Y132393D01*
X145722Y132931D01*
X145424Y133377D01*
X145722Y133824D01*
X145829Y134361D01*
X145722Y134899D01*
X145424Y135346D01*
X145722Y135792D01*
X145829Y136330D01*
X146520Y136893D01*
X147223D01*
X147585Y136531D01*
X148308Y136232D01*
X149092D01*
X149815Y136531D01*
X150369Y137085D01*
X150669Y137808D01*
Y138592D01*
X150369Y139315D01*
X149815Y139869D01*
X149092Y140168D01*
X148308D01*
X147585Y139869D01*
X147420Y139703D01*
X146509D01*
X146046Y140267D01*
X145923Y140887D01*
X145571Y141414D01*
X145545Y141431D01*
X145722Y141698D01*
X145829Y142235D01*
X145722Y142773D01*
X145424Y143220D01*
X145722Y143666D01*
X145829Y144204D01*
X145722Y144742D01*
X145424Y145188D01*
X145722Y145635D01*
X145829Y146172D01*
X145722Y146710D01*
X145424Y147157D01*
X145722Y147603D01*
X145829Y148141D01*
X145722Y148679D01*
X145424Y149125D01*
X145722Y149572D01*
X145829Y150109D01*
X145722Y150647D01*
X145424Y151094D01*
X145722Y151540D01*
X145829Y152078D01*
X145722Y152616D01*
X145424Y153062D01*
X145722Y153509D01*
X145829Y154046D01*
X145722Y154584D01*
X145424Y155031D01*
X145722Y155477D01*
X145829Y156015D01*
X145722Y156553D01*
X145424Y156999D01*
X145722Y157446D01*
X145829Y157984D01*
X145722Y158521D01*
X145424Y158968D01*
X145722Y159414D01*
X145829Y159952D01*
X145722Y160490D01*
X145424Y160936D01*
X145722Y161383D01*
X145829Y161920D01*
X145722Y162458D01*
X145424Y162905D01*
X145722Y163351D01*
X145829Y163889D01*
X145722Y164427D01*
X145424Y164873D01*
X145722Y165320D01*
X145829Y165858D01*
X145722Y166395D01*
X145424Y166842D01*
X145722Y167288D01*
X145829Y167826D01*
X145768Y168134D01*
X146487Y168529D01*
X160309Y154707D01*
X160765Y154402D01*
X161303Y154295D01*
X162875D01*
X163201Y153508D01*
X163018Y153324D01*
X162759Y152700D01*
X164700D01*
Y151700D01*
X162759D01*
X163018Y151076D01*
X163576Y150518D01*
X164171Y150271D01*
X164382Y149771D01*
X164442Y149428D01*
X147959Y132945D01*
X147654Y132490D01*
X147547Y131952D01*
Y127865D01*
Y124117D01*
X146529Y123099D01*
X146225Y122643D01*
X146118Y122106D01*
Y116779D01*
X146225Y116241D01*
X146529Y115785D01*
X147846Y114469D01*
Y110944D01*
X153539D01*
Y110731D01*
X156105D01*
Y113700D01*
X157106D01*
Y110731D01*
X159672D01*
Y112730D01*
X160344Y112912D01*
X160460Y112917D01*
X160992Y112384D01*
X161013Y112376D01*
X161449Y111611D01*
X161412Y111423D01*
X161342Y111074D01*
Y110515D01*
X160852Y110025D01*
X160553Y109302D01*
Y108518D01*
X160852Y107795D01*
X161406Y107241D01*
X162129Y106941D01*
X162913D01*
X163235Y107075D01*
X163322Y107018D01*
X163621Y106294D01*
X164175Y105740D01*
X164899Y105441D01*
X165682D01*
X166405Y105740D01*
X166959Y106294D01*
X167259Y107018D01*
Y107351D01*
X168008Y107893D01*
X168245Y107794D01*
X169029D01*
X169302Y107908D01*
X169488Y107789D01*
X169864Y107052D01*
X169535Y106256D01*
Y105395D01*
X169864Y104599D01*
X170473Y103990D01*
X171269Y103660D01*
X172131D01*
X172927Y103990D01*
X173536Y104599D01*
X173865Y105395D01*
Y106256D01*
X173536Y107052D01*
X172927Y107661D01*
X172900Y107672D01*
Y110944D01*
X177586D01*
Y110731D01*
X180153D01*
Y113700D01*
X180653D01*
Y114200D01*
X183720D01*
Y116668D01*
X182066D01*
X181740Y117456D01*
X181869Y117585D01*
X182168Y118308D01*
Y119092D01*
X181869Y119815D01*
X181831Y119853D01*
Y120640D01*
X181853Y120751D01*
Y121439D01*
X182417Y122130D01*
X182954Y122237D01*
X183221Y122415D01*
X183238Y122388D01*
X183764Y122036D01*
X184385Y121913D01*
X184949Y121450D01*
Y116449D01*
X184815Y116315D01*
X184515Y115592D01*
Y114808D01*
X184815Y114085D01*
X185368Y113531D01*
X186092Y113232D01*
X186875D01*
X187599Y113531D01*
X187827Y113760D01*
X188342Y113997D01*
X188856Y113760D01*
X189085Y113531D01*
X189808Y113232D01*
X190592D01*
X191315Y113531D01*
X191869Y114085D01*
X192168Y114808D01*
Y115592D01*
X191869Y116315D01*
X191315Y116869D01*
X190592Y117168D01*
X190218D01*
X189727Y117660D01*
Y121439D01*
X190291Y122130D01*
X190828Y122237D01*
X191275Y122535D01*
X191721Y122237D01*
X192259Y122130D01*
X192823Y121439D01*
Y116492D01*
X192930Y115954D01*
X193231Y115503D01*
Y114808D01*
X193531Y114085D01*
X194085Y113531D01*
X194808Y113232D01*
X195592D01*
X196315Y113531D01*
X196869Y114085D01*
X197169Y114808D01*
Y115144D01*
X197785Y115710D01*
X197896Y115732D01*
X198592D01*
X199315Y116031D01*
X199869Y116585D01*
X200168Y117308D01*
Y118092D01*
X199869Y118815D01*
X199315Y119369D01*
X198592Y119668D01*
X198218D01*
X197601Y120286D01*
Y125700D01*
Y127865D01*
X197494Y128403D01*
X197189Y128859D01*
X196734Y129163D01*
X196196Y129270D01*
X195658Y129163D01*
X195212Y128865D01*
X194765Y129163D01*
X194228Y129270D01*
X193664Y129961D01*
Y130603D01*
X193557Y131140D01*
X193253Y131596D01*
X192259Y132589D01*
Y132963D01*
X191959Y133686D01*
X191406Y134240D01*
X190682Y134539D01*
X189899D01*
X189175Y134240D01*
X188622Y133686D01*
X187726Y133582D01*
X187197Y133801D01*
X186414D01*
X185690Y133502D01*
X185136Y132948D01*
X184837Y132224D01*
Y131441D01*
X185136Y130718D01*
X185583Y130271D01*
X185593Y129707D01*
X185524Y129380D01*
X185201Y129233D01*
X185006Y129364D01*
X184885Y129388D01*
Y125700D01*
X183885D01*
Y129388D01*
X183783Y129367D01*
X183714Y129713D01*
X183410Y130168D01*
X182692Y130887D01*
X182665Y131021D01*
X182601Y131117D01*
X182609Y131137D01*
Y131920D01*
X182310Y132644D01*
X181756Y133198D01*
X181033Y133497D01*
X180249D01*
X179526Y133198D01*
X178972Y132644D01*
X178773Y132639D01*
X178132Y132674D01*
X177626Y133180D01*
X176903Y133479D01*
X176119D01*
X175396Y133180D01*
X174842Y132626D01*
X174766Y132443D01*
X173979Y132600D01*
Y154754D01*
X174369Y155144D01*
X174669Y155868D01*
Y156651D01*
X174369Y157374D01*
X174105Y157638D01*
Y162474D01*
X173998Y163012D01*
X173694Y163468D01*
X169105Y168056D01*
Y171733D01*
X169892Y172168D01*
X170284Y172006D01*
X171068D01*
X171791Y172306D01*
X172182Y172697D01*
X172708Y172172D01*
X173431Y171872D01*
X174214D01*
X174938Y172172D01*
X175492Y172725D01*
X175791Y173449D01*
Y173901D01*
X177505Y175615D01*
X177809Y176070D01*
X177916Y176608D01*
Y176695D01*
X178679Y177232D01*
X179462D01*
X180185Y177531D01*
X180739Y178085D01*
X181039Y178808D01*
Y179592D01*
X180739Y180315D01*
X180185Y180869D01*
X179885Y180993D01*
Y182080D01*
X180448Y182543D01*
X181069Y182666D01*
X181221Y182768D01*
X181812Y182283D01*
X181789Y182082D01*
X181787Y182076D01*
Y181293D01*
X182086Y180569D01*
X182350Y180305D01*
Y176268D01*
X182206Y176124D01*
X181902Y175668D01*
X181795Y175130D01*
Y170579D01*
X181531Y170315D01*
X181231Y169592D01*
Y168808D01*
X181531Y168085D01*
X182085Y167531D01*
X182808Y167232D01*
X183592D01*
X184315Y167531D01*
X184869Y168085D01*
X185169Y168808D01*
Y169007D01*
X185956Y169533D01*
X185962Y169530D01*
X186745D01*
X187469Y169830D01*
X188022Y170384D01*
X188197Y170806D01*
X188981Y171045D01*
X189080Y171036D01*
X189085Y171031D01*
X189808Y170731D01*
X190592D01*
X191315Y171031D01*
X191869Y171585D01*
X192168Y172308D01*
Y173092D01*
X191869Y173815D01*
X191650Y174034D01*
Y180088D01*
X191959Y180397D01*
X192259Y181121D01*
Y181904D01*
X192215Y182009D01*
X192218Y182044D01*
X192651Y182742D01*
X193482Y183006D01*
X193690Y182867D01*
X194228Y182760D01*
X194765Y182867D01*
X195212Y183165D01*
X195658Y182867D01*
X196196Y182760D01*
X196734Y182867D01*
X197189Y183171D01*
X197494Y183627D01*
X197601Y184165D01*
Y188495D01*
Y192114D01*
X202063Y196576D01*
X202625Y196200D01*
X204200D01*
Y197775D01*
X203824Y198337D01*
X206961Y201474D01*
X207688Y201172D01*
D02*
G37*
G36*
X179153Y195231D02*
X181012D01*
Y190579D01*
X180448Y190117D01*
X179827Y189994D01*
X179301Y189642D01*
X179283Y189615D01*
X179017Y189793D01*
X178480Y189900D01*
X177942Y189793D01*
X177495Y189495D01*
X177049Y189793D01*
X176511Y189900D01*
X175973Y189793D01*
X175527Y189495D01*
X175080Y189793D01*
X174542Y189900D01*
X173979Y190591D01*
Y192108D01*
X174045Y192208D01*
X174152Y192745D01*
Y195444D01*
X175586D01*
Y195231D01*
X178153D01*
Y198200D01*
X179153D01*
Y195231D01*
D02*
G37*
G36*
X15700Y171086D02*
X16145Y171145D01*
X16407Y170824D01*
X16549Y170436D01*
X14065Y167951D01*
X13717Y167430D01*
X13594Y166816D01*
X13594Y166816D01*
Y152345D01*
X13215Y152188D01*
X12869Y151923D01*
X12081Y152311D01*
Y171376D01*
X12869Y171764D01*
X13107Y171581D01*
X14117Y171163D01*
X14700Y171086D01*
Y176978D01*
X15700D01*
Y171086D01*
D02*
G37*
G36*
X167216Y147115D02*
Y146805D01*
X167518Y146076D01*
X168076Y145518D01*
X168700Y145259D01*
Y147200D01*
X169700D01*
Y145259D01*
X170324Y145518D01*
X170382Y145575D01*
X171169Y145249D01*
Y129961D01*
X170606Y129270D01*
X170068Y129163D01*
X169621Y128865D01*
X169175Y129163D01*
X168637Y129270D01*
X168099Y129163D01*
X167653Y128865D01*
X167206Y129163D01*
X166668Y129270D01*
X166131Y129163D01*
X165684Y128865D01*
X165238Y129163D01*
X164700Y129270D01*
X164162Y129163D01*
X163716Y128865D01*
X163269Y129163D01*
X162905Y129236D01*
X162673Y129839D01*
X162654Y130027D01*
X163022Y130396D01*
X163322Y131120D01*
Y131903D01*
X163022Y132626D01*
X162469Y133180D01*
X161745Y133479D01*
X161642D01*
X161074Y133861D01*
X156507D01*
X155935Y133507D01*
X155844D01*
X155120Y133207D01*
X155077Y133164D01*
X154562Y132658D01*
X154048Y133164D01*
X154004Y133207D01*
X153512Y133411D01*
X153281Y134066D01*
X153281Y134294D01*
X166428Y147441D01*
X167216Y147115D01*
D02*
G37*
G36*
X159294Y122012D02*
X159415Y122036D01*
X159941Y122388D01*
X159959Y122415D01*
X160225Y122237D01*
X160763Y122130D01*
X161327Y121439D01*
Y115860D01*
X160992Y115722D01*
X160460Y115189D01*
X160344Y115194D01*
X159672Y115376D01*
Y116668D01*
X157481D01*
X157023Y117456D01*
X157168Y117808D01*
Y118592D01*
X156869Y119315D01*
X156605Y119579D01*
Y121948D01*
X156826Y122130D01*
X157364Y122237D01*
X157630Y122415D01*
X157648Y122388D01*
X158174Y122036D01*
X158294Y122012D01*
Y125700D01*
X159294D01*
Y122012D01*
D02*
G37*
G36*
X9263Y82459D02*
Y79921D01*
X9428D01*
Y48200D01*
X9556Y47224D01*
X9933Y46314D01*
X10532Y45533D01*
X15428Y40637D01*
Y33601D01*
X15266Y33477D01*
X14824Y32901D01*
X14741Y32700D01*
X13889D01*
X13761Y33008D01*
X13286Y33628D01*
X12666Y34104D01*
X11943Y34403D01*
X11169Y34505D01*
X9700D01*
Y19700D01*
X9200D01*
Y19200D01*
X4237D01*
Y19003D01*
X1020D01*
Y89589D01*
X1807Y89916D01*
X9263Y82459D01*
D02*
G37*
%LPC*%
G36*
X119746Y325850D02*
X119700D01*
Y322200D01*
X123350D01*
Y322246D01*
X123067Y323302D01*
X122520Y324248D01*
X121748Y325021D01*
X120802Y325567D01*
X119746Y325850D01*
D02*
G37*
G36*
X118700D02*
X118654D01*
X117598Y325567D01*
X116652Y325021D01*
X115879Y324248D01*
X115333Y323302D01*
X115050Y322246D01*
Y322200D01*
X118700D01*
Y325850D01*
D02*
G37*
G36*
X123350Y321200D02*
X119700D01*
Y317550D01*
X119746D01*
X120802Y317833D01*
X121748Y318379D01*
X122520Y319152D01*
X123067Y320098D01*
X123350Y321154D01*
Y321200D01*
D02*
G37*
G36*
X118700D02*
X115050D01*
Y321154D01*
X115333Y320098D01*
X115879Y319152D01*
X116652Y318379D01*
X117598Y317833D01*
X118654Y317550D01*
X118700D01*
Y321200D01*
D02*
G37*
G36*
X159200Y315943D02*
X158172Y315807D01*
X157214Y315411D01*
X156392Y314780D01*
X155761Y313957D01*
X155364Y312999D01*
X155229Y311972D01*
Y308428D01*
X155364Y307401D01*
X155761Y306443D01*
X156392Y305620D01*
X157214Y304989D01*
X158172Y304593D01*
X159200Y304457D01*
X160228Y304593D01*
X161186Y304989D01*
X162008Y305620D01*
X162639Y306443D01*
X163036Y307401D01*
X163171Y308428D01*
Y311972D01*
X163036Y312999D01*
X162639Y313957D01*
X162008Y314780D01*
X161186Y315411D01*
X160228Y315807D01*
X159200Y315943D01*
D02*
G37*
G36*
X149200D02*
X148172Y315807D01*
X147214Y315411D01*
X146392Y314780D01*
X145761Y313957D01*
X145364Y312999D01*
X145229Y311972D01*
Y308428D01*
X145364Y307401D01*
X145761Y306443D01*
X146392Y305620D01*
X147214Y304989D01*
X148172Y304593D01*
X149200Y304457D01*
X150228Y304593D01*
X151186Y304989D01*
X152008Y305620D01*
X152639Y306443D01*
X153036Y307401D01*
X153171Y308428D01*
Y311972D01*
X153036Y312999D01*
X152639Y313957D01*
X152008Y314780D01*
X151186Y315411D01*
X150228Y315807D01*
X149200Y315943D01*
D02*
G37*
G36*
X139200D02*
X138172Y315807D01*
X137215Y315411D01*
X136392Y314780D01*
X135761Y313957D01*
X135364Y312999D01*
X135229Y311972D01*
Y308428D01*
X135364Y307401D01*
X135761Y306443D01*
X136392Y305620D01*
X137215Y304989D01*
X138172Y304593D01*
X139200Y304457D01*
X140228Y304593D01*
X141185Y304989D01*
X142008Y305620D01*
X142639Y306443D01*
X143036Y307401D01*
X143171Y308428D01*
Y311972D01*
X143036Y312999D01*
X142639Y313957D01*
X142008Y314780D01*
X141185Y315411D01*
X140228Y315807D01*
X139200Y315943D01*
D02*
G37*
G36*
X129200D02*
X128172Y315807D01*
X127215Y315411D01*
X126392Y314780D01*
X125761Y313957D01*
X125364Y312999D01*
X125229Y311972D01*
Y308428D01*
X125364Y307401D01*
X125761Y306443D01*
X126392Y305620D01*
X127215Y304989D01*
X128172Y304593D01*
X129200Y304457D01*
X130228Y304593D01*
X131185Y304989D01*
X132008Y305620D01*
X132639Y306443D01*
X133036Y307401D01*
X133171Y308428D01*
Y311972D01*
X133036Y312999D01*
X132639Y313957D01*
X132008Y314780D01*
X131185Y315411D01*
X130228Y315807D01*
X129200Y315943D01*
D02*
G37*
G36*
X119200D02*
X118172Y315807D01*
X117215Y315411D01*
X116392Y314780D01*
X115761Y313957D01*
X115364Y312999D01*
X115229Y311972D01*
Y308428D01*
X115364Y307401D01*
X115761Y306443D01*
X116392Y305620D01*
X117215Y304989D01*
X118172Y304593D01*
X119200Y304457D01*
X120228Y304593D01*
X121186Y304989D01*
X122008Y305620D01*
X122639Y306443D01*
X123036Y307401D01*
X123171Y308428D01*
Y311972D01*
X123036Y312999D01*
X122639Y313957D01*
X122008Y314780D01*
X121186Y315411D01*
X120228Y315807D01*
X119200Y315943D01*
D02*
G37*
G36*
X99200D02*
X98172Y315807D01*
X97215Y315411D01*
X96392Y314780D01*
X95761Y313957D01*
X95364Y312999D01*
X95229Y311972D01*
Y308428D01*
X95364Y307401D01*
X95761Y306443D01*
X96392Y305620D01*
X97215Y304989D01*
X98172Y304593D01*
X99200Y304457D01*
X100228Y304593D01*
X101186Y304989D01*
X102008Y305620D01*
X102639Y306443D01*
X103036Y307401D01*
X103171Y308428D01*
Y311972D01*
X103036Y312999D01*
X102639Y313957D01*
X102008Y314780D01*
X101186Y315411D01*
X100228Y315807D01*
X99200Y315943D01*
D02*
G37*
G36*
X89200D02*
X88172Y315807D01*
X87214Y315411D01*
X86392Y314780D01*
X85761Y313957D01*
X85364Y312999D01*
X85229Y311972D01*
Y308428D01*
X85364Y307401D01*
X85761Y306443D01*
X86392Y305620D01*
X87214Y304989D01*
X88172Y304593D01*
X89200Y304457D01*
X90228Y304593D01*
X91185Y304989D01*
X92008Y305620D01*
X92639Y306443D01*
X93036Y307401D01*
X93171Y308428D01*
Y311972D01*
X93036Y312999D01*
X92639Y313957D01*
X92008Y314780D01*
X91185Y315411D01*
X90228Y315807D01*
X89200Y315943D01*
D02*
G37*
G36*
X59200D02*
X58172Y315807D01*
X57214Y315411D01*
X56392Y314780D01*
X55761Y313957D01*
X55364Y312999D01*
X55229Y311972D01*
Y308428D01*
X55364Y307401D01*
X55761Y306443D01*
X56392Y305620D01*
X57214Y304989D01*
X58172Y304593D01*
X59200Y304457D01*
X60228Y304593D01*
X61185Y304989D01*
X62008Y305620D01*
X62639Y306443D01*
X63036Y307401D01*
X63171Y308428D01*
Y311972D01*
X63036Y312999D01*
X62639Y313957D01*
X62008Y314780D01*
X61185Y315411D01*
X60228Y315807D01*
X59200Y315943D01*
D02*
G37*
G36*
X49200D02*
X48172Y315807D01*
X47214Y315411D01*
X46392Y314780D01*
X45761Y313957D01*
X45364Y312999D01*
X45229Y311972D01*
Y308428D01*
X45364Y307401D01*
X45761Y306443D01*
X46392Y305620D01*
X47214Y304989D01*
X48172Y304593D01*
X49200Y304457D01*
X50228Y304593D01*
X51186Y304989D01*
X52008Y305620D01*
X52639Y306443D01*
X53036Y307401D01*
X53171Y308428D01*
Y311972D01*
X53036Y312999D01*
X52639Y313957D01*
X52008Y314780D01*
X51186Y315411D01*
X50228Y315807D01*
X49200Y315943D01*
D02*
G37*
G36*
X39200D02*
X38172Y315807D01*
X37214Y315411D01*
X36392Y314780D01*
X35761Y313957D01*
X35364Y312999D01*
X35229Y311972D01*
Y308428D01*
X35364Y307401D01*
X35761Y306443D01*
X36392Y305620D01*
X37214Y304989D01*
X38172Y304593D01*
X39200Y304457D01*
X40228Y304593D01*
X41186Y304989D01*
X42008Y305620D01*
X42639Y306443D01*
X43036Y307401D01*
X43171Y308428D01*
Y311972D01*
X43036Y312999D01*
X42639Y313957D01*
X42008Y314780D01*
X41186Y315411D01*
X40228Y315807D01*
X39200Y315943D01*
D02*
G37*
G36*
X29200D02*
X28172Y315807D01*
X27215Y315411D01*
X26392Y314780D01*
X25761Y313957D01*
X25364Y312999D01*
X25229Y311972D01*
Y308428D01*
X25364Y307401D01*
X25761Y306443D01*
X26392Y305620D01*
X27215Y304989D01*
X28172Y304593D01*
X29200Y304457D01*
X30228Y304593D01*
X31185Y304989D01*
X32008Y305620D01*
X32639Y306443D01*
X33036Y307401D01*
X33171Y308428D01*
Y311972D01*
X33036Y312999D01*
X32639Y313957D01*
X32008Y314780D01*
X31185Y315411D01*
X30228Y315807D01*
X29200Y315943D01*
D02*
G37*
G36*
X19200D02*
X18172Y315807D01*
X17214Y315411D01*
X16392Y314780D01*
X15761Y313957D01*
X15364Y312999D01*
X15229Y311972D01*
Y308428D01*
X15364Y307401D01*
X15761Y306443D01*
X16392Y305620D01*
X17214Y304989D01*
X18172Y304593D01*
X19200Y304457D01*
X20228Y304593D01*
X21185Y304989D01*
X22008Y305620D01*
X22639Y306443D01*
X23036Y307401D01*
X23171Y308428D01*
Y311972D01*
X23036Y312999D01*
X22639Y313957D01*
X22008Y314780D01*
X21185Y315411D01*
X20228Y315807D01*
X19200Y315943D01*
D02*
G37*
G36*
X103536Y304141D02*
Y302700D01*
X104976D01*
X104718Y303324D01*
X104160Y303882D01*
X103536Y304141D01*
D02*
G37*
G36*
X102536D02*
X101912Y303882D01*
X101354Y303324D01*
X101095Y302700D01*
X102536D01*
Y304141D01*
D02*
G37*
G36*
X104976Y301700D02*
X103536D01*
Y300259D01*
X104160Y300518D01*
X104718Y301076D01*
X104976Y301700D01*
D02*
G37*
G36*
X102536D02*
X101095D01*
X101354Y301076D01*
X101912Y300518D01*
X102536Y300259D01*
Y301700D01*
D02*
G37*
G36*
X53700Y300641D02*
Y299200D01*
X55141D01*
X54882Y299824D01*
X54324Y300382D01*
X53700Y300641D01*
D02*
G37*
G36*
X52700D02*
X52076Y300382D01*
X51518Y299824D01*
X51259Y299200D01*
X52700D01*
Y300641D01*
D02*
G37*
G36*
X55141Y298200D02*
X53700D01*
Y296759D01*
X54324Y297018D01*
X54882Y297576D01*
X55141Y298200D01*
D02*
G37*
G36*
X52700D02*
X51259D01*
X51518Y297576D01*
X52076Y297018D01*
X52700Y296759D01*
Y298200D01*
D02*
G37*
G36*
X168200Y285641D02*
Y284200D01*
X169641D01*
X169382Y284824D01*
X168824Y285382D01*
X168200Y285641D01*
D02*
G37*
G36*
X167200D02*
X166576Y285382D01*
X166018Y284824D01*
X165759Y284200D01*
X167200D01*
Y285641D01*
D02*
G37*
G36*
X169641Y283200D02*
X168200D01*
Y281759D01*
X168824Y282018D01*
X169382Y282576D01*
X169641Y283200D01*
D02*
G37*
G36*
X167200D02*
X165759D01*
X166018Y282576D01*
X166576Y282018D01*
X167200Y281759D01*
Y283200D01*
D02*
G37*
G36*
X131700Y275141D02*
Y273700D01*
X133141D01*
X132882Y274324D01*
X132324Y274882D01*
X131700Y275141D01*
D02*
G37*
G36*
X130700D02*
X130076Y274882D01*
X129518Y274324D01*
X129259Y273700D01*
X130700D01*
Y275141D01*
D02*
G37*
G36*
X25200D02*
Y273700D01*
X26641D01*
X26382Y274324D01*
X25824Y274882D01*
X25200Y275141D01*
D02*
G37*
G36*
X24200D02*
X23576Y274882D01*
X23018Y274324D01*
X22759Y273700D01*
X24200D01*
Y275141D01*
D02*
G37*
G36*
X133141Y272700D02*
X131700D01*
Y271259D01*
X132324Y271518D01*
X132882Y272076D01*
X133141Y272700D01*
D02*
G37*
G36*
X130700D02*
X129259D01*
X129518Y272076D01*
X130076Y271518D01*
X130700Y271259D01*
Y272700D01*
D02*
G37*
G36*
X26641D02*
X25200D01*
Y271259D01*
X25824Y271518D01*
X26382Y272076D01*
X26641Y272700D01*
D02*
G37*
G36*
X24200D02*
X22759D01*
X23018Y272076D01*
X23576Y271518D01*
X24200Y271259D01*
Y272700D01*
D02*
G37*
G36*
X103885Y269641D02*
Y268200D01*
X105326D01*
X105068Y268824D01*
X104509Y269382D01*
X103885Y269641D01*
D02*
G37*
G36*
X102885D02*
X102261Y269382D01*
X101703Y268824D01*
X101445Y268200D01*
X102885D01*
Y269641D01*
D02*
G37*
G36*
X105326Y267200D02*
X103885D01*
Y265759D01*
X104509Y266018D01*
X105068Y266576D01*
X105326Y267200D01*
D02*
G37*
G36*
X102885D02*
X101445D01*
X101703Y266576D01*
X102261Y266018D01*
X102885Y265759D01*
Y267200D01*
D02*
G37*
G36*
X99700Y256091D02*
Y250700D01*
X103385D01*
Y251972D01*
X103243Y253055D01*
X102825Y254064D01*
X102160Y254931D01*
X101293Y255596D01*
X100283Y256014D01*
X99700Y256091D01*
D02*
G37*
G36*
X103385Y249700D02*
X99700D01*
Y244309D01*
X100283Y244386D01*
X101293Y244804D01*
X102160Y245469D01*
X102825Y246336D01*
X103243Y247345D01*
X103385Y248428D01*
Y249700D01*
D02*
G37*
G36*
X14700Y233091D02*
X14117Y233014D01*
X13107Y232596D01*
X12241Y231931D01*
X11575Y231064D01*
X11157Y230055D01*
X11015Y228972D01*
Y227700D01*
X14700D01*
Y233091D01*
D02*
G37*
G36*
X163200Y227141D02*
X162576Y226882D01*
X162018Y226324D01*
X161716Y225595D01*
Y225294D01*
X160928Y224905D01*
X160594Y225162D01*
X159680Y225540D01*
X159200Y225604D01*
Y221200D01*
X162488D01*
Y221881D01*
X162374Y222749D01*
X162624Y223053D01*
X163015Y223336D01*
X163200Y223259D01*
Y225200D01*
Y227141D01*
D02*
G37*
G36*
X14700Y226700D02*
X11015D01*
Y225428D01*
X11157Y224345D01*
X11575Y223336D01*
X12241Y222469D01*
X13107Y221804D01*
X14117Y221386D01*
X14700Y221309D01*
Y226700D01*
D02*
G37*
G36*
X149200Y225604D02*
Y221200D01*
X152488D01*
Y221881D01*
X152359Y222862D01*
X151981Y223775D01*
X151379Y224560D01*
X150594Y225162D01*
X149680Y225540D01*
X149200Y225604D01*
D02*
G37*
G36*
X139200D02*
Y221200D01*
X142488D01*
Y221881D01*
X142359Y222862D01*
X141981Y223775D01*
X141379Y224560D01*
X140594Y225162D01*
X139681Y225540D01*
X139200Y225604D01*
D02*
G37*
G36*
X164200Y227141D02*
Y225200D01*
Y223259D01*
X164385Y223336D01*
X164776Y223053D01*
X165026Y222749D01*
X164912Y221881D01*
Y221200D01*
X168200D01*
Y225604D01*
X167719Y225540D01*
X166806Y225162D01*
X166472Y224905D01*
X165684Y225294D01*
Y225595D01*
X165382Y226324D01*
X164824Y226882D01*
X164200Y227141D01*
D02*
G37*
G36*
X158200Y225604D02*
X157720Y225540D01*
X156806Y225162D01*
X156021Y224560D01*
X155419Y223775D01*
X155041Y222862D01*
X154912Y221881D01*
Y221200D01*
X158200D01*
Y225604D01*
D02*
G37*
G36*
X148200D02*
X147720Y225540D01*
X146806Y225162D01*
X146021Y224560D01*
X145419Y223775D01*
X145041Y222862D01*
X144912Y221881D01*
Y221200D01*
X148200D01*
Y225604D01*
D02*
G37*
G36*
X138200D02*
X137720Y225540D01*
X136806Y225162D01*
X136021Y224560D01*
X135419Y223775D01*
X135041Y222862D01*
X134912Y221881D01*
Y221200D01*
X138200D01*
Y225604D01*
D02*
G37*
G36*
X162488Y220200D02*
X159200D01*
Y215796D01*
X159680Y215860D01*
X160594Y216238D01*
X161379Y216840D01*
X161981Y217625D01*
X162359Y218538D01*
X162488Y219519D01*
Y220200D01*
D02*
G37*
G36*
X152488D02*
X149200D01*
Y215796D01*
X149680Y215860D01*
X150594Y216238D01*
X151379Y216840D01*
X151981Y217625D01*
X152359Y218538D01*
X152488Y219519D01*
Y220200D01*
D02*
G37*
G36*
X142488D02*
X139200D01*
Y215796D01*
X139681Y215860D01*
X140594Y216238D01*
X141379Y216840D01*
X141981Y217625D01*
X142359Y218538D01*
X142488Y219519D01*
Y220200D01*
D02*
G37*
G36*
X168200D02*
X164912D01*
Y219519D01*
X165041Y218538D01*
X165419Y217625D01*
X166021Y216840D01*
X166806Y216238D01*
X167719Y215860D01*
X168200Y215796D01*
Y220200D01*
D02*
G37*
G36*
X158200D02*
X154912D01*
Y219519D01*
X155041Y218538D01*
X155419Y217625D01*
X156021Y216840D01*
X156806Y216238D01*
X157720Y215860D01*
X158200Y215796D01*
Y220200D01*
D02*
G37*
G36*
X148200D02*
X144912D01*
Y219519D01*
X145041Y218538D01*
X145419Y217625D01*
X146021Y216840D01*
X146806Y216238D01*
X147720Y215860D01*
X148200Y215796D01*
Y220200D01*
D02*
G37*
G36*
X138200D02*
X134912D01*
Y219519D01*
X135041Y218538D01*
X135419Y217625D01*
X136021Y216840D01*
X136806Y216238D01*
X137720Y215860D01*
X138200Y215796D01*
Y220200D01*
D02*
G37*
G36*
X15700Y214141D02*
Y212700D01*
X17141D01*
X16882Y213324D01*
X16324Y213882D01*
X15700Y214141D01*
D02*
G37*
G36*
X14700D02*
X14076Y213882D01*
X13518Y213324D01*
X13259Y212700D01*
X14700D01*
Y214141D01*
D02*
G37*
G36*
X17141Y211700D02*
X15700D01*
Y210259D01*
X16324Y210518D01*
X16882Y211076D01*
X17141Y211700D01*
D02*
G37*
G36*
X14700D02*
X13259D01*
X13518Y211076D01*
X14076Y210518D01*
X14700Y210259D01*
Y211700D01*
D02*
G37*
G36*
X120246Y211850D02*
X120200D01*
Y208200D01*
X123850D01*
Y208246D01*
X123567Y209302D01*
X123021Y210248D01*
X122248Y211020D01*
X121302Y211567D01*
X120246Y211850D01*
D02*
G37*
G36*
X153700Y215455D02*
X152775Y215333D01*
X151913Y214976D01*
X151173Y214408D01*
X150605Y213668D01*
X150248Y212806D01*
X150126Y211881D01*
Y209519D01*
X150248Y208594D01*
X150605Y207732D01*
X151173Y206992D01*
X151913Y206424D01*
X152775Y206067D01*
X153700Y205945D01*
X154625Y206067D01*
X155487Y206424D01*
X156227Y206992D01*
X156795Y207732D01*
X157152Y208594D01*
X157274Y209519D01*
Y211881D01*
X157152Y212806D01*
X156795Y213668D01*
X156227Y214408D01*
X155487Y214976D01*
X154625Y215333D01*
X153700Y215455D01*
D02*
G37*
G36*
X143700D02*
X142775Y215333D01*
X141913Y214976D01*
X141173Y214408D01*
X140605Y213668D01*
X140248Y212806D01*
X140126Y211881D01*
Y209519D01*
X140248Y208594D01*
X140605Y207732D01*
X141173Y206992D01*
X141913Y206424D01*
X142775Y206067D01*
X143700Y205945D01*
X144625Y206067D01*
X145487Y206424D01*
X146227Y206992D01*
X146795Y207732D01*
X147152Y208594D01*
X147274Y209519D01*
Y211881D01*
X147152Y212806D01*
X146795Y213668D01*
X146227Y214408D01*
X145487Y214976D01*
X144625Y215333D01*
X143700Y215455D01*
D02*
G37*
G36*
X133700D02*
X132775Y215333D01*
X131913Y214976D01*
X131173Y214408D01*
X130605Y213668D01*
X130248Y212806D01*
X130126Y211881D01*
Y209519D01*
X130248Y208594D01*
X130605Y207732D01*
X131173Y206992D01*
X131913Y206424D01*
X132775Y206067D01*
X133700Y205945D01*
X134625Y206067D01*
X135487Y206424D01*
X136227Y206992D01*
X136795Y207732D01*
X137152Y208594D01*
X137274Y209519D01*
Y211881D01*
X137152Y212806D01*
X136795Y213668D01*
X136227Y214408D01*
X135487Y214976D01*
X134625Y215333D01*
X133700Y215455D01*
D02*
G37*
G36*
X11200Y189641D02*
Y188200D01*
X12641D01*
X12382Y188824D01*
X11824Y189382D01*
X11200Y189641D01*
D02*
G37*
G36*
X12641Y187200D02*
X11200D01*
Y185759D01*
X11824Y186018D01*
X12382Y186576D01*
X12641Y187200D01*
D02*
G37*
G36*
X17700Y124141D02*
Y122700D01*
X19141D01*
X18882Y123324D01*
X18324Y123882D01*
X17700Y124141D01*
D02*
G37*
G36*
X16700D02*
X16076Y123882D01*
X15518Y123324D01*
X15259Y122700D01*
X16700D01*
Y124141D01*
D02*
G37*
G36*
X19141Y121700D02*
X17700D01*
Y120259D01*
X18324Y120518D01*
X18882Y121076D01*
X19141Y121700D01*
D02*
G37*
G36*
X16700D02*
X15259D01*
X15518Y121076D01*
X16076Y120518D01*
X16700Y120259D01*
Y121700D01*
D02*
G37*
G36*
X13746Y97850D02*
X13700D01*
Y94200D01*
X17350D01*
Y94246D01*
X17067Y95302D01*
X16521Y96248D01*
X15748Y97021D01*
X14802Y97567D01*
X13746Y97850D01*
D02*
G37*
G36*
X103246Y95850D02*
X103200D01*
Y92200D01*
X106850D01*
Y92246D01*
X106567Y93302D01*
X106020Y94248D01*
X105248Y95021D01*
X104302Y95567D01*
X103246Y95850D01*
D02*
G37*
G36*
X102200D02*
X102154D01*
X101098Y95567D01*
X100152Y95021D01*
X99379Y94248D01*
X98833Y93302D01*
X98550Y92246D01*
Y92200D01*
X102200D01*
Y95850D01*
D02*
G37*
G36*
X85746D02*
X85700D01*
Y92200D01*
X89350D01*
Y92246D01*
X89067Y93302D01*
X88520Y94248D01*
X87748Y95021D01*
X86802Y95567D01*
X85746Y95850D01*
D02*
G37*
G36*
X84700D02*
X84654D01*
X83598Y95567D01*
X82652Y95021D01*
X81880Y94248D01*
X81333Y93302D01*
X81050Y92246D01*
Y92200D01*
X84700D01*
Y95850D01*
D02*
G37*
G36*
X68246D02*
X68200D01*
Y92200D01*
X71850D01*
Y92246D01*
X71567Y93302D01*
X71021Y94248D01*
X70248Y95021D01*
X69302Y95567D01*
X68246Y95850D01*
D02*
G37*
G36*
X67200D02*
X67154D01*
X66098Y95567D01*
X65152Y95021D01*
X64380Y94248D01*
X63833Y93302D01*
X63550Y92246D01*
Y92200D01*
X67200D01*
Y95850D01*
D02*
G37*
G36*
X50746D02*
X50700D01*
Y92200D01*
X54350D01*
Y92246D01*
X54067Y93302D01*
X53521Y94248D01*
X52748Y95021D01*
X51802Y95567D01*
X50746Y95850D01*
D02*
G37*
G36*
X49700D02*
X49654D01*
X48598Y95567D01*
X47652Y95021D01*
X46880Y94248D01*
X46333Y93302D01*
X46050Y92246D01*
Y92200D01*
X49700D01*
Y95850D01*
D02*
G37*
G36*
X119700Y91200D02*
X116050D01*
Y91154D01*
X116333Y90098D01*
X116879Y89152D01*
X117652Y88380D01*
X118598Y87833D01*
X119654Y87550D01*
X119700D01*
Y91200D01*
D02*
G37*
G36*
X106850D02*
X103200D01*
Y87550D01*
X103246D01*
X104302Y87833D01*
X105248Y88380D01*
X106020Y89152D01*
X106567Y90098D01*
X106850Y91154D01*
Y91200D01*
D02*
G37*
G36*
X102200D02*
X98550D01*
Y91154D01*
X98833Y90098D01*
X99379Y89152D01*
X100152Y88380D01*
X101098Y87833D01*
X102154Y87550D01*
X102200D01*
Y91200D01*
D02*
G37*
G36*
X89350D02*
X85700D01*
Y87550D01*
X85746D01*
X86802Y87833D01*
X87748Y88380D01*
X88520Y89152D01*
X89067Y90098D01*
X89350Y91154D01*
Y91200D01*
D02*
G37*
G36*
X84700D02*
X81050D01*
Y91154D01*
X81333Y90098D01*
X81880Y89152D01*
X82652Y88380D01*
X83598Y87833D01*
X84654Y87550D01*
X84700D01*
Y91200D01*
D02*
G37*
G36*
X71850D02*
X68200D01*
Y87550D01*
X68246D01*
X69302Y87833D01*
X70248Y88380D01*
X71021Y89152D01*
X71567Y90098D01*
X71850Y91154D01*
Y91200D01*
D02*
G37*
G36*
X67200D02*
X63550D01*
Y91154D01*
X63833Y90098D01*
X64380Y89152D01*
X65152Y88380D01*
X66098Y87833D01*
X67154Y87550D01*
X67200D01*
Y91200D01*
D02*
G37*
G36*
X54350D02*
X50700D01*
Y87550D01*
X50746D01*
X51802Y87833D01*
X52748Y88380D01*
X53521Y89152D01*
X54067Y90098D01*
X54350Y91154D01*
Y91200D01*
D02*
G37*
G36*
X49700D02*
X46050D01*
Y91154D01*
X46333Y90098D01*
X46880Y89152D01*
X47652Y88380D01*
X48598Y87833D01*
X49654Y87550D01*
X49700D01*
Y91200D01*
D02*
G37*
G36*
X32200D02*
X28550D01*
Y91154D01*
X28833Y90098D01*
X29379Y89152D01*
X30152Y88380D01*
X31098Y87833D01*
X32154Y87550D01*
X32200D01*
Y91200D01*
D02*
G37*
G36*
X21700Y78641D02*
Y77200D01*
X23141D01*
X22882Y77824D01*
X22324Y78382D01*
X21700Y78641D01*
D02*
G37*
G36*
X20700D02*
X20076Y78382D01*
X19518Y77824D01*
X19259Y77200D01*
X20700D01*
Y78641D01*
D02*
G37*
G36*
X23141Y76200D02*
X21700D01*
Y74759D01*
X22324Y75018D01*
X22882Y75576D01*
X23141Y76200D01*
D02*
G37*
G36*
X20700D02*
X19259D01*
X19518Y75576D01*
X20076Y75018D01*
X20700Y74759D01*
Y76200D01*
D02*
G37*
G36*
X103218Y85637D02*
X102182D01*
X101180Y85369D01*
X100283Y84850D01*
X99550Y84117D01*
X99031Y83220D01*
X98763Y82218D01*
Y81182D01*
X99031Y80180D01*
X99550Y79283D01*
X100283Y78550D01*
X100693Y78313D01*
Y75087D01*
X100283Y74850D01*
X99550Y74117D01*
X99031Y73220D01*
X98763Y72218D01*
Y71182D01*
X99031Y70180D01*
X99550Y69283D01*
X100283Y68550D01*
X101180Y68031D01*
X102182Y67763D01*
X103218D01*
X104220Y68031D01*
X105117Y68550D01*
X105850Y69283D01*
X106369Y70180D01*
X106637Y71182D01*
Y72218D01*
X106369Y73220D01*
X105850Y74117D01*
X105117Y74850D01*
X104707Y75087D01*
Y78313D01*
X105117Y78550D01*
X105850Y79283D01*
X106369Y80180D01*
X106637Y81182D01*
Y82218D01*
X106369Y83220D01*
X105850Y84117D01*
X105117Y84850D01*
X104220Y85369D01*
X103218Y85637D01*
D02*
G37*
G36*
X85718D02*
X84682D01*
X83680Y85369D01*
X82783Y84850D01*
X82050Y84117D01*
X81531Y83220D01*
X81263Y82218D01*
Y81182D01*
X81531Y80180D01*
X82050Y79283D01*
X82783Y78550D01*
X83193Y78313D01*
Y75087D01*
X82783Y74850D01*
X82050Y74117D01*
X81531Y73220D01*
X81263Y72218D01*
Y71182D01*
X81531Y70180D01*
X82050Y69283D01*
X82783Y68550D01*
X83680Y68031D01*
X84682Y67763D01*
X85718D01*
X86720Y68031D01*
X87617Y68550D01*
X88350Y69283D01*
X88869Y70180D01*
X89137Y71182D01*
Y72218D01*
X88869Y73220D01*
X88350Y74117D01*
X87617Y74850D01*
X87207Y75087D01*
Y78313D01*
X87617Y78550D01*
X88350Y79283D01*
X88869Y80180D01*
X89137Y81182D01*
Y82218D01*
X88869Y83220D01*
X88350Y84117D01*
X87617Y84850D01*
X86720Y85369D01*
X85718Y85637D01*
D02*
G37*
G36*
X68218D02*
X67182D01*
X66180Y85369D01*
X65283Y84850D01*
X64550Y84117D01*
X64031Y83220D01*
X63763Y82218D01*
Y81182D01*
X64031Y80180D01*
X64550Y79283D01*
X65283Y78550D01*
X65693Y78313D01*
Y75087D01*
X65283Y74850D01*
X64550Y74117D01*
X64031Y73220D01*
X63763Y72218D01*
Y71182D01*
X64031Y70180D01*
X64550Y69283D01*
X65283Y68550D01*
X66180Y68031D01*
X67182Y67763D01*
X68218D01*
X69220Y68031D01*
X70117Y68550D01*
X70850Y69283D01*
X71369Y70180D01*
X71637Y71182D01*
Y72218D01*
X71369Y73220D01*
X70850Y74117D01*
X70117Y74850D01*
X69707Y75087D01*
Y78313D01*
X70117Y78550D01*
X70850Y79283D01*
X71369Y80180D01*
X71637Y81182D01*
Y82218D01*
X71369Y83220D01*
X70850Y84117D01*
X70117Y84850D01*
X69220Y85369D01*
X68218Y85637D01*
D02*
G37*
G36*
X33218D02*
X32182D01*
X31180Y85369D01*
X30283Y84850D01*
X29550Y84117D01*
X29031Y83220D01*
X28763Y82218D01*
Y81182D01*
X29031Y80180D01*
X29550Y79283D01*
X30283Y78550D01*
X30693Y78313D01*
Y75087D01*
X30283Y74850D01*
X29550Y74117D01*
X29031Y73220D01*
X28763Y72218D01*
Y71182D01*
X29031Y70180D01*
X29550Y69283D01*
X30283Y68550D01*
X31180Y68031D01*
X32182Y67763D01*
X33218D01*
X34220Y68031D01*
X35117Y68550D01*
X35850Y69283D01*
X36369Y70180D01*
X36637Y71182D01*
Y72218D01*
X36369Y73220D01*
X35850Y74117D01*
X35117Y74850D01*
X34707Y75087D01*
Y78313D01*
X35117Y78550D01*
X35850Y79283D01*
X36369Y80180D01*
X36637Y81182D01*
Y82218D01*
X36369Y83220D01*
X35850Y84117D01*
X35117Y84850D01*
X34220Y85369D01*
X33218Y85637D01*
D02*
G37*
G36*
X50718Y65637D02*
X49682D01*
X48680Y65369D01*
X47783Y64850D01*
X47050Y64117D01*
X46531Y63220D01*
X46263Y62218D01*
Y61182D01*
X46531Y60180D01*
X47050Y59283D01*
X47783Y58550D01*
X48680Y58031D01*
X49682Y57763D01*
X50718D01*
X51720Y58031D01*
X52617Y58550D01*
X53350Y59283D01*
X53869Y60180D01*
X54137Y61182D01*
Y62218D01*
X53869Y63220D01*
X53350Y64117D01*
X52617Y64850D01*
X51720Y65369D01*
X50718Y65637D01*
D02*
G37*
G36*
X33218D02*
X32182D01*
X31180Y65369D01*
X30283Y64850D01*
X29550Y64117D01*
X29031Y63220D01*
X28763Y62218D01*
Y61182D01*
X29031Y60180D01*
X29550Y59283D01*
X30283Y58550D01*
X31180Y58031D01*
X32182Y57763D01*
X33218D01*
X34220Y58031D01*
X35117Y58550D01*
X35850Y59283D01*
X36369Y60180D01*
X36637Y61182D01*
Y62218D01*
X36369Y63220D01*
X35850Y64117D01*
X35117Y64850D01*
X34220Y65369D01*
X33218Y65637D01*
D02*
G37*
G36*
X77700Y262641D02*
Y261200D01*
X79141D01*
X78882Y261824D01*
X78324Y262382D01*
X77700Y262641D01*
D02*
G37*
G36*
X79141Y260200D02*
X77700D01*
Y258759D01*
X78324Y259018D01*
X78882Y259576D01*
X79141Y260200D01*
D02*
G37*
G36*
X89700Y285456D02*
Y284015D01*
X91141D01*
X90882Y284639D01*
X90324Y285197D01*
X89700Y285456D01*
D02*
G37*
G36*
X88700D02*
X88076Y285197D01*
X87518Y284639D01*
X87259Y284015D01*
X88700D01*
Y285456D01*
D02*
G37*
G36*
X91141Y283015D02*
X89700D01*
Y281574D01*
X90324Y281833D01*
X90882Y282391D01*
X91141Y283015D01*
D02*
G37*
G36*
X88700D02*
X87259D01*
X87518Y282391D01*
X88076Y281833D01*
X88700Y281574D01*
Y283015D01*
D02*
G37*
G36*
X43200Y268641D02*
Y267200D01*
X44641D01*
X44382Y267824D01*
X43824Y268382D01*
X43200Y268641D01*
D02*
G37*
G36*
X42200D02*
X41576Y268382D01*
X41018Y267824D01*
X40759Y267200D01*
X42200D01*
Y268641D01*
D02*
G37*
G36*
X44641Y266200D02*
X43200D01*
Y264759D01*
X43824Y265018D01*
X44382Y265576D01*
X44641Y266200D01*
D02*
G37*
G36*
X42200D02*
X40759D01*
X41018Y265576D01*
X41576Y265018D01*
X42200Y264759D01*
Y266200D01*
D02*
G37*
G36*
X205200Y197641D02*
Y196200D01*
X206641D01*
X206382Y196824D01*
X205824Y197382D01*
X205200Y197641D01*
D02*
G37*
G36*
X206641Y195200D02*
X205200D01*
Y193759D01*
X205824Y194018D01*
X206382Y194576D01*
X206641Y195200D01*
D02*
G37*
G36*
X204200D02*
X202759D01*
X203018Y194576D01*
X203576Y194018D01*
X204200Y193759D01*
Y195200D01*
D02*
G37*
G36*
X148452Y185830D02*
X147330D01*
Y184165D01*
X147454Y183544D01*
X147805Y183018D01*
X148331Y182666D01*
X148452Y182642D01*
Y185830D01*
D02*
G37*
G36*
X202389Y181259D02*
X200724D01*
X200103Y181135D01*
X199577Y180784D01*
X199225Y180258D01*
X199201Y180137D01*
X202389D01*
Y181259D01*
D02*
G37*
G36*
X129700Y180720D02*
X127232D01*
Y178153D01*
X129700D01*
Y180720D01*
D02*
G37*
G36*
X195700Y174595D02*
Y173155D01*
X197141D01*
X196882Y173779D01*
X196324Y174337D01*
X195700Y174595D01*
D02*
G37*
G36*
X194700D02*
X194076Y174337D01*
X193518Y173779D01*
X193259Y173155D01*
X194700D01*
Y174595D01*
D02*
G37*
G36*
X197141Y172155D02*
X195700D01*
Y170714D01*
X196324Y170973D01*
X196882Y171531D01*
X197141Y172155D01*
D02*
G37*
G36*
X194700D02*
X193259D01*
X193518Y171531D01*
X194076Y170973D01*
X194700Y170714D01*
Y172155D01*
D02*
G37*
G36*
X120246Y161350D02*
X120200D01*
Y157700D01*
X123850D01*
Y157746D01*
X123567Y158802D01*
X123021Y159748D01*
X122248Y160521D01*
X121302Y161067D01*
X120246Y161350D01*
D02*
G37*
G36*
X119200D02*
X119154D01*
X118098Y161067D01*
X117152Y160521D01*
X116379Y159748D01*
X115833Y158802D01*
X115550Y157746D01*
Y157700D01*
X119200D01*
Y161350D01*
D02*
G37*
G36*
X180200Y157728D02*
Y156074D01*
X181854D01*
X181549Y156809D01*
X180936Y157423D01*
X180200Y157728D01*
D02*
G37*
G36*
X179200D02*
X178464Y157423D01*
X177851Y156809D01*
X177546Y156074D01*
X179200D01*
Y157728D01*
D02*
G37*
G36*
X181854Y155074D02*
X180200D01*
Y153420D01*
X180936Y153725D01*
X181549Y154339D01*
X181854Y155074D01*
D02*
G37*
G36*
X179200D02*
X177546D01*
X177851Y154339D01*
X178464Y153725D01*
X179200Y153420D01*
Y155074D01*
D02*
G37*
G36*
X123850Y156700D02*
X120200D01*
Y153050D01*
X120246D01*
X121302Y153333D01*
X122248Y153879D01*
X123021Y154652D01*
X123567Y155598D01*
X123850Y156654D01*
Y156700D01*
D02*
G37*
G36*
X119200D02*
X115550D01*
Y156654D01*
X115833Y155598D01*
X116379Y154652D01*
X117152Y153879D01*
X118098Y153333D01*
X119154Y153050D01*
X119200D01*
Y156700D01*
D02*
G37*
G36*
X153389Y144389D02*
Y142735D01*
X155043D01*
X154738Y143471D01*
X154124Y144085D01*
X153389Y144389D01*
D02*
G37*
G36*
X152389D02*
X151654Y144085D01*
X151040Y143471D01*
X150735Y142735D01*
X152389D01*
Y144389D01*
D02*
G37*
G36*
X155043Y141735D02*
X153389D01*
Y140082D01*
X154124Y140386D01*
X154738Y141000D01*
X155043Y141735D01*
D02*
G37*
G36*
X152389D02*
X150735D01*
X151040Y141000D01*
X151654Y140386D01*
X152389Y140082D01*
Y141735D01*
D02*
G37*
G36*
X205037Y125905D02*
Y124465D01*
X206477D01*
X206219Y125089D01*
X205661Y125647D01*
X205037Y125905D01*
D02*
G37*
G36*
X204037D02*
X203413Y125647D01*
X202855Y125089D01*
X202596Y124465D01*
X204037D01*
Y125905D01*
D02*
G37*
G36*
X217669Y125794D02*
X215200D01*
Y123228D01*
X217669D01*
Y125794D01*
D02*
G37*
G36*
X214200D02*
X211732D01*
Y123228D01*
X214200D01*
Y125794D01*
D02*
G37*
G36*
X206477Y123465D02*
X205037D01*
Y122024D01*
X205661Y122283D01*
X206219Y122841D01*
X206477Y123465D01*
D02*
G37*
G36*
X204037D02*
X202596D01*
X202855Y122841D01*
X203413Y122283D01*
X204037Y122024D01*
Y123465D01*
D02*
G37*
G36*
X183720Y113200D02*
X181153D01*
Y110731D01*
X183720D01*
Y113200D01*
D02*
G37*
G36*
X203700Y86537D02*
Y85096D01*
X205141D01*
X204882Y85720D01*
X204324Y86278D01*
X203700Y86537D01*
D02*
G37*
G36*
X202700D02*
X202076Y86278D01*
X201518Y85720D01*
X201259Y85096D01*
X202700D01*
Y86537D01*
D02*
G37*
G36*
X213922Y82592D02*
X212700D01*
Y79787D01*
X216096D01*
Y80418D01*
X215931Y81250D01*
X215459Y81955D01*
X214754Y82427D01*
X213922Y82592D01*
D02*
G37*
G36*
X211700D02*
X210478D01*
X209646Y82427D01*
X208941Y81955D01*
X208469Y81250D01*
X208304Y80418D01*
Y79787D01*
X211700D01*
Y82592D01*
D02*
G37*
G36*
X205141Y84096D02*
X201259D01*
X201518Y83472D01*
X202076Y82914D01*
X202352Y82800D01*
X202372Y82778D01*
X202616Y81885D01*
X202552Y81789D01*
X202445Y81251D01*
Y78495D01*
X202552Y77958D01*
X202856Y77502D01*
X203312Y77197D01*
X203850Y77090D01*
X205031D01*
X205568Y77197D01*
X206024Y77502D01*
X206329Y77958D01*
X206436Y78495D01*
Y81251D01*
X206329Y81789D01*
X206024Y82245D01*
X205568Y82549D01*
X205155Y82631D01*
X204958Y82979D01*
X204853Y83443D01*
X204882Y83472D01*
X205141Y84096D01*
D02*
G37*
G36*
X216096Y78787D02*
X212200D01*
X208304D01*
Y78155D01*
X208469Y77323D01*
X208941Y76618D01*
X209646Y76147D01*
X210200Y76036D01*
Y75234D01*
X209729Y75140D01*
X209094Y74716D01*
X208670Y74081D01*
X208588Y73670D01*
X206177D01*
X206024Y73898D01*
X205568Y74203D01*
X205031Y74310D01*
X203850D01*
X203312Y74203D01*
X202856Y73898D01*
X202143Y74248D01*
X201911Y74403D01*
X201291Y74526D01*
X201200D01*
Y71527D01*
X200200D01*
Y74526D01*
X200109D01*
X199489Y74403D01*
X199257Y74248D01*
X198544Y73898D01*
X198088Y74203D01*
X197550Y74310D01*
X196369D01*
X195832Y74203D01*
X195376Y73898D01*
X195071Y73442D01*
X194964Y72905D01*
Y70149D01*
X195071Y69611D01*
X195376Y69155D01*
X195832Y68851D01*
X196012Y68815D01*
X196078Y68479D01*
X196470Y67893D01*
X197854Y66509D01*
X198440Y66118D01*
X199131Y65980D01*
X202269D01*
X202960Y66118D01*
X203546Y66509D01*
X204930Y67893D01*
X205322Y68479D01*
X205388Y68815D01*
X205568Y68851D01*
X206024Y69155D01*
X206329Y69611D01*
X206417Y70057D01*
X208845D01*
X209094Y69684D01*
X209729Y69260D01*
X210478Y69111D01*
X213922D01*
X214671Y69260D01*
X215306Y69684D01*
X215730Y70319D01*
X215879Y71068D01*
Y73332D01*
X215730Y74081D01*
X215306Y74716D01*
X214671Y75140D01*
X214200Y75234D01*
Y76036D01*
X214754Y76147D01*
X215459Y76618D01*
X215931Y77323D01*
X216096Y78155D01*
Y78787D01*
D02*
G37*
G36*
X193096Y71657D02*
X189700D01*
Y68851D01*
X190922D01*
X191754Y69017D01*
X192459Y69488D01*
X192931Y70193D01*
X193096Y71025D01*
Y71657D01*
D02*
G37*
G36*
X188700D02*
X185304D01*
Y71025D01*
X185469Y70193D01*
X185626Y69959D01*
X185196Y69184D01*
X184805D01*
X184076Y68882D01*
X183518Y68324D01*
X183259Y67700D01*
X187141D01*
X186953Y68153D01*
X187240Y68660D01*
X187449Y68857D01*
X187478Y68851D01*
X188700D01*
Y71657D01*
D02*
G37*
G36*
X192700Y68163D02*
Y66722D01*
X194141D01*
X193882Y67346D01*
X193324Y67905D01*
X192700Y68163D01*
D02*
G37*
G36*
X191700D02*
X191076Y67905D01*
X190518Y67346D01*
X190259Y66722D01*
X191700D01*
Y68163D01*
D02*
G37*
G36*
X187141Y66700D02*
X185700D01*
Y65259D01*
X186324Y65518D01*
X186882Y66076D01*
X187141Y66700D01*
D02*
G37*
G36*
X184700D02*
X183259D01*
X183518Y66076D01*
X184076Y65518D01*
X184700Y65259D01*
Y66700D01*
D02*
G37*
G36*
X194141Y65722D02*
X192700D01*
Y64282D01*
X193324Y64540D01*
X193882Y65098D01*
X194141Y65722D01*
D02*
G37*
G36*
X191700D02*
X190259D01*
X190518Y65098D01*
X191076Y64540D01*
X191700Y64282D01*
Y65722D01*
D02*
G37*
G36*
X204200Y47641D02*
Y46200D01*
X205641D01*
X205382Y46824D01*
X204824Y47382D01*
X204200Y47641D01*
D02*
G37*
G36*
X203200D02*
X202576Y47382D01*
X202018Y46824D01*
X201759Y46200D01*
X203200D01*
Y47641D01*
D02*
G37*
G36*
X219720Y44153D02*
X219700D01*
Y40700D01*
X223153D01*
Y40720D01*
X222883Y41726D01*
X222363Y42627D01*
X221627Y43363D01*
X220726Y43883D01*
X219720Y44153D01*
D02*
G37*
G36*
X218700D02*
X218680D01*
X217674Y43883D01*
X216773Y43363D01*
X216037Y42627D01*
X215517Y41726D01*
X215247Y40720D01*
Y40700D01*
X218700D01*
Y44153D01*
D02*
G37*
G36*
X223153Y39700D02*
X219700D01*
Y36247D01*
X219720D01*
X220726Y36517D01*
X221627Y37037D01*
X222363Y37773D01*
X222883Y38674D01*
X223153Y39680D01*
Y39700D01*
D02*
G37*
G36*
X218700D02*
X215247D01*
Y39680D01*
X215517Y38674D01*
X216037Y37773D01*
X216773Y37037D01*
X217674Y36517D01*
X218680Y36247D01*
X218700D01*
Y39700D01*
D02*
G37*
G36*
X221168Y34505D02*
X219700D01*
Y20200D01*
X224163D01*
Y31511D01*
X224061Y32286D01*
X223762Y33008D01*
X223286Y33628D01*
X222666Y34104D01*
X221943Y34403D01*
X221168Y34505D01*
D02*
G37*
G36*
X159294Y136515D02*
Y134861D01*
X160948D01*
X160643Y135597D01*
X160030Y136211D01*
X159294Y136515D01*
D02*
G37*
G36*
X158294D02*
X157559Y136211D01*
X156945Y135597D01*
X156641Y134861D01*
X158294D01*
Y136515D01*
D02*
G37*
G36*
X5700Y79641D02*
Y78200D01*
X7141D01*
X6882Y78824D01*
X6324Y79382D01*
X5700Y79641D01*
D02*
G37*
G36*
X4700D02*
X4076Y79382D01*
X3518Y78824D01*
X3259Y78200D01*
X4700D01*
Y79641D01*
D02*
G37*
G36*
X7141Y77200D02*
X5700D01*
Y75759D01*
X6324Y76018D01*
X6882Y76576D01*
X7141Y77200D01*
D02*
G37*
G36*
X4700D02*
X3259D01*
X3518Y76576D01*
X4076Y76018D01*
X4700Y75759D01*
Y77200D01*
D02*
G37*
G36*
X9720Y43653D02*
X9700D01*
Y40200D01*
X13153D01*
Y40220D01*
X12883Y41226D01*
X12363Y42127D01*
X11627Y42863D01*
X10726Y43383D01*
X9720Y43653D01*
D02*
G37*
G36*
X8700D02*
X8680D01*
X7674Y43383D01*
X6773Y42863D01*
X6037Y42127D01*
X5517Y41226D01*
X5247Y40220D01*
Y40200D01*
X8700D01*
Y43653D01*
D02*
G37*
G36*
X13153Y39200D02*
X9700D01*
Y35747D01*
X9720D01*
X10726Y36017D01*
X11627Y36537D01*
X12363Y37273D01*
X12883Y38174D01*
X13153Y39180D01*
Y39200D01*
D02*
G37*
G36*
X8700D02*
X5247D01*
Y39180D01*
X5517Y38174D01*
X6037Y37273D01*
X6773Y36537D01*
X7674Y36017D01*
X8680Y35747D01*
X8700D01*
Y39200D01*
D02*
G37*
G36*
Y34505D02*
X7231D01*
X6457Y34403D01*
X5734Y34104D01*
X5114Y33628D01*
X4639Y33008D01*
X4339Y32286D01*
X4237Y31511D01*
Y20200D01*
X8700D01*
Y34505D01*
D02*
G37*
%LPD*%
D13*
X224700Y142763D02*
Y153520D01*
Y128200D02*
Y142763D01*
X214700Y146602D02*
X214861Y146763D01*
X220700D01*
X224700Y142763D01*
X214700Y132200D02*
X220700D01*
X224700Y128200D01*
X190873Y80917D02*
X224700Y114743D01*
Y128200D01*
X189200Y79243D02*
X189791D01*
X190873Y80326D01*
Y80917D01*
X126452Y89200D02*
Y92686D01*
Y74509D02*
Y89200D01*
X139050D02*
Y97904D01*
Y79728D02*
Y89200D01*
X142200D02*
Y99209D01*
Y81032D02*
Y89200D01*
X145535D02*
Y100328D01*
Y82560D02*
Y89200D01*
X148700D02*
Y101618D01*
Y83849D02*
Y89200D01*
X145535Y82560D02*
X189901Y38194D01*
X129318Y120999D02*
X148700Y101618D01*
X128014Y117850D02*
X145535Y100328D01*
X148700Y83849D02*
X190849Y41700D01*
X129602Y89200D02*
Y93991D01*
Y75814D02*
Y89200D01*
X132751D02*
Y95295D01*
Y77118D02*
Y89200D01*
X135901Y78423D02*
Y96600D01*
X132751Y77118D02*
X159200Y50670D01*
X122795Y105251D02*
X132751Y95295D01*
X120186Y98952D02*
X126452Y92686D01*
X129602Y75814D02*
X149200Y56215D01*
X135901Y78423D02*
X169200Y45124D01*
X126452Y74509D02*
X139200Y61761D01*
X121491Y102102D02*
X129602Y93991D01*
X139050Y79728D02*
X179200Y39578D01*
X197816Y38194D02*
X199200Y36810D01*
Y19700D02*
Y36810D01*
X189901Y38194D02*
X197816D01*
X190849Y41700D02*
X204200D01*
X209200Y36700D01*
Y19700D02*
Y36700D01*
X142200Y81032D02*
X187941Y35291D01*
Y20959D02*
Y35291D01*
X139200Y19700D02*
Y61761D01*
X149200Y19700D02*
Y56215D01*
X159200Y19700D02*
Y50670D01*
X179200Y19700D02*
Y39578D01*
X187941Y20959D02*
X189200Y19700D01*
X169200D02*
Y45124D01*
X15200Y131700D02*
X16399Y130501D01*
X15200Y131700D02*
Y131700D01*
X124100Y108401D02*
X135901Y96600D01*
X54798Y102102D02*
X121491D01*
X125405Y111550D02*
X139050Y97904D01*
X47948Y98952D02*
X120186D01*
X126709Y114700D02*
X142200Y99209D01*
X15200Y131700D02*
Y146790D01*
X15106Y146884D02*
X15200Y146790D01*
X16399Y130501D02*
X16399D01*
X47948Y98952D01*
X95901Y120999D02*
X129318D01*
X85200Y131700D02*
X95901Y120999D01*
X89050Y117850D02*
X128014D01*
X75200Y131700D02*
X89050Y117850D01*
X65200Y131700D02*
X82200Y114700D01*
X126709D01*
X75350Y111550D02*
X125405D01*
X55200Y131700D02*
X75350Y111550D01*
X45200Y131700D02*
X68499Y108401D01*
X35200Y131700D02*
X61649Y105251D01*
X25200Y131700D02*
X54798Y102102D01*
X25106Y131794D02*
X25200Y131700D01*
X25106Y131794D02*
Y146884D01*
X68499Y108401D02*
X124100D01*
X61649Y105251D02*
X122795D01*
X85106Y131794D02*
X85200Y131700D01*
X85106Y131794D02*
Y146884D01*
X75106Y131794D02*
Y146884D01*
Y131794D02*
X75200Y131700D01*
X65106Y131794D02*
X65200Y131700D01*
X65106Y131794D02*
Y146884D01*
X55106Y131794D02*
Y146884D01*
Y131794D02*
X55200Y131700D01*
X45106Y131794D02*
X45200Y131700D01*
X45106Y131794D02*
Y146884D01*
X35106Y131794D02*
X35200Y131700D01*
X35106Y131794D02*
Y146884D01*
X69200Y19700D02*
Y36200D01*
X77200Y44200D02*
X95200D01*
X69200Y36200D02*
X77200Y44200D01*
X59200Y35700D02*
X85200Y61700D01*
X59200Y19700D02*
Y35700D01*
X95200Y44200D02*
X102700Y51700D01*
Y61700D01*
X119200Y19700D02*
X119700Y20200D01*
Y61200D01*
X120200Y61700D01*
X49200Y43200D02*
X67700Y61700D01*
X49200Y19700D02*
Y43200D01*
X32700Y71700D02*
Y81700D01*
X67700Y71700D02*
Y81700D01*
X120200Y71700D02*
Y81700D01*
X102700Y71700D02*
Y81700D01*
X85200Y71700D02*
Y81700D01*
X50200Y71700D02*
Y81700D01*
D17*
X196960Y71527D02*
D03*
X200700D02*
D03*
X204440D02*
D03*
X196960Y79873D02*
D03*
X204440D02*
D03*
D18*
X189200Y79243D02*
D03*
Y72157D02*
D03*
X212200Y72200D02*
D03*
Y79287D02*
D03*
D19*
X142259Y179637D02*
D03*
Y177668D02*
D03*
Y175700D02*
D03*
Y173732D02*
D03*
Y171763D02*
D03*
Y169794D02*
D03*
Y167826D02*
D03*
Y165858D02*
D03*
Y163889D02*
D03*
Y161920D02*
D03*
Y159952D02*
D03*
Y157984D02*
D03*
Y156015D02*
D03*
Y154046D02*
D03*
Y152078D02*
D03*
Y150109D02*
D03*
Y148141D02*
D03*
Y146172D02*
D03*
Y144204D02*
D03*
Y142235D02*
D03*
Y140267D02*
D03*
Y138298D02*
D03*
Y136330D02*
D03*
Y134361D02*
D03*
Y132393D02*
D03*
X202889D02*
D03*
Y134361D02*
D03*
Y136330D02*
D03*
Y138298D02*
D03*
Y140267D02*
D03*
Y142235D02*
D03*
Y144204D02*
D03*
Y146172D02*
D03*
Y148141D02*
D03*
Y150109D02*
D03*
Y152078D02*
D03*
Y154046D02*
D03*
Y156015D02*
D03*
Y157984D02*
D03*
Y159952D02*
D03*
Y161920D02*
D03*
Y163889D02*
D03*
Y165858D02*
D03*
Y167826D02*
D03*
Y169794D02*
D03*
Y171763D02*
D03*
Y173732D02*
D03*
Y175700D02*
D03*
Y177668D02*
D03*
Y179637D02*
D03*
D20*
X148952Y125700D02*
D03*
X150920D02*
D03*
X152889D02*
D03*
X154858D02*
D03*
X156826D02*
D03*
X158794D02*
D03*
X160763D02*
D03*
X162732D02*
D03*
X164700D02*
D03*
X166668D02*
D03*
X168637D02*
D03*
X170606D02*
D03*
X172574D02*
D03*
X174542D02*
D03*
X176511D02*
D03*
X178480D02*
D03*
X180448D02*
D03*
X182416D02*
D03*
X184385D02*
D03*
X186354D02*
D03*
X188322D02*
D03*
X190291D02*
D03*
X192259D02*
D03*
X194228D02*
D03*
X196196D02*
D03*
Y186330D02*
D03*
X194228D02*
D03*
X192259D02*
D03*
X190291D02*
D03*
X188322D02*
D03*
X186354D02*
D03*
X184385D02*
D03*
X182416D02*
D03*
X180448D02*
D03*
X178480D02*
D03*
X176511D02*
D03*
X174542D02*
D03*
X172574D02*
D03*
X170606D02*
D03*
X168637D02*
D03*
X166668D02*
D03*
X164700D02*
D03*
X162732D02*
D03*
X160763D02*
D03*
X158794D02*
D03*
X156826D02*
D03*
X154858D02*
D03*
X152889D02*
D03*
X150920D02*
D03*
X148952D02*
D03*
D21*
X130200Y171747D02*
D03*
Y177653D02*
D03*
X214700Y146700D02*
D03*
Y152605D02*
D03*
Y132200D02*
D03*
Y126295D02*
D03*
D22*
X172747Y198200D02*
D03*
X178653D02*
D03*
X174747Y113700D02*
D03*
X180653D02*
D03*
X150700D02*
D03*
X156606D02*
D03*
D36*
X9200Y19700D02*
D03*
X19200D02*
D03*
X29200D02*
D03*
X39200D02*
D03*
X49200D02*
D03*
X59200D02*
D03*
X69200D02*
D03*
X79200D02*
D03*
X89200D02*
D03*
X99200D02*
D03*
X109200D02*
D03*
X119200D02*
D03*
X129200D02*
D03*
X139200D02*
D03*
X149200D02*
D03*
X159200D02*
D03*
X169200D02*
D03*
X179200D02*
D03*
X189200D02*
D03*
X199200D02*
D03*
X209200D02*
D03*
X219200D02*
D03*
D37*
X202496Y232090D02*
X203187Y231398D01*
X192259Y195772D02*
X203187Y206700D01*
X209390Y171763D02*
X214999Y177371D01*
X209200Y248428D02*
X216967Y240661D01*
X194228Y194228D02*
X205156Y205156D01*
X217669Y165893D02*
X218935Y167159D01*
X206944Y177668D02*
X209093Y179817D01*
X179200Y308428D02*
X220904Y266724D01*
X206572Y241932D02*
X213030Y235475D01*
X207124Y203625D02*
Y233029D01*
X204942Y237995D02*
X209093Y233844D01*
X218935Y167159D02*
Y258668D01*
X204126Y236027D02*
X207124Y233029D01*
X189200Y309200D02*
X222872Y275528D01*
X207759Y175700D02*
X211062Y179002D01*
X169200Y308404D02*
X218935Y258668D01*
X214999Y177371D02*
Y236290D01*
X220015Y161956D02*
X222872Y164813D01*
X205757Y239964D02*
X211062Y234659D01*
X205905Y165893D02*
X217669D01*
X220831Y159987D02*
X224841Y163998D01*
X216967Y175092D02*
Y240661D01*
X211669Y169794D02*
X216967Y175092D01*
X199200Y309700D02*
X224841Y284059D01*
Y163998D02*
Y284059D01*
X196196Y192696D02*
X207124Y203625D01*
X207388Y243901D02*
X214999Y236290D01*
X213030Y178187D02*
Y235475D01*
X209093Y179817D02*
Y233844D01*
X208575Y173732D02*
X213030Y178187D01*
X219200Y163924D02*
X220904Y165628D01*
X222872Y164813D02*
Y275528D01*
X220904Y165628D02*
Y266724D01*
X203311Y234058D02*
X205156Y232213D01*
Y205156D02*
Y232213D01*
X195216Y232090D02*
X202496D01*
X211062Y179002D02*
Y234659D01*
X203187Y206700D02*
Y231398D01*
X199200Y309700D02*
Y310200D01*
X189200Y309200D02*
Y310200D01*
X180448Y181441D02*
Y186330D01*
X137059Y173732D02*
X142259D01*
X135420Y170827D02*
X137527D01*
X138507Y171763D02*
X138507Y171763D01*
X145240D01*
X138463Y171763D02*
X138507D01*
X138343Y168859D02*
X139278Y169794D01*
X137496Y168859D02*
X138343D01*
X136481Y167844D02*
X137496Y168859D01*
X135552Y178891D02*
X136775Y177668D01*
X136161Y167844D02*
X136481D01*
X137527Y170827D02*
X138463Y171763D01*
X139323Y169794D02*
X142259D01*
X136958Y173833D02*
X137059Y173732D01*
X135350Y178891D02*
X135552D01*
X139278Y169794D02*
X139323D01*
X139323Y169794D01*
X134500Y171747D02*
X135420Y170827D01*
X95200Y194067D02*
Y197200D01*
Y194067D02*
X100200Y189067D01*
Y188747D02*
Y189067D01*
X111700Y187267D02*
X124021D01*
X145240Y171763D02*
X161303Y155700D01*
X136775Y177668D02*
X142259D01*
X130200Y171747D02*
X134500D01*
X142259Y175700D02*
X147200D01*
X148952Y177567D02*
X150920Y175599D01*
X164700Y159429D02*
Y159429D01*
X150920Y173208D02*
Y175599D01*
X148952Y177567D02*
Y186330D01*
X146393Y175599D02*
X147099D01*
X147200Y175700D01*
X150920Y173208D02*
X164700Y159429D01*
X140094Y179637D02*
Y181487D01*
Y179637D02*
X142259D01*
X139200Y182380D02*
X140094Y181487D01*
X139200Y182380D02*
Y182700D01*
X150920Y186330D02*
Y190464D01*
X149684Y191700D02*
X150920Y190464D01*
X133238Y193700D02*
X153903D01*
X159630Y203542D02*
X164700Y198472D01*
X113700Y207297D02*
X117825Y203172D01*
X129977Y201574D02*
X158815D01*
X162732Y197657D01*
X153903Y193700D02*
X154858Y192745D01*
X128791Y203172D02*
X129162Y203542D01*
X156358Y197637D02*
X158794Y195200D01*
X130792Y199606D02*
X157999D01*
X132423Y195668D02*
X155358D01*
X124021Y187267D02*
X132423Y195668D01*
X124738Y185200D02*
X133238Y193700D01*
X129162Y203542D02*
X159630D01*
X121575Y193172D02*
X129977Y201574D01*
X157999Y199606D02*
X160763Y196842D01*
X131608Y197637D02*
X156358D01*
X122391Y191204D02*
X130792Y199606D01*
X123206Y189235D02*
X131608Y197637D01*
X155358Y195668D02*
X156826Y194200D01*
X134022Y191700D02*
X149684D01*
X125522Y183200D02*
X134022Y191700D01*
X118254Y193172D02*
X121575D01*
X115700Y185200D02*
X124738D01*
X119885Y189235D02*
X123206D01*
X119069Y191204D02*
X122391D01*
X118020Y183200D02*
X125522D01*
X131676Y179129D02*
X138877Y186330D01*
X130200Y177751D02*
X131578Y179129D01*
X131676D01*
X138877Y186330D02*
X148952D01*
X116700Y182200D02*
X117020D01*
X118020Y183200D01*
X113700D02*
X115700Y185200D01*
X156826Y186330D02*
Y191930D01*
X154858Y186330D02*
Y192745D01*
X158794Y191114D02*
Y195200D01*
X164700Y186330D02*
Y188668D01*
X160763Y186330D02*
Y190299D01*
X162732Y189484D02*
X162732Y189484D01*
X156826Y191930D02*
Y194200D01*
X158794Y186330D02*
Y191114D01*
X162732Y186330D02*
Y189484D01*
X156826Y191930D02*
X156826Y191930D01*
X164700Y188668D02*
Y198472D01*
X158794Y191114D02*
X158794Y191114D01*
X160763Y190299D02*
Y196842D01*
X160763Y190299D02*
X160763Y190299D01*
X162732Y189484D02*
Y197657D01*
X164700Y188668D02*
X164700Y188668D01*
X117825Y203172D02*
X128791D01*
X116194Y189235D02*
X119885D01*
X117825Y193172D02*
X118254D01*
X117009Y191204D02*
X119069D01*
X110700Y194729D02*
X116194Y189235D01*
X112669Y195545D02*
X117009Y191204D01*
X115172Y195825D02*
X117825Y193172D01*
X107759Y205599D02*
X112669Y200690D01*
X107759Y205599D02*
Y218200D01*
X105200Y205375D02*
X110700Y199875D01*
Y194729D02*
Y199875D01*
X112669Y195545D02*
Y200690D01*
X115172Y195825D02*
Y200970D01*
X110700Y205442D02*
X115172Y200970D01*
X105200Y205375D02*
Y227200D01*
X110700Y205442D02*
Y217991D01*
X110909Y218200D01*
X113700Y207297D02*
Y214061D01*
X114255Y214616D02*
Y221700D01*
X113700Y214061D02*
X114255Y214616D01*
X170676Y174294D02*
X171264Y174882D01*
X173823Y173920D02*
X176511Y176608D01*
X167700Y174618D02*
X172574Y179492D01*
X171264Y174882D02*
Y174980D01*
X170606Y180307D02*
Y186330D01*
X165367Y174188D02*
Y175068D01*
X170676Y173975D02*
Y174294D01*
X165367Y175068D02*
X170606Y180307D01*
X168637Y181122D02*
Y186330D01*
X161759Y174081D02*
Y174245D01*
X167700Y167474D02*
Y174618D01*
X172574Y179492D02*
Y186330D01*
X171264Y174980D02*
X174542Y178259D01*
X173823Y173840D02*
Y173920D01*
X161759Y174245D02*
X168637Y181122D01*
X172367Y156033D02*
X172474D01*
X171261D02*
X172367D01*
X172574Y155574D02*
Y155826D01*
Y125700D02*
Y155574D01*
X172367Y156033D02*
X172574Y155826D01*
X152889Y175511D02*
X172367Y156033D01*
X167700Y167474D02*
X172700Y162474D01*
Y156259D02*
Y162474D01*
X165141Y173962D02*
X165367Y174188D01*
X174542Y178259D02*
Y186330D01*
X176511Y176608D02*
Y180898D01*
X166668Y182609D02*
Y186330D01*
X158200Y174141D02*
X166668Y182609D01*
X176511Y180898D02*
Y186330D01*
X176838Y170194D02*
X181231Y174588D01*
X178480Y180110D02*
Y186330D01*
X186354Y180612D02*
X186898Y181157D01*
X183755Y175686D02*
Y181684D01*
X181231Y177225D02*
X181629Y177623D01*
X183200Y175130D02*
X183755Y175686D01*
X186898Y181157D02*
Y181476D01*
X181231Y174588D02*
Y177225D01*
X180448Y181441D02*
X181629Y180260D01*
X178480Y180110D02*
X179070Y179520D01*
X186354Y171499D02*
Y180612D01*
X183200Y169200D02*
Y175130D01*
X181629Y177623D02*
Y180260D01*
X176511Y180898D02*
X176511Y180898D01*
X179070Y179200D02*
Y179520D01*
X114200Y316700D02*
X119200Y321700D01*
X114200Y290518D02*
Y316700D01*
X99200Y275518D02*
X114200Y290518D01*
X99200Y250200D02*
Y275518D01*
X176838Y158436D02*
Y170194D01*
X190200Y172700D02*
X190245Y172745D01*
Y181467D02*
X190291Y181512D01*
X190245Y172745D02*
Y181467D01*
X192161Y169794D02*
X197187Y174821D01*
Y176916D01*
X179700Y158358D02*
X191137Y169794D01*
X192161D01*
X197187Y176916D02*
X199908Y179637D01*
X180641Y131209D02*
X181367Y130483D01*
Y130225D02*
Y130483D01*
X180641Y131209D02*
Y131529D01*
X176838Y158436D02*
X179700Y155574D01*
X163700Y209519D02*
Y210700D01*
X186354Y186330D02*
Y199267D01*
X163700Y209519D02*
X168956Y204262D01*
X178575D02*
X182416Y200420D01*
Y186330D02*
Y200420D01*
X180448Y186330D02*
Y191761D01*
X178700Y206921D02*
Y213673D01*
X178653Y193556D02*
Y198200D01*
X168956Y204262D02*
X178575D01*
X178700Y206921D02*
X186354Y199267D01*
X178653Y193556D02*
X180448Y191761D01*
X172574Y192572D02*
X172747Y192745D01*
Y198200D01*
X172574Y186330D02*
Y192572D01*
X178366Y236027D02*
X180335Y234058D01*
X182369D02*
X194566Y221861D01*
X180335Y234058D02*
X182369D01*
X182781Y239964D02*
X192910D01*
X184412Y243901D02*
X194541D01*
X179200Y249112D02*
X184412Y243901D01*
X183596Y241932D02*
X193725D01*
X181966Y237995D02*
X192095D01*
X181628Y243901D02*
X183596Y241932D01*
X181150Y236027D02*
X191279D01*
X179182Y237995D02*
X181150Y236027D01*
X180812Y241932D02*
X182781Y239964D01*
X179997D02*
X181966Y237995D01*
X172834Y219539D02*
X178700Y213673D01*
X169508Y232090D02*
X172834Y228764D01*
Y219539D02*
Y228764D01*
X165216Y232090D02*
X169508D01*
X173728Y243901D02*
X181628D01*
X166847Y236027D02*
X178366D01*
X184566Y216861D02*
Y226351D01*
X179200Y249112D02*
Y250200D01*
X167662Y237995D02*
X179182D01*
X168478Y239964D02*
X179997D01*
X169293Y241932D02*
X180812D01*
X166032Y234058D02*
X176859D01*
X184566Y226351D01*
X169200Y248428D02*
Y250200D01*
X163725Y241932D02*
X167662Y237995D01*
X165356Y245869D02*
X169293Y241932D01*
X162095Y237995D02*
X166032Y234058D01*
X123373Y236027D02*
X161279D01*
X164541Y243901D02*
X168478Y239964D01*
X161279Y236027D02*
X165216Y232090D01*
X162910Y239964D02*
X166847Y236027D01*
X169200Y248428D02*
X173728Y243901D01*
X159200Y249602D02*
X162933Y245869D01*
X149293Y241932D02*
X163725D01*
X162933Y245869D02*
X165356D01*
X153728Y243901D02*
X164541D01*
X159200Y249602D02*
Y250200D01*
X119200Y248428D02*
X129633Y237995D01*
X129200Y248428D02*
X137665Y239964D01*
X129633Y237995D02*
X162095D01*
X149200Y248428D02*
X153728Y243901D01*
X144210Y247015D02*
X149293Y241932D01*
X112385Y247015D02*
X123373Y236027D01*
X137665Y239964D02*
X162910D01*
X109200Y249813D02*
Y250200D01*
Y249813D02*
X111998Y247015D01*
X112385D01*
X188322Y186330D02*
Y199639D01*
X190291Y186330D02*
Y190700D01*
X190291Y190700D01*
X196196Y186330D02*
Y192696D01*
X190291Y190700D02*
Y196747D01*
X198700Y205156D01*
X192259Y189885D02*
X192259Y189885D01*
Y195772D01*
X188322Y199639D02*
X188444Y199761D01*
X194228Y186330D02*
Y189069D01*
X192259Y186330D02*
Y189885D01*
X194228Y189069D02*
X194228Y189069D01*
Y194228D01*
X184566Y216861D02*
X188444Y212983D01*
Y199761D02*
Y212983D01*
X119200Y248428D02*
Y250200D01*
X198700Y205156D02*
Y213673D01*
X194566Y217807D02*
X198700Y213673D01*
X194566Y217807D02*
Y221861D01*
X129200Y248428D02*
Y250200D01*
X192095Y237995D02*
X196032Y234058D01*
X193725Y241932D02*
X197662Y237995D01*
X192932Y245869D02*
X195356D01*
X191279Y236027D02*
X195216Y232090D01*
X189200Y249602D02*
X192932Y245869D01*
X194541Y243901D02*
X198478Y239964D01*
X189200Y249602D02*
Y250200D01*
X195356Y245869D02*
X199293Y241932D01*
X198478Y239964D02*
X205757D01*
X203728Y243901D02*
X207388D01*
X199200Y248428D02*
Y250200D01*
X199293Y241932D02*
X206572D01*
X199200Y248428D02*
X203728Y243901D01*
X196847Y236027D02*
X204126D01*
X197662Y237995D02*
X204942D01*
X202889Y169794D02*
X211669D01*
X196032Y234058D02*
X203311D01*
X192910Y239964D02*
X196847Y236027D01*
X209200Y248428D02*
Y250200D01*
X141998Y247015D02*
X144210D01*
X149200Y248428D02*
Y250200D01*
X139200Y249813D02*
X141998Y247015D01*
X139200Y249813D02*
Y250200D01*
X202889Y175700D02*
X207759D01*
X202889Y177668D02*
X206944D01*
X202889Y171763D02*
X209390D01*
X202889Y173732D02*
X208575D01*
X226810Y163182D02*
Y290819D01*
X202889Y163889D02*
X208864D01*
X208899Y163924D01*
X219200D01*
X202889Y165858D02*
X205870D01*
X205905Y165893D01*
X202889Y159952D02*
X210495D01*
X212161Y156050D02*
X217669D01*
X211345Y158019D02*
X221646D01*
X212125Y156015D02*
X212161Y156050D01*
X210530Y159987D02*
X220831D01*
X211310Y157984D02*
X211345Y158019D01*
X209715Y161956D02*
X220015D01*
X210495Y159952D02*
X210530Y159987D01*
X209679Y161920D02*
X209715Y161956D01*
X202889Y157984D02*
X211310D01*
X202889Y154046D02*
X208468D01*
X197973D02*
X202889D01*
Y156015D02*
X212125D01*
X208468Y154046D02*
X209909Y152605D01*
X217669Y156050D02*
X220200Y153520D01*
X221646Y158019D02*
X226810Y163182D01*
X202889Y161920D02*
X209679D01*
X209200Y308428D02*
X226810Y290819D01*
X169200Y308404D02*
Y310200D01*
X209200Y308428D02*
Y310200D01*
X179200Y308428D02*
Y310200D01*
X134200Y141645D02*
X134520D01*
X135110Y142235D02*
X142259D01*
X134520Y141645D02*
X135110Y142235D01*
X172474Y156033D02*
X172700Y156259D01*
X170928Y155700D02*
X171261Y156033D01*
X161303Y155700D02*
X170928D01*
X148952Y131952D02*
X172574Y155574D01*
X181367Y130225D02*
X182416Y129175D01*
X187125Y131833D02*
X187672Y131285D01*
X187686D01*
X186805Y131833D02*
X187125D01*
X187686Y131285D02*
X190291Y128681D01*
Y125700D02*
Y128681D01*
X179700Y155574D02*
Y158358D01*
X183924Y132571D02*
X186484Y135130D01*
X192259Y125700D02*
Y130603D01*
X192756Y135130D02*
X197995Y129891D01*
X184385Y125700D02*
Y129990D01*
Y117334D02*
Y125700D01*
X186484Y135130D02*
X192756D01*
X190291Y132571D02*
X192259Y130603D01*
X199908Y179637D02*
X202889D01*
X182416Y125700D02*
Y129175D01*
X183924Y130451D02*
Y132571D01*
Y130451D02*
X184385Y129990D01*
X186354Y115330D02*
X186484Y115200D01*
X186354Y115330D02*
Y125700D01*
X188322Y117078D02*
X190200Y115200D01*
X188322Y117078D02*
Y125700D01*
X130200Y177653D02*
Y177751D01*
X134200Y131538D02*
X137023Y134361D01*
X142259D01*
X108867Y131538D02*
X134200D01*
X95200Y145206D02*
X108867Y131538D01*
X95200Y145206D02*
Y146977D01*
X142259Y140267D02*
X147148D01*
X149116Y142235D01*
X152889D01*
X191952Y167826D02*
X202889D01*
X179700Y155574D02*
X191952Y167826D01*
X156461Y129211D02*
X156826Y128847D01*
X158794Y125700D02*
Y134361D01*
X156461Y129211D02*
Y131313D01*
X160763Y125700D02*
Y130601D01*
X156235Y131538D02*
X156461Y131313D01*
X161354Y131191D02*
Y131511D01*
X160763Y130601D02*
X161354Y131191D01*
X196445Y155574D02*
X197973Y154046D01*
X179700Y155574D02*
X196445D01*
X196530Y152078D02*
X202889D01*
X196426Y151974D02*
X196530Y152078D01*
X198002Y134060D02*
X198322D01*
X198623Y134361D02*
X202889D01*
X198322Y134060D02*
X198623Y134361D01*
X199351Y136330D02*
X202889D01*
X196206Y136647D02*
X199034D01*
X199351Y136330D01*
X202889Y132393D02*
X214507D01*
X152889Y175511D02*
Y186330D01*
X148952Y125700D02*
Y131952D01*
X134426Y128426D02*
X136127D01*
X140094Y132393D02*
X142259D01*
X136127Y128426D02*
X140094Y132393D01*
X134200Y128200D02*
X134426Y128426D01*
X129200Y19700D02*
Y63700D01*
X152889Y125700D02*
Y131538D01*
X150082Y120200D02*
Y120520D01*
X150920Y121358D01*
Y125700D01*
X147523Y116779D02*
X150602Y113700D01*
X147523Y116779D02*
Y122106D01*
X148952Y123535D01*
Y125700D01*
X150602Y113700D02*
X150700D01*
X176511Y125700D02*
Y131511D01*
X156826Y125700D02*
Y128847D01*
X154858Y122719D02*
X155200Y122377D01*
X154858Y122719D02*
Y125700D01*
X155200Y118200D02*
Y122377D01*
X162747Y109136D02*
Y111074D01*
X164700Y113026D01*
X162521Y108910D02*
X162747Y109136D01*
X165290Y110490D02*
X166668Y111869D01*
X165290Y107409D02*
Y110490D01*
X162107Y114053D02*
Y114373D01*
X162732Y114997D02*
Y125700D01*
X162107Y114373D02*
X162732Y114997D01*
X166668Y111869D02*
Y125700D01*
X164700Y113026D02*
Y125700D01*
X170606Y111858D02*
X171495Y110968D01*
X168637Y109763D02*
Y125700D01*
X170606Y111858D02*
Y125700D01*
X158082Y115078D02*
Y120283D01*
X156704Y113700D02*
X158082Y115078D01*
X156606Y113700D02*
X156704D01*
X171495Y106031D02*
Y110968D01*
Y106031D02*
X171700Y105826D01*
X158082Y120283D02*
X158794Y120996D01*
Y125700D01*
X172574Y120393D02*
X174747Y118220D01*
X172574Y120393D02*
Y125700D01*
X174747Y113700D02*
Y118220D01*
X148602Y138298D02*
X148700Y138200D01*
X142259Y138298D02*
X148602D01*
X134200Y136330D02*
X142259D01*
X177759Y120700D02*
X177926Y120867D01*
Y122166D01*
X178480Y122719D02*
Y125700D01*
X177926Y122166D02*
X178480Y122719D01*
X180448Y120751D02*
Y125700D01*
X194228Y116492D02*
Y125700D01*
X196196Y119704D02*
Y125700D01*
X180426Y118926D02*
Y120729D01*
X180448Y120751D01*
X180200Y118700D02*
X180426Y118926D01*
X195200Y115200D02*
Y115520D01*
X194228Y116492D02*
X195200Y115520D01*
X196196Y119704D02*
X198200Y117700D01*
X196528Y146172D02*
X202889D01*
X196378Y146022D02*
X196528Y146172D01*
X208855Y140267D02*
X210723Y138399D01*
X202889Y140267D02*
X208855D01*
X211561Y142235D02*
X212371Y141426D01*
X212974D01*
X202889Y142235D02*
X211561D01*
X212974Y141426D02*
X213200Y141200D01*
X207640Y144204D02*
X207640Y144204D01*
X212302D02*
X214700Y146602D01*
X207640Y144204D02*
X212302D01*
X210380Y149322D02*
X210700D01*
X202889Y150109D02*
X209593D01*
X210380Y149322D01*
X207022Y146989D02*
X208474D01*
X202889Y148141D02*
X205870D01*
X207022Y146989D01*
X208474D02*
X208700Y146763D01*
X207380Y137515D02*
X207700D01*
X202889Y138298D02*
X206597D01*
X202889Y144204D02*
X207640D01*
X206597Y138298D02*
X207380Y137515D01*
X209909Y152605D02*
X214700D01*
X214507Y132393D02*
X214700Y132200D01*
X180751Y113700D02*
X184385Y117334D01*
X180653Y113700D02*
X180751D01*
D38*
X105200Y176978D02*
Y197200D01*
Y146977D02*
Y176978D01*
X119700Y207700D02*
X131716Y219716D01*
X119700Y207700D02*
Y227928D01*
X131716Y219716D02*
X138503D01*
X138700Y219913D02*
Y220700D01*
X138503Y219716D02*
X138700Y219913D01*
Y220700D02*
X148700D01*
X99200Y248428D02*
X119700Y227928D01*
X99200Y248428D02*
Y250200D01*
X148700Y220700D02*
X158700D01*
X109200Y310200D02*
Y321700D01*
X4200Y314200D02*
X11700Y321700D01*
X109200D01*
X4200Y92857D02*
Y314200D01*
Y92857D02*
X13200Y83858D01*
X119594Y147200D02*
X119700D01*
X119371Y146977D02*
X119594Y147200D01*
X105200Y146977D02*
X119371D01*
X50200Y91700D02*
X67700D01*
X85200D01*
X102700D01*
X120200D01*
X32594D02*
X32700D01*
X13200Y93700D02*
X30593D01*
X32594Y91700D01*
X219200Y40200D02*
Y75827D01*
Y19700D02*
Y40200D01*
X215741Y79287D02*
X219200Y75827D01*
X13200Y48200D02*
X19200Y42200D01*
X13200Y48200D02*
Y83858D01*
X19200Y19700D02*
Y42200D01*
X9200Y19700D02*
Y39700D01*
X19200Y19700D02*
X29200D01*
D39*
X25200Y197200D02*
Y198972D01*
X19924Y204247D02*
X25200Y198972D01*
Y205700D02*
Y236815D01*
X33924Y245539D01*
X19924Y204247D02*
Y235812D01*
X24200Y240088D01*
Y262700D01*
X63200Y301700D01*
X75841Y302956D02*
X75841D01*
X69200Y309597D02*
Y310200D01*
Y309597D02*
X75841Y302956D01*
X75841D02*
X84200Y294597D01*
X74700Y296412D02*
Y300200D01*
X84200Y236653D02*
Y294597D01*
X73924Y295637D02*
X74700Y296412D01*
X73924Y246471D02*
Y295637D01*
X33924Y245539D02*
Y267936D01*
X63200Y297211D01*
X67200Y269617D02*
Y289805D01*
X60444Y271944D02*
Y287049D01*
X44200Y236653D02*
Y255700D01*
X60444Y271944D01*
X63200Y270200D02*
Y292700D01*
X53924Y241815D02*
Y260924D01*
X63200Y270200D01*
X64200Y266617D02*
X67200Y269617D01*
X64200Y246747D02*
Y266617D01*
X55200Y227200D02*
Y240539D01*
X53924Y241815D02*
X55200Y240539D01*
X50200Y216807D02*
Y230653D01*
X44200Y236653D02*
X50200Y230653D01*
X60200Y242747D02*
X64200Y246747D01*
X48200Y203200D02*
Y214807D01*
X50200Y216807D01*
X60200Y217677D02*
X65200Y212677D01*
X60200Y217677D02*
Y242747D01*
X65200Y197200D02*
Y212677D01*
Y237747D02*
X73924Y246471D01*
X65200Y225428D02*
Y237747D01*
X69924Y190638D02*
Y220704D01*
X65200Y225428D02*
X69924Y220704D01*
X95200Y225428D02*
X100200Y220428D01*
Y203200D02*
Y220428D01*
X95200Y225428D02*
Y245747D01*
X84200Y236653D02*
X89924Y230929D01*
Y224023D02*
Y230929D01*
Y224023D02*
X95200Y218747D01*
Y197200D02*
Y218747D01*
X93924Y247023D02*
X95200Y245747D01*
X90476Y193471D02*
Y207924D01*
X85200Y213200D02*
X90476Y207924D01*
Y193471D02*
X99924Y184023D01*
X93924Y247023D02*
Y293704D01*
X79200Y308428D02*
X93924Y293704D01*
X79200Y308428D02*
Y310200D01*
X69700Y190413D02*
X69924Y190638D01*
X69700Y190200D02*
Y190413D01*
X75200Y209063D02*
X79924Y204338D01*
X75200Y209063D02*
Y227200D01*
Y148700D02*
X89924Y163424D01*
X85200Y146977D02*
Y154728D01*
X99924Y169452D01*
X75200Y146977D02*
Y148700D01*
X89924Y163424D02*
Y180706D01*
X99924Y169452D02*
Y184023D01*
X45200Y148749D02*
X50476Y154025D01*
Y173249D01*
X85200Y213200D02*
Y227200D01*
X45061Y197061D02*
X45200Y197200D01*
X45061Y190839D02*
Y197061D01*
Y190839D02*
X47614Y188286D01*
X47614Y188286D02*
X50476Y185424D01*
Y173249D02*
Y185424D01*
X49924Y190638D02*
Y200377D01*
X55200Y205653D01*
Y227200D01*
Y176978D02*
Y197200D01*
X10476Y180706D02*
X15200Y185430D01*
Y197200D01*
X20200Y171816D02*
Y187700D01*
X15200Y166816D02*
X20200Y171816D01*
X15200Y146977D02*
Y166816D01*
X10476Y121424D02*
Y180706D01*
X25200Y176978D02*
Y197200D01*
X40476Y154025D02*
Y200929D01*
X35200Y148749D02*
X40476Y154025D01*
X65200Y176978D02*
Y197200D01*
X35200Y146977D02*
Y148749D01*
X45200Y146977D02*
Y148749D01*
X10476Y121424D02*
X50200Y81700D01*
X30476Y154025D02*
Y200929D01*
X35200Y205653D01*
Y227200D01*
X25200Y148749D02*
X30476Y154025D01*
X25200Y146977D02*
Y148749D01*
X40476Y200929D02*
X45200Y205653D01*
Y227200D01*
X70476Y182361D02*
X75200Y187085D01*
Y197200D01*
X79924Y163473D02*
Y204338D01*
X55200Y148749D02*
X70476Y164025D01*
X55200Y146977D02*
Y148749D01*
X65200D02*
X79924Y163473D01*
X85200Y185430D02*
Y197200D01*
Y185430D02*
X89924Y180706D01*
X70476Y164025D02*
Y182361D01*
X65200Y146977D02*
Y148749D01*
D40*
X189791Y79243D02*
X196763D01*
X201592Y126295D02*
X214700D01*
X197995Y129891D02*
X201592Y126295D01*
X179700Y148186D02*
X197995Y129891D01*
X179700Y148186D02*
Y155574D01*
X214700Y120700D02*
Y126295D01*
X177700Y83700D02*
X214700Y120700D01*
X177700Y75827D02*
Y83700D01*
Y75827D02*
X181371Y72157D01*
X189200D01*
X174747Y113700D02*
X174936Y113511D01*
X200700Y75827D02*
X206491D01*
X193461D02*
X200700D01*
Y71527D02*
Y75827D01*
X212200Y79287D02*
X215741D01*
X209950D02*
X212200D01*
X206491Y75827D02*
X209950Y79287D01*
X189791Y72157D02*
X193461Y75827D01*
X196763Y79243D02*
X196960Y79440D01*
Y79873D01*
Y70739D02*
X197747Y69952D01*
Y69170D02*
X199131Y67787D01*
X196960Y70739D02*
Y71527D01*
X197747Y69170D02*
Y69952D01*
X199131Y67787D02*
X202269D01*
X203653Y69952D02*
X204440Y70739D01*
X203653Y69170D02*
Y69952D01*
X202269Y67787D02*
X203653Y69170D01*
X204440Y70739D02*
Y71527D01*
X211863Y71863D02*
X212200Y72200D01*
X204637Y71863D02*
X211863D01*
X204440Y71527D02*
Y71667D01*
X204637Y71863D01*
D41*
X198700Y220700D02*
D03*
X183700Y210700D02*
D03*
X178700Y220700D02*
D03*
X173700Y210700D02*
D03*
X168700Y220700D02*
D03*
X163700Y210700D02*
D03*
X158700Y220700D02*
D03*
X153700Y210700D02*
D03*
X193700D02*
D03*
X188700Y220700D02*
D03*
X143700Y210700D02*
D03*
X138700Y220700D02*
D03*
X133700Y210700D02*
D03*
X148700Y220700D02*
D03*
D42*
X119200Y321700D02*
D03*
X109200D02*
D03*
X13200Y93700D02*
D03*
X119700Y207700D02*
D03*
Y197700D02*
D03*
Y157200D02*
D03*
Y147200D02*
D03*
X67700Y91700D02*
D03*
Y81700D02*
D03*
X120200Y91700D02*
D03*
Y81700D02*
D03*
X102700Y91700D02*
D03*
Y81700D02*
D03*
X32700Y91700D02*
D03*
Y81700D02*
D03*
X50200Y91700D02*
D03*
Y81700D02*
D03*
X85200Y91700D02*
D03*
Y81700D02*
D03*
X15200Y131700D02*
D03*
X25200D02*
D03*
X35200D02*
D03*
X45200D02*
D03*
X55200D02*
D03*
X65200D02*
D03*
X75200D02*
D03*
X85200D02*
D03*
Y71700D02*
D03*
Y61700D02*
D03*
X50200Y71700D02*
D03*
Y61700D02*
D03*
X32700Y71700D02*
D03*
Y61700D02*
D03*
X102700Y71700D02*
D03*
Y61700D02*
D03*
X120200Y71700D02*
D03*
Y61700D02*
D03*
X67700Y71700D02*
D03*
Y61700D02*
D03*
D43*
X13200Y83858D02*
D03*
D44*
X69200Y310200D02*
D03*
X59200D02*
D03*
X49200D02*
D03*
X39200D02*
D03*
X29200D02*
D03*
X19200D02*
D03*
X79200D02*
D03*
X89200D02*
D03*
X99200D02*
D03*
X109200D02*
D03*
X119200D02*
D03*
X129200D02*
D03*
X139200D02*
D03*
X149200D02*
D03*
X159200D02*
D03*
X169200D02*
D03*
X179200D02*
D03*
X189200D02*
D03*
X199200D02*
D03*
X19200Y250200D02*
D03*
X29200D02*
D03*
X39200D02*
D03*
X49200D02*
D03*
X59200D02*
D03*
X69200D02*
D03*
X79200D02*
D03*
X89200D02*
D03*
X99200D02*
D03*
X109200D02*
D03*
X119200D02*
D03*
X129200D02*
D03*
X139200D02*
D03*
X149200D02*
D03*
X159200D02*
D03*
X169200D02*
D03*
X179200D02*
D03*
X189200D02*
D03*
X199200D02*
D03*
X209200D02*
D03*
X75200Y146977D02*
D03*
X85200D02*
D03*
X95200D02*
D03*
X105200D02*
D03*
X65200D02*
D03*
X55200D02*
D03*
X95200Y176978D02*
D03*
X85200D02*
D03*
X75200D02*
D03*
X65200D02*
D03*
X55200D02*
D03*
X45200D02*
D03*
Y146977D02*
D03*
X35200D02*
D03*
X25200D02*
D03*
X15200D02*
D03*
Y176978D02*
D03*
X25200D02*
D03*
X35200D02*
D03*
X95200Y227200D02*
D03*
X85200D02*
D03*
X75200D02*
D03*
X65200D02*
D03*
X55200D02*
D03*
X45200D02*
D03*
Y197200D02*
D03*
X35200D02*
D03*
X25200D02*
D03*
X15200D02*
D03*
Y227200D02*
D03*
X25200D02*
D03*
X35200D02*
D03*
X95200Y197200D02*
D03*
X55200D02*
D03*
X65200D02*
D03*
X75200D02*
D03*
X85200D02*
D03*
X105200D02*
D03*
D45*
X209200Y310200D02*
D03*
X105200Y176978D02*
D03*
Y227200D02*
D03*
D46*
X95200Y131700D02*
D03*
D47*
X204537Y123965D02*
D03*
X221200Y282200D02*
D03*
X219200Y273700D02*
D03*
X217200Y264700D02*
D03*
X163700Y225200D02*
D03*
X167700Y283700D02*
D03*
X53200Y298700D02*
D03*
X77200Y260700D02*
D03*
X42700Y266700D02*
D03*
X24700Y273200D02*
D03*
X15200Y212200D02*
D03*
X10700Y187700D02*
D03*
X17200Y122200D02*
D03*
X21200Y76700D02*
D03*
X5200Y77700D02*
D03*
X203200Y84596D02*
D03*
X203700Y45700D02*
D03*
X192200Y66222D02*
D03*
X185200Y67200D02*
D03*
X169200Y147200D02*
D03*
X164700Y152200D02*
D03*
X195200Y172655D02*
D03*
X204700Y195700D02*
D03*
X89200Y283515D02*
D03*
X70200D02*
D03*
X131200Y273200D02*
D03*
X103385Y267700D02*
D03*
X103036Y302200D02*
D03*
D48*
X136958Y173833D02*
D03*
X135350Y178891D02*
D03*
X136161Y167844D02*
D03*
X100200Y188747D02*
D03*
X111700Y187267D02*
D03*
X147200Y175700D02*
D03*
X139200Y182700D02*
D03*
X116700Y182200D02*
D03*
X113700Y183200D02*
D03*
X63200Y301700D02*
D03*
X74700Y300200D02*
D03*
X63200Y297211D02*
D03*
X67200Y289805D02*
D03*
X63200Y292700D02*
D03*
X60444Y287049D02*
D03*
X48200Y203200D02*
D03*
X100200D02*
D03*
X107759Y218200D02*
D03*
X110909D02*
D03*
X114255Y221700D02*
D03*
X173823Y173840D02*
D03*
X170676Y173975D02*
D03*
X165141Y173962D02*
D03*
X161759Y174081D02*
D03*
X158200Y174141D02*
D03*
X183755Y181684D02*
D03*
X186898Y181476D02*
D03*
X179070Y179200D02*
D03*
X186354Y171499D02*
D03*
X190200Y172700D02*
D03*
X183200Y169200D02*
D03*
X180641Y131529D02*
D03*
X224700Y153520D02*
D03*
X25200Y205700D02*
D03*
X134200Y141645D02*
D03*
X186805Y131833D02*
D03*
X190291Y181512D02*
D03*
Y132571D02*
D03*
X186484Y115200D02*
D03*
X49924Y190638D02*
D03*
X69700Y190200D02*
D03*
X172700Y156259D02*
D03*
X152889Y142235D02*
D03*
X164700Y159429D02*
D03*
X158794Y134361D02*
D03*
X161354Y131511D02*
D03*
X156235Y131538D02*
D03*
X196426Y151974D02*
D03*
X179700Y155574D02*
D03*
X196206Y136647D02*
D03*
X198002Y134060D02*
D03*
X134200Y128200D02*
D03*
X150082Y120200D02*
D03*
X152889Y131538D02*
D03*
X129602Y89200D02*
D03*
X126452D02*
D03*
X176511Y131511D02*
D03*
X155200Y118200D02*
D03*
X145535Y89200D02*
D03*
X148700D02*
D03*
X142200D02*
D03*
X139050D02*
D03*
X162521Y108910D02*
D03*
X165290Y107409D02*
D03*
X162107Y114053D02*
D03*
X168637Y109763D02*
D03*
X132751Y89200D02*
D03*
X135901D02*
D03*
X148700Y138200D02*
D03*
X134200Y136330D02*
D03*
X177759Y120700D02*
D03*
X180200Y118700D02*
D03*
X190200Y115200D02*
D03*
X195200D02*
D03*
X198200Y117700D02*
D03*
X210700Y149322D02*
D03*
X220200Y153520D02*
D03*
X208700Y146763D02*
D03*
X207700Y137515D02*
D03*
X210723Y138399D02*
D03*
X213200Y141200D02*
D03*
X196378Y146022D02*
D03*
D49*
X129200Y63700D02*
D03*
X171700Y105826D02*
D03*
X20200Y187700D02*
D03*
D50*
X219200Y40200D02*
D03*
X9200Y39700D02*
D03*
M02*
