G04*
G04 #@! TF.GenerationSoftware,Altium Limited,Altium Designer,21.1.1 (26)*
G04*
G04 Layer_Color=16711935*
%FSLAX25Y25*%
%MOIN*%
G70*
G04*
G04 #@! TF.SameCoordinates,4EBEE0B8-8E4E-43C0-80E5-A374C2A04DA5*
G04*
G04*
G04 #@! TF.FilePolarity,Negative*
G04*
G01*
G75*
G04:AMPARAMS|DCode=27|XSize=81.73mil|YSize=278.58mil|CornerRadius=21.18mil|HoleSize=0mil|Usage=FLASHONLY|Rotation=0.000|XOffset=0mil|YOffset=0mil|HoleType=Round|Shape=RoundedRectangle|*
%AMROUNDEDRECTD27*
21,1,0.08173,0.23622,0,0,0.0*
21,1,0.03937,0.27858,0,0,0.0*
1,1,0.04236,0.01968,-0.11811*
1,1,0.04236,-0.01968,-0.11811*
1,1,0.04236,-0.01968,0.11811*
1,1,0.04236,0.01968,0.11811*
%
%ADD27ROUNDEDRECTD27*%
%ADD30O,0.05811X0.08173*%
%ADD31C,0.06598*%
%ADD32R,0.06598X0.06598*%
%ADD33O,0.06598X0.10142*%
%ADD34R,0.06598X0.10142*%
%ADD35R,0.06598X0.06598*%
D27*
X29200Y19700D02*
D03*
X19200D02*
D03*
X69200D02*
D03*
X59200D02*
D03*
X49200D02*
D03*
X99200D02*
D03*
X89200D02*
D03*
X129200D02*
D03*
X119200D02*
D03*
X159200D02*
D03*
X149200D02*
D03*
X189200D02*
D03*
X179200D02*
D03*
X219200D02*
D03*
X209200D02*
D03*
X79200D02*
D03*
X39200D02*
D03*
X9200D02*
D03*
X199200D02*
D03*
X169200D02*
D03*
X139200D02*
D03*
X109200D02*
D03*
D30*
X198700Y220700D02*
D03*
X183700Y210700D02*
D03*
X178700Y220700D02*
D03*
X173700Y210700D02*
D03*
X168700Y220700D02*
D03*
X163700Y210700D02*
D03*
X158700Y220700D02*
D03*
X153700Y210700D02*
D03*
X193700D02*
D03*
X188700Y220700D02*
D03*
X143700Y210700D02*
D03*
X138700Y220700D02*
D03*
X133700Y210700D02*
D03*
X148700Y220700D02*
D03*
D31*
X119200Y321700D02*
D03*
X109200D02*
D03*
X13200Y93700D02*
D03*
X119700Y207700D02*
D03*
Y197700D02*
D03*
Y157200D02*
D03*
Y147200D02*
D03*
X67700Y91700D02*
D03*
Y81700D02*
D03*
X120200Y91700D02*
D03*
Y81700D02*
D03*
X102700Y91700D02*
D03*
Y81700D02*
D03*
X32700Y91700D02*
D03*
Y81700D02*
D03*
X50200Y91700D02*
D03*
Y81700D02*
D03*
X85200Y91700D02*
D03*
Y81700D02*
D03*
X15200Y131700D02*
D03*
X25200D02*
D03*
X35200D02*
D03*
X45200D02*
D03*
X55200D02*
D03*
X65200D02*
D03*
X75200D02*
D03*
X85200D02*
D03*
Y71700D02*
D03*
Y61700D02*
D03*
X50200Y71700D02*
D03*
Y61700D02*
D03*
X32700Y71700D02*
D03*
Y61700D02*
D03*
X102700Y71700D02*
D03*
Y61700D02*
D03*
X120200Y71700D02*
D03*
Y61700D02*
D03*
X67700Y71700D02*
D03*
Y61700D02*
D03*
D32*
X13200Y83858D02*
D03*
D33*
X69200Y310200D02*
D03*
X59200D02*
D03*
X49200D02*
D03*
X39200D02*
D03*
X29200D02*
D03*
X19200D02*
D03*
X79200D02*
D03*
X89200D02*
D03*
X99200D02*
D03*
X109200D02*
D03*
X119200D02*
D03*
X129200D02*
D03*
X139200D02*
D03*
X149200D02*
D03*
X159200D02*
D03*
X169200D02*
D03*
X179200D02*
D03*
X189200D02*
D03*
X199200D02*
D03*
X19200Y250200D02*
D03*
X29200D02*
D03*
X39200D02*
D03*
X49200D02*
D03*
X59200D02*
D03*
X69200D02*
D03*
X79200D02*
D03*
X89200D02*
D03*
X99200D02*
D03*
X109200D02*
D03*
X119200D02*
D03*
X129200D02*
D03*
X139200D02*
D03*
X149200D02*
D03*
X159200D02*
D03*
X169200D02*
D03*
X179200D02*
D03*
X189200D02*
D03*
X199200D02*
D03*
X209200D02*
D03*
X75200Y146977D02*
D03*
X85200D02*
D03*
X95200D02*
D03*
X105200D02*
D03*
X65200D02*
D03*
X55200D02*
D03*
X95200Y176978D02*
D03*
X85200D02*
D03*
X75200D02*
D03*
X65200D02*
D03*
X55200D02*
D03*
X45200D02*
D03*
Y146977D02*
D03*
X35200D02*
D03*
X25200D02*
D03*
X15200D02*
D03*
Y176978D02*
D03*
X25200D02*
D03*
X35200D02*
D03*
X95200Y227200D02*
D03*
X85200D02*
D03*
X75200D02*
D03*
X65200D02*
D03*
X55200D02*
D03*
X45200D02*
D03*
Y197200D02*
D03*
X35200D02*
D03*
X25200D02*
D03*
X15200D02*
D03*
Y227200D02*
D03*
X25200D02*
D03*
X35200D02*
D03*
X95200Y197200D02*
D03*
X55200D02*
D03*
X65200D02*
D03*
X75200D02*
D03*
X85200D02*
D03*
X105200D02*
D03*
D34*
X209200Y310200D02*
D03*
X105200Y176978D02*
D03*
Y227200D02*
D03*
D35*
X95200Y131700D02*
D03*
M02*
