G04*
G04 #@! TF.GenerationSoftware,Altium Limited,Altium Designer,21.1.1 (26)*
G04*
G04 Layer_Physical_Order=2*
G04 Layer_Color=16711680*
%FSLAX25Y25*%
%MOIN*%
G70*
G04*
G04 #@! TF.SameCoordinates,4EBEE0B8-8E4E-43C0-80E5-A374C2A04DA5*
G04*
G04*
G04 #@! TF.FilePolarity,Positive*
G04*
G01*
G75*
%ADD13C,0.02362*%
G04:AMPARAMS|DCode=36|XSize=78.74mil|YSize=275.59mil|CornerRadius=19.68mil|HoleSize=0mil|Usage=FLASHONLY|Rotation=0.000|XOffset=0mil|YOffset=0mil|HoleType=Round|Shape=RoundedRectangle|*
%AMROUNDEDRECTD36*
21,1,0.07874,0.23622,0,0,0.0*
21,1,0.03937,0.27559,0,0,0.0*
1,1,0.03937,0.01968,-0.11811*
1,1,0.03937,-0.01968,-0.11811*
1,1,0.03937,-0.01968,0.11811*
1,1,0.03937,0.01968,0.11811*
%
%ADD36ROUNDEDRECTD36*%
%ADD37C,0.01181*%
%ADD38C,0.05906*%
%ADD39C,0.01575*%
%ADD41O,0.05512X0.07874*%
%ADD42C,0.06299*%
%ADD43R,0.06299X0.06299*%
%ADD44O,0.06299X0.09843*%
%ADD45R,0.06299X0.09843*%
%ADD46R,0.06299X0.06299*%
%ADD47C,0.01968*%
%ADD48C,0.02362*%
%ADD49C,0.02756*%
%ADD50C,0.05906*%
G36*
X15700Y327180D02*
X212700D01*
X213662Y327180D01*
X215570Y326929D01*
X217429Y326431D01*
X219207Y325695D01*
X220873Y324732D01*
X222400Y323561D01*
X223761Y322200D01*
X224933Y320673D01*
X225895Y319007D01*
X226631Y317229D01*
X227129Y315370D01*
X227380Y313462D01*
X227380Y312500D01*
X227380Y199851D01*
X226593Y199773D01*
X226554Y199968D01*
X226119Y200619D01*
X214619Y212119D01*
X213968Y212554D01*
X213200Y212707D01*
X197165D01*
X197152Y212806D01*
X196795Y213668D01*
X196227Y214408D01*
X195487Y214976D01*
X194625Y215333D01*
X193700Y215455D01*
X192775Y215333D01*
X191913Y214976D01*
X191173Y214408D01*
X190605Y213668D01*
X190248Y212806D01*
X190126Y211881D01*
Y211186D01*
X189339Y210765D01*
X189239Y210832D01*
Y213593D01*
X189132Y214131D01*
X188827Y214587D01*
X188444Y214970D01*
X188620Y215494D01*
X188786Y215742D01*
X189681Y215860D01*
X190594Y216238D01*
X191379Y216840D01*
X191981Y217625D01*
X192359Y218538D01*
X192488Y219519D01*
Y220200D01*
X188700D01*
X184912D01*
Y219519D01*
X185041Y218538D01*
X185178Y218207D01*
X184652Y217420D01*
X182748D01*
X182222Y218207D01*
X182359Y218538D01*
X182488Y219519D01*
Y220200D01*
X178700D01*
X174912D01*
Y219519D01*
X175041Y218538D01*
X175419Y217625D01*
X176021Y216840D01*
X176806Y216238D01*
X177719Y215860D01*
X178614Y215742D01*
X178780Y215494D01*
X178956Y214970D01*
X178573Y214587D01*
X178268Y214131D01*
X178161Y213593D01*
Y213527D01*
X177765Y213217D01*
X176881Y213461D01*
X176795Y213668D01*
X176227Y214408D01*
X175487Y214976D01*
X174625Y215333D01*
X173700Y215455D01*
X172775Y215333D01*
X171913Y214976D01*
X171173Y214408D01*
X170605Y213668D01*
X170248Y212806D01*
X170126Y211881D01*
Y209519D01*
X170248Y208594D01*
X170605Y207732D01*
X171173Y206992D01*
X171913Y206424D01*
X172775Y206067D01*
X173700Y205945D01*
X174625Y206067D01*
X175487Y206424D01*
X176227Y206992D01*
X176795Y207732D01*
X177152Y208594D01*
X177244Y209295D01*
X177755D01*
X178293Y209402D01*
X178749Y209707D01*
X179399Y210357D01*
X180126Y210055D01*
Y209519D01*
X180248Y208594D01*
X180605Y207732D01*
X181173Y206992D01*
X181913Y206424D01*
X182295Y206266D01*
Y196416D01*
X182402Y195879D01*
X182706Y195423D01*
X184949Y193181D01*
Y185020D01*
X185055Y184482D01*
X185121Y184384D01*
X185042Y184114D01*
X184147Y183653D01*
X183364D01*
X182640Y183353D01*
X182086Y182799D01*
X181787Y182076D01*
Y181703D01*
X181262Y181178D01*
X180475Y181504D01*
Y187059D01*
X180368Y187596D01*
X180063Y188052D01*
X162854Y205262D01*
X163221Y206008D01*
X163700Y205945D01*
X164625Y206067D01*
X165487Y206424D01*
X166227Y206992D01*
X166795Y207732D01*
X167152Y208594D01*
X167274Y209519D01*
Y211881D01*
X167152Y212806D01*
X166795Y213668D01*
X166227Y214408D01*
X165487Y214976D01*
X164625Y215333D01*
X163700Y215455D01*
X162775Y215333D01*
X161913Y214976D01*
X161173Y214408D01*
X160715Y213812D01*
X159829Y213585D01*
X158444Y214970D01*
X158620Y215494D01*
X158786Y215742D01*
X159680Y215860D01*
X160594Y216238D01*
X161379Y216840D01*
X161981Y217625D01*
X162359Y218538D01*
X162488Y219519D01*
Y220200D01*
X158700D01*
Y220700D01*
X158200D01*
Y225604D01*
X157720Y225540D01*
X156806Y225162D01*
X156392Y224845D01*
X155605Y225233D01*
Y245353D01*
X156392Y245620D01*
X157214Y244989D01*
X158172Y244593D01*
X159200Y244457D01*
X160228Y244593D01*
X161186Y244989D01*
X162008Y245620D01*
X162639Y246443D01*
X163036Y247401D01*
X163171Y248428D01*
Y251972D01*
X163036Y252999D01*
X162639Y253957D01*
X162008Y254780D01*
X161186Y255411D01*
X160228Y255807D01*
X159200Y255943D01*
X158172Y255807D01*
X157214Y255411D01*
X156392Y254780D01*
X155605Y255047D01*
Y273800D01*
X160194Y278389D01*
X160498Y278844D01*
X160605Y279382D01*
Y304749D01*
X161186Y304989D01*
X162008Y305620D01*
X162639Y306443D01*
X163036Y307401D01*
X163171Y308428D01*
Y311972D01*
X163036Y312999D01*
X162639Y313957D01*
X162008Y314780D01*
X161186Y315411D01*
X160228Y315807D01*
X159200Y315943D01*
X158172Y315807D01*
X157214Y315411D01*
X156392Y314780D01*
X155761Y313957D01*
X155364Y312999D01*
X155229Y311972D01*
Y308428D01*
X155364Y307401D01*
X155761Y306443D01*
X156392Y305620D01*
X157214Y304989D01*
X157795Y304749D01*
Y279964D01*
X153207Y275376D01*
X152902Y274920D01*
X152795Y274382D01*
Y255047D01*
X152008Y254780D01*
X151186Y255411D01*
X150228Y255807D01*
X149200Y255943D01*
X148172Y255807D01*
X147214Y255411D01*
X146392Y254780D01*
X146282Y254636D01*
X145273Y254614D01*
X118569Y281318D01*
X118113Y281623D01*
X117576Y281730D01*
X91334D01*
X91130Y282029D01*
X90934Y282517D01*
X91141Y283015D01*
X87259D01*
X87466Y282517D01*
X87270Y282029D01*
X87066Y281730D01*
X72334D01*
X72130Y282029D01*
X71934Y282517D01*
X72141Y283015D01*
X68259D01*
X68466Y282517D01*
X68270Y282029D01*
X68066Y281730D01*
X61658D01*
X59534Y283854D01*
X59594Y284758D01*
X60053Y285081D01*
X60836D01*
X61559Y285381D01*
X61622Y285444D01*
X68209D01*
X68535Y284656D01*
X68518Y284639D01*
X68259Y284015D01*
X72141D01*
X71882Y284639D01*
X71865Y284656D01*
X72191Y285444D01*
X87209D01*
X87535Y284656D01*
X87518Y284639D01*
X87259Y284015D01*
X91141D01*
X90882Y284639D01*
X90865Y284656D01*
X91191Y285444D01*
X135049D01*
X135049Y285444D01*
X135664Y285566D01*
X136185Y285914D01*
X150335Y300065D01*
X150335Y300065D01*
X150683Y300586D01*
X150806Y301200D01*
X150806Y301200D01*
Y304832D01*
X151186Y304989D01*
X152008Y305620D01*
X152639Y306443D01*
X153036Y307401D01*
X153171Y308428D01*
Y311972D01*
X153036Y312999D01*
X152639Y313957D01*
X152008Y314780D01*
X151186Y315411D01*
X150228Y315807D01*
X149200Y315943D01*
X148172Y315807D01*
X147214Y315411D01*
X146392Y314780D01*
X145761Y313957D01*
X145364Y312999D01*
X145229Y311972D01*
Y308428D01*
X145364Y307401D01*
X145761Y306443D01*
X146392Y305620D01*
X147214Y304989D01*
X147594Y304832D01*
Y301865D01*
X134384Y288655D01*
X133455D01*
X133153Y289383D01*
X140335Y296565D01*
X140335Y296565D01*
X140683Y297085D01*
X140806Y297700D01*
X140806Y297700D01*
Y304832D01*
X141185Y304989D01*
X142008Y305620D01*
X142639Y306443D01*
X143036Y307401D01*
X143171Y308428D01*
Y311972D01*
X143036Y312999D01*
X142639Y313957D01*
X142008Y314780D01*
X141185Y315411D01*
X140228Y315807D01*
X139200Y315943D01*
X138172Y315807D01*
X137215Y315411D01*
X136392Y314780D01*
X135761Y313957D01*
X135364Y312999D01*
X135229Y311972D01*
Y308428D01*
X135364Y307401D01*
X135761Y306443D01*
X136392Y305620D01*
X137215Y304989D01*
X137594Y304832D01*
Y298365D01*
X130535Y291306D01*
X122690D01*
X122364Y292093D01*
X130335Y300065D01*
X130335Y300065D01*
X130683Y300586D01*
X130806Y301200D01*
X130806Y301200D01*
Y304832D01*
X131185Y304989D01*
X132008Y305620D01*
X132639Y306443D01*
X133036Y307401D01*
X133171Y308428D01*
Y311972D01*
X133036Y312999D01*
X132639Y313957D01*
X132008Y314780D01*
X131185Y315411D01*
X130228Y315807D01*
X129200Y315943D01*
X128172Y315807D01*
X127215Y315411D01*
X126392Y314780D01*
X125761Y313957D01*
X125364Y312999D01*
X125229Y311972D01*
Y308428D01*
X125364Y307401D01*
X125761Y306443D01*
X126392Y305620D01*
X127215Y304989D01*
X127594Y304832D01*
Y301865D01*
X120035Y294306D01*
X64378D01*
X64315Y294369D01*
X64218Y295257D01*
X64622Y295606D01*
X116211D01*
X116211Y295606D01*
X116826Y295728D01*
X117347Y296076D01*
X120335Y299065D01*
X120335Y299065D01*
X120683Y299586D01*
X120806Y300200D01*
Y304832D01*
X121186Y304989D01*
X122008Y305620D01*
X122639Y306443D01*
X123036Y307401D01*
X123171Y308428D01*
Y311972D01*
X123036Y312999D01*
X122639Y313957D01*
X122008Y314780D01*
X121186Y315411D01*
X120228Y315807D01*
X119200Y315943D01*
X118172Y315807D01*
X117215Y315411D01*
X116392Y314780D01*
X115761Y313957D01*
X115364Y312999D01*
X115229Y311972D01*
Y308428D01*
X115364Y307401D01*
X115761Y306443D01*
X116392Y305620D01*
X117215Y304989D01*
X117594Y304832D01*
Y300865D01*
X115546Y298817D01*
X92973D01*
X92647Y299604D01*
X97792Y304750D01*
X98172Y304593D01*
X99200Y304457D01*
X100228Y304593D01*
X101186Y304989D01*
X102008Y305620D01*
X102639Y306443D01*
X103036Y307401D01*
X103171Y308428D01*
Y311972D01*
X103036Y312999D01*
X102639Y313957D01*
X102008Y314780D01*
X101186Y315411D01*
X100228Y315807D01*
X99200Y315943D01*
X98172Y315807D01*
X97215Y315411D01*
X96392Y314780D01*
X95761Y313957D01*
X95364Y312999D01*
X95229Y311972D01*
Y308428D01*
X95364Y307401D01*
X95522Y307021D01*
X90307Y301806D01*
X85888D01*
X85642Y302471D01*
X85635Y302593D01*
X87792Y304750D01*
X88172Y304593D01*
X89200Y304457D01*
X90228Y304593D01*
X91185Y304989D01*
X92008Y305620D01*
X92639Y306443D01*
X93036Y307401D01*
X93171Y308428D01*
Y311972D01*
X93036Y312999D01*
X92639Y313957D01*
X92008Y314780D01*
X91185Y315411D01*
X90228Y315807D01*
X89200Y315943D01*
X88172Y315807D01*
X87214Y315411D01*
X86392Y314780D01*
X85761Y313957D01*
X85364Y312999D01*
X85229Y311972D01*
Y308428D01*
X85364Y307401D01*
X85522Y307021D01*
X83807Y305306D01*
X82759D01*
X82371Y306093D01*
X82639Y306443D01*
X83036Y307401D01*
X83171Y308428D01*
Y311972D01*
X83036Y312999D01*
X82639Y313957D01*
X82008Y314780D01*
X81186Y315411D01*
X80228Y315807D01*
X79200Y315943D01*
X78172Y315807D01*
X77214Y315411D01*
X76392Y314780D01*
X75761Y313957D01*
X75364Y312999D01*
X75229Y311972D01*
Y308428D01*
X75364Y307401D01*
X75761Y306443D01*
X76029Y306093D01*
X75641Y305306D01*
X72759D01*
X72371Y306093D01*
X72639Y306443D01*
X73036Y307401D01*
X73171Y308428D01*
Y311972D01*
X73036Y312999D01*
X72639Y313957D01*
X72008Y314780D01*
X71185Y315411D01*
X70228Y315807D01*
X69200Y315943D01*
X68172Y315807D01*
X67215Y315411D01*
X66392Y314780D01*
X65761Y313957D01*
X65364Y312999D01*
X65229Y311972D01*
Y308428D01*
X65364Y307401D01*
X65761Y306443D01*
X66029Y306093D01*
X65641Y305306D01*
X65200D01*
X65200Y305306D01*
X64586Y305183D01*
X64065Y304835D01*
X64065Y304835D01*
X62898Y303668D01*
X62808D01*
X62085Y303369D01*
X61531Y302815D01*
X61231Y302092D01*
Y301308D01*
X61531Y300585D01*
X62085Y300031D01*
X62446Y299882D01*
Y299029D01*
X62085Y298880D01*
X61531Y298326D01*
X61231Y297603D01*
Y296820D01*
X61531Y296096D01*
X62085Y295543D01*
X62473Y295382D01*
Y294530D01*
X62085Y294369D01*
X61531Y293815D01*
X61231Y293092D01*
Y292308D01*
X61531Y291585D01*
X62085Y291031D01*
X62808Y290732D01*
X63592D01*
X64315Y291031D01*
X65007Y290711D01*
X65277Y290307D01*
X65232Y290197D01*
Y289414D01*
X64693Y288655D01*
X61622D01*
X61559Y288718D01*
X60836Y289018D01*
X60053D01*
X59290Y289554D01*
Y304469D01*
X60228Y304593D01*
X61185Y304989D01*
X62008Y305620D01*
X62639Y306443D01*
X63036Y307401D01*
X63171Y308428D01*
Y311972D01*
X63036Y312999D01*
X62639Y313957D01*
X62008Y314780D01*
X61185Y315411D01*
X60228Y315807D01*
X59200Y315943D01*
X58172Y315807D01*
X57214Y315411D01*
X56392Y314780D01*
X55761Y313957D01*
X55364Y312999D01*
X55229Y311972D01*
Y308428D01*
X55364Y307401D01*
X55761Y306443D01*
X56392Y305620D01*
X56545Y305503D01*
X56480Y305177D01*
Y285152D01*
X55753Y284850D01*
X54224Y286379D01*
X54224Y286379D01*
X50605Y289998D01*
Y297722D01*
X51392Y297879D01*
X51518Y297576D01*
X52076Y297018D01*
X52700Y296759D01*
Y298700D01*
Y300641D01*
X52076Y300382D01*
X51518Y299824D01*
X51392Y299521D01*
X50605Y299678D01*
Y304749D01*
X51186Y304989D01*
X52008Y305620D01*
X52639Y306443D01*
X53036Y307401D01*
X53171Y308428D01*
Y311972D01*
X53036Y312999D01*
X52639Y313957D01*
X52008Y314780D01*
X51186Y315411D01*
X50228Y315807D01*
X49200Y315943D01*
X48172Y315807D01*
X47214Y315411D01*
X46392Y314780D01*
X45761Y313957D01*
X45364Y312999D01*
X45229Y311972D01*
Y308428D01*
X45364Y307401D01*
X45761Y306443D01*
X46392Y305620D01*
X47214Y304989D01*
X47795Y304749D01*
Y291053D01*
X47068Y290752D01*
X32091Y305728D01*
X32639Y306443D01*
X33036Y307401D01*
X33171Y308428D01*
Y311972D01*
X33036Y312999D01*
X32639Y313957D01*
X32008Y314780D01*
X31185Y315411D01*
X30228Y315807D01*
X29200Y315943D01*
X28172Y315807D01*
X27215Y315411D01*
X26392Y314780D01*
X25761Y313957D01*
X25364Y312999D01*
X25229Y311972D01*
Y308428D01*
X25364Y307401D01*
X25761Y306443D01*
X26392Y305620D01*
X27215Y304989D01*
X28172Y304593D01*
X29200Y304457D01*
X29440Y304489D01*
X29607Y304238D01*
X61639Y272207D01*
X62095Y271902D01*
X62632Y271795D01*
X103793D01*
X118892Y256696D01*
X118609Y255865D01*
X118172Y255807D01*
X117215Y255411D01*
X116392Y254780D01*
X115761Y253957D01*
X115364Y252999D01*
X115229Y251972D01*
Y248428D01*
X115364Y247401D01*
X115761Y246443D01*
X116392Y245620D01*
X117215Y244989D01*
X118172Y244593D01*
X119200Y244457D01*
X120228Y244593D01*
X121186Y244989D01*
X122008Y245620D01*
X122518Y246285D01*
X123095Y246241D01*
X123352Y246127D01*
X123374Y246015D01*
X123679Y245560D01*
X127795Y241443D01*
Y230905D01*
X127068Y230603D01*
X112777Y244894D01*
X112525Y245062D01*
X112509Y245079D01*
X112308Y245792D01*
X112303Y246005D01*
X112639Y246443D01*
X113036Y247401D01*
X113171Y248428D01*
Y251972D01*
X113036Y252999D01*
X112639Y253957D01*
X112008Y254780D01*
X111186Y255411D01*
X110228Y255807D01*
X109200Y255943D01*
X108172Y255807D01*
X107214Y255411D01*
X106392Y254780D01*
X105761Y253957D01*
X105364Y252999D01*
X105229Y251972D01*
Y248428D01*
X105364Y247401D01*
X105761Y246443D01*
X106029Y246093D01*
X105641Y245306D01*
X103027D01*
X102639Y246093D01*
X102825Y246336D01*
X103243Y247345D01*
X103385Y248428D01*
Y249700D01*
X99200D01*
X95015D01*
Y248428D01*
X95157Y247345D01*
X95575Y246336D01*
X95761Y246093D01*
X95373Y245306D01*
X92759D01*
X92371Y246093D01*
X92639Y246443D01*
X93036Y247401D01*
X93171Y248428D01*
Y251972D01*
X93036Y252999D01*
X92639Y253957D01*
X92008Y254780D01*
X91185Y255411D01*
X90228Y255807D01*
X89200Y255943D01*
X88172Y255807D01*
X87214Y255411D01*
X86392Y254780D01*
X85761Y253957D01*
X85364Y252999D01*
X85229Y251972D01*
Y248428D01*
X85364Y247401D01*
X85761Y246443D01*
X86029Y246093D01*
X85641Y245306D01*
X82759D01*
X82371Y246093D01*
X82639Y246443D01*
X83036Y247401D01*
X83171Y248428D01*
Y251972D01*
X83036Y252999D01*
X82639Y253957D01*
X82008Y254780D01*
X81186Y255411D01*
X80228Y255807D01*
X79200Y255943D01*
X78172Y255807D01*
X77214Y255411D01*
X76392Y254780D01*
X75761Y253957D01*
X75364Y252999D01*
X75229Y251972D01*
Y248428D01*
X75364Y247401D01*
X75761Y246443D01*
X76029Y246093D01*
X75641Y245306D01*
X74309D01*
X72795Y246820D01*
X73036Y247401D01*
X73171Y248428D01*
Y251972D01*
X73036Y252999D01*
X72639Y253957D01*
X72008Y254780D01*
X71185Y255411D01*
X70228Y255807D01*
X69200Y255943D01*
X68172Y255807D01*
X67215Y255411D01*
X66392Y254780D01*
X65761Y253957D01*
X65364Y252999D01*
X65229Y251972D01*
Y248428D01*
X65364Y247401D01*
X65761Y246443D01*
X66392Y245620D01*
X67215Y244989D01*
X68172Y244593D01*
X69200Y244457D01*
X70228Y244593D01*
X70808Y244833D01*
X71577Y244065D01*
X71275Y243337D01*
X66278D01*
X62795Y246820D01*
X63036Y247401D01*
X63171Y248428D01*
Y251972D01*
X63036Y252999D01*
X62639Y253957D01*
X62008Y254780D01*
X61185Y255411D01*
X60228Y255807D01*
X59200Y255943D01*
X58172Y255807D01*
X57214Y255411D01*
X56392Y254780D01*
X55761Y253957D01*
X55364Y252999D01*
X55229Y251972D01*
Y248428D01*
X55364Y247401D01*
X55761Y246443D01*
X56392Y245620D01*
X57214Y244989D01*
X58172Y244593D01*
X59200Y244457D01*
X60228Y244593D01*
X60808Y244833D01*
X63545Y242096D01*
X63244Y241369D01*
X58246D01*
X52795Y246820D01*
X53036Y247401D01*
X53171Y248428D01*
Y251972D01*
X53036Y252999D01*
X52639Y253957D01*
X52008Y254780D01*
X51186Y255411D01*
X50228Y255807D01*
X49200Y255943D01*
X48172Y255807D01*
X47214Y255411D01*
X46392Y254780D01*
X45761Y253957D01*
X45364Y252999D01*
X45229Y251972D01*
Y248428D01*
X45364Y247401D01*
X45761Y246443D01*
X46392Y245620D01*
X47214Y244989D01*
X48172Y244593D01*
X49200Y244457D01*
X50228Y244593D01*
X50808Y244833D01*
X55514Y240128D01*
X55212Y239400D01*
X50215D01*
X42795Y246820D01*
X43036Y247401D01*
X43171Y248428D01*
Y251972D01*
X43036Y252999D01*
X42639Y253957D01*
X42008Y254780D01*
X41186Y255411D01*
X40228Y255807D01*
X39200Y255943D01*
X38172Y255807D01*
X37214Y255411D01*
X36392Y254780D01*
X35761Y253957D01*
X35364Y252999D01*
X35229Y251972D01*
Y248428D01*
X35364Y247401D01*
X35761Y246443D01*
X36392Y245620D01*
X37214Y244989D01*
X38172Y244593D01*
X39200Y244457D01*
X40228Y244593D01*
X40808Y244833D01*
X47482Y238159D01*
X47181Y237432D01*
X42184D01*
X32795Y246820D01*
X33036Y247401D01*
X33171Y248428D01*
Y251972D01*
X33036Y252999D01*
X32639Y253957D01*
X32008Y254780D01*
X31185Y255411D01*
X30228Y255807D01*
X29200Y255943D01*
X28172Y255807D01*
X27215Y255411D01*
X26392Y254780D01*
X25761Y253957D01*
X25364Y252999D01*
X25229Y251972D01*
Y248428D01*
X25364Y247401D01*
X25761Y246443D01*
X26392Y245620D01*
X27215Y244989D01*
X28172Y244593D01*
X29200Y244457D01*
X30228Y244593D01*
X30808Y244833D01*
X39809Y235832D01*
X39508Y235105D01*
X34510D01*
X22795Y246820D01*
X23036Y247401D01*
X23171Y248428D01*
Y251972D01*
X23036Y252999D01*
X22639Y253957D01*
X22008Y254780D01*
X21185Y255411D01*
X20228Y255807D01*
X19200Y255943D01*
X18172Y255807D01*
X17214Y255411D01*
X16392Y254780D01*
X15761Y253957D01*
X15364Y252999D01*
X15229Y251972D01*
Y248428D01*
X15364Y247401D01*
X15761Y246443D01*
X16392Y245620D01*
X17214Y244989D01*
X18172Y244593D01*
X19200Y244457D01*
X20228Y244593D01*
X20808Y244833D01*
X32662Y232979D01*
X32696Y232123D01*
X32631Y231963D01*
X32392Y231780D01*
X31761Y230957D01*
X31364Y229999D01*
X31229Y228972D01*
Y225428D01*
X31364Y224401D01*
X31761Y223443D01*
X32392Y222620D01*
X33215Y221989D01*
X34172Y221593D01*
X35200Y221457D01*
X36228Y221593D01*
X37185Y221989D01*
X38008Y222620D01*
X38639Y223443D01*
X39036Y224401D01*
X39171Y225428D01*
Y228972D01*
X39036Y229999D01*
X38639Y230957D01*
X38217Y231508D01*
X38570Y232295D01*
X41830D01*
X42183Y231508D01*
X41761Y230957D01*
X41364Y229999D01*
X41229Y228972D01*
Y225428D01*
X41364Y224401D01*
X41761Y223443D01*
X42392Y222620D01*
X43214Y221989D01*
X44172Y221593D01*
X45200Y221457D01*
X46228Y221593D01*
X47186Y221989D01*
X48008Y222620D01*
X48639Y223443D01*
X49036Y224401D01*
X49171Y225428D01*
Y228972D01*
X49036Y229999D01*
X48639Y230957D01*
X48217Y231508D01*
X48570Y232295D01*
X51830D01*
X52184Y231508D01*
X51761Y230957D01*
X51364Y229999D01*
X51229Y228972D01*
Y225428D01*
X51364Y224401D01*
X51761Y223443D01*
X52392Y222620D01*
X53215Y221989D01*
X54172Y221593D01*
X55200Y221457D01*
X56228Y221593D01*
X57186Y221989D01*
X58008Y222620D01*
X58639Y223443D01*
X59036Y224401D01*
X59171Y225428D01*
Y228972D01*
X59036Y229999D01*
X58639Y230957D01*
X58217Y231508D01*
X58570Y232295D01*
X61830D01*
X62183Y231508D01*
X61761Y230957D01*
X61364Y229999D01*
X61229Y228972D01*
Y225428D01*
X61364Y224401D01*
X61761Y223443D01*
X62392Y222620D01*
X63214Y221989D01*
X64172Y221593D01*
X65200Y221457D01*
X66228Y221593D01*
X67185Y221989D01*
X68008Y222620D01*
X68639Y223443D01*
X69036Y224401D01*
X69171Y225428D01*
Y228972D01*
X69036Y229999D01*
X68639Y230957D01*
X68217Y231508D01*
X68570Y232295D01*
X71830D01*
X72184Y231508D01*
X71761Y230957D01*
X71364Y229999D01*
X71229Y228972D01*
Y225428D01*
X71364Y224401D01*
X71761Y223443D01*
X72392Y222620D01*
X73215Y221989D01*
X74172Y221593D01*
X75200Y221457D01*
X76228Y221593D01*
X77185Y221989D01*
X78008Y222620D01*
X78639Y223443D01*
X79036Y224401D01*
X79171Y225428D01*
Y228972D01*
X79036Y229999D01*
X78639Y230957D01*
X78216Y231508D01*
X78570Y232295D01*
X81830D01*
X82183Y231508D01*
X81761Y230957D01*
X81364Y229999D01*
X81229Y228972D01*
Y225428D01*
X81364Y224401D01*
X81761Y223443D01*
X82392Y222620D01*
X83214Y221989D01*
X84172Y221593D01*
X85200Y221457D01*
X86228Y221593D01*
X87186Y221989D01*
X88008Y222620D01*
X88639Y223443D01*
X89036Y224401D01*
X89171Y225428D01*
Y228972D01*
X89036Y229999D01*
X88639Y230957D01*
X88217Y231508D01*
X88570Y232295D01*
X91830D01*
X92184Y231508D01*
X91761Y230957D01*
X91364Y229999D01*
X91229Y228972D01*
Y225428D01*
X91364Y224401D01*
X91761Y223443D01*
X92392Y222620D01*
X93214Y221989D01*
X94172Y221593D01*
X95200Y221457D01*
X96228Y221593D01*
X97185Y221989D01*
X98008Y222620D01*
X98639Y223443D01*
X99036Y224401D01*
X99171Y225428D01*
Y228972D01*
X99036Y229999D01*
X98639Y230957D01*
X98192Y231540D01*
X98501Y232295D01*
X98532Y232327D01*
X99857D01*
X101263Y230922D01*
Y221491D01*
X106484D01*
X106785Y220764D01*
X106215Y220193D01*
X105910Y219738D01*
X105803Y219200D01*
Y219071D01*
X105863Y218768D01*
X105791Y218592D01*
Y217808D01*
X106090Y217085D01*
X106644Y216531D01*
X107368Y216231D01*
X108151D01*
X108874Y216531D01*
X109334Y216991D01*
X109794Y216531D01*
X110517Y216231D01*
X111300D01*
X112024Y216531D01*
X112577Y217085D01*
X112877Y217808D01*
Y218592D01*
X112591Y219282D01*
X112693Y219511D01*
X112990Y220016D01*
X113140Y220031D01*
X113864Y219731D01*
X114647D01*
X115370Y220031D01*
X115924Y220585D01*
X116224Y221308D01*
Y222092D01*
X115924Y222815D01*
X115660Y223079D01*
Y233732D01*
X115559Y234241D01*
X115596Y234298D01*
X116208Y234705D01*
X123795Y227118D01*
Y210481D01*
X123068Y210262D01*
X123008Y210261D01*
X122248Y211020D01*
X121302Y211567D01*
X120246Y211850D01*
X120200D01*
Y207700D01*
X119700D01*
D01*
X120200D01*
Y203550D01*
X120246D01*
X121302Y203833D01*
X122248Y204380D01*
X123021Y205152D01*
X123274Y205591D01*
X124200Y205621D01*
X124206Y205611D01*
X140540Y189278D01*
X140996Y188973D01*
X141476Y188878D01*
X156231Y174122D01*
Y173749D01*
X156531Y173025D01*
X157085Y172472D01*
X157808Y172172D01*
X158592D01*
X159315Y172472D01*
X159436Y172592D01*
X160012Y172921D01*
X160464Y172592D01*
X160644Y172412D01*
X161368Y172113D01*
X162151D01*
X162875Y172412D01*
X163337Y172874D01*
X163472Y172847D01*
X164026Y172294D01*
X164749Y171994D01*
X165533D01*
X166256Y172294D01*
X166810Y172847D01*
X167109Y173571D01*
Y174354D01*
X167048Y174502D01*
X167716Y174948D01*
X168708Y173956D01*
Y173583D01*
X169007Y172860D01*
X169561Y172306D01*
X170284Y172006D01*
X171068D01*
X171791Y172306D01*
X172182Y172697D01*
X172708Y172172D01*
X173431Y171872D01*
X174214D01*
X174938Y172172D01*
X175492Y172725D01*
X175791Y173449D01*
Y174232D01*
X175492Y174956D01*
X174938Y175509D01*
X174436Y175717D01*
X174229Y176028D01*
X150971Y199285D01*
Y206154D01*
X151759Y206542D01*
X151913Y206424D01*
X152775Y206067D01*
X153700Y205945D01*
X154625Y206067D01*
X155096Y206262D01*
X164918Y196441D01*
Y187786D01*
X165024Y187248D01*
X165329Y186792D01*
X176474Y175647D01*
X176930Y175343D01*
X177467Y175236D01*
X180130D01*
X180668Y175343D01*
X181123Y175647D01*
X182823Y177347D01*
X183128Y177803D01*
X183235Y178340D01*
Y179177D01*
X183774Y179716D01*
X184147D01*
X184870Y180015D01*
X185717Y179749D01*
X185761Y179659D01*
X185666Y179004D01*
X171281Y164619D01*
X170846Y163968D01*
X170693Y163200D01*
Y156259D01*
X170731Y156065D01*
Y155868D01*
X170807Y155685D01*
X170846Y155491D01*
X170956Y155327D01*
X171031Y155144D01*
X171171Y155004D01*
X171281Y154840D01*
X171445Y154730D01*
X171585Y154590D01*
X171768Y154515D01*
X171932Y154405D01*
X172126Y154366D01*
X172308Y154291D01*
X172506D01*
X172700Y154252D01*
X172894Y154291D01*
X173092D01*
X173274Y154366D01*
X173468Y154405D01*
X173632Y154515D01*
X173815Y154590D01*
X173955Y154730D01*
X174119Y154840D01*
X174229Y155004D01*
X174369Y155144D01*
X174444Y155327D01*
X174554Y155491D01*
X174593Y155685D01*
X174669Y155868D01*
Y156065D01*
X174707Y156259D01*
Y162369D01*
X180604Y168266D01*
X181531Y168085D01*
X181795Y167821D01*
Y157677D01*
X181008Y157351D01*
X180936Y157423D01*
X180200Y157728D01*
Y155574D01*
Y153420D01*
X180936Y153725D01*
X181008Y153797D01*
X181795Y153471D01*
Y134034D01*
X181033Y133497D01*
X180249D01*
X179526Y133198D01*
X178972Y132644D01*
X178773Y132639D01*
X178132Y132674D01*
X177626Y133180D01*
X176903Y133479D01*
X176119D01*
X175396Y133180D01*
X174842Y132626D01*
X174542Y131903D01*
Y131529D01*
X173679Y130666D01*
X173374Y130210D01*
X173268Y129673D01*
Y108349D01*
X172480Y107846D01*
X172131Y107991D01*
X171269D01*
X170829Y107809D01*
X170671Y107899D01*
X170306Y108648D01*
X170606Y109371D01*
Y110154D01*
X170306Y110878D01*
X169752Y111432D01*
X169029Y111732D01*
X168245D01*
X167522Y111432D01*
X166968Y110878D01*
X166668Y110154D01*
Y109821D01*
X165919Y109279D01*
X165682Y109378D01*
X164899D01*
X164576Y109244D01*
X164490Y109302D01*
X164190Y110025D01*
X163636Y110579D01*
X163220Y110751D01*
X163020Y111198D01*
X162951Y111516D01*
X162959Y111647D01*
X163179Y111976D01*
X163270Y112432D01*
X163776Y112938D01*
X164076Y113661D01*
Y114444D01*
X163776Y115168D01*
X163223Y115722D01*
X162905Y115854D01*
X162519Y116621D01*
X162525Y116798D01*
X162605Y117200D01*
Y123977D01*
X162498Y124515D01*
X162194Y124971D01*
X162168Y124996D01*
Y126926D01*
X162347Y127105D01*
X162652Y127560D01*
X162759Y128098D01*
Y130132D01*
X163022Y130396D01*
X163322Y131120D01*
Y131903D01*
X163022Y132626D01*
X162469Y133180D01*
X161745Y133479D01*
X161642D01*
X161074Y133861D01*
X156507D01*
X155935Y133507D01*
X155844D01*
X155120Y133207D01*
X155077Y133164D01*
X154562Y132658D01*
X154048Y133164D01*
X154004Y133207D01*
X153280Y133507D01*
X152497D01*
X151774Y133207D01*
X151495Y132928D01*
X150707Y133254D01*
Y138200D01*
X150669Y138394D01*
Y138592D01*
X150593Y138774D01*
X150554Y138968D01*
X150444Y139132D01*
X150369Y139315D01*
X150229Y139455D01*
X150119Y139619D01*
X149955Y139729D01*
X149815Y139869D01*
X149632Y139945D01*
X149468Y140054D01*
X149274Y140093D01*
X149092Y140168D01*
X148894D01*
X148700Y140207D01*
X148506Y140168D01*
X148308D01*
X148126Y140093D01*
X147932Y140054D01*
X147768Y139945D01*
X147585Y139869D01*
X147445Y139729D01*
X147281Y139619D01*
X147171Y139455D01*
X147031Y139315D01*
X146956Y139132D01*
X146846Y138968D01*
X146807Y138774D01*
X146731Y138592D01*
Y138394D01*
X146693Y138200D01*
Y133031D01*
X137369Y123707D01*
X125200D01*
X124432Y123554D01*
X123781Y123119D01*
X86176Y85514D01*
X85718Y85637D01*
X84682D01*
X83680Y85369D01*
X82783Y84850D01*
X82050Y84117D01*
X81531Y83220D01*
X81263Y82218D01*
Y81182D01*
X81531Y80180D01*
X82050Y79283D01*
X82783Y78550D01*
X83680Y78031D01*
X84682Y77763D01*
X85718D01*
X86720Y78031D01*
X87617Y78550D01*
X88350Y79283D01*
X88869Y80180D01*
X89137Y81182D01*
Y82218D01*
X89014Y82676D01*
X97823Y91484D01*
X98194Y91331D01*
X98562Y91110D01*
X98833Y90098D01*
X99379Y89152D01*
X100152Y88380D01*
X101098Y87833D01*
X102154Y87550D01*
X102200D01*
Y91700D01*
X102700D01*
Y92200D01*
X106850D01*
Y92246D01*
X106567Y93302D01*
X106020Y94248D01*
X105248Y95021D01*
X104302Y95567D01*
X103290Y95838D01*
X103069Y96206D01*
X102916Y96577D01*
X126031Y119693D01*
X136826D01*
X137127Y118965D01*
X103676Y85514D01*
X103218Y85637D01*
X102182D01*
X101180Y85369D01*
X100283Y84850D01*
X99550Y84117D01*
X99031Y83220D01*
X98763Y82218D01*
Y81182D01*
X99031Y80180D01*
X99550Y79283D01*
X100283Y78550D01*
X101180Y78031D01*
X102182Y77763D01*
X103218D01*
X104220Y78031D01*
X105117Y78550D01*
X105850Y79283D01*
X106369Y80180D01*
X106637Y81182D01*
Y82218D01*
X106514Y82676D01*
X115323Y91484D01*
X115694Y91331D01*
X116062Y91110D01*
X116333Y90098D01*
X116879Y89152D01*
X117652Y88380D01*
X118598Y87833D01*
X119654Y87550D01*
X119700D01*
Y91700D01*
X120700D01*
Y87550D01*
X120746D01*
X121802Y87833D01*
X122748Y88380D01*
X123521Y89152D01*
X123696Y89456D01*
X124484Y89245D01*
Y88808D01*
X124783Y88085D01*
X125337Y87531D01*
X126060Y87231D01*
X126844D01*
X127567Y87531D01*
X128027Y87991D01*
X128487Y87531D01*
X129210Y87231D01*
X129993D01*
X130717Y87531D01*
X131176Y87991D01*
X131636Y87531D01*
X132360Y87231D01*
X133143D01*
X133866Y87531D01*
X134326Y87991D01*
X134786Y87531D01*
X135509Y87231D01*
X136292D01*
X137016Y87531D01*
X137476Y87991D01*
X137935Y87531D01*
X138659Y87231D01*
X139442D01*
X140165Y87531D01*
X140625Y87991D01*
X141085Y87531D01*
X141808Y87231D01*
X142592D01*
X143315Y87531D01*
X143868Y88084D01*
X144420Y87531D01*
X145144Y87231D01*
X145927D01*
X146650Y87531D01*
X147118Y87998D01*
X147585Y87531D01*
X148308Y87231D01*
X149092D01*
X149815Y87531D01*
X150079Y87795D01*
X152258D01*
X152559Y87068D01*
X149198Y83707D01*
X123587D01*
X123350Y84117D01*
X122617Y84850D01*
X121720Y85369D01*
X120718Y85637D01*
X119682D01*
X118680Y85369D01*
X117783Y84850D01*
X117050Y84117D01*
X116531Y83220D01*
X116263Y82218D01*
Y81182D01*
X116531Y80180D01*
X117050Y79283D01*
X117783Y78550D01*
X118680Y78031D01*
X119682Y77763D01*
X120718D01*
X121720Y78031D01*
X122617Y78550D01*
X123350Y79283D01*
X123587Y79693D01*
X149438D01*
X149764Y78905D01*
X137940Y67081D01*
X131176D01*
X130639Y66974D01*
X130183Y66670D01*
X129378Y65865D01*
X128769D01*
X127973Y65536D01*
X127364Y64927D01*
X127035Y64131D01*
Y63269D01*
X127364Y62473D01*
X127973Y61864D01*
X128769Y61535D01*
X129631D01*
X130427Y61864D01*
X131036Y62473D01*
X131365Y63269D01*
Y63878D01*
X131758Y64271D01*
X136885D01*
X137186Y63544D01*
X124716Y51073D01*
X72668D01*
X72131Y50967D01*
X71675Y50662D01*
X58207Y37194D01*
X57902Y36738D01*
X57795Y36200D01*
Y34291D01*
X57231D01*
X56512Y34196D01*
X55842Y33918D01*
X55266Y33477D01*
X54824Y32901D01*
X54608Y32379D01*
X54276Y32313D01*
X54124D01*
X53792Y32379D01*
X53576Y32901D01*
X53134Y33477D01*
X52558Y33918D01*
X51888Y34196D01*
X51707Y34220D01*
Y58028D01*
X51720Y58031D01*
X52617Y58550D01*
X53350Y59283D01*
X53869Y60180D01*
X54137Y61182D01*
Y62218D01*
X53869Y63220D01*
X53350Y64117D01*
X52617Y64850D01*
X51720Y65369D01*
X50718Y65637D01*
X49682D01*
X48680Y65369D01*
X47783Y64850D01*
X47050Y64117D01*
X46531Y63220D01*
X46263Y62218D01*
Y61182D01*
X46531Y60180D01*
X47050Y59283D01*
X47693Y58639D01*
Y34291D01*
X47232D01*
X46512Y34196D01*
X45842Y33918D01*
X45266Y33477D01*
X44824Y32901D01*
X44608Y32379D01*
X44276Y32313D01*
X44124D01*
X43792Y32379D01*
X43576Y32901D01*
X43134Y33477D01*
X42558Y33918D01*
X41888Y34196D01*
X41168Y34291D01*
X37231D01*
X36512Y34196D01*
X35842Y33918D01*
X35266Y33477D01*
X34824Y32901D01*
X34608Y32379D01*
X34276Y32313D01*
X34124D01*
X33792Y32379D01*
X33576Y32901D01*
X33134Y33477D01*
X32558Y33918D01*
X31888Y34196D01*
X31207Y34286D01*
Y43855D01*
X34119Y46767D01*
X34554Y47418D01*
X34707Y48187D01*
Y58313D01*
X35117Y58550D01*
X35850Y59283D01*
X36369Y60180D01*
X36637Y61182D01*
Y62218D01*
X36369Y63220D01*
X35850Y64117D01*
X35117Y64850D01*
X34220Y65369D01*
X33218Y65637D01*
X32182D01*
X31180Y65369D01*
X30283Y64850D01*
X29550Y64117D01*
X29031Y63220D01*
X28763Y62218D01*
Y61182D01*
X29031Y60180D01*
X29550Y59283D01*
X30283Y58550D01*
X30693Y58313D01*
Y49018D01*
X27781Y46106D01*
X27346Y45455D01*
X27193Y44687D01*
Y34286D01*
X26512Y34196D01*
X25842Y33918D01*
X25266Y33477D01*
X24824Y32901D01*
X24608Y32379D01*
X24276Y32313D01*
X24124D01*
X23792Y32379D01*
X23576Y32901D01*
X23134Y33477D01*
X22558Y33918D01*
X21888Y34196D01*
X21169Y34291D01*
X17232D01*
X16512Y34196D01*
X15842Y33918D01*
X15266Y33477D01*
X14824Y32901D01*
X14741Y32700D01*
X13889D01*
X13761Y33008D01*
X13286Y33628D01*
X12666Y34104D01*
X11943Y34403D01*
X11169Y34505D01*
X9700D01*
Y19700D01*
X9200D01*
Y19200D01*
X4237D01*
Y19003D01*
X1020D01*
Y312500D01*
X1020Y313462D01*
X1271Y315370D01*
X1769Y317229D01*
X2505Y319007D01*
X3467Y320673D01*
X4639Y322200D01*
X6000Y323561D01*
X7526Y324733D01*
X9193Y325695D01*
X10971Y326431D01*
X12830Y326929D01*
X14738Y327181D01*
X15700Y327180D01*
D02*
G37*
G36*
X152795Y245353D02*
Y223867D01*
X152008Y223710D01*
X151981Y223775D01*
X151379Y224560D01*
X150594Y225162D01*
X149680Y225540D01*
X149200Y225604D01*
Y220700D01*
X148200D01*
Y225604D01*
X147720Y225540D01*
X146806Y225162D01*
X146758Y225126D01*
X145971Y225514D01*
Y235036D01*
X146077Y235570D01*
Y244869D01*
X146865Y245258D01*
X147214Y244989D01*
X148172Y244593D01*
X149200Y244457D01*
X150228Y244593D01*
X151186Y244989D01*
X152008Y245620D01*
X152795Y245353D01*
D02*
G37*
G36*
X143268Y245978D02*
Y235998D01*
X143161Y235464D01*
Y222803D01*
X142374Y222751D01*
X142359Y222862D01*
X141981Y223775D01*
X141379Y224560D01*
X140594Y225162D01*
X139681Y225540D01*
X139200Y225604D01*
Y220700D01*
X138200D01*
Y225604D01*
X137720Y225540D01*
X136806Y225162D01*
X136392Y224845D01*
X135605Y225233D01*
Y245353D01*
X136392Y245620D01*
X137215Y244989D01*
X138172Y244593D01*
X139200Y244457D01*
X140228Y244593D01*
X141185Y244989D01*
X142008Y245620D01*
X142480Y246236D01*
X143268Y245978D01*
D02*
G37*
G36*
X222693Y198369D02*
Y169574D01*
X221966Y169273D01*
X211953Y179286D01*
X211302Y179721D01*
X210534Y179873D01*
X192464D01*
X192069Y180661D01*
X192259Y181121D01*
Y181904D01*
X191959Y182627D01*
X191695Y182891D01*
Y205662D01*
X192483Y206188D01*
X192775Y206067D01*
X193700Y205945D01*
X194625Y206067D01*
X195487Y206424D01*
X196227Y206992D01*
X196795Y207732D01*
X197152Y208594D01*
X197165Y208693D01*
X212369D01*
X222693Y198369D01*
D02*
G37*
G36*
Y162869D02*
Y154703D01*
X221905Y154546D01*
X221869Y154635D01*
X221315Y155188D01*
X220592Y155488D01*
X219808D01*
X219085Y155188D01*
X218531Y154635D01*
X218232Y153911D01*
X217700Y153605D01*
X197579D01*
X197541Y153643D01*
X196818Y153943D01*
X196034D01*
X195311Y153643D01*
X194757Y153089D01*
X194457Y152366D01*
Y151582D01*
X194757Y150859D01*
X195311Y150305D01*
X196034Y150005D01*
X196818D01*
X197541Y150305D01*
X198031Y150795D01*
X208360D01*
X208853Y150008D01*
X208732Y149714D01*
Y148931D01*
X208598Y148732D01*
X208308D01*
X207585Y148432D01*
X207031Y147878D01*
X206732Y147154D01*
Y146371D01*
X206827Y146140D01*
X206301Y145353D01*
X199034D01*
X198346Y146040D01*
Y146414D01*
X198047Y147137D01*
X197493Y147691D01*
X196770Y147991D01*
X195986D01*
X195263Y147691D01*
X194709Y147137D01*
X194410Y146414D01*
Y145631D01*
X194709Y144907D01*
X195263Y144353D01*
X195986Y144053D01*
X196360D01*
X197459Y142954D01*
X197915Y142650D01*
X198452Y142543D01*
X210773D01*
X211299Y141755D01*
X211231Y141592D01*
Y141095D01*
X211180Y140775D01*
X210562Y140367D01*
X210332D01*
X209608Y140067D01*
X209054Y139514D01*
X208927Y139207D01*
X208815Y139184D01*
X208092Y139484D01*
X207308D01*
X206585Y139184D01*
X206031Y138630D01*
X205909Y138335D01*
X205098Y137956D01*
X204969Y137966D01*
X204537Y138052D01*
X197585D01*
X197321Y138316D01*
X196597Y138616D01*
X195814D01*
X195091Y138316D01*
X194537Y137762D01*
X194237Y137039D01*
Y136256D01*
X194537Y135532D01*
X195091Y134978D01*
X195814Y134679D01*
X195882D01*
X196034Y134451D01*
Y133668D01*
X196333Y132945D01*
X196887Y132391D01*
X197610Y132091D01*
X198303D01*
X198887Y131507D01*
X199343Y131203D01*
X199881Y131096D01*
X200872D01*
X205333Y126635D01*
X205037Y126129D01*
Y123965D01*
Y122024D01*
X205661Y122283D01*
X206219Y122841D01*
X206505Y123531D01*
X206532Y123576D01*
X207309Y123958D01*
X207350Y123932D01*
Y122634D01*
X200795Y116078D01*
X199929Y116326D01*
X199869Y116585D01*
X200168Y117308D01*
Y118092D01*
X199869Y118815D01*
X199315Y119369D01*
X198592Y119668D01*
X197808D01*
X197085Y119369D01*
X196531Y118815D01*
X196231Y118092D01*
Y117756D01*
X195615Y117190D01*
X195504Y117168D01*
X194808D01*
X194085Y116869D01*
X193531Y116315D01*
X193262Y115665D01*
X193187Y115565D01*
X192956Y115427D01*
X192741Y115472D01*
X192074Y115819D01*
X191869Y116315D01*
X191315Y116869D01*
X190592Y117168D01*
X189808D01*
X189085Y116869D01*
X188856Y116640D01*
X188602Y116523D01*
X187888Y116930D01*
Y123427D01*
X187782Y123965D01*
X187477Y124421D01*
X184605Y127293D01*
Y130135D01*
X185392Y130462D01*
X185690Y130164D01*
X186414Y129864D01*
X187197D01*
X187920Y130164D01*
X188474Y130718D01*
X189369Y130822D01*
X189899Y130603D01*
X190682D01*
X191406Y130902D01*
X191959Y131456D01*
X192259Y132179D01*
Y132963D01*
X191959Y133686D01*
X191650Y133995D01*
Y171366D01*
X191869Y171585D01*
X192168Y172308D01*
Y173092D01*
X191869Y173815D01*
X191315Y174369D01*
X190592Y174669D01*
X189808D01*
X189085Y174369D01*
X188531Y173815D01*
X188356Y173393D01*
X187573Y173153D01*
X187474Y173163D01*
X187469Y173168D01*
X186868Y173416D01*
X186663Y173894D01*
X186593Y174255D01*
X188198Y175859D01*
X209702D01*
X222693Y162869D01*
D02*
G37*
G36*
X203700Y82656D02*
X204008Y82783D01*
X204795Y82357D01*
Y48103D01*
X204200Y47705D01*
Y45700D01*
Y43695D01*
X204795Y43297D01*
Y33288D01*
X204838Y33075D01*
X204520Y32542D01*
X203700Y32600D01*
X203576Y32901D01*
X203134Y33477D01*
X202558Y33918D01*
X201888Y34196D01*
X201168Y34291D01*
X200605D01*
Y83410D01*
X200690Y83448D01*
X201518Y83472D01*
X202076Y82914D01*
X202700Y82656D01*
Y84596D01*
X203700D01*
Y82656D01*
D02*
G37*
G36*
X187795Y75744D02*
Y68178D01*
X187008Y68021D01*
X186882Y68324D01*
X186324Y68882D01*
X185700Y69141D01*
Y67200D01*
Y65259D01*
X186324Y65518D01*
X186882Y66076D01*
X187008Y66379D01*
X187795Y66222D01*
Y34291D01*
X187232D01*
X186512Y34196D01*
X185842Y33918D01*
X185266Y33477D01*
X184824Y32901D01*
X184608Y32379D01*
X184276Y32313D01*
X184124D01*
X183792Y32379D01*
X183576Y32901D01*
X183134Y33477D01*
X182558Y33918D01*
X181888Y34196D01*
X181168Y34291D01*
X180605D01*
Y69582D01*
X187068Y76045D01*
X187795Y75744D01*
D02*
G37*
G36*
X197795Y82960D02*
Y34291D01*
X197231D01*
X196512Y34196D01*
X195842Y33918D01*
X195266Y33477D01*
X194824Y32901D01*
X194608Y32379D01*
X194276Y32313D01*
X194124D01*
X193792Y32379D01*
X193576Y32901D01*
X193134Y33477D01*
X192558Y33918D01*
X191888Y34196D01*
X191168Y34291D01*
X190605D01*
Y63982D01*
X191392Y64409D01*
X191700Y64282D01*
Y66222D01*
Y68163D01*
X191392Y68036D01*
X190605Y68462D01*
Y76798D01*
X197068Y83261D01*
X197795Y82960D01*
D02*
G37*
G36*
X227380Y112594D02*
X227380Y19003D01*
X224163D01*
Y19200D01*
X219200D01*
Y19700D01*
X218700D01*
Y34505D01*
X217231D01*
X216457Y34403D01*
X215734Y34104D01*
X215114Y33628D01*
X214638Y33008D01*
X214511Y32700D01*
X213659D01*
X213576Y32901D01*
X213134Y33477D01*
X212558Y33918D01*
X211888Y34196D01*
X211169Y34291D01*
X207605D01*
Y93847D01*
X226653Y112895D01*
X227380Y112594D01*
D02*
G37*
%LPC*%
G36*
X119746Y325850D02*
X119700D01*
Y322200D01*
X123350D01*
Y322246D01*
X123067Y323302D01*
X122520Y324248D01*
X121748Y325021D01*
X120802Y325567D01*
X119746Y325850D01*
D02*
G37*
G36*
X118700D02*
X118654D01*
X117598Y325567D01*
X116652Y325021D01*
X115879Y324248D01*
X115333Y323302D01*
X115050Y322246D01*
Y322200D01*
X118700D01*
Y325850D01*
D02*
G37*
G36*
X109718Y325637D02*
X108682D01*
X107680Y325369D01*
X106783Y324850D01*
X106050Y324117D01*
X105531Y323220D01*
X105263Y322218D01*
Y321182D01*
X105531Y320180D01*
X106050Y319283D01*
X106783Y318550D01*
X107680Y318031D01*
X108682Y317763D01*
X109718D01*
X110720Y318031D01*
X111617Y318550D01*
X112350Y319283D01*
X112869Y320180D01*
X113137Y321182D01*
Y322218D01*
X112869Y323220D01*
X112350Y324117D01*
X111617Y324850D01*
X110720Y325369D01*
X109718Y325637D01*
D02*
G37*
G36*
X123350Y321200D02*
X119700D01*
Y317550D01*
X119746D01*
X120802Y317833D01*
X121748Y318379D01*
X122520Y319152D01*
X123067Y320098D01*
X123350Y321154D01*
Y321200D01*
D02*
G37*
G36*
X118700D02*
X115050D01*
Y321154D01*
X115333Y320098D01*
X115879Y319152D01*
X116652Y318379D01*
X117598Y317833D01*
X118654Y317550D01*
X118700D01*
Y321200D01*
D02*
G37*
G36*
X213137Y315909D02*
X205263D01*
Y304491D01*
X213137D01*
Y315909D01*
D02*
G37*
G36*
X199200Y315943D02*
X198172Y315807D01*
X197214Y315411D01*
X196392Y314780D01*
X195761Y313957D01*
X195364Y312999D01*
X195229Y311972D01*
Y308428D01*
X195364Y307401D01*
X195761Y306443D01*
X196392Y305620D01*
X197214Y304989D01*
X198172Y304593D01*
X199200Y304457D01*
X200228Y304593D01*
X201185Y304989D01*
X202008Y305620D01*
X202639Y306443D01*
X203036Y307401D01*
X203171Y308428D01*
Y311972D01*
X203036Y312999D01*
X202639Y313957D01*
X202008Y314780D01*
X201185Y315411D01*
X200228Y315807D01*
X199200Y315943D01*
D02*
G37*
G36*
X189200D02*
X188172Y315807D01*
X187215Y315411D01*
X186392Y314780D01*
X185761Y313957D01*
X185364Y312999D01*
X185229Y311972D01*
Y308428D01*
X185364Y307401D01*
X185761Y306443D01*
X186392Y305620D01*
X187215Y304989D01*
X188172Y304593D01*
X189200Y304457D01*
X190228Y304593D01*
X191185Y304989D01*
X192008Y305620D01*
X192639Y306443D01*
X193036Y307401D01*
X193171Y308428D01*
Y311972D01*
X193036Y312999D01*
X192639Y313957D01*
X192008Y314780D01*
X191185Y315411D01*
X190228Y315807D01*
X189200Y315943D01*
D02*
G37*
G36*
X179200D02*
X178172Y315807D01*
X177215Y315411D01*
X176392Y314780D01*
X175761Y313957D01*
X175364Y312999D01*
X175229Y311972D01*
Y308428D01*
X175364Y307401D01*
X175761Y306443D01*
X176392Y305620D01*
X177215Y304989D01*
X178172Y304593D01*
X179200Y304457D01*
X180228Y304593D01*
X181185Y304989D01*
X182008Y305620D01*
X182639Y306443D01*
X183036Y307401D01*
X183171Y308428D01*
Y311972D01*
X183036Y312999D01*
X182639Y313957D01*
X182008Y314780D01*
X181185Y315411D01*
X180228Y315807D01*
X179200Y315943D01*
D02*
G37*
G36*
X169200D02*
X168172Y315807D01*
X167215Y315411D01*
X166392Y314780D01*
X165761Y313957D01*
X165364Y312999D01*
X165229Y311972D01*
Y308428D01*
X165364Y307401D01*
X165761Y306443D01*
X166392Y305620D01*
X167215Y304989D01*
X168172Y304593D01*
X169200Y304457D01*
X170228Y304593D01*
X171186Y304989D01*
X172008Y305620D01*
X172639Y306443D01*
X173036Y307401D01*
X173171Y308428D01*
Y311972D01*
X173036Y312999D01*
X172639Y313957D01*
X172008Y314780D01*
X171186Y315411D01*
X170228Y315807D01*
X169200Y315943D01*
D02*
G37*
G36*
X109200D02*
X108172Y315807D01*
X107214Y315411D01*
X106392Y314780D01*
X105761Y313957D01*
X105364Y312999D01*
X105229Y311972D01*
Y308428D01*
X105364Y307401D01*
X105761Y306443D01*
X106392Y305620D01*
X107214Y304989D01*
X108172Y304593D01*
X109200Y304457D01*
X110228Y304593D01*
X111186Y304989D01*
X112008Y305620D01*
X112639Y306443D01*
X113036Y307401D01*
X113171Y308428D01*
Y311972D01*
X113036Y312999D01*
X112639Y313957D01*
X112008Y314780D01*
X111186Y315411D01*
X110228Y315807D01*
X109200Y315943D01*
D02*
G37*
G36*
X39200D02*
X38172Y315807D01*
X37214Y315411D01*
X36392Y314780D01*
X35761Y313957D01*
X35364Y312999D01*
X35229Y311972D01*
Y308428D01*
X35364Y307401D01*
X35761Y306443D01*
X36392Y305620D01*
X37214Y304989D01*
X38172Y304593D01*
X39200Y304457D01*
X40228Y304593D01*
X41186Y304989D01*
X42008Y305620D01*
X42639Y306443D01*
X43036Y307401D01*
X43171Y308428D01*
Y311972D01*
X43036Y312999D01*
X42639Y313957D01*
X42008Y314780D01*
X41186Y315411D01*
X40228Y315807D01*
X39200Y315943D01*
D02*
G37*
G36*
X19200D02*
X18172Y315807D01*
X17214Y315411D01*
X16392Y314780D01*
X15761Y313957D01*
X15364Y312999D01*
X15229Y311972D01*
Y308428D01*
X15364Y307401D01*
X15761Y306443D01*
X16392Y305620D01*
X17214Y304989D01*
X18172Y304593D01*
X19200Y304457D01*
X20228Y304593D01*
X21185Y304989D01*
X22008Y305620D01*
X22639Y306443D01*
X23036Y307401D01*
X23171Y308428D01*
Y311972D01*
X23036Y312999D01*
X22639Y313957D01*
X22008Y314780D01*
X21185Y315411D01*
X20228Y315807D01*
X19200Y315943D01*
D02*
G37*
G36*
X103536Y304141D02*
Y302700D01*
X104976D01*
X104718Y303324D01*
X104160Y303882D01*
X103536Y304141D01*
D02*
G37*
G36*
X102536D02*
X101912Y303882D01*
X101354Y303324D01*
X101095Y302700D01*
X102536D01*
Y304141D01*
D02*
G37*
G36*
X104976Y301700D02*
X103536D01*
Y300259D01*
X104160Y300518D01*
X104718Y301076D01*
X104976Y301700D01*
D02*
G37*
G36*
X102536D02*
X101095D01*
X101354Y301076D01*
X101912Y300518D01*
X102536Y300259D01*
Y301700D01*
D02*
G37*
G36*
X53700Y300641D02*
Y299200D01*
X55141D01*
X54882Y299824D01*
X54324Y300382D01*
X53700Y300641D01*
D02*
G37*
G36*
X55141Y298200D02*
X53700D01*
Y296759D01*
X54324Y297018D01*
X54882Y297576D01*
X55141Y298200D01*
D02*
G37*
G36*
X168200Y285641D02*
Y284200D01*
X169641D01*
X169382Y284824D01*
X168824Y285382D01*
X168200Y285641D01*
D02*
G37*
G36*
X167200D02*
X166576Y285382D01*
X166018Y284824D01*
X165759Y284200D01*
X167200D01*
Y285641D01*
D02*
G37*
G36*
X221700Y284141D02*
Y282700D01*
X223141D01*
X222882Y283324D01*
X222324Y283882D01*
X221700Y284141D01*
D02*
G37*
G36*
X220700D02*
X220076Y283882D01*
X219518Y283324D01*
X219259Y282700D01*
X220700D01*
Y284141D01*
D02*
G37*
G36*
X169641Y283200D02*
X168200D01*
Y281759D01*
X168824Y282018D01*
X169382Y282576D01*
X169641Y283200D01*
D02*
G37*
G36*
X167200D02*
X165759D01*
X166018Y282576D01*
X166576Y282018D01*
X167200Y281759D01*
Y283200D01*
D02*
G37*
G36*
X223141Y281700D02*
X221700D01*
Y280259D01*
X222324Y280518D01*
X222882Y281076D01*
X223141Y281700D01*
D02*
G37*
G36*
X220700D02*
X219259D01*
X219518Y281076D01*
X220076Y280518D01*
X220700Y280259D01*
Y281700D01*
D02*
G37*
G36*
X219700Y275641D02*
Y274200D01*
X221141D01*
X220882Y274824D01*
X220324Y275382D01*
X219700Y275641D01*
D02*
G37*
G36*
X218700D02*
X218076Y275382D01*
X217518Y274824D01*
X217259Y274200D01*
X218700D01*
Y275641D01*
D02*
G37*
G36*
X131700Y275141D02*
Y273700D01*
X133141D01*
X132882Y274324D01*
X132324Y274882D01*
X131700Y275141D01*
D02*
G37*
G36*
X130700D02*
X130076Y274882D01*
X129518Y274324D01*
X129259Y273700D01*
X130700D01*
Y275141D01*
D02*
G37*
G36*
X25200D02*
Y273700D01*
X26641D01*
X26382Y274324D01*
X25824Y274882D01*
X25200Y275141D01*
D02*
G37*
G36*
X24200D02*
X23576Y274882D01*
X23018Y274324D01*
X22759Y273700D01*
X24200D01*
Y275141D01*
D02*
G37*
G36*
X221141Y273200D02*
X219700D01*
Y271759D01*
X220324Y272018D01*
X220882Y272576D01*
X221141Y273200D01*
D02*
G37*
G36*
X218700D02*
X217259D01*
X217518Y272576D01*
X218076Y272018D01*
X218700Y271759D01*
Y273200D01*
D02*
G37*
G36*
X133141Y272700D02*
X131700D01*
Y271259D01*
X132324Y271518D01*
X132882Y272076D01*
X133141Y272700D01*
D02*
G37*
G36*
X130700D02*
X129259D01*
X129518Y272076D01*
X130076Y271518D01*
X130700Y271259D01*
Y272700D01*
D02*
G37*
G36*
X26641D02*
X25200D01*
Y271259D01*
X25824Y271518D01*
X26382Y272076D01*
X26641Y272700D01*
D02*
G37*
G36*
X24200D02*
X22759D01*
X23018Y272076D01*
X23576Y271518D01*
X24200Y271259D01*
Y272700D01*
D02*
G37*
G36*
X103885Y269641D02*
Y268200D01*
X105326D01*
X105068Y268824D01*
X104509Y269382D01*
X103885Y269641D01*
D02*
G37*
G36*
X102885D02*
X102261Y269382D01*
X101703Y268824D01*
X101445Y268200D01*
X102885D01*
Y269641D01*
D02*
G37*
G36*
X43200Y268641D02*
Y267200D01*
X44641D01*
X44382Y267824D01*
X43824Y268382D01*
X43200Y268641D01*
D02*
G37*
G36*
X42200D02*
X41576Y268382D01*
X41018Y267824D01*
X40759Y267200D01*
X42200D01*
Y268641D01*
D02*
G37*
G36*
X105326Y267200D02*
X103885D01*
Y265759D01*
X104509Y266018D01*
X105068Y266576D01*
X105326Y267200D01*
D02*
G37*
G36*
X102885D02*
X101445D01*
X101703Y266576D01*
X102261Y266018D01*
X102885Y265759D01*
Y267200D01*
D02*
G37*
G36*
X217700Y266641D02*
Y265200D01*
X219141D01*
X218882Y265824D01*
X218324Y266382D01*
X217700Y266641D01*
D02*
G37*
G36*
X216700D02*
X216076Y266382D01*
X215518Y265824D01*
X215259Y265200D01*
X216700D01*
Y266641D01*
D02*
G37*
G36*
X44641Y266200D02*
X43200D01*
Y264759D01*
X43824Y265018D01*
X44382Y265576D01*
X44641Y266200D01*
D02*
G37*
G36*
X42200D02*
X40759D01*
X41018Y265576D01*
X41576Y265018D01*
X42200Y264759D01*
Y266200D01*
D02*
G37*
G36*
X219141Y264200D02*
X217700D01*
Y262759D01*
X218324Y263018D01*
X218882Y263576D01*
X219141Y264200D01*
D02*
G37*
G36*
X216700D02*
X215259D01*
X215518Y263576D01*
X216076Y263018D01*
X216700Y262759D01*
Y264200D01*
D02*
G37*
G36*
X77700Y262641D02*
Y261200D01*
X79141D01*
X78882Y261824D01*
X78324Y262382D01*
X77700Y262641D01*
D02*
G37*
G36*
X76700D02*
X76076Y262382D01*
X75518Y261824D01*
X75259Y261200D01*
X76700D01*
Y262641D01*
D02*
G37*
G36*
X79141Y260200D02*
X77700D01*
Y258759D01*
X78324Y259018D01*
X78882Y259576D01*
X79141Y260200D01*
D02*
G37*
G36*
X76700D02*
X75259D01*
X75518Y259576D01*
X76076Y259018D01*
X76700Y258759D01*
Y260200D01*
D02*
G37*
G36*
X99700Y256091D02*
Y250700D01*
X103385D01*
Y251972D01*
X103243Y253055D01*
X102825Y254064D01*
X102160Y254931D01*
X101293Y255596D01*
X100283Y256014D01*
X99700Y256091D01*
D02*
G37*
G36*
X98700D02*
X98117Y256014D01*
X97107Y255596D01*
X96241Y254931D01*
X95575Y254064D01*
X95157Y253055D01*
X95015Y251972D01*
Y250700D01*
X98700D01*
Y256091D01*
D02*
G37*
G36*
X209200Y255943D02*
X208172Y255807D01*
X207214Y255411D01*
X206392Y254780D01*
X205761Y253957D01*
X205364Y252999D01*
X205229Y251972D01*
Y248428D01*
X205364Y247401D01*
X205761Y246443D01*
X206392Y245620D01*
X207214Y244989D01*
X208172Y244593D01*
X209200Y244457D01*
X210228Y244593D01*
X211186Y244989D01*
X212008Y245620D01*
X212639Y246443D01*
X213036Y247401D01*
X213171Y248428D01*
Y251972D01*
X213036Y252999D01*
X212639Y253957D01*
X212008Y254780D01*
X211186Y255411D01*
X210228Y255807D01*
X209200Y255943D01*
D02*
G37*
G36*
X199200D02*
X198172Y255807D01*
X197214Y255411D01*
X196392Y254780D01*
X195761Y253957D01*
X195364Y252999D01*
X195229Y251972D01*
Y248428D01*
X195364Y247401D01*
X195761Y246443D01*
X196392Y245620D01*
X197214Y244989D01*
X198172Y244593D01*
X199200Y244457D01*
X200228Y244593D01*
X201185Y244989D01*
X202008Y245620D01*
X202639Y246443D01*
X203036Y247401D01*
X203171Y248428D01*
Y251972D01*
X203036Y252999D01*
X202639Y253957D01*
X202008Y254780D01*
X201185Y255411D01*
X200228Y255807D01*
X199200Y255943D01*
D02*
G37*
G36*
X189200D02*
X188172Y255807D01*
X187215Y255411D01*
X186392Y254780D01*
X185761Y253957D01*
X185364Y252999D01*
X185229Y251972D01*
Y248428D01*
X185364Y247401D01*
X185761Y246443D01*
X186392Y245620D01*
X187215Y244989D01*
X188172Y244593D01*
X189200Y244457D01*
X190228Y244593D01*
X191185Y244989D01*
X192008Y245620D01*
X192639Y246443D01*
X193036Y247401D01*
X193171Y248428D01*
Y251972D01*
X193036Y252999D01*
X192639Y253957D01*
X192008Y254780D01*
X191185Y255411D01*
X190228Y255807D01*
X189200Y255943D01*
D02*
G37*
G36*
X179200D02*
X178172Y255807D01*
X177215Y255411D01*
X176392Y254780D01*
X175761Y253957D01*
X175364Y252999D01*
X175229Y251972D01*
Y248428D01*
X175364Y247401D01*
X175761Y246443D01*
X176392Y245620D01*
X177215Y244989D01*
X178172Y244593D01*
X179200Y244457D01*
X180228Y244593D01*
X181185Y244989D01*
X182008Y245620D01*
X182639Y246443D01*
X183036Y247401D01*
X183171Y248428D01*
Y251972D01*
X183036Y252999D01*
X182639Y253957D01*
X182008Y254780D01*
X181185Y255411D01*
X180228Y255807D01*
X179200Y255943D01*
D02*
G37*
G36*
X169200D02*
X168172Y255807D01*
X167215Y255411D01*
X166392Y254780D01*
X165761Y253957D01*
X165364Y252999D01*
X165229Y251972D01*
Y248428D01*
X165364Y247401D01*
X165761Y246443D01*
X166392Y245620D01*
X167215Y244989D01*
X168172Y244593D01*
X169200Y244457D01*
X170228Y244593D01*
X171186Y244989D01*
X172008Y245620D01*
X172639Y246443D01*
X173036Y247401D01*
X173171Y248428D01*
Y251972D01*
X173036Y252999D01*
X172639Y253957D01*
X172008Y254780D01*
X171186Y255411D01*
X170228Y255807D01*
X169200Y255943D01*
D02*
G37*
G36*
X15700Y233091D02*
Y227700D01*
X19385D01*
Y228972D01*
X19243Y230055D01*
X18825Y231064D01*
X18159Y231931D01*
X17293Y232596D01*
X16283Y233014D01*
X15700Y233091D01*
D02*
G37*
G36*
X14700D02*
X14117Y233014D01*
X13107Y232596D01*
X12241Y231931D01*
X11575Y231064D01*
X11157Y230055D01*
X11015Y228972D01*
Y227700D01*
X14700D01*
Y233091D01*
D02*
G37*
G36*
X163200Y227141D02*
X162576Y226882D01*
X162018Y226324D01*
X161716Y225595D01*
Y225294D01*
X160928Y224905D01*
X160594Y225162D01*
X159680Y225540D01*
X159200Y225604D01*
Y221200D01*
X162488D01*
Y221881D01*
X162374Y222749D01*
X162624Y223053D01*
X163015Y223336D01*
X163200Y223259D01*
Y225200D01*
Y227141D01*
D02*
G37*
G36*
X25200Y232943D02*
X24172Y232807D01*
X23214Y232411D01*
X22392Y231780D01*
X21761Y230957D01*
X21364Y229999D01*
X21229Y228972D01*
Y225428D01*
X21364Y224401D01*
X21761Y223443D01*
X22392Y222620D01*
X23214Y221989D01*
X24172Y221593D01*
X25200Y221457D01*
X26228Y221593D01*
X27185Y221989D01*
X28008Y222620D01*
X28639Y223443D01*
X29036Y224401D01*
X29171Y225428D01*
Y228972D01*
X29036Y229999D01*
X28639Y230957D01*
X28008Y231780D01*
X27185Y232411D01*
X26228Y232807D01*
X25200Y232943D01*
D02*
G37*
G36*
X19385Y226700D02*
X15700D01*
Y221309D01*
X16283Y221386D01*
X17293Y221804D01*
X18159Y222469D01*
X18825Y223336D01*
X19243Y224345D01*
X19385Y225428D01*
Y226700D01*
D02*
G37*
G36*
X14700D02*
X11015D01*
Y225428D01*
X11157Y224345D01*
X11575Y223336D01*
X12241Y222469D01*
X13107Y221804D01*
X14117Y221386D01*
X14700Y221309D01*
Y226700D01*
D02*
G37*
G36*
X199200Y225604D02*
Y221200D01*
X202488D01*
Y221881D01*
X202359Y222862D01*
X201981Y223775D01*
X201379Y224560D01*
X200594Y225162D01*
X199680Y225540D01*
X199200Y225604D01*
D02*
G37*
G36*
X189200D02*
Y221200D01*
X192488D01*
Y221881D01*
X192359Y222862D01*
X191981Y223775D01*
X191379Y224560D01*
X190594Y225162D01*
X189681Y225540D01*
X189200Y225604D01*
D02*
G37*
G36*
X179200D02*
Y221200D01*
X182488D01*
Y221881D01*
X182359Y222862D01*
X181981Y223775D01*
X181379Y224560D01*
X180594Y225162D01*
X179681Y225540D01*
X179200Y225604D01*
D02*
G37*
G36*
X169200D02*
Y221200D01*
X172488D01*
Y221881D01*
X172359Y222862D01*
X171981Y223775D01*
X171379Y224560D01*
X170594Y225162D01*
X169681Y225540D01*
X169200Y225604D01*
D02*
G37*
G36*
X198200D02*
X197720Y225540D01*
X196806Y225162D01*
X196021Y224560D01*
X195419Y223775D01*
X195041Y222862D01*
X194912Y221881D01*
Y221200D01*
X198200D01*
Y225604D01*
D02*
G37*
G36*
X188200D02*
X187720Y225540D01*
X186806Y225162D01*
X186021Y224560D01*
X185419Y223775D01*
X185041Y222862D01*
X184912Y221881D01*
Y221200D01*
X188200D01*
Y225604D01*
D02*
G37*
G36*
X178200D02*
X177719Y225540D01*
X176806Y225162D01*
X176021Y224560D01*
X175419Y223775D01*
X175041Y222862D01*
X174912Y221881D01*
Y221200D01*
X178200D01*
Y225604D01*
D02*
G37*
G36*
X164200Y227141D02*
Y225200D01*
Y223259D01*
X164385Y223336D01*
X164776Y223053D01*
X165026Y222749D01*
X164912Y221881D01*
Y221200D01*
X168200D01*
Y225604D01*
X167719Y225540D01*
X166806Y225162D01*
X166472Y224905D01*
X165684Y225294D01*
Y225595D01*
X165382Y226324D01*
X164824Y226882D01*
X164200Y227141D01*
D02*
G37*
G36*
X202488Y220200D02*
X199200D01*
Y215796D01*
X199680Y215860D01*
X200594Y216238D01*
X201379Y216840D01*
X201981Y217625D01*
X202359Y218538D01*
X202488Y219519D01*
Y220200D01*
D02*
G37*
G36*
X172488D02*
X169200D01*
Y215796D01*
X169681Y215860D01*
X170594Y216238D01*
X171379Y216840D01*
X171981Y217625D01*
X172359Y218538D01*
X172488Y219519D01*
Y220200D01*
D02*
G37*
G36*
X198200D02*
X194912D01*
Y219519D01*
X195041Y218538D01*
X195419Y217625D01*
X196021Y216840D01*
X196806Y216238D01*
X197720Y215860D01*
X198200Y215796D01*
Y220200D01*
D02*
G37*
G36*
X168200D02*
X164912D01*
Y219519D01*
X165041Y218538D01*
X165419Y217625D01*
X166021Y216840D01*
X166806Y216238D01*
X167719Y215860D01*
X168200Y215796D01*
Y220200D01*
D02*
G37*
G36*
X15700Y214141D02*
Y212700D01*
X17141D01*
X16882Y213324D01*
X16324Y213882D01*
X15700Y214141D01*
D02*
G37*
G36*
X14700D02*
X14076Y213882D01*
X13518Y213324D01*
X13259Y212700D01*
X14700D01*
Y214141D01*
D02*
G37*
G36*
X17141Y211700D02*
X15700D01*
Y210259D01*
X16324Y210518D01*
X16882Y211076D01*
X17141Y211700D01*
D02*
G37*
G36*
X14700D02*
X13259D01*
X13518Y211076D01*
X14076Y210518D01*
X14700Y210259D01*
Y211700D01*
D02*
G37*
G36*
X119200Y211850D02*
X119154D01*
X118098Y211567D01*
X117152Y211020D01*
X116379Y210248D01*
X115833Y209302D01*
X115550Y208246D01*
Y208200D01*
X119200D01*
Y211850D01*
D02*
G37*
G36*
Y207200D02*
X115550D01*
Y207154D01*
X115833Y206098D01*
X116379Y205152D01*
X117152Y204380D01*
X118098Y203833D01*
X119154Y203550D01*
X119200D01*
Y207200D01*
D02*
G37*
G36*
X25592Y207668D02*
X24808D01*
X24085Y207369D01*
X23531Y206815D01*
X23232Y206092D01*
Y205308D01*
X23531Y204585D01*
X24085Y204031D01*
X24808Y203731D01*
X24688Y202994D01*
X24646Y202870D01*
X24172Y202807D01*
X23214Y202411D01*
X22392Y201780D01*
X21761Y200957D01*
X21364Y199999D01*
X21229Y198972D01*
Y195428D01*
X21364Y194401D01*
X21761Y193443D01*
X22392Y192620D01*
X23214Y191989D01*
X24172Y191593D01*
X25200Y191457D01*
X26228Y191593D01*
X27185Y191989D01*
X28008Y192620D01*
X28639Y193443D01*
X29036Y194401D01*
X29171Y195428D01*
Y198972D01*
X29036Y199999D01*
X28639Y200957D01*
X28374Y201303D01*
X28762Y202090D01*
X31638D01*
X32026Y201303D01*
X31761Y200957D01*
X31364Y199999D01*
X31229Y198972D01*
Y195428D01*
X31364Y194401D01*
X31761Y193443D01*
X32392Y192620D01*
X32460Y192568D01*
X32512Y191782D01*
X30035Y189306D01*
X21657D01*
X21427Y189536D01*
X20631Y189865D01*
X19769D01*
X18973Y189536D01*
X18364Y188927D01*
X18035Y188131D01*
Y187269D01*
X18364Y186473D01*
X18973Y185864D01*
X19769Y185535D01*
X20631D01*
X21427Y185864D01*
X21657Y186094D01*
X30700D01*
X30700Y186094D01*
X31315Y186217D01*
X31835Y186565D01*
X36335Y191065D01*
X36683Y191586D01*
X36726Y191799D01*
X37185Y191989D01*
X37531Y192255D01*
X38319Y191867D01*
Y184139D01*
X36608Y182428D01*
X36228Y182585D01*
X35200Y182720D01*
X34172Y182585D01*
X33215Y182188D01*
X32392Y181557D01*
X31761Y180735D01*
X31364Y179777D01*
X31229Y178749D01*
Y175206D01*
X31364Y174178D01*
X31761Y173220D01*
X32392Y172398D01*
X33215Y171767D01*
X34172Y171370D01*
X35200Y171235D01*
X36228Y171370D01*
X36808Y171611D01*
X46317Y162102D01*
X46016Y161374D01*
X41018D01*
X28795Y173598D01*
X29036Y174178D01*
X29171Y175206D01*
Y178749D01*
X29036Y179777D01*
X28639Y180735D01*
X28008Y181557D01*
X27185Y182188D01*
X26228Y182585D01*
X25200Y182720D01*
X24172Y182585D01*
X23214Y182188D01*
X22392Y181557D01*
X21761Y180735D01*
X21364Y179777D01*
X21229Y178749D01*
Y175206D01*
X21364Y174178D01*
X21761Y173220D01*
X22392Y172398D01*
X23214Y171767D01*
X24172Y171370D01*
X25200Y171235D01*
X26228Y171370D01*
X26808Y171611D01*
X39443Y158976D01*
X39899Y158672D01*
X40436Y158565D01*
X114915D01*
X114957Y158573D01*
X115591Y157896D01*
X115550Y157746D01*
Y157700D01*
X119700D01*
X123850D01*
Y157746D01*
X123567Y158802D01*
X123021Y159748D01*
X123349Y160533D01*
X130256D01*
X130794Y160640D01*
X131249Y160945D01*
X136180Y165875D01*
X136553D01*
X137277Y166175D01*
X137830Y166728D01*
X138130Y167452D01*
Y168235D01*
X137830Y168959D01*
X137277Y169512D01*
X136726Y169740D01*
X136461Y170042D01*
X136237Y170599D01*
X136295Y170890D01*
Y171183D01*
X136976Y171864D01*
X137350D01*
X138073Y172164D01*
X138627Y172718D01*
X138926Y173441D01*
Y173530D01*
X139103Y174241D01*
X139654Y174295D01*
X145821D01*
X146085Y174031D01*
X146808Y173732D01*
X147592D01*
X148315Y174031D01*
X148869Y174585D01*
X149169Y175308D01*
Y176092D01*
X148869Y176815D01*
X148315Y177369D01*
X147592Y177668D01*
X146808D01*
X146085Y177369D01*
X145821Y177105D01*
X139699D01*
X139418Y177385D01*
X138963Y177690D01*
X138425Y177797D01*
X137736D01*
X137298Y178451D01*
X137318Y178500D01*
Y179283D01*
X137019Y180007D01*
X136518Y180508D01*
X136541Y180758D01*
X136749Y181295D01*
X137821D01*
X138085Y181031D01*
X138808Y180731D01*
X139592D01*
X140315Y181031D01*
X140869Y181585D01*
X141168Y182308D01*
Y183092D01*
X140869Y183815D01*
X140315Y184369D01*
X139592Y184669D01*
X138808D01*
X138085Y184369D01*
X137821Y184105D01*
X135539D01*
X135002Y183998D01*
X134546Y183694D01*
X122070Y171217D01*
X115259D01*
X114957Y171944D01*
X117693Y174681D01*
X117998Y175136D01*
X118105Y175674D01*
Y180821D01*
X118369Y181085D01*
X118668Y181808D01*
Y182592D01*
X118369Y183315D01*
X117815Y183869D01*
X117092Y184169D01*
X116308D01*
X116286Y184159D01*
X115369Y184315D01*
X114815Y184869D01*
X114092Y185169D01*
X113499D01*
X113159Y185726D01*
X113113Y185896D01*
X113369Y186152D01*
X113669Y186875D01*
Y187659D01*
X113369Y188382D01*
X112815Y188936D01*
X112092Y189235D01*
X111308D01*
X110585Y188936D01*
X110321Y188672D01*
X102262D01*
X102169Y188765D01*
Y189139D01*
X101869Y189862D01*
X101315Y190416D01*
X100592Y190716D01*
X100553D01*
X100227Y191503D01*
X101335Y192612D01*
X101335Y192612D01*
X101368Y192661D01*
X102337Y192693D01*
X102392Y192620D01*
X103215Y191989D01*
X104172Y191593D01*
X105200Y191457D01*
X106228Y191593D01*
X107185Y191989D01*
X108008Y192620D01*
X108627Y193428D01*
X119094D01*
X120070Y193556D01*
X120980Y193933D01*
X121048Y193985D01*
X121220Y194031D01*
X122117Y194550D01*
X122850Y195283D01*
X123369Y196180D01*
X123637Y197182D01*
Y198218D01*
X123369Y199220D01*
X122850Y200117D01*
X122117Y200850D01*
X121220Y201369D01*
X120218Y201637D01*
X119182D01*
X118180Y201369D01*
X117494Y200972D01*
X108627D01*
X108008Y201780D01*
X107185Y202411D01*
X106228Y202807D01*
X105200Y202943D01*
X104172Y202807D01*
X103215Y202411D01*
X102689Y202007D01*
X102042Y202504D01*
X102169Y202808D01*
Y203592D01*
X101869Y204315D01*
X101315Y204869D01*
X100592Y205169D01*
X99808D01*
X99085Y204869D01*
X98531Y204315D01*
X98232Y203592D01*
Y202808D01*
X98358Y202504D01*
X97711Y202007D01*
X97185Y202411D01*
X96228Y202807D01*
X95200Y202943D01*
X94172Y202807D01*
X93214Y202411D01*
X92392Y201780D01*
X91761Y200957D01*
X91364Y199999D01*
X91229Y198972D01*
Y195428D01*
X91364Y194401D01*
X91522Y194021D01*
X84065Y186564D01*
X83717Y186043D01*
X83594Y185428D01*
X83594Y185428D01*
Y182345D01*
X83214Y182188D01*
X82392Y181557D01*
X81761Y180735D01*
X81364Y179777D01*
X81229Y178749D01*
Y175206D01*
X81364Y174178D01*
X81761Y173220D01*
X82392Y172398D01*
X82905Y172004D01*
X82638Y171217D01*
X81176D01*
X78795Y173598D01*
X79036Y174178D01*
X79171Y175206D01*
Y178749D01*
X79036Y179777D01*
X78639Y180735D01*
X78008Y181557D01*
X77185Y182188D01*
X76806Y182345D01*
Y184700D01*
X76683Y185315D01*
X76335Y185835D01*
X76335Y185835D01*
X71668Y190502D01*
Y190592D01*
X71369Y191315D01*
X70815Y191869D01*
X70092Y192168D01*
X69308D01*
X68585Y191869D01*
X68031Y191315D01*
X67731Y190592D01*
Y189808D01*
X68031Y189085D01*
X68585Y188531D01*
X69308Y188232D01*
X69398D01*
X73594Y184035D01*
Y182345D01*
X73215Y182188D01*
X72392Y181557D01*
X71761Y180735D01*
X71364Y179777D01*
X71229Y178749D01*
Y175206D01*
X71364Y174178D01*
X71761Y173220D01*
X72392Y172398D01*
X73215Y171767D01*
X74172Y171370D01*
X75200Y171235D01*
X76228Y171370D01*
X76808Y171611D01*
X78443Y169976D01*
X78142Y169249D01*
X73144D01*
X68795Y173598D01*
X69036Y174178D01*
X69171Y175206D01*
Y178749D01*
X69036Y179777D01*
X68639Y180735D01*
X68008Y181557D01*
X67185Y182188D01*
X66228Y182585D01*
X65200Y182720D01*
X64172Y182585D01*
X63214Y182188D01*
X62392Y181557D01*
X61761Y180735D01*
X61364Y179777D01*
X61229Y178749D01*
Y175206D01*
X61364Y174178D01*
X61761Y173220D01*
X62392Y172398D01*
X63214Y171767D01*
X64172Y171370D01*
X65200Y171235D01*
X66228Y171370D01*
X66808Y171611D01*
X70411Y168008D01*
X70110Y167280D01*
X65113D01*
X58795Y173598D01*
X59036Y174178D01*
X59171Y175206D01*
Y178749D01*
X59036Y179777D01*
X58639Y180735D01*
X58008Y181557D01*
X57186Y182188D01*
X56228Y182585D01*
X55200Y182720D01*
X54172Y182585D01*
X53215Y182188D01*
X52392Y181557D01*
X51761Y180735D01*
X51364Y179777D01*
X51229Y178749D01*
Y175206D01*
X51364Y174178D01*
X51761Y173220D01*
X52392Y172398D01*
X53215Y171767D01*
X54172Y171370D01*
X55200Y171235D01*
X56228Y171370D01*
X56808Y171611D01*
X62380Y166039D01*
X62079Y165312D01*
X57081D01*
X48795Y173598D01*
X49036Y174178D01*
X49171Y175206D01*
Y178749D01*
X49036Y179777D01*
X48639Y180735D01*
X48008Y181557D01*
X47186Y182188D01*
X46806Y182345D01*
Y185248D01*
X50227Y188669D01*
X50316D01*
X51039Y188969D01*
X51593Y189522D01*
X51893Y190246D01*
Y191029D01*
X51593Y191753D01*
X51039Y192306D01*
X50316Y192606D01*
X49533D01*
X48809Y192306D01*
X48256Y191753D01*
X47956Y191029D01*
Y190940D01*
X44065Y187048D01*
X43717Y186528D01*
X43594Y185913D01*
X43594Y185913D01*
Y182345D01*
X43214Y182188D01*
X42392Y181557D01*
X41761Y180735D01*
X41364Y179777D01*
X41229Y178749D01*
Y175206D01*
X41364Y174178D01*
X41761Y173220D01*
X42392Y172398D01*
X43214Y171767D01*
X44172Y171370D01*
X45200Y171235D01*
X46228Y171370D01*
X46808Y171611D01*
X54348Y164070D01*
X54047Y163343D01*
X49050D01*
X38795Y173598D01*
X39036Y174178D01*
X39171Y175206D01*
Y178749D01*
X39036Y179777D01*
X38878Y180157D01*
X41060Y182338D01*
X41060Y182338D01*
X41408Y182859D01*
X41530Y183474D01*
Y192450D01*
X42318Y192718D01*
X42392Y192620D01*
X43214Y191989D01*
X44172Y191593D01*
X45200Y191457D01*
X46228Y191593D01*
X47186Y191989D01*
X48008Y192620D01*
X48639Y193443D01*
X49036Y194401D01*
X49171Y195428D01*
Y198972D01*
X49036Y199999D01*
X48827Y200504D01*
X49082Y201316D01*
X49251Y201453D01*
X50448D01*
X51522Y200379D01*
X51364Y199999D01*
X51229Y198972D01*
Y195428D01*
X51364Y194401D01*
X51761Y193443D01*
X52392Y192620D01*
X53215Y191989D01*
X54172Y191593D01*
X55200Y191457D01*
X56228Y191593D01*
X57186Y191989D01*
X58008Y192620D01*
X58639Y193443D01*
X59036Y194401D01*
X59171Y195428D01*
Y198972D01*
X59036Y199999D01*
X58639Y200957D01*
X58008Y201780D01*
X57186Y202411D01*
X56228Y202807D01*
X55200Y202943D01*
X54172Y202807D01*
X53792Y202650D01*
X52249Y204194D01*
X51728Y204542D01*
X51113Y204664D01*
X51113Y204664D01*
X49520D01*
X49315Y204869D01*
X48592Y205169D01*
X47808D01*
X47085Y204869D01*
X46531Y204315D01*
X46231Y203592D01*
X45444Y202910D01*
X45200Y202943D01*
X44172Y202807D01*
X43214Y202411D01*
X42392Y201780D01*
X42318Y201682D01*
X41530Y201950D01*
Y202200D01*
X41530Y202200D01*
X41408Y202815D01*
X41060Y203335D01*
X41060Y203335D01*
X39564Y204831D01*
X39043Y205180D01*
X38428Y205302D01*
X38428Y205302D01*
X27869D01*
X27169Y206002D01*
Y206092D01*
X26869Y206815D01*
X26315Y207369D01*
X25592Y207668D01*
D02*
G37*
G36*
X85200Y202943D02*
X84172Y202807D01*
X83214Y202411D01*
X82392Y201780D01*
X81761Y200957D01*
X81364Y199999D01*
X81229Y198972D01*
Y195428D01*
X81364Y194401D01*
X81761Y193443D01*
X82392Y192620D01*
X83214Y191989D01*
X84172Y191593D01*
X85200Y191457D01*
X86228Y191593D01*
X87186Y191989D01*
X88008Y192620D01*
X88639Y193443D01*
X89036Y194401D01*
X89171Y195428D01*
Y198972D01*
X89036Y199999D01*
X88639Y200957D01*
X88008Y201780D01*
X87186Y202411D01*
X86228Y202807D01*
X85200Y202943D01*
D02*
G37*
G36*
X75200D02*
X74172Y202807D01*
X73215Y202411D01*
X72392Y201780D01*
X71761Y200957D01*
X71364Y199999D01*
X71229Y198972D01*
Y195428D01*
X71364Y194401D01*
X71761Y193443D01*
X72392Y192620D01*
X73215Y191989D01*
X74172Y191593D01*
X75200Y191457D01*
X76228Y191593D01*
X77185Y191989D01*
X78008Y192620D01*
X78639Y193443D01*
X79036Y194401D01*
X79171Y195428D01*
Y198972D01*
X79036Y199999D01*
X78639Y200957D01*
X78008Y201780D01*
X77185Y202411D01*
X76228Y202807D01*
X75200Y202943D01*
D02*
G37*
G36*
X65200D02*
X64172Y202807D01*
X63214Y202411D01*
X62392Y201780D01*
X61761Y200957D01*
X61364Y199999D01*
X61229Y198972D01*
Y195428D01*
X61364Y194401D01*
X61761Y193443D01*
X62392Y192620D01*
X63214Y191989D01*
X64172Y191593D01*
X65200Y191457D01*
X66228Y191593D01*
X67185Y191989D01*
X68008Y192620D01*
X68639Y193443D01*
X69036Y194401D01*
X69171Y195428D01*
Y198972D01*
X69036Y199999D01*
X68639Y200957D01*
X68008Y201780D01*
X67185Y202411D01*
X66228Y202807D01*
X65200Y202943D01*
D02*
G37*
G36*
X15200D02*
X14172Y202807D01*
X13215Y202411D01*
X12392Y201780D01*
X11761Y200957D01*
X11364Y199999D01*
X11229Y198972D01*
Y195428D01*
X11364Y194401D01*
X11761Y193443D01*
X12392Y192620D01*
X13215Y191989D01*
X14172Y191593D01*
X15200Y191457D01*
X16228Y191593D01*
X17186Y191989D01*
X18008Y192620D01*
X18639Y193443D01*
X19036Y194401D01*
X19171Y195428D01*
Y198972D01*
X19036Y199999D01*
X18639Y200957D01*
X18008Y201780D01*
X17186Y202411D01*
X16228Y202807D01*
X15200Y202943D01*
D02*
G37*
G36*
X11200Y189641D02*
Y188200D01*
X12641D01*
X12382Y188824D01*
X11824Y189382D01*
X11200Y189641D01*
D02*
G37*
G36*
X10200D02*
X9576Y189382D01*
X9018Y188824D01*
X8759Y188200D01*
X10200D01*
Y189641D01*
D02*
G37*
G36*
X12641Y187200D02*
X11200D01*
Y185759D01*
X11824Y186018D01*
X12382Y186576D01*
X12641Y187200D01*
D02*
G37*
G36*
X10200D02*
X8759D01*
X9018Y186576D01*
X9576Y186018D01*
X10200Y185759D01*
Y187200D01*
D02*
G37*
G36*
X15700Y182869D02*
Y177478D01*
X19385D01*
Y178749D01*
X19243Y179832D01*
X18825Y180842D01*
X18159Y181709D01*
X17293Y182374D01*
X16283Y182792D01*
X15700Y182869D01*
D02*
G37*
G36*
X14700D02*
X14117Y182792D01*
X13107Y182374D01*
X12241Y181709D01*
X11575Y180842D01*
X11157Y179832D01*
X11015Y178749D01*
Y177478D01*
X14700D01*
Y182869D01*
D02*
G37*
G36*
X19385Y176478D02*
X15700D01*
Y171086D01*
X16283Y171163D01*
X17293Y171581D01*
X18159Y172246D01*
X18825Y173113D01*
X19243Y174123D01*
X19385Y175206D01*
Y176478D01*
D02*
G37*
G36*
X14700D02*
X11015D01*
Y175206D01*
X11157Y174123D01*
X11575Y173113D01*
X12241Y172246D01*
X13107Y171581D01*
X14117Y171163D01*
X14700Y171086D01*
Y176478D01*
D02*
G37*
G36*
X165200Y161582D02*
Y159929D01*
X166854D01*
X166549Y160664D01*
X165936Y161278D01*
X165200Y161582D01*
D02*
G37*
G36*
X164200D02*
X163464Y161278D01*
X162851Y160664D01*
X162546Y159929D01*
X164200D01*
Y161582D01*
D02*
G37*
G36*
X166854Y158929D02*
X165200D01*
Y157275D01*
X165936Y157580D01*
X166549Y158193D01*
X166854Y158929D01*
D02*
G37*
G36*
X164200D02*
X162546D01*
X162851Y158193D01*
X163464Y157580D01*
X164200Y157275D01*
Y158929D01*
D02*
G37*
G36*
X179200Y157728D02*
X178464Y157423D01*
X177851Y156809D01*
X177546Y156074D01*
X179200D01*
Y157728D01*
D02*
G37*
G36*
Y155074D02*
X177546D01*
X177851Y154339D01*
X178464Y153725D01*
X179200Y153420D01*
Y155074D01*
D02*
G37*
G36*
X123850Y156700D02*
X120200D01*
Y153050D01*
X120246D01*
X121302Y153333D01*
X122248Y153879D01*
X123021Y154652D01*
X123567Y155598D01*
X123850Y156654D01*
Y156700D01*
D02*
G37*
G36*
X119200D02*
X115550D01*
Y156654D01*
X115833Y155598D01*
X116379Y154652D01*
X117152Y153879D01*
X118098Y153333D01*
X119154Y153050D01*
X119200D01*
Y156700D01*
D02*
G37*
G36*
X165200Y154141D02*
Y152700D01*
X166641D01*
X166382Y153324D01*
X165824Y153882D01*
X165200Y154141D01*
D02*
G37*
G36*
X164200D02*
X163576Y153882D01*
X163018Y153324D01*
X162759Y152700D01*
X164200D01*
Y154141D01*
D02*
G37*
G36*
X166641Y151700D02*
X165200D01*
Y150259D01*
X165824Y150518D01*
X166382Y151076D01*
X166641Y151700D01*
D02*
G37*
G36*
X164200D02*
X162759D01*
X163018Y151076D01*
X163576Y150518D01*
X164200Y150259D01*
Y151700D01*
D02*
G37*
G36*
X169700Y149141D02*
Y147700D01*
X171141D01*
X170882Y148324D01*
X170324Y148882D01*
X169700Y149141D01*
D02*
G37*
G36*
X168700D02*
X168076Y148882D01*
X167518Y148324D01*
X167259Y147700D01*
X168700D01*
Y149141D01*
D02*
G37*
G36*
X171141Y146700D02*
X169700D01*
Y145259D01*
X170324Y145518D01*
X170882Y146076D01*
X171141Y146700D01*
D02*
G37*
G36*
X168700D02*
X167259D01*
X167518Y146076D01*
X168076Y145518D01*
X168700Y145259D01*
Y146700D01*
D02*
G37*
G36*
X153389Y144389D02*
Y142735D01*
X155043D01*
X154738Y143471D01*
X154124Y144085D01*
X153389Y144389D01*
D02*
G37*
G36*
X152389D02*
X151654Y144085D01*
X151040Y143471D01*
X150735Y142735D01*
X152389D01*
Y144389D01*
D02*
G37*
G36*
X95200Y152720D02*
X94172Y152585D01*
X93214Y152188D01*
X92392Y151557D01*
X91761Y150735D01*
X91364Y149777D01*
X91229Y148749D01*
Y145206D01*
X91364Y144178D01*
X91761Y143220D01*
X92392Y142398D01*
X93214Y141767D01*
X94172Y141370D01*
X95200Y141235D01*
X96228Y141370D01*
X97185Y141767D01*
X98008Y142398D01*
X98639Y143220D01*
X99036Y144178D01*
X99171Y145206D01*
Y148749D01*
X99036Y149777D01*
X98639Y150735D01*
X98008Y151557D01*
X97185Y152188D01*
X96228Y152585D01*
X95200Y152720D01*
D02*
G37*
G36*
X85200D02*
X84172Y152585D01*
X83214Y152188D01*
X82392Y151557D01*
X81761Y150735D01*
X81364Y149777D01*
X81229Y148749D01*
Y145206D01*
X81364Y144178D01*
X81761Y143220D01*
X82392Y142398D01*
X83214Y141767D01*
X84172Y141370D01*
X85200Y141235D01*
X86228Y141370D01*
X87186Y141767D01*
X88008Y142398D01*
X88639Y143220D01*
X89036Y144178D01*
X89171Y145206D01*
Y148749D01*
X89036Y149777D01*
X88639Y150735D01*
X88008Y151557D01*
X87186Y152188D01*
X86228Y152585D01*
X85200Y152720D01*
D02*
G37*
G36*
X75200D02*
X74172Y152585D01*
X73215Y152188D01*
X72392Y151557D01*
X71761Y150735D01*
X71364Y149777D01*
X71229Y148749D01*
Y145206D01*
X71364Y144178D01*
X71761Y143220D01*
X72392Y142398D01*
X73215Y141767D01*
X74172Y141370D01*
X75200Y141235D01*
X76228Y141370D01*
X77185Y141767D01*
X78008Y142398D01*
X78639Y143220D01*
X79036Y144178D01*
X79171Y145206D01*
Y148749D01*
X79036Y149777D01*
X78639Y150735D01*
X78008Y151557D01*
X77185Y152188D01*
X76228Y152585D01*
X75200Y152720D01*
D02*
G37*
G36*
X65200D02*
X64172Y152585D01*
X63214Y152188D01*
X62392Y151557D01*
X61761Y150735D01*
X61364Y149777D01*
X61229Y148749D01*
Y145206D01*
X61364Y144178D01*
X61761Y143220D01*
X62392Y142398D01*
X63214Y141767D01*
X64172Y141370D01*
X65200Y141235D01*
X66228Y141370D01*
X67185Y141767D01*
X68008Y142398D01*
X68639Y143220D01*
X69036Y144178D01*
X69171Y145206D01*
Y148749D01*
X69036Y149777D01*
X68639Y150735D01*
X68008Y151557D01*
X67185Y152188D01*
X66228Y152585D01*
X65200Y152720D01*
D02*
G37*
G36*
X55200D02*
X54172Y152585D01*
X53215Y152188D01*
X52392Y151557D01*
X51761Y150735D01*
X51364Y149777D01*
X51229Y148749D01*
Y145206D01*
X51364Y144178D01*
X51761Y143220D01*
X52392Y142398D01*
X53215Y141767D01*
X54172Y141370D01*
X55200Y141235D01*
X56228Y141370D01*
X57186Y141767D01*
X58008Y142398D01*
X58639Y143220D01*
X59036Y144178D01*
X59171Y145206D01*
Y148749D01*
X59036Y149777D01*
X58639Y150735D01*
X58008Y151557D01*
X57186Y152188D01*
X56228Y152585D01*
X55200Y152720D01*
D02*
G37*
G36*
X45200D02*
X44172Y152585D01*
X43214Y152188D01*
X42392Y151557D01*
X41761Y150735D01*
X41364Y149777D01*
X41229Y148749D01*
Y145206D01*
X41364Y144178D01*
X41761Y143220D01*
X42392Y142398D01*
X43214Y141767D01*
X44172Y141370D01*
X45200Y141235D01*
X46228Y141370D01*
X47186Y141767D01*
X48008Y142398D01*
X48639Y143220D01*
X49036Y144178D01*
X49171Y145206D01*
Y148749D01*
X49036Y149777D01*
X48639Y150735D01*
X48008Y151557D01*
X47186Y152188D01*
X46228Y152585D01*
X45200Y152720D01*
D02*
G37*
G36*
X35200D02*
X34172Y152585D01*
X33215Y152188D01*
X32392Y151557D01*
X31761Y150735D01*
X31364Y149777D01*
X31229Y148749D01*
Y145206D01*
X31364Y144178D01*
X31761Y143220D01*
X32392Y142398D01*
X33215Y141767D01*
X34172Y141370D01*
X35200Y141235D01*
X36228Y141370D01*
X37185Y141767D01*
X38008Y142398D01*
X38639Y143220D01*
X39036Y144178D01*
X39171Y145206D01*
Y148749D01*
X39036Y149777D01*
X38639Y150735D01*
X38008Y151557D01*
X37185Y152188D01*
X36228Y152585D01*
X35200Y152720D01*
D02*
G37*
G36*
X25200D02*
X24172Y152585D01*
X23214Y152188D01*
X22392Y151557D01*
X21761Y150735D01*
X21364Y149777D01*
X21229Y148749D01*
Y145206D01*
X21364Y144178D01*
X21761Y143220D01*
X22392Y142398D01*
X23214Y141767D01*
X24172Y141370D01*
X25200Y141235D01*
X26228Y141370D01*
X27185Y141767D01*
X28008Y142398D01*
X28639Y143220D01*
X29036Y144178D01*
X29171Y145206D01*
Y148749D01*
X29036Y149777D01*
X28639Y150735D01*
X28008Y151557D01*
X27185Y152188D01*
X26228Y152585D01*
X25200Y152720D01*
D02*
G37*
G36*
X15200D02*
X14172Y152585D01*
X13215Y152188D01*
X12392Y151557D01*
X11761Y150735D01*
X11364Y149777D01*
X11229Y148749D01*
Y145206D01*
X11364Y144178D01*
X11761Y143220D01*
X12392Y142398D01*
X13215Y141767D01*
X14172Y141370D01*
X15200Y141235D01*
X16228Y141370D01*
X17186Y141767D01*
X18008Y142398D01*
X18639Y143220D01*
X19036Y144178D01*
X19171Y145206D01*
Y148749D01*
X19036Y149777D01*
X18639Y150735D01*
X18008Y151557D01*
X17186Y152188D01*
X16228Y152585D01*
X15200Y152720D01*
D02*
G37*
G36*
X155043Y141735D02*
X153389D01*
Y140082D01*
X154124Y140386D01*
X154738Y141000D01*
X155043Y141735D01*
D02*
G37*
G36*
X152389D02*
X150735D01*
X151040Y141000D01*
X151654Y140386D01*
X152389Y140082D01*
Y141735D01*
D02*
G37*
G36*
X159294Y136515D02*
Y134861D01*
X160948D01*
X160643Y135597D01*
X160030Y136211D01*
X159294Y136515D01*
D02*
G37*
G36*
X158294D02*
X157559Y136211D01*
X156945Y135597D01*
X156641Y134861D01*
X158294D01*
Y136515D01*
D02*
G37*
G36*
X105200Y152720D02*
X104172Y152585D01*
X103215Y152188D01*
X102392Y151557D01*
X101761Y150735D01*
X101364Y149777D01*
X101229Y148749D01*
Y145206D01*
X101352Y144270D01*
Y143187D01*
X93802Y135637D01*
X91263D01*
Y133098D01*
X89924Y131759D01*
X89137Y132086D01*
Y132218D01*
X88869Y133220D01*
X88350Y134117D01*
X87617Y134850D01*
X86720Y135369D01*
X85718Y135637D01*
X84682D01*
X83680Y135369D01*
X82783Y134850D01*
X82050Y134117D01*
X81531Y133220D01*
X81263Y132218D01*
Y131182D01*
X81531Y130180D01*
X82050Y129283D01*
X82783Y128550D01*
X83680Y128031D01*
X84682Y127763D01*
X84814D01*
X85141Y126976D01*
X84137Y125972D01*
X49002D01*
X48026Y125844D01*
X47116Y125467D01*
X46335Y124867D01*
X19993Y98526D01*
X19394Y97745D01*
X19017Y96835D01*
X18888Y95858D01*
Y94881D01*
X18057Y94050D01*
X17305Y94411D01*
X17067Y95302D01*
X16521Y96248D01*
X15748Y97021D01*
X14802Y97567D01*
X13746Y97850D01*
X13700D01*
Y93700D01*
X13200D01*
Y93200D01*
X9050D01*
Y93154D01*
X9333Y92098D01*
X9879Y91152D01*
X10652Y90380D01*
X11598Y89833D01*
X12489Y89595D01*
X12850Y88842D01*
X11802Y87795D01*
X9263D01*
Y79921D01*
X17137D01*
Y82459D01*
X24787Y90110D01*
X25575Y89784D01*
Y86818D01*
X25728Y86050D01*
X26163Y85399D01*
X28886Y82676D01*
X28763Y82218D01*
Y81182D01*
X29031Y80180D01*
X29550Y79283D01*
X30283Y78550D01*
X31180Y78031D01*
X32182Y77763D01*
X33218D01*
X34220Y78031D01*
X35117Y78550D01*
X35850Y79283D01*
X36369Y80180D01*
X36637Y81182D01*
Y82218D01*
X36369Y83220D01*
X35850Y84117D01*
X35117Y84850D01*
X34220Y85369D01*
X33218Y85637D01*
X32182D01*
X31724Y85514D01*
X30001Y87238D01*
X30057Y87525D01*
X30938Y87926D01*
X31098Y87833D01*
X32154Y87550D01*
X32200D01*
Y91700D01*
X32700D01*
Y92200D01*
X36850D01*
Y92246D01*
X36567Y93302D01*
X36020Y94248D01*
X35248Y95021D01*
X34302Y95567D01*
X33496Y95783D01*
X33174Y96574D01*
X36941Y100340D01*
X36968Y100346D01*
X37619Y100781D01*
X45031Y108193D01*
X82783D01*
X83551Y108346D01*
X84202Y108781D01*
X105619Y130198D01*
X106054Y130849D01*
X106145Y131307D01*
X114031Y139193D01*
X133755D01*
X134523Y139346D01*
X135174Y139781D01*
X135619Y140226D01*
X135729Y140390D01*
X135869Y140530D01*
X135944Y140712D01*
X136054Y140877D01*
X136093Y141071D01*
X136169Y141253D01*
Y141451D01*
X136207Y141645D01*
X136169Y141839D01*
Y142036D01*
X136093Y142219D01*
X136054Y142413D01*
X135944Y142577D01*
X135869Y142760D01*
X135729Y142900D01*
X135619Y143064D01*
X135455Y143174D01*
X135315Y143314D01*
X135132Y143389D01*
X134968Y143499D01*
X134774Y143538D01*
X134592Y143613D01*
X134394D01*
X134200Y143652D01*
X134006Y143613D01*
X133808D01*
X133626Y143538D01*
X133432Y143499D01*
X133268Y143389D01*
X133085Y143314D01*
X132978Y143207D01*
X122233D01*
X122022Y143994D01*
X122117Y144050D01*
X122850Y144783D01*
X123369Y145680D01*
X123637Y146682D01*
Y147718D01*
X123369Y148720D01*
X122850Y149617D01*
X122117Y150350D01*
X121220Y150869D01*
X120218Y151137D01*
X119182D01*
X118180Y150869D01*
X117283Y150350D01*
X116550Y149617D01*
X116031Y148720D01*
X115763Y147718D01*
Y146682D01*
X116031Y145680D01*
X116550Y144783D01*
X117283Y144050D01*
X117378Y143994D01*
X117167Y143207D01*
X113200D01*
X112432Y143054D01*
X111781Y142619D01*
X109719Y140558D01*
X109533Y140581D01*
X108872Y141431D01*
X108897Y141625D01*
Y143844D01*
X109036Y144178D01*
X109171Y145206D01*
Y148749D01*
X109036Y149777D01*
X108639Y150735D01*
X108008Y151557D01*
X107185Y152188D01*
X106228Y152585D01*
X105200Y152720D01*
D02*
G37*
G36*
X75718Y135637D02*
X74682D01*
X73680Y135369D01*
X72783Y134850D01*
X72050Y134117D01*
X71531Y133220D01*
X71263Y132218D01*
Y131182D01*
X71531Y130180D01*
X72050Y129283D01*
X72783Y128550D01*
X73680Y128031D01*
X74682Y127763D01*
X75718D01*
X76720Y128031D01*
X77617Y128550D01*
X78350Y129283D01*
X78869Y130180D01*
X79137Y131182D01*
Y132218D01*
X78869Y133220D01*
X78350Y134117D01*
X77617Y134850D01*
X76720Y135369D01*
X75718Y135637D01*
D02*
G37*
G36*
X65718D02*
X64682D01*
X63680Y135369D01*
X62783Y134850D01*
X62050Y134117D01*
X61531Y133220D01*
X61263Y132218D01*
Y131182D01*
X61531Y130180D01*
X62050Y129283D01*
X62783Y128550D01*
X63680Y128031D01*
X64682Y127763D01*
X65718D01*
X66720Y128031D01*
X67617Y128550D01*
X68350Y129283D01*
X68869Y130180D01*
X69137Y131182D01*
Y132218D01*
X68869Y133220D01*
X68350Y134117D01*
X67617Y134850D01*
X66720Y135369D01*
X65718Y135637D01*
D02*
G37*
G36*
X55718D02*
X54682D01*
X53680Y135369D01*
X52783Y134850D01*
X52050Y134117D01*
X51531Y133220D01*
X51263Y132218D01*
Y131182D01*
X51531Y130180D01*
X52050Y129283D01*
X52783Y128550D01*
X53680Y128031D01*
X54682Y127763D01*
X55718D01*
X56720Y128031D01*
X57617Y128550D01*
X58350Y129283D01*
X58869Y130180D01*
X59137Y131182D01*
Y132218D01*
X58869Y133220D01*
X58350Y134117D01*
X57617Y134850D01*
X56720Y135369D01*
X55718Y135637D01*
D02*
G37*
G36*
X45718D02*
X44682D01*
X43680Y135369D01*
X42783Y134850D01*
X42050Y134117D01*
X41531Y133220D01*
X41263Y132218D01*
Y131182D01*
X41531Y130180D01*
X42050Y129283D01*
X42783Y128550D01*
X43680Y128031D01*
X44682Y127763D01*
X45718D01*
X46720Y128031D01*
X47617Y128550D01*
X48350Y129283D01*
X48869Y130180D01*
X49137Y131182D01*
Y132218D01*
X48869Y133220D01*
X48350Y134117D01*
X47617Y134850D01*
X46720Y135369D01*
X45718Y135637D01*
D02*
G37*
G36*
X35718D02*
X34682D01*
X33680Y135369D01*
X32783Y134850D01*
X32050Y134117D01*
X31531Y133220D01*
X31263Y132218D01*
Y131182D01*
X31531Y130180D01*
X32050Y129283D01*
X32783Y128550D01*
X33680Y128031D01*
X34682Y127763D01*
X35718D01*
X36720Y128031D01*
X37617Y128550D01*
X38350Y129283D01*
X38869Y130180D01*
X39137Y131182D01*
Y132218D01*
X38869Y133220D01*
X38350Y134117D01*
X37617Y134850D01*
X36720Y135369D01*
X35718Y135637D01*
D02*
G37*
G36*
X25718D02*
X24682D01*
X23680Y135369D01*
X22783Y134850D01*
X22050Y134117D01*
X21531Y133220D01*
X21263Y132218D01*
Y131182D01*
X21531Y130180D01*
X22050Y129283D01*
X22783Y128550D01*
X23680Y128031D01*
X24682Y127763D01*
X25718D01*
X26720Y128031D01*
X27617Y128550D01*
X28350Y129283D01*
X28869Y130180D01*
X29137Y131182D01*
Y132218D01*
X28869Y133220D01*
X28350Y134117D01*
X27617Y134850D01*
X26720Y135369D01*
X25718Y135637D01*
D02*
G37*
G36*
X15718D02*
X14682D01*
X13680Y135369D01*
X12783Y134850D01*
X12050Y134117D01*
X11531Y133220D01*
X11263Y132218D01*
Y131182D01*
X11531Y130180D01*
X12050Y129283D01*
X12783Y128550D01*
X13680Y128031D01*
X14682Y127763D01*
X15718D01*
X16720Y128031D01*
X17617Y128550D01*
X18350Y129283D01*
X18869Y130180D01*
X19137Y131182D01*
Y132218D01*
X18869Y133220D01*
X18350Y134117D01*
X17617Y134850D01*
X16720Y135369D01*
X15718Y135637D01*
D02*
G37*
G36*
X17700Y124141D02*
Y122700D01*
X19141D01*
X18882Y123324D01*
X18324Y123882D01*
X17700Y124141D01*
D02*
G37*
G36*
X16700D02*
X16076Y123882D01*
X15518Y123324D01*
X15259Y122700D01*
X16700D01*
Y124141D01*
D02*
G37*
G36*
X19141Y121700D02*
X17700D01*
Y120259D01*
X18324Y120518D01*
X18882Y121076D01*
X19141Y121700D01*
D02*
G37*
G36*
X16700D02*
X15259D01*
X15518Y121076D01*
X16076Y120518D01*
X16700Y120259D01*
Y121700D01*
D02*
G37*
G36*
X12700Y97850D02*
X12654D01*
X11598Y97567D01*
X10652Y97021D01*
X9879Y96248D01*
X9333Y95302D01*
X9050Y94246D01*
Y94200D01*
X12700D01*
Y97850D01*
D02*
G37*
G36*
X50746Y95850D02*
X50700D01*
Y92200D01*
X54350D01*
Y92246D01*
X54067Y93302D01*
X53521Y94248D01*
X52748Y95021D01*
X51802Y95567D01*
X50746Y95850D01*
D02*
G37*
G36*
X49700D02*
X49654D01*
X48598Y95567D01*
X47652Y95021D01*
X46880Y94248D01*
X46333Y93302D01*
X46050Y92246D01*
Y92200D01*
X49700D01*
Y95850D01*
D02*
G37*
G36*
X106850Y91200D02*
X103200D01*
Y87550D01*
X103246D01*
X104302Y87833D01*
X105248Y88380D01*
X106020Y89152D01*
X106567Y90098D01*
X106850Y91154D01*
Y91200D01*
D02*
G37*
G36*
X89350D02*
X85700D01*
Y87550D01*
X85746D01*
X86802Y87833D01*
X87748Y88380D01*
X88520Y89152D01*
X89067Y90098D01*
X89350Y91154D01*
Y91200D01*
D02*
G37*
G36*
X134200Y130207D02*
X121200D01*
X120432Y130054D01*
X119781Y129619D01*
X88987Y98825D01*
X83080D01*
X82312Y98672D01*
X81661Y98237D01*
X68883Y85459D01*
X68218Y85637D01*
X67182D01*
X66180Y85369D01*
X65283Y84850D01*
X64550Y84117D01*
X64031Y83220D01*
X63763Y82218D01*
Y81182D01*
X64031Y80180D01*
X64550Y79283D01*
X65283Y78550D01*
X66180Y78031D01*
X67182Y77763D01*
X68218D01*
X69220Y78031D01*
X70117Y78550D01*
X70850Y79283D01*
X71369Y80180D01*
X71637Y81182D01*
Y82218D01*
X71570Y82469D01*
X80326Y91226D01*
X81117Y90904D01*
X81333Y90098D01*
X81880Y89152D01*
X82652Y88380D01*
X83598Y87833D01*
X84654Y87550D01*
X84700D01*
Y91700D01*
X85200D01*
Y92200D01*
X89350D01*
Y92246D01*
X89067Y93302D01*
X88650Y94024D01*
X88982Y94811D01*
X89818D01*
X90586Y94964D01*
X91237Y95399D01*
X122031Y126193D01*
X134200D01*
X134394Y126232D01*
X134592D01*
X134774Y126307D01*
X134968Y126346D01*
X135132Y126455D01*
X135315Y126531D01*
X135455Y126671D01*
X135619Y126781D01*
X135729Y126945D01*
X135869Y127085D01*
X135944Y127268D01*
X136054Y127432D01*
X136093Y127626D01*
X136169Y127808D01*
Y128006D01*
X136207Y128200D01*
X136169Y128394D01*
Y128592D01*
X136093Y128774D01*
X136054Y128968D01*
X135944Y129132D01*
X135869Y129315D01*
X135729Y129455D01*
X135619Y129619D01*
X135455Y129729D01*
X135315Y129869D01*
X135132Y129945D01*
X134968Y130054D01*
X134774Y130093D01*
X134592Y130168D01*
X134394D01*
X134200Y130207D01*
D02*
G37*
G36*
X71850Y91200D02*
X68200D01*
Y87550D01*
X68246D01*
X69302Y87833D01*
X70248Y88380D01*
X71021Y89152D01*
X71567Y90098D01*
X71850Y91154D01*
Y91200D01*
D02*
G37*
G36*
X134200Y138337D02*
X134006Y138298D01*
X133808D01*
X133626Y138223D01*
X133432Y138184D01*
X133268Y138074D01*
X133085Y137999D01*
X132945Y137859D01*
X132781Y137749D01*
X131739Y136707D01*
X116200D01*
X115432Y136554D01*
X114781Y136119D01*
X82869Y104207D01*
X70700D01*
X69932Y104054D01*
X69281Y103619D01*
X51176Y85514D01*
X50718Y85637D01*
X49682D01*
X48680Y85369D01*
X47783Y84850D01*
X47050Y84117D01*
X46531Y83220D01*
X46263Y82218D01*
Y81182D01*
X46531Y80180D01*
X47050Y79283D01*
X47783Y78550D01*
X48680Y78031D01*
X49682Y77763D01*
X50718D01*
X51720Y78031D01*
X52617Y78550D01*
X53350Y79283D01*
X53869Y80180D01*
X54137Y81182D01*
Y82218D01*
X54014Y82676D01*
X62823Y91484D01*
X63194Y91331D01*
X63562Y91110D01*
X63833Y90098D01*
X64380Y89152D01*
X65152Y88380D01*
X66098Y87833D01*
X67154Y87550D01*
X67200D01*
Y91700D01*
X67700D01*
Y92200D01*
X71850D01*
Y92246D01*
X71567Y93302D01*
X71021Y94248D01*
X70248Y95021D01*
X69302Y95567D01*
X68290Y95838D01*
X68069Y96206D01*
X67915Y96577D01*
X71531Y100193D01*
X83700D01*
X84468Y100346D01*
X85119Y100781D01*
X117031Y132693D01*
X132570D01*
X133338Y132846D01*
X133989Y133281D01*
X135619Y134911D01*
X135729Y135075D01*
X135869Y135215D01*
X135944Y135398D01*
X136054Y135562D01*
X136093Y135756D01*
X136169Y135938D01*
Y136136D01*
X136207Y136330D01*
X136169Y136524D01*
Y136722D01*
X136093Y136904D01*
X136054Y137098D01*
X135944Y137262D01*
X135869Y137445D01*
X135729Y137585D01*
X135619Y137749D01*
X135455Y137859D01*
X135315Y137999D01*
X135132Y138074D01*
X134968Y138184D01*
X134774Y138223D01*
X134592Y138298D01*
X134394D01*
X134200Y138337D01*
D02*
G37*
G36*
X54350Y91200D02*
X50700D01*
Y87550D01*
X50746D01*
X51802Y87833D01*
X52748Y88380D01*
X53521Y89152D01*
X54067Y90098D01*
X54350Y91154D01*
Y91200D01*
D02*
G37*
G36*
X49700D02*
X46050D01*
Y91154D01*
X46333Y90098D01*
X46880Y89152D01*
X47652Y88380D01*
X48598Y87833D01*
X49654Y87550D01*
X49700D01*
Y91200D01*
D02*
G37*
G36*
X36850D02*
X33200D01*
Y87550D01*
X33246D01*
X34302Y87833D01*
X35248Y88380D01*
X36020Y89152D01*
X36567Y90098D01*
X36850Y91154D01*
Y91200D01*
D02*
G37*
G36*
X5700Y79641D02*
Y78200D01*
X7141D01*
X6882Y78824D01*
X6324Y79382D01*
X5700Y79641D01*
D02*
G37*
G36*
X4700D02*
X4076Y79382D01*
X3518Y78824D01*
X3259Y78200D01*
X4700D01*
Y79641D01*
D02*
G37*
G36*
X21700Y78641D02*
Y77200D01*
X23141D01*
X22882Y77824D01*
X22324Y78382D01*
X21700Y78641D01*
D02*
G37*
G36*
X20700D02*
X20076Y78382D01*
X19518Y77824D01*
X19259Y77200D01*
X20700D01*
Y78641D01*
D02*
G37*
G36*
X7141Y77200D02*
X5700D01*
Y75759D01*
X6324Y76018D01*
X6882Y76576D01*
X7141Y77200D01*
D02*
G37*
G36*
X4700D02*
X3259D01*
X3518Y76576D01*
X4076Y76018D01*
X4700Y75759D01*
Y77200D01*
D02*
G37*
G36*
X23141Y76200D02*
X21700D01*
Y74759D01*
X22324Y75018D01*
X22882Y75576D01*
X23141Y76200D01*
D02*
G37*
G36*
X20700D02*
X19259D01*
X19518Y75576D01*
X20076Y75018D01*
X20700Y74759D01*
Y76200D01*
D02*
G37*
G36*
X120718Y75637D02*
X119682D01*
X118680Y75369D01*
X117783Y74850D01*
X117050Y74117D01*
X116531Y73220D01*
X116263Y72218D01*
Y71182D01*
X116531Y70180D01*
X117050Y69283D01*
X117783Y68550D01*
X118680Y68031D01*
X119682Y67763D01*
X120718D01*
X121720Y68031D01*
X122617Y68550D01*
X123350Y69283D01*
X123869Y70180D01*
X124137Y71182D01*
Y72218D01*
X123869Y73220D01*
X123350Y74117D01*
X122617Y74850D01*
X121720Y75369D01*
X120718Y75637D01*
D02*
G37*
G36*
X103218D02*
X102182D01*
X101180Y75369D01*
X100283Y74850D01*
X99550Y74117D01*
X99031Y73220D01*
X98763Y72218D01*
Y71182D01*
X99031Y70180D01*
X99550Y69283D01*
X100283Y68550D01*
X101180Y68031D01*
X102182Y67763D01*
X103218D01*
X104220Y68031D01*
X105117Y68550D01*
X105850Y69283D01*
X106369Y70180D01*
X106637Y71182D01*
Y72218D01*
X106369Y73220D01*
X105850Y74117D01*
X105117Y74850D01*
X104220Y75369D01*
X103218Y75637D01*
D02*
G37*
G36*
X85718D02*
X84682D01*
X83680Y75369D01*
X82783Y74850D01*
X82050Y74117D01*
X81531Y73220D01*
X81263Y72218D01*
Y71182D01*
X81531Y70180D01*
X82050Y69283D01*
X82783Y68550D01*
X83680Y68031D01*
X84682Y67763D01*
X85718D01*
X86720Y68031D01*
X87617Y68550D01*
X88350Y69283D01*
X88869Y70180D01*
X89137Y71182D01*
Y72218D01*
X88869Y73220D01*
X88350Y74117D01*
X87617Y74850D01*
X86720Y75369D01*
X85718Y75637D01*
D02*
G37*
G36*
X68218D02*
X67182D01*
X66180Y75369D01*
X65283Y74850D01*
X64550Y74117D01*
X64031Y73220D01*
X63763Y72218D01*
Y71182D01*
X64031Y70180D01*
X64550Y69283D01*
X65283Y68550D01*
X66180Y68031D01*
X67182Y67763D01*
X68218D01*
X69220Y68031D01*
X70117Y68550D01*
X70850Y69283D01*
X71369Y70180D01*
X71637Y71182D01*
Y72218D01*
X71369Y73220D01*
X70850Y74117D01*
X70117Y74850D01*
X69220Y75369D01*
X68218Y75637D01*
D02*
G37*
G36*
X50718D02*
X49682D01*
X48680Y75369D01*
X47783Y74850D01*
X47050Y74117D01*
X46531Y73220D01*
X46263Y72218D01*
Y71182D01*
X46531Y70180D01*
X47050Y69283D01*
X47783Y68550D01*
X48680Y68031D01*
X49682Y67763D01*
X50718D01*
X51720Y68031D01*
X52617Y68550D01*
X53350Y69283D01*
X53869Y70180D01*
X54137Y71182D01*
Y72218D01*
X53869Y73220D01*
X53350Y74117D01*
X52617Y74850D01*
X51720Y75369D01*
X50718Y75637D01*
D02*
G37*
G36*
X33218D02*
X32182D01*
X31180Y75369D01*
X30283Y74850D01*
X29550Y74117D01*
X29031Y73220D01*
X28763Y72218D01*
Y71182D01*
X29031Y70180D01*
X29550Y69283D01*
X30283Y68550D01*
X31180Y68031D01*
X32182Y67763D01*
X33218D01*
X34220Y68031D01*
X35117Y68550D01*
X35850Y69283D01*
X36369Y70180D01*
X36637Y71182D01*
Y72218D01*
X36369Y73220D01*
X35850Y74117D01*
X35117Y74850D01*
X34220Y75369D01*
X33218Y75637D01*
D02*
G37*
G36*
X120718Y65637D02*
X119682D01*
X118680Y65369D01*
X117783Y64850D01*
X117050Y64117D01*
X116531Y63220D01*
X116263Y62218D01*
Y61182D01*
X116531Y60180D01*
X117050Y59283D01*
X117783Y58550D01*
X118680Y58031D01*
X119682Y57763D01*
X120718D01*
X121720Y58031D01*
X122617Y58550D01*
X123350Y59283D01*
X123869Y60180D01*
X124137Y61182D01*
Y62218D01*
X123869Y63220D01*
X123350Y64117D01*
X122617Y64850D01*
X121720Y65369D01*
X120718Y65637D01*
D02*
G37*
G36*
X103218D02*
X102182D01*
X101180Y65369D01*
X100283Y64850D01*
X99550Y64117D01*
X99031Y63220D01*
X98763Y62218D01*
Y61182D01*
X99031Y60180D01*
X99550Y59283D01*
X100283Y58550D01*
X101180Y58031D01*
X102182Y57763D01*
X103218D01*
X104220Y58031D01*
X105117Y58550D01*
X105850Y59283D01*
X106369Y60180D01*
X106637Y61182D01*
Y62218D01*
X106369Y63220D01*
X105850Y64117D01*
X105117Y64850D01*
X104220Y65369D01*
X103218Y65637D01*
D02*
G37*
G36*
X85718D02*
X84682D01*
X83680Y65369D01*
X82783Y64850D01*
X82050Y64117D01*
X81531Y63220D01*
X81263Y62218D01*
Y61182D01*
X81531Y60180D01*
X82050Y59283D01*
X82783Y58550D01*
X83680Y58031D01*
X84682Y57763D01*
X85718D01*
X86720Y58031D01*
X87617Y58550D01*
X88350Y59283D01*
X88869Y60180D01*
X89137Y61182D01*
Y62218D01*
X88869Y63220D01*
X88350Y64117D01*
X87617Y64850D01*
X86720Y65369D01*
X85718Y65637D01*
D02*
G37*
G36*
X68218D02*
X67182D01*
X66180Y65369D01*
X65283Y64850D01*
X64550Y64117D01*
X64031Y63220D01*
X63763Y62218D01*
Y61182D01*
X64031Y60180D01*
X64550Y59283D01*
X65283Y58550D01*
X66180Y58031D01*
X67182Y57763D01*
X68218D01*
X69220Y58031D01*
X70117Y58550D01*
X70850Y59283D01*
X71369Y60180D01*
X71637Y61182D01*
Y62218D01*
X71369Y63220D01*
X70850Y64117D01*
X70117Y64850D01*
X69220Y65369D01*
X68218Y65637D01*
D02*
G37*
G36*
X9720Y43653D02*
X9700D01*
Y40200D01*
X13153D01*
Y40220D01*
X12883Y41226D01*
X12363Y42127D01*
X11627Y42863D01*
X10726Y43383D01*
X9720Y43653D01*
D02*
G37*
G36*
X8700D02*
X8680D01*
X7674Y43383D01*
X6773Y42863D01*
X6037Y42127D01*
X5517Y41226D01*
X5247Y40220D01*
Y40200D01*
X8700D01*
Y43653D01*
D02*
G37*
G36*
X13153Y39200D02*
X9700D01*
Y35747D01*
X9720D01*
X10726Y36017D01*
X11627Y36537D01*
X12363Y37273D01*
X12883Y38174D01*
X13153Y39180D01*
Y39200D01*
D02*
G37*
G36*
X8700D02*
X5247D01*
Y39180D01*
X5517Y38174D01*
X6037Y37273D01*
X6773Y36537D01*
X7674Y36017D01*
X8680Y35747D01*
X8700D01*
Y39200D01*
D02*
G37*
G36*
Y34505D02*
X7231D01*
X6457Y34403D01*
X5734Y34104D01*
X5114Y33628D01*
X4639Y33008D01*
X4339Y32286D01*
X4237Y31511D01*
Y20200D01*
X8700D01*
Y34505D01*
D02*
G37*
G36*
X205200Y197641D02*
Y196200D01*
X206641D01*
X206382Y196824D01*
X205824Y197382D01*
X205200Y197641D01*
D02*
G37*
G36*
X204200D02*
X203576Y197382D01*
X203018Y196824D01*
X202759Y196200D01*
X204200D01*
Y197641D01*
D02*
G37*
G36*
X206641Y195200D02*
X205200D01*
Y193759D01*
X205824Y194018D01*
X206382Y194576D01*
X206641Y195200D01*
D02*
G37*
G36*
X204200D02*
X202759D01*
X203018Y194576D01*
X203576Y194018D01*
X204200Y193759D01*
Y195200D01*
D02*
G37*
G36*
X195700Y174595D02*
Y173155D01*
X197141D01*
X196882Y173779D01*
X196324Y174337D01*
X195700Y174595D01*
D02*
G37*
G36*
X194700D02*
X194076Y174337D01*
X193518Y173779D01*
X193259Y173155D01*
X194700D01*
Y174595D01*
D02*
G37*
G36*
X197141Y172155D02*
X195700D01*
Y170714D01*
X196324Y170973D01*
X196882Y171531D01*
X197141Y172155D01*
D02*
G37*
G36*
X194700D02*
X193259D01*
X193518Y171531D01*
X194076Y170973D01*
X194700Y170714D01*
Y172155D01*
D02*
G37*
G36*
X204037Y125905D02*
X203413Y125647D01*
X202855Y125089D01*
X202596Y124465D01*
X204037D01*
Y125905D01*
D02*
G37*
G36*
Y123465D02*
X202596D01*
X202855Y122841D01*
X203413Y122283D01*
X204037Y122024D01*
Y123465D01*
D02*
G37*
G36*
X203200Y47641D02*
X202576Y47382D01*
X202018Y46824D01*
X201759Y46200D01*
X203200D01*
Y47641D01*
D02*
G37*
G36*
Y45200D02*
X201759D01*
X202018Y44576D01*
X202576Y44018D01*
X203200Y43759D01*
Y45200D01*
D02*
G37*
G36*
X184700Y69141D02*
X184076Y68882D01*
X183518Y68324D01*
X183259Y67700D01*
X184700D01*
Y69141D01*
D02*
G37*
G36*
Y66700D02*
X183259D01*
X183518Y66076D01*
X184076Y65518D01*
X184700Y65259D01*
Y66700D01*
D02*
G37*
G36*
X192700Y68163D02*
Y66722D01*
X194141D01*
X193882Y67346D01*
X193324Y67905D01*
X192700Y68163D01*
D02*
G37*
G36*
X194141Y65722D02*
X192700D01*
Y64282D01*
X193324Y64540D01*
X193882Y65098D01*
X194141Y65722D01*
D02*
G37*
G36*
X219720Y44153D02*
X219700D01*
Y40700D01*
X223153D01*
Y40720D01*
X222883Y41726D01*
X222363Y42627D01*
X221627Y43363D01*
X220726Y43883D01*
X219720Y44153D01*
D02*
G37*
G36*
X218700D02*
X218680D01*
X217674Y43883D01*
X216773Y43363D01*
X216037Y42627D01*
X215517Y41726D01*
X215247Y40720D01*
Y40700D01*
X218700D01*
Y44153D01*
D02*
G37*
G36*
X223153Y39700D02*
X219700D01*
Y36247D01*
X219720D01*
X220726Y36517D01*
X221627Y37037D01*
X222363Y37773D01*
X222883Y38674D01*
X223153Y39680D01*
Y39700D01*
D02*
G37*
G36*
X218700D02*
X215247D01*
Y39680D01*
X215517Y38674D01*
X216037Y37773D01*
X216773Y37037D01*
X217674Y36517D01*
X218680Y36247D01*
X218700D01*
Y39700D01*
D02*
G37*
G36*
X221168Y34505D02*
X219700D01*
Y20200D01*
X224163D01*
Y31511D01*
X224061Y32286D01*
X223762Y33008D01*
X223286Y33628D01*
X222666Y34104D01*
X221943Y34403D01*
X221168Y34505D01*
D02*
G37*
%LPD*%
D13*
X172700Y156259D02*
Y163200D01*
X187366Y177866D02*
X210534D01*
X172700Y163200D02*
X187366Y177866D01*
X193700Y210700D02*
X213200D01*
X224700Y199200D01*
Y163700D02*
Y199200D01*
Y153520D02*
Y163700D01*
X210534Y177866D02*
X224700Y163700D01*
X133755Y141200D02*
X134200Y141645D01*
X113200Y141200D02*
X133755D01*
X104200Y132200D02*
X113200Y141200D01*
X139432Y118432D02*
X148314D01*
X150082Y120200D01*
X171700Y103370D02*
Y105826D01*
X150030Y81700D02*
X171700Y103370D01*
X120200Y81700D02*
X150030D01*
X102700D02*
X139432Y118432D01*
X121200Y128200D02*
X134200D01*
X44200Y110200D02*
X82783D01*
X104200Y131617D01*
Y132200D01*
X36200Y102200D02*
X44200Y110200D01*
X35962Y102200D02*
X36200D01*
X27582Y93820D02*
X35962Y102200D01*
X27582Y86818D02*
X32700Y81700D01*
X27582Y86818D02*
Y93820D01*
X132570Y134700D02*
X134200Y136330D01*
X83700Y102200D02*
X116200Y134700D01*
X132570D01*
X89818Y96818D02*
X121200Y128200D01*
X83080Y96818D02*
X89818D01*
X70700Y102200D02*
X83700D01*
X50200Y81700D02*
X70700Y102200D01*
X67962Y81700D02*
X83080Y96818D01*
X67700Y81700D02*
X67962D01*
X125200Y121700D02*
X138200D01*
X85200Y81700D02*
X125200Y121700D01*
X138200D02*
X148700Y132200D01*
Y138200D01*
X49200Y19700D02*
X49700Y20200D01*
Y61200D02*
X50200Y61700D01*
X49700Y20200D02*
Y61200D01*
X32700Y48187D02*
Y61700D01*
X29200Y44687D02*
X32700Y48187D01*
X29200Y19700D02*
Y44687D01*
D36*
Y19700D02*
D03*
X19200D02*
D03*
X69200D02*
D03*
X59200D02*
D03*
X49200D02*
D03*
X99200D02*
D03*
X89200D02*
D03*
X129200D02*
D03*
X119200D02*
D03*
X159200D02*
D03*
X149200D02*
D03*
X189200D02*
D03*
X179200D02*
D03*
X219200D02*
D03*
X209200D02*
D03*
X79200D02*
D03*
X39200D02*
D03*
X9200D02*
D03*
X199200D02*
D03*
X169200D02*
D03*
X139200D02*
D03*
X109200D02*
D03*
D37*
X130969Y171006D02*
Y171462D01*
X125838Y165875D02*
X130969Y171006D01*
Y171462D02*
X135898Y176392D01*
X115253Y165875D02*
X125838D01*
X129000Y172358D02*
X135350Y178708D01*
X138425Y176392D02*
X139117Y175700D01*
X113622Y169812D02*
X122652D01*
X127907Y163907D02*
X134890Y170890D01*
Y171765D02*
X136958Y173833D01*
X134890Y170890D02*
Y171765D01*
X135539Y182700D02*
X139200D01*
X122652Y169812D02*
X135539Y182700D01*
X135350Y178708D02*
Y178891D01*
X139117Y175700D02*
X147200D01*
X135898Y176392D02*
X138425D01*
X130256Y161938D02*
X136161Y167844D01*
X116883Y161938D02*
X130256D01*
X116068Y163907D02*
X127907D01*
X56499D02*
X113284D01*
X114100Y161938D02*
X116068Y163907D01*
X35200Y175206D02*
X48468Y161938D01*
X64531Y165875D02*
X112469D01*
X113284Y163907D02*
X115253Y165875D01*
X125022Y167844D02*
X129000Y171821D01*
X72562Y167844D02*
X111653D01*
X114915Y159970D02*
X116883Y161938D01*
X55200Y175206D02*
X64531Y165875D01*
X40436Y159970D02*
X114915D01*
X112469Y165875D02*
X114437Y167844D01*
X80594Y169812D02*
X110838D01*
X111653Y167844D02*
X113622Y169812D01*
X45200Y175206D02*
X56499Y163907D01*
X110838Y169812D02*
X116700Y175674D01*
X48468Y161938D02*
X114100D01*
X114437Y167844D02*
X125022D01*
X116700Y175674D02*
Y182200D01*
X65200Y175206D02*
X72562Y167844D01*
X75200Y175206D02*
X80594Y169812D01*
X109920Y183200D02*
X113700D01*
X108920Y184200D02*
X109920Y183200D01*
X100651Y184200D02*
X108920D01*
X95200Y178749D02*
X100651Y184200D01*
X95200Y176978D02*
Y178749D01*
X100200Y188747D02*
X101680Y187267D01*
X111700D01*
X25200Y175206D02*
X40436Y159970D01*
X25200Y175206D02*
Y176978D01*
X129000Y171821D02*
Y172358D01*
X35200Y175206D02*
Y176978D01*
X45200Y175206D02*
Y176978D01*
X55200Y175206D02*
Y176978D01*
X65200Y175206D02*
Y176978D01*
X75200Y175206D02*
Y176978D01*
X58221Y305513D02*
Y309221D01*
X57885Y305177D02*
X58221Y305513D01*
X57885Y283515D02*
Y305177D01*
X58221Y309221D02*
X59200Y310200D01*
X57885Y283515D02*
X61076Y280325D01*
X30601Y305232D02*
Y305643D01*
X29200Y307043D02*
Y310200D01*
Y307043D02*
X30601Y305643D01*
Y305232D02*
X62632Y273200D01*
X49200Y289416D02*
Y310200D01*
X53230Y285386D02*
X53230D01*
X49200Y289416D02*
X53230Y285386D01*
X53230D02*
X57231Y281385D01*
Y281385D02*
X60916Y277700D01*
X62632Y273200D02*
X104375D01*
X61076Y280325D02*
X117576D01*
X60916Y277700D02*
X109875D01*
X117576Y280325D02*
X144672Y253228D01*
X109875Y277700D02*
X134200Y253375D01*
X100439Y233732D02*
X105200Y228972D01*
X97700Y233732D02*
X100439D01*
X105200Y227200D02*
Y228972D01*
X107208Y219071D02*
X107759Y218520D01*
X110909Y218200D02*
X110926Y218217D01*
X107208Y219071D02*
Y219200D01*
X107759Y218200D02*
Y218520D01*
X110926Y218217D02*
Y220123D01*
X33928Y233700D02*
X97668D01*
X97700Y233732D01*
X106393Y236027D02*
X109728Y232692D01*
X107208Y237995D02*
X111696Y233507D01*
X57665Y239964D02*
X108024D01*
X41602Y236027D02*
X106393D01*
X114255Y221700D02*
Y233732D01*
X49633Y237995D02*
X107208D01*
X111696Y220893D02*
Y233507D01*
X108024Y239964D02*
X114255Y233732D01*
X109728Y221708D02*
Y232692D01*
X49200Y248428D02*
X57665Y239964D01*
X65696Y241932D02*
X110968D01*
X73728Y243901D02*
X111783D01*
X59200Y248428D02*
X65696Y241932D01*
X39200Y248428D02*
X49633Y237995D01*
X29200Y248428D02*
X41602Y236027D01*
X19200Y248428D02*
Y250200D01*
Y248428D02*
X33928Y233700D01*
X107208Y219200D02*
X108909Y220901D01*
X108920D01*
X109728Y221708D01*
X110926Y220123D02*
X111696Y220893D01*
X69200Y248428D02*
X73728Y243901D01*
X29200Y248428D02*
Y250200D01*
X111783Y243901D02*
X127169Y228515D01*
X39200Y248428D02*
Y250200D01*
X110968Y241932D02*
X125200Y227700D01*
Y206605D02*
Y227700D01*
X129200Y208173D02*
X137146Y200227D01*
X127169Y207420D02*
X142349Y192240D01*
X129200Y208173D02*
Y242025D01*
X127169Y207420D02*
Y228515D01*
X125200Y206605D02*
X141534Y190271D01*
X124672Y246553D02*
X129200Y242025D01*
X142069Y190271D02*
X158200Y174141D01*
X49200Y248428D02*
Y250200D01*
X155574Y189077D02*
X170676Y173975D01*
X149566Y198703D02*
Y210995D01*
Y198703D02*
X173235Y175034D01*
X173823Y173840D02*
Y174160D01*
X173235Y174748D02*
X173823Y174160D01*
X154442Y189077D02*
X155574D01*
X139566Y203953D02*
X154442Y189077D01*
X173235Y174748D02*
Y175034D01*
X164319Y175104D02*
X165141Y174282D01*
Y173962D02*
Y174282D01*
X164319Y175104D02*
Y175581D01*
X147253Y192647D02*
X164319Y175581D01*
X161759Y174081D02*
Y174200D01*
X145281Y190679D02*
X161759Y174200D01*
X137146Y200227D02*
X137681D01*
X145261Y192647D01*
X144446Y190679D02*
X145281D01*
X141534Y190271D02*
X142069D01*
X142349Y192240D02*
X142885D01*
X144446Y190679D01*
X145261Y192647D02*
X147253D01*
X59200Y248428D02*
Y250200D01*
X69200Y248428D02*
Y250200D01*
X139566Y203953D02*
Y210995D01*
X124672Y246553D02*
Y249228D01*
X124200Y249700D02*
X124672Y249228D01*
X104375Y273200D02*
X124200Y253375D01*
Y249700D02*
Y253375D01*
X186354Y185020D02*
X186898Y184475D01*
X179070Y179200D02*
Y187059D01*
X159566Y206563D02*
X179070Y187059D01*
X186354Y185020D02*
Y193763D01*
X181830Y179759D02*
X183755Y181684D01*
X181830Y178340D02*
Y179759D01*
X166322Y187786D02*
X177467Y176641D01*
X186898Y181476D02*
Y184475D01*
X180130Y176641D02*
X181830Y178340D01*
X177467Y176641D02*
X180130D01*
X166322Y187786D02*
Y197023D01*
X138700Y211861D02*
X139566Y210995D01*
X153700Y209645D02*
X166322Y197023D01*
X138700Y211861D02*
Y213673D01*
X134200Y218173D02*
X138700Y213673D01*
X134200Y218173D02*
Y253375D01*
X148700Y211861D02*
X149566Y210995D01*
X159566Y206563D02*
Y211861D01*
X153700Y209645D02*
Y210700D01*
X148700Y211861D02*
Y213673D01*
X144566Y217807D02*
Y235464D01*
Y217807D02*
X148700Y213673D01*
X144566Y235464D02*
X144672Y235570D01*
Y253228D01*
X159200Y279382D02*
Y310200D01*
X154200Y217227D02*
X159566Y211861D01*
X154200Y217227D02*
Y274382D01*
X159200Y279382D01*
X186579Y132058D02*
Y171273D01*
Y132058D02*
X186805Y131833D01*
X186354Y171499D02*
X186579Y171273D01*
X190245Y132616D02*
Y172655D01*
Y132616D02*
X190291Y132571D01*
X190200Y172700D02*
X190245Y172655D01*
X183200Y126711D02*
Y169200D01*
Y126711D02*
X186484Y123427D01*
X180641Y126486D02*
Y131529D01*
Y126486D02*
X182759Y124368D01*
X173700Y210700D02*
X177755D01*
X179566Y212511D01*
Y213593D01*
X181988Y216015D01*
X187834Y209539D02*
Y213593D01*
X185412Y216015D02*
X187834Y213593D01*
X181988Y216015D02*
X185412D01*
X190291Y181512D02*
Y207082D01*
X187834Y209539D02*
X190291Y207082D01*
X183700Y196416D02*
Y210700D01*
Y196416D02*
X186354Y193763D01*
X226542Y114771D02*
Y147177D01*
X220200Y153520D02*
X226542Y147177D01*
X120700Y157200D02*
X137924D01*
X152889Y142235D01*
X186484Y115200D02*
Y123427D01*
X180578Y105010D02*
X182759Y107191D01*
Y124368D01*
X177074Y155574D02*
X178574D01*
X175200Y153700D02*
X177074Y155574D01*
X170429Y153700D02*
X175200D01*
X164700Y159429D02*
X170429Y153700D01*
X152889Y142235D02*
X165235D01*
X178574Y155574D01*
X179700D01*
X158794Y134515D02*
X179700Y155420D01*
Y155574D01*
X158794Y134361D02*
Y134515D01*
X156235Y125102D02*
X157759Y123578D01*
X161354Y128098D02*
Y131511D01*
X160763Y127507D02*
X161354Y128098D01*
X160763Y124414D02*
Y127507D01*
X156235Y125102D02*
Y131538D01*
X196652Y152200D02*
X217700D01*
X196426Y151974D02*
X196652Y152200D01*
X199881Y132501D02*
X201454D01*
X198322Y134060D02*
X199881Y132501D01*
X201454D02*
X208755Y125200D01*
X196206Y136647D02*
X204537D01*
X198002Y134060D02*
X198322D01*
X204537Y136647D02*
X210723Y130461D01*
X129200Y63700D02*
X131176Y65676D01*
X138522D01*
X174672Y101827D01*
X152889Y131389D02*
Y131538D01*
X152641Y131141D02*
X152889Y131389D01*
X152641Y118425D02*
Y131141D01*
X126452Y92236D02*
X152641Y118425D01*
X129602Y88731D02*
Y92602D01*
X126452Y89200D02*
Y92236D01*
X174672Y129673D02*
X176511Y131511D01*
X174672Y101827D02*
Y129673D01*
X160763Y124414D02*
X161200Y123977D01*
Y117200D02*
Y123977D01*
X157759Y116894D02*
Y123578D01*
X129602Y92602D02*
X155200Y118200D01*
X132751Y89200D02*
Y91886D01*
X157759Y116894D01*
X135901Y89425D02*
Y91901D01*
X161200Y117200D01*
X159962Y110594D02*
X161881Y112514D01*
X139050Y89200D02*
Y89520D01*
X159962Y103603D02*
Y110594D01*
X152055Y95696D02*
X159962Y103603D01*
X145077Y95696D02*
X152055D01*
X139641Y90260D02*
X145077Y95696D01*
X139641Y90110D02*
Y90260D01*
X139050Y89520D02*
X139641Y90110D01*
X142200Y89484D02*
X146444Y93727D01*
X147640Y91759D02*
X153686D01*
X146444Y93727D02*
X152871D01*
X165290Y107409D02*
Y107409D01*
X146141Y90260D02*
X147640Y91759D01*
X142200Y89200D02*
Y89484D01*
X162521Y103378D02*
Y108910D01*
X152871Y93727D02*
X162521Y103378D01*
X146141Y90125D02*
Y90260D01*
X145535Y89200D02*
Y89520D01*
X146141Y90125D01*
X153686Y91759D02*
X165290Y103363D01*
Y107409D01*
X168637Y103926D02*
Y109763D01*
X153911Y89200D02*
X168637Y103926D01*
X148700Y89200D02*
X153911D01*
X161881Y112514D02*
Y113827D01*
X162107Y114053D01*
X206200Y94429D02*
X226542Y114771D01*
X209200Y19700D02*
Y30288D01*
X206200Y33288D02*
X209200Y30288D01*
X206200Y33288D02*
Y94429D01*
X178610Y105826D02*
X180200Y107416D01*
X180578Y99381D02*
Y105010D01*
X202232Y96028D02*
X222605Y116402D01*
X130578Y35461D02*
X190420Y95304D01*
X127713Y43731D02*
X182546Y98565D01*
X194358Y93673D02*
Y99290D01*
X128528Y41763D02*
X184515Y97750D01*
X149200Y48516D02*
X194358Y93673D01*
X190420Y100933D02*
X210723Y121236D01*
X188452Y96119D02*
Y101749D01*
X169200Y62948D02*
X198294Y92042D01*
X194358Y99290D02*
X214700Y119632D01*
X200263Y96844D02*
X220637Y117218D01*
X188452Y101749D02*
X208755Y122052D01*
X186484Y102564D02*
X198200Y114281D01*
X196326Y92858D02*
Y98474D01*
X184515Y97750D02*
Y103379D01*
X182546Y104195D02*
X190200Y111848D01*
X176641Y101012D02*
Y106641D01*
X189200Y77380D02*
X202232Y90412D01*
X200263Y91227D02*
Y96844D01*
X196326Y98474D02*
X216700Y118848D01*
X178610Y100196D02*
Y105826D01*
X192389Y94489D02*
Y100105D01*
X126113Y47700D02*
X178610Y100196D01*
X198294Y97659D02*
X218669Y118033D01*
X125298Y49668D02*
X176641Y101012D01*
X192389Y100105D02*
X212732Y120448D01*
X199200Y84596D02*
X204200Y89596D01*
X159200Y55732D02*
X196326Y92858D01*
X184515Y103379D02*
X192168Y111033D01*
X176641Y106641D02*
X177700Y107700D01*
X190420Y95304D02*
Y100933D01*
X204200Y89596D02*
Y95213D01*
X224574Y115587D01*
X182546Y98565D02*
Y104195D01*
X186484Y96935D02*
Y102564D01*
X126897Y45700D02*
X180578Y99381D01*
X129343Y39794D02*
X186484Y96935D01*
X202232Y90412D02*
Y96028D01*
X179200Y70164D02*
X200263Y91227D01*
X139200Y41300D02*
X192389Y94489D01*
X130159Y37826D02*
X188452Y96119D01*
X198294Y92042D02*
Y97659D01*
X72668Y49668D02*
X125298D01*
X79700Y47700D02*
X126113D01*
X87700Y45700D02*
X126897D01*
X98153Y43731D02*
X127713D01*
X106184Y41763D02*
X128528D01*
X114216Y39794D02*
X129343D01*
X149200Y19700D02*
Y48516D01*
X122247Y37826D02*
X130159D01*
X159200Y19700D02*
Y55732D01*
X130578Y21078D02*
Y35461D01*
X179200Y19700D02*
Y70164D01*
X189200Y19700D02*
Y77380D01*
X192168Y111033D02*
Y112169D01*
X169200Y19700D02*
Y62948D01*
X199200Y19700D02*
Y84596D01*
X192168Y112169D02*
X195200Y115200D01*
X139200Y19700D02*
Y41300D01*
X177641Y120582D02*
X177759Y120700D01*
X177641Y117640D02*
Y120582D01*
X129200Y19700D02*
X130578Y21078D01*
X177700Y107700D02*
Y117581D01*
X177641Y117640D02*
X177700Y117581D01*
X180200Y107416D02*
Y118700D01*
X190200Y111848D02*
Y115200D01*
X198200Y114281D02*
Y117700D01*
X214700Y119632D02*
Y134422D01*
X224574Y115587D02*
Y145326D01*
X212732Y120448D02*
Y132484D01*
X208755Y122052D02*
Y125200D01*
X222605Y116402D02*
Y144511D01*
X218669Y118033D02*
Y140203D01*
X210723Y121236D02*
Y130461D01*
X220637Y117218D02*
Y143695D01*
X216700Y118848D02*
Y137700D01*
X119200Y34779D02*
X122247Y37826D01*
X119200Y19700D02*
Y34779D01*
X207700Y137515D02*
X212732Y132484D01*
X210723Y138399D02*
X214700Y134422D01*
X213200Y141200D02*
X216700Y137700D01*
X217569Y146763D02*
X220637Y143695D01*
X217700Y152200D02*
X224574Y145326D01*
X217794Y149322D02*
X222605Y144511D01*
X214924Y143948D02*
X218669Y140203D01*
X210700Y149322D02*
X217794D01*
X208700Y146763D02*
X217569D01*
X196378Y146022D02*
X198452Y143948D01*
X214924D01*
X79200Y37200D02*
X87700Y45700D01*
X69200Y37200D02*
X79700Y47700D01*
X89200Y34779D02*
X98153Y43731D01*
X99200Y34779D02*
X106184Y41763D01*
X59200Y36200D02*
X72668Y49668D01*
X59200Y19700D02*
Y36200D01*
X69200Y19700D02*
Y37200D01*
X109200Y19700D02*
Y34779D01*
X89200Y19700D02*
Y34779D01*
X109200D02*
X114216Y39794D01*
X99200Y19700D02*
Y34779D01*
X79200Y19700D02*
Y37200D01*
D38*
X34767Y155639D02*
X118032D01*
X119594Y157200D02*
X119700D01*
X118032Y155639D02*
X119594Y157200D01*
X15200Y175206D02*
X34767Y155639D01*
X31928Y208700D02*
X101660D01*
X102660Y207700D01*
X119700D01*
X158700Y220700D02*
X168700D01*
X198700Y221487D02*
X219700Y242487D01*
Y313700D01*
X198700Y220700D02*
Y221487D01*
X119200Y321700D02*
X211700D01*
X219700Y313700D01*
X188700Y220700D02*
X198700D01*
X178700D02*
X188700D01*
X168700D02*
X178700D01*
X119094Y197200D02*
X119594Y197700D01*
X119700D01*
X105200Y197200D02*
X119094D01*
X15200Y175206D02*
Y176978D01*
Y225428D02*
Y227200D01*
Y225428D02*
X31928Y208700D01*
X119700Y197700D02*
X119807D01*
X105125Y141625D02*
Y146902D01*
X105200Y146977D01*
X95200Y131700D02*
X105125Y141625D01*
X22661Y95858D02*
X49002Y122200D01*
X22661Y93318D02*
Y95858D01*
X49002Y122200D02*
X85700D01*
X32700Y91700D02*
X50200D01*
X13200Y83858D02*
X22661Y93318D01*
X85700Y122200D02*
X95200Y131700D01*
X4200Y178200D02*
Y228200D01*
X5200Y227200D02*
X15200D01*
X4200Y228200D02*
X5200Y227200D01*
X4200Y90241D02*
Y178200D01*
X5423Y176978D01*
X15200D01*
X219200Y19700D02*
Y40200D01*
X4200Y44700D02*
Y90241D01*
X13125Y93625D02*
X13200Y93700D01*
X4200Y90241D02*
X7584Y93625D01*
X13125D01*
X4200Y44700D02*
X9200Y39700D01*
Y19700D02*
Y39700D01*
D39*
X95200Y178749D02*
Y188747D01*
X63200Y301700D02*
X65200Y303700D01*
X84472D01*
X89200Y308428D02*
Y310200D01*
X84472Y303700D02*
X89200Y308428D01*
X74700Y300200D02*
X90972D01*
X99200Y308428D01*
X63200Y297211D02*
X116211D01*
X119200Y300200D01*
Y310200D01*
X67200Y289805D02*
X67305Y289700D01*
X131200D01*
X60444Y287049D02*
X135049D01*
X149200Y301200D01*
X129200D02*
Y310200D01*
X63200Y292700D02*
X120700D01*
X129200Y301200D01*
X149200D02*
Y310200D01*
X139200Y297700D02*
Y310200D01*
X131200Y289700D02*
X139200Y297700D01*
X48342Y203058D02*
X51113D01*
X55200Y197200D02*
Y198972D01*
X51113Y203058D02*
X55200Y198972D01*
X48200Y203200D02*
X48342Y203058D01*
X99200Y308428D02*
Y310200D01*
X100200Y193747D02*
Y203200D01*
X95200Y188747D02*
X100200Y193747D01*
X55200Y225428D02*
Y227200D01*
X25200Y225428D02*
Y227200D01*
X95200D02*
Y228972D01*
X25200Y205700D02*
X27204Y203696D01*
X38428D02*
X39924Y202200D01*
X27204Y203696D02*
X38428D01*
X39924Y183474D02*
Y202200D01*
X35200Y176978D02*
Y178749D01*
X39924Y183474D01*
X45200Y185913D02*
X49924Y190638D01*
X45200Y176978D02*
Y185913D01*
X69700Y190200D02*
X75200Y184700D01*
Y176978D02*
Y184700D01*
X85200Y185428D02*
X95200Y195428D01*
X85200Y176978D02*
Y185428D01*
X95200Y195428D02*
Y197200D01*
X35200Y192200D02*
Y197200D01*
X30700Y187700D02*
X35200Y192200D01*
X20200Y187700D02*
X30700D01*
D41*
X198700Y220700D02*
D03*
X183700Y210700D02*
D03*
X178700Y220700D02*
D03*
X173700Y210700D02*
D03*
X168700Y220700D02*
D03*
X163700Y210700D02*
D03*
X158700Y220700D02*
D03*
X153700Y210700D02*
D03*
X193700D02*
D03*
X188700Y220700D02*
D03*
X143700Y210700D02*
D03*
X138700Y220700D02*
D03*
X133700Y210700D02*
D03*
X148700Y220700D02*
D03*
D42*
X119200Y321700D02*
D03*
X109200D02*
D03*
X13200Y93700D02*
D03*
X119700Y207700D02*
D03*
Y197700D02*
D03*
Y157200D02*
D03*
Y147200D02*
D03*
X67700Y91700D02*
D03*
Y81700D02*
D03*
X120200Y91700D02*
D03*
Y81700D02*
D03*
X102700Y91700D02*
D03*
Y81700D02*
D03*
X32700Y91700D02*
D03*
Y81700D02*
D03*
X50200Y91700D02*
D03*
Y81700D02*
D03*
X85200Y91700D02*
D03*
Y81700D02*
D03*
X15200Y131700D02*
D03*
X25200D02*
D03*
X35200D02*
D03*
X45200D02*
D03*
X55200D02*
D03*
X65200D02*
D03*
X75200D02*
D03*
X85200D02*
D03*
Y71700D02*
D03*
Y61700D02*
D03*
X50200Y71700D02*
D03*
Y61700D02*
D03*
X32700Y71700D02*
D03*
Y61700D02*
D03*
X102700Y71700D02*
D03*
Y61700D02*
D03*
X120200Y71700D02*
D03*
Y61700D02*
D03*
X67700Y71700D02*
D03*
Y61700D02*
D03*
D43*
X13200Y83858D02*
D03*
D44*
X69200Y310200D02*
D03*
X59200D02*
D03*
X49200D02*
D03*
X39200D02*
D03*
X29200D02*
D03*
X19200D02*
D03*
X79200D02*
D03*
X89200D02*
D03*
X99200D02*
D03*
X109200D02*
D03*
X119200D02*
D03*
X129200D02*
D03*
X139200D02*
D03*
X149200D02*
D03*
X159200D02*
D03*
X169200D02*
D03*
X179200D02*
D03*
X189200D02*
D03*
X199200D02*
D03*
X19200Y250200D02*
D03*
X29200D02*
D03*
X39200D02*
D03*
X49200D02*
D03*
X59200D02*
D03*
X69200D02*
D03*
X79200D02*
D03*
X89200D02*
D03*
X99200D02*
D03*
X109200D02*
D03*
X119200D02*
D03*
X129200D02*
D03*
X139200D02*
D03*
X149200D02*
D03*
X159200D02*
D03*
X169200D02*
D03*
X179200D02*
D03*
X189200D02*
D03*
X199200D02*
D03*
X209200D02*
D03*
X75200Y146977D02*
D03*
X85200D02*
D03*
X95200D02*
D03*
X105200D02*
D03*
X65200D02*
D03*
X55200D02*
D03*
X95200Y176978D02*
D03*
X85200D02*
D03*
X75200D02*
D03*
X65200D02*
D03*
X55200D02*
D03*
X45200D02*
D03*
Y146977D02*
D03*
X35200D02*
D03*
X25200D02*
D03*
X15200D02*
D03*
Y176978D02*
D03*
X25200D02*
D03*
X35200D02*
D03*
X95200Y227200D02*
D03*
X85200D02*
D03*
X75200D02*
D03*
X65200D02*
D03*
X55200D02*
D03*
X45200D02*
D03*
Y197200D02*
D03*
X35200D02*
D03*
X25200D02*
D03*
X15200D02*
D03*
Y227200D02*
D03*
X25200D02*
D03*
X35200D02*
D03*
X95200Y197200D02*
D03*
X55200D02*
D03*
X65200D02*
D03*
X75200D02*
D03*
X85200D02*
D03*
X105200D02*
D03*
D45*
X209200Y310200D02*
D03*
X105200Y176978D02*
D03*
Y227200D02*
D03*
D46*
X95200Y131700D02*
D03*
D47*
X204537Y123965D02*
D03*
X221200Y282200D02*
D03*
X219200Y273700D02*
D03*
X217200Y264700D02*
D03*
X163700Y225200D02*
D03*
X167700Y283700D02*
D03*
X53200Y298700D02*
D03*
X77200Y260700D02*
D03*
X42700Y266700D02*
D03*
X24700Y273200D02*
D03*
X15200Y212200D02*
D03*
X10700Y187700D02*
D03*
X17200Y122200D02*
D03*
X21200Y76700D02*
D03*
X5200Y77700D02*
D03*
X203200Y84596D02*
D03*
X203700Y45700D02*
D03*
X192200Y66222D02*
D03*
X185200Y67200D02*
D03*
X169200Y147200D02*
D03*
X164700Y152200D02*
D03*
X195200Y172655D02*
D03*
X204700Y195700D02*
D03*
X89200Y283515D02*
D03*
X70200D02*
D03*
X131200Y273200D02*
D03*
X103385Y267700D02*
D03*
X103036Y302200D02*
D03*
D48*
X136958Y173833D02*
D03*
X135350Y178891D02*
D03*
X136161Y167844D02*
D03*
X100200Y188747D02*
D03*
X111700Y187267D02*
D03*
X147200Y175700D02*
D03*
X139200Y182700D02*
D03*
X116700Y182200D02*
D03*
X113700Y183200D02*
D03*
X63200Y301700D02*
D03*
X74700Y300200D02*
D03*
X63200Y297211D02*
D03*
X67200Y289805D02*
D03*
X63200Y292700D02*
D03*
X60444Y287049D02*
D03*
X48200Y203200D02*
D03*
X100200D02*
D03*
X107759Y218200D02*
D03*
X110909D02*
D03*
X114255Y221700D02*
D03*
X173823Y173840D02*
D03*
X170676Y173975D02*
D03*
X165141Y173962D02*
D03*
X161759Y174081D02*
D03*
X158200Y174141D02*
D03*
X183755Y181684D02*
D03*
X186898Y181476D02*
D03*
X179070Y179200D02*
D03*
X186354Y171499D02*
D03*
X190200Y172700D02*
D03*
X183200Y169200D02*
D03*
X180641Y131529D02*
D03*
X224700Y153520D02*
D03*
X25200Y205700D02*
D03*
X134200Y141645D02*
D03*
X186805Y131833D02*
D03*
X190291Y181512D02*
D03*
Y132571D02*
D03*
X186484Y115200D02*
D03*
X49924Y190638D02*
D03*
X69700Y190200D02*
D03*
X172700Y156259D02*
D03*
X152889Y142235D02*
D03*
X164700Y159429D02*
D03*
X158794Y134361D02*
D03*
X161354Y131511D02*
D03*
X156235Y131538D02*
D03*
X196426Y151974D02*
D03*
X179700Y155574D02*
D03*
X196206Y136647D02*
D03*
X198002Y134060D02*
D03*
X134200Y128200D02*
D03*
X150082Y120200D02*
D03*
X152889Y131538D02*
D03*
X129602Y89200D02*
D03*
X126452D02*
D03*
X176511Y131511D02*
D03*
X155200Y118200D02*
D03*
X145535Y89200D02*
D03*
X148700D02*
D03*
X142200D02*
D03*
X139050D02*
D03*
X162521Y108910D02*
D03*
X165290Y107409D02*
D03*
X162107Y114053D02*
D03*
X168637Y109763D02*
D03*
X132751Y89200D02*
D03*
X135901D02*
D03*
X148700Y138200D02*
D03*
X134200Y136330D02*
D03*
X177759Y120700D02*
D03*
X180200Y118700D02*
D03*
X190200Y115200D02*
D03*
X195200D02*
D03*
X198200Y117700D02*
D03*
X210700Y149322D02*
D03*
X220200Y153520D02*
D03*
X208700Y146763D02*
D03*
X207700Y137515D02*
D03*
X210723Y138399D02*
D03*
X213200Y141200D02*
D03*
X196378Y146022D02*
D03*
D49*
X129200Y63700D02*
D03*
X171700Y105826D02*
D03*
X20200Y187700D02*
D03*
D50*
X219200Y40200D02*
D03*
X9200Y39700D02*
D03*
M02*
