G04*
G04 #@! TF.GenerationSoftware,Altium Limited,Altium Designer,21.1.1 (26)*
G04*
G04 Layer_Color=8421504*
%FSLAX25Y25*%
%MOIN*%
G70*
G04*
G04 #@! TF.SameCoordinates,4EBEE0B8-8E4E-43C0-80E5-A374C2A04DA5*
G04*
G04*
G04 #@! TF.FilePolarity,Positive*
G04*
G01*
G75*
G04:AMPARAMS|DCode=17|XSize=23.62mil|YSize=39.37mil|CornerRadius=5.91mil|HoleSize=0mil|Usage=FLASHONLY|Rotation=0.000|XOffset=0mil|YOffset=0mil|HoleType=Round|Shape=RoundedRectangle|*
%AMROUNDEDRECTD17*
21,1,0.02362,0.02756,0,0,0.0*
21,1,0.01181,0.03937,0,0,0.0*
1,1,0.01181,0.00591,-0.01378*
1,1,0.01181,-0.00591,-0.01378*
1,1,0.01181,-0.00591,0.01378*
1,1,0.01181,0.00591,0.01378*
%
%ADD17ROUNDEDRECTD17*%
G04:AMPARAMS|DCode=18|XSize=45.28mil|YSize=57.09mil|CornerRadius=11.32mil|HoleSize=0mil|Usage=FLASHONLY|Rotation=90.000|XOffset=0mil|YOffset=0mil|HoleType=Round|Shape=RoundedRectangle|*
%AMROUNDEDRECTD18*
21,1,0.04528,0.03445,0,0,90.0*
21,1,0.02264,0.05709,0,0,90.0*
1,1,0.02264,0.01722,0.01132*
1,1,0.02264,0.01722,-0.01132*
1,1,0.02264,-0.01722,-0.01132*
1,1,0.02264,-0.01722,0.01132*
%
%ADD18ROUNDEDRECTD18*%
%ADD19O,0.05512X0.01181*%
%ADD20O,0.01181X0.05512*%
%ADD21R,0.03937X0.04134*%
%ADD22R,0.04134X0.03937*%
D17*
X196960Y71527D02*
D03*
X200700D02*
D03*
X204440D02*
D03*
X196960Y79873D02*
D03*
X204440D02*
D03*
D18*
X189200Y79243D02*
D03*
Y72157D02*
D03*
X212200Y72200D02*
D03*
Y79287D02*
D03*
D19*
X142259Y179637D02*
D03*
Y177668D02*
D03*
Y175700D02*
D03*
Y173732D02*
D03*
Y171763D02*
D03*
Y169794D02*
D03*
Y167826D02*
D03*
Y165858D02*
D03*
Y163889D02*
D03*
Y161920D02*
D03*
Y159952D02*
D03*
Y157984D02*
D03*
Y156015D02*
D03*
Y154046D02*
D03*
Y152078D02*
D03*
Y150109D02*
D03*
Y148141D02*
D03*
Y146172D02*
D03*
Y144204D02*
D03*
Y142235D02*
D03*
Y140267D02*
D03*
Y138298D02*
D03*
Y136330D02*
D03*
Y134361D02*
D03*
Y132393D02*
D03*
X202889D02*
D03*
Y134361D02*
D03*
Y136330D02*
D03*
Y138298D02*
D03*
Y140267D02*
D03*
Y142235D02*
D03*
Y144204D02*
D03*
Y146172D02*
D03*
Y148141D02*
D03*
Y150109D02*
D03*
Y152078D02*
D03*
Y154046D02*
D03*
Y156015D02*
D03*
Y157984D02*
D03*
Y159952D02*
D03*
Y161920D02*
D03*
Y163889D02*
D03*
Y165858D02*
D03*
Y167826D02*
D03*
Y169794D02*
D03*
Y171763D02*
D03*
Y173732D02*
D03*
Y175700D02*
D03*
Y177668D02*
D03*
Y179637D02*
D03*
D20*
X148952Y125700D02*
D03*
X150920D02*
D03*
X152889D02*
D03*
X154858D02*
D03*
X156826D02*
D03*
X158794D02*
D03*
X160763D02*
D03*
X162732D02*
D03*
X164700D02*
D03*
X166668D02*
D03*
X168637D02*
D03*
X170606D02*
D03*
X172574D02*
D03*
X174542D02*
D03*
X176511D02*
D03*
X178480D02*
D03*
X180448D02*
D03*
X182416D02*
D03*
X184385D02*
D03*
X186354D02*
D03*
X188322D02*
D03*
X190291D02*
D03*
X192259D02*
D03*
X194228D02*
D03*
X196196D02*
D03*
Y186330D02*
D03*
X194228D02*
D03*
X192259D02*
D03*
X190291D02*
D03*
X188322D02*
D03*
X186354D02*
D03*
X184385D02*
D03*
X182416D02*
D03*
X180448D02*
D03*
X178480D02*
D03*
X176511D02*
D03*
X174542D02*
D03*
X172574D02*
D03*
X170606D02*
D03*
X168637D02*
D03*
X166668D02*
D03*
X164700D02*
D03*
X162732D02*
D03*
X160763D02*
D03*
X158794D02*
D03*
X156826D02*
D03*
X154858D02*
D03*
X152889D02*
D03*
X150920D02*
D03*
X148952D02*
D03*
D21*
X130200Y171747D02*
D03*
Y177653D02*
D03*
X214700Y146700D02*
D03*
Y152605D02*
D03*
Y132200D02*
D03*
Y126295D02*
D03*
D22*
X172747Y198200D02*
D03*
X178653D02*
D03*
X174747Y113700D02*
D03*
X180653D02*
D03*
X150700D02*
D03*
X156606D02*
D03*
M02*
