G04*
G04 #@! TF.GenerationSoftware,Altium Limited,Altium Designer,21.1.1 (26)*
G04*
G04 Layer_Physical_Order=2*
G04 Layer_Color=16711680*
%FSLAX25Y25*%
%MOIN*%
G70*
G04*
G04 #@! TF.SameCoordinates,BA25F0D4-A6B5-41BD-99B5-9815951856DC*
G04*
G04*
G04 #@! TF.FilePolarity,Positive*
G04*
G01*
G75*
%ADD11C,0.02362*%
G04:AMPARAMS|DCode=34|XSize=78.74mil|YSize=275.59mil|CornerRadius=19.68mil|HoleSize=0mil|Usage=FLASHONLY|Rotation=0.000|XOffset=0mil|YOffset=0mil|HoleType=Round|Shape=RoundedRectangle|*
%AMROUNDEDRECTD34*
21,1,0.07874,0.23622,0,0,0.0*
21,1,0.03937,0.27559,0,0,0.0*
1,1,0.03937,0.01968,-0.11811*
1,1,0.03937,-0.01968,-0.11811*
1,1,0.03937,-0.01968,0.11811*
1,1,0.03937,0.01968,0.11811*
%
%ADD34ROUNDEDRECTD34*%
%ADD35C,0.05906*%
%ADD36C,0.03937*%
%ADD37C,0.01968*%
%ADD38C,0.01181*%
%ADD39C,0.06299*%
%ADD40O,0.09843X0.06299*%
%ADD41R,0.09843X0.06299*%
%ADD42R,0.06299X0.06299*%
%ADD43R,0.06693X0.06693*%
%ADD44C,0.06693*%
%ADD45C,0.01968*%
%ADD46C,0.02362*%
%ADD47C,0.05906*%
G36*
X37334Y324282D02*
X40662Y323813D01*
X43917Y322976D01*
X47059Y321780D01*
X50047Y320242D01*
X52845Y318379D01*
X55418Y316216D01*
X57733Y313780D01*
X59762Y311100D01*
X61436Y308283D01*
X61363Y307922D01*
X61269Y307733D01*
X46369Y304396D01*
X46006Y304814D01*
X45956Y304853D01*
X45919Y304903D01*
X44194Y306458D01*
X44123Y306501D01*
X44063Y306558D01*
X42109Y307815D01*
X42032Y307845D01*
X41963Y307893D01*
X39833Y308817D01*
X39751Y308834D01*
X39676Y308870D01*
X37424Y309438D01*
X37341Y309442D01*
X37261Y309465D01*
X34947Y309661D01*
X34864Y309652D01*
X34781Y309662D01*
X32466Y309482D01*
X32386Y309459D01*
X32303Y309455D01*
X30047Y308903D01*
X29971Y308868D01*
X29890Y308851D01*
X27753Y307942D01*
X27684Y307895D01*
X27606Y307865D01*
X25644Y306622D01*
X25584Y306565D01*
X25512Y306523D01*
X23776Y304980D01*
X23726Y304913D01*
X23662Y304860D01*
X22199Y303057D01*
X22160Y302983D01*
X22105Y302920D01*
X20952Y300904D01*
X20926Y300825D01*
X20882Y300754D01*
X20070Y298578D01*
X20057Y298496D01*
X20025Y298419D01*
X19576Y296141D01*
X19576Y296057D01*
X19557Y295976D01*
X19481Y293655D01*
X19495Y293573D01*
X19489Y293490D01*
X19790Y291187D01*
X19817Y291108D01*
X19825Y291025D01*
X20493Y288801D01*
X20532Y288727D01*
X20554Y288647D01*
X21573Y286560D01*
X21623Y286494D01*
X21657Y286418D01*
X23000Y284523D01*
X23061Y284466D01*
X23107Y284396D01*
X24738Y282744D01*
X24807Y282697D01*
X24863Y282636D01*
X26741Y281268D01*
X26816Y281233D01*
X26882Y281182D01*
X28955Y280136D01*
X29035Y280113D01*
X29108Y280073D01*
X31324Y279376D01*
X31406Y279367D01*
X31485Y279339D01*
X33784Y279009D01*
X33867Y279013D01*
X33949Y278999D01*
X36271Y279044D01*
X36352Y279062D01*
X36435Y279061D01*
X38720Y279481D01*
X38797Y279511D01*
X38879Y279524D01*
X41066Y280307D01*
X41137Y280350D01*
X41216Y280375D01*
X43247Y281502D01*
X43311Y281556D01*
X43385Y281593D01*
X45207Y283033D01*
X45261Y283097D01*
X45328Y283146D01*
X46894Y284862D01*
X46937Y284933D01*
X46995Y284992D01*
X48263Y286938D01*
X48287Y286996D01*
X48324Y287046D01*
X48461Y287326D01*
X62380Y283383D01*
X62595Y282932D01*
X62015Y281581D01*
X61128Y279836D01*
X60129Y278153D01*
X59022Y276538D01*
X57812Y274998D01*
X56505Y273541D01*
X55106Y272172D01*
X54363Y271535D01*
X54339Y271504D01*
X54306Y271482D01*
X54217Y271348D01*
X54117Y271222D01*
X54107Y271184D01*
X54085Y271151D01*
X54054Y270994D01*
X54010Y270839D01*
X54015Y270800D01*
X54007Y270761D01*
X54039Y270603D01*
X54058Y270444D01*
X54077Y270409D01*
X54085Y270371D01*
X54174Y270237D01*
X54253Y270097D01*
X54284Y270073D01*
X54306Y270040D01*
X54440Y269951D01*
X54566Y269852D01*
X54604Y269841D01*
X54637Y269819D01*
X54794Y269788D01*
X54949Y269744D01*
X54988Y269749D01*
X55027Y269742D01*
X71224D01*
X71614Y269819D01*
X71945Y270040D01*
X72166Y270371D01*
X72243Y270761D01*
Y322941D01*
X72597Y323294D01*
X102659Y323291D01*
X102664Y323292D01*
X102669Y323291D01*
X103838Y323302D01*
X106158Y323018D01*
X108422Y322432D01*
X110589Y321555D01*
X112623Y320402D01*
X114488Y318993D01*
X116153Y317351D01*
X117588Y315506D01*
X118770Y313489D01*
X119677Y311334D01*
X120294Y309079D01*
X120611Y306763D01*
X120622Y304425D01*
X120327Y302106D01*
X119731Y299845D01*
X118843Y297682D01*
X117681Y295654D01*
X116263Y293795D01*
X114613Y292138D01*
X112761Y290711D01*
X110739Y289539D01*
X108580Y288642D01*
X106322Y288035D01*
X104004Y287729D01*
X102835Y287729D01*
X89878D01*
X89488Y287651D01*
X89157Y287430D01*
X88936Y287100D01*
X88859Y286709D01*
Y270800D01*
X88859Y270799D01*
X88859Y270799D01*
X88897Y270606D01*
X88936Y270410D01*
X88937Y270409D01*
X88937Y270409D01*
X89047Y270245D01*
X89157Y270079D01*
X89158Y270079D01*
X89158Y270078D01*
X89325Y269967D01*
X89488Y269858D01*
X89489Y269858D01*
X89489Y269858D01*
X89686Y269819D01*
X89878Y269780D01*
X89879Y269781D01*
X89880Y269780D01*
X120818Y269814D01*
X120897Y269830D01*
X120978Y269827D01*
X121090Y269869D01*
X121208Y269892D01*
X121275Y269937D01*
X121351Y269965D01*
X121439Y270047D01*
X121539Y270114D01*
X121583Y270181D01*
X121642Y270236D01*
X121693Y270345D01*
X121759Y270445D01*
X121775Y270524D01*
X121809Y270597D01*
X134605Y324190D01*
X147124D01*
X147433Y323797D01*
X134587Y271032D01*
X134581Y270910D01*
X134557Y270791D01*
X134573Y270713D01*
X134570Y270634D01*
X134611Y270520D01*
X134635Y270401D01*
X134679Y270335D01*
X134706Y270261D01*
X134788Y270171D01*
X134856Y270070D01*
X134922Y270026D01*
X134975Y269968D01*
X135085Y269916D01*
X135187Y269849D01*
X135264Y269833D01*
X135336Y269800D01*
X135458Y269795D01*
X135577Y269771D01*
X154361Y269765D01*
X154361Y269765D01*
X154361Y269765D01*
X154548Y269803D01*
X154751Y269843D01*
X154751Y269843D01*
X154752Y269843D01*
X154911Y269950D01*
X155082Y270064D01*
X155082Y270064D01*
X155082Y270064D01*
X155196Y270235D01*
X155303Y270394D01*
X155303Y270395D01*
X155303Y270395D01*
X155343Y270598D01*
X155381Y270785D01*
X155381Y270785D01*
X155381Y270785D01*
X155368Y323836D01*
X155721Y324190D01*
X177291D01*
X186940Y287641D01*
X187001Y287516D01*
X187046Y287385D01*
X187087Y287339D01*
X187114Y287283D01*
X187218Y287191D01*
X187311Y287088D01*
X187366Y287061D01*
X187412Y287020D01*
X187544Y286975D01*
X187669Y286914D01*
X187730Y286911D01*
X187788Y286891D01*
X187927Y286899D01*
X188066Y286891D01*
X188124Y286912D01*
X188186Y286915D01*
X188311Y286976D01*
X188442Y287022D01*
X188488Y287063D01*
X188543Y287090D01*
X188635Y287194D01*
X188739Y287286D01*
X188766Y287342D01*
X188806Y287388D01*
X188852Y287520D01*
X188912Y287645D01*
X198414Y324190D01*
X220129D01*
X220483Y323836D01*
X220460Y268116D01*
X220479Y268020D01*
X220479Y267921D01*
X220517Y267827D01*
X220537Y267726D01*
X220592Y267644D01*
X220629Y267553D01*
X220701Y267480D01*
X220758Y267395D01*
X220840Y267340D01*
X220909Y267271D01*
X221654Y266769D01*
X223009Y265590D01*
X224211Y264256D01*
X225240Y262785D01*
X226084Y261199D01*
X226727Y259523D01*
X227162Y257780D01*
X227380Y255998D01*
Y255100D01*
X227380Y19003D01*
X224163D01*
Y19200D01*
X219200D01*
Y19700D01*
X218700D01*
Y34505D01*
X217231D01*
X216457Y34403D01*
X215734Y34104D01*
X215114Y33628D01*
X214638Y33008D01*
X214339Y32286D01*
X213938Y32240D01*
X213834Y32278D01*
X213576Y32901D01*
X213134Y33477D01*
X212558Y33918D01*
X211888Y34196D01*
X211169Y34291D01*
X210605D01*
Y51675D01*
X210498Y52212D01*
X210193Y52668D01*
X155311Y107551D01*
X155280Y107847D01*
X155323Y108165D01*
X155880Y108592D01*
X156511Y109415D01*
X156907Y110372D01*
X157043Y111400D01*
X156907Y112428D01*
X156511Y113385D01*
X155880Y114208D01*
X155057Y114839D01*
X154099Y115236D01*
X153072Y115371D01*
X149528D01*
X148501Y115236D01*
X147543Y114839D01*
X146720Y114208D01*
X146089Y113385D01*
X145693Y112428D01*
X145557Y111400D01*
X145693Y110372D01*
X146089Y109415D01*
X146720Y108592D01*
X146844Y108498D01*
X146683Y108024D01*
X145613D01*
X133514Y120123D01*
X133705Y120585D01*
X135969D01*
X136945Y120714D01*
X137855Y121091D01*
X138636Y121690D01*
X143346Y126400D01*
X143945Y127181D01*
X144322Y128091D01*
X144451Y129067D01*
Y140553D01*
X144322Y141529D01*
X143945Y142439D01*
X143572Y142925D01*
Y150268D01*
X143737Y150882D01*
Y151918D01*
X143469Y152920D01*
X142950Y153817D01*
X142217Y154550D01*
X141320Y155069D01*
X140318Y155337D01*
X139282D01*
X138280Y155069D01*
X137383Y154550D01*
X137151Y154319D01*
X136608Y154483D01*
X136570Y154674D01*
X136266Y155130D01*
X125104Y166292D01*
X124716Y166551D01*
X124707Y166611D01*
X125101Y167111D01*
X141830D01*
X145933Y163008D01*
X145693Y162428D01*
X145557Y161400D01*
X145693Y160372D01*
X146089Y159415D01*
X146720Y158592D01*
X147543Y157961D01*
X148501Y157564D01*
X149528Y157429D01*
X153072D01*
X154099Y157564D01*
X155057Y157961D01*
X155880Y158592D01*
X156511Y159415D01*
X156539Y159483D01*
X157118Y159575D01*
X157476Y159218D01*
X158100Y158959D01*
Y160900D01*
Y162841D01*
X157476Y162582D01*
X157369Y162475D01*
X156822Y162635D01*
X156511Y163385D01*
X155880Y164208D01*
X155057Y164839D01*
X154099Y165236D01*
X153072Y165371D01*
X149528D01*
X148501Y165236D01*
X147920Y164995D01*
X143406Y169509D01*
X142950Y169814D01*
X142412Y169921D01*
X115825D01*
X115288Y169814D01*
X115274Y169805D01*
X108600D01*
X108504Y169902D01*
X107852Y170172D01*
X107148D01*
X106496Y169902D01*
X105998Y169404D01*
X105728Y168752D01*
Y168048D01*
X105998Y167396D01*
X106496Y166898D01*
X106729Y166802D01*
Y166261D01*
X106496Y166164D01*
X105998Y165666D01*
X105728Y165015D01*
Y164310D01*
X105998Y163659D01*
X106496Y163160D01*
X107148Y162891D01*
X107852D01*
X108504Y163160D01*
X108600Y163257D01*
X117484D01*
X121161Y159580D01*
X121161Y159580D01*
X129930Y150810D01*
Y141549D01*
X129469Y141357D01*
X129382Y141444D01*
X128647Y141749D01*
Y139595D01*
Y137441D01*
X129382Y137746D01*
X129469Y137832D01*
X129930Y137641D01*
Y132564D01*
X129680Y131959D01*
Y131254D01*
X129950Y130603D01*
X130448Y130104D01*
X131099Y129835D01*
X131804D01*
X132455Y130104D01*
X132954Y130603D01*
X133153Y131086D01*
X133633Y131428D01*
X134338D01*
X134989Y131698D01*
X135487Y132196D01*
X135757Y132848D01*
Y133552D01*
X135487Y134204D01*
X135572Y134813D01*
X135601Y134833D01*
X136306D01*
X136490Y134909D01*
X136906Y134631D01*
Y130630D01*
X134406Y128130D01*
X117741D01*
X117463Y128546D01*
X117539Y128730D01*
Y129163D01*
X118161D01*
X118812Y129433D01*
X119310Y129931D01*
X119580Y130582D01*
Y131092D01*
X120215D01*
X120866Y131362D01*
X121364Y131860D01*
X121634Y132511D01*
Y133075D01*
X122156D01*
X122807Y133344D01*
X123306Y133843D01*
X123467Y134233D01*
X123690Y134682D01*
X124395D01*
X125046Y134952D01*
X125544Y135450D01*
X125814Y136101D01*
Y136806D01*
X125544Y137457D01*
X125296Y137705D01*
Y138129D01*
X125204Y138594D01*
Y146438D01*
X125097Y146976D01*
X124793Y147432D01*
X118672Y153552D01*
Y157580D01*
X118769Y157677D01*
X119039Y158329D01*
Y159033D01*
X118769Y159685D01*
X118271Y160183D01*
X117620Y160453D01*
X116915D01*
X116264Y160183D01*
X115766Y159685D01*
X115496Y159033D01*
Y158329D01*
X115766Y157677D01*
X115863Y157580D01*
Y153948D01*
X115401Y153757D01*
X109217Y159941D01*
Y160078D01*
X108947Y160729D01*
X108449Y161227D01*
X107798Y161497D01*
X107093D01*
X106442Y161227D01*
X105943Y160729D01*
X105674Y160078D01*
Y159373D01*
X105818Y159025D01*
X105836Y158492D01*
X105338Y157993D01*
X105068Y157342D01*
Y156637D01*
X105205Y156307D01*
X105048Y156072D01*
X104396Y155802D01*
X103898Y155304D01*
X103628Y154652D01*
Y153948D01*
X103898Y153296D01*
X104396Y152798D01*
X104515Y152749D01*
X104612Y152259D01*
X104606Y152253D01*
X104337Y151602D01*
Y150897D01*
X104606Y150246D01*
X104703Y150149D01*
Y148692D01*
X104810Y148154D01*
X105115Y147698D01*
X107307Y145506D01*
X107294Y145450D01*
X107265Y145399D01*
Y143363D01*
X109300D01*
X109352Y143393D01*
X109408Y143405D01*
X113795Y139018D01*
Y129863D01*
X113902Y129325D01*
X113996Y129184D01*
Y128886D01*
X113691Y128517D01*
X113576Y128437D01*
X113081Y128502D01*
X111033D01*
X100343Y139192D01*
X99562Y139791D01*
X98652Y140168D01*
X97676Y140297D01*
X60224D01*
X59248Y140168D01*
X58338Y139791D01*
X57557Y139192D01*
X52533Y134168D01*
X51933Y133386D01*
X51556Y132476D01*
X51428Y131500D01*
Y127429D01*
X50142Y126143D01*
X49718Y126427D01*
X49851Y126748D01*
Y127452D01*
X49581Y128104D01*
X49484Y128200D01*
Y136999D01*
X49581Y137096D01*
X49851Y137748D01*
X50200Y137981D01*
Y140200D01*
Y142354D01*
X49464Y142049D01*
X48851Y141436D01*
X48519Y140634D01*
Y139930D01*
X48432Y139872D01*
X47727D01*
X47076Y139602D01*
X46577Y139104D01*
X46308Y138452D01*
Y137748D01*
X46577Y137096D01*
X46674Y136999D01*
Y128200D01*
X46577Y128104D01*
X46308Y127452D01*
Y126748D01*
X46577Y126096D01*
X47076Y125598D01*
X47727Y125328D01*
X48432D01*
X48752Y125461D01*
X49036Y125037D01*
X45671Y121672D01*
X23637D01*
Y121837D01*
X15763D01*
Y113963D01*
X23637D01*
Y114128D01*
X37727D01*
X38004Y113712D01*
X37928Y113528D01*
Y112823D01*
X38135Y112325D01*
X37596Y112102D01*
X37098Y111604D01*
X36828Y110952D01*
Y110248D01*
X36740Y110115D01*
X36665D01*
X36014Y109845D01*
X35516Y109347D01*
X35246Y108696D01*
Y107991D01*
X35281Y107908D01*
X35197Y107783D01*
X34546Y107513D01*
X34048Y107015D01*
X33778Y106364D01*
Y106319D01*
X33540Y106160D01*
X32835D01*
X32184Y105890D01*
X31686Y105392D01*
X31416Y104741D01*
Y104036D01*
X31067Y103572D01*
X30648D01*
X29996Y103302D01*
X29498Y102804D01*
X29228Y102152D01*
Y101448D01*
X29498Y100796D01*
X29996Y100298D01*
X30648Y100028D01*
X31352D01*
X31755Y100195D01*
X41718D01*
X44295Y97618D01*
Y60900D01*
X44402Y60362D01*
X44706Y59907D01*
X57795Y46818D01*
Y34291D01*
X57231D01*
X56512Y34196D01*
X55842Y33918D01*
X55266Y33477D01*
X54824Y32901D01*
X54546Y32230D01*
X54452Y31511D01*
Y19003D01*
X53948D01*
Y31511D01*
X53853Y32230D01*
X53576Y32901D01*
X53134Y33477D01*
X52558Y33918D01*
X51888Y34196D01*
X51207Y34286D01*
Y50900D01*
X51054Y51668D01*
X50619Y52319D01*
X42014Y60924D01*
X42137Y61382D01*
Y62418D01*
X41869Y63420D01*
X41350Y64317D01*
X40617Y65050D01*
X39720Y65569D01*
X38718Y65837D01*
X37682D01*
X36680Y65569D01*
X35783Y65050D01*
X35050Y64317D01*
X34531Y63420D01*
X34263Y62418D01*
Y61382D01*
X34531Y60380D01*
X35050Y59483D01*
X35783Y58750D01*
X36680Y58231D01*
X37682Y57963D01*
X38718D01*
X39176Y58086D01*
X47193Y50069D01*
Y34286D01*
X46512Y34196D01*
X45842Y33918D01*
X45266Y33477D01*
X44824Y32901D01*
X44546Y32230D01*
X44452Y31511D01*
Y19003D01*
X43948D01*
Y31511D01*
X43854Y32230D01*
X43576Y32901D01*
X43134Y33477D01*
X42558Y33918D01*
X41888Y34196D01*
X41168Y34291D01*
X37231D01*
X36512Y34196D01*
X35842Y33918D01*
X35266Y33477D01*
X34824Y32901D01*
X34547Y32230D01*
X34452Y31511D01*
Y19003D01*
X33948D01*
Y31511D01*
X33854Y32230D01*
X33576Y32901D01*
X33134Y33477D01*
X32558Y33918D01*
X31888Y34196D01*
X31207Y34286D01*
Y53400D01*
X31054Y54168D01*
X30619Y54819D01*
X24514Y60924D01*
X24637Y61382D01*
Y62418D01*
X24369Y63420D01*
X23850Y64317D01*
X23117Y65050D01*
X22220Y65569D01*
X21218Y65837D01*
X20182D01*
X19180Y65569D01*
X18283Y65050D01*
X17550Y64317D01*
X17031Y63420D01*
X16763Y62418D01*
Y61382D01*
X17031Y60380D01*
X17550Y59483D01*
X18283Y58750D01*
X19180Y58231D01*
X20182Y57963D01*
X21218D01*
X21676Y58086D01*
X27193Y52569D01*
Y34286D01*
X26512Y34196D01*
X25842Y33918D01*
X25266Y33477D01*
X24824Y32901D01*
X24546Y32230D01*
X24452Y31511D01*
Y19003D01*
X23948D01*
Y31511D01*
X23854Y32230D01*
X23576Y32901D01*
X23134Y33477D01*
X22558Y33918D01*
X21888Y34196D01*
X21169Y34291D01*
X17232D01*
X16512Y34196D01*
X15842Y33918D01*
X15266Y33477D01*
X14824Y32901D01*
X14566Y32278D01*
X14462Y32240D01*
X14061Y32286D01*
X13761Y33008D01*
X13286Y33628D01*
X12666Y34104D01*
X11943Y34403D01*
X11169Y34505D01*
X10475D01*
X10410Y35005D01*
X10826Y35117D01*
X11727Y35637D01*
X12463Y36373D01*
X12983Y37274D01*
X13253Y38280D01*
Y38300D01*
X5347D01*
Y38280D01*
X5617Y37274D01*
X6137Y36373D01*
X6873Y35637D01*
X7774Y35117D01*
X8190Y35005D01*
X8124Y34505D01*
X7231D01*
X6457Y34403D01*
X5734Y34104D01*
X5114Y33628D01*
X4639Y33008D01*
X4339Y32286D01*
X4237Y31511D01*
Y20200D01*
X9200D01*
Y19200D01*
X4237D01*
Y19003D01*
X1020D01*
X1020Y255100D01*
X1020Y256019D01*
X1249Y257844D01*
X1704Y259625D01*
X2378Y261336D01*
X3260Y262949D01*
X4336Y264440D01*
X5590Y265784D01*
X7002Y266962D01*
X8550Y267955D01*
X10210Y268746D01*
X11955Y269324D01*
X13759Y269681D01*
X14666Y269744D01*
X14669Y269745D01*
X14672Y269744D01*
X14860Y269797D01*
X15050Y269849D01*
X15052Y269851D01*
X15055Y269852D01*
X15210Y269972D01*
X15364Y270092D01*
X15366Y270095D01*
X15368Y270097D01*
X15465Y270268D01*
X15562Y270438D01*
X15562Y270441D01*
X15564Y270444D01*
X15587Y270637D01*
X15612Y270832D01*
X15611Y270835D01*
X15611Y270839D01*
X15559Y271026D01*
X15507Y271216D01*
X15505Y271219D01*
X15504Y271222D01*
X15383Y271376D01*
X15264Y271531D01*
X15261Y271532D01*
X15259Y271535D01*
X13983Y272629D01*
X11693Y275089D01*
X9691Y277789D01*
X8004Y280696D01*
X6651Y283773D01*
X5650Y286982D01*
X5013Y290282D01*
X4749Y293633D01*
X4860Y296992D01*
X5346Y300318D01*
X6200Y303569D01*
X7411Y306705D01*
X8964Y309685D01*
X10841Y312474D01*
X13017Y315036D01*
X15465Y317338D01*
X18155Y319354D01*
X21054Y321056D01*
X24124Y322424D01*
X27327Y323442D01*
X30624Y324095D01*
X33974Y324376D01*
X37334Y324282D01*
D02*
G37*
G36*
X165022Y93866D02*
X164739Y93442D01*
X164500Y93541D01*
Y92100D01*
X165941D01*
X165842Y92339D01*
X166266Y92622D01*
X174322Y84566D01*
X174039Y84142D01*
X173800Y84241D01*
Y82800D01*
X175241D01*
X175142Y83039D01*
X175566Y83322D01*
X181322Y77565D01*
X181039Y77142D01*
X180800Y77241D01*
Y75800D01*
X182241D01*
X182142Y76039D01*
X182566Y76322D01*
X189922Y68966D01*
X189639Y68542D01*
X189400Y68641D01*
Y67200D01*
X190841D01*
X190742Y67439D01*
X191166Y67722D01*
X201486Y57402D01*
X201278Y56902D01*
X200774D01*
X200044Y56600D01*
X199486Y56042D01*
X199228Y55418D01*
X201168D01*
Y54918D01*
X201669D01*
Y52977D01*
X202292Y53236D01*
X202851Y53794D01*
X203153Y54523D01*
Y55028D01*
X203653Y55235D01*
X207795Y51093D01*
Y34291D01*
X207231D01*
X206512Y34196D01*
X205842Y33918D01*
X205266Y33477D01*
X204824Y32901D01*
X204546Y32230D01*
X204452Y31511D01*
Y19003D01*
X203948D01*
Y31511D01*
X203854Y32230D01*
X203576Y32901D01*
X203134Y33477D01*
X202558Y33918D01*
X201888Y34196D01*
X201168Y34291D01*
X200605D01*
Y51675D01*
X200498Y52212D01*
X200480Y52239D01*
X200633Y52903D01*
X200669Y52924D01*
Y54418D01*
X199228D01*
X199282Y54286D01*
X198858Y54003D01*
X188646Y64216D01*
X188853Y64716D01*
X189295D01*
X190024Y65018D01*
X190582Y65576D01*
X190841Y66200D01*
X188900D01*
Y66700D01*
X188400D01*
Y68641D01*
X187776Y68382D01*
X187218Y67824D01*
X186916Y67095D01*
Y66653D01*
X186416Y66446D01*
X180046Y72816D01*
X180253Y73316D01*
X180695D01*
X181424Y73618D01*
X181982Y74176D01*
X182241Y74800D01*
X180300D01*
Y75300D01*
X179800D01*
Y77241D01*
X179176Y76982D01*
X178618Y76424D01*
X178316Y75695D01*
Y75253D01*
X177816Y75046D01*
X173046Y79816D01*
X173253Y80316D01*
X173695D01*
X174424Y80618D01*
X174982Y81176D01*
X175241Y81800D01*
X173300D01*
Y82300D01*
X172800D01*
Y84241D01*
X172176Y83982D01*
X171618Y83424D01*
X171316Y82695D01*
Y82253D01*
X170816Y82046D01*
X163746Y89116D01*
X163953Y89616D01*
X164395D01*
X165124Y89918D01*
X165682Y90476D01*
X165941Y91100D01*
X164000D01*
Y91600D01*
X163500D01*
Y93541D01*
X162876Y93282D01*
X162318Y92724D01*
X162016Y91995D01*
Y91553D01*
X161516Y91346D01*
X155311Y97551D01*
X155369Y98200D01*
X155880Y98592D01*
X156511Y99414D01*
X156907Y100372D01*
X157012Y101168D01*
X157533Y101355D01*
X165022Y93866D01*
D02*
G37*
G36*
X91200Y87750D02*
X91246D01*
X92302Y88033D01*
X93248Y88579D01*
X94020Y89352D01*
X94567Y90298D01*
X94850Y91354D01*
Y91513D01*
X95311Y91704D01*
X98195Y88821D01*
Y59482D01*
X88207Y49494D01*
X87902Y49038D01*
X87795Y48500D01*
Y34291D01*
X87231D01*
X86512Y34196D01*
X85842Y33918D01*
X85266Y33477D01*
X84824Y32901D01*
X84547Y32230D01*
X84452Y31511D01*
Y19003D01*
X83948D01*
Y31511D01*
X83854Y32230D01*
X83576Y32901D01*
X83134Y33477D01*
X82558Y33918D01*
X81888Y34196D01*
X81169Y34291D01*
X80605D01*
Y91042D01*
X81067Y91233D01*
X82628Y89672D01*
X82628Y89672D01*
X87766Y84534D01*
X87550Y84317D01*
X87031Y83420D01*
X86763Y82418D01*
Y81382D01*
X87031Y80380D01*
X87550Y79483D01*
X88283Y78750D01*
X89180Y78231D01*
X90182Y77963D01*
X91218D01*
X92220Y78231D01*
X93117Y78750D01*
X93850Y79483D01*
X94369Y80380D01*
X94637Y81382D01*
Y82418D01*
X94369Y83420D01*
X93850Y84317D01*
X93117Y85050D01*
X92220Y85569D01*
X91218Y85837D01*
X90371D01*
X90238Y86036D01*
X88435Y87839D01*
X88742Y88239D01*
X89098Y88033D01*
X90154Y87750D01*
X90200D01*
Y91900D01*
X91200D01*
Y87750D01*
D02*
G37*
G36*
X103514Y95434D02*
X103970Y95130D01*
X104508Y95023D01*
X104801D01*
X104992Y94561D01*
X104879Y94448D01*
X104333Y93502D01*
X104050Y92446D01*
Y92400D01*
X112350D01*
Y92446D01*
X112067Y93502D01*
X111521Y94448D01*
X111408Y94561D01*
X111599Y95023D01*
X119378D01*
Y57165D01*
X98207Y35993D01*
X97902Y35538D01*
X97795Y35000D01*
Y34291D01*
X97232D01*
X96512Y34196D01*
X95842Y33918D01*
X95266Y33477D01*
X94824Y32901D01*
X94547Y32230D01*
X94452Y31511D01*
Y19003D01*
X93948D01*
Y31511D01*
X93853Y32230D01*
X93576Y32901D01*
X93134Y33477D01*
X92558Y33918D01*
X91888Y34196D01*
X91168Y34291D01*
X90605D01*
Y47918D01*
X100593Y57907D01*
X100898Y58362D01*
X101005Y58900D01*
Y86455D01*
X101467Y86646D01*
X104591Y83522D01*
X104531Y83420D01*
X104263Y82418D01*
Y81382D01*
X104531Y80380D01*
X105050Y79483D01*
X105783Y78750D01*
X106680Y78231D01*
X107682Y77963D01*
X108718D01*
X109720Y78231D01*
X110617Y78750D01*
X111350Y79483D01*
X111869Y80380D01*
X112137Y81382D01*
Y82418D01*
X111869Y83420D01*
X111350Y84317D01*
X110617Y85050D01*
X109720Y85569D01*
X108718Y85837D01*
X107682D01*
X106680Y85569D01*
X106578Y85509D01*
X102973Y89113D01*
Y90218D01*
X102866Y90756D01*
X102562Y91212D01*
X96895Y96878D01*
X97087Y97340D01*
X101608D01*
X103514Y95434D01*
D02*
G37*
G36*
X73005Y96512D02*
X72813Y96050D01*
X72654D01*
X71598Y95767D01*
X70652Y95221D01*
X69880Y94448D01*
X69333Y93502D01*
X69050Y92446D01*
Y92400D01*
X73200D01*
Y91900D01*
X73700D01*
Y87750D01*
X73746D01*
X74802Y88033D01*
X75748Y88579D01*
X76521Y89352D01*
X77067Y90298D01*
X77295Y91150D01*
X77795Y91084D01*
Y34291D01*
X77232D01*
X76512Y34196D01*
X75842Y33918D01*
X75266Y33477D01*
X74824Y32901D01*
X74546Y32230D01*
X74452Y31511D01*
Y19003D01*
X73948D01*
Y31511D01*
X73853Y32230D01*
X73576Y32901D01*
X73134Y33477D01*
X72558Y33918D01*
X71888Y34196D01*
X71169Y34291D01*
X70605D01*
Y41900D01*
X70498Y42438D01*
X70193Y42893D01*
X55624Y57463D01*
X55831Y57963D01*
X56218D01*
X57220Y58231D01*
X58117Y58750D01*
X58850Y59483D01*
X59369Y60380D01*
X59637Y61382D01*
Y62418D01*
X59369Y63420D01*
X58850Y64317D01*
X58117Y65050D01*
X57220Y65569D01*
X56218Y65837D01*
X55182D01*
X54180Y65569D01*
X53283Y65050D01*
X52550Y64317D01*
X52031Y63420D01*
X51763Y62418D01*
Y62031D01*
X51263Y61824D01*
X50605Y62482D01*
Y99200D01*
X50498Y99738D01*
X50194Y100193D01*
X46097Y104290D01*
X46305Y104790D01*
X64727D01*
X73005Y96512D01*
D02*
G37*
%LPC*%
G36*
X206281Y310858D02*
X206208Y310843D01*
X206134Y310847D01*
X206015Y310805D01*
X205891Y310780D01*
X205829Y310739D01*
X205759Y310714D01*
X205665Y310630D01*
X205560Y310559D01*
X205519Y310498D01*
X205464Y310448D01*
X205410Y310334D01*
X205339Y310229D01*
X205325Y310156D01*
X205293Y310089D01*
X195410Y271076D01*
X195403Y270950D01*
X195379Y270826D01*
X195393Y270753D01*
X195389Y270679D01*
X195432Y270560D01*
X195456Y270436D01*
X195498Y270374D01*
X195522Y270304D01*
X195607Y270210D01*
X195677Y270105D01*
X195739Y270064D01*
X195789Y270008D01*
X195903Y269954D01*
X196008Y269884D01*
X196081Y269869D01*
X196148Y269837D01*
X196274Y269831D01*
X196398Y269806D01*
X206152D01*
X206281Y269780D01*
X206671Y269858D01*
X207002Y270079D01*
X207223Y270410D01*
X207301Y270800D01*
Y309838D01*
X207286Y309911D01*
X207290Y309985D01*
X207248Y310104D01*
X207223Y310229D01*
X207182Y310290D01*
X207157Y310360D01*
X207072Y310454D01*
X207002Y310559D01*
X206940Y310601D01*
X206891Y310656D01*
X206776Y310710D01*
X206671Y310780D01*
X206599Y310795D01*
X206532Y310827D01*
X206405Y310833D01*
X206281Y310858D01*
D02*
G37*
G36*
X97173Y313116D02*
X96527Y313110D01*
X89878D01*
X89488Y313033D01*
X89157Y312812D01*
X88936Y312481D01*
X88859Y312091D01*
Y298930D01*
X88936Y298540D01*
X89157Y298209D01*
X89488Y297988D01*
X89878Y297911D01*
X96594D01*
X97244Y297911D01*
X97343Y297930D01*
X97443Y297930D01*
X98718Y298185D01*
X98811Y298223D01*
X98910Y298243D01*
X100111Y298742D01*
X100194Y298798D01*
X100287Y298837D01*
X101367Y299561D01*
X101438Y299632D01*
X101522Y299688D01*
X102439Y300610D01*
X102495Y300694D01*
X102566Y300765D01*
X103285Y301848D01*
X103323Y301941D01*
X103379Y302025D01*
X103872Y303228D01*
X103892Y303327D01*
X103930Y303420D01*
X104178Y304696D01*
X104178Y304797D01*
X104197Y304896D01*
X104191Y306196D01*
X104171Y306295D01*
X104170Y306396D01*
X103910Y307669D01*
X103871Y307762D01*
X103850Y307861D01*
X103346Y309059D01*
X103289Y309142D01*
X103250Y309235D01*
X102521Y310312D01*
X102450Y310382D01*
X102393Y310466D01*
X101467Y311379D01*
X101383Y311434D01*
X101311Y311505D01*
X100225Y312219D01*
X100131Y312257D01*
X100047Y312312D01*
X98842Y312800D01*
X98743Y312818D01*
X98650Y312856D01*
X97373Y313099D01*
X97272Y313098D01*
X97173Y313116D01*
D02*
G37*
G36*
X169570Y310858D02*
X169445Y310833D01*
X169319Y310827D01*
X169252Y310795D01*
X169179Y310780D01*
X169074Y310710D01*
X168960Y310656D01*
X168910Y310601D01*
X168849Y310559D01*
X168778Y310454D01*
X168694Y310360D01*
X168669Y310290D01*
X168628Y310229D01*
X168603Y310104D01*
X168561Y309985D01*
X168564Y309911D01*
X168550Y309838D01*
Y270800D01*
X168628Y270410D01*
X168849Y270079D01*
X169179Y269858D01*
X169570Y269780D01*
X179441D01*
X179658Y269824D01*
X179706Y269826D01*
X179731Y269838D01*
X179831Y269858D01*
X179975Y269955D01*
X180065Y269997D01*
X180104Y270040D01*
X180162Y270079D01*
X180176Y270093D01*
X180246Y270199D01*
X180331Y270293D01*
X180356Y270362D01*
X180397Y270424D01*
X180422Y270548D01*
X180464Y270668D01*
X180460Y270742D01*
X180475Y270814D01*
X180450Y270938D01*
X180444Y271065D01*
X170558Y310089D01*
X170526Y310156D01*
X170511Y310229D01*
X170441Y310334D01*
X170387Y310448D01*
X170332Y310498D01*
X170291Y310559D01*
X170185Y310630D01*
X170091Y310714D01*
X170021Y310739D01*
X169960Y310780D01*
X169836Y310805D01*
X169716Y310847D01*
X169642Y310843D01*
X169570Y310858D01*
D02*
G37*
G36*
X219500Y260041D02*
Y258600D01*
X220941D01*
X220682Y259224D01*
X220124Y259782D01*
X219500Y260041D01*
D02*
G37*
G36*
X218500D02*
X217876Y259782D01*
X217318Y259224D01*
X217059Y258600D01*
X218500D01*
Y260041D01*
D02*
G37*
G36*
X12500Y258541D02*
Y257100D01*
X13941D01*
X13682Y257724D01*
X13124Y258282D01*
X12500Y258541D01*
D02*
G37*
G36*
X11500D02*
X10876Y258282D01*
X10318Y257724D01*
X10059Y257100D01*
X11500D01*
Y258541D01*
D02*
G37*
G36*
X220941Y257600D02*
X219500D01*
Y256159D01*
X220124Y256418D01*
X220682Y256976D01*
X220941Y257600D01*
D02*
G37*
G36*
X218500D02*
X217059D01*
X217318Y256976D01*
X217876Y256418D01*
X218500Y256159D01*
Y257600D01*
D02*
G37*
G36*
X13941Y256100D02*
X12500D01*
Y254659D01*
X13124Y254918D01*
X13682Y255476D01*
X13941Y256100D01*
D02*
G37*
G36*
X11500D02*
X10059D01*
X10318Y255476D01*
X10876Y254918D01*
X11500Y254659D01*
Y256100D01*
D02*
G37*
G36*
X213072Y255371D02*
X209528D01*
X208501Y255236D01*
X207543Y254839D01*
X206720Y254208D01*
X206089Y253385D01*
X205849Y252805D01*
X194172D01*
X193635Y252698D01*
X193179Y252393D01*
X188118Y247333D01*
X157455D01*
X157009Y247463D01*
Y255337D01*
X145591D01*
Y252805D01*
X112811D01*
X112274Y252698D01*
X111818Y252393D01*
X70696Y211272D01*
X70392Y210816D01*
X70285Y210279D01*
Y202584D01*
X70392Y202046D01*
X70439Y201975D01*
Y191200D01*
X70342Y191104D01*
X70264Y190914D01*
X69773Y190817D01*
X66805Y193785D01*
Y238118D01*
X66698Y238655D01*
X66393Y239111D01*
X60975Y244530D01*
X61073Y244701D01*
X61355Y245753D01*
Y246841D01*
X61073Y247892D01*
X60529Y248835D01*
X59759Y249605D01*
X58817Y250149D01*
X57765Y250431D01*
X56677D01*
X55625Y250149D01*
X54683Y249605D01*
X53913Y248835D01*
X53369Y247892D01*
X53087Y246841D01*
Y245753D01*
X53369Y244701D01*
X53913Y243759D01*
X54683Y242989D01*
X55625Y242445D01*
X56677Y242163D01*
X57765D01*
X58817Y242445D01*
X58988Y242543D01*
X63995Y237536D01*
Y193203D01*
X64102Y192666D01*
X64225Y192482D01*
X63894Y192078D01*
X63452Y192261D01*
Y190607D01*
X65106D01*
X64967Y190943D01*
X65390Y191226D01*
X68150Y188466D01*
X68007Y187903D01*
X67523Y187702D01*
X66964Y187144D01*
X66706Y186520D01*
X68647D01*
Y186020D01*
X69147D01*
Y184079D01*
X69770Y184338D01*
X70329Y184896D01*
X70365Y184985D01*
X70973Y185145D01*
X71136Y185019D01*
Y164643D01*
X71195Y164346D01*
Y143901D01*
X71098Y143804D01*
X70828Y143152D01*
Y142448D01*
X71098Y141796D01*
X71596Y141298D01*
X72248Y141028D01*
X72952D01*
X73604Y141298D01*
X74102Y141796D01*
X74372Y142448D01*
Y143152D01*
X74102Y143804D01*
X74005Y143901D01*
Y164352D01*
X74410Y164672D01*
X74493Y164690D01*
X74600Y164646D01*
Y166800D01*
Y168954D01*
X74362Y168855D01*
X73946Y169133D01*
Y186063D01*
X73839Y186600D01*
X73534Y187056D01*
X72561Y188029D01*
X72659Y188520D01*
X72848Y188598D01*
X73346Y189096D01*
X73353Y189098D01*
X73596Y188855D01*
X74248Y188585D01*
X74952D01*
X75604Y188855D01*
X76102Y189353D01*
X76372Y190005D01*
Y190709D01*
X76102Y191360D01*
X76005Y191457D01*
Y200954D01*
X76410Y201074D01*
X76505Y201078D01*
X76985Y200598D01*
X77637Y200328D01*
X78341D01*
X78531Y200406D01*
X78946Y200129D01*
Y191351D01*
X78849Y191254D01*
X78579Y190603D01*
Y189898D01*
X78849Y189247D01*
X79348Y188749D01*
X79999Y188479D01*
X80704D01*
X81355Y188749D01*
X81853Y189247D01*
X82123Y189898D01*
Y190603D01*
X81853Y191254D01*
X81756Y191351D01*
Y205885D01*
X105205Y229334D01*
X146151D01*
X146720Y228592D01*
X147543Y227961D01*
X148501Y227564D01*
X149528Y227429D01*
X153072D01*
X154099Y227564D01*
X155057Y227961D01*
X155880Y228592D01*
X156511Y229415D01*
X156907Y230372D01*
X157043Y231400D01*
X156907Y232428D01*
X156511Y233385D01*
X156022Y234023D01*
X156258Y234523D01*
X204056D01*
X204594Y234630D01*
X205049Y234934D01*
X207920Y237805D01*
X208501Y237564D01*
X209528Y237429D01*
X213072D01*
X214099Y237564D01*
X215057Y237961D01*
X215880Y238592D01*
X216511Y239415D01*
X216907Y240372D01*
X217043Y241400D01*
X216907Y242428D01*
X216511Y243386D01*
X215880Y244208D01*
X215057Y244839D01*
X214099Y245236D01*
X213072Y245371D01*
X209528D01*
X208501Y245236D01*
X207543Y244839D01*
X206720Y244208D01*
X206089Y243386D01*
X205693Y242428D01*
X205557Y241400D01*
X205693Y240372D01*
X205933Y239792D01*
X203474Y237333D01*
X154846D01*
X154747Y237832D01*
X155057Y237961D01*
X155880Y238592D01*
X156511Y239415D01*
X156907Y240372D01*
X157043Y241400D01*
X156907Y242428D01*
X156511Y243386D01*
X156022Y244023D01*
X156258Y244523D01*
X188700D01*
X189238Y244630D01*
X189693Y244934D01*
X194754Y249995D01*
X205849D01*
X206089Y249414D01*
X206720Y248592D01*
X207543Y247961D01*
X208501Y247564D01*
X209528Y247429D01*
X213072D01*
X214099Y247564D01*
X215057Y247961D01*
X215880Y248592D01*
X216511Y249414D01*
X216907Y250372D01*
X217043Y251400D01*
X216907Y252428D01*
X216511Y253385D01*
X215880Y254208D01*
X215057Y254839D01*
X214099Y255236D01*
X213072Y255371D01*
D02*
G37*
G36*
X77793Y250643D02*
X77721D01*
Y246797D01*
X81568D01*
Y246869D01*
X81271Y247974D01*
X80699Y248966D01*
X79890Y249775D01*
X78899Y250347D01*
X77793Y250643D01*
D02*
G37*
G36*
X76721D02*
X76649D01*
X75543Y250347D01*
X74552Y249775D01*
X73743Y248966D01*
X73171Y247974D01*
X72875Y246869D01*
Y246797D01*
X76721D01*
Y250643D01*
D02*
G37*
G36*
X67765Y250431D02*
X66677D01*
X65625Y250149D01*
X64683Y249605D01*
X63913Y248835D01*
X63369Y247892D01*
X63087Y246841D01*
Y245753D01*
X63369Y244701D01*
X63913Y243759D01*
X64683Y242989D01*
X65625Y242445D01*
X66677Y242163D01*
X67765D01*
X68817Y242445D01*
X69759Y242989D01*
X70529Y243759D01*
X71073Y244701D01*
X71355Y245753D01*
Y246841D01*
X71073Y247892D01*
X70529Y248835D01*
X69759Y249605D01*
X68817Y250149D01*
X67765Y250431D01*
D02*
G37*
G36*
X47765D02*
X46677D01*
X45625Y250149D01*
X44683Y249605D01*
X43913Y248835D01*
X43369Y247892D01*
X43087Y246841D01*
Y245753D01*
X43369Y244701D01*
X43913Y243759D01*
X44683Y242989D01*
X45625Y242445D01*
X46677Y242163D01*
X47765D01*
X48817Y242445D01*
X49759Y242989D01*
X50529Y243759D01*
X51073Y244701D01*
X51355Y245753D01*
Y246841D01*
X51073Y247892D01*
X50529Y248835D01*
X49759Y249605D01*
X48817Y250149D01*
X47765Y250431D01*
D02*
G37*
G36*
X37765D02*
X36677D01*
X35625Y250149D01*
X34683Y249605D01*
X33913Y248835D01*
X33369Y247892D01*
X33087Y246841D01*
Y245753D01*
X33369Y244701D01*
X33913Y243759D01*
X34683Y242989D01*
X35625Y242445D01*
X36677Y242163D01*
X37765D01*
X38817Y242445D01*
X39759Y242989D01*
X40529Y243759D01*
X41073Y244701D01*
X41355Y245753D01*
Y246841D01*
X41073Y247892D01*
X40529Y248835D01*
X39759Y249605D01*
X38817Y250149D01*
X37765Y250431D01*
D02*
G37*
G36*
X31355D02*
X23087D01*
Y242163D01*
X31355D01*
Y250431D01*
D02*
G37*
G36*
X81568Y245797D02*
X77721D01*
Y241950D01*
X77793D01*
X78899Y242247D01*
X79890Y242819D01*
X80699Y243628D01*
X81271Y244619D01*
X81568Y245725D01*
Y245797D01*
D02*
G37*
G36*
X76721D02*
X72875D01*
Y245725D01*
X73171Y244619D01*
X73743Y243628D01*
X74552Y242819D01*
X75543Y242247D01*
X76649Y241950D01*
X76721D01*
Y245797D01*
D02*
G37*
G36*
X81200Y231041D02*
Y229600D01*
X82641D01*
X82382Y230224D01*
X81824Y230782D01*
X81200Y231041D01*
D02*
G37*
G36*
X80200D02*
X79576Y230782D01*
X79018Y230224D01*
X78759Y229600D01*
X80200D01*
Y231041D01*
D02*
G37*
G36*
X213072Y235371D02*
X209528D01*
X208501Y235236D01*
X207543Y234839D01*
X206720Y234208D01*
X206089Y233385D01*
X205693Y232428D01*
X205557Y231400D01*
X205693Y230372D01*
X206089Y229415D01*
X206720Y228592D01*
X207543Y227961D01*
X208501Y227564D01*
X209528Y227429D01*
X213072D01*
X214099Y227564D01*
X215057Y227961D01*
X215880Y228592D01*
X216511Y229415D01*
X216907Y230372D01*
X217043Y231400D01*
X216907Y232428D01*
X216511Y233385D01*
X215880Y234208D01*
X215057Y234839D01*
X214099Y235236D01*
X213072Y235371D01*
D02*
G37*
G36*
X82641Y228600D02*
X81200D01*
Y227159D01*
X81824Y227418D01*
X82382Y227976D01*
X82641Y228600D01*
D02*
G37*
G36*
X80200D02*
X78759D01*
X79018Y227976D01*
X79576Y227418D01*
X80200Y227159D01*
Y228600D01*
D02*
G37*
G36*
X213072Y225371D02*
X209528D01*
X208501Y225236D01*
X207543Y224839D01*
X206720Y224208D01*
X206089Y223386D01*
X205693Y222428D01*
X205557Y221400D01*
X205693Y220372D01*
X206089Y219414D01*
X206720Y218592D01*
X207543Y217961D01*
X208501Y217564D01*
X209528Y217429D01*
X213072D01*
X214099Y217564D01*
X215057Y217961D01*
X215880Y218592D01*
X216511Y219414D01*
X216907Y220372D01*
X217043Y221400D01*
X216907Y222428D01*
X216511Y223386D01*
X215880Y224208D01*
X215057Y224839D01*
X214099Y225236D01*
X213072Y225371D01*
D02*
G37*
G36*
X153072D02*
X149528D01*
X148501Y225236D01*
X147543Y224839D01*
X146720Y224208D01*
X146089Y223386D01*
X145693Y222428D01*
X145557Y221400D01*
X145693Y220372D01*
X146089Y219414D01*
X146720Y218592D01*
X147543Y217961D01*
X148501Y217564D01*
X149528Y217429D01*
X153072D01*
X154099Y217564D01*
X155057Y217961D01*
X155880Y218592D01*
X156511Y219414D01*
X156907Y220372D01*
X157043Y221400D01*
X156907Y222428D01*
X156511Y223386D01*
X155880Y224208D01*
X155057Y224839D01*
X154099Y225236D01*
X153072Y225371D01*
D02*
G37*
G36*
X55900Y213709D02*
Y212268D01*
X57341D01*
X57082Y212893D01*
X56524Y213451D01*
X55900Y213709D01*
D02*
G37*
G36*
X54900D02*
X54276Y213451D01*
X53718Y212893D01*
X53459Y212268D01*
X54900D01*
Y213709D01*
D02*
G37*
G36*
X57341Y211268D02*
X55900D01*
Y209828D01*
X56524Y210086D01*
X57082Y210645D01*
X57341Y211268D01*
D02*
G37*
G36*
X54900D02*
X53459D01*
X53718Y210645D01*
X54276Y210086D01*
X54900Y209828D01*
Y211268D01*
D02*
G37*
G36*
X213072Y215371D02*
X209528D01*
X208501Y215236D01*
X207543Y214839D01*
X206720Y214208D01*
X206089Y213386D01*
X205693Y212428D01*
X205557Y211400D01*
X205693Y210372D01*
X206089Y209415D01*
X206720Y208592D01*
X207543Y207961D01*
X208501Y207564D01*
X209528Y207429D01*
X213072D01*
X214099Y207564D01*
X215057Y207961D01*
X215880Y208592D01*
X216511Y209415D01*
X216907Y210372D01*
X217043Y211400D01*
X216907Y212428D01*
X216511Y213386D01*
X215880Y214208D01*
X215057Y214839D01*
X214099Y215236D01*
X213072Y215371D01*
D02*
G37*
G36*
X153072D02*
X149528D01*
X148501Y215236D01*
X147543Y214839D01*
X146720Y214208D01*
X146089Y213386D01*
X145693Y212428D01*
X145557Y211400D01*
X145693Y210372D01*
X146089Y209415D01*
X146720Y208592D01*
X147543Y207961D01*
X147853Y207833D01*
X147754Y207332D01*
X101328D01*
X100790Y207226D01*
X100334Y206921D01*
X97107Y203694D01*
X96802Y203238D01*
X96695Y202700D01*
Y195675D01*
X96513Y195403D01*
X96406Y194865D01*
Y192908D01*
X96309Y192811D01*
X96040Y192160D01*
Y191455D01*
X96309Y190804D01*
X96808Y190305D01*
X97459Y190036D01*
X97699D01*
X98173Y189710D01*
X98229Y189574D01*
X98229Y189574D01*
X98264Y189489D01*
X98443Y189059D01*
X98941Y188561D01*
X99592Y188291D01*
X100297D01*
X100948Y188561D01*
X101345Y188957D01*
X101696Y188605D01*
X102348Y188335D01*
X102485D01*
X103559Y187261D01*
X104015Y186956D01*
X104553Y186849D01*
X146383D01*
X146920Y186956D01*
X147376Y187261D01*
X147920Y187805D01*
X148501Y187564D01*
X149528Y187429D01*
X153072D01*
X154099Y187564D01*
X155057Y187961D01*
X155880Y188592D01*
X156511Y189415D01*
X156907Y190372D01*
X157043Y191400D01*
X156907Y192428D01*
X156511Y193386D01*
X155880Y194208D01*
X155636Y194395D01*
X155805Y194895D01*
X175850D01*
X180339Y190407D01*
X180794Y190102D01*
X181332Y189995D01*
X205849D01*
X206089Y189415D01*
X206720Y188592D01*
X207543Y187961D01*
X208501Y187564D01*
X209528Y187429D01*
X213072D01*
X214099Y187564D01*
X215057Y187961D01*
X215880Y188592D01*
X216511Y189415D01*
X216907Y190372D01*
X217043Y191400D01*
X216907Y192428D01*
X216511Y193386D01*
X215880Y194208D01*
X215057Y194839D01*
X214099Y195236D01*
X213072Y195371D01*
X209528D01*
X208501Y195236D01*
X207543Y194839D01*
X206720Y194208D01*
X206089Y193386D01*
X205849Y192805D01*
X181914D01*
X177426Y197293D01*
X176970Y197598D01*
X176432Y197705D01*
X155545D01*
X155375Y198205D01*
X155880Y198592D01*
X156511Y199415D01*
X156907Y200372D01*
X157043Y201400D01*
X156907Y202428D01*
X156511Y203385D01*
X156022Y204023D01*
X156258Y204523D01*
X174563D01*
X178679Y200407D01*
X179135Y200102D01*
X179672Y199995D01*
X205849D01*
X206089Y199415D01*
X206720Y198592D01*
X207543Y197961D01*
X208501Y197564D01*
X209528Y197429D01*
X213072D01*
X214099Y197564D01*
X215057Y197961D01*
X215880Y198592D01*
X216511Y199415D01*
X216907Y200372D01*
X217043Y201400D01*
X216907Y202428D01*
X216511Y203385D01*
X215880Y204208D01*
X215057Y204839D01*
X214099Y205236D01*
X213072Y205371D01*
X209528D01*
X208501Y205236D01*
X207543Y204839D01*
X206720Y204208D01*
X206089Y203385D01*
X205849Y202805D01*
X180254D01*
X176138Y206921D01*
X175682Y207226D01*
X175145Y207332D01*
X154846D01*
X154747Y207833D01*
X155057Y207961D01*
X155880Y208592D01*
X156511Y209415D01*
X156907Y210372D01*
X157043Y211400D01*
X156907Y212428D01*
X156511Y213386D01*
X155880Y214208D01*
X155057Y214839D01*
X154099Y215236D01*
X153072Y215371D01*
D02*
G37*
G36*
X45300Y198354D02*
Y196700D01*
X46954D01*
X46649Y197435D01*
X46036Y198049D01*
X45300Y198354D01*
D02*
G37*
G36*
X44300D02*
X43565Y198049D01*
X42951Y197435D01*
X42646Y196700D01*
X44300D01*
Y198354D01*
D02*
G37*
G36*
X46954Y195700D02*
X45300D01*
Y194046D01*
X46036Y194351D01*
X46649Y194965D01*
X46954Y195700D01*
D02*
G37*
G36*
X44300D02*
X42646D01*
X42951Y194965D01*
X43565Y194351D01*
X44300Y194046D01*
Y195700D01*
D02*
G37*
G36*
X62452Y192261D02*
X61717Y191956D01*
X61103Y191343D01*
X60798Y190607D01*
X62452D01*
Y192261D01*
D02*
G37*
G36*
X65106Y189607D02*
X63452D01*
Y187953D01*
X64188Y188258D01*
X64801Y188872D01*
X65106Y189607D01*
D02*
G37*
G36*
X62452D02*
X60798D01*
X61103Y188872D01*
X61717Y188258D01*
X62452Y187953D01*
Y189607D01*
D02*
G37*
G36*
X141400Y186141D02*
Y184700D01*
X142841D01*
X142582Y185324D01*
X142024Y185882D01*
X141400Y186141D01*
D02*
G37*
G36*
X140400D02*
X139776Y185882D01*
X139218Y185324D01*
X138959Y184700D01*
X140400D01*
Y186141D01*
D02*
G37*
G36*
X68147Y185520D02*
X66706D01*
X66964Y184896D01*
X67523Y184338D01*
X68147Y184079D01*
Y185520D01*
D02*
G37*
G36*
X142841Y183700D02*
X141400D01*
Y182259D01*
X142024Y182518D01*
X142582Y183076D01*
X142841Y183700D01*
D02*
G37*
G36*
X140400D02*
X138959D01*
X139218Y183076D01*
X139776Y182518D01*
X140400Y182259D01*
Y183700D01*
D02*
G37*
G36*
X80851Y180450D02*
Y178796D01*
X82505D01*
X82200Y179532D01*
X81587Y180145D01*
X80851Y180450D01*
D02*
G37*
G36*
X79851D02*
X79116Y180145D01*
X78502Y179532D01*
X78197Y178796D01*
X79851D01*
Y180450D01*
D02*
G37*
G36*
X213072Y185371D02*
X209528D01*
X208501Y185236D01*
X207543Y184839D01*
X206720Y184208D01*
X206089Y183386D01*
X205693Y182428D01*
X205557Y181400D01*
X205693Y180372D01*
X206089Y179414D01*
X206720Y178592D01*
X207543Y177961D01*
X208501Y177564D01*
X209528Y177429D01*
X213072D01*
X214099Y177564D01*
X215057Y177961D01*
X215880Y178592D01*
X216511Y179414D01*
X216907Y180372D01*
X217043Y181400D01*
X216907Y182428D01*
X216511Y183386D01*
X215880Y184208D01*
X215057Y184839D01*
X214099Y185236D01*
X213072Y185371D01*
D02*
G37*
G36*
X153072D02*
X149528D01*
X148501Y185236D01*
X147543Y184839D01*
X146720Y184208D01*
X146089Y183386D01*
X145693Y182428D01*
X145557Y181400D01*
X145693Y180372D01*
X146089Y179414D01*
X146720Y178592D01*
X147543Y177961D01*
X148501Y177564D01*
X149528Y177429D01*
X153072D01*
X154099Y177564D01*
X155057Y177961D01*
X155880Y178592D01*
X156511Y179414D01*
X156907Y180372D01*
X157043Y181400D01*
X156907Y182428D01*
X156511Y183386D01*
X155880Y184208D01*
X155057Y184839D01*
X154099Y185236D01*
X153072Y185371D01*
D02*
G37*
G36*
X82505Y177796D02*
X80851D01*
Y176142D01*
X81587Y176447D01*
X82200Y177061D01*
X82505Y177796D01*
D02*
G37*
G36*
X79851D02*
X78197D01*
X78502Y177061D01*
X79116Y176447D01*
X79851Y176142D01*
Y177796D01*
D02*
G37*
G36*
X92500Y171854D02*
Y170200D01*
X94154D01*
X93849Y170935D01*
X93235Y171549D01*
X92500Y171854D01*
D02*
G37*
G36*
X91500D02*
X90764Y171549D01*
X90151Y170935D01*
X89846Y170200D01*
X91500D01*
Y171854D01*
D02*
G37*
G36*
X94154Y169200D02*
X92500D01*
Y167546D01*
X93235Y167851D01*
X93849Y168465D01*
X94154Y169200D01*
D02*
G37*
G36*
X91500D02*
X89846D01*
X90151Y168465D01*
X90764Y167851D01*
X91500Y167546D01*
Y169200D01*
D02*
G37*
G36*
X213072Y175371D02*
X209528D01*
X208501Y175236D01*
X207543Y174839D01*
X206720Y174208D01*
X206089Y173386D01*
X205693Y172428D01*
X205557Y171400D01*
X205693Y170372D01*
X206089Y169414D01*
X206720Y168592D01*
X207543Y167961D01*
X208501Y167564D01*
X209528Y167429D01*
X213072D01*
X214099Y167564D01*
X215057Y167961D01*
X215880Y168592D01*
X216511Y169414D01*
X216907Y170372D01*
X217043Y171400D01*
X216907Y172428D01*
X216511Y173386D01*
X215880Y174208D01*
X215057Y174839D01*
X214099Y175236D01*
X213072Y175371D01*
D02*
G37*
G36*
X153072D02*
X149528D01*
X148501Y175236D01*
X147543Y174839D01*
X146720Y174208D01*
X146089Y173386D01*
X145693Y172428D01*
X145557Y171400D01*
X145693Y170372D01*
X146089Y169414D01*
X146720Y168592D01*
X147543Y167961D01*
X148501Y167564D01*
X149528Y167429D01*
X153072D01*
X154099Y167564D01*
X155057Y167961D01*
X155880Y168592D01*
X156511Y169414D01*
X156907Y170372D01*
X157043Y171400D01*
X156907Y172428D01*
X156511Y173386D01*
X155880Y174208D01*
X155057Y174839D01*
X154099Y175236D01*
X153072Y175371D01*
D02*
G37*
G36*
X75600Y168954D02*
Y167300D01*
X77254D01*
X76949Y168035D01*
X76336Y168649D01*
X75600Y168954D01*
D02*
G37*
G36*
X77254Y166300D02*
X75600D01*
Y164646D01*
X76336Y164951D01*
X76949Y165565D01*
X77254Y166300D01*
D02*
G37*
G36*
X40800Y165026D02*
Y163586D01*
X42241D01*
X41982Y164210D01*
X41424Y164768D01*
X40800Y165026D01*
D02*
G37*
G36*
X39800D02*
X39176Y164768D01*
X38618Y164210D01*
X38359Y163586D01*
X39800D01*
Y165026D01*
D02*
G37*
G36*
X140346Y165550D02*
X140300D01*
Y161900D01*
X143950D01*
Y161946D01*
X143667Y163002D01*
X143121Y163948D01*
X142348Y164720D01*
X141402Y165267D01*
X140346Y165550D01*
D02*
G37*
G36*
X139300D02*
X139254D01*
X138198Y165267D01*
X137252Y164720D01*
X136479Y163948D01*
X135933Y163002D01*
X135650Y161946D01*
Y161900D01*
X139300D01*
Y165550D01*
D02*
G37*
G36*
X159100Y162841D02*
Y161400D01*
X160541D01*
X160282Y162024D01*
X159724Y162582D01*
X159100Y162841D01*
D02*
G37*
G36*
X78600Y171906D02*
X78426Y171872D01*
X78248D01*
X78083Y171804D01*
X77909Y171769D01*
X77761Y171670D01*
X77596Y171602D01*
X77471Y171476D01*
X77323Y171377D01*
X77224Y171229D01*
X77098Y171104D01*
X77030Y170939D01*
X76931Y170791D01*
X76896Y170617D01*
X76828Y170452D01*
Y170274D01*
X76794Y170100D01*
X76828Y169925D01*
Y169748D01*
X76896Y169583D01*
X76931Y169409D01*
X77030Y169261D01*
X77098Y169096D01*
X77224Y168971D01*
X77323Y168823D01*
X84385Y161761D01*
X84971Y161369D01*
X85662Y161232D01*
X86762D01*
X86937Y161266D01*
X87115D01*
X87279Y161334D01*
X87453Y161369D01*
X87601Y161468D01*
X87766Y161536D01*
X87892Y161662D01*
X88039Y161761D01*
X88138Y161908D01*
X88264Y162034D01*
X88332Y162199D01*
X88431Y162347D01*
X88466Y162521D01*
X88534Y162686D01*
Y162863D01*
X88569Y163038D01*
X88534Y163212D01*
Y163390D01*
X88466Y163555D01*
X88431Y163729D01*
X88332Y163877D01*
X88264Y164041D01*
X88138Y164167D01*
X88039Y164315D01*
X87892Y164414D01*
X87766Y164540D01*
X87601Y164608D01*
X87453Y164707D01*
X87279Y164741D01*
X87115Y164810D01*
X86937D01*
X86762Y164844D01*
X86410D01*
X79877Y171377D01*
X79729Y171476D01*
X79604Y171602D01*
X79439Y171670D01*
X79291Y171769D01*
X79117Y171804D01*
X78952Y171872D01*
X78774D01*
X78600Y171906D01*
D02*
G37*
G36*
X42241Y162586D02*
X40800D01*
Y161145D01*
X41424Y161404D01*
X41982Y161962D01*
X42241Y162586D01*
D02*
G37*
G36*
X39800D02*
X38359D01*
X38618Y161962D01*
X39176Y161404D01*
X39800Y161145D01*
Y162586D01*
D02*
G37*
G36*
X87268Y160432D02*
Y158992D01*
X88708D01*
X88450Y159616D01*
X87891Y160174D01*
X87268Y160432D01*
D02*
G37*
G36*
X86268D02*
X85644Y160174D01*
X85085Y159616D01*
X84827Y158992D01*
X86268D01*
Y160432D01*
D02*
G37*
G36*
X160541Y160400D02*
X159100D01*
Y158959D01*
X159724Y159218D01*
X160282Y159776D01*
X160541Y160400D01*
D02*
G37*
G36*
X213072Y165371D02*
X209528D01*
X208501Y165236D01*
X207543Y164839D01*
X206720Y164208D01*
X206089Y163385D01*
X205693Y162428D01*
X205557Y161400D01*
X205693Y160372D01*
X206089Y159415D01*
X206720Y158592D01*
X207543Y157961D01*
X208501Y157564D01*
X209528Y157429D01*
X213072D01*
X214099Y157564D01*
X215057Y157961D01*
X215880Y158592D01*
X216511Y159415D01*
X216907Y160372D01*
X217043Y161400D01*
X216907Y162428D01*
X216511Y163385D01*
X215880Y164208D01*
X215057Y164839D01*
X214099Y165236D01*
X213072Y165371D01*
D02*
G37*
G36*
X143950Y160900D02*
X140300D01*
Y157250D01*
X140346D01*
X141402Y157533D01*
X142348Y158080D01*
X143121Y158852D01*
X143667Y159798D01*
X143950Y160854D01*
Y160900D01*
D02*
G37*
G36*
X139300D02*
X135650D01*
Y160854D01*
X135933Y159798D01*
X136479Y158852D01*
X137252Y158080D01*
X138198Y157533D01*
X139254Y157250D01*
X139300D01*
Y160900D01*
D02*
G37*
G36*
X202400Y158441D02*
Y157000D01*
X203841D01*
X203582Y157624D01*
X203024Y158182D01*
X202400Y158441D01*
D02*
G37*
G36*
X201400D02*
X200776Y158182D01*
X200218Y157624D01*
X199959Y157000D01*
X201400D01*
Y158441D01*
D02*
G37*
G36*
X221900Y158341D02*
Y156900D01*
X223341D01*
X223082Y157524D01*
X222524Y158082D01*
X221900Y158341D01*
D02*
G37*
G36*
X220900D02*
X220276Y158082D01*
X219718Y157524D01*
X219459Y156900D01*
X220900D01*
Y158341D01*
D02*
G37*
G36*
X88708Y157992D02*
X87268D01*
Y156551D01*
X87891Y156810D01*
X88450Y157368D01*
X88708Y157992D01*
D02*
G37*
G36*
X86268D02*
X84827D01*
X85085Y157368D01*
X85644Y156810D01*
X86268Y156551D01*
Y157992D01*
D02*
G37*
G36*
X79100Y156615D02*
Y155174D01*
X80541D01*
X80282Y155798D01*
X79724Y156356D01*
X79100Y156615D01*
D02*
G37*
G36*
X78100D02*
X77476Y156356D01*
X76918Y155798D01*
X76659Y155174D01*
X78100D01*
Y156615D01*
D02*
G37*
G36*
X59174Y156828D02*
Y155174D01*
X60828D01*
X60523Y155910D01*
X59909Y156523D01*
X59174Y156828D01*
D02*
G37*
G36*
X58174D02*
X57438Y156523D01*
X56825Y155910D01*
X56520Y155174D01*
X58174D01*
Y156828D01*
D02*
G37*
G36*
X203841Y156000D02*
X202400D01*
Y154559D01*
X203024Y154818D01*
X203582Y155376D01*
X203841Y156000D01*
D02*
G37*
G36*
X201400D02*
X199959D01*
X200218Y155376D01*
X200776Y154818D01*
X201400Y154559D01*
Y156000D01*
D02*
G37*
G36*
X223341Y155900D02*
X221900D01*
Y154459D01*
X222524Y154718D01*
X223082Y155276D01*
X223341Y155900D01*
D02*
G37*
G36*
X220900D02*
X219459D01*
X219718Y155276D01*
X220276Y154718D01*
X220900Y154459D01*
Y155900D01*
D02*
G37*
G36*
X80541Y154174D02*
X79100D01*
Y152733D01*
X79724Y152992D01*
X80282Y153550D01*
X80541Y154174D01*
D02*
G37*
G36*
X78100D02*
X76659D01*
X76918Y153550D01*
X77476Y152992D01*
X78100Y152733D01*
Y154174D01*
D02*
G37*
G36*
X60828D02*
X59174D01*
Y152520D01*
X59909Y152825D01*
X60523Y153438D01*
X60828Y154174D01*
D02*
G37*
G36*
X58174D02*
X56520D01*
X56825Y153438D01*
X57438Y152825D01*
X58174Y152520D01*
Y154174D01*
D02*
G37*
G36*
X173100Y153341D02*
Y151900D01*
X174541D01*
X174282Y152524D01*
X173724Y153082D01*
X173100Y153341D01*
D02*
G37*
G36*
X172100D02*
X171476Y153082D01*
X170918Y152524D01*
X170659Y151900D01*
X172100D01*
Y153341D01*
D02*
G37*
G36*
X174541Y150900D02*
X173100D01*
Y149459D01*
X173724Y149718D01*
X174282Y150276D01*
X174541Y150900D01*
D02*
G37*
G36*
X172100D02*
X170659D01*
X170918Y150276D01*
X171476Y149718D01*
X172100Y149459D01*
Y150900D01*
D02*
G37*
G36*
X202400Y149370D02*
Y147929D01*
X203841D01*
X203582Y148553D01*
X203024Y149111D01*
X202400Y149370D01*
D02*
G37*
G36*
X201400D02*
X200776Y149111D01*
X200218Y148553D01*
X199959Y147929D01*
X201400D01*
Y149370D01*
D02*
G37*
G36*
X185800Y149241D02*
Y147800D01*
X187241D01*
X186982Y148424D01*
X186424Y148982D01*
X185800Y149241D01*
D02*
G37*
G36*
X184800D02*
X184176Y148982D01*
X183618Y148424D01*
X183359Y147800D01*
X184800D01*
Y149241D01*
D02*
G37*
G36*
X213072Y155371D02*
X209528D01*
X208501Y155236D01*
X207543Y154839D01*
X206720Y154208D01*
X206089Y153385D01*
X205693Y152428D01*
X205557Y151400D01*
X205693Y150372D01*
X206089Y149415D01*
X206720Y148592D01*
X207543Y147961D01*
X208501Y147564D01*
X209528Y147429D01*
X213072D01*
X214099Y147564D01*
X215057Y147961D01*
X215880Y148592D01*
X216511Y149415D01*
X216907Y150372D01*
X217043Y151400D01*
X216907Y152428D01*
X216511Y153385D01*
X215880Y154208D01*
X215057Y154839D01*
X214099Y155236D01*
X213072Y155371D01*
D02*
G37*
G36*
X153072D02*
X149528D01*
X148501Y155236D01*
X147543Y154839D01*
X146720Y154208D01*
X146089Y153385D01*
X145693Y152428D01*
X145557Y151400D01*
X145693Y150372D01*
X146089Y149415D01*
X146720Y148592D01*
X147543Y147961D01*
X148501Y147564D01*
X149528Y147429D01*
X153072D01*
X154099Y147564D01*
X155057Y147961D01*
X155880Y148592D01*
X156511Y149415D01*
X156907Y150372D01*
X157043Y151400D01*
X156907Y152428D01*
X156511Y153385D01*
X155880Y154208D01*
X155057Y154839D01*
X154099Y155236D01*
X153072Y155371D01*
D02*
G37*
G36*
X203841Y146929D02*
X202400D01*
Y145488D01*
X203024Y145747D01*
X203582Y146305D01*
X203841Y146929D01*
D02*
G37*
G36*
X201400D02*
X199959D01*
X200218Y146305D01*
X200776Y145747D01*
X201400Y145488D01*
Y146929D01*
D02*
G37*
G36*
X187241Y146800D02*
X185800D01*
Y145359D01*
X186424Y145618D01*
X186982Y146176D01*
X187241Y146800D01*
D02*
G37*
G36*
X184800D02*
X183359D01*
X183618Y146176D01*
X184176Y145618D01*
X184800Y145359D01*
Y146800D01*
D02*
G37*
G36*
X67367Y145093D02*
Y143652D01*
X68808D01*
X68549Y144276D01*
X67991Y144835D01*
X67367Y145093D01*
D02*
G37*
G36*
X66367D02*
X65743Y144835D01*
X65185Y144276D01*
X64926Y143652D01*
X66367D01*
Y145093D01*
D02*
G37*
G36*
X106265Y145017D02*
X105529Y144712D01*
X104915Y144098D01*
X104611Y143363D01*
X106265D01*
Y145017D01*
D02*
G37*
G36*
X168800Y143741D02*
Y142300D01*
X170241D01*
X169982Y142924D01*
X169424Y143482D01*
X168800Y143741D01*
D02*
G37*
G36*
X167800D02*
X167176Y143482D01*
X166618Y142924D01*
X166359Y142300D01*
X167800D01*
Y143741D01*
D02*
G37*
G36*
X213072Y145585D02*
X211800D01*
Y141900D01*
X217191D01*
X217114Y142483D01*
X216696Y143493D01*
X216031Y144360D01*
X215164Y145025D01*
X214155Y145443D01*
X213072Y145585D01*
D02*
G37*
G36*
X210800D02*
X209528D01*
X208445Y145443D01*
X207436Y145025D01*
X206569Y144360D01*
X205904Y143493D01*
X205486Y142483D01*
X205409Y141900D01*
X210800D01*
Y145585D01*
D02*
G37*
G36*
X68808Y142652D02*
X67367D01*
Y141212D01*
X67991Y141470D01*
X68549Y142028D01*
X68808Y142652D01*
D02*
G37*
G36*
X66367D02*
X64926D01*
X65185Y142028D01*
X65743Y141470D01*
X66367Y141212D01*
Y142652D01*
D02*
G37*
G36*
X108918Y142363D02*
X107265D01*
Y140709D01*
X108000Y141014D01*
X108614Y141628D01*
X108918Y142363D01*
D02*
G37*
G36*
X106265D02*
X104611D01*
X104915Y141628D01*
X105529Y141014D01*
X106265Y140709D01*
Y142363D01*
D02*
G37*
G36*
X51200Y142354D02*
Y140700D01*
X52854D01*
X52549Y141436D01*
X51935Y142049D01*
X51200Y142354D01*
D02*
G37*
G36*
X127647Y141749D02*
X126911Y141444D01*
X126297Y140830D01*
X125993Y140095D01*
X127647D01*
Y141749D01*
D02*
G37*
G36*
X170241Y141300D02*
X168800D01*
Y139859D01*
X169424Y140118D01*
X169982Y140676D01*
X170241Y141300D01*
D02*
G37*
G36*
X167800D02*
X166359D01*
X166618Y140676D01*
X167176Y140118D01*
X167800Y139859D01*
Y141300D01*
D02*
G37*
G36*
X52854Y139700D02*
X51200D01*
Y138046D01*
X51935Y138351D01*
X52549Y138964D01*
X52854Y139700D01*
D02*
G37*
G36*
X127647Y139095D02*
X125993D01*
X126297Y138359D01*
X126911Y137746D01*
X127647Y137441D01*
Y139095D01*
D02*
G37*
G36*
X153072Y145371D02*
X149528D01*
X148501Y145236D01*
X147543Y144839D01*
X146720Y144208D01*
X146089Y143386D01*
X145693Y142428D01*
X145557Y141400D01*
X145693Y140372D01*
X146089Y139415D01*
X146720Y138592D01*
X147543Y137961D01*
X148501Y137564D01*
X149528Y137429D01*
X153072D01*
X154099Y137564D01*
X155057Y137961D01*
X155880Y138592D01*
X156511Y139415D01*
X156907Y140372D01*
X157043Y141400D01*
X156907Y142428D01*
X156511Y143386D01*
X155880Y144208D01*
X155057Y144839D01*
X154099Y145236D01*
X153072Y145371D01*
D02*
G37*
G36*
X217191Y140900D02*
X211800D01*
Y137215D01*
X213072D01*
X214155Y137357D01*
X215164Y137775D01*
X216031Y138441D01*
X216696Y139307D01*
X217114Y140317D01*
X217191Y140900D01*
D02*
G37*
G36*
X210800D02*
X205409D01*
X205486Y140317D01*
X205904Y139307D01*
X206569Y138441D01*
X207436Y137775D01*
X208445Y137357D01*
X209528Y137215D01*
X210800D01*
Y140900D01*
D02*
G37*
G36*
X43796Y138111D02*
Y136670D01*
X45237D01*
X44978Y137294D01*
X44420Y137852D01*
X43796Y138111D01*
D02*
G37*
G36*
X42796D02*
X42172Y137852D01*
X41614Y137294D01*
X41356Y136670D01*
X42796D01*
Y138111D01*
D02*
G37*
G36*
X45237Y135670D02*
X43796D01*
Y134229D01*
X44420Y134488D01*
X44978Y135046D01*
X45237Y135670D01*
D02*
G37*
G36*
X42796D02*
X41356D01*
X41614Y135046D01*
X42172Y134488D01*
X42796Y134229D01*
Y135670D01*
D02*
G37*
G36*
X213072Y135371D02*
X209528D01*
X208501Y135236D01*
X207543Y134839D01*
X206720Y134208D01*
X206089Y133386D01*
X205693Y132428D01*
X205557Y131400D01*
X205693Y130372D01*
X206089Y129414D01*
X206720Y128592D01*
X207543Y127961D01*
X208501Y127564D01*
X209528Y127429D01*
X213072D01*
X214099Y127564D01*
X215057Y127961D01*
X215880Y128592D01*
X216511Y129414D01*
X216907Y130372D01*
X217043Y131400D01*
X216907Y132428D01*
X216511Y133386D01*
X215880Y134208D01*
X215057Y134839D01*
X214099Y135236D01*
X213072Y135371D01*
D02*
G37*
G36*
X153072D02*
X149528D01*
X148501Y135236D01*
X147543Y134839D01*
X146720Y134208D01*
X146089Y133386D01*
X145693Y132428D01*
X145557Y131400D01*
X145693Y130372D01*
X146089Y129414D01*
X146720Y128592D01*
X147543Y127961D01*
X148501Y127564D01*
X149528Y127429D01*
X153072D01*
X154099Y127564D01*
X155057Y127961D01*
X155880Y128592D01*
X156511Y129414D01*
X156907Y130372D01*
X157043Y131400D01*
X156907Y132428D01*
X156511Y133386D01*
X155880Y134208D01*
X155057Y134839D01*
X154099Y135236D01*
X153072Y135371D01*
D02*
G37*
G36*
X10404Y122050D02*
X10357D01*
Y118400D01*
X14007D01*
Y118446D01*
X13724Y119502D01*
X13178Y120448D01*
X12405Y121221D01*
X11459Y121767D01*
X10404Y122050D01*
D02*
G37*
G36*
X9358D02*
X9311D01*
X8256Y121767D01*
X7310Y121221D01*
X6537Y120448D01*
X5991Y119502D01*
X5708Y118446D01*
Y118400D01*
X9358D01*
Y122050D01*
D02*
G37*
G36*
X213072Y125371D02*
X209528D01*
X208501Y125236D01*
X207543Y124839D01*
X206720Y124208D01*
X206089Y123386D01*
X205693Y122428D01*
X205557Y121400D01*
X205693Y120372D01*
X206089Y119414D01*
X206720Y118592D01*
X207543Y117961D01*
X208501Y117564D01*
X209528Y117429D01*
X213072D01*
X214099Y117564D01*
X215057Y117961D01*
X215880Y118592D01*
X216511Y119414D01*
X216907Y120372D01*
X217043Y121400D01*
X216907Y122428D01*
X216511Y123386D01*
X215880Y124208D01*
X215057Y124839D01*
X214099Y125236D01*
X213072Y125371D01*
D02*
G37*
G36*
X153072D02*
X149528D01*
X148501Y125236D01*
X147543Y124839D01*
X146720Y124208D01*
X146089Y123386D01*
X145693Y122428D01*
X145557Y121400D01*
X145693Y120372D01*
X146089Y119414D01*
X146720Y118592D01*
X147543Y117961D01*
X148501Y117564D01*
X149528Y117429D01*
X153072D01*
X154099Y117564D01*
X155057Y117961D01*
X155880Y118592D01*
X156511Y119414D01*
X156907Y120372D01*
X157043Y121400D01*
X156907Y122428D01*
X156511Y123386D01*
X155880Y124208D01*
X155057Y124839D01*
X154099Y125236D01*
X153072Y125371D01*
D02*
G37*
G36*
X14007Y117400D02*
X10357D01*
Y113750D01*
X10404D01*
X11459Y114033D01*
X12405Y114579D01*
X13178Y115352D01*
X13724Y116298D01*
X14007Y117354D01*
Y117400D01*
D02*
G37*
G36*
X9358D02*
X5708D01*
Y117354D01*
X5991Y116298D01*
X6537Y115352D01*
X7310Y114579D01*
X8256Y114033D01*
X9311Y113750D01*
X9358D01*
Y117400D01*
D02*
G37*
G36*
X213072Y115371D02*
X209528D01*
X208501Y115236D01*
X207543Y114839D01*
X206720Y114208D01*
X206089Y113385D01*
X205693Y112428D01*
X205557Y111400D01*
X205693Y110372D01*
X206089Y109415D01*
X206720Y108592D01*
X207543Y107961D01*
X208501Y107564D01*
X209528Y107429D01*
X213072D01*
X214099Y107564D01*
X215057Y107961D01*
X215880Y108592D01*
X216511Y109415D01*
X216907Y110372D01*
X217043Y111400D01*
X216907Y112428D01*
X216511Y113385D01*
X215880Y114208D01*
X215057Y114839D01*
X214099Y115236D01*
X213072Y115371D01*
D02*
G37*
G36*
Y105371D02*
X209528D01*
X208501Y105236D01*
X207543Y104839D01*
X206720Y104208D01*
X206089Y103385D01*
X205693Y102428D01*
X205557Y101400D01*
X205693Y100372D01*
X206089Y99414D01*
X206720Y98592D01*
X207543Y97961D01*
X208501Y97564D01*
X209528Y97429D01*
X213072D01*
X214099Y97564D01*
X215057Y97961D01*
X215880Y98592D01*
X216511Y99414D01*
X216907Y100372D01*
X217043Y101400D01*
X216907Y102428D01*
X216511Y103385D01*
X215880Y104208D01*
X215057Y104839D01*
X214099Y105236D01*
X213072Y105371D01*
D02*
G37*
G36*
X38746Y96050D02*
X38700D01*
Y92400D01*
X42350D01*
Y92446D01*
X42067Y93502D01*
X41521Y94448D01*
X40748Y95221D01*
X39802Y95767D01*
X38746Y96050D01*
D02*
G37*
G36*
X37700D02*
X37654D01*
X36598Y95767D01*
X35652Y95221D01*
X34879Y94448D01*
X34333Y93502D01*
X34050Y92446D01*
Y92400D01*
X37700D01*
Y96050D01*
D02*
G37*
G36*
X21246D02*
X21200D01*
Y92400D01*
X24850D01*
Y92446D01*
X24567Y93502D01*
X24021Y94448D01*
X23248Y95221D01*
X22302Y95767D01*
X21246Y96050D01*
D02*
G37*
G36*
X20200D02*
X20154D01*
X19098Y95767D01*
X18152Y95221D01*
X17379Y94448D01*
X16833Y93502D01*
X16550Y92446D01*
Y92400D01*
X20200D01*
Y96050D01*
D02*
G37*
G36*
X42350Y91400D02*
X38700D01*
Y87750D01*
X38746D01*
X39802Y88033D01*
X40748Y88579D01*
X41521Y89352D01*
X42067Y90298D01*
X42350Y91354D01*
Y91400D01*
D02*
G37*
G36*
X37700D02*
X34050D01*
Y91354D01*
X34333Y90298D01*
X34879Y89352D01*
X35652Y88579D01*
X36598Y88033D01*
X37654Y87750D01*
X37700D01*
Y91400D01*
D02*
G37*
G36*
X24850D02*
X21200D01*
Y87750D01*
X21246D01*
X22302Y88033D01*
X23248Y88579D01*
X24021Y89352D01*
X24567Y90298D01*
X24850Y91354D01*
Y91400D01*
D02*
G37*
G36*
X20200D02*
X16550D01*
Y91354D01*
X16833Y90298D01*
X17379Y89352D01*
X18152Y88579D01*
X19098Y88033D01*
X20154Y87750D01*
X20200D01*
Y91400D01*
D02*
G37*
G36*
X213072Y95371D02*
X209528D01*
X208501Y95236D01*
X207543Y94839D01*
X206720Y94208D01*
X206089Y93385D01*
X205693Y92428D01*
X205557Y91400D01*
X205693Y90372D01*
X206089Y89415D01*
X206720Y88592D01*
X207543Y87961D01*
X208501Y87564D01*
X209528Y87429D01*
X213072D01*
X214099Y87564D01*
X215057Y87961D01*
X215880Y88592D01*
X216511Y89415D01*
X216907Y90372D01*
X217043Y91400D01*
X216907Y92428D01*
X216511Y93385D01*
X215880Y94208D01*
X215057Y94839D01*
X214099Y95236D01*
X213072Y95371D01*
D02*
G37*
G36*
X30300Y85941D02*
Y84500D01*
X31741D01*
X31482Y85124D01*
X30924Y85682D01*
X30300Y85941D01*
D02*
G37*
G36*
X29300D02*
X28676Y85682D01*
X28118Y85124D01*
X27859Y84500D01*
X29300D01*
Y85941D01*
D02*
G37*
G36*
X31741Y83500D02*
X30300D01*
Y82059D01*
X30924Y82318D01*
X31482Y82876D01*
X31741Y83500D01*
D02*
G37*
G36*
X29300D02*
X27859D01*
X28118Y82876D01*
X28676Y82318D01*
X29300Y82059D01*
Y83500D01*
D02*
G37*
G36*
X38718Y85837D02*
X37682D01*
X36680Y85569D01*
X35783Y85050D01*
X35050Y84317D01*
X34531Y83420D01*
X34263Y82418D01*
Y81382D01*
X34531Y80380D01*
X35050Y79483D01*
X35783Y78750D01*
X36680Y78231D01*
X37682Y77963D01*
X38718D01*
X39720Y78231D01*
X40617Y78750D01*
X41350Y79483D01*
X41869Y80380D01*
X42137Y81382D01*
Y82418D01*
X41869Y83420D01*
X41350Y84317D01*
X40617Y85050D01*
X39720Y85569D01*
X38718Y85837D01*
D02*
G37*
G36*
X21218D02*
X20182D01*
X19180Y85569D01*
X18283Y85050D01*
X17550Y84317D01*
X17031Y83420D01*
X16763Y82418D01*
Y81382D01*
X17031Y80380D01*
X17550Y79483D01*
X18283Y78750D01*
X19180Y78231D01*
X20182Y77963D01*
X21218D01*
X22220Y78231D01*
X23117Y78750D01*
X23850Y79483D01*
X24369Y80380D01*
X24637Y81382D01*
Y82418D01*
X24369Y83420D01*
X23850Y84317D01*
X23117Y85050D01*
X22220Y85569D01*
X21218Y85837D01*
D02*
G37*
G36*
X213072Y85371D02*
X209528D01*
X208501Y85236D01*
X207543Y84839D01*
X206720Y84208D01*
X206089Y83385D01*
X205693Y82428D01*
X205557Y81400D01*
X205693Y80372D01*
X206089Y79414D01*
X206720Y78592D01*
X207543Y77961D01*
X208501Y77564D01*
X209528Y77429D01*
X213072D01*
X214099Y77564D01*
X215057Y77961D01*
X215880Y78592D01*
X216511Y79414D01*
X216907Y80372D01*
X217043Y81400D01*
X216907Y82428D01*
X216511Y83385D01*
X215880Y84208D01*
X215057Y84839D01*
X214099Y85236D01*
X213072Y85371D01*
D02*
G37*
G36*
X38718Y75837D02*
X37682D01*
X36680Y75569D01*
X35783Y75050D01*
X35050Y74317D01*
X34531Y73420D01*
X34263Y72418D01*
Y71382D01*
X34531Y70380D01*
X35050Y69483D01*
X35783Y68750D01*
X36680Y68231D01*
X37682Y67963D01*
X38718D01*
X39720Y68231D01*
X40617Y68750D01*
X41350Y69483D01*
X41869Y70380D01*
X42137Y71382D01*
Y72418D01*
X41869Y73420D01*
X41350Y74317D01*
X40617Y75050D01*
X39720Y75569D01*
X38718Y75837D01*
D02*
G37*
G36*
X21218D02*
X20182D01*
X19180Y75569D01*
X18283Y75050D01*
X17550Y74317D01*
X17031Y73420D01*
X16763Y72418D01*
Y71382D01*
X17031Y70380D01*
X17550Y69483D01*
X18283Y68750D01*
X19180Y68231D01*
X20182Y67963D01*
X21218D01*
X22220Y68231D01*
X23117Y68750D01*
X23850Y69483D01*
X24369Y70380D01*
X24637Y71382D01*
Y72418D01*
X24369Y73420D01*
X23850Y74317D01*
X23117Y75050D01*
X22220Y75569D01*
X21218Y75837D01*
D02*
G37*
G36*
X213072Y75371D02*
X209528D01*
X208501Y75236D01*
X207543Y74839D01*
X206720Y74208D01*
X206089Y73386D01*
X205693Y72428D01*
X205557Y71400D01*
X205693Y70372D01*
X206089Y69415D01*
X206720Y68592D01*
X207543Y67961D01*
X208501Y67564D01*
X209528Y67429D01*
X213072D01*
X214099Y67564D01*
X215057Y67961D01*
X215880Y68592D01*
X216511Y69415D01*
X216907Y70372D01*
X217043Y71400D01*
X216907Y72428D01*
X216511Y73386D01*
X215880Y74208D01*
X215057Y74839D01*
X214099Y75236D01*
X213072Y75371D01*
D02*
G37*
G36*
Y65371D02*
X209528D01*
X208501Y65236D01*
X207543Y64839D01*
X206720Y64208D01*
X206089Y63385D01*
X205693Y62428D01*
X205557Y61400D01*
X205693Y60372D01*
X206089Y59414D01*
X206720Y58592D01*
X207543Y57961D01*
X208501Y57564D01*
X209528Y57429D01*
X213072D01*
X214099Y57564D01*
X215057Y57961D01*
X215880Y58592D01*
X216511Y59414D01*
X216907Y60372D01*
X217043Y61400D01*
X216907Y62428D01*
X216511Y63385D01*
X215880Y64208D01*
X215057Y64839D01*
X214099Y65236D01*
X213072Y65371D01*
D02*
G37*
G36*
X223100Y58541D02*
Y57100D01*
X224541D01*
X224282Y57724D01*
X223724Y58282D01*
X223100Y58541D01*
D02*
G37*
G36*
X222100D02*
X221476Y58282D01*
X220918Y57724D01*
X220659Y57100D01*
X222100D01*
Y58541D01*
D02*
G37*
G36*
X224541Y56100D02*
X223100D01*
Y54659D01*
X223724Y54918D01*
X224282Y55476D01*
X224541Y56100D01*
D02*
G37*
G36*
X222100D02*
X220659D01*
X220918Y55476D01*
X221476Y54918D01*
X222100Y54659D01*
Y56100D01*
D02*
G37*
G36*
X44500Y46041D02*
Y44600D01*
X45941D01*
X45682Y45224D01*
X45124Y45782D01*
X44500Y46041D01*
D02*
G37*
G36*
X43500D02*
X42876Y45782D01*
X42318Y45224D01*
X42059Y44600D01*
X43500D01*
Y46041D01*
D02*
G37*
G36*
X219720Y46053D02*
X219700D01*
Y42600D01*
X223153D01*
Y42620D01*
X222883Y43626D01*
X222363Y44527D01*
X221627Y45263D01*
X220726Y45783D01*
X219720Y46053D01*
D02*
G37*
G36*
X218700D02*
X218680D01*
X217674Y45783D01*
X216773Y45263D01*
X216037Y44527D01*
X215517Y43626D01*
X215247Y42620D01*
Y42600D01*
X218700D01*
Y46053D01*
D02*
G37*
G36*
X45941Y43600D02*
X44500D01*
Y42159D01*
X45124Y42418D01*
X45682Y42976D01*
X45941Y43600D01*
D02*
G37*
G36*
X43500D02*
X42059D01*
X42318Y42976D01*
X42876Y42418D01*
X43500Y42159D01*
Y43600D01*
D02*
G37*
G36*
X9820Y42753D02*
X9800D01*
Y39300D01*
X13253D01*
Y39320D01*
X12983Y40326D01*
X12463Y41227D01*
X11727Y41963D01*
X10826Y42483D01*
X9820Y42753D01*
D02*
G37*
G36*
X8800D02*
X8780D01*
X7774Y42483D01*
X6873Y41963D01*
X6137Y41227D01*
X5617Y40326D01*
X5347Y39320D01*
Y39300D01*
X8800D01*
Y42753D01*
D02*
G37*
G36*
X223153Y41600D02*
X219700D01*
Y38147D01*
X219720D01*
X220726Y38417D01*
X221627Y38937D01*
X222363Y39673D01*
X222883Y40574D01*
X223153Y41580D01*
Y41600D01*
D02*
G37*
G36*
X218700D02*
X215247D01*
Y41580D01*
X215517Y40574D01*
X216037Y39673D01*
X216773Y38937D01*
X217674Y38417D01*
X218680Y38147D01*
X218700D01*
Y41600D01*
D02*
G37*
G36*
X221168Y34505D02*
X219700D01*
Y20200D01*
X224163D01*
Y31511D01*
X224061Y32286D01*
X223762Y33008D01*
X223286Y33628D01*
X222666Y34104D01*
X221943Y34403D01*
X221168Y34505D01*
D02*
G37*
G36*
X91218Y75837D02*
X90182D01*
X89180Y75569D01*
X88283Y75050D01*
X87550Y74317D01*
X87031Y73420D01*
X86763Y72418D01*
Y71382D01*
X87031Y70380D01*
X87550Y69483D01*
X88283Y68750D01*
X89180Y68231D01*
X90182Y67963D01*
X91218D01*
X92220Y68231D01*
X93117Y68750D01*
X93850Y69483D01*
X94369Y70380D01*
X94637Y71382D01*
Y72418D01*
X94369Y73420D01*
X93850Y74317D01*
X93117Y75050D01*
X92220Y75569D01*
X91218Y75837D01*
D02*
G37*
G36*
Y65837D02*
X90182D01*
X89180Y65569D01*
X88283Y65050D01*
X87550Y64317D01*
X87031Y63420D01*
X86763Y62418D01*
Y61382D01*
X87031Y60380D01*
X87550Y59483D01*
X88283Y58750D01*
X89180Y58231D01*
X90182Y57963D01*
X91218D01*
X92220Y58231D01*
X93117Y58750D01*
X93850Y59483D01*
X94369Y60380D01*
X94637Y61382D01*
Y62418D01*
X94369Y63420D01*
X93850Y64317D01*
X93117Y65050D01*
X92220Y65569D01*
X91218Y65837D01*
D02*
G37*
G36*
X84700Y42041D02*
Y40600D01*
X86141D01*
X85882Y41224D01*
X85324Y41782D01*
X84700Y42041D01*
D02*
G37*
G36*
X83700D02*
X83076Y41782D01*
X82518Y41224D01*
X82259Y40600D01*
X83700D01*
Y42041D01*
D02*
G37*
G36*
X86141Y39600D02*
X84700D01*
Y38159D01*
X85324Y38418D01*
X85882Y38976D01*
X86141Y39600D01*
D02*
G37*
G36*
X83700D02*
X82259D01*
X82518Y38976D01*
X83076Y38418D01*
X83700Y38159D01*
Y39600D01*
D02*
G37*
G36*
X112350Y91400D02*
X108700D01*
Y87750D01*
X108746D01*
X109802Y88033D01*
X110748Y88579D01*
X111521Y89352D01*
X112067Y90298D01*
X112350Y91354D01*
Y91400D01*
D02*
G37*
G36*
X107700D02*
X104050D01*
Y91354D01*
X104333Y90298D01*
X104879Y89352D01*
X105652Y88579D01*
X106598Y88033D01*
X107654Y87750D01*
X107700D01*
Y91400D01*
D02*
G37*
G36*
X108718Y75837D02*
X107682D01*
X106680Y75569D01*
X105783Y75050D01*
X105050Y74317D01*
X104531Y73420D01*
X104263Y72418D01*
Y71382D01*
X104531Y70380D01*
X105050Y69483D01*
X105783Y68750D01*
X106680Y68231D01*
X107682Y67963D01*
X108718D01*
X109720Y68231D01*
X110617Y68750D01*
X111350Y69483D01*
X111869Y70380D01*
X112137Y71382D01*
Y72418D01*
X111869Y73420D01*
X111350Y74317D01*
X110617Y75050D01*
X109720Y75569D01*
X108718Y75837D01*
D02*
G37*
G36*
Y65837D02*
X107682D01*
X106680Y65569D01*
X105783Y65050D01*
X105050Y64317D01*
X104531Y63420D01*
X104263Y62418D01*
Y61382D01*
X104531Y60380D01*
X105050Y59483D01*
X105783Y58750D01*
X106680Y58231D01*
X107682Y57963D01*
X108718D01*
X109720Y58231D01*
X110617Y58750D01*
X111350Y59483D01*
X111869Y60380D01*
X112137Y61382D01*
Y62418D01*
X111869Y63420D01*
X111350Y64317D01*
X110617Y65050D01*
X109720Y65569D01*
X108718Y65837D01*
D02*
G37*
G36*
X97700Y45641D02*
Y44200D01*
X99141D01*
X98882Y44824D01*
X98324Y45382D01*
X97700Y45641D01*
D02*
G37*
G36*
X96700D02*
X96076Y45382D01*
X95518Y44824D01*
X95259Y44200D01*
X96700D01*
Y45641D01*
D02*
G37*
G36*
X99141Y43200D02*
X97700D01*
Y41759D01*
X98324Y42018D01*
X98882Y42576D01*
X99141Y43200D01*
D02*
G37*
G36*
X96700D02*
X95259D01*
X95518Y42576D01*
X96076Y42018D01*
X96700Y41759D01*
Y43200D01*
D02*
G37*
G36*
X56246Y96050D02*
X56200D01*
Y92400D01*
X59850D01*
Y92446D01*
X59567Y93502D01*
X59021Y94448D01*
X58248Y95221D01*
X57302Y95767D01*
X56246Y96050D01*
D02*
G37*
G36*
X55200D02*
X55154D01*
X54098Y95767D01*
X53152Y95221D01*
X52380Y94448D01*
X51833Y93502D01*
X51550Y92446D01*
Y92400D01*
X55200D01*
Y96050D01*
D02*
G37*
G36*
X72700Y91400D02*
X69050D01*
Y91354D01*
X69333Y90298D01*
X69880Y89352D01*
X70652Y88579D01*
X71598Y88033D01*
X72654Y87750D01*
X72700D01*
Y91400D01*
D02*
G37*
G36*
X59850D02*
X56200D01*
Y87750D01*
X56246D01*
X57302Y88033D01*
X58248Y88579D01*
X59021Y89352D01*
X59567Y90298D01*
X59850Y91354D01*
Y91400D01*
D02*
G37*
G36*
X55200D02*
X51550D01*
Y91354D01*
X51833Y90298D01*
X52380Y89352D01*
X53152Y88579D01*
X54098Y88033D01*
X55154Y87750D01*
X55200D01*
Y91400D01*
D02*
G37*
G36*
X64600Y84041D02*
Y82600D01*
X66041D01*
X65782Y83224D01*
X65224Y83782D01*
X64600Y84041D01*
D02*
G37*
G36*
X63600D02*
X62976Y83782D01*
X62418Y83224D01*
X62159Y82600D01*
X63600D01*
Y84041D01*
D02*
G37*
G36*
X66041Y81600D02*
X64600D01*
Y80159D01*
X65224Y80418D01*
X65782Y80976D01*
X66041Y81600D01*
D02*
G37*
G36*
X63600D02*
X62159D01*
X62418Y80976D01*
X62976Y80418D01*
X63600Y80159D01*
Y81600D01*
D02*
G37*
G36*
X73718Y85837D02*
X72682D01*
X71680Y85569D01*
X70783Y85050D01*
X70050Y84317D01*
X69531Y83420D01*
X69263Y82418D01*
Y81382D01*
X69531Y80380D01*
X70050Y79483D01*
X70783Y78750D01*
X71680Y78231D01*
X72682Y77963D01*
X73718D01*
X74720Y78231D01*
X75617Y78750D01*
X76350Y79483D01*
X76869Y80380D01*
X77137Y81382D01*
Y82418D01*
X76869Y83420D01*
X76350Y84317D01*
X75617Y85050D01*
X74720Y85569D01*
X73718Y85837D01*
D02*
G37*
G36*
X56218D02*
X55182D01*
X54180Y85569D01*
X53283Y85050D01*
X52550Y84317D01*
X52031Y83420D01*
X51763Y82418D01*
Y81382D01*
X52031Y80380D01*
X52550Y79483D01*
X53283Y78750D01*
X54180Y78231D01*
X55182Y77963D01*
X56218D01*
X57220Y78231D01*
X58117Y78750D01*
X58850Y79483D01*
X59369Y80380D01*
X59637Y81382D01*
Y82418D01*
X59369Y83420D01*
X58850Y84317D01*
X58117Y85050D01*
X57220Y85569D01*
X56218Y85837D01*
D02*
G37*
G36*
X73718Y75837D02*
X72682D01*
X71680Y75569D01*
X70783Y75050D01*
X70050Y74317D01*
X69531Y73420D01*
X69263Y72418D01*
Y71382D01*
X69531Y70380D01*
X70050Y69483D01*
X70783Y68750D01*
X71680Y68231D01*
X72682Y67963D01*
X73718D01*
X74720Y68231D01*
X75617Y68750D01*
X76350Y69483D01*
X76869Y70380D01*
X77137Y71382D01*
Y72418D01*
X76869Y73420D01*
X76350Y74317D01*
X75617Y75050D01*
X74720Y75569D01*
X73718Y75837D01*
D02*
G37*
G36*
X56218D02*
X55182D01*
X54180Y75569D01*
X53283Y75050D01*
X52550Y74317D01*
X52031Y73420D01*
X51763Y72418D01*
Y71382D01*
X52031Y70380D01*
X52550Y69483D01*
X53283Y68750D01*
X54180Y68231D01*
X55182Y67963D01*
X56218D01*
X57220Y68231D01*
X58117Y68750D01*
X58850Y69483D01*
X59369Y70380D01*
X59637Y71382D01*
Y72418D01*
X59369Y73420D01*
X58850Y74317D01*
X58117Y75050D01*
X57220Y75569D01*
X56218Y75837D01*
D02*
G37*
G36*
X73718Y65837D02*
X72682D01*
X71680Y65569D01*
X70783Y65050D01*
X70050Y64317D01*
X69531Y63420D01*
X69263Y62418D01*
Y61382D01*
X69531Y60380D01*
X70050Y59483D01*
X70783Y58750D01*
X71680Y58231D01*
X72682Y57963D01*
X73718D01*
X74720Y58231D01*
X75617Y58750D01*
X76350Y59483D01*
X76869Y60380D01*
X77137Y61382D01*
Y62418D01*
X76869Y63420D01*
X76350Y64317D01*
X75617Y65050D01*
X74720Y65569D01*
X73718Y65837D01*
D02*
G37*
G36*
X74952Y39141D02*
Y37700D01*
X76392D01*
X76134Y38324D01*
X75576Y38882D01*
X74952Y39141D01*
D02*
G37*
G36*
X73952D02*
X73328Y38882D01*
X72770Y38324D01*
X72511Y37700D01*
X73952D01*
Y39141D01*
D02*
G37*
G36*
X76392Y36700D02*
X74952D01*
Y35259D01*
X75576Y35518D01*
X76134Y36076D01*
X76392Y36700D01*
D02*
G37*
G36*
X73952D02*
X72511D01*
X72770Y36076D01*
X73328Y35518D01*
X73952Y35259D01*
Y36700D01*
D02*
G37*
%LPD*%
D11*
X38200Y61900D02*
X49200Y50900D01*
Y19700D02*
Y50900D01*
X20700Y61900D02*
X29200Y53400D01*
Y19700D02*
Y53400D01*
D34*
X109200Y19700D02*
D03*
X139200D02*
D03*
X169200D02*
D03*
X199200D02*
D03*
X9200D02*
D03*
X39200D02*
D03*
X79200D02*
D03*
X209200D02*
D03*
X219200D02*
D03*
X179200D02*
D03*
X189200D02*
D03*
X149200D02*
D03*
X159200D02*
D03*
X119200D02*
D03*
X129200D02*
D03*
X89200D02*
D03*
X99200D02*
D03*
X49200D02*
D03*
X59200D02*
D03*
X69200D02*
D03*
X19200D02*
D03*
X29200D02*
D03*
D35*
X140678Y129067D02*
Y140553D01*
X139800Y141431D02*
X140678Y140553D01*
X139800Y141431D02*
Y151400D01*
X135969Y124358D02*
X140678Y129067D01*
X47233Y117900D02*
X55200Y125867D01*
X19700Y117900D02*
X47233D01*
X55200Y125867D02*
Y131500D01*
X97676Y136524D02*
X109470Y124730D01*
X113081D01*
X113453Y124358D01*
X60224Y136524D02*
X97676D01*
X113453Y124358D02*
X135969D01*
X55700Y91900D02*
X73200D01*
X55200Y131500D02*
X60224Y136524D01*
X9858Y91900D02*
Y117900D01*
Y39358D02*
Y91900D01*
X20700D01*
X9300Y38800D02*
X9858Y39358D01*
X9200Y19700D02*
Y38700D01*
X9300Y38800D01*
X20700Y91900D02*
X38200D01*
X219200Y19700D02*
Y42100D01*
D36*
X70400Y238800D02*
X80400D01*
X40400D02*
X50400D01*
X80400D02*
X90400D01*
X30400D02*
X40400D01*
D37*
X78600Y170100D02*
X85662Y163038D01*
X86762D01*
D38*
X57221Y246297D02*
X65400Y238118D01*
Y193203D02*
Y238118D01*
Y193203D02*
X72541Y186063D01*
Y164643D02*
Y186063D01*
Y164643D02*
X72600Y164584D01*
Y142800D02*
Y164584D01*
X71690Y210279D02*
X112811Y251400D01*
X188700Y245928D02*
X194172Y251400D01*
X110123Y245928D02*
X188700D01*
X73658Y209463D02*
X110123Y245928D01*
X92000Y169700D02*
X99400Y162300D01*
X116931D01*
X118066Y164662D02*
X122154Y160574D01*
X107500Y164662D02*
X118066D01*
X116931Y162300D02*
X118600Y160632D01*
X107445Y159725D02*
X121680Y145491D01*
X106971Y156990D02*
X119441Y144519D01*
X106840Y156990D02*
X106971D01*
X117268Y152970D02*
Y158681D01*
X118658Y160632D02*
X128147Y151143D01*
X118600Y160632D02*
X118658D01*
X128147Y139595D02*
Y151143D01*
X117268Y152970D02*
X123799Y146438D01*
Y138222D02*
Y146438D01*
X121680Y134970D02*
Y145491D01*
X123799Y138222D02*
X123892Y138129D01*
Y136604D02*
X124042Y136454D01*
X123892Y136604D02*
Y138129D01*
X119441Y133498D02*
Y144519D01*
X106549Y154149D02*
X108733Y151965D01*
X105551Y154149D02*
X106549D01*
X108733Y151767D02*
Y151965D01*
X117473Y133010D02*
Y143027D01*
X106108Y148692D02*
X115200Y139600D01*
X108733Y151767D02*
X117473Y143027D01*
X106108Y148692D02*
Y151249D01*
X105400Y154300D02*
X105551Y154149D01*
X115200Y129863D02*
Y139600D01*
X92000Y157627D02*
X106765Y142863D01*
X135272Y139834D02*
X135954Y139153D01*
X133835Y133351D02*
X133985Y133200D01*
X135272Y139834D02*
Y154137D01*
X123133Y162936D02*
X133304Y152764D01*
X122154Y160574D02*
X131335Y151392D01*
X122154Y160574D02*
Y160574D01*
X131335Y131722D02*
Y151392D01*
X133304Y135914D02*
X133835Y135383D01*
X135954Y136604D02*
Y139153D01*
X133304Y135914D02*
Y152764D01*
X133835Y133351D02*
Y135383D01*
X131335Y131722D02*
X131452Y131606D01*
X124111Y165298D02*
X135272Y154137D01*
X31200Y101600D02*
X42300D01*
X31000Y101800D02*
X31200Y101600D01*
X45700Y60900D02*
Y98200D01*
X42300Y101600D02*
X45700Y98200D01*
X48079Y127100D02*
Y138100D01*
X35550Y106011D02*
X35579Y105981D01*
X40887D01*
X33187Y104388D02*
X33400D01*
X34189Y103600D01*
X44800D01*
X37945Y108193D02*
X37975Y108163D01*
X38813Y110600D02*
X39282Y110132D01*
X37018Y108344D02*
X37168Y108193D01*
X38600Y110600D02*
X38813D01*
X37168Y108193D02*
X37945D01*
X49200Y61900D02*
Y99200D01*
X44800Y103600D02*
X49200Y99200D01*
X69200Y19700D02*
Y41900D01*
X49200Y61900D02*
X69200Y41900D01*
X59200Y19700D02*
Y47400D01*
X45700Y60900D02*
X59200Y47400D01*
X90700Y81900D02*
Y83285D01*
X89245Y84740D02*
X90700Y83285D01*
X89245Y84740D02*
Y85042D01*
X83621Y90666D02*
X89245Y85042D01*
X83621Y90666D02*
Y90666D01*
X66124Y108163D02*
X83621Y90666D01*
X79200Y19700D02*
Y92303D01*
X65308Y106194D02*
X79200Y92303D01*
X68594Y118006D02*
X70201D01*
X39282Y110132D02*
X66939D01*
X77141Y124985D02*
Y131541D01*
X61900Y121100D02*
X66963Y116037D01*
X69385D01*
X73204Y123354D02*
Y124651D01*
X79830Y125079D02*
X88797Y116113D01*
X73400Y128600D02*
X75172Y126828D01*
X71427Y126428D02*
X73204Y124651D01*
X69385Y116037D02*
X83089Y102333D01*
X60224Y117900D02*
X64056Y114068D01*
X75172Y124170D02*
X87166Y112176D01*
X79830Y125079D02*
Y130890D01*
X69520Y124254D02*
Y124438D01*
X68570Y114068D02*
X82274Y100365D01*
X66954Y123433D02*
X70413Y119974D01*
X64056Y114068D02*
X68570D01*
X70413Y119974D02*
X71016D01*
X66939Y110132D02*
X80643Y96428D01*
X41100Y106194D02*
X65308D01*
X64600Y122000D02*
X68594Y118006D01*
X75172Y124170D02*
Y126828D01*
X73204Y123354D02*
X86351Y110207D01*
X71016Y119974D02*
X84720Y106270D01*
X41169Y112100D02*
X67755D01*
X69520Y124254D02*
X85535Y108239D01*
X37975Y108163D02*
X66124D01*
X77141Y124985D02*
X87981Y114144D01*
X67755Y112100D02*
X81459Y98396D01*
X70201Y118006D02*
X83905Y104302D01*
X88797Y116113D02*
X100729D01*
X84001Y123693D02*
Y128201D01*
X83089Y102333D02*
X95021D01*
X87166Y112176D02*
X99098D01*
X86351Y110207D02*
X98283D01*
X83905Y104302D02*
X95837D01*
X89612Y118081D02*
X104427D01*
X87680Y123141D02*
Y123354D01*
X93946Y122412D02*
X105664D01*
X88238Y122239D02*
X90428Y120050D01*
X84720Y106270D02*
X96652D01*
X90600Y123218D02*
X93141D01*
X81459Y98396D02*
X93391D01*
X85535Y108239D02*
X97468D01*
X87680Y123141D02*
X88238Y122583D01*
X93141Y123218D02*
X93946Y122412D01*
X80643Y96428D02*
X92575D01*
X88238Y122239D02*
Y122583D01*
X87981Y114144D02*
X99914D01*
X82274Y100365D02*
X94206D01*
X84001Y123693D02*
X89612Y118081D01*
X90428Y120050D02*
X105242D01*
X40887Y105981D02*
X41100Y106194D01*
X40094Y113176D02*
X41169Y112100D01*
X39700Y113176D02*
X40094D01*
X50700Y140200D02*
X58674Y148174D01*
Y154674D01*
X62952Y158952D01*
X99600Y58900D02*
Y89403D01*
X101568Y88532D02*
X108200Y81900D01*
X93391Y98396D02*
X101568Y90218D01*
Y88532D02*
Y90218D01*
X92575Y96428D02*
X99600Y89403D01*
X106046Y116462D02*
X109528D01*
X106861Y118430D02*
X110344D01*
X105242Y120050D02*
X106861Y118430D01*
X105664Y122412D02*
X107677Y120399D01*
X99914Y114144D02*
X101533Y112525D01*
X98272Y104651D02*
X104636D01*
X97456Y102682D02*
X103821D01*
X97468Y108239D02*
X99087Y106619D01*
X101533Y112525D02*
X107897D01*
X102348Y114493D02*
X108713D01*
X96641Y100714D02*
X103005D01*
X95837Y104302D02*
X97456Y102682D01*
X98283Y110207D02*
X99902Y108588D01*
X99098Y112176D02*
X100718Y110556D01*
X100729Y116113D02*
X102348Y114493D01*
X95825Y98745D02*
X102190D01*
X99902Y108588D02*
X106267D01*
X94206Y100365D02*
X95825Y98745D01*
X100718Y110556D02*
X107082D01*
X95021Y102333D02*
X96641Y100714D01*
X99087Y106619D02*
X105451D01*
X104427Y118081D02*
X106046Y116462D01*
X96652Y106270D02*
X98272Y104651D01*
X89200Y48500D02*
X99600Y58900D01*
X89200Y19700D02*
Y48500D01*
X123521Y104302D02*
X128657Y99165D01*
X120783Y56583D02*
Y95736D01*
X121074Y98396D02*
X122752Y96719D01*
X128657Y66375D02*
Y99165D01*
X99200Y35000D02*
X120783Y56583D01*
X104508Y96428D02*
X120092D01*
X124336Y106270D02*
X130626Y99980D01*
X122705Y102333D02*
X126689Y98349D01*
X119200Y49432D02*
X124721Y54953D01*
X126689Y59159D02*
X129200Y56648D01*
X126689Y59159D02*
Y98349D01*
X120092Y96428D02*
X120783Y95736D01*
X121890Y100365D02*
X124721Y97534D01*
X125842Y115900D02*
X138500Y103242D01*
Y96025D02*
X148598Y85928D01*
X134563Y79962D02*
Y101611D01*
Y79962D02*
X147653Y66872D01*
X126782Y112176D02*
X136531Y102426D01*
X132595Y68006D02*
Y100795D01*
X117232Y50248D02*
X122752Y55768D01*
X136531Y87994D02*
X147653Y76872D01*
X136531Y87994D02*
Y102426D01*
X130626Y67190D02*
Y99980D01*
X138500Y96025D02*
Y103242D01*
X125151Y108239D02*
X132595Y100795D01*
X130626Y67190D02*
X149200Y48616D01*
X124721Y54953D02*
Y97534D01*
X125967Y110207D02*
X134563Y101611D01*
X122752Y55768D02*
Y96719D01*
X128657Y66375D02*
X139200Y55832D01*
X132595Y68006D02*
X159200Y41400D01*
X106954Y102333D02*
X122705D01*
X111031Y112176D02*
X126782D01*
X108584Y106270D02*
X124336D01*
X113666Y100365D02*
X121890D01*
X110215Y110207D02*
X125967D01*
X107769Y104302D02*
X123521D01*
X112851Y98396D02*
X121074D01*
X109400Y108239D02*
X125151D01*
X144285Y100240D02*
Y100240D01*
X126467Y118059D02*
X144285Y100240D01*
X110715Y118059D02*
X126467D01*
X110090Y115900D02*
X125842D01*
X144285Y100240D02*
X147653Y96872D01*
X75100Y166800D02*
Y173045D01*
X80351Y178296D01*
X62952Y158952D02*
Y190107D01*
X92000Y157627D02*
Y169700D01*
X80351Y178296D02*
X88947Y169700D01*
X92000D01*
X62393Y190107D02*
X62952D01*
X56300Y196200D02*
X62393Y190107D01*
X44800Y196200D02*
X56300D01*
X78383Y204078D02*
Y208620D01*
X112811Y251400D02*
X151300D01*
X105690Y235928D02*
X204056D01*
X76127Y205163D02*
Y209148D01*
X104875Y237896D02*
X146024D01*
X76127Y209148D02*
X104875Y237896D01*
X71690Y202584D02*
Y210279D01*
X73658Y203399D02*
Y209463D01*
X78383Y208620D02*
X105690Y235928D01*
X99944Y190063D02*
X100095Y190213D01*
Y190843D02*
X105552Y196300D01*
X102700Y190107D02*
X104553Y188254D01*
X100095Y190213D02*
Y190843D01*
X105552Y196300D02*
X176432D01*
X102700Y201810D02*
X109490D01*
X109500Y201800D01*
X159200Y19700D02*
Y41400D01*
X139200Y19700D02*
Y55832D01*
X149200Y19700D02*
Y48616D01*
X129200Y19700D02*
Y56648D01*
X117232Y50131D02*
Y50248D01*
X119200Y19700D02*
Y49432D01*
X99200Y19700D02*
Y35000D01*
X111659Y120027D02*
X131623D01*
X147653Y66872D02*
X154002D01*
X147653Y96872D02*
X154002D01*
X131623Y120027D02*
X145031Y106619D01*
X154255D01*
X154002Y76872D02*
X179200Y51675D01*
X147653Y76872D02*
X154002D01*
Y66872D02*
X169200Y51675D01*
X148598Y85928D02*
X154947D01*
X106138Y100365D02*
X113666D01*
X105323Y98396D02*
X112851D01*
X107677Y120399D02*
X111287D01*
X107897Y112525D02*
X110215Y110207D01*
X109528Y116462D02*
X110090Y115900D01*
X103821Y102682D02*
X106138Y100365D01*
X111287Y120399D02*
X111659Y120027D01*
X103005Y100714D02*
X105323Y98396D01*
X106267Y108588D02*
X108584Y106270D01*
X107082Y110556D02*
X109400Y108239D01*
X110344Y118430D02*
X110715Y118059D01*
X105451Y106619D02*
X107769Y104302D01*
X108713Y114493D02*
X111031Y112176D01*
X104636Y104651D02*
X106954Y102333D01*
X102190Y98745D02*
X104508Y96428D01*
X109200Y42100D02*
X117232Y50131D01*
X115768Y129082D02*
Y129295D01*
X117657Y131085D02*
X117808Y130935D01*
X117657Y131085D02*
Y131728D01*
X117500Y131885D02*
X117657Y131728D01*
X109200Y19700D02*
Y42100D01*
X117500Y131885D02*
Y132984D01*
X115200Y129863D02*
X115768Y129295D01*
X154255Y106619D02*
X209200Y51675D01*
X154002Y96872D02*
X199200Y51675D01*
X169200Y19700D02*
Y51675D01*
X179200Y19700D02*
Y51675D01*
X189200Y19700D02*
Y51675D01*
X154947Y85928D02*
X189200Y51675D01*
X199200Y19700D02*
Y51675D01*
X209200Y19700D02*
Y51675D01*
X121680Y134970D02*
X121804Y134846D01*
X117473Y133010D02*
X117500Y132984D01*
X119441Y133498D02*
X119862Y133077D01*
Y132864D02*
Y133077D01*
X122906Y166154D02*
X123761Y165298D01*
X124111D01*
X122693Y166154D02*
X122906D01*
X107500Y168400D02*
X115709D01*
X115825Y168516D01*
X142412D02*
X149528Y161400D01*
X115825Y168516D02*
X142412D01*
X149528Y161400D02*
X151300D01*
X76020Y205057D02*
X76127Y205163D01*
X73658Y203399D02*
X74600Y202457D01*
Y190357D02*
Y202457D01*
X194172Y251400D02*
X211300D01*
X146024Y237896D02*
X149528Y241400D01*
X151300D01*
X204056Y235928D02*
X209528Y241400D01*
X211300D01*
X104623Y230739D02*
X150639D01*
X151300Y231400D01*
X104553Y188254D02*
X146383D01*
X149528Y191400D01*
X97811Y194865D02*
X98100Y195154D01*
X97811Y191807D02*
Y194865D01*
X98100Y195154D02*
Y202700D01*
X149528Y191400D02*
X151300D01*
X98100Y202700D02*
X101328Y205928D01*
X181332Y191400D02*
X211300D01*
X176432Y196300D02*
X181332Y191400D01*
X101328Y205928D02*
X175145D01*
X179672Y201400D02*
X211300D01*
X175145Y205928D02*
X179672Y201400D01*
X80351Y206467D02*
X104623Y230739D01*
X80351Y190251D02*
Y206467D01*
X78140Y203835D02*
X78383Y204078D01*
X71690Y202584D02*
X71844Y202430D01*
X77989Y202100D02*
X78140Y202250D01*
Y203835D01*
X71844Y190100D02*
Y202430D01*
D39*
X55700Y61900D02*
D03*
Y71900D02*
D03*
Y81900D02*
D03*
Y91900D02*
D03*
X9858Y117900D02*
D03*
X139800Y151400D02*
D03*
Y161400D02*
D03*
X108200Y91900D02*
D03*
Y81900D02*
D03*
X90700Y91900D02*
D03*
Y81900D02*
D03*
X20700Y91900D02*
D03*
Y81900D02*
D03*
X38200Y91900D02*
D03*
Y81900D02*
D03*
X73200Y91900D02*
D03*
Y81900D02*
D03*
Y71900D02*
D03*
Y61900D02*
D03*
X38200Y71900D02*
D03*
Y61900D02*
D03*
X20700Y71900D02*
D03*
Y61900D02*
D03*
X90700Y71900D02*
D03*
Y61900D02*
D03*
X108200Y71900D02*
D03*
Y61900D02*
D03*
D40*
X211300Y251400D02*
D03*
Y241400D02*
D03*
Y231400D02*
D03*
Y221400D02*
D03*
Y211400D02*
D03*
Y201400D02*
D03*
Y191400D02*
D03*
Y181400D02*
D03*
Y171400D02*
D03*
Y161400D02*
D03*
Y151400D02*
D03*
Y141400D02*
D03*
Y131400D02*
D03*
Y121400D02*
D03*
Y111400D02*
D03*
Y101400D02*
D03*
Y91400D02*
D03*
Y81400D02*
D03*
Y71400D02*
D03*
Y61400D02*
D03*
X151300Y241400D02*
D03*
Y231400D02*
D03*
Y221400D02*
D03*
Y211400D02*
D03*
Y201400D02*
D03*
Y191400D02*
D03*
Y181400D02*
D03*
Y171400D02*
D03*
Y161400D02*
D03*
Y151400D02*
D03*
Y141400D02*
D03*
Y131400D02*
D03*
Y121400D02*
D03*
Y61400D02*
D03*
Y71400D02*
D03*
Y81400D02*
D03*
Y91400D02*
D03*
Y101400D02*
D03*
Y111400D02*
D03*
D41*
Y251400D02*
D03*
D42*
X19700Y117900D02*
D03*
D43*
X27221Y246297D02*
D03*
D44*
X37221D02*
D03*
X47221D02*
D03*
X57221D02*
D03*
X67221D02*
D03*
X77221D02*
D03*
D45*
X68647Y186020D02*
D03*
X55400Y211769D02*
D03*
X140900Y184200D02*
D03*
X168300Y141800D02*
D03*
X172600Y151400D02*
D03*
X185300Y147300D02*
D03*
X201900Y147429D02*
D03*
X221400Y156400D02*
D03*
X201900Y156500D02*
D03*
X158600Y160900D02*
D03*
X180300Y75300D02*
D03*
X201168Y54918D02*
D03*
X188900Y66700D02*
D03*
X173300Y82300D02*
D03*
X164000Y91600D02*
D03*
X64100Y82100D02*
D03*
X29800Y84000D02*
D03*
X44000Y44100D02*
D03*
X74452Y37200D02*
D03*
X84200Y40100D02*
D03*
X97200Y43700D02*
D03*
X222600Y56600D02*
D03*
X219000Y258100D02*
D03*
X12000Y256600D02*
D03*
X80700Y229100D02*
D03*
X40300Y163086D02*
D03*
X43296Y136170D02*
D03*
X78600Y154674D02*
D03*
X66867Y143152D02*
D03*
X86768Y158492D02*
D03*
X107500Y164662D02*
D03*
X106840Y156990D02*
D03*
X107445Y159725D02*
D03*
X117268Y158681D02*
D03*
X106108Y151249D02*
D03*
X135954Y136604D02*
D03*
X133985Y133200D02*
D03*
X131452Y131606D02*
D03*
X31000Y101800D02*
D03*
X48079Y138100D02*
D03*
Y127100D02*
D03*
X35550Y106011D02*
D03*
X33187Y104388D02*
D03*
X37018Y108344D02*
D03*
X38600Y110600D02*
D03*
X87680Y123354D02*
D03*
X90600Y123218D02*
D03*
X39700Y113176D02*
D03*
X86762Y163038D02*
D03*
X72600Y142800D02*
D03*
X78600Y170100D02*
D03*
X102700Y190107D02*
D03*
X109500Y201800D02*
D03*
X102700Y201810D02*
D03*
X60224Y117900D02*
D03*
X61900Y121100D02*
D03*
X117808Y130935D02*
D03*
X115768Y129082D02*
D03*
X64600Y122000D02*
D03*
X71427Y126428D02*
D03*
X66954Y123433D02*
D03*
X69520Y124438D02*
D03*
X73400Y128600D02*
D03*
X77141Y131541D02*
D03*
X84001Y128201D02*
D03*
X79830Y130890D02*
D03*
X105400Y154300D02*
D03*
X124042Y136454D02*
D03*
X119862Y132864D02*
D03*
X121804Y134846D02*
D03*
X122693Y166154D02*
D03*
X123133Y162936D02*
D03*
X107500Y168400D02*
D03*
X99944Y190063D02*
D03*
X97811Y191807D02*
D03*
X74600Y190357D02*
D03*
X76020Y205057D02*
D03*
X80351Y190251D02*
D03*
X77989Y202100D02*
D03*
X71844Y190100D02*
D03*
D46*
X128147Y139595D02*
D03*
X106765Y142863D02*
D03*
X50700Y140200D02*
D03*
X75100Y166800D02*
D03*
X58674Y154674D02*
D03*
X92000Y169700D02*
D03*
X80351Y178296D02*
D03*
X62952Y190107D02*
D03*
X44800Y196200D02*
D03*
D47*
X9300Y38800D02*
D03*
X219200Y42100D02*
D03*
M02*
