G04*
G04 #@! TF.GenerationSoftware,Altium Limited,Altium Designer,21.1.1 (26)*
G04*
G04 Layer_Color=8421504*
%FSLAX25Y25*%
%MOIN*%
G70*
G04*
G04 #@! TF.SameCoordinates,A5F47C6F-2453-4AC6-896B-71FEB3B9F667*
G04*
G04*
G04 #@! TF.FilePolarity,Positive*
G04*
G01*
G75*
%ADD16R,0.04724X0.05512*%
%ADD17R,0.03937X0.04134*%
%ADD18R,0.04134X0.03937*%
%ADD19O,0.05512X0.01181*%
%ADD20O,0.01181X0.05512*%
G04:AMPARAMS|DCode=21|XSize=23.62mil|YSize=39.37mil|CornerRadius=5.91mil|HoleSize=0mil|Usage=FLASHONLY|Rotation=270.000|XOffset=0mil|YOffset=0mil|HoleType=Round|Shape=RoundedRectangle|*
%AMROUNDEDRECTD21*
21,1,0.02362,0.02756,0,0,270.0*
21,1,0.01181,0.03937,0,0,270.0*
1,1,0.01181,-0.01378,-0.00591*
1,1,0.01181,-0.01378,0.00591*
1,1,0.01181,0.01378,0.00591*
1,1,0.01181,0.01378,-0.00591*
%
%ADD21ROUNDEDRECTD21*%
G04:AMPARAMS|DCode=22|XSize=45.28mil|YSize=57.09mil|CornerRadius=11.32mil|HoleSize=0mil|Usage=FLASHONLY|Rotation=0.000|XOffset=0mil|YOffset=0mil|HoleType=Round|Shape=RoundedRectangle|*
%AMROUNDEDRECTD22*
21,1,0.04528,0.03445,0,0,0.0*
21,1,0.02264,0.05709,0,0,0.0*
1,1,0.02264,0.01132,-0.01722*
1,1,0.02264,-0.01132,-0.01722*
1,1,0.02264,-0.01132,0.01722*
1,1,0.02264,0.01132,0.01722*
%
%ADD22ROUNDEDRECTD22*%
D16*
X131000Y53000D02*
D03*
X141000D02*
D03*
Y61661D02*
D03*
X131000D02*
D03*
D17*
X211500Y82453D02*
D03*
Y76547D02*
D03*
X121000Y60953D02*
D03*
Y55047D02*
D03*
X122500Y123248D02*
D03*
Y117342D02*
D03*
X212500Y99094D02*
D03*
Y105000D02*
D03*
D18*
X162953Y62500D02*
D03*
X157047D02*
D03*
X167500Y152500D02*
D03*
X173406D02*
D03*
X147953D02*
D03*
X142047D02*
D03*
X130000Y77000D02*
D03*
X124094D02*
D03*
D19*
X137185Y131122D02*
D03*
Y129154D02*
D03*
Y127185D02*
D03*
Y125216D02*
D03*
Y123248D02*
D03*
Y121280D02*
D03*
Y119311D02*
D03*
Y117342D02*
D03*
Y115374D02*
D03*
Y113406D02*
D03*
Y111437D02*
D03*
Y109468D02*
D03*
Y107500D02*
D03*
Y105532D02*
D03*
Y103563D02*
D03*
Y101594D02*
D03*
Y99626D02*
D03*
Y97658D02*
D03*
Y95689D02*
D03*
Y93721D02*
D03*
Y91752D02*
D03*
Y89784D02*
D03*
Y87815D02*
D03*
Y85847D02*
D03*
Y83878D02*
D03*
X197815D02*
D03*
Y85847D02*
D03*
Y87815D02*
D03*
Y89784D02*
D03*
Y91752D02*
D03*
Y93721D02*
D03*
Y95689D02*
D03*
Y97658D02*
D03*
Y99626D02*
D03*
Y101594D02*
D03*
Y103563D02*
D03*
Y105532D02*
D03*
Y107500D02*
D03*
Y109468D02*
D03*
Y111437D02*
D03*
Y113406D02*
D03*
Y115374D02*
D03*
Y117342D02*
D03*
Y119311D02*
D03*
Y121280D02*
D03*
Y123248D02*
D03*
Y125216D02*
D03*
Y127185D02*
D03*
Y129154D02*
D03*
Y131122D02*
D03*
D20*
X143878Y77185D02*
D03*
X145846D02*
D03*
X147815D02*
D03*
X149784D02*
D03*
X151752D02*
D03*
X153720D02*
D03*
X155689D02*
D03*
X157658D02*
D03*
X159626D02*
D03*
X161594D02*
D03*
X163563D02*
D03*
X165532D02*
D03*
X167500D02*
D03*
X169468D02*
D03*
X171437D02*
D03*
X173406D02*
D03*
X175374D02*
D03*
X177342D02*
D03*
X179311D02*
D03*
X181280D02*
D03*
X183248D02*
D03*
X185216D02*
D03*
X187185D02*
D03*
X189154D02*
D03*
X191122D02*
D03*
Y137815D02*
D03*
X189154D02*
D03*
X187185D02*
D03*
X185216D02*
D03*
X183248D02*
D03*
X181280D02*
D03*
X179311D02*
D03*
X177342D02*
D03*
X175374D02*
D03*
X173406D02*
D03*
X171437D02*
D03*
X169468D02*
D03*
X167500D02*
D03*
X165532D02*
D03*
X163563D02*
D03*
X161594D02*
D03*
X159626D02*
D03*
X157658D02*
D03*
X155689D02*
D03*
X153720D02*
D03*
X151752D02*
D03*
X149784D02*
D03*
X147815D02*
D03*
X145846D02*
D03*
X143878D02*
D03*
D21*
X15784Y156300D02*
D03*
Y152560D02*
D03*
Y148820D02*
D03*
X24131Y156300D02*
D03*
Y148820D02*
D03*
D22*
X23374Y163600D02*
D03*
X16287D02*
D03*
X16487Y141500D02*
D03*
X23574D02*
D03*
M02*
