M48
;Layer_Color=9474304
;FILE_FORMAT=2:5
INCH,TZ
;TYPE=PLATED
T1F00S00C0.01181
T2F00S00C0.01575
T3F00S00C0.03150
T4F00S00C0.03346
T5F00S00C0.03543
%
T01
X203700Y45700
X192200Y66222
X185200Y67200
X21200Y76700
X5200Y77700
X17200Y122200
X10700Y187700
X15200Y212200
X25200Y205700
X48200Y203200
X49924Y190638
X69700Y190200
X100200Y188747
X111700Y187267
X113700Y183200
X116700Y182200
X135350Y178891
X136958Y173833
X136161Y167844
X139200Y182700
X147200Y175700
X158200Y174141
X161759Y174081
X165141Y173962
X170676Y173975
X173823Y173840
X179070Y179200
X183755Y181684
X186898Y181476
X190291Y181512
X190200Y172700
X195200Y172655
X186354Y171499
X183200Y169200
X179700Y155574
X172700Y156259
X164700Y159429
Y152200
X169200Y147200
X152889Y142235
X148700Y138200
X152889Y131538
X156235
X161354Y131511
X158794Y134361
X155200Y118200
X150082Y120200
X162107Y114053
X162521Y108910
X165290Y107409
X168637Y109763
X177759Y120700
X180200Y118700
X186484Y115200
X190200
X195200
X198200Y117700
X204537Y123965
X198002Y134060
X196206Y136647
X196378Y146022
X196426Y151974
X210700Y149322
X208700Y146763
X213200Y141200
X210723Y138399
X207700Y137515
X190291Y132571
X186805Y131833
X180641Y131529
X176511Y131511
X134200Y128200
Y136330
Y141645
X132751Y89200
X129602
X126452
X135901
X139050
X142200
X145535
X148700
X203200Y84596
X204700Y195700
X163700Y225200
X114255Y221700
X110909Y218200
X107759
X100200Y203200
X220200Y153520
X224700
X217200Y264700
X219200Y273700
X221200Y282200
X167700Y283700
X131200Y273200
X103385Y267700
X89200Y283515
X70200
X67200Y289805
X63200Y292700
Y297211
Y301700
X74700Y300200
X60444Y287049
X77200Y260700
X103036Y302200
X53200Y298700
X42700Y266700
X24700Y273200
T02
X129200Y63700
X20200Y187700
X171700Y105826
T03
X219200Y40200
X9200Y39700
X13200Y83858
Y93700
X15200Y131700
X25200
X35200
X45200
X55200
Y146977
X45200
X35200
X25200
X15200
Y176978
X25200
X35200
X45200
X55200
Y197200
X45200
X35200
X25200
X15200
Y227200
X25200
X35200
X45200
X55200
X65200
X75200
X85200
X95200
X105200
Y197200
X95200
X85200
X75200
X65200
Y176978
X75200
X85200
X95200
X105200
Y146977
X95200
X85200
X75200
X65200
Y131700
X75200
X85200
X95200
X119700Y147200
Y157200
Y197700
Y207700
X133700Y210700
X143700
X153700
X163700
X173700
X183700
X193700
X198700Y220700
X188700
X178700
X168700
X158700
X148700
X138700
X139200Y250200
X129200
X119200
X109200
X99200
X89200
X79200
X69200
X59200
Y310200
X69200
X79200
X89200
X99200
X109200
X119200
X129200
X139200
X149200
X159200
X169200
X179200
X189200
X199200
X209200
Y250200
X199200
X189200
X179200
X169200
X159200
X149200
X119200Y321700
X109200
X49200Y310200
X39200
X29200
X19200
Y250200
X29200
X39200
X49200
T04
X32700Y81700
Y91700
X50200
Y81700
X67700
Y91700
X85200
Y81700
X102700
Y91700
X120200
Y81700
T05
X67700Y61700
Y71700
X85200
Y61700
X102700
Y71700
X120200
Y61700
X50200
Y71700
X32700
Y61700
M30
