G04*
G04 #@! TF.GenerationSoftware,Altium Limited,Altium Designer,21.1.1 (26)*
G04*
G04 Layer_Color=8388736*
%FSLAX25Y25*%
%MOIN*%
G70*
G04*
G04 #@! TF.SameCoordinates,4EBEE0B8-8E4E-43C0-80E5-A374C2A04DA5*
G04*
G04*
G04 #@! TF.FilePolarity,Negative*
G04*
G01*
G75*
G04:AMPARAMS|DCode=23|XSize=26.61mil|YSize=42.36mil|CornerRadius=7.4mil|HoleSize=0mil|Usage=FLASHONLY|Rotation=0.000|XOffset=0mil|YOffset=0mil|HoleType=Round|Shape=RoundedRectangle|*
%AMROUNDEDRECTD23*
21,1,0.02661,0.02756,0,0,0.0*
21,1,0.01181,0.04236,0,0,0.0*
1,1,0.01480,0.00591,-0.01378*
1,1,0.01480,-0.00591,-0.01378*
1,1,0.01480,-0.00591,0.01378*
1,1,0.01480,0.00591,0.01378*
%
%ADD23ROUNDEDRECTD23*%
G04:AMPARAMS|DCode=24|XSize=48.27mil|YSize=60.08mil|CornerRadius=12.82mil|HoleSize=0mil|Usage=FLASHONLY|Rotation=90.000|XOffset=0mil|YOffset=0mil|HoleType=Round|Shape=RoundedRectangle|*
%AMROUNDEDRECTD24*
21,1,0.04827,0.03445,0,0,90.0*
21,1,0.02264,0.06008,0,0,90.0*
1,1,0.02563,0.01722,0.01132*
1,1,0.02563,0.01722,-0.01132*
1,1,0.02563,-0.01722,-0.01132*
1,1,0.02563,-0.01722,0.01132*
%
%ADD24ROUNDEDRECTD24*%
%ADD25O,0.05811X0.01480*%
%ADD26O,0.01480X0.05811*%
G04:AMPARAMS|DCode=27|XSize=81.73mil|YSize=278.58mil|CornerRadius=21.18mil|HoleSize=0mil|Usage=FLASHONLY|Rotation=0.000|XOffset=0mil|YOffset=0mil|HoleType=Round|Shape=RoundedRectangle|*
%AMROUNDEDRECTD27*
21,1,0.08173,0.23622,0,0,0.0*
21,1,0.03937,0.27858,0,0,0.0*
1,1,0.04236,0.01968,-0.11811*
1,1,0.04236,-0.01968,-0.11811*
1,1,0.04236,-0.01968,0.11811*
1,1,0.04236,0.01968,0.11811*
%
%ADD27ROUNDEDRECTD27*%
%ADD28R,0.04236X0.04433*%
%ADD29R,0.04433X0.04236*%
%ADD30O,0.05811X0.08173*%
%ADD31C,0.06598*%
%ADD32R,0.06598X0.06598*%
%ADD33O,0.06598X0.10142*%
%ADD34R,0.06598X0.10142*%
%ADD35R,0.06598X0.06598*%
D23*
X196960Y71527D02*
D03*
X200700D02*
D03*
X204440D02*
D03*
X196960Y79873D02*
D03*
X204440D02*
D03*
D24*
X189200Y79243D02*
D03*
Y72157D02*
D03*
X212200Y72200D02*
D03*
Y79287D02*
D03*
D25*
X142259Y179637D02*
D03*
Y177668D02*
D03*
Y175700D02*
D03*
Y173732D02*
D03*
Y171763D02*
D03*
Y169794D02*
D03*
Y167826D02*
D03*
Y165858D02*
D03*
Y163889D02*
D03*
Y161920D02*
D03*
Y159952D02*
D03*
Y157984D02*
D03*
Y156015D02*
D03*
Y154046D02*
D03*
Y152078D02*
D03*
Y150109D02*
D03*
Y148141D02*
D03*
Y146172D02*
D03*
Y144204D02*
D03*
Y142235D02*
D03*
Y140267D02*
D03*
Y138298D02*
D03*
Y136330D02*
D03*
Y134361D02*
D03*
Y132393D02*
D03*
X202889D02*
D03*
Y134361D02*
D03*
Y136330D02*
D03*
Y138298D02*
D03*
Y140267D02*
D03*
Y142235D02*
D03*
Y144204D02*
D03*
Y146172D02*
D03*
Y148141D02*
D03*
Y150109D02*
D03*
Y152078D02*
D03*
Y154046D02*
D03*
Y156015D02*
D03*
Y157984D02*
D03*
Y159952D02*
D03*
Y161920D02*
D03*
Y163889D02*
D03*
Y165858D02*
D03*
Y167826D02*
D03*
Y169794D02*
D03*
Y171763D02*
D03*
Y173732D02*
D03*
Y175700D02*
D03*
Y177668D02*
D03*
Y179637D02*
D03*
D26*
X148952Y125700D02*
D03*
X150920D02*
D03*
X152889D02*
D03*
X154858D02*
D03*
X156826D02*
D03*
X158794D02*
D03*
X160763D02*
D03*
X162732D02*
D03*
X164700D02*
D03*
X166668D02*
D03*
X168637D02*
D03*
X170606D02*
D03*
X172574D02*
D03*
X174542D02*
D03*
X176511D02*
D03*
X178480D02*
D03*
X180448D02*
D03*
X182416D02*
D03*
X184385D02*
D03*
X186354D02*
D03*
X188322D02*
D03*
X190291D02*
D03*
X192259D02*
D03*
X194228D02*
D03*
X196196D02*
D03*
Y186330D02*
D03*
X194228D02*
D03*
X192259D02*
D03*
X190291D02*
D03*
X188322D02*
D03*
X186354D02*
D03*
X184385D02*
D03*
X182416D02*
D03*
X180448D02*
D03*
X178480D02*
D03*
X176511D02*
D03*
X174542D02*
D03*
X172574D02*
D03*
X170606D02*
D03*
X168637D02*
D03*
X166668D02*
D03*
X164700D02*
D03*
X162732D02*
D03*
X160763D02*
D03*
X158794D02*
D03*
X156826D02*
D03*
X154858D02*
D03*
X152889D02*
D03*
X150920D02*
D03*
X148952D02*
D03*
D27*
X9200Y19700D02*
D03*
X19200D02*
D03*
X29200D02*
D03*
X39200D02*
D03*
X49200D02*
D03*
X59200D02*
D03*
X69200D02*
D03*
X79200D02*
D03*
X89200D02*
D03*
X99200D02*
D03*
X109200D02*
D03*
X119200D02*
D03*
X129200D02*
D03*
X139200D02*
D03*
X149200D02*
D03*
X159200D02*
D03*
X169200D02*
D03*
X179200D02*
D03*
X189200D02*
D03*
X199200D02*
D03*
X209200D02*
D03*
X219200D02*
D03*
D28*
X130200Y171747D02*
D03*
Y177653D02*
D03*
X214700Y146700D02*
D03*
Y152605D02*
D03*
Y132200D02*
D03*
Y126295D02*
D03*
D29*
X172747Y198200D02*
D03*
X178653D02*
D03*
X174747Y113700D02*
D03*
X180653D02*
D03*
X150700D02*
D03*
X156606D02*
D03*
D30*
X198700Y220700D02*
D03*
X183700Y210700D02*
D03*
X178700Y220700D02*
D03*
X173700Y210700D02*
D03*
X168700Y220700D02*
D03*
X163700Y210700D02*
D03*
X158700Y220700D02*
D03*
X153700Y210700D02*
D03*
X193700D02*
D03*
X188700Y220700D02*
D03*
X143700Y210700D02*
D03*
X138700Y220700D02*
D03*
X133700Y210700D02*
D03*
X148700Y220700D02*
D03*
D31*
X119200Y321700D02*
D03*
X109200D02*
D03*
X13200Y93700D02*
D03*
X119700Y207700D02*
D03*
Y197700D02*
D03*
Y157200D02*
D03*
Y147200D02*
D03*
X67700Y91700D02*
D03*
Y81700D02*
D03*
X120200Y91700D02*
D03*
Y81700D02*
D03*
X102700Y91700D02*
D03*
Y81700D02*
D03*
X32700Y91700D02*
D03*
Y81700D02*
D03*
X50200Y91700D02*
D03*
Y81700D02*
D03*
X85200Y91700D02*
D03*
Y81700D02*
D03*
X15200Y131700D02*
D03*
X25200D02*
D03*
X35200D02*
D03*
X45200D02*
D03*
X55200D02*
D03*
X65200D02*
D03*
X75200D02*
D03*
X85200D02*
D03*
Y71700D02*
D03*
Y61700D02*
D03*
X50200Y71700D02*
D03*
Y61700D02*
D03*
X32700Y71700D02*
D03*
Y61700D02*
D03*
X102700Y71700D02*
D03*
Y61700D02*
D03*
X120200Y71700D02*
D03*
Y61700D02*
D03*
X67700Y71700D02*
D03*
Y61700D02*
D03*
D32*
X13200Y83858D02*
D03*
D33*
X69200Y310200D02*
D03*
X59200D02*
D03*
X49200D02*
D03*
X39200D02*
D03*
X29200D02*
D03*
X19200D02*
D03*
X79200D02*
D03*
X89200D02*
D03*
X99200D02*
D03*
X109200D02*
D03*
X119200D02*
D03*
X129200D02*
D03*
X139200D02*
D03*
X149200D02*
D03*
X159200D02*
D03*
X169200D02*
D03*
X179200D02*
D03*
X189200D02*
D03*
X199200D02*
D03*
X19200Y250200D02*
D03*
X29200D02*
D03*
X39200D02*
D03*
X49200D02*
D03*
X59200D02*
D03*
X69200D02*
D03*
X79200D02*
D03*
X89200D02*
D03*
X99200D02*
D03*
X109200D02*
D03*
X119200D02*
D03*
X129200D02*
D03*
X139200D02*
D03*
X149200D02*
D03*
X159200D02*
D03*
X169200D02*
D03*
X179200D02*
D03*
X189200D02*
D03*
X199200D02*
D03*
X209200D02*
D03*
X75200Y146977D02*
D03*
X85200D02*
D03*
X95200D02*
D03*
X105200D02*
D03*
X65200D02*
D03*
X55200D02*
D03*
X95200Y176978D02*
D03*
X85200D02*
D03*
X75200D02*
D03*
X65200D02*
D03*
X55200D02*
D03*
X45200D02*
D03*
Y146977D02*
D03*
X35200D02*
D03*
X25200D02*
D03*
X15200D02*
D03*
Y176978D02*
D03*
X25200D02*
D03*
X35200D02*
D03*
X95200Y227200D02*
D03*
X85200D02*
D03*
X75200D02*
D03*
X65200D02*
D03*
X55200D02*
D03*
X45200D02*
D03*
Y197200D02*
D03*
X35200D02*
D03*
X25200D02*
D03*
X15200D02*
D03*
Y227200D02*
D03*
X25200D02*
D03*
X35200D02*
D03*
X95200Y197200D02*
D03*
X55200D02*
D03*
X65200D02*
D03*
X75200D02*
D03*
X85200D02*
D03*
X105200D02*
D03*
D34*
X209200Y310200D02*
D03*
X105200Y176978D02*
D03*
Y227200D02*
D03*
D35*
X95200Y131700D02*
D03*
M02*
