G04*
G04 #@! TF.GenerationSoftware,Altium Limited,Altium Designer,21.1.1 (26)*
G04*
G04 Layer_Color=16711935*
%FSLAX25Y25*%
%MOIN*%
G70*
G04*
G04 #@! TF.SameCoordinates,4EBEE0B8-8E4E-43C0-80E5-A374C2A04DA5*
G04*
G04*
G04 #@! TF.FilePolarity,Positive*
G04*
G01*
G75*
%ADD11C,0.00394*%
D11*
X15700Y328200D02*
X14714Y328169D01*
X13732Y328076D01*
X12758Y327922D01*
X11796Y327707D01*
X10848Y327432D01*
X9920Y327098D01*
X9015Y326706D01*
X8136Y326258D01*
X7288Y325756D01*
X6472Y325202D01*
X5692Y324597D01*
X4953Y323945D01*
X4255Y323247D01*
X3603Y322508D01*
X2998Y321728D01*
X2444Y320913D01*
X1942Y320063D01*
X1494Y319185D01*
X1103Y318280D01*
X768Y317352D01*
X493Y316404D01*
X278Y315442D01*
X124Y314468D01*
X31Y313486D01*
X-0Y312500D01*
X228400Y312500D02*
X228369Y313486D01*
X228276Y314468D01*
X228122Y315442D01*
X227907Y316404D01*
X227632Y317352D01*
X227297Y318280D01*
X226906Y319185D01*
X226458Y320063D01*
X225956Y320913D01*
X225402Y321728D01*
X224797Y322508D01*
X224145Y323247D01*
X223447Y323945D01*
X222708Y324597D01*
X221928Y325202D01*
X221112Y325756D01*
X220264Y326258D01*
X219385Y326706D01*
X218480Y327098D01*
X217552Y327432D01*
X216604Y327707D01*
X215642Y327922D01*
X214668Y328076D01*
X213686Y328169D01*
X212700Y328200D01*
X-0Y5117D02*
X98Y4118D01*
X390Y3159D01*
X862Y2274D01*
X1499Y1499D01*
X2274Y862D01*
X3159Y390D01*
X4118Y98D01*
X5117Y0D01*
X223298D02*
X224293Y98D01*
X225250Y388D01*
X226132Y860D01*
X226905Y1494D01*
X227540Y2268D01*
X228012Y3150D01*
X228302Y4107D01*
X228400Y5102D01*
X15700Y328200D02*
X212700D01*
X-0Y5117D02*
Y312500D01*
X228400Y5102D02*
Y312500D01*
X5117Y0D02*
X223298D01*
M02*
