G04*
G04 #@! TF.GenerationSoftware,Altium Limited,Altium Designer,21.1.1 (26)*
G04*
G04 Layer_Color=8421504*
%FSLAX25Y25*%
%MOIN*%
G70*
G04*
G04 #@! TF.SameCoordinates,BA25F0D4-A6B5-41BD-99B5-9815951856DC*
G04*
G04*
G04 #@! TF.FilePolarity,Positive*
G04*
G01*
G75*
%ADD15R,0.03937X0.04134*%
%ADD16O,0.01181X0.05512*%
%ADD17O,0.05512X0.01181*%
G04:AMPARAMS|DCode=18|XSize=45.28mil|YSize=57.09mil|CornerRadius=11.32mil|HoleSize=0mil|Usage=FLASHONLY|Rotation=0.000|XOffset=0mil|YOffset=0mil|HoleType=Round|Shape=RoundedRectangle|*
%AMROUNDEDRECTD18*
21,1,0.04528,0.03445,0,0,0.0*
21,1,0.02264,0.05709,0,0,0.0*
1,1,0.02264,0.01132,-0.01722*
1,1,0.02264,-0.01132,-0.01722*
1,1,0.02264,-0.01132,0.01722*
1,1,0.02264,0.01132,0.01722*
%
%ADD18ROUNDEDRECTD18*%
G04:AMPARAMS|DCode=19|XSize=23.62mil|YSize=39.37mil|CornerRadius=5.91mil|HoleSize=0mil|Usage=FLASHONLY|Rotation=270.000|XOffset=0mil|YOffset=0mil|HoleType=Round|Shape=RoundedRectangle|*
%AMROUNDEDRECTD19*
21,1,0.02362,0.02756,0,0,270.0*
21,1,0.01181,0.03937,0,0,270.0*
1,1,0.01181,-0.01378,-0.00591*
1,1,0.01181,-0.01378,0.00591*
1,1,0.01181,0.01378,0.00591*
1,1,0.01181,0.01378,-0.00591*
%
%ADD19ROUNDEDRECTD19*%
%ADD20R,0.04134X0.03937*%
D15*
X124800Y144847D02*
D03*
Y150753D02*
D03*
X40300Y175800D02*
D03*
Y169895D02*
D03*
Y190300D02*
D03*
Y196205D02*
D03*
D16*
X106048Y136170D02*
D03*
X104079D02*
D03*
X102111D02*
D03*
X100143D02*
D03*
X98174D02*
D03*
X96206D02*
D03*
X94237D02*
D03*
X92269D02*
D03*
X90300D02*
D03*
X88332D02*
D03*
X86363D02*
D03*
X84395D02*
D03*
X82426D02*
D03*
X80458D02*
D03*
X78489D02*
D03*
X76521D02*
D03*
X74552D02*
D03*
X72584D02*
D03*
X70615D02*
D03*
X68647D02*
D03*
X66678D02*
D03*
X64709D02*
D03*
X62741D02*
D03*
X60772D02*
D03*
X58804D02*
D03*
Y196800D02*
D03*
X60772D02*
D03*
X62741D02*
D03*
X64709D02*
D03*
X66678D02*
D03*
X68647D02*
D03*
X70615D02*
D03*
X72584D02*
D03*
X74552D02*
D03*
X76521D02*
D03*
X78489D02*
D03*
X80458D02*
D03*
X82426D02*
D03*
X84395D02*
D03*
X86363D02*
D03*
X88332D02*
D03*
X90300D02*
D03*
X92269D02*
D03*
X94237D02*
D03*
X96206D02*
D03*
X98174D02*
D03*
X100143D02*
D03*
X102111D02*
D03*
X104079D02*
D03*
X106048D02*
D03*
D17*
X52111Y142863D02*
D03*
Y144832D02*
D03*
Y146800D02*
D03*
Y148768D02*
D03*
Y150737D02*
D03*
Y152706D02*
D03*
Y154674D02*
D03*
Y156642D02*
D03*
Y158611D02*
D03*
Y160580D02*
D03*
Y162548D02*
D03*
Y164516D02*
D03*
Y166485D02*
D03*
Y168454D02*
D03*
Y170422D02*
D03*
Y172391D02*
D03*
Y174359D02*
D03*
Y176328D02*
D03*
Y178296D02*
D03*
Y180265D02*
D03*
Y182233D02*
D03*
Y184202D02*
D03*
Y186170D02*
D03*
Y188139D02*
D03*
Y190107D02*
D03*
X112741D02*
D03*
Y188139D02*
D03*
Y186170D02*
D03*
Y184202D02*
D03*
Y182233D02*
D03*
Y180265D02*
D03*
Y178296D02*
D03*
Y176328D02*
D03*
Y174359D02*
D03*
Y172391D02*
D03*
Y170422D02*
D03*
Y168454D02*
D03*
Y166485D02*
D03*
Y164516D02*
D03*
Y162548D02*
D03*
Y160580D02*
D03*
Y158611D02*
D03*
Y156642D02*
D03*
Y154674D02*
D03*
Y152706D02*
D03*
Y150737D02*
D03*
Y148768D02*
D03*
Y146800D02*
D03*
Y144832D02*
D03*
Y142863D02*
D03*
D18*
X12157Y180700D02*
D03*
X19243D02*
D03*
X12200Y157700D02*
D03*
X19287D02*
D03*
D19*
X19873Y165460D02*
D03*
Y172940D02*
D03*
X11527Y165460D02*
D03*
Y169200D02*
D03*
Y172940D02*
D03*
D20*
X82253Y124300D02*
D03*
X76347D02*
D03*
X80253Y208800D02*
D03*
X74347D02*
D03*
X104300D02*
D03*
X98395D02*
D03*
M02*
