G04*
G04 #@! TF.GenerationSoftware,Altium Limited,Altium Designer,21.1.1 (26)*
G04*
G04 Layer_Color=16711935*
%FSLAX25Y25*%
%MOIN*%
G70*
G04*
G04 #@! TF.SameCoordinates,A5F47C6F-2453-4AC6-896B-71FEB3B9F667*
G04*
G04*
G04 #@! TF.FilePolarity,Negative*
G04*
G01*
G75*
G04:AMPARAMS|DCode=23|XSize=81.73mil|YSize=278.58mil|CornerRadius=21.18mil|HoleSize=0mil|Usage=FLASHONLY|Rotation=0.000|XOffset=0mil|YOffset=0mil|HoleType=Round|Shape=RoundedRectangle|*
%AMROUNDEDRECTD23*
21,1,0.08173,0.23622,0,0,0.0*
21,1,0.03937,0.27858,0,0,0.0*
1,1,0.04236,0.01968,-0.11811*
1,1,0.04236,-0.01968,-0.11811*
1,1,0.04236,-0.01968,0.11811*
1,1,0.04236,0.01968,0.11811*
%
%ADD23ROUNDEDRECTD23*%
%ADD31C,0.06992*%
%ADD32C,0.06598*%
%ADD33O,0.10142X0.06598*%
%ADD34R,0.10142X0.06598*%
%ADD35R,0.06598X0.06598*%
%ADD36R,0.06992X0.06992*%
%ADD37C,0.07099*%
D23*
X29169Y19700D02*
D03*
X19169D02*
D03*
X69169D02*
D03*
X59169D02*
D03*
X49169D02*
D03*
X99169D02*
D03*
X89169D02*
D03*
X129169D02*
D03*
X119169D02*
D03*
X159169D02*
D03*
X149169D02*
D03*
X189169D02*
D03*
X179169D02*
D03*
X219169D02*
D03*
X209169D02*
D03*
X79169D02*
D03*
X39169D02*
D03*
X9169D02*
D03*
X199169D02*
D03*
X169169D02*
D03*
X139169D02*
D03*
X109169D02*
D03*
D31*
X184000Y184500D02*
D03*
X174000D02*
D03*
X164000D02*
D03*
X154000D02*
D03*
X144000D02*
D03*
X134000D02*
D03*
X124000D02*
D03*
Y194500D02*
D03*
X134000D02*
D03*
X144000D02*
D03*
X154000D02*
D03*
X164000D02*
D03*
X174000D02*
D03*
X184000D02*
D03*
X222000Y195000D02*
D03*
Y185000D02*
D03*
Y175000D02*
D03*
Y165000D02*
D03*
Y155000D02*
D03*
D32*
X52500Y92500D02*
D03*
X62500D02*
D03*
Y122500D02*
D03*
X52500D02*
D03*
X62500Y62500D02*
D03*
X52500D02*
D03*
X62500Y77500D02*
D03*
X52500D02*
D03*
X62500Y137500D02*
D03*
X52500D02*
D03*
X62500Y107500D02*
D03*
X52500D02*
D03*
X82500D02*
D03*
X72500D02*
D03*
X82500Y92500D02*
D03*
X72500D02*
D03*
X82500Y137500D02*
D03*
X72500D02*
D03*
X82500Y77500D02*
D03*
X72500D02*
D03*
X82500Y62500D02*
D03*
X72500D02*
D03*
X82500Y122500D02*
D03*
X72500D02*
D03*
X59369Y288300D02*
D03*
X69369D02*
D03*
X7658Y65000D02*
D03*
D33*
X85369Y328300D02*
D03*
Y338300D02*
D03*
Y348300D02*
D03*
Y358300D02*
D03*
Y368300D02*
D03*
Y378300D02*
D03*
Y318300D02*
D03*
Y308300D02*
D03*
Y298300D02*
D03*
Y288300D02*
D03*
Y278300D02*
D03*
Y268300D02*
D03*
Y258300D02*
D03*
Y248300D02*
D03*
Y238300D02*
D03*
Y228300D02*
D03*
Y218300D02*
D03*
Y208300D02*
D03*
Y198300D02*
D03*
X25369Y378300D02*
D03*
Y368300D02*
D03*
Y358300D02*
D03*
Y348300D02*
D03*
Y338300D02*
D03*
Y328300D02*
D03*
Y318300D02*
D03*
Y308300D02*
D03*
Y298300D02*
D03*
Y288300D02*
D03*
Y278300D02*
D03*
Y268300D02*
D03*
Y258300D02*
D03*
Y248300D02*
D03*
Y238300D02*
D03*
Y228300D02*
D03*
Y218300D02*
D03*
Y208300D02*
D03*
Y198300D02*
D03*
Y188300D02*
D03*
D34*
X85369D02*
D03*
D35*
X17500Y65000D02*
D03*
D36*
X222000Y145000D02*
D03*
D37*
X152004Y375500D02*
D03*
X192000D02*
D03*
X182000D02*
D03*
X172000D02*
D03*
X162000D02*
D03*
X142000D02*
D03*
X132000D02*
D03*
X122000D02*
D03*
X112000D02*
D03*
X102000Y375492D02*
D03*
X172000Y205500D02*
D03*
X192000D02*
D03*
X182000D02*
D03*
X212000D02*
D03*
X202000Y375500D02*
D03*
X212000D02*
D03*
Y365500D02*
D03*
X192000D02*
D03*
X182000D02*
D03*
X172000D02*
D03*
X122000D02*
D03*
X132000D02*
D03*
X142000D02*
D03*
X152000D02*
D03*
X162000D02*
D03*
X112000D02*
D03*
X102000D02*
D03*
X202000D02*
D03*
Y345500D02*
D03*
X102000D02*
D03*
X112000D02*
D03*
X162000D02*
D03*
X152000D02*
D03*
X142000D02*
D03*
X132000D02*
D03*
X122000D02*
D03*
X172000D02*
D03*
X182000D02*
D03*
X192000D02*
D03*
X212000D02*
D03*
Y355500D02*
D03*
X192000D02*
D03*
X182000D02*
D03*
X172000D02*
D03*
X122000D02*
D03*
X132000D02*
D03*
X142000D02*
D03*
X152000D02*
D03*
X162000D02*
D03*
X112000D02*
D03*
X102000D02*
D03*
X202000D02*
D03*
Y325500D02*
D03*
X102000D02*
D03*
X112000D02*
D03*
X162000D02*
D03*
X152000D02*
D03*
X142000D02*
D03*
X132000D02*
D03*
X122000D02*
D03*
X172000D02*
D03*
X182000D02*
D03*
X192000D02*
D03*
X212000D02*
D03*
Y335500D02*
D03*
X192000D02*
D03*
X182000D02*
D03*
X172000D02*
D03*
X122000D02*
D03*
X132000D02*
D03*
X142000D02*
D03*
X152000D02*
D03*
X162000D02*
D03*
X112000D02*
D03*
X102000D02*
D03*
X202000D02*
D03*
Y305500D02*
D03*
X102000D02*
D03*
X112000D02*
D03*
X162000D02*
D03*
X152000D02*
D03*
X142000D02*
D03*
X132000D02*
D03*
X122000D02*
D03*
X172000D02*
D03*
X182000D02*
D03*
X192000D02*
D03*
X212000D02*
D03*
Y315500D02*
D03*
X192000D02*
D03*
X182000D02*
D03*
X172000D02*
D03*
X122000D02*
D03*
X132000D02*
D03*
X142000D02*
D03*
X152000D02*
D03*
X162000D02*
D03*
X112000D02*
D03*
X102000D02*
D03*
X202000D02*
D03*
Y285500D02*
D03*
X102000D02*
D03*
X112000D02*
D03*
X162000D02*
D03*
X152000D02*
D03*
X142000D02*
D03*
X132000D02*
D03*
X122000D02*
D03*
X172000D02*
D03*
X182000D02*
D03*
X192000D02*
D03*
X212000D02*
D03*
Y295500D02*
D03*
X192000D02*
D03*
X182000D02*
D03*
X172000D02*
D03*
X122000D02*
D03*
X132000D02*
D03*
X142000D02*
D03*
X152000D02*
D03*
X162000D02*
D03*
X112000D02*
D03*
X102000D02*
D03*
X202000D02*
D03*
Y265500D02*
D03*
X102000D02*
D03*
X112000D02*
D03*
X162000D02*
D03*
X152000D02*
D03*
X142000D02*
D03*
X132000D02*
D03*
X122000D02*
D03*
X172000D02*
D03*
X182000D02*
D03*
X192000D02*
D03*
X212000D02*
D03*
Y275500D02*
D03*
X192000D02*
D03*
X182000D02*
D03*
X172000D02*
D03*
X122000D02*
D03*
X132000D02*
D03*
X142000D02*
D03*
X152000D02*
D03*
X162000D02*
D03*
X112000D02*
D03*
X102000D02*
D03*
X202000D02*
D03*
Y245500D02*
D03*
X102000D02*
D03*
X112000D02*
D03*
X162000D02*
D03*
X152000D02*
D03*
X142000D02*
D03*
X132000D02*
D03*
X122000D02*
D03*
X172000D02*
D03*
X182000D02*
D03*
X192000D02*
D03*
X212000D02*
D03*
Y255500D02*
D03*
X192000D02*
D03*
X182000D02*
D03*
X172000D02*
D03*
X122000D02*
D03*
X132000D02*
D03*
X142000D02*
D03*
X152000D02*
D03*
X162000D02*
D03*
X112000D02*
D03*
X102000D02*
D03*
X202000D02*
D03*
Y225500D02*
D03*
X102000D02*
D03*
X112000D02*
D03*
X162000D02*
D03*
X152000D02*
D03*
X142000D02*
D03*
X132000D02*
D03*
X122000D02*
D03*
X172000D02*
D03*
X182000D02*
D03*
X192000D02*
D03*
X212000D02*
D03*
Y235500D02*
D03*
X192000D02*
D03*
X182000D02*
D03*
X172000D02*
D03*
X122000D02*
D03*
X132000D02*
D03*
X142000D02*
D03*
X152000D02*
D03*
X162000D02*
D03*
X112000D02*
D03*
X102000D02*
D03*
X202000D02*
D03*
Y215500D02*
D03*
X102000D02*
D03*
X112000D02*
D03*
X162000D02*
D03*
X152000D02*
D03*
X142000D02*
D03*
X132000D02*
D03*
X122000D02*
D03*
X172000D02*
D03*
X182000D02*
D03*
X192000D02*
D03*
X212000D02*
D03*
X122000Y205500D02*
D03*
X132000D02*
D03*
X142000D02*
D03*
X152000D02*
D03*
X162000D02*
D03*
X112000D02*
D03*
X102000D02*
D03*
X202000D02*
D03*
M02*
