G04*
G04 #@! TF.GenerationSoftware,Altium Limited,Altium Designer,21.1.1 (26)*
G04*
G04 Layer_Color=8388736*
%FSLAX25Y25*%
%MOIN*%
G70*
G04*
G04 #@! TF.SameCoordinates,BA25F0D4-A6B5-41BD-99B5-9815951856DC*
G04*
G04*
G04 #@! TF.FilePolarity,Negative*
G04*
G01*
G75*
%ADD21R,0.04236X0.04433*%
G04:AMPARAMS|DCode=22|XSize=81.73mil|YSize=278.58mil|CornerRadius=21.18mil|HoleSize=0mil|Usage=FLASHONLY|Rotation=0.000|XOffset=0mil|YOffset=0mil|HoleType=Round|Shape=RoundedRectangle|*
%AMROUNDEDRECTD22*
21,1,0.08173,0.23622,0,0,0.0*
21,1,0.03937,0.27858,0,0,0.0*
1,1,0.04236,0.01968,-0.11811*
1,1,0.04236,-0.01968,-0.11811*
1,1,0.04236,-0.01968,0.11811*
1,1,0.04236,0.01968,0.11811*
%
%ADD22ROUNDEDRECTD22*%
%ADD23O,0.01480X0.05811*%
%ADD24O,0.05811X0.01480*%
G04:AMPARAMS|DCode=25|XSize=48.27mil|YSize=60.08mil|CornerRadius=12.82mil|HoleSize=0mil|Usage=FLASHONLY|Rotation=0.000|XOffset=0mil|YOffset=0mil|HoleType=Round|Shape=RoundedRectangle|*
%AMROUNDEDRECTD25*
21,1,0.04827,0.03445,0,0,0.0*
21,1,0.02264,0.06008,0,0,0.0*
1,1,0.02563,0.01132,-0.01722*
1,1,0.02563,-0.01132,-0.01722*
1,1,0.02563,-0.01132,0.01722*
1,1,0.02563,0.01132,0.01722*
%
%ADD25ROUNDEDRECTD25*%
G04:AMPARAMS|DCode=26|XSize=26.61mil|YSize=42.36mil|CornerRadius=7.4mil|HoleSize=0mil|Usage=FLASHONLY|Rotation=270.000|XOffset=0mil|YOffset=0mil|HoleType=Round|Shape=RoundedRectangle|*
%AMROUNDEDRECTD26*
21,1,0.02661,0.02756,0,0,270.0*
21,1,0.01181,0.04236,0,0,270.0*
1,1,0.01480,-0.01378,-0.00591*
1,1,0.01480,-0.01378,0.00591*
1,1,0.01480,0.01378,0.00591*
1,1,0.01480,0.01378,-0.00591*
%
%ADD26ROUNDEDRECTD26*%
%ADD27R,0.04433X0.04236*%
%ADD28C,0.06598*%
%ADD29O,0.10142X0.06598*%
%ADD30R,0.10142X0.06598*%
%ADD31R,0.06598X0.06598*%
%ADD32R,0.06992X0.06992*%
%ADD33C,0.06992*%
D21*
X124800Y144847D02*
D03*
Y150753D02*
D03*
X40300Y175800D02*
D03*
Y169895D02*
D03*
Y190300D02*
D03*
Y196205D02*
D03*
D22*
X219200Y19700D02*
D03*
X209200D02*
D03*
X199200D02*
D03*
X189200D02*
D03*
X179200D02*
D03*
X169200D02*
D03*
X159200D02*
D03*
X149200D02*
D03*
X139200D02*
D03*
X129200D02*
D03*
X119200D02*
D03*
X109200D02*
D03*
X99200D02*
D03*
X89200D02*
D03*
X79200D02*
D03*
X69200D02*
D03*
X59200D02*
D03*
X49200D02*
D03*
X39200D02*
D03*
X29200D02*
D03*
X19200D02*
D03*
X9200D02*
D03*
D23*
X106048Y136170D02*
D03*
X104079D02*
D03*
X102111D02*
D03*
X100143D02*
D03*
X98174D02*
D03*
X96206D02*
D03*
X94237D02*
D03*
X92269D02*
D03*
X90300D02*
D03*
X88332D02*
D03*
X86363D02*
D03*
X84395D02*
D03*
X82426D02*
D03*
X80458D02*
D03*
X78489D02*
D03*
X76521D02*
D03*
X74552D02*
D03*
X72584D02*
D03*
X70615D02*
D03*
X68647D02*
D03*
X66678D02*
D03*
X64709D02*
D03*
X62741D02*
D03*
X60772D02*
D03*
X58804D02*
D03*
Y196800D02*
D03*
X60772D02*
D03*
X62741D02*
D03*
X64709D02*
D03*
X66678D02*
D03*
X68647D02*
D03*
X70615D02*
D03*
X72584D02*
D03*
X74552D02*
D03*
X76521D02*
D03*
X78489D02*
D03*
X80458D02*
D03*
X82426D02*
D03*
X84395D02*
D03*
X86363D02*
D03*
X88332D02*
D03*
X90300D02*
D03*
X92269D02*
D03*
X94237D02*
D03*
X96206D02*
D03*
X98174D02*
D03*
X100143D02*
D03*
X102111D02*
D03*
X104079D02*
D03*
X106048D02*
D03*
D24*
X52111Y142863D02*
D03*
Y144832D02*
D03*
Y146800D02*
D03*
Y148768D02*
D03*
Y150737D02*
D03*
Y152706D02*
D03*
Y154674D02*
D03*
Y156642D02*
D03*
Y158611D02*
D03*
Y160580D02*
D03*
Y162548D02*
D03*
Y164516D02*
D03*
Y166485D02*
D03*
Y168454D02*
D03*
Y170422D02*
D03*
Y172391D02*
D03*
Y174359D02*
D03*
Y176328D02*
D03*
Y178296D02*
D03*
Y180265D02*
D03*
Y182233D02*
D03*
Y184202D02*
D03*
Y186170D02*
D03*
Y188139D02*
D03*
Y190107D02*
D03*
X112741D02*
D03*
Y188139D02*
D03*
Y186170D02*
D03*
Y184202D02*
D03*
Y182233D02*
D03*
Y180265D02*
D03*
Y178296D02*
D03*
Y176328D02*
D03*
Y174359D02*
D03*
Y172391D02*
D03*
Y170422D02*
D03*
Y168454D02*
D03*
Y166485D02*
D03*
Y164516D02*
D03*
Y162548D02*
D03*
Y160580D02*
D03*
Y158611D02*
D03*
Y156642D02*
D03*
Y154674D02*
D03*
Y152706D02*
D03*
Y150737D02*
D03*
Y148768D02*
D03*
Y146800D02*
D03*
Y144832D02*
D03*
Y142863D02*
D03*
D25*
X12157Y180700D02*
D03*
X19243D02*
D03*
X12200Y157700D02*
D03*
X19287D02*
D03*
D26*
X19873Y165460D02*
D03*
Y172940D02*
D03*
X11527Y165460D02*
D03*
Y169200D02*
D03*
Y172940D02*
D03*
D27*
X82253Y124300D02*
D03*
X76347D02*
D03*
X80253Y208800D02*
D03*
X74347D02*
D03*
X104300D02*
D03*
X98395D02*
D03*
D28*
X55700Y61900D02*
D03*
Y71900D02*
D03*
Y81900D02*
D03*
Y91900D02*
D03*
X9858Y117900D02*
D03*
X139800Y151400D02*
D03*
Y161400D02*
D03*
X108200Y91900D02*
D03*
Y81900D02*
D03*
X90700Y91900D02*
D03*
Y81900D02*
D03*
X20700Y91900D02*
D03*
Y81900D02*
D03*
X38200Y91900D02*
D03*
Y81900D02*
D03*
X73200Y91900D02*
D03*
Y81900D02*
D03*
Y71900D02*
D03*
Y61900D02*
D03*
X38200Y71900D02*
D03*
Y61900D02*
D03*
X20700Y71900D02*
D03*
Y61900D02*
D03*
X90700Y71900D02*
D03*
Y61900D02*
D03*
X108200Y71900D02*
D03*
Y61900D02*
D03*
D29*
X211300Y251400D02*
D03*
Y241400D02*
D03*
Y231400D02*
D03*
Y221400D02*
D03*
Y211400D02*
D03*
Y201400D02*
D03*
Y191400D02*
D03*
Y181400D02*
D03*
Y171400D02*
D03*
Y161400D02*
D03*
Y151400D02*
D03*
Y141400D02*
D03*
Y131400D02*
D03*
Y121400D02*
D03*
Y111400D02*
D03*
Y101400D02*
D03*
Y91400D02*
D03*
Y81400D02*
D03*
Y71400D02*
D03*
Y61400D02*
D03*
X151300Y241400D02*
D03*
Y231400D02*
D03*
Y221400D02*
D03*
Y211400D02*
D03*
Y201400D02*
D03*
Y191400D02*
D03*
Y181400D02*
D03*
Y171400D02*
D03*
Y161400D02*
D03*
Y151400D02*
D03*
Y141400D02*
D03*
Y131400D02*
D03*
Y121400D02*
D03*
Y61400D02*
D03*
Y71400D02*
D03*
Y81400D02*
D03*
Y91400D02*
D03*
Y101400D02*
D03*
Y111400D02*
D03*
D30*
Y251400D02*
D03*
D31*
X19700Y117900D02*
D03*
D32*
X27221Y246297D02*
D03*
D33*
X37221D02*
D03*
X47221D02*
D03*
X57221D02*
D03*
X67221D02*
D03*
X77221D02*
D03*
M02*
