G04*
G04 #@! TF.GenerationSoftware,Altium Limited,Altium Designer,21.1.1 (26)*
G04*
G04 Layer_Physical_Order=2*
G04 Layer_Color=16711680*
%FSLAX25Y25*%
%MOIN*%
G70*
G04*
G04 #@! TF.SameCoordinates,A5F47C6F-2453-4AC6-896B-71FEB3B9F667*
G04*
G04*
G04 #@! TF.FilePolarity,Positive*
G04*
G01*
G75*
%ADD13C,0.02362*%
G04:AMPARAMS|DCode=38|XSize=78.74mil|YSize=275.59mil|CornerRadius=19.68mil|HoleSize=0mil|Usage=FLASHONLY|Rotation=0.000|XOffset=0mil|YOffset=0mil|HoleType=Round|Shape=RoundedRectangle|*
%AMROUNDEDRECTD38*
21,1,0.07874,0.23622,0,0,0.0*
21,1,0.03937,0.27559,0,0,0.0*
1,1,0.03937,0.01968,-0.11811*
1,1,0.03937,-0.01968,-0.11811*
1,1,0.03937,-0.01968,0.11811*
1,1,0.03937,0.01968,0.11811*
%
%ADD38ROUNDEDRECTD38*%
%ADD39C,0.05906*%
%ADD40C,0.01181*%
%ADD41C,0.03937*%
%ADD42C,0.06693*%
%ADD43C,0.06299*%
%ADD44O,0.09843X0.06299*%
%ADD45R,0.09843X0.06299*%
%ADD46R,0.06299X0.06299*%
%ADD47R,0.06693X0.06693*%
%ADD48C,0.01968*%
%ADD49C,0.02756*%
%ADD50C,0.05906*%
%ADD51C,0.03937*%
G36*
X210381Y388421D02*
X213043Y387707D01*
X215590Y386652D01*
X217977Y385274D01*
X220164Y383596D01*
X222113Y381647D01*
X223791Y379460D01*
X225170Y377073D01*
X226224Y374526D01*
X226938Y371863D01*
X227298Y369130D01*
Y367752D01*
X227298Y367752D01*
X227298Y367752D01*
X227313Y112022D01*
X227257Y111987D01*
X226525Y111781D01*
X226124Y112182D01*
X225500Y112441D01*
Y110500D01*
Y108559D01*
X226124Y108818D01*
X226525Y109219D01*
X227256Y109014D01*
X227313Y108978D01*
X227318Y19560D01*
X226761Y19003D01*
X224132D01*
Y19200D01*
X219169D01*
Y19700D01*
X218669D01*
Y34505D01*
X217201D01*
X216426Y34403D01*
X215704Y34104D01*
X215084Y33628D01*
X214608Y33008D01*
X214480Y32700D01*
X213628D01*
X213545Y32901D01*
X213103Y33477D01*
X212528Y33918D01*
X211857Y34196D01*
X211138Y34291D01*
X210574D01*
Y57289D01*
X210467Y57827D01*
X210163Y58283D01*
X206504Y61941D01*
Y69377D01*
X207292Y69792D01*
X207648Y69644D01*
X208352D01*
X209004Y69914D01*
X209502Y70412D01*
X209772Y71063D01*
Y71768D01*
X209502Y72419D01*
X209405Y72516D01*
Y86500D01*
X209298Y87038D01*
X209272Y87077D01*
Y87352D01*
X209002Y88004D01*
X208921Y88084D01*
X209247Y88872D01*
X212212D01*
X212750Y88979D01*
X213206Y89283D01*
X220634Y96711D01*
X220938Y97167D01*
X221045Y97705D01*
Y111652D01*
X221142Y111749D01*
X221412Y112400D01*
Y113105D01*
X221142Y113756D01*
X220644Y114254D01*
X220502Y114968D01*
X220634Y115100D01*
X220938Y115555D01*
X221045Y116093D01*
Y128194D01*
X220938Y128732D01*
X220819Y128910D01*
Y129352D01*
X220549Y130004D01*
X220051Y130502D01*
X219400Y130772D01*
X218695D01*
X218044Y130502D01*
X217545Y130004D01*
X217318Y129454D01*
X216890Y129263D01*
X216488Y129170D01*
X210905Y134754D01*
Y189400D01*
X211002Y189496D01*
X211272Y190148D01*
Y190852D01*
X211002Y191504D01*
X210504Y192002D01*
X209852Y192272D01*
X209148D01*
X208496Y192002D01*
X207998Y191504D01*
X207728Y190852D01*
Y190148D01*
X207998Y189496D01*
X208095Y189400D01*
Y180451D01*
X207456Y180262D01*
X207308Y180255D01*
X206727Y180836D01*
X205931Y181165D01*
X205069D01*
X204273Y180836D01*
X203664Y180227D01*
X203335Y179431D01*
Y178822D01*
X191007Y166493D01*
X190702Y166038D01*
X190595Y165500D01*
Y129101D01*
X190498Y129004D01*
X190228Y128352D01*
Y127648D01*
X190498Y126996D01*
X190996Y126498D01*
X191648Y126228D01*
X192352D01*
X193004Y126498D01*
X193502Y126996D01*
X193772Y127648D01*
Y128352D01*
X193502Y129004D01*
X193405Y129101D01*
Y164918D01*
X205322Y176835D01*
X205931D01*
X206727Y177164D01*
X207308Y177745D01*
X207456Y177738D01*
X208095Y177549D01*
Y134172D01*
X208202Y133634D01*
X208507Y133178D01*
X216267Y125418D01*
Y117490D01*
X215322Y116545D01*
X214393Y116730D01*
X214381Y116758D01*
X213772Y117367D01*
X212976Y117697D01*
X212115D01*
X211915Y117614D01*
X211894D01*
X211283Y117735D01*
X200228D01*
X199460Y117583D01*
X198809Y117148D01*
X191169Y109507D01*
X168313D01*
X167931Y109665D01*
X167069D01*
X166273Y109336D01*
X165664Y108727D01*
X165506Y108344D01*
X151212Y94050D01*
X150326Y94278D01*
X150182Y94624D01*
X149624Y95182D01*
X149000Y95441D01*
Y93500D01*
X148500D01*
Y93000D01*
X146559D01*
X146818Y92376D01*
X147352Y91842D01*
X147347Y91713D01*
X147162Y91054D01*
X145352D01*
X145055Y91500D01*
X140945D01*
X140648Y91054D01*
X135047D01*
X134279Y90901D01*
X133628Y90466D01*
X130669Y87507D01*
X120331D01*
X105507Y102331D01*
Y124500D01*
X105354Y125268D01*
X104919Y125919D01*
X93336Y137502D01*
X93336Y137502D01*
X86801Y144037D01*
X86150Y144472D01*
X85382Y144625D01*
X85302D01*
X83575Y146351D01*
X83492Y146552D01*
X82883Y147161D01*
X82087Y147490D01*
X81226D01*
X80430Y147161D01*
X79821Y146552D01*
X79491Y145756D01*
Y144894D01*
X79821Y144098D01*
X80430Y143489D01*
X80994Y143256D01*
X81853Y142397D01*
X81585Y141551D01*
X80898Y141367D01*
X79952Y140821D01*
X79180Y140048D01*
X78633Y139102D01*
X78350Y138046D01*
Y138000D01*
X82500D01*
Y137500D01*
X83000D01*
Y133350D01*
X83046D01*
X84102Y133633D01*
X85048Y134179D01*
X85821Y134952D01*
X86367Y135898D01*
X86650Y136954D01*
Y137398D01*
X87437Y137725D01*
X90498Y134664D01*
X90498Y134664D01*
X101493Y123669D01*
Y101500D01*
X101646Y100732D01*
X102081Y100081D01*
X118081Y84081D01*
X118732Y83646D01*
X119500Y83493D01*
X128993D01*
Y67596D01*
X128835Y67214D01*
Y66353D01*
X129164Y65557D01*
X129773Y64948D01*
X130569Y64618D01*
X131431D01*
X132227Y64948D01*
X132836Y65557D01*
X133165Y66353D01*
Y67214D01*
X133007Y67596D01*
Y84169D01*
X135879Y87040D01*
X149047D01*
X149815Y87193D01*
X150467Y87628D01*
X153892Y91054D01*
X154818Y90876D01*
X155376Y90318D01*
X156000Y90059D01*
Y92000D01*
X156500D01*
Y92500D01*
X158441D01*
X158182Y93124D01*
X157624Y93682D01*
X157446Y94608D01*
X161468Y98629D01*
X162135Y98183D01*
X162059Y98000D01*
X163500D01*
Y99441D01*
X163317Y99365D01*
X162871Y100032D01*
X168331Y105493D01*
X185080D01*
X185606Y104706D01*
X185578Y104638D01*
X190311D01*
X190283Y104706D01*
X190809Y105493D01*
X192000D01*
X192768Y105646D01*
X193419Y106081D01*
X201060Y113721D01*
X210794D01*
X211405Y113600D01*
X211551D01*
X212115Y113366D01*
X212976D01*
X213117Y113424D01*
X213905Y112898D01*
Y99676D01*
X210199Y95970D01*
X209640Y96016D01*
X209019Y96450D01*
Y97154D01*
X208749Y97805D01*
X208251Y98304D01*
X207600Y98573D01*
X206895D01*
X206440Y98385D01*
X206331Y98493D01*
X205876Y98798D01*
X205338Y98905D01*
X193101D01*
X193004Y99002D01*
X192352Y99272D01*
X191648D01*
X190996Y99002D01*
X190498Y98504D01*
X190228Y97852D01*
Y97148D01*
X190498Y96496D01*
X190588Y96406D01*
X190262Y95619D01*
X190045D01*
X189508Y95512D01*
X189052Y95207D01*
X182083Y88238D01*
X181295Y88564D01*
Y88895D01*
X180993Y89624D01*
X180435Y90182D01*
X179811Y90441D01*
Y88500D01*
X179311D01*
Y88000D01*
X177370D01*
X177629Y87376D01*
X178187Y86818D01*
X178916Y86516D01*
X179296D01*
X179721Y85735D01*
X179702Y85706D01*
X179595Y85168D01*
Y73715D01*
X179384Y73504D01*
X179114Y72852D01*
Y72148D01*
X179384Y71496D01*
X179758Y71122D01*
X179384Y70748D01*
X179378Y70734D01*
X178850Y70190D01*
X178428Y70340D01*
X178182Y70442D01*
X177477D01*
X176826Y70172D01*
X176432Y69779D01*
X176170Y69680D01*
X175489Y69707D01*
X175196Y70000D01*
X174545Y70270D01*
X173840D01*
X173189Y70000D01*
X172829Y69639D01*
X172441Y70027D01*
X171789Y70297D01*
X171085D01*
X170433Y70027D01*
X169935Y69529D01*
X169665Y68878D01*
Y68173D01*
X169935Y67522D01*
X170024Y67433D01*
Y65879D01*
X169033Y64887D01*
X168164Y65133D01*
X167795Y65502D01*
X167144Y65772D01*
X166439D01*
X165788Y65502D01*
X165691Y65405D01*
X164502D01*
X164320Y65629D01*
X164074Y66192D01*
X164272Y66670D01*
Y67375D01*
X164002Y68026D01*
X163628Y68400D01*
X164002Y68774D01*
X164272Y69426D01*
Y70130D01*
X164002Y70782D01*
X163504Y71280D01*
X162852Y71550D01*
X162221Y71788D01*
X162221Y72493D01*
X161952Y73144D01*
X161453Y73642D01*
X160802Y73912D01*
X160097D01*
X159446Y73642D01*
X159349Y73545D01*
X158425D01*
X158124Y74273D01*
X161443Y77592D01*
X161748Y78048D01*
X161855Y78585D01*
Y81400D01*
X161952Y81496D01*
X162221Y82148D01*
Y82852D01*
X161952Y83504D01*
X161453Y84002D01*
X160802Y84272D01*
X160097D01*
X159606Y84921D01*
X159569Y85010D01*
X159071Y85509D01*
X158420Y85779D01*
X157715D01*
X157064Y85509D01*
X156329Y85226D01*
X155678Y85496D01*
X154973D01*
X154322Y85226D01*
X153824Y84728D01*
X153594Y84172D01*
X153479Y84220D01*
Y82279D01*
X152479D01*
Y84220D01*
X151855Y83961D01*
X151297Y83403D01*
X151258Y83308D01*
X150787Y83214D01*
X150136Y83484D01*
X149431D01*
X148780Y83214D01*
X148282Y82716D01*
X148012Y82065D01*
Y81360D01*
X148282Y80709D01*
X148780Y80211D01*
X149431Y79941D01*
X149561D01*
Y78035D01*
X123931Y52405D01*
X118765D01*
X118239Y53192D01*
X118367Y53500D01*
X113633D01*
X113761Y53192D01*
X113234Y52405D01*
X69500D01*
X68962Y52298D01*
X68507Y51993D01*
X58176Y41663D01*
X57871Y41207D01*
X57764Y40669D01*
Y34291D01*
X57201D01*
X56481Y34196D01*
X55811Y33918D01*
X55235Y33477D01*
X54794Y32901D01*
X54577Y32379D01*
X54246Y32313D01*
X54093D01*
X53761Y32379D01*
X53545Y32901D01*
X53103Y33477D01*
X52528Y33918D01*
X51857Y34196D01*
X51138Y34291D01*
X49981D01*
Y35299D01*
X49886Y36019D01*
X49608Y36689D01*
X49166Y37265D01*
X37780Y48651D01*
Y78849D01*
X48651Y89720D01*
X49712D01*
X50083Y89350D01*
X50980Y88831D01*
X51982Y88563D01*
X53018D01*
X54020Y88831D01*
X54917Y89350D01*
X55650Y90083D01*
X56169Y90980D01*
X56437Y91982D01*
Y93018D01*
X56169Y94020D01*
X55650Y94917D01*
X54917Y95650D01*
X54020Y96169D01*
X53018Y96437D01*
X51982D01*
X50980Y96169D01*
X50083Y95650D01*
X49712Y95280D01*
X47500D01*
X46781Y95185D01*
X46110Y94907D01*
X45535Y94466D01*
X33035Y81966D01*
X32593Y81390D01*
X32315Y80719D01*
X32220Y80000D01*
Y47500D01*
X32315Y46781D01*
X32593Y46110D01*
X33035Y45535D01*
X44421Y34148D01*
Y32844D01*
X43634Y32687D01*
X43545Y32901D01*
X43103Y33477D01*
X42528Y33918D01*
X41857Y34196D01*
X41138Y34291D01*
X37201D01*
X36481Y34196D01*
X35811Y33918D01*
X35235Y33477D01*
X34793Y32901D01*
X34577Y32379D01*
X34246Y32313D01*
X34093D01*
X33761Y32379D01*
X33545Y32901D01*
X33103Y33477D01*
X32528Y33918D01*
X31857Y34196D01*
X31138Y34291D01*
X30280D01*
Y116349D01*
X48651Y134720D01*
X49712D01*
X50083Y134350D01*
X50980Y133831D01*
X51982Y133563D01*
X53018D01*
X54020Y133831D01*
X54917Y134350D01*
X55650Y135083D01*
X56169Y135980D01*
X56437Y136982D01*
Y138018D01*
X56169Y139020D01*
X55650Y139917D01*
X54917Y140650D01*
X54020Y141169D01*
X53018Y141437D01*
X51982D01*
X50980Y141169D01*
X50083Y140650D01*
X49712Y140280D01*
X47500D01*
X46781Y140185D01*
X46110Y139907D01*
X45535Y139465D01*
X25534Y119465D01*
X25093Y118890D01*
X24815Y118219D01*
X24720Y117500D01*
Y32724D01*
X24577Y32379D01*
X24246Y32313D01*
X24093D01*
X23761Y32379D01*
X23545Y32901D01*
X23103Y33477D01*
X22528Y33918D01*
X21857Y34196D01*
X21138Y34291D01*
X17201D01*
X16481Y34196D01*
X15811Y33918D01*
X15235Y33477D01*
X14794Y32901D01*
X14710Y32700D01*
X13858D01*
X13731Y33008D01*
X13255Y33628D01*
X12635Y34104D01*
X11913Y34403D01*
X11138Y34505D01*
X9669D01*
Y19700D01*
X9169D01*
Y19200D01*
X4207D01*
Y19003D01*
X1020D01*
X1020Y367731D01*
Y369109D01*
X1379Y371842D01*
X2093Y374505D01*
X3148Y377051D01*
X4526Y379438D01*
X6204Y381626D01*
X8153Y383575D01*
X10340Y385253D01*
X12727Y386631D01*
X15274Y387686D01*
X17937Y388399D01*
X20670Y388759D01*
X206269D01*
X206277Y388761D01*
X206284Y388759D01*
X207655Y388779D01*
X210381Y388421D01*
D02*
G37*
G36*
X206079Y88084D02*
X205998Y88004D01*
X205728Y87352D01*
Y87291D01*
X204941Y86765D01*
X204874Y86793D01*
X204169D01*
X203518Y86523D01*
X203020Y86025D01*
X202750Y85374D01*
Y84669D01*
X203020Y84017D01*
X203518Y83519D01*
X203695Y83446D01*
Y61359D01*
X203801Y60821D01*
X204106Y60365D01*
X207764Y56707D01*
Y34291D01*
X207201D01*
X206481Y34196D01*
X205811Y33918D01*
X205235Y33477D01*
X204794Y32901D01*
X204577Y32379D01*
X204246Y32313D01*
X204093D01*
X203761Y32379D01*
X203545Y32901D01*
X203103Y33477D01*
X202528Y33918D01*
X201857Y34196D01*
X201138Y34291D01*
X200574D01*
Y73331D01*
X200467Y73868D01*
X200163Y74324D01*
X196363Y78124D01*
X196336Y78189D01*
X195838Y78687D01*
X195187Y78957D01*
X194482D01*
X193831Y78687D01*
X193332Y78189D01*
X193063Y77537D01*
Y76833D01*
X193332Y76182D01*
X193831Y75683D01*
X194482Y75413D01*
X195100D01*
X197764Y72749D01*
Y34291D01*
X197201D01*
X196481Y34196D01*
X195811Y33918D01*
X195235Y33477D01*
X194793Y32901D01*
X194577Y32379D01*
X194246Y32313D01*
X194093D01*
X193761Y32379D01*
X193545Y32901D01*
X193103Y33477D01*
X192528Y33918D01*
X191857Y34196D01*
X191138Y34291D01*
X190574D01*
Y69503D01*
X190715Y69644D01*
X190852D01*
X191504Y69914D01*
X192002Y70412D01*
X192272Y71063D01*
Y71768D01*
X192002Y72419D01*
X191504Y72918D01*
X190852Y73188D01*
X190148D01*
X189527Y72930D01*
X189473Y72925D01*
X188639Y73173D01*
X188502Y73504D01*
X188405Y73601D01*
Y78550D01*
X188660Y78932D01*
X188767Y79470D01*
Y85282D01*
X192357Y88872D01*
X205753D01*
X206079Y88084D01*
D02*
G37*
G36*
X186648Y70728D02*
X187090D01*
X187713Y70166D01*
X187764Y70085D01*
Y34291D01*
X187201D01*
X186481Y34196D01*
X185811Y33918D01*
X185235Y33477D01*
X184793Y32901D01*
X184577Y32379D01*
X184246Y32313D01*
X184093D01*
X183761Y32379D01*
X183545Y32901D01*
X183103Y33477D01*
X182528Y33918D01*
X181857Y34196D01*
X181138Y34291D01*
X180440D01*
Y36757D01*
X180601Y36998D01*
X180708Y37535D01*
Y63221D01*
X184994Y67507D01*
X185298Y67962D01*
X185405Y68500D01*
Y69399D01*
X185502Y69496D01*
X185772Y70148D01*
Y70239D01*
X186559Y70765D01*
X186648Y70728D01*
D02*
G37*
%LPC*%
G36*
X107000Y385941D02*
Y384500D01*
X108441D01*
X108182Y385124D01*
X107624Y385682D01*
X107000Y385941D01*
D02*
G37*
G36*
X106000D02*
X105376Y385682D01*
X104818Y385124D01*
X104559Y384500D01*
X106000D01*
Y385941D01*
D02*
G37*
G36*
X208000Y385441D02*
Y384000D01*
X209441D01*
X209182Y384624D01*
X208624Y385182D01*
X208000Y385441D01*
D02*
G37*
G36*
X207000D02*
X206376Y385182D01*
X205818Y384624D01*
X205559Y384000D01*
X207000D01*
Y385441D01*
D02*
G37*
G36*
X108441Y383500D02*
X107000D01*
Y382059D01*
X107624Y382318D01*
X108182Y382876D01*
X108441Y383500D01*
D02*
G37*
G36*
X106000D02*
X104559D01*
X104818Y382876D01*
X105376Y382318D01*
X106000Y382059D01*
Y383500D01*
D02*
G37*
G36*
X209441Y383000D02*
X208000D01*
Y381559D01*
X208624Y381818D01*
X209182Y382376D01*
X209441Y383000D01*
D02*
G37*
G36*
X207000D02*
X205559D01*
X205818Y382376D01*
X206376Y381818D01*
X207000Y381559D01*
Y383000D01*
D02*
G37*
G36*
X212518Y379437D02*
X211482D01*
X210868Y379272D01*
X203133D01*
X202518Y379437D01*
X201482D01*
X200868Y379272D01*
X193132D01*
X192518Y379437D01*
X191482D01*
X190867Y379272D01*
X183133D01*
X182518Y379437D01*
X181482D01*
X180868Y379272D01*
X173133D01*
X172518Y379437D01*
X171482D01*
X170868Y379272D01*
X163133D01*
X162518Y379437D01*
X161482D01*
X160868Y379272D01*
X153137D01*
X152522Y379437D01*
X151486D01*
X150871Y379272D01*
X143132D01*
X142518Y379437D01*
X141482D01*
X140867Y379272D01*
X133133D01*
X132518Y379437D01*
X131482D01*
X130868Y379272D01*
X123133D01*
X122518Y379437D01*
X121482D01*
X120868Y379272D01*
X113133D01*
X112518Y379437D01*
X111482D01*
X110868Y379272D01*
X103103D01*
X102518Y379429D01*
X101482D01*
X100480Y379161D01*
X99583Y378643D01*
X98850Y377909D01*
X98331Y377012D01*
X98063Y376010D01*
Y374974D01*
X98331Y373973D01*
X98850Y373075D01*
X99583Y372342D01*
X100480Y371823D01*
X101482Y371555D01*
X102518D01*
X103162Y371728D01*
X110868D01*
X111482Y371563D01*
X112518D01*
X113133Y371728D01*
X120868D01*
X121482Y371563D01*
X122518D01*
X123133Y371728D01*
X130868D01*
X131482Y371563D01*
X132518D01*
X133133Y371728D01*
X140867D01*
X141482Y371563D01*
X142518D01*
X143132Y371728D01*
X150871D01*
X151486Y371563D01*
X152522D01*
X153137Y371728D01*
X160868D01*
X161482Y371563D01*
X162518D01*
X163133Y371728D01*
X170868D01*
X171482Y371563D01*
X172518D01*
X173133Y371728D01*
X180868D01*
X181482Y371563D01*
X182518D01*
X183133Y371728D01*
X190867D01*
X191482Y371563D01*
X192518D01*
X193132Y371728D01*
X200868D01*
X201482Y371563D01*
X202518D01*
X203133Y371728D01*
X210868D01*
X211482Y371563D01*
X212518D01*
X213520Y371831D01*
X214417Y372350D01*
X215150Y373083D01*
X215669Y373980D01*
X215937Y374982D01*
Y376018D01*
X215669Y377020D01*
X215150Y377917D01*
X214417Y378650D01*
X213520Y379169D01*
X212518Y379437D01*
D02*
G37*
G36*
X87141Y382271D02*
X83598D01*
X82570Y382136D01*
X81612Y381739D01*
X80790Y381108D01*
X80159Y380286D01*
X79762Y379328D01*
X79627Y378300D01*
X79762Y377272D01*
X80159Y376314D01*
X80790Y375492D01*
X81612Y374861D01*
X82570Y374464D01*
X83598Y374329D01*
X87141D01*
X88169Y374464D01*
X89126Y374861D01*
X89949Y375492D01*
X90580Y376314D01*
X90977Y377272D01*
X91112Y378300D01*
X90977Y379328D01*
X90580Y380286D01*
X89949Y381108D01*
X89126Y381739D01*
X88169Y382136D01*
X87141Y382271D01*
D02*
G37*
G36*
X94000Y374441D02*
Y373000D01*
X95441D01*
X95182Y373624D01*
X94624Y374182D01*
X94000Y374441D01*
D02*
G37*
G36*
X93000D02*
X92376Y374182D01*
X91818Y373624D01*
X91559Y373000D01*
X93000D01*
Y374441D01*
D02*
G37*
G36*
X95441Y372000D02*
X94000D01*
Y370559D01*
X94624Y370818D01*
X95182Y371376D01*
X95441Y372000D01*
D02*
G37*
G36*
X93000D02*
X91559D01*
X91818Y371376D01*
X92376Y370818D01*
X93000Y370559D01*
Y372000D01*
D02*
G37*
G36*
X16000Y370441D02*
Y369000D01*
X17441D01*
X17182Y369624D01*
X16624Y370182D01*
X16000Y370441D01*
D02*
G37*
G36*
X15000D02*
X14376Y370182D01*
X13818Y369624D01*
X13559Y369000D01*
X15000D01*
Y370441D01*
D02*
G37*
G36*
X222500Y368941D02*
Y367500D01*
X223941D01*
X223682Y368124D01*
X223124Y368682D01*
X222500Y368941D01*
D02*
G37*
G36*
X221500D02*
X220876Y368682D01*
X220318Y368124D01*
X220059Y367500D01*
X221500D01*
Y368941D01*
D02*
G37*
G36*
X17441Y368000D02*
X16000D01*
Y366559D01*
X16624Y366818D01*
X17182Y367376D01*
X17441Y368000D01*
D02*
G37*
G36*
X15000D02*
X13559D01*
X13818Y367376D01*
X14376Y366818D01*
X15000Y366559D01*
Y368000D01*
D02*
G37*
G36*
X223941Y366500D02*
X222500D01*
Y365059D01*
X223124Y365318D01*
X223682Y365876D01*
X223941Y366500D01*
D02*
G37*
G36*
X221500D02*
X220059D01*
X220318Y365876D01*
X220876Y365318D01*
X221500Y365059D01*
Y366500D01*
D02*
G37*
G36*
X62500Y365941D02*
Y364500D01*
X63941D01*
X63682Y365124D01*
X63124Y365682D01*
X62500Y365941D01*
D02*
G37*
G36*
X61500D02*
X60876Y365682D01*
X60318Y365124D01*
X60059Y364500D01*
X61500D01*
Y365941D01*
D02*
G37*
G36*
X87141Y372271D02*
X83598D01*
X82570Y372136D01*
X81612Y371739D01*
X80790Y371108D01*
X80159Y370286D01*
X79762Y369328D01*
X79627Y368300D01*
X79762Y367272D01*
X80159Y366315D01*
X80790Y365492D01*
X81612Y364861D01*
X82570Y364464D01*
X83598Y364329D01*
X87141D01*
X88169Y364464D01*
X89126Y364861D01*
X89949Y365492D01*
X90580Y366315D01*
X90977Y367272D01*
X91112Y368300D01*
X90977Y369328D01*
X90580Y370286D01*
X89949Y371108D01*
X89126Y371739D01*
X88169Y372136D01*
X87141Y372271D01*
D02*
G37*
G36*
X63941Y363500D02*
X62500D01*
Y362059D01*
X63124Y362318D01*
X63682Y362876D01*
X63941Y363500D01*
D02*
G37*
G36*
X61500D02*
X60059D01*
X60318Y362876D01*
X60876Y362318D01*
X61500Y362059D01*
Y363500D01*
D02*
G37*
G36*
X212518Y369437D02*
X211482D01*
X210480Y369169D01*
X209583Y368650D01*
X208850Y367917D01*
X208331Y367020D01*
X208063Y366018D01*
Y364982D01*
X208331Y363980D01*
X208850Y363083D01*
X209583Y362350D01*
X210480Y361831D01*
X211482Y361563D01*
X212518D01*
X213520Y361831D01*
X214417Y362350D01*
X215150Y363083D01*
X215669Y363980D01*
X215937Y364982D01*
Y366018D01*
X215669Y367020D01*
X215150Y367917D01*
X214417Y368650D01*
X213520Y369169D01*
X212518Y369437D01*
D02*
G37*
G36*
X202518D02*
X201482D01*
X200480Y369169D01*
X199583Y368650D01*
X198850Y367917D01*
X198331Y367020D01*
X198063Y366018D01*
Y364982D01*
X198331Y363980D01*
X198850Y363083D01*
X199583Y362350D01*
X200480Y361831D01*
X201482Y361563D01*
X202518D01*
X203520Y361831D01*
X204417Y362350D01*
X205150Y363083D01*
X205669Y363980D01*
X205937Y364982D01*
Y366018D01*
X205669Y367020D01*
X205150Y367917D01*
X204417Y368650D01*
X203520Y369169D01*
X202518Y369437D01*
D02*
G37*
G36*
X192518D02*
X191482D01*
X190480Y369169D01*
X189583Y368650D01*
X188850Y367917D01*
X188331Y367020D01*
X188063Y366018D01*
Y364982D01*
X188331Y363980D01*
X188850Y363083D01*
X189583Y362350D01*
X190480Y361831D01*
X191482Y361563D01*
X192518D01*
X193520Y361831D01*
X194417Y362350D01*
X195150Y363083D01*
X195669Y363980D01*
X195937Y364982D01*
Y366018D01*
X195669Y367020D01*
X195150Y367917D01*
X194417Y368650D01*
X193520Y369169D01*
X192518Y369437D01*
D02*
G37*
G36*
X182518D02*
X181482D01*
X180480Y369169D01*
X179583Y368650D01*
X178850Y367917D01*
X178331Y367020D01*
X178063Y366018D01*
Y364982D01*
X178331Y363980D01*
X178850Y363083D01*
X179583Y362350D01*
X180480Y361831D01*
X181482Y361563D01*
X182518D01*
X183520Y361831D01*
X184417Y362350D01*
X185150Y363083D01*
X185669Y363980D01*
X185937Y364982D01*
Y366018D01*
X185669Y367020D01*
X185150Y367917D01*
X184417Y368650D01*
X183520Y369169D01*
X182518Y369437D01*
D02*
G37*
G36*
X172518D02*
X171482D01*
X170480Y369169D01*
X169583Y368650D01*
X168850Y367917D01*
X168331Y367020D01*
X168063Y366018D01*
Y364982D01*
X168331Y363980D01*
X168850Y363083D01*
X169583Y362350D01*
X170480Y361831D01*
X171482Y361563D01*
X172518D01*
X173520Y361831D01*
X174417Y362350D01*
X175150Y363083D01*
X175669Y363980D01*
X175937Y364982D01*
Y366018D01*
X175669Y367020D01*
X175150Y367917D01*
X174417Y368650D01*
X173520Y369169D01*
X172518Y369437D01*
D02*
G37*
G36*
X162518D02*
X161482D01*
X160480Y369169D01*
X159583Y368650D01*
X158850Y367917D01*
X158331Y367020D01*
X158063Y366018D01*
Y364982D01*
X158331Y363980D01*
X158850Y363083D01*
X159583Y362350D01*
X160480Y361831D01*
X161482Y361563D01*
X162518D01*
X163520Y361831D01*
X164417Y362350D01*
X165150Y363083D01*
X165669Y363980D01*
X165937Y364982D01*
Y366018D01*
X165669Y367020D01*
X165150Y367917D01*
X164417Y368650D01*
X163520Y369169D01*
X162518Y369437D01*
D02*
G37*
G36*
X152518D02*
X151482D01*
X150480Y369169D01*
X149583Y368650D01*
X148850Y367917D01*
X148331Y367020D01*
X148063Y366018D01*
Y364982D01*
X148331Y363980D01*
X148850Y363083D01*
X149583Y362350D01*
X150480Y361831D01*
X151482Y361563D01*
X152518D01*
X153520Y361831D01*
X154417Y362350D01*
X155150Y363083D01*
X155669Y363980D01*
X155937Y364982D01*
Y366018D01*
X155669Y367020D01*
X155150Y367917D01*
X154417Y368650D01*
X153520Y369169D01*
X152518Y369437D01*
D02*
G37*
G36*
X142518D02*
X141482D01*
X140480Y369169D01*
X139583Y368650D01*
X138850Y367917D01*
X138331Y367020D01*
X138063Y366018D01*
Y364982D01*
X138331Y363980D01*
X138850Y363083D01*
X139583Y362350D01*
X140480Y361831D01*
X141482Y361563D01*
X142518D01*
X143520Y361831D01*
X144417Y362350D01*
X145150Y363083D01*
X145669Y363980D01*
X145937Y364982D01*
Y366018D01*
X145669Y367020D01*
X145150Y367917D01*
X144417Y368650D01*
X143520Y369169D01*
X142518Y369437D01*
D02*
G37*
G36*
X132518D02*
X131482D01*
X130480Y369169D01*
X129583Y368650D01*
X128850Y367917D01*
X128331Y367020D01*
X128063Y366018D01*
Y364982D01*
X128331Y363980D01*
X128850Y363083D01*
X129583Y362350D01*
X130480Y361831D01*
X131482Y361563D01*
X132518D01*
X133520Y361831D01*
X134417Y362350D01*
X135150Y363083D01*
X135669Y363980D01*
X135937Y364982D01*
Y366018D01*
X135669Y367020D01*
X135150Y367917D01*
X134417Y368650D01*
X133520Y369169D01*
X132518Y369437D01*
D02*
G37*
G36*
X122518D02*
X121482D01*
X120480Y369169D01*
X119583Y368650D01*
X118850Y367917D01*
X118331Y367020D01*
X118063Y366018D01*
Y364982D01*
X118331Y363980D01*
X118850Y363083D01*
X119583Y362350D01*
X120480Y361831D01*
X121482Y361563D01*
X122518D01*
X123520Y361831D01*
X124417Y362350D01*
X125150Y363083D01*
X125669Y363980D01*
X125937Y364982D01*
Y366018D01*
X125669Y367020D01*
X125150Y367917D01*
X124417Y368650D01*
X123520Y369169D01*
X122518Y369437D01*
D02*
G37*
G36*
X112518D02*
X111482D01*
X110480Y369169D01*
X109583Y368650D01*
X108850Y367917D01*
X108331Y367020D01*
X108063Y366018D01*
Y364982D01*
X108331Y363980D01*
X108850Y363083D01*
X109583Y362350D01*
X110480Y361831D01*
X111482Y361563D01*
X112518D01*
X113520Y361831D01*
X114417Y362350D01*
X115150Y363083D01*
X115669Y363980D01*
X115937Y364982D01*
Y366018D01*
X115669Y367020D01*
X115150Y367917D01*
X114417Y368650D01*
X113520Y369169D01*
X112518Y369437D01*
D02*
G37*
G36*
X102518D02*
X101482D01*
X100480Y369169D01*
X99583Y368650D01*
X98850Y367917D01*
X98331Y367020D01*
X98063Y366018D01*
Y364982D01*
X98331Y363980D01*
X98850Y363083D01*
X99583Y362350D01*
X100480Y361831D01*
X101482Y361563D01*
X102518D01*
X103520Y361831D01*
X104417Y362350D01*
X105150Y363083D01*
X105669Y363980D01*
X105937Y364982D01*
Y366018D01*
X105669Y367020D01*
X105150Y367917D01*
X104417Y368650D01*
X103520Y369169D01*
X102518Y369437D01*
D02*
G37*
G36*
X87141Y362271D02*
X83598D01*
X82570Y362136D01*
X81612Y361739D01*
X80790Y361108D01*
X80159Y360285D01*
X79762Y359328D01*
X79627Y358300D01*
X79762Y357272D01*
X80159Y356314D01*
X80790Y355492D01*
X81612Y354861D01*
X82570Y354464D01*
X83598Y354329D01*
X87141D01*
X88169Y354464D01*
X89126Y354861D01*
X89949Y355492D01*
X90580Y356314D01*
X90977Y357272D01*
X91112Y358300D01*
X90977Y359328D01*
X90580Y360285D01*
X89949Y361108D01*
X89126Y361739D01*
X88169Y362136D01*
X87141Y362271D01*
D02*
G37*
G36*
X212518Y359437D02*
X211482D01*
X210480Y359169D01*
X209583Y358650D01*
X208850Y357917D01*
X208331Y357020D01*
X208063Y356018D01*
Y354982D01*
X208331Y353980D01*
X208850Y353083D01*
X209583Y352350D01*
X210480Y351831D01*
X211482Y351563D01*
X212518D01*
X213520Y351831D01*
X214417Y352350D01*
X215150Y353083D01*
X215669Y353980D01*
X215937Y354982D01*
Y356018D01*
X215669Y357020D01*
X215150Y357917D01*
X214417Y358650D01*
X213520Y359169D01*
X212518Y359437D01*
D02*
G37*
G36*
X202518D02*
X201482D01*
X200480Y359169D01*
X199583Y358650D01*
X198850Y357917D01*
X198331Y357020D01*
X198063Y356018D01*
Y354982D01*
X198331Y353980D01*
X198850Y353083D01*
X199583Y352350D01*
X200480Y351831D01*
X201482Y351563D01*
X202518D01*
X203520Y351831D01*
X204417Y352350D01*
X205150Y353083D01*
X205669Y353980D01*
X205937Y354982D01*
Y356018D01*
X205669Y357020D01*
X205150Y357917D01*
X204417Y358650D01*
X203520Y359169D01*
X202518Y359437D01*
D02*
G37*
G36*
X192518D02*
X191482D01*
X190480Y359169D01*
X189583Y358650D01*
X188850Y357917D01*
X188331Y357020D01*
X188063Y356018D01*
Y354982D01*
X188331Y353980D01*
X188850Y353083D01*
X189583Y352350D01*
X190480Y351831D01*
X191482Y351563D01*
X192518D01*
X193520Y351831D01*
X194417Y352350D01*
X195150Y353083D01*
X195669Y353980D01*
X195937Y354982D01*
Y356018D01*
X195669Y357020D01*
X195150Y357917D01*
X194417Y358650D01*
X193520Y359169D01*
X192518Y359437D01*
D02*
G37*
G36*
X182518D02*
X181482D01*
X180480Y359169D01*
X179583Y358650D01*
X178850Y357917D01*
X178331Y357020D01*
X178063Y356018D01*
Y354982D01*
X178331Y353980D01*
X178850Y353083D01*
X179583Y352350D01*
X180480Y351831D01*
X181482Y351563D01*
X182518D01*
X183520Y351831D01*
X184417Y352350D01*
X185150Y353083D01*
X185669Y353980D01*
X185937Y354982D01*
Y356018D01*
X185669Y357020D01*
X185150Y357917D01*
X184417Y358650D01*
X183520Y359169D01*
X182518Y359437D01*
D02*
G37*
G36*
X172518D02*
X171482D01*
X170480Y359169D01*
X169583Y358650D01*
X168850Y357917D01*
X168331Y357020D01*
X168063Y356018D01*
Y354982D01*
X168331Y353980D01*
X168850Y353083D01*
X169583Y352350D01*
X170480Y351831D01*
X171482Y351563D01*
X172518D01*
X173520Y351831D01*
X174417Y352350D01*
X175150Y353083D01*
X175669Y353980D01*
X175937Y354982D01*
Y356018D01*
X175669Y357020D01*
X175150Y357917D01*
X174417Y358650D01*
X173520Y359169D01*
X172518Y359437D01*
D02*
G37*
G36*
X162518D02*
X161482D01*
X160480Y359169D01*
X159583Y358650D01*
X158850Y357917D01*
X158331Y357020D01*
X158063Y356018D01*
Y354982D01*
X158331Y353980D01*
X158850Y353083D01*
X159583Y352350D01*
X160480Y351831D01*
X161482Y351563D01*
X162518D01*
X163520Y351831D01*
X164417Y352350D01*
X165150Y353083D01*
X165669Y353980D01*
X165937Y354982D01*
Y356018D01*
X165669Y357020D01*
X165150Y357917D01*
X164417Y358650D01*
X163520Y359169D01*
X162518Y359437D01*
D02*
G37*
G36*
X152518D02*
X151482D01*
X150480Y359169D01*
X149583Y358650D01*
X148850Y357917D01*
X148331Y357020D01*
X148063Y356018D01*
Y354982D01*
X148331Y353980D01*
X148850Y353083D01*
X149583Y352350D01*
X150480Y351831D01*
X151482Y351563D01*
X152518D01*
X153520Y351831D01*
X154417Y352350D01*
X155150Y353083D01*
X155669Y353980D01*
X155937Y354982D01*
Y356018D01*
X155669Y357020D01*
X155150Y357917D01*
X154417Y358650D01*
X153520Y359169D01*
X152518Y359437D01*
D02*
G37*
G36*
X142518D02*
X141482D01*
X140480Y359169D01*
X139583Y358650D01*
X138850Y357917D01*
X138331Y357020D01*
X138063Y356018D01*
Y354982D01*
X138331Y353980D01*
X138850Y353083D01*
X139583Y352350D01*
X140480Y351831D01*
X141482Y351563D01*
X142518D01*
X143520Y351831D01*
X144417Y352350D01*
X145150Y353083D01*
X145669Y353980D01*
X145937Y354982D01*
Y356018D01*
X145669Y357020D01*
X145150Y357917D01*
X144417Y358650D01*
X143520Y359169D01*
X142518Y359437D01*
D02*
G37*
G36*
X132518D02*
X131482D01*
X130480Y359169D01*
X129583Y358650D01*
X128850Y357917D01*
X128331Y357020D01*
X128063Y356018D01*
Y354982D01*
X128331Y353980D01*
X128850Y353083D01*
X129583Y352350D01*
X130480Y351831D01*
X131482Y351563D01*
X132518D01*
X133520Y351831D01*
X134417Y352350D01*
X135150Y353083D01*
X135669Y353980D01*
X135937Y354982D01*
Y356018D01*
X135669Y357020D01*
X135150Y357917D01*
X134417Y358650D01*
X133520Y359169D01*
X132518Y359437D01*
D02*
G37*
G36*
X122518D02*
X121482D01*
X120480Y359169D01*
X119583Y358650D01*
X118850Y357917D01*
X118331Y357020D01*
X118063Y356018D01*
Y354982D01*
X118331Y353980D01*
X118850Y353083D01*
X119583Y352350D01*
X120480Y351831D01*
X121482Y351563D01*
X122518D01*
X123520Y351831D01*
X124417Y352350D01*
X125150Y353083D01*
X125669Y353980D01*
X125937Y354982D01*
Y356018D01*
X125669Y357020D01*
X125150Y357917D01*
X124417Y358650D01*
X123520Y359169D01*
X122518Y359437D01*
D02*
G37*
G36*
X112518D02*
X111482D01*
X110480Y359169D01*
X109583Y358650D01*
X108850Y357917D01*
X108331Y357020D01*
X108063Y356018D01*
Y354982D01*
X108331Y353980D01*
X108850Y353083D01*
X109583Y352350D01*
X110480Y351831D01*
X111482Y351563D01*
X112518D01*
X113520Y351831D01*
X114417Y352350D01*
X115150Y353083D01*
X115669Y353980D01*
X115937Y354982D01*
Y356018D01*
X115669Y357020D01*
X115150Y357917D01*
X114417Y358650D01*
X113520Y359169D01*
X112518Y359437D01*
D02*
G37*
G36*
X102518D02*
X101482D01*
X100480Y359169D01*
X99583Y358650D01*
X98850Y357917D01*
X98331Y357020D01*
X98063Y356018D01*
Y354982D01*
X98331Y353980D01*
X98850Y353083D01*
X99583Y352350D01*
X100480Y351831D01*
X101482Y351563D01*
X102518D01*
X103520Y351831D01*
X104417Y352350D01*
X105150Y353083D01*
X105669Y353980D01*
X105937Y354982D01*
Y356018D01*
X105669Y357020D01*
X105150Y357917D01*
X104417Y358650D01*
X103520Y359169D01*
X102518Y359437D01*
D02*
G37*
G36*
X87141Y352271D02*
X83598D01*
X82570Y352136D01*
X81612Y351739D01*
X80790Y351108D01*
X80159Y350286D01*
X79762Y349328D01*
X79627Y348300D01*
X79762Y347272D01*
X80159Y346315D01*
X80790Y345492D01*
X81612Y344861D01*
X82570Y344464D01*
X83598Y344329D01*
X87141D01*
X88169Y344464D01*
X89126Y344861D01*
X89949Y345492D01*
X90580Y346315D01*
X90977Y347272D01*
X91112Y348300D01*
X90977Y349328D01*
X90580Y350286D01*
X89949Y351108D01*
X89126Y351739D01*
X88169Y352136D01*
X87141Y352271D01*
D02*
G37*
G36*
X212518Y349437D02*
X211482D01*
X210480Y349169D01*
X209583Y348650D01*
X208850Y347917D01*
X208331Y347020D01*
X208063Y346018D01*
Y344982D01*
X208331Y343980D01*
X208850Y343083D01*
X209583Y342350D01*
X210480Y341831D01*
X211482Y341563D01*
X212518D01*
X213520Y341831D01*
X214417Y342350D01*
X215150Y343083D01*
X215669Y343980D01*
X215937Y344982D01*
Y346018D01*
X215669Y347020D01*
X215150Y347917D01*
X214417Y348650D01*
X213520Y349169D01*
X212518Y349437D01*
D02*
G37*
G36*
X202518D02*
X201482D01*
X200480Y349169D01*
X199583Y348650D01*
X198850Y347917D01*
X198331Y347020D01*
X198063Y346018D01*
Y344982D01*
X198331Y343980D01*
X198850Y343083D01*
X199583Y342350D01*
X200480Y341831D01*
X201482Y341563D01*
X202518D01*
X203520Y341831D01*
X204417Y342350D01*
X205150Y343083D01*
X205669Y343980D01*
X205937Y344982D01*
Y346018D01*
X205669Y347020D01*
X205150Y347917D01*
X204417Y348650D01*
X203520Y349169D01*
X202518Y349437D01*
D02*
G37*
G36*
X192518D02*
X191482D01*
X190480Y349169D01*
X189583Y348650D01*
X188850Y347917D01*
X188331Y347020D01*
X188063Y346018D01*
Y344982D01*
X188331Y343980D01*
X188850Y343083D01*
X189583Y342350D01*
X190480Y341831D01*
X191482Y341563D01*
X192518D01*
X193520Y341831D01*
X194417Y342350D01*
X195150Y343083D01*
X195669Y343980D01*
X195937Y344982D01*
Y346018D01*
X195669Y347020D01*
X195150Y347917D01*
X194417Y348650D01*
X193520Y349169D01*
X192518Y349437D01*
D02*
G37*
G36*
X182518D02*
X181482D01*
X180480Y349169D01*
X179583Y348650D01*
X178850Y347917D01*
X178331Y347020D01*
X178063Y346018D01*
Y344982D01*
X178331Y343980D01*
X178850Y343083D01*
X179583Y342350D01*
X180480Y341831D01*
X181482Y341563D01*
X182518D01*
X183520Y341831D01*
X184417Y342350D01*
X185150Y343083D01*
X185669Y343980D01*
X185937Y344982D01*
Y346018D01*
X185669Y347020D01*
X185150Y347917D01*
X184417Y348650D01*
X183520Y349169D01*
X182518Y349437D01*
D02*
G37*
G36*
X172518D02*
X171482D01*
X170480Y349169D01*
X169583Y348650D01*
X168850Y347917D01*
X168331Y347020D01*
X168063Y346018D01*
Y344982D01*
X168331Y343980D01*
X168850Y343083D01*
X169583Y342350D01*
X170480Y341831D01*
X171482Y341563D01*
X172518D01*
X173520Y341831D01*
X174417Y342350D01*
X175150Y343083D01*
X175669Y343980D01*
X175937Y344982D01*
Y346018D01*
X175669Y347020D01*
X175150Y347917D01*
X174417Y348650D01*
X173520Y349169D01*
X172518Y349437D01*
D02*
G37*
G36*
X162518D02*
X161482D01*
X160480Y349169D01*
X159583Y348650D01*
X158850Y347917D01*
X158331Y347020D01*
X158063Y346018D01*
Y344982D01*
X158331Y343980D01*
X158850Y343083D01*
X159583Y342350D01*
X160480Y341831D01*
X161482Y341563D01*
X162518D01*
X163520Y341831D01*
X164417Y342350D01*
X165150Y343083D01*
X165669Y343980D01*
X165937Y344982D01*
Y346018D01*
X165669Y347020D01*
X165150Y347917D01*
X164417Y348650D01*
X163520Y349169D01*
X162518Y349437D01*
D02*
G37*
G36*
X152518D02*
X151482D01*
X150480Y349169D01*
X149583Y348650D01*
X148850Y347917D01*
X148331Y347020D01*
X148063Y346018D01*
Y344982D01*
X148331Y343980D01*
X148850Y343083D01*
X149583Y342350D01*
X150480Y341831D01*
X151482Y341563D01*
X152518D01*
X153520Y341831D01*
X154417Y342350D01*
X155150Y343083D01*
X155669Y343980D01*
X155937Y344982D01*
Y346018D01*
X155669Y347020D01*
X155150Y347917D01*
X154417Y348650D01*
X153520Y349169D01*
X152518Y349437D01*
D02*
G37*
G36*
X142518D02*
X141482D01*
X140480Y349169D01*
X139583Y348650D01*
X138850Y347917D01*
X138331Y347020D01*
X138063Y346018D01*
Y344982D01*
X138331Y343980D01*
X138850Y343083D01*
X139583Y342350D01*
X140480Y341831D01*
X141482Y341563D01*
X142518D01*
X143520Y341831D01*
X144417Y342350D01*
X145150Y343083D01*
X145669Y343980D01*
X145937Y344982D01*
Y346018D01*
X145669Y347020D01*
X145150Y347917D01*
X144417Y348650D01*
X143520Y349169D01*
X142518Y349437D01*
D02*
G37*
G36*
X132518D02*
X131482D01*
X130480Y349169D01*
X129583Y348650D01*
X128850Y347917D01*
X128331Y347020D01*
X128063Y346018D01*
Y344982D01*
X128331Y343980D01*
X128850Y343083D01*
X129583Y342350D01*
X130480Y341831D01*
X131482Y341563D01*
X132518D01*
X133520Y341831D01*
X134417Y342350D01*
X135150Y343083D01*
X135669Y343980D01*
X135937Y344982D01*
Y346018D01*
X135669Y347020D01*
X135150Y347917D01*
X134417Y348650D01*
X133520Y349169D01*
X132518Y349437D01*
D02*
G37*
G36*
X122518D02*
X121482D01*
X120480Y349169D01*
X119583Y348650D01*
X118850Y347917D01*
X118331Y347020D01*
X118063Y346018D01*
Y344982D01*
X118331Y343980D01*
X118850Y343083D01*
X119583Y342350D01*
X120480Y341831D01*
X121482Y341563D01*
X122518D01*
X123520Y341831D01*
X124417Y342350D01*
X125150Y343083D01*
X125669Y343980D01*
X125937Y344982D01*
Y346018D01*
X125669Y347020D01*
X125150Y347917D01*
X124417Y348650D01*
X123520Y349169D01*
X122518Y349437D01*
D02*
G37*
G36*
X112518D02*
X111482D01*
X110480Y349169D01*
X109583Y348650D01*
X108850Y347917D01*
X108331Y347020D01*
X108063Y346018D01*
Y344982D01*
X108331Y343980D01*
X108850Y343083D01*
X109583Y342350D01*
X110480Y341831D01*
X111482Y341563D01*
X112518D01*
X113520Y341831D01*
X114417Y342350D01*
X115150Y343083D01*
X115669Y343980D01*
X115937Y344982D01*
Y346018D01*
X115669Y347020D01*
X115150Y347917D01*
X114417Y348650D01*
X113520Y349169D01*
X112518Y349437D01*
D02*
G37*
G36*
X102518D02*
X101482D01*
X100480Y349169D01*
X99583Y348650D01*
X98850Y347917D01*
X98331Y347020D01*
X98063Y346018D01*
Y344982D01*
X98331Y343980D01*
X98850Y343083D01*
X99583Y342350D01*
X100480Y341831D01*
X101482Y341563D01*
X102518D01*
X103520Y341831D01*
X104417Y342350D01*
X105150Y343083D01*
X105669Y343980D01*
X105937Y344982D01*
Y346018D01*
X105669Y347020D01*
X105150Y347917D01*
X104417Y348650D01*
X103520Y349169D01*
X102518Y349437D01*
D02*
G37*
G36*
X212518Y339437D02*
X211482D01*
X210480Y339169D01*
X209583Y338650D01*
X208850Y337917D01*
X208331Y337020D01*
X208063Y336018D01*
Y334982D01*
X208331Y333980D01*
X208850Y333083D01*
X209583Y332350D01*
X210480Y331831D01*
X211482Y331563D01*
X212518D01*
X213520Y331831D01*
X214417Y332350D01*
X215150Y333083D01*
X215669Y333980D01*
X215937Y334982D01*
Y336018D01*
X215669Y337020D01*
X215150Y337917D01*
X214417Y338650D01*
X213520Y339169D01*
X212518Y339437D01*
D02*
G37*
G36*
X202518D02*
X201482D01*
X200480Y339169D01*
X199583Y338650D01*
X198850Y337917D01*
X198331Y337020D01*
X198063Y336018D01*
Y334982D01*
X198331Y333980D01*
X198850Y333083D01*
X199583Y332350D01*
X200480Y331831D01*
X201482Y331563D01*
X202518D01*
X203520Y331831D01*
X204417Y332350D01*
X205150Y333083D01*
X205669Y333980D01*
X205937Y334982D01*
Y336018D01*
X205669Y337020D01*
X205150Y337917D01*
X204417Y338650D01*
X203520Y339169D01*
X202518Y339437D01*
D02*
G37*
G36*
X192518D02*
X191482D01*
X190480Y339169D01*
X189583Y338650D01*
X188850Y337917D01*
X188331Y337020D01*
X188063Y336018D01*
Y334982D01*
X188331Y333980D01*
X188850Y333083D01*
X189583Y332350D01*
X190480Y331831D01*
X191482Y331563D01*
X192518D01*
X193520Y331831D01*
X194417Y332350D01*
X195150Y333083D01*
X195669Y333980D01*
X195937Y334982D01*
Y336018D01*
X195669Y337020D01*
X195150Y337917D01*
X194417Y338650D01*
X193520Y339169D01*
X192518Y339437D01*
D02*
G37*
G36*
X182518D02*
X181482D01*
X180480Y339169D01*
X179583Y338650D01*
X178850Y337917D01*
X178331Y337020D01*
X178063Y336018D01*
Y334982D01*
X178331Y333980D01*
X178850Y333083D01*
X179583Y332350D01*
X180480Y331831D01*
X181482Y331563D01*
X182518D01*
X183520Y331831D01*
X184417Y332350D01*
X185150Y333083D01*
X185669Y333980D01*
X185937Y334982D01*
Y336018D01*
X185669Y337020D01*
X185150Y337917D01*
X184417Y338650D01*
X183520Y339169D01*
X182518Y339437D01*
D02*
G37*
G36*
X172518D02*
X171482D01*
X170480Y339169D01*
X169583Y338650D01*
X168850Y337917D01*
X168331Y337020D01*
X168063Y336018D01*
Y334982D01*
X168331Y333980D01*
X168850Y333083D01*
X169583Y332350D01*
X170480Y331831D01*
X171482Y331563D01*
X172518D01*
X173520Y331831D01*
X174417Y332350D01*
X175150Y333083D01*
X175669Y333980D01*
X175937Y334982D01*
Y336018D01*
X175669Y337020D01*
X175150Y337917D01*
X174417Y338650D01*
X173520Y339169D01*
X172518Y339437D01*
D02*
G37*
G36*
X162518D02*
X161482D01*
X160480Y339169D01*
X159583Y338650D01*
X158850Y337917D01*
X158331Y337020D01*
X158063Y336018D01*
Y334982D01*
X158331Y333980D01*
X158850Y333083D01*
X159583Y332350D01*
X160480Y331831D01*
X161482Y331563D01*
X162518D01*
X163520Y331831D01*
X164417Y332350D01*
X165150Y333083D01*
X165669Y333980D01*
X165937Y334982D01*
Y336018D01*
X165669Y337020D01*
X165150Y337917D01*
X164417Y338650D01*
X163520Y339169D01*
X162518Y339437D01*
D02*
G37*
G36*
X152518D02*
X151482D01*
X150480Y339169D01*
X149583Y338650D01*
X148850Y337917D01*
X148331Y337020D01*
X148063Y336018D01*
Y334982D01*
X148331Y333980D01*
X148850Y333083D01*
X149583Y332350D01*
X150480Y331831D01*
X151482Y331563D01*
X152518D01*
X153520Y331831D01*
X154417Y332350D01*
X155150Y333083D01*
X155669Y333980D01*
X155937Y334982D01*
Y336018D01*
X155669Y337020D01*
X155150Y337917D01*
X154417Y338650D01*
X153520Y339169D01*
X152518Y339437D01*
D02*
G37*
G36*
X142518D02*
X141482D01*
X140480Y339169D01*
X139583Y338650D01*
X138850Y337917D01*
X138331Y337020D01*
X138063Y336018D01*
Y334982D01*
X138331Y333980D01*
X138850Y333083D01*
X139583Y332350D01*
X140480Y331831D01*
X141482Y331563D01*
X142518D01*
X143520Y331831D01*
X144417Y332350D01*
X145150Y333083D01*
X145669Y333980D01*
X145937Y334982D01*
Y336018D01*
X145669Y337020D01*
X145150Y337917D01*
X144417Y338650D01*
X143520Y339169D01*
X142518Y339437D01*
D02*
G37*
G36*
X132518D02*
X131482D01*
X130480Y339169D01*
X129583Y338650D01*
X128850Y337917D01*
X128331Y337020D01*
X128063Y336018D01*
Y334982D01*
X128331Y333980D01*
X128850Y333083D01*
X129583Y332350D01*
X130480Y331831D01*
X131482Y331563D01*
X132518D01*
X133520Y331831D01*
X134417Y332350D01*
X135150Y333083D01*
X135669Y333980D01*
X135937Y334982D01*
Y336018D01*
X135669Y337020D01*
X135150Y337917D01*
X134417Y338650D01*
X133520Y339169D01*
X132518Y339437D01*
D02*
G37*
G36*
X122518D02*
X121482D01*
X120480Y339169D01*
X119583Y338650D01*
X118850Y337917D01*
X118331Y337020D01*
X118063Y336018D01*
Y334982D01*
X118331Y333980D01*
X118850Y333083D01*
X119583Y332350D01*
X120480Y331831D01*
X121482Y331563D01*
X122518D01*
X123520Y331831D01*
X124417Y332350D01*
X125150Y333083D01*
X125669Y333980D01*
X125937Y334982D01*
Y336018D01*
X125669Y337020D01*
X125150Y337917D01*
X124417Y338650D01*
X123520Y339169D01*
X122518Y339437D01*
D02*
G37*
G36*
X112518D02*
X111482D01*
X110480Y339169D01*
X109583Y338650D01*
X108850Y337917D01*
X108331Y337020D01*
X108063Y336018D01*
Y334982D01*
X108331Y333980D01*
X108850Y333083D01*
X109583Y332350D01*
X110480Y331831D01*
X111482Y331563D01*
X112518D01*
X113520Y331831D01*
X114417Y332350D01*
X115150Y333083D01*
X115669Y333980D01*
X115937Y334982D01*
Y336018D01*
X115669Y337020D01*
X115150Y337917D01*
X114417Y338650D01*
X113520Y339169D01*
X112518Y339437D01*
D02*
G37*
G36*
X102518D02*
X101482D01*
X100480Y339169D01*
X99583Y338650D01*
X98850Y337917D01*
X98331Y337020D01*
X98063Y336018D01*
Y334982D01*
X98331Y333980D01*
X98850Y333083D01*
X99583Y332350D01*
X100480Y331831D01*
X101482Y331563D01*
X102518D01*
X103520Y331831D01*
X104417Y332350D01*
X105150Y333083D01*
X105669Y333980D01*
X105937Y334982D01*
Y336018D01*
X105669Y337020D01*
X105150Y337917D01*
X104417Y338650D01*
X103520Y339169D01*
X102518Y339437D01*
D02*
G37*
G36*
X212518Y329437D02*
X211482D01*
X210480Y329169D01*
X209583Y328650D01*
X208850Y327917D01*
X208331Y327020D01*
X208063Y326018D01*
Y324982D01*
X208331Y323980D01*
X208850Y323083D01*
X209583Y322350D01*
X210480Y321831D01*
X211482Y321563D01*
X212518D01*
X213520Y321831D01*
X214417Y322350D01*
X215150Y323083D01*
X215669Y323980D01*
X215937Y324982D01*
Y326018D01*
X215669Y327020D01*
X215150Y327917D01*
X214417Y328650D01*
X213520Y329169D01*
X212518Y329437D01*
D02*
G37*
G36*
X202518D02*
X201482D01*
X200480Y329169D01*
X199583Y328650D01*
X198850Y327917D01*
X198331Y327020D01*
X198063Y326018D01*
Y324982D01*
X198331Y323980D01*
X198850Y323083D01*
X199583Y322350D01*
X200480Y321831D01*
X201482Y321563D01*
X202518D01*
X203520Y321831D01*
X204417Y322350D01*
X205150Y323083D01*
X205669Y323980D01*
X205937Y324982D01*
Y326018D01*
X205669Y327020D01*
X205150Y327917D01*
X204417Y328650D01*
X203520Y329169D01*
X202518Y329437D01*
D02*
G37*
G36*
X192518D02*
X191482D01*
X190480Y329169D01*
X189583Y328650D01*
X188850Y327917D01*
X188331Y327020D01*
X188063Y326018D01*
Y324982D01*
X188331Y323980D01*
X188850Y323083D01*
X189583Y322350D01*
X190480Y321831D01*
X191482Y321563D01*
X192518D01*
X193520Y321831D01*
X194417Y322350D01*
X195150Y323083D01*
X195669Y323980D01*
X195937Y324982D01*
Y326018D01*
X195669Y327020D01*
X195150Y327917D01*
X194417Y328650D01*
X193520Y329169D01*
X192518Y329437D01*
D02*
G37*
G36*
X182518D02*
X181482D01*
X180480Y329169D01*
X179583Y328650D01*
X178850Y327917D01*
X178331Y327020D01*
X178063Y326018D01*
Y324982D01*
X178331Y323980D01*
X178850Y323083D01*
X179583Y322350D01*
X180480Y321831D01*
X181482Y321563D01*
X182518D01*
X183520Y321831D01*
X184417Y322350D01*
X185150Y323083D01*
X185669Y323980D01*
X185937Y324982D01*
Y326018D01*
X185669Y327020D01*
X185150Y327917D01*
X184417Y328650D01*
X183520Y329169D01*
X182518Y329437D01*
D02*
G37*
G36*
X172518D02*
X171482D01*
X170480Y329169D01*
X169583Y328650D01*
X168850Y327917D01*
X168331Y327020D01*
X168063Y326018D01*
Y324982D01*
X168331Y323980D01*
X168850Y323083D01*
X169583Y322350D01*
X170480Y321831D01*
X171482Y321563D01*
X172518D01*
X173520Y321831D01*
X174417Y322350D01*
X175150Y323083D01*
X175669Y323980D01*
X175937Y324982D01*
Y326018D01*
X175669Y327020D01*
X175150Y327917D01*
X174417Y328650D01*
X173520Y329169D01*
X172518Y329437D01*
D02*
G37*
G36*
X162518D02*
X161482D01*
X160480Y329169D01*
X159583Y328650D01*
X158850Y327917D01*
X158331Y327020D01*
X158063Y326018D01*
Y324982D01*
X158331Y323980D01*
X158850Y323083D01*
X159583Y322350D01*
X160480Y321831D01*
X161482Y321563D01*
X162518D01*
X163520Y321831D01*
X164417Y322350D01*
X165150Y323083D01*
X165669Y323980D01*
X165937Y324982D01*
Y326018D01*
X165669Y327020D01*
X165150Y327917D01*
X164417Y328650D01*
X163520Y329169D01*
X162518Y329437D01*
D02*
G37*
G36*
X152518D02*
X151482D01*
X150480Y329169D01*
X149583Y328650D01*
X148850Y327917D01*
X148331Y327020D01*
X148063Y326018D01*
Y324982D01*
X148331Y323980D01*
X148850Y323083D01*
X149583Y322350D01*
X150480Y321831D01*
X151482Y321563D01*
X152518D01*
X153520Y321831D01*
X154417Y322350D01*
X155150Y323083D01*
X155669Y323980D01*
X155937Y324982D01*
Y326018D01*
X155669Y327020D01*
X155150Y327917D01*
X154417Y328650D01*
X153520Y329169D01*
X152518Y329437D01*
D02*
G37*
G36*
X142518D02*
X141482D01*
X140480Y329169D01*
X139583Y328650D01*
X138850Y327917D01*
X138331Y327020D01*
X138063Y326018D01*
Y324982D01*
X138331Y323980D01*
X138850Y323083D01*
X139583Y322350D01*
X140480Y321831D01*
X141482Y321563D01*
X142518D01*
X143520Y321831D01*
X144417Y322350D01*
X145150Y323083D01*
X145669Y323980D01*
X145937Y324982D01*
Y326018D01*
X145669Y327020D01*
X145150Y327917D01*
X144417Y328650D01*
X143520Y329169D01*
X142518Y329437D01*
D02*
G37*
G36*
X132518D02*
X131482D01*
X130480Y329169D01*
X129583Y328650D01*
X128850Y327917D01*
X128331Y327020D01*
X128063Y326018D01*
Y324982D01*
X128331Y323980D01*
X128850Y323083D01*
X129583Y322350D01*
X130480Y321831D01*
X131482Y321563D01*
X132518D01*
X133520Y321831D01*
X134417Y322350D01*
X135150Y323083D01*
X135669Y323980D01*
X135937Y324982D01*
Y326018D01*
X135669Y327020D01*
X135150Y327917D01*
X134417Y328650D01*
X133520Y329169D01*
X132518Y329437D01*
D02*
G37*
G36*
X122518D02*
X121482D01*
X120480Y329169D01*
X119583Y328650D01*
X118850Y327917D01*
X118331Y327020D01*
X118063Y326018D01*
Y324982D01*
X118331Y323980D01*
X118850Y323083D01*
X119583Y322350D01*
X120480Y321831D01*
X121482Y321563D01*
X122518D01*
X123520Y321831D01*
X124417Y322350D01*
X125150Y323083D01*
X125669Y323980D01*
X125937Y324982D01*
Y326018D01*
X125669Y327020D01*
X125150Y327917D01*
X124417Y328650D01*
X123520Y329169D01*
X122518Y329437D01*
D02*
G37*
G36*
X112518D02*
X111482D01*
X110480Y329169D01*
X109583Y328650D01*
X108850Y327917D01*
X108331Y327020D01*
X108063Y326018D01*
Y324982D01*
X108331Y323980D01*
X108850Y323083D01*
X109583Y322350D01*
X110480Y321831D01*
X111482Y321563D01*
X112518D01*
X113520Y321831D01*
X114417Y322350D01*
X115150Y323083D01*
X115669Y323980D01*
X115937Y324982D01*
Y326018D01*
X115669Y327020D01*
X115150Y327917D01*
X114417Y328650D01*
X113520Y329169D01*
X112518Y329437D01*
D02*
G37*
G36*
X102518D02*
X101482D01*
X100480Y329169D01*
X99583Y328650D01*
X98850Y327917D01*
X98331Y327020D01*
X98063Y326018D01*
Y324982D01*
X98331Y323980D01*
X98850Y323083D01*
X99583Y322350D01*
X100480Y321831D01*
X101482Y321563D01*
X102518D01*
X103520Y321831D01*
X104417Y322350D01*
X105150Y323083D01*
X105669Y323980D01*
X105937Y324982D01*
Y326018D01*
X105669Y327020D01*
X105150Y327917D01*
X104417Y328650D01*
X103520Y329169D01*
X102518Y329437D01*
D02*
G37*
G36*
X57500Y320441D02*
Y319000D01*
X58941D01*
X58682Y319624D01*
X58124Y320182D01*
X57500Y320441D01*
D02*
G37*
G36*
X49000D02*
Y319000D01*
X50441D01*
X50182Y319624D01*
X49624Y320182D01*
X49000Y320441D01*
D02*
G37*
G36*
X48000D02*
X47376Y320182D01*
X46818Y319624D01*
X46559Y319000D01*
X48000D01*
Y320441D01*
D02*
G37*
G36*
X58941Y318000D02*
X57500D01*
Y316559D01*
X58124Y316818D01*
X58682Y317376D01*
X58941Y318000D01*
D02*
G37*
G36*
X50441D02*
X49000D01*
Y316559D01*
X49624Y316818D01*
X50182Y317376D01*
X50441Y318000D01*
D02*
G37*
G36*
X48000D02*
X46559D01*
X46818Y317376D01*
X47376Y316818D01*
X48000Y316559D01*
Y318000D01*
D02*
G37*
G36*
X27141Y322271D02*
X23598D01*
X22570Y322136D01*
X21612Y321739D01*
X20790Y321108D01*
X20159Y320286D01*
X19762Y319328D01*
X19627Y318300D01*
X19762Y317272D01*
X20159Y316315D01*
X20790Y315492D01*
X21612Y314861D01*
X22570Y314464D01*
X23598Y314329D01*
X27141D01*
X28169Y314464D01*
X29126Y314861D01*
X29949Y315492D01*
X30580Y316315D01*
X30977Y317272D01*
X31112Y318300D01*
X30977Y319328D01*
X30580Y320286D01*
X29949Y321108D01*
X29126Y321739D01*
X28169Y322136D01*
X27141Y322271D01*
D02*
G37*
G36*
X212518Y319437D02*
X211482D01*
X210480Y319169D01*
X209583Y318650D01*
X208850Y317917D01*
X208331Y317020D01*
X208063Y316018D01*
Y314982D01*
X208331Y313980D01*
X208850Y313083D01*
X209583Y312350D01*
X210480Y311831D01*
X211482Y311563D01*
X212518D01*
X213520Y311831D01*
X214417Y312350D01*
X215150Y313083D01*
X215669Y313980D01*
X215937Y314982D01*
Y316018D01*
X215669Y317020D01*
X215150Y317917D01*
X214417Y318650D01*
X213520Y319169D01*
X212518Y319437D01*
D02*
G37*
G36*
X202518D02*
X201482D01*
X200480Y319169D01*
X199583Y318650D01*
X198850Y317917D01*
X198331Y317020D01*
X198063Y316018D01*
Y314982D01*
X198331Y313980D01*
X198850Y313083D01*
X199583Y312350D01*
X200480Y311831D01*
X201482Y311563D01*
X202518D01*
X203520Y311831D01*
X204417Y312350D01*
X205150Y313083D01*
X205669Y313980D01*
X205937Y314982D01*
Y316018D01*
X205669Y317020D01*
X205150Y317917D01*
X204417Y318650D01*
X203520Y319169D01*
X202518Y319437D01*
D02*
G37*
G36*
X192518D02*
X191482D01*
X190480Y319169D01*
X189583Y318650D01*
X188850Y317917D01*
X188331Y317020D01*
X188063Y316018D01*
Y314982D01*
X188331Y313980D01*
X188850Y313083D01*
X189583Y312350D01*
X190480Y311831D01*
X191482Y311563D01*
X192518D01*
X193520Y311831D01*
X194417Y312350D01*
X195150Y313083D01*
X195669Y313980D01*
X195937Y314982D01*
Y316018D01*
X195669Y317020D01*
X195150Y317917D01*
X194417Y318650D01*
X193520Y319169D01*
X192518Y319437D01*
D02*
G37*
G36*
X182518D02*
X181482D01*
X180480Y319169D01*
X179583Y318650D01*
X178850Y317917D01*
X178331Y317020D01*
X178063Y316018D01*
Y314982D01*
X178331Y313980D01*
X178850Y313083D01*
X179583Y312350D01*
X180480Y311831D01*
X181482Y311563D01*
X182518D01*
X183520Y311831D01*
X184417Y312350D01*
X185150Y313083D01*
X185669Y313980D01*
X185937Y314982D01*
Y316018D01*
X185669Y317020D01*
X185150Y317917D01*
X184417Y318650D01*
X183520Y319169D01*
X182518Y319437D01*
D02*
G37*
G36*
X172518D02*
X171482D01*
X170480Y319169D01*
X169583Y318650D01*
X168850Y317917D01*
X168331Y317020D01*
X168063Y316018D01*
Y314982D01*
X168331Y313980D01*
X168850Y313083D01*
X169583Y312350D01*
X170480Y311831D01*
X171482Y311563D01*
X172518D01*
X173520Y311831D01*
X174417Y312350D01*
X175150Y313083D01*
X175669Y313980D01*
X175937Y314982D01*
Y316018D01*
X175669Y317020D01*
X175150Y317917D01*
X174417Y318650D01*
X173520Y319169D01*
X172518Y319437D01*
D02*
G37*
G36*
X162518D02*
X161482D01*
X160480Y319169D01*
X159583Y318650D01*
X158850Y317917D01*
X158331Y317020D01*
X158063Y316018D01*
Y314982D01*
X158331Y313980D01*
X158850Y313083D01*
X159583Y312350D01*
X160480Y311831D01*
X161482Y311563D01*
X162518D01*
X163520Y311831D01*
X164417Y312350D01*
X165150Y313083D01*
X165669Y313980D01*
X165937Y314982D01*
Y316018D01*
X165669Y317020D01*
X165150Y317917D01*
X164417Y318650D01*
X163520Y319169D01*
X162518Y319437D01*
D02*
G37*
G36*
X152518D02*
X151482D01*
X150480Y319169D01*
X149583Y318650D01*
X148850Y317917D01*
X148331Y317020D01*
X148063Y316018D01*
Y314982D01*
X148331Y313980D01*
X148850Y313083D01*
X149583Y312350D01*
X150480Y311831D01*
X151482Y311563D01*
X152518D01*
X153520Y311831D01*
X154417Y312350D01*
X155150Y313083D01*
X155669Y313980D01*
X155937Y314982D01*
Y316018D01*
X155669Y317020D01*
X155150Y317917D01*
X154417Y318650D01*
X153520Y319169D01*
X152518Y319437D01*
D02*
G37*
G36*
X142518D02*
X141482D01*
X140480Y319169D01*
X139583Y318650D01*
X138850Y317917D01*
X138331Y317020D01*
X138063Y316018D01*
Y314982D01*
X138331Y313980D01*
X138850Y313083D01*
X139583Y312350D01*
X140480Y311831D01*
X141482Y311563D01*
X142518D01*
X143520Y311831D01*
X144417Y312350D01*
X145150Y313083D01*
X145669Y313980D01*
X145937Y314982D01*
Y316018D01*
X145669Y317020D01*
X145150Y317917D01*
X144417Y318650D01*
X143520Y319169D01*
X142518Y319437D01*
D02*
G37*
G36*
X132518D02*
X131482D01*
X130480Y319169D01*
X129583Y318650D01*
X128850Y317917D01*
X128331Y317020D01*
X128063Y316018D01*
Y314982D01*
X128331Y313980D01*
X128850Y313083D01*
X129583Y312350D01*
X130480Y311831D01*
X131482Y311563D01*
X132518D01*
X133520Y311831D01*
X134417Y312350D01*
X135150Y313083D01*
X135669Y313980D01*
X135937Y314982D01*
Y316018D01*
X135669Y317020D01*
X135150Y317917D01*
X134417Y318650D01*
X133520Y319169D01*
X132518Y319437D01*
D02*
G37*
G36*
X122518D02*
X121482D01*
X120480Y319169D01*
X119583Y318650D01*
X118850Y317917D01*
X118331Y317020D01*
X118063Y316018D01*
Y314982D01*
X118331Y313980D01*
X118850Y313083D01*
X119583Y312350D01*
X120480Y311831D01*
X121482Y311563D01*
X122518D01*
X123520Y311831D01*
X124417Y312350D01*
X125150Y313083D01*
X125669Y313980D01*
X125937Y314982D01*
Y316018D01*
X125669Y317020D01*
X125150Y317917D01*
X124417Y318650D01*
X123520Y319169D01*
X122518Y319437D01*
D02*
G37*
G36*
X112518D02*
X111482D01*
X110480Y319169D01*
X109583Y318650D01*
X108850Y317917D01*
X108331Y317020D01*
X108063Y316018D01*
Y314982D01*
X108331Y313980D01*
X108850Y313083D01*
X109583Y312350D01*
X110480Y311831D01*
X111482Y311563D01*
X112518D01*
X113520Y311831D01*
X114417Y312350D01*
X115150Y313083D01*
X115669Y313980D01*
X115937Y314982D01*
Y316018D01*
X115669Y317020D01*
X115150Y317917D01*
X114417Y318650D01*
X113520Y319169D01*
X112518Y319437D01*
D02*
G37*
G36*
X102518D02*
X101482D01*
X100480Y319169D01*
X99583Y318650D01*
X98850Y317917D01*
X98331Y317020D01*
X98063Y316018D01*
Y314982D01*
X98331Y313980D01*
X98850Y313083D01*
X99583Y312350D01*
X100480Y311831D01*
X101482Y311563D01*
X102518D01*
X103520Y311831D01*
X104417Y312350D01*
X105150Y313083D01*
X105669Y313980D01*
X105937Y314982D01*
Y316018D01*
X105669Y317020D01*
X105150Y317917D01*
X104417Y318650D01*
X103520Y319169D01*
X102518Y319437D01*
D02*
G37*
G36*
X60416Y310441D02*
Y309000D01*
X61856D01*
X61598Y309624D01*
X61040Y310182D01*
X60416Y310441D01*
D02*
G37*
G36*
X59416D02*
X58792Y310182D01*
X58233Y309624D01*
X57975Y309000D01*
X59416D01*
Y310441D01*
D02*
G37*
G36*
X61856Y308000D02*
X60416D01*
Y306559D01*
X61040Y306818D01*
X61598Y307376D01*
X61856Y308000D01*
D02*
G37*
G36*
X59416D02*
X57975D01*
X58233Y307376D01*
X58792Y306818D01*
X59416Y306559D01*
Y308000D01*
D02*
G37*
G36*
X27141Y312271D02*
X23598D01*
X22570Y312136D01*
X21612Y311739D01*
X20790Y311108D01*
X20159Y310285D01*
X19762Y309328D01*
X19627Y308300D01*
X19762Y307272D01*
X20159Y306314D01*
X20790Y305492D01*
X21612Y304861D01*
X22570Y304464D01*
X23598Y304329D01*
X27141D01*
X28169Y304464D01*
X29126Y304861D01*
X29949Y305492D01*
X30580Y306314D01*
X30977Y307272D01*
X31112Y308300D01*
X30977Y309328D01*
X30580Y310285D01*
X29949Y311108D01*
X29126Y311739D01*
X28169Y312136D01*
X27141Y312271D01*
D02*
G37*
G36*
X212518Y309437D02*
X211482D01*
X210480Y309169D01*
X209583Y308650D01*
X208850Y307917D01*
X208331Y307020D01*
X208063Y306018D01*
Y304982D01*
X208331Y303980D01*
X208850Y303083D01*
X209583Y302350D01*
X210480Y301831D01*
X211482Y301563D01*
X212518D01*
X213520Y301831D01*
X214417Y302350D01*
X215150Y303083D01*
X215669Y303980D01*
X215937Y304982D01*
Y306018D01*
X215669Y307020D01*
X215150Y307917D01*
X214417Y308650D01*
X213520Y309169D01*
X212518Y309437D01*
D02*
G37*
G36*
X202518D02*
X201482D01*
X200480Y309169D01*
X199583Y308650D01*
X198850Y307917D01*
X198331Y307020D01*
X198063Y306018D01*
Y304982D01*
X198331Y303980D01*
X198850Y303083D01*
X199583Y302350D01*
X200480Y301831D01*
X201482Y301563D01*
X202518D01*
X203520Y301831D01*
X204417Y302350D01*
X205150Y303083D01*
X205669Y303980D01*
X205937Y304982D01*
Y306018D01*
X205669Y307020D01*
X205150Y307917D01*
X204417Y308650D01*
X203520Y309169D01*
X202518Y309437D01*
D02*
G37*
G36*
X192518D02*
X191482D01*
X190480Y309169D01*
X189583Y308650D01*
X188850Y307917D01*
X188331Y307020D01*
X188063Y306018D01*
Y304982D01*
X188331Y303980D01*
X188850Y303083D01*
X189583Y302350D01*
X190480Y301831D01*
X191482Y301563D01*
X192518D01*
X193520Y301831D01*
X194417Y302350D01*
X195150Y303083D01*
X195669Y303980D01*
X195937Y304982D01*
Y306018D01*
X195669Y307020D01*
X195150Y307917D01*
X194417Y308650D01*
X193520Y309169D01*
X192518Y309437D01*
D02*
G37*
G36*
X182518D02*
X181482D01*
X180480Y309169D01*
X179583Y308650D01*
X178850Y307917D01*
X178331Y307020D01*
X178063Y306018D01*
Y304982D01*
X178331Y303980D01*
X178850Y303083D01*
X179583Y302350D01*
X180480Y301831D01*
X181482Y301563D01*
X182518D01*
X183520Y301831D01*
X184417Y302350D01*
X185150Y303083D01*
X185669Y303980D01*
X185937Y304982D01*
Y306018D01*
X185669Y307020D01*
X185150Y307917D01*
X184417Y308650D01*
X183520Y309169D01*
X182518Y309437D01*
D02*
G37*
G36*
X172518D02*
X171482D01*
X170480Y309169D01*
X169583Y308650D01*
X168850Y307917D01*
X168331Y307020D01*
X168063Y306018D01*
Y304982D01*
X168331Y303980D01*
X168850Y303083D01*
X169583Y302350D01*
X170480Y301831D01*
X171482Y301563D01*
X172518D01*
X173520Y301831D01*
X174417Y302350D01*
X175150Y303083D01*
X175669Y303980D01*
X175937Y304982D01*
Y306018D01*
X175669Y307020D01*
X175150Y307917D01*
X174417Y308650D01*
X173520Y309169D01*
X172518Y309437D01*
D02*
G37*
G36*
X162518D02*
X161482D01*
X160480Y309169D01*
X159583Y308650D01*
X158850Y307917D01*
X158331Y307020D01*
X158063Y306018D01*
Y304982D01*
X158331Y303980D01*
X158850Y303083D01*
X159583Y302350D01*
X160480Y301831D01*
X161482Y301563D01*
X162518D01*
X163520Y301831D01*
X164417Y302350D01*
X165150Y303083D01*
X165669Y303980D01*
X165937Y304982D01*
Y306018D01*
X165669Y307020D01*
X165150Y307917D01*
X164417Y308650D01*
X163520Y309169D01*
X162518Y309437D01*
D02*
G37*
G36*
X152518D02*
X151482D01*
X150480Y309169D01*
X149583Y308650D01*
X148850Y307917D01*
X148331Y307020D01*
X148063Y306018D01*
Y304982D01*
X148331Y303980D01*
X148850Y303083D01*
X149583Y302350D01*
X150480Y301831D01*
X151482Y301563D01*
X152518D01*
X153520Y301831D01*
X154417Y302350D01*
X155150Y303083D01*
X155669Y303980D01*
X155937Y304982D01*
Y306018D01*
X155669Y307020D01*
X155150Y307917D01*
X154417Y308650D01*
X153520Y309169D01*
X152518Y309437D01*
D02*
G37*
G36*
X142518D02*
X141482D01*
X140480Y309169D01*
X139583Y308650D01*
X138850Y307917D01*
X138331Y307020D01*
X138063Y306018D01*
Y304982D01*
X138331Y303980D01*
X138850Y303083D01*
X139583Y302350D01*
X140480Y301831D01*
X141482Y301563D01*
X142518D01*
X143520Y301831D01*
X144417Y302350D01*
X145150Y303083D01*
X145669Y303980D01*
X145937Y304982D01*
Y306018D01*
X145669Y307020D01*
X145150Y307917D01*
X144417Y308650D01*
X143520Y309169D01*
X142518Y309437D01*
D02*
G37*
G36*
X132518D02*
X131482D01*
X130480Y309169D01*
X129583Y308650D01*
X128850Y307917D01*
X128331Y307020D01*
X128063Y306018D01*
Y304982D01*
X128331Y303980D01*
X128850Y303083D01*
X129583Y302350D01*
X130480Y301831D01*
X131482Y301563D01*
X132518D01*
X133520Y301831D01*
X134417Y302350D01*
X135150Y303083D01*
X135669Y303980D01*
X135937Y304982D01*
Y306018D01*
X135669Y307020D01*
X135150Y307917D01*
X134417Y308650D01*
X133520Y309169D01*
X132518Y309437D01*
D02*
G37*
G36*
X122518D02*
X121482D01*
X120480Y309169D01*
X119583Y308650D01*
X118850Y307917D01*
X118331Y307020D01*
X118063Y306018D01*
Y304982D01*
X118331Y303980D01*
X118850Y303083D01*
X119583Y302350D01*
X120480Y301831D01*
X121482Y301563D01*
X122518D01*
X123520Y301831D01*
X124417Y302350D01*
X125150Y303083D01*
X125669Y303980D01*
X125937Y304982D01*
Y306018D01*
X125669Y307020D01*
X125150Y307917D01*
X124417Y308650D01*
X123520Y309169D01*
X122518Y309437D01*
D02*
G37*
G36*
X112518D02*
X111482D01*
X110480Y309169D01*
X109583Y308650D01*
X108850Y307917D01*
X108331Y307020D01*
X108063Y306018D01*
Y304982D01*
X108331Y303980D01*
X108850Y303083D01*
X109583Y302350D01*
X110480Y301831D01*
X111482Y301563D01*
X112518D01*
X113520Y301831D01*
X114417Y302350D01*
X115150Y303083D01*
X115669Y303980D01*
X115937Y304982D01*
Y306018D01*
X115669Y307020D01*
X115150Y307917D01*
X114417Y308650D01*
X113520Y309169D01*
X112518Y309437D01*
D02*
G37*
G36*
X102518D02*
X101482D01*
X100480Y309169D01*
X99583Y308650D01*
X98850Y307917D01*
X98331Y307020D01*
X98063Y306018D01*
Y304982D01*
X98331Y303980D01*
X98850Y303083D01*
X99583Y302350D01*
X100480Y301831D01*
X101482Y301563D01*
X102518D01*
X103520Y301831D01*
X104417Y302350D01*
X105150Y303083D01*
X105669Y303980D01*
X105937Y304982D01*
Y306018D01*
X105669Y307020D01*
X105150Y307917D01*
X104417Y308650D01*
X103520Y309169D01*
X102518Y309437D01*
D02*
G37*
G36*
X27141Y302485D02*
X25869D01*
Y298800D01*
X31261D01*
X31184Y299383D01*
X30766Y300393D01*
X30101Y301259D01*
X29234Y301925D01*
X28224Y302343D01*
X27141Y302485D01*
D02*
G37*
G36*
X24869D02*
X23598D01*
X22514Y302343D01*
X21505Y301925D01*
X20638Y301259D01*
X19973Y300393D01*
X19555Y299383D01*
X19478Y298800D01*
X24869D01*
Y302485D01*
D02*
G37*
G36*
X31261Y297800D02*
X25869D01*
Y294115D01*
X27141D01*
X28224Y294257D01*
X29234Y294675D01*
X30101Y295340D01*
X30766Y296207D01*
X31184Y297217D01*
X31261Y297800D01*
D02*
G37*
G36*
X24869D02*
X19478D01*
X19555Y297217D01*
X19973Y296207D01*
X20638Y295340D01*
X21505Y294675D01*
X22514Y294257D01*
X23598Y294115D01*
X24869D01*
Y297800D01*
D02*
G37*
G36*
X212518Y299437D02*
X211482D01*
X210480Y299169D01*
X209583Y298650D01*
X208850Y297917D01*
X208331Y297020D01*
X208063Y296018D01*
Y294982D01*
X208331Y293980D01*
X208850Y293083D01*
X209583Y292350D01*
X210480Y291831D01*
X211482Y291563D01*
X212518D01*
X213520Y291831D01*
X214417Y292350D01*
X215150Y293083D01*
X215669Y293980D01*
X215937Y294982D01*
Y296018D01*
X215669Y297020D01*
X215150Y297917D01*
X214417Y298650D01*
X213520Y299169D01*
X212518Y299437D01*
D02*
G37*
G36*
X202518D02*
X201482D01*
X200480Y299169D01*
X199583Y298650D01*
X198850Y297917D01*
X198331Y297020D01*
X198063Y296018D01*
Y294982D01*
X198331Y293980D01*
X198850Y293083D01*
X199583Y292350D01*
X200480Y291831D01*
X201482Y291563D01*
X202518D01*
X203520Y291831D01*
X204417Y292350D01*
X205150Y293083D01*
X205669Y293980D01*
X205937Y294982D01*
Y296018D01*
X205669Y297020D01*
X205150Y297917D01*
X204417Y298650D01*
X203520Y299169D01*
X202518Y299437D01*
D02*
G37*
G36*
X192518D02*
X191482D01*
X190480Y299169D01*
X189583Y298650D01*
X188850Y297917D01*
X188331Y297020D01*
X188063Y296018D01*
Y294982D01*
X188331Y293980D01*
X188850Y293083D01*
X189583Y292350D01*
X190480Y291831D01*
X191482Y291563D01*
X192518D01*
X193520Y291831D01*
X194417Y292350D01*
X195150Y293083D01*
X195669Y293980D01*
X195937Y294982D01*
Y296018D01*
X195669Y297020D01*
X195150Y297917D01*
X194417Y298650D01*
X193520Y299169D01*
X192518Y299437D01*
D02*
G37*
G36*
X182518D02*
X181482D01*
X180480Y299169D01*
X179583Y298650D01*
X178850Y297917D01*
X178331Y297020D01*
X178063Y296018D01*
Y294982D01*
X178331Y293980D01*
X178850Y293083D01*
X179583Y292350D01*
X180480Y291831D01*
X181482Y291563D01*
X182518D01*
X183520Y291831D01*
X184417Y292350D01*
X185150Y293083D01*
X185669Y293980D01*
X185937Y294982D01*
Y296018D01*
X185669Y297020D01*
X185150Y297917D01*
X184417Y298650D01*
X183520Y299169D01*
X182518Y299437D01*
D02*
G37*
G36*
X172518D02*
X171482D01*
X170480Y299169D01*
X169583Y298650D01*
X168850Y297917D01*
X168331Y297020D01*
X168063Y296018D01*
Y294982D01*
X168331Y293980D01*
X168850Y293083D01*
X169583Y292350D01*
X170480Y291831D01*
X171482Y291563D01*
X172518D01*
X173520Y291831D01*
X174417Y292350D01*
X175150Y293083D01*
X175669Y293980D01*
X175937Y294982D01*
Y296018D01*
X175669Y297020D01*
X175150Y297917D01*
X174417Y298650D01*
X173520Y299169D01*
X172518Y299437D01*
D02*
G37*
G36*
X162518D02*
X161482D01*
X160480Y299169D01*
X159583Y298650D01*
X158850Y297917D01*
X158331Y297020D01*
X158063Y296018D01*
Y294982D01*
X158331Y293980D01*
X158850Y293083D01*
X159583Y292350D01*
X160480Y291831D01*
X161482Y291563D01*
X162518D01*
X163520Y291831D01*
X164417Y292350D01*
X165150Y293083D01*
X165669Y293980D01*
X165937Y294982D01*
Y296018D01*
X165669Y297020D01*
X165150Y297917D01*
X164417Y298650D01*
X163520Y299169D01*
X162518Y299437D01*
D02*
G37*
G36*
X152518D02*
X151482D01*
X150480Y299169D01*
X149583Y298650D01*
X148850Y297917D01*
X148331Y297020D01*
X148063Y296018D01*
Y294982D01*
X148331Y293980D01*
X148850Y293083D01*
X149583Y292350D01*
X150480Y291831D01*
X151482Y291563D01*
X152518D01*
X153520Y291831D01*
X154417Y292350D01*
X155150Y293083D01*
X155669Y293980D01*
X155937Y294982D01*
Y296018D01*
X155669Y297020D01*
X155150Y297917D01*
X154417Y298650D01*
X153520Y299169D01*
X152518Y299437D01*
D02*
G37*
G36*
X142518D02*
X141482D01*
X140480Y299169D01*
X139583Y298650D01*
X138850Y297917D01*
X138331Y297020D01*
X138063Y296018D01*
Y294982D01*
X138331Y293980D01*
X138850Y293083D01*
X139583Y292350D01*
X140480Y291831D01*
X141482Y291563D01*
X142518D01*
X143520Y291831D01*
X144417Y292350D01*
X145150Y293083D01*
X145669Y293980D01*
X145937Y294982D01*
Y296018D01*
X145669Y297020D01*
X145150Y297917D01*
X144417Y298650D01*
X143520Y299169D01*
X142518Y299437D01*
D02*
G37*
G36*
X132518D02*
X131482D01*
X130480Y299169D01*
X129583Y298650D01*
X128850Y297917D01*
X128331Y297020D01*
X128063Y296018D01*
Y294982D01*
X128331Y293980D01*
X128850Y293083D01*
X129583Y292350D01*
X130480Y291831D01*
X131482Y291563D01*
X132518D01*
X133520Y291831D01*
X134417Y292350D01*
X135150Y293083D01*
X135669Y293980D01*
X135937Y294982D01*
Y296018D01*
X135669Y297020D01*
X135150Y297917D01*
X134417Y298650D01*
X133520Y299169D01*
X132518Y299437D01*
D02*
G37*
G36*
X122518D02*
X121482D01*
X120480Y299169D01*
X119583Y298650D01*
X118850Y297917D01*
X118331Y297020D01*
X118063Y296018D01*
Y294982D01*
X118331Y293980D01*
X118850Y293083D01*
X119583Y292350D01*
X120480Y291831D01*
X121482Y291563D01*
X122518D01*
X123520Y291831D01*
X124417Y292350D01*
X125150Y293083D01*
X125669Y293980D01*
X125937Y294982D01*
Y296018D01*
X125669Y297020D01*
X125150Y297917D01*
X124417Y298650D01*
X123520Y299169D01*
X122518Y299437D01*
D02*
G37*
G36*
X112518D02*
X111482D01*
X110480Y299169D01*
X109583Y298650D01*
X108850Y297917D01*
X108331Y297020D01*
X108063Y296018D01*
Y294982D01*
X108331Y293980D01*
X108850Y293083D01*
X109583Y292350D01*
X110480Y291831D01*
X111482Y291563D01*
X112518D01*
X113520Y291831D01*
X114417Y292350D01*
X115150Y293083D01*
X115669Y293980D01*
X115937Y294982D01*
Y296018D01*
X115669Y297020D01*
X115150Y297917D01*
X114417Y298650D01*
X113520Y299169D01*
X112518Y299437D01*
D02*
G37*
G36*
X102518D02*
X101482D01*
X100480Y299169D01*
X99583Y298650D01*
X98850Y297917D01*
X98331Y297020D01*
X98063Y296018D01*
Y294982D01*
X98331Y293980D01*
X98850Y293083D01*
X99583Y292350D01*
X100480Y291831D01*
X101482Y291563D01*
X102518D01*
X103520Y291831D01*
X104417Y292350D01*
X105150Y293083D01*
X105669Y293980D01*
X105937Y294982D01*
Y296018D01*
X105669Y297020D01*
X105150Y297917D01*
X104417Y298650D01*
X103520Y299169D01*
X102518Y299437D01*
D02*
G37*
G36*
X212518Y289437D02*
X211482D01*
X210480Y289169D01*
X209583Y288650D01*
X208850Y287917D01*
X208331Y287020D01*
X208063Y286018D01*
Y284982D01*
X208331Y283980D01*
X208850Y283083D01*
X209583Y282350D01*
X210480Y281831D01*
X211482Y281563D01*
X212518D01*
X213520Y281831D01*
X214417Y282350D01*
X215150Y283083D01*
X215669Y283980D01*
X215937Y284982D01*
Y286018D01*
X215669Y287020D01*
X215150Y287917D01*
X214417Y288650D01*
X213520Y289169D01*
X212518Y289437D01*
D02*
G37*
G36*
X202518D02*
X201482D01*
X200480Y289169D01*
X199583Y288650D01*
X198850Y287917D01*
X198331Y287020D01*
X198063Y286018D01*
Y284982D01*
X198331Y283980D01*
X198850Y283083D01*
X199583Y282350D01*
X200480Y281831D01*
X201482Y281563D01*
X202518D01*
X203520Y281831D01*
X204417Y282350D01*
X205150Y283083D01*
X205669Y283980D01*
X205937Y284982D01*
Y286018D01*
X205669Y287020D01*
X205150Y287917D01*
X204417Y288650D01*
X203520Y289169D01*
X202518Y289437D01*
D02*
G37*
G36*
X192518D02*
X191482D01*
X190480Y289169D01*
X189583Y288650D01*
X188850Y287917D01*
X188331Y287020D01*
X188063Y286018D01*
Y284982D01*
X188331Y283980D01*
X188850Y283083D01*
X189583Y282350D01*
X190480Y281831D01*
X191482Y281563D01*
X192518D01*
X193520Y281831D01*
X194417Y282350D01*
X195150Y283083D01*
X195669Y283980D01*
X195937Y284982D01*
Y286018D01*
X195669Y287020D01*
X195150Y287917D01*
X194417Y288650D01*
X193520Y289169D01*
X192518Y289437D01*
D02*
G37*
G36*
X182518D02*
X181482D01*
X180480Y289169D01*
X179583Y288650D01*
X178850Y287917D01*
X178331Y287020D01*
X178063Y286018D01*
Y284982D01*
X178331Y283980D01*
X178850Y283083D01*
X179583Y282350D01*
X180480Y281831D01*
X181482Y281563D01*
X182518D01*
X183520Y281831D01*
X184417Y282350D01*
X185150Y283083D01*
X185669Y283980D01*
X185937Y284982D01*
Y286018D01*
X185669Y287020D01*
X185150Y287917D01*
X184417Y288650D01*
X183520Y289169D01*
X182518Y289437D01*
D02*
G37*
G36*
X172518D02*
X171482D01*
X170480Y289169D01*
X169583Y288650D01*
X168850Y287917D01*
X168331Y287020D01*
X168063Y286018D01*
Y284982D01*
X168331Y283980D01*
X168850Y283083D01*
X169583Y282350D01*
X170480Y281831D01*
X171482Y281563D01*
X172518D01*
X173520Y281831D01*
X174417Y282350D01*
X175150Y283083D01*
X175669Y283980D01*
X175937Y284982D01*
Y286018D01*
X175669Y287020D01*
X175150Y287917D01*
X174417Y288650D01*
X173520Y289169D01*
X172518Y289437D01*
D02*
G37*
G36*
X162518D02*
X161482D01*
X160480Y289169D01*
X159583Y288650D01*
X158850Y287917D01*
X158331Y287020D01*
X158063Y286018D01*
Y284982D01*
X158331Y283980D01*
X158850Y283083D01*
X159583Y282350D01*
X160480Y281831D01*
X161482Y281563D01*
X162518D01*
X163520Y281831D01*
X164417Y282350D01*
X165150Y283083D01*
X165669Y283980D01*
X165937Y284982D01*
Y286018D01*
X165669Y287020D01*
X165150Y287917D01*
X164417Y288650D01*
X163520Y289169D01*
X162518Y289437D01*
D02*
G37*
G36*
X152518D02*
X151482D01*
X150480Y289169D01*
X149583Y288650D01*
X148850Y287917D01*
X148331Y287020D01*
X148063Y286018D01*
Y284982D01*
X148331Y283980D01*
X148850Y283083D01*
X149583Y282350D01*
X150480Y281831D01*
X151482Y281563D01*
X152518D01*
X153520Y281831D01*
X154417Y282350D01*
X155150Y283083D01*
X155669Y283980D01*
X155937Y284982D01*
Y286018D01*
X155669Y287020D01*
X155150Y287917D01*
X154417Y288650D01*
X153520Y289169D01*
X152518Y289437D01*
D02*
G37*
G36*
X142518D02*
X141482D01*
X140480Y289169D01*
X139583Y288650D01*
X138850Y287917D01*
X138331Y287020D01*
X138063Y286018D01*
Y284982D01*
X138331Y283980D01*
X138850Y283083D01*
X139583Y282350D01*
X140480Y281831D01*
X141482Y281563D01*
X142518D01*
X143520Y281831D01*
X144417Y282350D01*
X145150Y283083D01*
X145669Y283980D01*
X145937Y284982D01*
Y286018D01*
X145669Y287020D01*
X145150Y287917D01*
X144417Y288650D01*
X143520Y289169D01*
X142518Y289437D01*
D02*
G37*
G36*
X132518D02*
X131482D01*
X130480Y289169D01*
X129583Y288650D01*
X128850Y287917D01*
X128331Y287020D01*
X128063Y286018D01*
Y284982D01*
X128331Y283980D01*
X128850Y283083D01*
X129583Y282350D01*
X130480Y281831D01*
X131482Y281563D01*
X132518D01*
X133520Y281831D01*
X134417Y282350D01*
X135150Y283083D01*
X135669Y283980D01*
X135937Y284982D01*
Y286018D01*
X135669Y287020D01*
X135150Y287917D01*
X134417Y288650D01*
X133520Y289169D01*
X132518Y289437D01*
D02*
G37*
G36*
X122518D02*
X121482D01*
X120480Y289169D01*
X119583Y288650D01*
X118850Y287917D01*
X118331Y287020D01*
X118063Y286018D01*
Y284982D01*
X118331Y283980D01*
X118850Y283083D01*
X119583Y282350D01*
X120480Y281831D01*
X121482Y281563D01*
X122518D01*
X123520Y281831D01*
X124417Y282350D01*
X125150Y283083D01*
X125669Y283980D01*
X125937Y284982D01*
Y286018D01*
X125669Y287020D01*
X125150Y287917D01*
X124417Y288650D01*
X123520Y289169D01*
X122518Y289437D01*
D02*
G37*
G36*
X112518D02*
X111482D01*
X110480Y289169D01*
X109583Y288650D01*
X108850Y287917D01*
X108331Y287020D01*
X108063Y286018D01*
Y284982D01*
X108331Y283980D01*
X108850Y283083D01*
X109583Y282350D01*
X110480Y281831D01*
X111482Y281563D01*
X112518D01*
X113520Y281831D01*
X114417Y282350D01*
X115150Y283083D01*
X115669Y283980D01*
X115937Y284982D01*
Y286018D01*
X115669Y287020D01*
X115150Y287917D01*
X114417Y288650D01*
X113520Y289169D01*
X112518Y289437D01*
D02*
G37*
G36*
X102518D02*
X101482D01*
X100480Y289169D01*
X99583Y288650D01*
X98850Y287917D01*
X98331Y287020D01*
X98063Y286018D01*
Y284982D01*
X98331Y283980D01*
X98850Y283083D01*
X99583Y282350D01*
X100480Y281831D01*
X101482Y281563D01*
X102518D01*
X103520Y281831D01*
X104417Y282350D01*
X105150Y283083D01*
X105669Y283980D01*
X105937Y284982D01*
Y286018D01*
X105669Y287020D01*
X105150Y287917D01*
X104417Y288650D01*
X103520Y289169D01*
X102518Y289437D01*
D02*
G37*
G36*
X212518Y279437D02*
X211482D01*
X210480Y279169D01*
X209583Y278650D01*
X208850Y277917D01*
X208331Y277020D01*
X208063Y276018D01*
Y274982D01*
X208331Y273980D01*
X208850Y273083D01*
X209583Y272350D01*
X210480Y271831D01*
X211482Y271563D01*
X212518D01*
X213520Y271831D01*
X214417Y272350D01*
X215150Y273083D01*
X215669Y273980D01*
X215937Y274982D01*
Y276018D01*
X215669Y277020D01*
X215150Y277917D01*
X214417Y278650D01*
X213520Y279169D01*
X212518Y279437D01*
D02*
G37*
G36*
X202518D02*
X201482D01*
X200480Y279169D01*
X199583Y278650D01*
X198850Y277917D01*
X198331Y277020D01*
X198063Y276018D01*
Y274982D01*
X198331Y273980D01*
X198850Y273083D01*
X199583Y272350D01*
X200480Y271831D01*
X201482Y271563D01*
X202518D01*
X203520Y271831D01*
X204417Y272350D01*
X205150Y273083D01*
X205669Y273980D01*
X205937Y274982D01*
Y276018D01*
X205669Y277020D01*
X205150Y277917D01*
X204417Y278650D01*
X203520Y279169D01*
X202518Y279437D01*
D02*
G37*
G36*
X192518D02*
X191482D01*
X190480Y279169D01*
X189583Y278650D01*
X188850Y277917D01*
X188331Y277020D01*
X188063Y276018D01*
Y274982D01*
X188331Y273980D01*
X188850Y273083D01*
X189583Y272350D01*
X190480Y271831D01*
X191482Y271563D01*
X192518D01*
X193520Y271831D01*
X194417Y272350D01*
X195150Y273083D01*
X195669Y273980D01*
X195937Y274982D01*
Y276018D01*
X195669Y277020D01*
X195150Y277917D01*
X194417Y278650D01*
X193520Y279169D01*
X192518Y279437D01*
D02*
G37*
G36*
X182518D02*
X181482D01*
X180480Y279169D01*
X179583Y278650D01*
X178850Y277917D01*
X178331Y277020D01*
X178063Y276018D01*
Y274982D01*
X178331Y273980D01*
X178850Y273083D01*
X179583Y272350D01*
X180480Y271831D01*
X181482Y271563D01*
X182518D01*
X183520Y271831D01*
X184417Y272350D01*
X185150Y273083D01*
X185669Y273980D01*
X185937Y274982D01*
Y276018D01*
X185669Y277020D01*
X185150Y277917D01*
X184417Y278650D01*
X183520Y279169D01*
X182518Y279437D01*
D02*
G37*
G36*
X172518D02*
X171482D01*
X170480Y279169D01*
X169583Y278650D01*
X168850Y277917D01*
X168331Y277020D01*
X168063Y276018D01*
Y274982D01*
X168331Y273980D01*
X168850Y273083D01*
X169583Y272350D01*
X170480Y271831D01*
X171482Y271563D01*
X172518D01*
X173520Y271831D01*
X174417Y272350D01*
X175150Y273083D01*
X175669Y273980D01*
X175937Y274982D01*
Y276018D01*
X175669Y277020D01*
X175150Y277917D01*
X174417Y278650D01*
X173520Y279169D01*
X172518Y279437D01*
D02*
G37*
G36*
X162518D02*
X161482D01*
X160480Y279169D01*
X159583Y278650D01*
X158850Y277917D01*
X158331Y277020D01*
X158063Y276018D01*
Y274982D01*
X158331Y273980D01*
X158850Y273083D01*
X159583Y272350D01*
X160480Y271831D01*
X161482Y271563D01*
X162518D01*
X163520Y271831D01*
X164417Y272350D01*
X165150Y273083D01*
X165669Y273980D01*
X165937Y274982D01*
Y276018D01*
X165669Y277020D01*
X165150Y277917D01*
X164417Y278650D01*
X163520Y279169D01*
X162518Y279437D01*
D02*
G37*
G36*
X152518D02*
X151482D01*
X150480Y279169D01*
X149583Y278650D01*
X148850Y277917D01*
X148331Y277020D01*
X148063Y276018D01*
Y274982D01*
X148331Y273980D01*
X148850Y273083D01*
X149583Y272350D01*
X150480Y271831D01*
X151482Y271563D01*
X152518D01*
X153520Y271831D01*
X154417Y272350D01*
X155150Y273083D01*
X155669Y273980D01*
X155937Y274982D01*
Y276018D01*
X155669Y277020D01*
X155150Y277917D01*
X154417Y278650D01*
X153520Y279169D01*
X152518Y279437D01*
D02*
G37*
G36*
X142518D02*
X141482D01*
X140480Y279169D01*
X139583Y278650D01*
X138850Y277917D01*
X138331Y277020D01*
X138063Y276018D01*
Y274982D01*
X138331Y273980D01*
X138850Y273083D01*
X139583Y272350D01*
X140480Y271831D01*
X141482Y271563D01*
X142518D01*
X143520Y271831D01*
X144417Y272350D01*
X145150Y273083D01*
X145669Y273980D01*
X145937Y274982D01*
Y276018D01*
X145669Y277020D01*
X145150Y277917D01*
X144417Y278650D01*
X143520Y279169D01*
X142518Y279437D01*
D02*
G37*
G36*
X132518D02*
X131482D01*
X130480Y279169D01*
X129583Y278650D01*
X128850Y277917D01*
X128331Y277020D01*
X128063Y276018D01*
Y274982D01*
X128331Y273980D01*
X128850Y273083D01*
X129583Y272350D01*
X130480Y271831D01*
X131482Y271563D01*
X132518D01*
X133520Y271831D01*
X134417Y272350D01*
X135150Y273083D01*
X135669Y273980D01*
X135937Y274982D01*
Y276018D01*
X135669Y277020D01*
X135150Y277917D01*
X134417Y278650D01*
X133520Y279169D01*
X132518Y279437D01*
D02*
G37*
G36*
X122518D02*
X121482D01*
X120480Y279169D01*
X119583Y278650D01*
X118850Y277917D01*
X118331Y277020D01*
X118063Y276018D01*
Y274982D01*
X118331Y273980D01*
X118850Y273083D01*
X119583Y272350D01*
X120480Y271831D01*
X121482Y271563D01*
X122518D01*
X123520Y271831D01*
X124417Y272350D01*
X125150Y273083D01*
X125669Y273980D01*
X125937Y274982D01*
Y276018D01*
X125669Y277020D01*
X125150Y277917D01*
X124417Y278650D01*
X123520Y279169D01*
X122518Y279437D01*
D02*
G37*
G36*
X112518D02*
X111482D01*
X110480Y279169D01*
X109583Y278650D01*
X108850Y277917D01*
X108331Y277020D01*
X108063Y276018D01*
Y274982D01*
X108331Y273980D01*
X108850Y273083D01*
X109583Y272350D01*
X110480Y271831D01*
X111482Y271563D01*
X112518D01*
X113520Y271831D01*
X114417Y272350D01*
X115150Y273083D01*
X115669Y273980D01*
X115937Y274982D01*
Y276018D01*
X115669Y277020D01*
X115150Y277917D01*
X114417Y278650D01*
X113520Y279169D01*
X112518Y279437D01*
D02*
G37*
G36*
X102518D02*
X101482D01*
X100480Y279169D01*
X99583Y278650D01*
X98850Y277917D01*
X98331Y277020D01*
X98063Y276018D01*
Y274982D01*
X98331Y273980D01*
X98850Y273083D01*
X99583Y272350D01*
X100480Y271831D01*
X101482Y271563D01*
X102518D01*
X103520Y271831D01*
X104417Y272350D01*
X105150Y273083D01*
X105669Y273980D01*
X105937Y274982D01*
Y276018D01*
X105669Y277020D01*
X105150Y277917D01*
X104417Y278650D01*
X103520Y279169D01*
X102518Y279437D01*
D02*
G37*
G36*
X60416Y265941D02*
Y264500D01*
X61856D01*
X61598Y265124D01*
X61040Y265682D01*
X60416Y265941D01*
D02*
G37*
G36*
X59416D02*
X58792Y265682D01*
X58233Y265124D01*
X57975Y264500D01*
X59416D01*
Y265941D01*
D02*
G37*
G36*
X61856Y263500D02*
X60416D01*
Y262059D01*
X61040Y262318D01*
X61598Y262876D01*
X61856Y263500D01*
D02*
G37*
G36*
X59416D02*
X57975D01*
X58233Y262876D01*
X58792Y262318D01*
X59416Y262059D01*
Y263500D01*
D02*
G37*
G36*
X212518Y269437D02*
X211482D01*
X210480Y269169D01*
X209583Y268650D01*
X208850Y267917D01*
X208331Y267020D01*
X208063Y266018D01*
Y264982D01*
X208331Y263980D01*
X208850Y263083D01*
X209583Y262350D01*
X210480Y261831D01*
X211482Y261563D01*
X212518D01*
X213520Y261831D01*
X214417Y262350D01*
X215150Y263083D01*
X215669Y263980D01*
X215937Y264982D01*
Y266018D01*
X215669Y267020D01*
X215150Y267917D01*
X214417Y268650D01*
X213520Y269169D01*
X212518Y269437D01*
D02*
G37*
G36*
X202518D02*
X201482D01*
X200480Y269169D01*
X199583Y268650D01*
X198850Y267917D01*
X198331Y267020D01*
X198063Y266018D01*
Y264982D01*
X198331Y263980D01*
X198850Y263083D01*
X199583Y262350D01*
X200480Y261831D01*
X201482Y261563D01*
X202518D01*
X203520Y261831D01*
X204417Y262350D01*
X205150Y263083D01*
X205669Y263980D01*
X205937Y264982D01*
Y266018D01*
X205669Y267020D01*
X205150Y267917D01*
X204417Y268650D01*
X203520Y269169D01*
X202518Y269437D01*
D02*
G37*
G36*
X192518D02*
X191482D01*
X190480Y269169D01*
X189583Y268650D01*
X188850Y267917D01*
X188331Y267020D01*
X188063Y266018D01*
Y264982D01*
X188331Y263980D01*
X188850Y263083D01*
X189583Y262350D01*
X190480Y261831D01*
X191482Y261563D01*
X192518D01*
X193520Y261831D01*
X194417Y262350D01*
X195150Y263083D01*
X195669Y263980D01*
X195937Y264982D01*
Y266018D01*
X195669Y267020D01*
X195150Y267917D01*
X194417Y268650D01*
X193520Y269169D01*
X192518Y269437D01*
D02*
G37*
G36*
X182518D02*
X181482D01*
X180480Y269169D01*
X179583Y268650D01*
X178850Y267917D01*
X178331Y267020D01*
X178063Y266018D01*
Y264982D01*
X178331Y263980D01*
X178850Y263083D01*
X179583Y262350D01*
X180480Y261831D01*
X181482Y261563D01*
X182518D01*
X183520Y261831D01*
X184417Y262350D01*
X185150Y263083D01*
X185669Y263980D01*
X185937Y264982D01*
Y266018D01*
X185669Y267020D01*
X185150Y267917D01*
X184417Y268650D01*
X183520Y269169D01*
X182518Y269437D01*
D02*
G37*
G36*
X172518D02*
X171482D01*
X170480Y269169D01*
X169583Y268650D01*
X168850Y267917D01*
X168331Y267020D01*
X168063Y266018D01*
Y264982D01*
X168331Y263980D01*
X168850Y263083D01*
X169583Y262350D01*
X170480Y261831D01*
X171482Y261563D01*
X172518D01*
X173520Y261831D01*
X174417Y262350D01*
X175150Y263083D01*
X175669Y263980D01*
X175937Y264982D01*
Y266018D01*
X175669Y267020D01*
X175150Y267917D01*
X174417Y268650D01*
X173520Y269169D01*
X172518Y269437D01*
D02*
G37*
G36*
X162518D02*
X161482D01*
X160480Y269169D01*
X159583Y268650D01*
X158850Y267917D01*
X158331Y267020D01*
X158063Y266018D01*
Y264982D01*
X158331Y263980D01*
X158850Y263083D01*
X159583Y262350D01*
X160480Y261831D01*
X161482Y261563D01*
X162518D01*
X163520Y261831D01*
X164417Y262350D01*
X165150Y263083D01*
X165669Y263980D01*
X165937Y264982D01*
Y266018D01*
X165669Y267020D01*
X165150Y267917D01*
X164417Y268650D01*
X163520Y269169D01*
X162518Y269437D01*
D02*
G37*
G36*
X152518D02*
X151482D01*
X150480Y269169D01*
X149583Y268650D01*
X148850Y267917D01*
X148331Y267020D01*
X148063Y266018D01*
Y264982D01*
X148331Y263980D01*
X148850Y263083D01*
X149583Y262350D01*
X150480Y261831D01*
X151482Y261563D01*
X152518D01*
X153520Y261831D01*
X154417Y262350D01*
X155150Y263083D01*
X155669Y263980D01*
X155937Y264982D01*
Y266018D01*
X155669Y267020D01*
X155150Y267917D01*
X154417Y268650D01*
X153520Y269169D01*
X152518Y269437D01*
D02*
G37*
G36*
X142518D02*
X141482D01*
X140480Y269169D01*
X139583Y268650D01*
X138850Y267917D01*
X138331Y267020D01*
X138063Y266018D01*
Y264982D01*
X138331Y263980D01*
X138850Y263083D01*
X139583Y262350D01*
X140480Y261831D01*
X141482Y261563D01*
X142518D01*
X143520Y261831D01*
X144417Y262350D01*
X145150Y263083D01*
X145669Y263980D01*
X145937Y264982D01*
Y266018D01*
X145669Y267020D01*
X145150Y267917D01*
X144417Y268650D01*
X143520Y269169D01*
X142518Y269437D01*
D02*
G37*
G36*
X132518D02*
X131482D01*
X130480Y269169D01*
X129583Y268650D01*
X128850Y267917D01*
X128331Y267020D01*
X128063Y266018D01*
Y264982D01*
X128331Y263980D01*
X128850Y263083D01*
X129583Y262350D01*
X130480Y261831D01*
X131482Y261563D01*
X132518D01*
X133520Y261831D01*
X134417Y262350D01*
X135150Y263083D01*
X135669Y263980D01*
X135937Y264982D01*
Y266018D01*
X135669Y267020D01*
X135150Y267917D01*
X134417Y268650D01*
X133520Y269169D01*
X132518Y269437D01*
D02*
G37*
G36*
X122518D02*
X121482D01*
X120480Y269169D01*
X119583Y268650D01*
X118850Y267917D01*
X118331Y267020D01*
X118063Y266018D01*
Y264982D01*
X118331Y263980D01*
X118850Y263083D01*
X119583Y262350D01*
X120480Y261831D01*
X121482Y261563D01*
X122518D01*
X123520Y261831D01*
X124417Y262350D01*
X125150Y263083D01*
X125669Y263980D01*
X125937Y264982D01*
Y266018D01*
X125669Y267020D01*
X125150Y267917D01*
X124417Y268650D01*
X123520Y269169D01*
X122518Y269437D01*
D02*
G37*
G36*
X112518D02*
X111482D01*
X110480Y269169D01*
X109583Y268650D01*
X108850Y267917D01*
X108331Y267020D01*
X108063Y266018D01*
Y264982D01*
X108331Y263980D01*
X108850Y263083D01*
X109583Y262350D01*
X110480Y261831D01*
X111482Y261563D01*
X112518D01*
X113520Y261831D01*
X114417Y262350D01*
X115150Y263083D01*
X115669Y263980D01*
X115937Y264982D01*
Y266018D01*
X115669Y267020D01*
X115150Y267917D01*
X114417Y268650D01*
X113520Y269169D01*
X112518Y269437D01*
D02*
G37*
G36*
X102518D02*
X101482D01*
X100480Y269169D01*
X99583Y268650D01*
X98850Y267917D01*
X98331Y267020D01*
X98063Y266018D01*
Y264982D01*
X98331Y263980D01*
X98850Y263083D01*
X99583Y262350D01*
X100480Y261831D01*
X101482Y261563D01*
X102518D01*
X103520Y261831D01*
X104417Y262350D01*
X105150Y263083D01*
X105669Y263980D01*
X105937Y264982D01*
Y266018D01*
X105669Y267020D01*
X105150Y267917D01*
X104417Y268650D01*
X103520Y269169D01*
X102518Y269437D01*
D02*
G37*
G36*
X48500Y260941D02*
Y259500D01*
X49941D01*
X49682Y260124D01*
X49124Y260682D01*
X48500Y260941D01*
D02*
G37*
G36*
X47500D02*
X46876Y260682D01*
X46318Y260124D01*
X46059Y259500D01*
X47500D01*
Y260941D01*
D02*
G37*
G36*
X49941Y258500D02*
X48500D01*
Y257059D01*
X49124Y257318D01*
X49682Y257876D01*
X49941Y258500D01*
D02*
G37*
G36*
X47500D02*
X46059D01*
X46318Y257876D01*
X46876Y257318D01*
X47500Y257059D01*
Y258500D01*
D02*
G37*
G36*
X212518Y259437D02*
X211482D01*
X210480Y259169D01*
X209583Y258650D01*
X208850Y257917D01*
X208331Y257020D01*
X208063Y256018D01*
Y254982D01*
X208331Y253980D01*
X208850Y253083D01*
X209583Y252350D01*
X210480Y251831D01*
X211482Y251563D01*
X212518D01*
X213520Y251831D01*
X214417Y252350D01*
X215150Y253083D01*
X215669Y253980D01*
X215937Y254982D01*
Y256018D01*
X215669Y257020D01*
X215150Y257917D01*
X214417Y258650D01*
X213520Y259169D01*
X212518Y259437D01*
D02*
G37*
G36*
X202518D02*
X201482D01*
X200480Y259169D01*
X199583Y258650D01*
X198850Y257917D01*
X198331Y257020D01*
X198063Y256018D01*
Y254982D01*
X198331Y253980D01*
X198850Y253083D01*
X199583Y252350D01*
X200480Y251831D01*
X201482Y251563D01*
X202518D01*
X203520Y251831D01*
X204417Y252350D01*
X205150Y253083D01*
X205669Y253980D01*
X205937Y254982D01*
Y256018D01*
X205669Y257020D01*
X205150Y257917D01*
X204417Y258650D01*
X203520Y259169D01*
X202518Y259437D01*
D02*
G37*
G36*
X192518D02*
X191482D01*
X190480Y259169D01*
X189583Y258650D01*
X188850Y257917D01*
X188331Y257020D01*
X188063Y256018D01*
Y254982D01*
X188331Y253980D01*
X188850Y253083D01*
X189583Y252350D01*
X190480Y251831D01*
X191482Y251563D01*
X192518D01*
X193520Y251831D01*
X194417Y252350D01*
X195150Y253083D01*
X195669Y253980D01*
X195937Y254982D01*
Y256018D01*
X195669Y257020D01*
X195150Y257917D01*
X194417Y258650D01*
X193520Y259169D01*
X192518Y259437D01*
D02*
G37*
G36*
X182518D02*
X181482D01*
X180480Y259169D01*
X179583Y258650D01*
X178850Y257917D01*
X178331Y257020D01*
X178063Y256018D01*
Y254982D01*
X178331Y253980D01*
X178850Y253083D01*
X179583Y252350D01*
X180480Y251831D01*
X181482Y251563D01*
X182518D01*
X183520Y251831D01*
X184417Y252350D01*
X185150Y253083D01*
X185669Y253980D01*
X185937Y254982D01*
Y256018D01*
X185669Y257020D01*
X185150Y257917D01*
X184417Y258650D01*
X183520Y259169D01*
X182518Y259437D01*
D02*
G37*
G36*
X172518D02*
X171482D01*
X170480Y259169D01*
X169583Y258650D01*
X168850Y257917D01*
X168331Y257020D01*
X168063Y256018D01*
Y254982D01*
X168331Y253980D01*
X168850Y253083D01*
X169583Y252350D01*
X170480Y251831D01*
X171482Y251563D01*
X172518D01*
X173520Y251831D01*
X174417Y252350D01*
X175150Y253083D01*
X175669Y253980D01*
X175937Y254982D01*
Y256018D01*
X175669Y257020D01*
X175150Y257917D01*
X174417Y258650D01*
X173520Y259169D01*
X172518Y259437D01*
D02*
G37*
G36*
X162518D02*
X161482D01*
X160480Y259169D01*
X159583Y258650D01*
X158850Y257917D01*
X158331Y257020D01*
X158063Y256018D01*
Y254982D01*
X158331Y253980D01*
X158850Y253083D01*
X159583Y252350D01*
X160480Y251831D01*
X161482Y251563D01*
X162518D01*
X163520Y251831D01*
X164417Y252350D01*
X165150Y253083D01*
X165669Y253980D01*
X165937Y254982D01*
Y256018D01*
X165669Y257020D01*
X165150Y257917D01*
X164417Y258650D01*
X163520Y259169D01*
X162518Y259437D01*
D02*
G37*
G36*
X152518D02*
X151482D01*
X150480Y259169D01*
X149583Y258650D01*
X148850Y257917D01*
X148331Y257020D01*
X148063Y256018D01*
Y254982D01*
X148331Y253980D01*
X148850Y253083D01*
X149583Y252350D01*
X150480Y251831D01*
X151482Y251563D01*
X152518D01*
X153520Y251831D01*
X154417Y252350D01*
X155150Y253083D01*
X155669Y253980D01*
X155937Y254982D01*
Y256018D01*
X155669Y257020D01*
X155150Y257917D01*
X154417Y258650D01*
X153520Y259169D01*
X152518Y259437D01*
D02*
G37*
G36*
X142518D02*
X141482D01*
X140480Y259169D01*
X139583Y258650D01*
X138850Y257917D01*
X138331Y257020D01*
X138063Y256018D01*
Y254982D01*
X138331Y253980D01*
X138850Y253083D01*
X139583Y252350D01*
X140480Y251831D01*
X141482Y251563D01*
X142518D01*
X143520Y251831D01*
X144417Y252350D01*
X145150Y253083D01*
X145669Y253980D01*
X145937Y254982D01*
Y256018D01*
X145669Y257020D01*
X145150Y257917D01*
X144417Y258650D01*
X143520Y259169D01*
X142518Y259437D01*
D02*
G37*
G36*
X132518D02*
X131482D01*
X130480Y259169D01*
X129583Y258650D01*
X128850Y257917D01*
X128331Y257020D01*
X128063Y256018D01*
Y254982D01*
X128331Y253980D01*
X128850Y253083D01*
X129583Y252350D01*
X130480Y251831D01*
X131482Y251563D01*
X132518D01*
X133520Y251831D01*
X134417Y252350D01*
X135150Y253083D01*
X135669Y253980D01*
X135937Y254982D01*
Y256018D01*
X135669Y257020D01*
X135150Y257917D01*
X134417Y258650D01*
X133520Y259169D01*
X132518Y259437D01*
D02*
G37*
G36*
X122518D02*
X121482D01*
X120480Y259169D01*
X119583Y258650D01*
X118850Y257917D01*
X118331Y257020D01*
X118063Y256018D01*
Y254982D01*
X118331Y253980D01*
X118850Y253083D01*
X119583Y252350D01*
X120480Y251831D01*
X121482Y251563D01*
X122518D01*
X123520Y251831D01*
X124417Y252350D01*
X125150Y253083D01*
X125669Y253980D01*
X125937Y254982D01*
Y256018D01*
X125669Y257020D01*
X125150Y257917D01*
X124417Y258650D01*
X123520Y259169D01*
X122518Y259437D01*
D02*
G37*
G36*
X112518D02*
X111482D01*
X110480Y259169D01*
X109583Y258650D01*
X108850Y257917D01*
X108331Y257020D01*
X108063Y256018D01*
Y254982D01*
X108331Y253980D01*
X108850Y253083D01*
X109583Y252350D01*
X110480Y251831D01*
X111482Y251563D01*
X112518D01*
X113520Y251831D01*
X114417Y252350D01*
X115150Y253083D01*
X115669Y253980D01*
X115937Y254982D01*
Y256018D01*
X115669Y257020D01*
X115150Y257917D01*
X114417Y258650D01*
X113520Y259169D01*
X112518Y259437D01*
D02*
G37*
G36*
X102518D02*
X101482D01*
X100480Y259169D01*
X99583Y258650D01*
X98850Y257917D01*
X98331Y257020D01*
X98063Y256018D01*
Y254982D01*
X98331Y253980D01*
X98850Y253083D01*
X99583Y252350D01*
X100480Y251831D01*
X101482Y251563D01*
X102518D01*
X103520Y251831D01*
X104417Y252350D01*
X105150Y253083D01*
X105669Y253980D01*
X105937Y254982D01*
Y256018D01*
X105669Y257020D01*
X105150Y257917D01*
X104417Y258650D01*
X103520Y259169D01*
X102518Y259437D01*
D02*
G37*
G36*
X212518Y249437D02*
X211482D01*
X210480Y249169D01*
X209583Y248650D01*
X208850Y247917D01*
X208331Y247020D01*
X208063Y246018D01*
Y244982D01*
X208331Y243980D01*
X208850Y243083D01*
X209583Y242350D01*
X210480Y241831D01*
X211482Y241563D01*
X212518D01*
X213520Y241831D01*
X214417Y242350D01*
X215150Y243083D01*
X215669Y243980D01*
X215937Y244982D01*
Y246018D01*
X215669Y247020D01*
X215150Y247917D01*
X214417Y248650D01*
X213520Y249169D01*
X212518Y249437D01*
D02*
G37*
G36*
X202518D02*
X201482D01*
X200480Y249169D01*
X199583Y248650D01*
X198850Y247917D01*
X198331Y247020D01*
X198063Y246018D01*
Y244982D01*
X198331Y243980D01*
X198850Y243083D01*
X199583Y242350D01*
X200480Y241831D01*
X201482Y241563D01*
X202518D01*
X203520Y241831D01*
X204417Y242350D01*
X205150Y243083D01*
X205669Y243980D01*
X205937Y244982D01*
Y246018D01*
X205669Y247020D01*
X205150Y247917D01*
X204417Y248650D01*
X203520Y249169D01*
X202518Y249437D01*
D02*
G37*
G36*
X192518D02*
X191482D01*
X190480Y249169D01*
X189583Y248650D01*
X188850Y247917D01*
X188331Y247020D01*
X188063Y246018D01*
Y244982D01*
X188331Y243980D01*
X188850Y243083D01*
X189583Y242350D01*
X190480Y241831D01*
X191482Y241563D01*
X192518D01*
X193520Y241831D01*
X194417Y242350D01*
X195150Y243083D01*
X195669Y243980D01*
X195937Y244982D01*
Y246018D01*
X195669Y247020D01*
X195150Y247917D01*
X194417Y248650D01*
X193520Y249169D01*
X192518Y249437D01*
D02*
G37*
G36*
X182518D02*
X181482D01*
X180480Y249169D01*
X179583Y248650D01*
X178850Y247917D01*
X178331Y247020D01*
X178063Y246018D01*
Y244982D01*
X178331Y243980D01*
X178850Y243083D01*
X179583Y242350D01*
X180480Y241831D01*
X181482Y241563D01*
X182518D01*
X183520Y241831D01*
X184417Y242350D01*
X185150Y243083D01*
X185669Y243980D01*
X185937Y244982D01*
Y246018D01*
X185669Y247020D01*
X185150Y247917D01*
X184417Y248650D01*
X183520Y249169D01*
X182518Y249437D01*
D02*
G37*
G36*
X172518D02*
X171482D01*
X170480Y249169D01*
X169583Y248650D01*
X168850Y247917D01*
X168331Y247020D01*
X168063Y246018D01*
Y244982D01*
X168331Y243980D01*
X168850Y243083D01*
X169583Y242350D01*
X170480Y241831D01*
X171482Y241563D01*
X172518D01*
X173520Y241831D01*
X174417Y242350D01*
X175150Y243083D01*
X175669Y243980D01*
X175937Y244982D01*
Y246018D01*
X175669Y247020D01*
X175150Y247917D01*
X174417Y248650D01*
X173520Y249169D01*
X172518Y249437D01*
D02*
G37*
G36*
X162518D02*
X161482D01*
X160480Y249169D01*
X159583Y248650D01*
X158850Y247917D01*
X158331Y247020D01*
X158063Y246018D01*
Y244982D01*
X158331Y243980D01*
X158850Y243083D01*
X159583Y242350D01*
X160480Y241831D01*
X161482Y241563D01*
X162518D01*
X163520Y241831D01*
X164417Y242350D01*
X165150Y243083D01*
X165669Y243980D01*
X165937Y244982D01*
Y246018D01*
X165669Y247020D01*
X165150Y247917D01*
X164417Y248650D01*
X163520Y249169D01*
X162518Y249437D01*
D02*
G37*
G36*
X152518D02*
X151482D01*
X150480Y249169D01*
X149583Y248650D01*
X148850Y247917D01*
X148331Y247020D01*
X148063Y246018D01*
Y244982D01*
X148331Y243980D01*
X148850Y243083D01*
X149583Y242350D01*
X150480Y241831D01*
X151482Y241563D01*
X152518D01*
X153520Y241831D01*
X154417Y242350D01*
X155150Y243083D01*
X155669Y243980D01*
X155937Y244982D01*
Y246018D01*
X155669Y247020D01*
X155150Y247917D01*
X154417Y248650D01*
X153520Y249169D01*
X152518Y249437D01*
D02*
G37*
G36*
X142518D02*
X141482D01*
X140480Y249169D01*
X139583Y248650D01*
X138850Y247917D01*
X138331Y247020D01*
X138063Y246018D01*
Y244982D01*
X138331Y243980D01*
X138850Y243083D01*
X139583Y242350D01*
X140480Y241831D01*
X141482Y241563D01*
X142518D01*
X143520Y241831D01*
X144417Y242350D01*
X145150Y243083D01*
X145669Y243980D01*
X145937Y244982D01*
Y246018D01*
X145669Y247020D01*
X145150Y247917D01*
X144417Y248650D01*
X143520Y249169D01*
X142518Y249437D01*
D02*
G37*
G36*
X132518D02*
X131482D01*
X130480Y249169D01*
X129583Y248650D01*
X128850Y247917D01*
X128331Y247020D01*
X128063Y246018D01*
Y244982D01*
X128331Y243980D01*
X128850Y243083D01*
X129583Y242350D01*
X130480Y241831D01*
X131482Y241563D01*
X132518D01*
X133520Y241831D01*
X134417Y242350D01*
X135150Y243083D01*
X135669Y243980D01*
X135937Y244982D01*
Y246018D01*
X135669Y247020D01*
X135150Y247917D01*
X134417Y248650D01*
X133520Y249169D01*
X132518Y249437D01*
D02*
G37*
G36*
X122518D02*
X121482D01*
X120480Y249169D01*
X119583Y248650D01*
X118850Y247917D01*
X118331Y247020D01*
X118063Y246018D01*
Y244982D01*
X118331Y243980D01*
X118850Y243083D01*
X119583Y242350D01*
X120480Y241831D01*
X121482Y241563D01*
X122518D01*
X123520Y241831D01*
X124417Y242350D01*
X125150Y243083D01*
X125669Y243980D01*
X125937Y244982D01*
Y246018D01*
X125669Y247020D01*
X125150Y247917D01*
X124417Y248650D01*
X123520Y249169D01*
X122518Y249437D01*
D02*
G37*
G36*
X112518D02*
X111482D01*
X110480Y249169D01*
X109583Y248650D01*
X108850Y247917D01*
X108331Y247020D01*
X108063Y246018D01*
Y244982D01*
X108331Y243980D01*
X108850Y243083D01*
X109583Y242350D01*
X110480Y241831D01*
X111482Y241563D01*
X112518D01*
X113520Y241831D01*
X114417Y242350D01*
X115150Y243083D01*
X115669Y243980D01*
X115937Y244982D01*
Y246018D01*
X115669Y247020D01*
X115150Y247917D01*
X114417Y248650D01*
X113520Y249169D01*
X112518Y249437D01*
D02*
G37*
G36*
X102518D02*
X101482D01*
X100480Y249169D01*
X99583Y248650D01*
X98850Y247917D01*
X98331Y247020D01*
X98063Y246018D01*
Y244982D01*
X98331Y243980D01*
X98850Y243083D01*
X99583Y242350D01*
X100480Y241831D01*
X101482Y241563D01*
X102518D01*
X103520Y241831D01*
X104417Y242350D01*
X105150Y243083D01*
X105669Y243980D01*
X105937Y244982D01*
Y246018D01*
X105669Y247020D01*
X105150Y247917D01*
X104417Y248650D01*
X103520Y249169D01*
X102518Y249437D01*
D02*
G37*
G36*
X212518Y239437D02*
X211482D01*
X210480Y239169D01*
X209583Y238650D01*
X208850Y237917D01*
X208331Y237020D01*
X208063Y236018D01*
Y234982D01*
X208331Y233980D01*
X208850Y233083D01*
X209583Y232350D01*
X210480Y231831D01*
X211482Y231563D01*
X212518D01*
X213520Y231831D01*
X214417Y232350D01*
X215150Y233083D01*
X215669Y233980D01*
X215937Y234982D01*
Y236018D01*
X215669Y237020D01*
X215150Y237917D01*
X214417Y238650D01*
X213520Y239169D01*
X212518Y239437D01*
D02*
G37*
G36*
X202518D02*
X201482D01*
X200480Y239169D01*
X199583Y238650D01*
X198850Y237917D01*
X198331Y237020D01*
X198063Y236018D01*
Y234982D01*
X198331Y233980D01*
X198850Y233083D01*
X199583Y232350D01*
X200480Y231831D01*
X201482Y231563D01*
X202518D01*
X203520Y231831D01*
X204417Y232350D01*
X205150Y233083D01*
X205669Y233980D01*
X205937Y234982D01*
Y236018D01*
X205669Y237020D01*
X205150Y237917D01*
X204417Y238650D01*
X203520Y239169D01*
X202518Y239437D01*
D02*
G37*
G36*
X192518D02*
X191482D01*
X190480Y239169D01*
X189583Y238650D01*
X188850Y237917D01*
X188331Y237020D01*
X188063Y236018D01*
Y234982D01*
X188331Y233980D01*
X188850Y233083D01*
X189583Y232350D01*
X190480Y231831D01*
X191482Y231563D01*
X192518D01*
X193520Y231831D01*
X194417Y232350D01*
X195150Y233083D01*
X195669Y233980D01*
X195937Y234982D01*
Y236018D01*
X195669Y237020D01*
X195150Y237917D01*
X194417Y238650D01*
X193520Y239169D01*
X192518Y239437D01*
D02*
G37*
G36*
X182518D02*
X181482D01*
X180480Y239169D01*
X179583Y238650D01*
X178850Y237917D01*
X178331Y237020D01*
X178063Y236018D01*
Y234982D01*
X178331Y233980D01*
X178850Y233083D01*
X179583Y232350D01*
X180480Y231831D01*
X181482Y231563D01*
X182518D01*
X183520Y231831D01*
X184417Y232350D01*
X185150Y233083D01*
X185669Y233980D01*
X185937Y234982D01*
Y236018D01*
X185669Y237020D01*
X185150Y237917D01*
X184417Y238650D01*
X183520Y239169D01*
X182518Y239437D01*
D02*
G37*
G36*
X172518D02*
X171482D01*
X170480Y239169D01*
X169583Y238650D01*
X168850Y237917D01*
X168331Y237020D01*
X168063Y236018D01*
Y234982D01*
X168331Y233980D01*
X168850Y233083D01*
X169583Y232350D01*
X170480Y231831D01*
X171482Y231563D01*
X172518D01*
X173520Y231831D01*
X174417Y232350D01*
X175150Y233083D01*
X175669Y233980D01*
X175937Y234982D01*
Y236018D01*
X175669Y237020D01*
X175150Y237917D01*
X174417Y238650D01*
X173520Y239169D01*
X172518Y239437D01*
D02*
G37*
G36*
X162518D02*
X161482D01*
X160480Y239169D01*
X159583Y238650D01*
X158850Y237917D01*
X158331Y237020D01*
X158063Y236018D01*
Y234982D01*
X158331Y233980D01*
X158850Y233083D01*
X159583Y232350D01*
X160480Y231831D01*
X161482Y231563D01*
X162518D01*
X163520Y231831D01*
X164417Y232350D01*
X165150Y233083D01*
X165669Y233980D01*
X165937Y234982D01*
Y236018D01*
X165669Y237020D01*
X165150Y237917D01*
X164417Y238650D01*
X163520Y239169D01*
X162518Y239437D01*
D02*
G37*
G36*
X152518D02*
X151482D01*
X150480Y239169D01*
X149583Y238650D01*
X148850Y237917D01*
X148331Y237020D01*
X148063Y236018D01*
Y234982D01*
X148331Y233980D01*
X148850Y233083D01*
X149583Y232350D01*
X150480Y231831D01*
X151482Y231563D01*
X152518D01*
X153520Y231831D01*
X154417Y232350D01*
X155150Y233083D01*
X155669Y233980D01*
X155937Y234982D01*
Y236018D01*
X155669Y237020D01*
X155150Y237917D01*
X154417Y238650D01*
X153520Y239169D01*
X152518Y239437D01*
D02*
G37*
G36*
X142518D02*
X141482D01*
X140480Y239169D01*
X139583Y238650D01*
X138850Y237917D01*
X138331Y237020D01*
X138063Y236018D01*
Y234982D01*
X138331Y233980D01*
X138850Y233083D01*
X139583Y232350D01*
X140480Y231831D01*
X141482Y231563D01*
X142518D01*
X143520Y231831D01*
X144417Y232350D01*
X145150Y233083D01*
X145669Y233980D01*
X145937Y234982D01*
Y236018D01*
X145669Y237020D01*
X145150Y237917D01*
X144417Y238650D01*
X143520Y239169D01*
X142518Y239437D01*
D02*
G37*
G36*
X132518D02*
X131482D01*
X130480Y239169D01*
X129583Y238650D01*
X128850Y237917D01*
X128331Y237020D01*
X128063Y236018D01*
Y234982D01*
X128331Y233980D01*
X128850Y233083D01*
X129583Y232350D01*
X130480Y231831D01*
X131482Y231563D01*
X132518D01*
X133520Y231831D01*
X134417Y232350D01*
X135150Y233083D01*
X135669Y233980D01*
X135937Y234982D01*
Y236018D01*
X135669Y237020D01*
X135150Y237917D01*
X134417Y238650D01*
X133520Y239169D01*
X132518Y239437D01*
D02*
G37*
G36*
X122518D02*
X121482D01*
X120480Y239169D01*
X119583Y238650D01*
X118850Y237917D01*
X118331Y237020D01*
X118063Y236018D01*
Y234982D01*
X118331Y233980D01*
X118850Y233083D01*
X119583Y232350D01*
X120480Y231831D01*
X121482Y231563D01*
X122518D01*
X123520Y231831D01*
X124417Y232350D01*
X125150Y233083D01*
X125669Y233980D01*
X125937Y234982D01*
Y236018D01*
X125669Y237020D01*
X125150Y237917D01*
X124417Y238650D01*
X123520Y239169D01*
X122518Y239437D01*
D02*
G37*
G36*
X112518D02*
X111482D01*
X110480Y239169D01*
X109583Y238650D01*
X108850Y237917D01*
X108331Y237020D01*
X108063Y236018D01*
Y234982D01*
X108331Y233980D01*
X108850Y233083D01*
X109583Y232350D01*
X110480Y231831D01*
X111482Y231563D01*
X112518D01*
X113520Y231831D01*
X114417Y232350D01*
X115150Y233083D01*
X115669Y233980D01*
X115937Y234982D01*
Y236018D01*
X115669Y237020D01*
X115150Y237917D01*
X114417Y238650D01*
X113520Y239169D01*
X112518Y239437D01*
D02*
G37*
G36*
X102518D02*
X101482D01*
X100480Y239169D01*
X99583Y238650D01*
X98850Y237917D01*
X98331Y237020D01*
X98063Y236018D01*
Y234982D01*
X98331Y233980D01*
X98850Y233083D01*
X99583Y232350D01*
X100480Y231831D01*
X101482Y231563D01*
X102518D01*
X103520Y231831D01*
X104417Y232350D01*
X105150Y233083D01*
X105669Y233980D01*
X105937Y234982D01*
Y236018D01*
X105669Y237020D01*
X105150Y237917D01*
X104417Y238650D01*
X103520Y239169D01*
X102518Y239437D01*
D02*
G37*
G36*
X87141Y232271D02*
X83598D01*
X82570Y232136D01*
X81612Y231739D01*
X80790Y231108D01*
X80159Y230286D01*
X79762Y229328D01*
X79627Y228300D01*
X79762Y227272D01*
X80159Y226314D01*
X80790Y225492D01*
X81612Y224861D01*
X82570Y224464D01*
X83598Y224329D01*
X87141D01*
X88169Y224464D01*
X89126Y224861D01*
X89949Y225492D01*
X90580Y226314D01*
X90977Y227272D01*
X91112Y228300D01*
X90977Y229328D01*
X90580Y230286D01*
X89949Y231108D01*
X89126Y231739D01*
X88169Y232136D01*
X87141Y232271D01*
D02*
G37*
G36*
X212518Y229437D02*
X211482D01*
X210480Y229169D01*
X209583Y228650D01*
X208850Y227917D01*
X208331Y227020D01*
X208063Y226018D01*
Y224982D01*
X208331Y223980D01*
X208850Y223083D01*
X209583Y222350D01*
X210480Y221831D01*
X211482Y221563D01*
X212518D01*
X213520Y221831D01*
X214417Y222350D01*
X215150Y223083D01*
X215669Y223980D01*
X215937Y224982D01*
Y226018D01*
X215669Y227020D01*
X215150Y227917D01*
X214417Y228650D01*
X213520Y229169D01*
X212518Y229437D01*
D02*
G37*
G36*
X202518D02*
X201482D01*
X200480Y229169D01*
X199583Y228650D01*
X198850Y227917D01*
X198331Y227020D01*
X198063Y226018D01*
Y224982D01*
X198331Y223980D01*
X198850Y223083D01*
X199583Y222350D01*
X200480Y221831D01*
X201482Y221563D01*
X202518D01*
X203520Y221831D01*
X204417Y222350D01*
X205150Y223083D01*
X205669Y223980D01*
X205937Y224982D01*
Y226018D01*
X205669Y227020D01*
X205150Y227917D01*
X204417Y228650D01*
X203520Y229169D01*
X202518Y229437D01*
D02*
G37*
G36*
X192518D02*
X191482D01*
X190480Y229169D01*
X189583Y228650D01*
X188850Y227917D01*
X188331Y227020D01*
X188063Y226018D01*
Y224982D01*
X188331Y223980D01*
X188850Y223083D01*
X189583Y222350D01*
X190480Y221831D01*
X191482Y221563D01*
X192518D01*
X193520Y221831D01*
X194417Y222350D01*
X195150Y223083D01*
X195669Y223980D01*
X195937Y224982D01*
Y226018D01*
X195669Y227020D01*
X195150Y227917D01*
X194417Y228650D01*
X193520Y229169D01*
X192518Y229437D01*
D02*
G37*
G36*
X182518D02*
X181482D01*
X180480Y229169D01*
X179583Y228650D01*
X178850Y227917D01*
X178331Y227020D01*
X178063Y226018D01*
Y224982D01*
X178331Y223980D01*
X178850Y223083D01*
X179583Y222350D01*
X180480Y221831D01*
X181482Y221563D01*
X182518D01*
X183520Y221831D01*
X184417Y222350D01*
X185150Y223083D01*
X185669Y223980D01*
X185937Y224982D01*
Y226018D01*
X185669Y227020D01*
X185150Y227917D01*
X184417Y228650D01*
X183520Y229169D01*
X182518Y229437D01*
D02*
G37*
G36*
X172518D02*
X171482D01*
X170480Y229169D01*
X169583Y228650D01*
X168850Y227917D01*
X168331Y227020D01*
X168063Y226018D01*
Y224982D01*
X168331Y223980D01*
X168850Y223083D01*
X169583Y222350D01*
X170480Y221831D01*
X171482Y221563D01*
X172518D01*
X173520Y221831D01*
X174417Y222350D01*
X175150Y223083D01*
X175669Y223980D01*
X175937Y224982D01*
Y226018D01*
X175669Y227020D01*
X175150Y227917D01*
X174417Y228650D01*
X173520Y229169D01*
X172518Y229437D01*
D02*
G37*
G36*
X162518D02*
X161482D01*
X160480Y229169D01*
X159583Y228650D01*
X158850Y227917D01*
X158331Y227020D01*
X158063Y226018D01*
Y224982D01*
X158331Y223980D01*
X158850Y223083D01*
X159583Y222350D01*
X160480Y221831D01*
X161482Y221563D01*
X162518D01*
X163520Y221831D01*
X164417Y222350D01*
X165150Y223083D01*
X165669Y223980D01*
X165937Y224982D01*
Y226018D01*
X165669Y227020D01*
X165150Y227917D01*
X164417Y228650D01*
X163520Y229169D01*
X162518Y229437D01*
D02*
G37*
G36*
X152518D02*
X151482D01*
X150480Y229169D01*
X149583Y228650D01*
X148850Y227917D01*
X148331Y227020D01*
X148063Y226018D01*
Y224982D01*
X148331Y223980D01*
X148850Y223083D01*
X149583Y222350D01*
X150480Y221831D01*
X151482Y221563D01*
X152518D01*
X153520Y221831D01*
X154417Y222350D01*
X155150Y223083D01*
X155669Y223980D01*
X155937Y224982D01*
Y226018D01*
X155669Y227020D01*
X155150Y227917D01*
X154417Y228650D01*
X153520Y229169D01*
X152518Y229437D01*
D02*
G37*
G36*
X142518D02*
X141482D01*
X140480Y229169D01*
X139583Y228650D01*
X138850Y227917D01*
X138331Y227020D01*
X138063Y226018D01*
Y224982D01*
X138331Y223980D01*
X138850Y223083D01*
X139583Y222350D01*
X140480Y221831D01*
X141482Y221563D01*
X142518D01*
X143520Y221831D01*
X144417Y222350D01*
X145150Y223083D01*
X145669Y223980D01*
X145937Y224982D01*
Y226018D01*
X145669Y227020D01*
X145150Y227917D01*
X144417Y228650D01*
X143520Y229169D01*
X142518Y229437D01*
D02*
G37*
G36*
X132518D02*
X131482D01*
X130480Y229169D01*
X129583Y228650D01*
X128850Y227917D01*
X128331Y227020D01*
X128063Y226018D01*
Y224982D01*
X128331Y223980D01*
X128850Y223083D01*
X129583Y222350D01*
X130480Y221831D01*
X131482Y221563D01*
X132518D01*
X133520Y221831D01*
X134417Y222350D01*
X135150Y223083D01*
X135669Y223980D01*
X135937Y224982D01*
Y226018D01*
X135669Y227020D01*
X135150Y227917D01*
X134417Y228650D01*
X133520Y229169D01*
X132518Y229437D01*
D02*
G37*
G36*
X122518D02*
X121482D01*
X120480Y229169D01*
X119583Y228650D01*
X118850Y227917D01*
X118331Y227020D01*
X118063Y226018D01*
Y224982D01*
X118331Y223980D01*
X118850Y223083D01*
X119583Y222350D01*
X120480Y221831D01*
X121482Y221563D01*
X122518D01*
X123520Y221831D01*
X124417Y222350D01*
X125150Y223083D01*
X125669Y223980D01*
X125937Y224982D01*
Y226018D01*
X125669Y227020D01*
X125150Y227917D01*
X124417Y228650D01*
X123520Y229169D01*
X122518Y229437D01*
D02*
G37*
G36*
X112518D02*
X111482D01*
X110480Y229169D01*
X109583Y228650D01*
X108850Y227917D01*
X108331Y227020D01*
X108063Y226018D01*
Y224982D01*
X108331Y223980D01*
X108850Y223083D01*
X109583Y222350D01*
X110480Y221831D01*
X111482Y221563D01*
X112518D01*
X113520Y221831D01*
X114417Y222350D01*
X115150Y223083D01*
X115669Y223980D01*
X115937Y224982D01*
Y226018D01*
X115669Y227020D01*
X115150Y227917D01*
X114417Y228650D01*
X113520Y229169D01*
X112518Y229437D01*
D02*
G37*
G36*
X102518D02*
X101482D01*
X100480Y229169D01*
X99583Y228650D01*
X98850Y227917D01*
X98331Y227020D01*
X98063Y226018D01*
Y224982D01*
X98331Y223980D01*
X98850Y223083D01*
X99583Y222350D01*
X100480Y221831D01*
X101482Y221563D01*
X102518D01*
X103520Y221831D01*
X104417Y222350D01*
X105150Y223083D01*
X105669Y223980D01*
X105937Y224982D01*
Y226018D01*
X105669Y227020D01*
X105150Y227917D01*
X104417Y228650D01*
X103520Y229169D01*
X102518Y229437D01*
D02*
G37*
G36*
X222500Y220441D02*
Y219000D01*
X223941D01*
X223682Y219624D01*
X223124Y220182D01*
X222500Y220441D01*
D02*
G37*
G36*
X221500D02*
X220876Y220182D01*
X220318Y219624D01*
X220059Y219000D01*
X221500D01*
Y220441D01*
D02*
G37*
G36*
X223941Y218000D02*
X222500D01*
Y216559D01*
X223124Y216818D01*
X223682Y217376D01*
X223941Y218000D01*
D02*
G37*
G36*
X221500D02*
X220059D01*
X220318Y217376D01*
X220876Y216818D01*
X221500Y216559D01*
Y218000D01*
D02*
G37*
G36*
X87141Y222271D02*
X83598D01*
X82570Y222136D01*
X81612Y221739D01*
X80790Y221108D01*
X80159Y220286D01*
X79762Y219328D01*
X79627Y218300D01*
X79762Y217272D01*
X80159Y216315D01*
X80790Y215492D01*
X81612Y214861D01*
X82570Y214464D01*
X83598Y214329D01*
X87141D01*
X88169Y214464D01*
X89126Y214861D01*
X89949Y215492D01*
X90580Y216315D01*
X90977Y217272D01*
X91112Y218300D01*
X90977Y219328D01*
X90580Y220286D01*
X89949Y221108D01*
X89126Y221739D01*
X88169Y222136D01*
X87141Y222271D01*
D02*
G37*
G36*
X212518Y219437D02*
X211482D01*
X210480Y219169D01*
X209583Y218650D01*
X208850Y217917D01*
X208331Y217020D01*
X208063Y216018D01*
Y214982D01*
X208331Y213980D01*
X208850Y213083D01*
X209583Y212350D01*
X210480Y211831D01*
X211482Y211563D01*
X212518D01*
X213520Y211831D01*
X214417Y212350D01*
X215150Y213083D01*
X215669Y213980D01*
X215937Y214982D01*
Y216018D01*
X215669Y217020D01*
X215150Y217917D01*
X214417Y218650D01*
X213520Y219169D01*
X212518Y219437D01*
D02*
G37*
G36*
X202518D02*
X201482D01*
X200480Y219169D01*
X199583Y218650D01*
X198850Y217917D01*
X198331Y217020D01*
X198063Y216018D01*
Y214982D01*
X198331Y213980D01*
X198850Y213083D01*
X199583Y212350D01*
X200480Y211831D01*
X201482Y211563D01*
X202518D01*
X203520Y211831D01*
X204417Y212350D01*
X205150Y213083D01*
X205669Y213980D01*
X205937Y214982D01*
Y216018D01*
X205669Y217020D01*
X205150Y217917D01*
X204417Y218650D01*
X203520Y219169D01*
X202518Y219437D01*
D02*
G37*
G36*
X192518D02*
X191482D01*
X190480Y219169D01*
X189583Y218650D01*
X188850Y217917D01*
X188331Y217020D01*
X188063Y216018D01*
Y214982D01*
X188331Y213980D01*
X188850Y213083D01*
X189583Y212350D01*
X190480Y211831D01*
X191482Y211563D01*
X192518D01*
X193520Y211831D01*
X194417Y212350D01*
X195150Y213083D01*
X195669Y213980D01*
X195937Y214982D01*
Y216018D01*
X195669Y217020D01*
X195150Y217917D01*
X194417Y218650D01*
X193520Y219169D01*
X192518Y219437D01*
D02*
G37*
G36*
X182518D02*
X181482D01*
X180480Y219169D01*
X179583Y218650D01*
X178850Y217917D01*
X178331Y217020D01*
X178063Y216018D01*
Y214982D01*
X178331Y213980D01*
X178850Y213083D01*
X179583Y212350D01*
X180480Y211831D01*
X181482Y211563D01*
X182518D01*
X183520Y211831D01*
X184417Y212350D01*
X185150Y213083D01*
X185669Y213980D01*
X185937Y214982D01*
Y216018D01*
X185669Y217020D01*
X185150Y217917D01*
X184417Y218650D01*
X183520Y219169D01*
X182518Y219437D01*
D02*
G37*
G36*
X172518D02*
X171482D01*
X170480Y219169D01*
X169583Y218650D01*
X168850Y217917D01*
X168331Y217020D01*
X168063Y216018D01*
Y214982D01*
X168331Y213980D01*
X168850Y213083D01*
X169583Y212350D01*
X170480Y211831D01*
X171482Y211563D01*
X172518D01*
X173520Y211831D01*
X174417Y212350D01*
X175150Y213083D01*
X175669Y213980D01*
X175937Y214982D01*
Y216018D01*
X175669Y217020D01*
X175150Y217917D01*
X174417Y218650D01*
X173520Y219169D01*
X172518Y219437D01*
D02*
G37*
G36*
X162518D02*
X161482D01*
X160480Y219169D01*
X159583Y218650D01*
X158850Y217917D01*
X158331Y217020D01*
X158063Y216018D01*
Y214982D01*
X158331Y213980D01*
X158850Y213083D01*
X159583Y212350D01*
X160480Y211831D01*
X161482Y211563D01*
X162518D01*
X163520Y211831D01*
X164417Y212350D01*
X165150Y213083D01*
X165669Y213980D01*
X165937Y214982D01*
Y216018D01*
X165669Y217020D01*
X165150Y217917D01*
X164417Y218650D01*
X163520Y219169D01*
X162518Y219437D01*
D02*
G37*
G36*
X152518D02*
X151482D01*
X150480Y219169D01*
X149583Y218650D01*
X148850Y217917D01*
X148331Y217020D01*
X148063Y216018D01*
Y214982D01*
X148331Y213980D01*
X148850Y213083D01*
X149583Y212350D01*
X150480Y211831D01*
X151482Y211563D01*
X152518D01*
X153520Y211831D01*
X154417Y212350D01*
X155150Y213083D01*
X155669Y213980D01*
X155937Y214982D01*
Y216018D01*
X155669Y217020D01*
X155150Y217917D01*
X154417Y218650D01*
X153520Y219169D01*
X152518Y219437D01*
D02*
G37*
G36*
X142518D02*
X141482D01*
X140480Y219169D01*
X139583Y218650D01*
X138850Y217917D01*
X138331Y217020D01*
X138063Y216018D01*
Y214982D01*
X138331Y213980D01*
X138850Y213083D01*
X139583Y212350D01*
X140480Y211831D01*
X141482Y211563D01*
X142518D01*
X143520Y211831D01*
X144417Y212350D01*
X145150Y213083D01*
X145669Y213980D01*
X145937Y214982D01*
Y216018D01*
X145669Y217020D01*
X145150Y217917D01*
X144417Y218650D01*
X143520Y219169D01*
X142518Y219437D01*
D02*
G37*
G36*
X132518D02*
X131482D01*
X130480Y219169D01*
X129583Y218650D01*
X128850Y217917D01*
X128331Y217020D01*
X128063Y216018D01*
Y214982D01*
X128331Y213980D01*
X128850Y213083D01*
X129583Y212350D01*
X130480Y211831D01*
X131482Y211563D01*
X132518D01*
X133520Y211831D01*
X134417Y212350D01*
X135150Y213083D01*
X135669Y213980D01*
X135937Y214982D01*
Y216018D01*
X135669Y217020D01*
X135150Y217917D01*
X134417Y218650D01*
X133520Y219169D01*
X132518Y219437D01*
D02*
G37*
G36*
X122518D02*
X121482D01*
X120480Y219169D01*
X119583Y218650D01*
X118850Y217917D01*
X118331Y217020D01*
X118063Y216018D01*
Y214982D01*
X118331Y213980D01*
X118850Y213083D01*
X119583Y212350D01*
X120480Y211831D01*
X121482Y211563D01*
X122518D01*
X123520Y211831D01*
X124417Y212350D01*
X125150Y213083D01*
X125669Y213980D01*
X125937Y214982D01*
Y216018D01*
X125669Y217020D01*
X125150Y217917D01*
X124417Y218650D01*
X123520Y219169D01*
X122518Y219437D01*
D02*
G37*
G36*
X112518D02*
X111482D01*
X110480Y219169D01*
X109583Y218650D01*
X108850Y217917D01*
X108331Y217020D01*
X108063Y216018D01*
Y214982D01*
X108331Y213980D01*
X108850Y213083D01*
X109583Y212350D01*
X110480Y211831D01*
X111482Y211563D01*
X112518D01*
X113520Y211831D01*
X114417Y212350D01*
X115150Y213083D01*
X115669Y213980D01*
X115937Y214982D01*
Y216018D01*
X115669Y217020D01*
X115150Y217917D01*
X114417Y218650D01*
X113520Y219169D01*
X112518Y219437D01*
D02*
G37*
G36*
X102518D02*
X101482D01*
X100480Y219169D01*
X99583Y218650D01*
X98850Y217917D01*
X98331Y217020D01*
X98063Y216018D01*
Y214982D01*
X98331Y213980D01*
X98850Y213083D01*
X99583Y212350D01*
X100480Y211831D01*
X101482Y211563D01*
X102518D01*
X103520Y211831D01*
X104417Y212350D01*
X105150Y213083D01*
X105669Y213980D01*
X105937Y214982D01*
Y216018D01*
X105669Y217020D01*
X105150Y217917D01*
X104417Y218650D01*
X103520Y219169D01*
X102518Y219437D01*
D02*
G37*
G36*
X212546Y209650D02*
X212500D01*
Y206000D01*
X216150D01*
Y206046D01*
X215867Y207102D01*
X215320Y208048D01*
X214548Y208821D01*
X213602Y209367D01*
X212546Y209650D01*
D02*
G37*
G36*
X211500D02*
X211454D01*
X210398Y209367D01*
X209452Y208821D01*
X208680Y208048D01*
X208133Y207102D01*
X207850Y206046D01*
Y206000D01*
X211500D01*
Y209650D01*
D02*
G37*
G36*
X202546D02*
X202500D01*
Y206000D01*
X206150D01*
Y206046D01*
X205867Y207102D01*
X205321Y208048D01*
X204548Y208821D01*
X203602Y209367D01*
X202546Y209650D01*
D02*
G37*
G36*
X201500D02*
X201454D01*
X200398Y209367D01*
X199452Y208821D01*
X198679Y208048D01*
X198133Y207102D01*
X197850Y206046D01*
Y206000D01*
X201500D01*
Y209650D01*
D02*
G37*
G36*
X192546D02*
X192500D01*
Y206000D01*
X196150D01*
Y206046D01*
X195867Y207102D01*
X195320Y208048D01*
X194548Y208821D01*
X193602Y209367D01*
X192546Y209650D01*
D02*
G37*
G36*
X191500D02*
X191454D01*
X190398Y209367D01*
X189452Y208821D01*
X188680Y208048D01*
X188133Y207102D01*
X187850Y206046D01*
Y206000D01*
X191500D01*
Y209650D01*
D02*
G37*
G36*
X182546D02*
X182500D01*
Y206000D01*
X186150D01*
Y206046D01*
X185867Y207102D01*
X185320Y208048D01*
X184548Y208821D01*
X183602Y209367D01*
X182546Y209650D01*
D02*
G37*
G36*
X181500D02*
X181454D01*
X180398Y209367D01*
X179452Y208821D01*
X178680Y208048D01*
X178133Y207102D01*
X177850Y206046D01*
Y206000D01*
X181500D01*
Y209650D01*
D02*
G37*
G36*
X172546D02*
X172500D01*
Y206000D01*
X176150D01*
Y206046D01*
X175867Y207102D01*
X175320Y208048D01*
X174548Y208821D01*
X173602Y209367D01*
X172546Y209650D01*
D02*
G37*
G36*
X171500D02*
X171454D01*
X170398Y209367D01*
X169452Y208821D01*
X168679Y208048D01*
X168133Y207102D01*
X167850Y206046D01*
Y206000D01*
X171500D01*
Y209650D01*
D02*
G37*
G36*
X162546D02*
X162500D01*
Y206000D01*
X166150D01*
Y206046D01*
X165867Y207102D01*
X165321Y208048D01*
X164548Y208821D01*
X163602Y209367D01*
X162546Y209650D01*
D02*
G37*
G36*
X161500D02*
X161454D01*
X160398Y209367D01*
X159452Y208821D01*
X158679Y208048D01*
X158133Y207102D01*
X157850Y206046D01*
Y206000D01*
X161500D01*
Y209650D01*
D02*
G37*
G36*
X152546D02*
X152500D01*
Y206000D01*
X156150D01*
Y206046D01*
X155867Y207102D01*
X155321Y208048D01*
X154548Y208821D01*
X153602Y209367D01*
X152546Y209650D01*
D02*
G37*
G36*
X151500D02*
X151454D01*
X150398Y209367D01*
X149452Y208821D01*
X148679Y208048D01*
X148133Y207102D01*
X147850Y206046D01*
Y206000D01*
X151500D01*
Y209650D01*
D02*
G37*
G36*
X142546D02*
X142500D01*
Y206000D01*
X146150D01*
Y206046D01*
X145867Y207102D01*
X145320Y208048D01*
X144548Y208821D01*
X143602Y209367D01*
X142546Y209650D01*
D02*
G37*
G36*
X141500D02*
X141454D01*
X140398Y209367D01*
X139452Y208821D01*
X138680Y208048D01*
X138133Y207102D01*
X137850Y206046D01*
Y206000D01*
X141500D01*
Y209650D01*
D02*
G37*
G36*
X132546D02*
X132500D01*
Y206000D01*
X136150D01*
Y206046D01*
X135867Y207102D01*
X135320Y208048D01*
X134548Y208821D01*
X133602Y209367D01*
X132546Y209650D01*
D02*
G37*
G36*
X131500D02*
X131454D01*
X130398Y209367D01*
X129452Y208821D01*
X128680Y208048D01*
X128133Y207102D01*
X127850Y206046D01*
Y206000D01*
X131500D01*
Y209650D01*
D02*
G37*
G36*
X122546D02*
X122500D01*
Y206000D01*
X126150D01*
Y206046D01*
X125867Y207102D01*
X125320Y208048D01*
X124548Y208821D01*
X123602Y209367D01*
X122546Y209650D01*
D02*
G37*
G36*
X121500D02*
X121454D01*
X120398Y209367D01*
X119452Y208821D01*
X118679Y208048D01*
X118133Y207102D01*
X117850Y206046D01*
Y206000D01*
X121500D01*
Y209650D01*
D02*
G37*
G36*
X112546D02*
X112500D01*
Y206000D01*
X116150D01*
Y206046D01*
X115867Y207102D01*
X115321Y208048D01*
X114548Y208821D01*
X113602Y209367D01*
X112546Y209650D01*
D02*
G37*
G36*
X111500D02*
X111454D01*
X110398Y209367D01*
X109452Y208821D01*
X108679Y208048D01*
X108133Y207102D01*
X107850Y206046D01*
Y206000D01*
X111500D01*
Y209650D01*
D02*
G37*
G36*
X102546D02*
X102500D01*
Y206000D01*
X106150D01*
Y206046D01*
X105867Y207102D01*
X105321Y208048D01*
X104548Y208821D01*
X103602Y209367D01*
X102546Y209650D01*
D02*
G37*
G36*
X101500D02*
X101454D01*
X100398Y209367D01*
X99452Y208821D01*
X98680Y208048D01*
X98133Y207102D01*
X97850Y206046D01*
Y206000D01*
X101500D01*
Y209650D01*
D02*
G37*
G36*
X87141Y212271D02*
X83598D01*
X82570Y212136D01*
X81612Y211739D01*
X80790Y211108D01*
X80159Y210285D01*
X79762Y209328D01*
X79627Y208300D01*
X79762Y207272D01*
X80159Y206314D01*
X80790Y205492D01*
X81612Y204861D01*
X82570Y204464D01*
X83598Y204329D01*
X87141D01*
X88169Y204464D01*
X89126Y204861D01*
X89949Y205492D01*
X90580Y206314D01*
X90977Y207272D01*
X91112Y208300D01*
X90977Y209328D01*
X90580Y210285D01*
X89949Y211108D01*
X89126Y211739D01*
X88169Y212136D01*
X87141Y212271D01*
D02*
G37*
G36*
X216150Y205000D02*
X212500D01*
Y201350D01*
X212546D01*
X213602Y201633D01*
X214548Y202180D01*
X215320Y202952D01*
X215867Y203898D01*
X216150Y204954D01*
Y205000D01*
D02*
G37*
G36*
X211500D02*
X207850D01*
Y204954D01*
X208133Y203898D01*
X208680Y202952D01*
X209452Y202180D01*
X210398Y201633D01*
X211454Y201350D01*
X211500D01*
Y205000D01*
D02*
G37*
G36*
X206150D02*
X202500D01*
Y201350D01*
X202546D01*
X203602Y201633D01*
X204548Y202180D01*
X205321Y202952D01*
X205867Y203898D01*
X206150Y204954D01*
Y205000D01*
D02*
G37*
G36*
X201500D02*
X197850D01*
Y204954D01*
X198133Y203898D01*
X198679Y202952D01*
X199452Y202180D01*
X200398Y201633D01*
X201454Y201350D01*
X201500D01*
Y205000D01*
D02*
G37*
G36*
X196150D02*
X192500D01*
Y201350D01*
X192546D01*
X193602Y201633D01*
X194548Y202180D01*
X195320Y202952D01*
X195867Y203898D01*
X196150Y204954D01*
Y205000D01*
D02*
G37*
G36*
X191500D02*
X187850D01*
Y204954D01*
X188133Y203898D01*
X188680Y202952D01*
X189452Y202180D01*
X190398Y201633D01*
X191454Y201350D01*
X191500D01*
Y205000D01*
D02*
G37*
G36*
X186150D02*
X182500D01*
Y201350D01*
X182546D01*
X183602Y201633D01*
X184548Y202180D01*
X185320Y202952D01*
X185867Y203898D01*
X186150Y204954D01*
Y205000D01*
D02*
G37*
G36*
X181500D02*
X177850D01*
Y204954D01*
X178133Y203898D01*
X178680Y202952D01*
X179452Y202180D01*
X180398Y201633D01*
X181454Y201350D01*
X181500D01*
Y205000D01*
D02*
G37*
G36*
X176150D02*
X172500D01*
Y201350D01*
X172546D01*
X173602Y201633D01*
X174548Y202180D01*
X175320Y202952D01*
X175867Y203898D01*
X176150Y204954D01*
Y205000D01*
D02*
G37*
G36*
X171500D02*
X167850D01*
Y204954D01*
X168133Y203898D01*
X168679Y202952D01*
X169452Y202180D01*
X170398Y201633D01*
X171454Y201350D01*
X171500D01*
Y205000D01*
D02*
G37*
G36*
X166150D02*
X162500D01*
Y201350D01*
X162546D01*
X163602Y201633D01*
X164548Y202180D01*
X165321Y202952D01*
X165867Y203898D01*
X166150Y204954D01*
Y205000D01*
D02*
G37*
G36*
X161500D02*
X157850D01*
Y204954D01*
X158133Y203898D01*
X158679Y202952D01*
X159452Y202180D01*
X160398Y201633D01*
X161454Y201350D01*
X161500D01*
Y205000D01*
D02*
G37*
G36*
X156150D02*
X152500D01*
Y201350D01*
X152546D01*
X153602Y201633D01*
X154548Y202180D01*
X155321Y202952D01*
X155867Y203898D01*
X156150Y204954D01*
Y205000D01*
D02*
G37*
G36*
X151500D02*
X147850D01*
Y204954D01*
X148133Y203898D01*
X148679Y202952D01*
X149452Y202180D01*
X150398Y201633D01*
X151454Y201350D01*
X151500D01*
Y205000D01*
D02*
G37*
G36*
X146150D02*
X142500D01*
Y201350D01*
X142546D01*
X143602Y201633D01*
X144548Y202180D01*
X145320Y202952D01*
X145867Y203898D01*
X146150Y204954D01*
Y205000D01*
D02*
G37*
G36*
X141500D02*
X137850D01*
Y204954D01*
X138133Y203898D01*
X138680Y202952D01*
X139452Y202180D01*
X140398Y201633D01*
X141454Y201350D01*
X141500D01*
Y205000D01*
D02*
G37*
G36*
X136150D02*
X132500D01*
Y201350D01*
X132546D01*
X133602Y201633D01*
X134548Y202180D01*
X135320Y202952D01*
X135867Y203898D01*
X136150Y204954D01*
Y205000D01*
D02*
G37*
G36*
X131500D02*
X127850D01*
Y204954D01*
X128133Y203898D01*
X128680Y202952D01*
X129452Y202180D01*
X130398Y201633D01*
X131454Y201350D01*
X131500D01*
Y205000D01*
D02*
G37*
G36*
X126150D02*
X122500D01*
Y201350D01*
X122546D01*
X123602Y201633D01*
X124548Y202180D01*
X125320Y202952D01*
X125867Y203898D01*
X126150Y204954D01*
Y205000D01*
D02*
G37*
G36*
X121500D02*
X117850D01*
Y204954D01*
X118133Y203898D01*
X118679Y202952D01*
X119452Y202180D01*
X120398Y201633D01*
X121454Y201350D01*
X121500D01*
Y205000D01*
D02*
G37*
G36*
X116150D02*
X112500D01*
Y201350D01*
X112546D01*
X113602Y201633D01*
X114548Y202180D01*
X115321Y202952D01*
X115867Y203898D01*
X116150Y204954D01*
Y205000D01*
D02*
G37*
G36*
X111500D02*
X107850D01*
Y204954D01*
X108133Y203898D01*
X108679Y202952D01*
X109452Y202180D01*
X110398Y201633D01*
X111454Y201350D01*
X111500D01*
Y205000D01*
D02*
G37*
G36*
X106150D02*
X102500D01*
Y201350D01*
X102546D01*
X103602Y201633D01*
X104548Y202180D01*
X105321Y202952D01*
X105867Y203898D01*
X106150Y204954D01*
Y205000D01*
D02*
G37*
G36*
X101500D02*
X97850D01*
Y204954D01*
X98133Y203898D01*
X98680Y202952D01*
X99452Y202180D01*
X100398Y201633D01*
X101454Y201350D01*
X101500D01*
Y205000D01*
D02*
G37*
G36*
X60500Y198165D02*
Y196725D01*
X61941D01*
X61682Y197349D01*
X61124Y197907D01*
X60500Y198165D01*
D02*
G37*
G36*
X59500D02*
X58876Y197907D01*
X58318Y197349D01*
X58059Y196725D01*
X59500D01*
Y198165D01*
D02*
G37*
G36*
X222572Y199346D02*
X222500D01*
Y195500D01*
X226346D01*
Y195572D01*
X226050Y196678D01*
X225478Y197669D01*
X224669Y198478D01*
X223678Y199050D01*
X222572Y199346D01*
D02*
G37*
G36*
X221500D02*
X221428D01*
X220322Y199050D01*
X219331Y198478D01*
X218522Y197669D01*
X217950Y196678D01*
X217653Y195572D01*
Y195500D01*
X221500D01*
Y199346D01*
D02*
G37*
G36*
X61941Y195725D02*
X60500D01*
Y194284D01*
X61124Y194542D01*
X61682Y195101D01*
X61941Y195725D01*
D02*
G37*
G36*
X59500D02*
X58059D01*
X58318Y195101D01*
X58876Y194542D01*
X59500Y194284D01*
Y195725D01*
D02*
G37*
G36*
X226346Y194500D02*
X222500D01*
Y190654D01*
X222572D01*
X223678Y190950D01*
X224669Y191522D01*
X225478Y192331D01*
X226050Y193322D01*
X226346Y194428D01*
Y194500D01*
D02*
G37*
G36*
X221500D02*
X217653D01*
Y194428D01*
X217950Y193322D01*
X218522Y192331D01*
X219331Y191522D01*
X220322Y190950D01*
X221428Y190654D01*
X221500D01*
Y194500D01*
D02*
G37*
G36*
X184544Y198634D02*
X183456D01*
X182404Y198352D01*
X181462Y197808D01*
X180692Y197038D01*
X180148Y196096D01*
X179866Y195044D01*
Y193956D01*
X180148Y192904D01*
X180692Y191962D01*
X181462Y191192D01*
X182404Y190648D01*
X183456Y190366D01*
X184544D01*
X185596Y190648D01*
X186538Y191192D01*
X187308Y191962D01*
X187852Y192904D01*
X188134Y193956D01*
Y195044D01*
X187852Y196096D01*
X187308Y197038D01*
X186538Y197808D01*
X185596Y198352D01*
X184544Y198634D01*
D02*
G37*
G36*
X174544D02*
X173456D01*
X172404Y198352D01*
X171462Y197808D01*
X170692Y197038D01*
X170148Y196096D01*
X169866Y195044D01*
Y193956D01*
X170148Y192904D01*
X170692Y191962D01*
X171462Y191192D01*
X172404Y190648D01*
X173456Y190366D01*
X174544D01*
X175596Y190648D01*
X176538Y191192D01*
X177308Y191962D01*
X177852Y192904D01*
X178134Y193956D01*
Y195044D01*
X177852Y196096D01*
X177308Y197038D01*
X176538Y197808D01*
X175596Y198352D01*
X174544Y198634D01*
D02*
G37*
G36*
X164544D02*
X163456D01*
X162404Y198352D01*
X161462Y197808D01*
X160692Y197038D01*
X160148Y196096D01*
X159866Y195044D01*
Y193956D01*
X160148Y192904D01*
X160692Y191962D01*
X161462Y191192D01*
X162404Y190648D01*
X163456Y190366D01*
X164544D01*
X165596Y190648D01*
X166538Y191192D01*
X167308Y191962D01*
X167852Y192904D01*
X168134Y193956D01*
Y195044D01*
X167852Y196096D01*
X167308Y197038D01*
X166538Y197808D01*
X165596Y198352D01*
X164544Y198634D01*
D02*
G37*
G36*
X154544D02*
X153456D01*
X152404Y198352D01*
X151462Y197808D01*
X150692Y197038D01*
X150148Y196096D01*
X149866Y195044D01*
Y193956D01*
X150148Y192904D01*
X150692Y191962D01*
X151462Y191192D01*
X152404Y190648D01*
X153456Y190366D01*
X154544D01*
X155596Y190648D01*
X156538Y191192D01*
X157308Y191962D01*
X157852Y192904D01*
X158134Y193956D01*
Y195044D01*
X157852Y196096D01*
X157308Y197038D01*
X156538Y197808D01*
X155596Y198352D01*
X154544Y198634D01*
D02*
G37*
G36*
X134544D02*
X133456D01*
X132404Y198352D01*
X131462Y197808D01*
X130692Y197038D01*
X130148Y196096D01*
X129866Y195044D01*
Y193956D01*
X130148Y192904D01*
X130692Y191962D01*
X131462Y191192D01*
X132404Y190648D01*
X133456Y190366D01*
X134544D01*
X135596Y190648D01*
X136538Y191192D01*
X137308Y191962D01*
X137852Y192904D01*
X138134Y193956D01*
Y195044D01*
X137852Y196096D01*
X137308Y197038D01*
X136538Y197808D01*
X135596Y198352D01*
X134544Y198634D01*
D02*
G37*
G36*
X124544D02*
X123456D01*
X122404Y198352D01*
X121462Y197808D01*
X120692Y197038D01*
X120148Y196096D01*
X119866Y195044D01*
Y193956D01*
X120148Y192904D01*
X120692Y191962D01*
X121462Y191192D01*
X122404Y190648D01*
X123456Y190366D01*
X124544D01*
X125596Y190648D01*
X126538Y191192D01*
X127308Y191962D01*
X127852Y192904D01*
X128134Y193956D01*
Y195044D01*
X127852Y196096D01*
X127308Y197038D01*
X126538Y197808D01*
X125596Y198352D01*
X124544Y198634D01*
D02*
G37*
G36*
X222544Y189134D02*
X221456D01*
X220404Y188852D01*
X219462Y188308D01*
X218692Y187538D01*
X218148Y186596D01*
X217866Y185544D01*
Y184456D01*
X218148Y183404D01*
X218692Y182462D01*
X219462Y181692D01*
X220404Y181148D01*
X221456Y180866D01*
X222544D01*
X223596Y181148D01*
X224538Y181692D01*
X225308Y182462D01*
X225852Y183404D01*
X226134Y184456D01*
Y185544D01*
X225852Y186596D01*
X225308Y187538D01*
X224538Y188308D01*
X223596Y188852D01*
X222544Y189134D01*
D02*
G37*
G36*
X115500Y181941D02*
Y180500D01*
X116941D01*
X116682Y181124D01*
X116124Y181682D01*
X115500Y181941D01*
D02*
G37*
G36*
X114500D02*
X113876Y181682D01*
X113318Y181124D01*
X113059Y180500D01*
X114500D01*
Y181941D01*
D02*
G37*
G36*
X184544Y188634D02*
X183456D01*
X182404Y188352D01*
X181462Y187808D01*
X180692Y187038D01*
X180148Y186096D01*
X179866Y185044D01*
Y183956D01*
X180148Y182904D01*
X180692Y181962D01*
X181462Y181192D01*
X182404Y180648D01*
X183456Y180366D01*
X184544D01*
X185596Y180648D01*
X186538Y181192D01*
X187308Y181962D01*
X187852Y182904D01*
X188134Y183956D01*
Y185044D01*
X187852Y186096D01*
X187308Y187038D01*
X186538Y187808D01*
X185596Y188352D01*
X184544Y188634D01*
D02*
G37*
G36*
X174544D02*
X173456D01*
X172404Y188352D01*
X171462Y187808D01*
X170692Y187038D01*
X170148Y186096D01*
X169866Y185044D01*
Y183956D01*
X170148Y182904D01*
X170692Y181962D01*
X171462Y181192D01*
X172404Y180648D01*
X173456Y180366D01*
X174544D01*
X175596Y180648D01*
X176538Y181192D01*
X177308Y181962D01*
X177852Y182904D01*
X178134Y183956D01*
Y185044D01*
X177852Y186096D01*
X177308Y187038D01*
X176538Y187808D01*
X175596Y188352D01*
X174544Y188634D01*
D02*
G37*
G36*
X164544D02*
X163456D01*
X162404Y188352D01*
X161462Y187808D01*
X160692Y187038D01*
X160148Y186096D01*
X159866Y185044D01*
Y183956D01*
X160148Y182904D01*
X160692Y181962D01*
X161462Y181192D01*
X162404Y180648D01*
X163456Y180366D01*
X164544D01*
X165596Y180648D01*
X166538Y181192D01*
X167308Y181962D01*
X167852Y182904D01*
X168134Y183956D01*
Y185044D01*
X167852Y186096D01*
X167308Y187038D01*
X166538Y187808D01*
X165596Y188352D01*
X164544Y188634D01*
D02*
G37*
G36*
X134544D02*
X133456D01*
X132404Y188352D01*
X131462Y187808D01*
X130692Y187038D01*
X130148Y186096D01*
X129866Y185044D01*
Y183956D01*
X130148Y182904D01*
X130692Y181962D01*
X131462Y181192D01*
X132404Y180648D01*
X133456Y180366D01*
X134544D01*
X135596Y180648D01*
X136538Y181192D01*
X137308Y181962D01*
X137852Y182904D01*
X138134Y183956D01*
Y185044D01*
X137852Y186096D01*
X137308Y187038D01*
X136538Y187808D01*
X135596Y188352D01*
X134544Y188634D01*
D02*
G37*
G36*
X124544D02*
X123456D01*
X122404Y188352D01*
X121462Y187808D01*
X120692Y187038D01*
X120148Y186096D01*
X119866Y185044D01*
Y183956D01*
X120148Y182904D01*
X120692Y181962D01*
X121462Y181192D01*
X122404Y180648D01*
X123456Y180366D01*
X124544D01*
X125596Y180648D01*
X126538Y181192D01*
X127308Y181962D01*
X127852Y182904D01*
X128134Y183956D01*
Y185044D01*
X127852Y186096D01*
X127308Y187038D01*
X126538Y187808D01*
X125596Y188352D01*
X124544Y188634D01*
D02*
G37*
G36*
X24000Y181441D02*
Y180000D01*
X25441D01*
X25182Y180624D01*
X24624Y181182D01*
X24000Y181441D01*
D02*
G37*
G36*
X23000D02*
X22376Y181182D01*
X21818Y180624D01*
X21559Y180000D01*
X23000D01*
Y181441D01*
D02*
G37*
G36*
X198500Y180941D02*
Y179500D01*
X199941D01*
X199682Y180124D01*
X199124Y180682D01*
X198500Y180941D01*
D02*
G37*
G36*
X197500D02*
X196876Y180682D01*
X196318Y180124D01*
X196059Y179500D01*
X197500D01*
Y180941D01*
D02*
G37*
G36*
X116941Y179500D02*
X115500D01*
Y178059D01*
X116124Y178318D01*
X116682Y178876D01*
X116941Y179500D01*
D02*
G37*
G36*
X114500D02*
X113059D01*
X113318Y178876D01*
X113876Y178318D01*
X114500Y178059D01*
Y179500D01*
D02*
G37*
G36*
X25441Y179000D02*
X24000D01*
Y177559D01*
X24624Y177818D01*
X25182Y178376D01*
X25441Y179000D01*
D02*
G37*
G36*
X23000D02*
X21559D01*
X21818Y178376D01*
X22376Y177818D01*
X23000Y177559D01*
Y179000D01*
D02*
G37*
G36*
X199941Y178500D02*
X198500D01*
Y177059D01*
X199124Y177318D01*
X199682Y177876D01*
X199941Y178500D01*
D02*
G37*
G36*
X197500D02*
X196059D01*
X196318Y177876D01*
X196876Y177318D01*
X197500Y177059D01*
Y178500D01*
D02*
G37*
G36*
X63500Y172441D02*
Y171000D01*
X64941D01*
X64682Y171624D01*
X64124Y172182D01*
X63500Y172441D01*
D02*
G37*
G36*
X62500D02*
X61876Y172182D01*
X61318Y171624D01*
X61059Y171000D01*
X62500D01*
Y172441D01*
D02*
G37*
G36*
X222544Y179134D02*
X221456D01*
X220404Y178852D01*
X219462Y178308D01*
X218692Y177538D01*
X218148Y176596D01*
X217866Y175544D01*
Y174456D01*
X218148Y173404D01*
X218692Y172462D01*
X219462Y171692D01*
X220404Y171148D01*
X221456Y170866D01*
X222544D01*
X223596Y171148D01*
X224538Y171692D01*
X225308Y172462D01*
X225852Y173404D01*
X226134Y174456D01*
Y175544D01*
X225852Y176596D01*
X225308Y177538D01*
X224538Y178308D01*
X223596Y178852D01*
X222544Y179134D01*
D02*
G37*
G36*
X205000Y171941D02*
Y170500D01*
X206441D01*
X206182Y171124D01*
X205624Y171682D01*
X205000Y171941D01*
D02*
G37*
G36*
X204000D02*
X203376Y171682D01*
X202818Y171124D01*
X202559Y170500D01*
X204000D01*
Y171941D01*
D02*
G37*
G36*
X64941Y170000D02*
X63500D01*
Y168559D01*
X64124Y168818D01*
X64682Y169376D01*
X64941Y170000D01*
D02*
G37*
G36*
X62500D02*
X61059D01*
X61318Y169376D01*
X61876Y168818D01*
X62500Y168559D01*
Y170000D01*
D02*
G37*
G36*
X206441Y169500D02*
X205000D01*
Y168059D01*
X205624Y168318D01*
X206182Y168876D01*
X206441Y169500D01*
D02*
G37*
G36*
X204000D02*
X202559D01*
X202818Y168876D01*
X203376Y168318D01*
X204000Y168059D01*
Y169500D01*
D02*
G37*
G36*
X27141Y382271D02*
X23598D01*
X22570Y382136D01*
X21612Y381739D01*
X20790Y381108D01*
X20159Y380286D01*
X19762Y379328D01*
X19627Y378300D01*
X19762Y377272D01*
X20159Y376314D01*
X20790Y375492D01*
X21612Y374861D01*
X22570Y374464D01*
X23598Y374329D01*
X27141D01*
X28169Y374464D01*
X28749Y374705D01*
X51468Y351986D01*
Y193006D01*
X51575Y192468D01*
X51880Y192012D01*
X77949Y165943D01*
X77647Y165216D01*
X44936D01*
Y351909D01*
X44829Y352447D01*
X44525Y352903D01*
X30736Y366692D01*
X30977Y367272D01*
X31112Y368300D01*
X30977Y369328D01*
X30580Y370286D01*
X29949Y371108D01*
X29126Y371739D01*
X28169Y372136D01*
X27141Y372271D01*
X23598D01*
X22570Y372136D01*
X21612Y371739D01*
X20790Y371108D01*
X20159Y370286D01*
X19762Y369328D01*
X19627Y368300D01*
X19762Y367272D01*
X20159Y366315D01*
X20790Y365492D01*
X21612Y364861D01*
X22570Y364464D01*
X23598Y364329D01*
X27141D01*
X28169Y364464D01*
X28749Y364705D01*
X42127Y351327D01*
Y346330D01*
X41399Y346029D01*
X30736Y356692D01*
X30977Y357272D01*
X31112Y358300D01*
X30977Y359328D01*
X30580Y360285D01*
X29949Y361108D01*
X29126Y361739D01*
X28169Y362136D01*
X27141Y362271D01*
X23598D01*
X22570Y362136D01*
X21612Y361739D01*
X20790Y361108D01*
X20159Y360285D01*
X19762Y359328D01*
X19627Y358300D01*
X19762Y357272D01*
X20159Y356314D01*
X20790Y355492D01*
X21612Y354861D01*
X22570Y354464D01*
X23598Y354329D01*
X27141D01*
X28169Y354464D01*
X28749Y354705D01*
X40158Y343296D01*
Y338299D01*
X39431Y337997D01*
X30736Y346692D01*
X30977Y347272D01*
X31112Y348300D01*
X30977Y349328D01*
X30580Y350286D01*
X29949Y351108D01*
X29126Y351739D01*
X28169Y352136D01*
X27141Y352271D01*
X23598D01*
X22570Y352136D01*
X21612Y351739D01*
X20790Y351108D01*
X20159Y350286D01*
X19762Y349328D01*
X19627Y348300D01*
X19762Y347272D01*
X20159Y346315D01*
X20790Y345492D01*
X21612Y344861D01*
X22570Y344464D01*
X23598Y344329D01*
X27141D01*
X28169Y344464D01*
X28749Y344705D01*
X38190Y335264D01*
Y330267D01*
X37462Y329966D01*
X30736Y336692D01*
X30977Y337272D01*
X31112Y338300D01*
X30977Y339328D01*
X30580Y340285D01*
X29949Y341108D01*
X29126Y341739D01*
X28169Y342136D01*
X27141Y342271D01*
X23598D01*
X22570Y342136D01*
X21612Y341739D01*
X20790Y341108D01*
X20159Y340285D01*
X19762Y339328D01*
X19627Y338300D01*
X19762Y337272D01*
X20159Y336315D01*
X20790Y335492D01*
X21612Y334861D01*
X22570Y334464D01*
X23598Y334329D01*
X27141D01*
X28169Y334464D01*
X28749Y334705D01*
X36221Y327233D01*
Y322236D01*
X35494Y321934D01*
X30736Y326692D01*
X30977Y327272D01*
X31112Y328300D01*
X30977Y329328D01*
X30580Y330286D01*
X29949Y331108D01*
X29126Y331739D01*
X28169Y332136D01*
X27141Y332271D01*
X23598D01*
X22570Y332136D01*
X21612Y331739D01*
X20790Y331108D01*
X20159Y330286D01*
X19762Y329328D01*
X19627Y328300D01*
X19762Y327272D01*
X20159Y326314D01*
X20790Y325492D01*
X21612Y324861D01*
X22570Y324464D01*
X23598Y324329D01*
X27141D01*
X28169Y324464D01*
X28749Y324705D01*
X34253Y319201D01*
Y284204D01*
X33525Y283903D01*
X30736Y286692D01*
X30977Y287272D01*
X31112Y288300D01*
X30977Y289328D01*
X30580Y290285D01*
X29949Y291108D01*
X29126Y291739D01*
X28169Y292136D01*
X27141Y292271D01*
X23598D01*
X22570Y292136D01*
X21612Y291739D01*
X20790Y291108D01*
X20159Y290285D01*
X19762Y289328D01*
X19627Y288300D01*
X19762Y287272D01*
X20159Y286315D01*
X20790Y285492D01*
X21612Y284861D01*
X22570Y284464D01*
X23598Y284329D01*
X27141D01*
X28169Y284464D01*
X28749Y284705D01*
X32284Y281170D01*
Y276173D01*
X31557Y275871D01*
X30736Y276692D01*
X30977Y277272D01*
X31112Y278300D01*
X30977Y279328D01*
X30580Y280286D01*
X29949Y281108D01*
X29126Y281739D01*
X28169Y282136D01*
X27141Y282271D01*
X23598D01*
X22570Y282136D01*
X21612Y281739D01*
X20790Y281108D01*
X20159Y280286D01*
X19762Y279328D01*
X19627Y278300D01*
X19762Y277272D01*
X20159Y276314D01*
X20790Y275492D01*
X21612Y274861D01*
X22570Y274464D01*
X23598Y274329D01*
X27141D01*
X28169Y274464D01*
X28749Y274705D01*
X30316Y273138D01*
Y271819D01*
X29528Y271431D01*
X29126Y271739D01*
X28169Y272136D01*
X27141Y272271D01*
X23598D01*
X22570Y272136D01*
X21612Y271739D01*
X20790Y271108D01*
X20159Y270286D01*
X19762Y269328D01*
X19627Y268300D01*
X19762Y267272D01*
X20159Y266315D01*
X20790Y265492D01*
X21612Y264861D01*
X22570Y264464D01*
X23598Y264329D01*
X27141D01*
X28169Y264464D01*
X29126Y264861D01*
X29528Y265169D01*
X30316Y264781D01*
Y261819D01*
X29528Y261431D01*
X29126Y261739D01*
X28169Y262136D01*
X27141Y262271D01*
X23598D01*
X22570Y262136D01*
X21612Y261739D01*
X20790Y261108D01*
X20159Y260285D01*
X19762Y259328D01*
X19627Y258300D01*
X19762Y257272D01*
X20159Y256314D01*
X20790Y255492D01*
X21612Y254861D01*
X22570Y254464D01*
X23598Y254329D01*
X27141D01*
X28169Y254464D01*
X29126Y254861D01*
X29528Y255169D01*
X30316Y254781D01*
Y251819D01*
X29528Y251431D01*
X29126Y251739D01*
X28169Y252136D01*
X27141Y252271D01*
X23598D01*
X22570Y252136D01*
X21612Y251739D01*
X20790Y251108D01*
X20159Y250286D01*
X19762Y249328D01*
X19627Y248300D01*
X19762Y247272D01*
X20159Y246315D01*
X20790Y245492D01*
X21612Y244861D01*
X22570Y244464D01*
X23598Y244329D01*
X27141D01*
X28169Y244464D01*
X29126Y244861D01*
X29528Y245169D01*
X30316Y244781D01*
Y241819D01*
X29528Y241431D01*
X29126Y241739D01*
X28169Y242136D01*
X27141Y242271D01*
X23598D01*
X22570Y242136D01*
X21612Y241739D01*
X20790Y241108D01*
X20159Y240285D01*
X19762Y239328D01*
X19627Y238300D01*
X19762Y237272D01*
X20159Y236315D01*
X20790Y235492D01*
X21612Y234861D01*
X22570Y234464D01*
X23598Y234329D01*
X27141D01*
X28169Y234464D01*
X29126Y234861D01*
X29528Y235169D01*
X30316Y234781D01*
Y231819D01*
X29528Y231431D01*
X29126Y231739D01*
X28169Y232136D01*
X27141Y232271D01*
X23598D01*
X22570Y232136D01*
X21612Y231739D01*
X20790Y231108D01*
X20159Y230286D01*
X19762Y229328D01*
X19627Y228300D01*
X19762Y227272D01*
X20159Y226314D01*
X20790Y225492D01*
X21612Y224861D01*
X22570Y224464D01*
X23598Y224329D01*
X27141D01*
X28169Y224464D01*
X29126Y224861D01*
X29528Y225169D01*
X30316Y224781D01*
Y221819D01*
X29528Y221431D01*
X29126Y221739D01*
X28169Y222136D01*
X27141Y222271D01*
X23598D01*
X22570Y222136D01*
X21612Y221739D01*
X20790Y221108D01*
X20159Y220286D01*
X19762Y219328D01*
X19627Y218300D01*
X19762Y217272D01*
X20159Y216315D01*
X20790Y215492D01*
X21612Y214861D01*
X22570Y214464D01*
X23598Y214329D01*
X27141D01*
X28169Y214464D01*
X29126Y214861D01*
X29528Y215169D01*
X30316Y214781D01*
Y211819D01*
X29528Y211431D01*
X29126Y211739D01*
X28169Y212136D01*
X27141Y212271D01*
X23598D01*
X22570Y212136D01*
X21612Y211739D01*
X20790Y211108D01*
X20159Y210285D01*
X19762Y209328D01*
X19627Y208300D01*
X19762Y207272D01*
X20159Y206314D01*
X20790Y205492D01*
X21612Y204861D01*
X22570Y204464D01*
X23598Y204329D01*
X27141D01*
X28169Y204464D01*
X29126Y204861D01*
X29528Y205169D01*
X30316Y204781D01*
Y201819D01*
X29528Y201431D01*
X29126Y201739D01*
X28169Y202136D01*
X27141Y202271D01*
X23598D01*
X22570Y202136D01*
X21612Y201739D01*
X20790Y201108D01*
X20159Y200286D01*
X19762Y199328D01*
X19627Y198300D01*
X19762Y197272D01*
X20159Y196315D01*
X20790Y195492D01*
X21612Y194861D01*
X22570Y194464D01*
X23598Y194329D01*
X27141D01*
X28169Y194464D01*
X29126Y194861D01*
X29528Y195169D01*
X30316Y194781D01*
Y191819D01*
X29528Y191431D01*
X29126Y191739D01*
X28169Y192136D01*
X27141Y192271D01*
X23598D01*
X22570Y192136D01*
X21612Y191739D01*
X20790Y191108D01*
X20159Y190286D01*
X19762Y189328D01*
X19627Y188300D01*
X19762Y187272D01*
X20159Y186314D01*
X20790Y185492D01*
X21612Y184861D01*
X22570Y184464D01*
X23598Y184329D01*
X27141D01*
X28169Y184464D01*
X29126Y184861D01*
X29528Y185169D01*
X30316Y184781D01*
Y158984D01*
X30422Y158447D01*
X30727Y157991D01*
X37711Y151006D01*
X38167Y150702D01*
X38705Y150595D01*
X83398D01*
X114997Y118996D01*
X115453Y118691D01*
X115991Y118584D01*
X123907D01*
X124404Y117797D01*
X124326Y117609D01*
X126267D01*
Y117109D01*
X126767D01*
Y115168D01*
X127391Y115427D01*
X127949Y115985D01*
X128612Y116117D01*
X132317Y112412D01*
X132773Y112108D01*
X133311Y112001D01*
X141900D01*
X141996Y111904D01*
X142648Y111634D01*
X143352D01*
X144004Y111904D01*
X144502Y112402D01*
X144772Y113053D01*
Y113758D01*
X144502Y114409D01*
X144004Y114908D01*
X143352Y115177D01*
X142648D01*
X141996Y114908D01*
X141900Y114811D01*
X133893D01*
X131617Y117086D01*
X131692Y117969D01*
X132190Y118468D01*
X132904Y118609D01*
X133507Y118007D01*
X133962Y117702D01*
X134500Y117595D01*
X138622D01*
X139160Y117702D01*
X139390Y117856D01*
X140214Y117032D01*
X140670Y116728D01*
X141207Y116621D01*
X142132D01*
X142380Y116373D01*
X143031Y116103D01*
X143736D01*
X144387Y116373D01*
X144886Y116871D01*
X145155Y117523D01*
Y118227D01*
X144886Y118878D01*
X144387Y119377D01*
X144269Y119426D01*
X143738Y119656D01*
X143871Y120366D01*
Y121070D01*
X143601Y121721D01*
X143103Y122220D01*
X142452Y122490D01*
X142233Y122808D01*
X142647Y123595D01*
X144153D01*
X144691Y123702D01*
X144885Y123831D01*
X145290D01*
X145941Y124101D01*
X146440Y124599D01*
X146710Y125250D01*
Y125955D01*
X146440Y126607D01*
X145941Y127105D01*
X145290Y127374D01*
X144901D01*
X144875Y127412D01*
Y128117D01*
X144606Y128768D01*
X144264Y129110D01*
X144669Y129516D01*
X144939Y130167D01*
Y130872D01*
X144669Y131523D01*
X144171Y132021D01*
X143520Y132291D01*
X142815D01*
X142164Y132021D01*
X142143Y132000D01*
X141355Y132320D01*
Y132490D01*
X141086Y133141D01*
X140587Y133640D01*
X139936Y133909D01*
X139231D01*
X138580Y133640D01*
X138483Y133543D01*
X136434D01*
X134381Y135596D01*
X133926Y135900D01*
X133388Y136007D01*
X126175D01*
X125706Y136638D01*
X123643D01*
Y137638D01*
X125698D01*
X126003Y138095D01*
X139640D01*
X139945Y137638D01*
X144055D01*
X144360Y138095D01*
X153418D01*
X160228Y131285D01*
Y131148D01*
X160498Y130496D01*
X160996Y129998D01*
X161648Y129728D01*
X162352D01*
X163004Y129998D01*
X163005Y129999D01*
X163619Y130386D01*
X164033Y129999D01*
X164134Y129899D01*
X164785Y129629D01*
X165490D01*
X166141Y129899D01*
X166640Y130397D01*
X166903Y131034D01*
X166926Y131056D01*
X167675Y131404D01*
X168091Y131148D01*
X168360Y130496D01*
X168859Y129998D01*
X169510Y129728D01*
X170215D01*
X170866Y129998D01*
X170974Y130107D01*
X171384Y130484D01*
X172003Y130107D01*
X172008Y130101D01*
X172659Y129832D01*
X173364D01*
X174015Y130101D01*
X174514Y130600D01*
X174784Y131251D01*
Y131956D01*
X174514Y132607D01*
X174417Y132704D01*
Y133580D01*
X174793Y133956D01*
X175097Y134412D01*
X175204Y134950D01*
Y142195D01*
X175992Y142522D01*
X178300Y140213D01*
Y132704D01*
X178203Y132607D01*
X177933Y131956D01*
Y131251D01*
X178203Y130600D01*
X178701Y130101D01*
X179352Y129832D01*
X180057D01*
X180708Y130101D01*
X181083Y130476D01*
X181457Y130101D01*
X182108Y129832D01*
X182813D01*
X183308Y130036D01*
X183847Y129808D01*
X184095Y129619D01*
Y117601D01*
X183998Y117504D01*
X183728Y116852D01*
Y116148D01*
X183998Y115496D01*
X184496Y114998D01*
X185148Y114728D01*
X185852D01*
X186504Y114998D01*
X187200Y114581D01*
X187776Y114005D01*
Y113295D01*
X187560Y112774D01*
Y112069D01*
X187830Y111418D01*
X188328Y110919D01*
X188979Y110650D01*
X189684D01*
X190335Y110919D01*
X190834Y111418D01*
X191103Y112069D01*
Y112774D01*
X190834Y113425D01*
X190586Y113672D01*
Y114587D01*
X190479Y115124D01*
X190175Y115580D01*
X189405Y116350D01*
Y142500D01*
X189298Y143038D01*
X188994Y143493D01*
X164494Y167993D01*
X164493Y167993D01*
X152746Y179741D01*
X153153Y180447D01*
X153456Y180366D01*
X154544D01*
X155596Y180648D01*
X156538Y181192D01*
X157308Y181962D01*
X157852Y182904D01*
X158134Y183956D01*
Y185044D01*
X157852Y186096D01*
X157308Y187038D01*
X156538Y187808D01*
X155596Y188352D01*
X154544Y188634D01*
X153456D01*
X152404Y188352D01*
X151462Y187808D01*
X151220Y187566D01*
X150432Y187892D01*
Y189473D01*
X150325Y190010D01*
X150021Y190466D01*
X147753Y192734D01*
X147852Y192904D01*
X148134Y193956D01*
Y195044D01*
X147852Y196096D01*
X147308Y197038D01*
X146538Y197808D01*
X145596Y198352D01*
X144544Y198634D01*
X143456D01*
X142404Y198352D01*
X141462Y197808D01*
X140692Y197038D01*
X140148Y196096D01*
X139866Y195044D01*
Y193956D01*
X140148Y192904D01*
X140692Y191962D01*
X141462Y191192D01*
X142404Y190648D01*
X143456Y190366D01*
X144544D01*
X145596Y190648D01*
X145766Y190747D01*
X147622Y188891D01*
Y187837D01*
X146835Y187511D01*
X146538Y187808D01*
X145596Y188352D01*
X144544Y188634D01*
X143456D01*
X142404Y188352D01*
X141462Y187808D01*
X140692Y187038D01*
X140148Y186096D01*
X139866Y185044D01*
Y183956D01*
X140148Y182904D01*
X140692Y181962D01*
X141462Y181192D01*
X142404Y180648D01*
X143456Y180366D01*
X144544D01*
X145190Y180539D01*
X172254Y153475D01*
X172128Y153038D01*
X171900Y152716D01*
X124225D01*
X96389Y180552D01*
X95933Y180857D01*
X95395Y180964D01*
X90243D01*
X87572Y183635D01*
X87873Y184363D01*
X91078D01*
Y192237D01*
X80475D01*
Y193191D01*
X81989Y194705D01*
X82570Y194464D01*
X83598Y194329D01*
X87141D01*
X88169Y194464D01*
X89126Y194861D01*
X89949Y195492D01*
X90580Y196315D01*
X90977Y197272D01*
X91112Y198300D01*
X90977Y199328D01*
X90580Y200286D01*
X89949Y201108D01*
X89126Y201739D01*
X88169Y202136D01*
X87141Y202271D01*
X83598D01*
X82570Y202136D01*
X81612Y201739D01*
X80790Y201108D01*
X80159Y200286D01*
X79762Y199328D01*
X79627Y198300D01*
X79762Y197272D01*
X80002Y196692D01*
X79234Y195923D01*
X78506Y196225D01*
Y236668D01*
X78827Y236989D01*
X78976Y237211D01*
X79339Y237240D01*
X79814Y237146D01*
X80159Y236315D01*
X80790Y235492D01*
X81612Y234861D01*
X82570Y234464D01*
X83598Y234329D01*
X87141D01*
X88169Y234464D01*
X89126Y234861D01*
X89949Y235492D01*
X90580Y236315D01*
X90977Y237272D01*
X91112Y238300D01*
X90977Y239328D01*
X90580Y240285D01*
X89949Y241108D01*
X89126Y241739D01*
X88169Y242136D01*
X87141Y242271D01*
X83598D01*
X82570Y242136D01*
X81612Y241739D01*
X80790Y241108D01*
X80159Y240285D01*
X80026Y239966D01*
X79239Y240122D01*
Y246478D01*
X80026Y246634D01*
X80159Y246315D01*
X80790Y245492D01*
X81612Y244861D01*
X82570Y244464D01*
X83598Y244329D01*
X87141D01*
X88169Y244464D01*
X89126Y244861D01*
X89949Y245492D01*
X90580Y246315D01*
X90977Y247272D01*
X91112Y248300D01*
X90977Y249328D01*
X90580Y250286D01*
X89949Y251108D01*
X89126Y251739D01*
X88169Y252136D01*
X87141Y252271D01*
X83598D01*
X82570Y252136D01*
X81612Y251739D01*
X80790Y251108D01*
X80159Y250286D01*
X80026Y249966D01*
X79239Y250122D01*
Y256478D01*
X80026Y256634D01*
X80159Y256314D01*
X80790Y255492D01*
X81612Y254861D01*
X82570Y254464D01*
X83598Y254329D01*
X87141D01*
X88169Y254464D01*
X89126Y254861D01*
X89949Y255492D01*
X90580Y256314D01*
X90977Y257272D01*
X91112Y258300D01*
X90977Y259328D01*
X90580Y260285D01*
X89949Y261108D01*
X89126Y261739D01*
X88169Y262136D01*
X87141Y262271D01*
X83598D01*
X82570Y262136D01*
X81612Y261739D01*
X80790Y261108D01*
X80159Y260285D01*
X80026Y259966D01*
X79239Y260122D01*
Y266478D01*
X80026Y266634D01*
X80159Y266315D01*
X80790Y265492D01*
X81612Y264861D01*
X82570Y264464D01*
X83598Y264329D01*
X87141D01*
X88169Y264464D01*
X89126Y264861D01*
X89949Y265492D01*
X90580Y266315D01*
X90977Y267272D01*
X91112Y268300D01*
X90977Y269328D01*
X90580Y270286D01*
X89949Y271108D01*
X89126Y271739D01*
X88169Y272136D01*
X87141Y272271D01*
X83598D01*
X82570Y272136D01*
X81612Y271739D01*
X80790Y271108D01*
X80159Y270286D01*
X80026Y269966D01*
X79239Y270122D01*
Y276478D01*
X80026Y276634D01*
X80159Y276314D01*
X80790Y275492D01*
X81612Y274861D01*
X82570Y274464D01*
X83598Y274329D01*
X87141D01*
X88169Y274464D01*
X89126Y274861D01*
X89949Y275492D01*
X90580Y276314D01*
X90977Y277272D01*
X91112Y278300D01*
X90977Y279328D01*
X90580Y280286D01*
X89949Y281108D01*
X89126Y281739D01*
X88169Y282136D01*
X87141Y282271D01*
X83598D01*
X82570Y282136D01*
X81612Y281739D01*
X80790Y281108D01*
X80159Y280286D01*
X80026Y279966D01*
X79239Y280122D01*
Y286478D01*
X80026Y286634D01*
X80159Y286315D01*
X80790Y285492D01*
X81612Y284861D01*
X82570Y284464D01*
X83598Y284329D01*
X87141D01*
X88169Y284464D01*
X89126Y284861D01*
X89949Y285492D01*
X90580Y286315D01*
X90977Y287272D01*
X91112Y288300D01*
X90977Y289328D01*
X90580Y290285D01*
X89949Y291108D01*
X89126Y291739D01*
X88169Y292136D01*
X87141Y292271D01*
X83598D01*
X82570Y292136D01*
X81612Y291739D01*
X80790Y291108D01*
X80159Y290285D01*
X80026Y289966D01*
X79239Y290122D01*
Y291954D01*
X81989Y294705D01*
X82570Y294464D01*
X83598Y294329D01*
X87141D01*
X88169Y294464D01*
X89126Y294861D01*
X89949Y295492D01*
X90580Y296315D01*
X90977Y297272D01*
X91112Y298300D01*
X90977Y299328D01*
X90580Y300286D01*
X89949Y301108D01*
X89126Y301739D01*
X88169Y302136D01*
X87141Y302271D01*
X83598D01*
X82570Y302136D01*
X81612Y301739D01*
X80790Y301108D01*
X80159Y300286D01*
X79762Y299328D01*
X79627Y298300D01*
X79762Y297272D01*
X80002Y296692D01*
X77998Y294687D01*
X77270Y294988D01*
Y299986D01*
X81989Y304705D01*
X82570Y304464D01*
X83598Y304329D01*
X87141D01*
X88169Y304464D01*
X89126Y304861D01*
X89949Y305492D01*
X90580Y306314D01*
X90977Y307272D01*
X91112Y308300D01*
X90977Y309328D01*
X90580Y310285D01*
X89949Y311108D01*
X89126Y311739D01*
X88169Y312136D01*
X87141Y312271D01*
X83598D01*
X82570Y312136D01*
X81612Y311739D01*
X80790Y311108D01*
X80159Y310285D01*
X79762Y309328D01*
X79627Y308300D01*
X79762Y307272D01*
X80002Y306692D01*
X76029Y302718D01*
X75302Y303020D01*
Y308017D01*
X81989Y314705D01*
X82570Y314464D01*
X83598Y314329D01*
X87141D01*
X88169Y314464D01*
X89126Y314861D01*
X89949Y315492D01*
X90580Y316315D01*
X90977Y317272D01*
X91112Y318300D01*
X90977Y319328D01*
X90580Y320286D01*
X89949Y321108D01*
X89126Y321739D01*
X88169Y322136D01*
X87141Y322271D01*
X83598D01*
X82570Y322136D01*
X81612Y321739D01*
X80790Y321108D01*
X80159Y320286D01*
X79762Y319328D01*
X79627Y318300D01*
X79762Y317272D01*
X80002Y316692D01*
X72903Y309593D01*
X72599Y309137D01*
X72492Y308599D01*
Y291742D01*
X72361Y291688D01*
X71705Y291498D01*
X70889Y291969D01*
X69888Y292237D01*
X68851D01*
X67850Y291969D01*
X66952Y291450D01*
X66692Y291191D01*
X65905Y291517D01*
Y308620D01*
X81989Y324705D01*
X82570Y324464D01*
X83598Y324329D01*
X87141D01*
X88169Y324464D01*
X89126Y324861D01*
X89949Y325492D01*
X90580Y326314D01*
X90977Y327272D01*
X91112Y328300D01*
X90977Y329328D01*
X90580Y330286D01*
X89949Y331108D01*
X89126Y331739D01*
X88169Y332136D01*
X87141Y332271D01*
X83598D01*
X82570Y332136D01*
X81612Y331739D01*
X80790Y331108D01*
X80159Y330286D01*
X79762Y329328D01*
X79627Y328300D01*
X79762Y327272D01*
X80002Y326692D01*
X63507Y310196D01*
X63202Y309740D01*
X63095Y309202D01*
Y291556D01*
X62308Y291230D01*
X61917Y291620D01*
X60971Y292167D01*
X59916Y292450D01*
X59869D01*
Y288300D01*
Y284150D01*
X59916D01*
X60971Y284433D01*
X61917Y284980D01*
X62308Y285370D01*
X63095Y285044D01*
Y188583D01*
X62368Y188282D01*
X56405Y194245D01*
Y284327D01*
X57192Y284765D01*
X57768Y284433D01*
X58823Y284150D01*
X58869D01*
Y288300D01*
Y292450D01*
X58823D01*
X57768Y292167D01*
X57034Y291743D01*
X56247Y292067D01*
Y308962D01*
X81989Y334705D01*
X82570Y334464D01*
X83598Y334329D01*
X87141D01*
X88169Y334464D01*
X89126Y334861D01*
X89949Y335492D01*
X90580Y336315D01*
X90977Y337272D01*
X91112Y338300D01*
X90977Y339328D01*
X90580Y340285D01*
X89949Y341108D01*
X89126Y341739D01*
X88169Y342136D01*
X87141Y342271D01*
X83598D01*
X82570Y342136D01*
X81612Y341739D01*
X80790Y341108D01*
X80159Y340285D01*
X79762Y339328D01*
X79627Y338300D01*
X79762Y337272D01*
X80002Y336692D01*
X55006Y311695D01*
X54278Y311996D01*
Y317985D01*
X55016Y318105D01*
X55318Y317376D01*
X55876Y316818D01*
X56500Y316559D01*
Y318500D01*
Y320441D01*
X55876Y320182D01*
X55318Y319624D01*
X55016Y318895D01*
X54278Y319015D01*
Y352568D01*
X54171Y353105D01*
X53867Y353561D01*
X30736Y376692D01*
X30977Y377272D01*
X31112Y378300D01*
X30977Y379328D01*
X30580Y380286D01*
X29949Y381108D01*
X29126Y381739D01*
X28169Y382136D01*
X27141Y382271D01*
D02*
G37*
G36*
X222544Y169134D02*
X221456D01*
X220404Y168852D01*
X219462Y168308D01*
X218692Y167538D01*
X218148Y166596D01*
X217866Y165544D01*
Y164456D01*
X218148Y163404D01*
X218692Y162462D01*
X219462Y161692D01*
X220404Y161148D01*
X221456Y160866D01*
X222544D01*
X223596Y161148D01*
X224538Y161692D01*
X225308Y162462D01*
X225852Y163404D01*
X226134Y164456D01*
Y165544D01*
X225852Y166596D01*
X225308Y167538D01*
X224538Y168308D01*
X223596Y168852D01*
X222544Y169134D01*
D02*
G37*
G36*
X216000Y161941D02*
Y160500D01*
X217441D01*
X217182Y161124D01*
X216624Y161682D01*
X216000Y161941D01*
D02*
G37*
G36*
X215000D02*
X214376Y161682D01*
X213818Y161124D01*
X213559Y160500D01*
X215000D01*
Y161941D01*
D02*
G37*
G36*
X217441Y159500D02*
X216000D01*
Y158059D01*
X216624Y158318D01*
X217182Y158876D01*
X217441Y159500D01*
D02*
G37*
G36*
X215000D02*
X213559D01*
X213818Y158876D01*
X214376Y158318D01*
X215000Y158059D01*
Y159500D01*
D02*
G37*
G36*
X222544Y159134D02*
X221456D01*
X220404Y158852D01*
X219462Y158308D01*
X218692Y157538D01*
X218148Y156596D01*
X217866Y155544D01*
Y154456D01*
X218148Y153404D01*
X218692Y152462D01*
X219462Y151692D01*
X220404Y151148D01*
X221456Y150866D01*
X222544D01*
X223596Y151148D01*
X224538Y151692D01*
X225308Y152462D01*
X225852Y153404D01*
X226134Y154456D01*
Y155544D01*
X225852Y156596D01*
X225308Y157538D01*
X224538Y158308D01*
X223596Y158852D01*
X222544Y159134D01*
D02*
G37*
G36*
X226134Y149134D02*
X217866D01*
Y140866D01*
X226134D01*
Y149134D01*
D02*
G37*
G36*
X143941Y136638D02*
X142500D01*
Y135197D01*
X143124Y135456D01*
X143682Y136014D01*
X143941Y136638D01*
D02*
G37*
G36*
X141500D02*
X140059D01*
X140318Y136014D01*
X140876Y135456D01*
X141500Y135197D01*
Y136638D01*
D02*
G37*
G36*
X197500Y135228D02*
Y133787D01*
X198941D01*
X198682Y134411D01*
X198124Y134970D01*
X197500Y135228D01*
D02*
G37*
G36*
X196500D02*
X195876Y134970D01*
X195318Y134411D01*
X195059Y133787D01*
X196500D01*
Y135228D01*
D02*
G37*
G36*
X73018Y141437D02*
X71982D01*
X70980Y141169D01*
X70083Y140650D01*
X69350Y139917D01*
X68831Y139020D01*
X68563Y138018D01*
Y136982D01*
X68831Y135980D01*
X69350Y135083D01*
X70083Y134350D01*
X70980Y133831D01*
X71982Y133563D01*
X73018D01*
X74020Y133831D01*
X74917Y134350D01*
X75650Y135083D01*
X76169Y135980D01*
X76437Y136982D01*
Y138018D01*
X76169Y139020D01*
X75650Y139917D01*
X74917Y140650D01*
X74020Y141169D01*
X73018Y141437D01*
D02*
G37*
G36*
X63018D02*
X61982D01*
X60980Y141169D01*
X60083Y140650D01*
X59350Y139917D01*
X58831Y139020D01*
X58563Y138018D01*
Y136982D01*
X58831Y135980D01*
X59350Y135083D01*
X60083Y134350D01*
X60980Y133831D01*
X61982Y133563D01*
X63018D01*
X64020Y133831D01*
X64917Y134350D01*
X65650Y135083D01*
X66169Y135980D01*
X66437Y136982D01*
Y138018D01*
X66169Y139020D01*
X65650Y139917D01*
X64917Y140650D01*
X64020Y141169D01*
X63018Y141437D01*
D02*
G37*
G36*
X82000Y137000D02*
X78350D01*
Y136954D01*
X78633Y135898D01*
X79180Y134952D01*
X79952Y134179D01*
X80898Y133633D01*
X81954Y133350D01*
X82000D01*
Y137000D01*
D02*
G37*
G36*
X154500Y133341D02*
Y131901D01*
X155941D01*
X155682Y132525D01*
X155124Y133083D01*
X154500Y133341D01*
D02*
G37*
G36*
X153500D02*
X152876Y133083D01*
X152318Y132525D01*
X152059Y131901D01*
X153500D01*
Y133341D01*
D02*
G37*
G36*
X198941Y132787D02*
X197500D01*
Y131347D01*
X198124Y131605D01*
X198682Y132163D01*
X198941Y132787D01*
D02*
G37*
G36*
X196500D02*
X195059D01*
X195318Y132163D01*
X195876Y131605D01*
X196500Y131347D01*
Y132787D01*
D02*
G37*
G36*
X58500Y132441D02*
Y131000D01*
X59941D01*
X59682Y131624D01*
X59124Y132182D01*
X58500Y132441D01*
D02*
G37*
G36*
X57500D02*
X56876Y132182D01*
X56318Y131624D01*
X56059Y131000D01*
X57500D01*
Y132441D01*
D02*
G37*
G36*
X16500Y131939D02*
Y129500D01*
X18939D01*
X18766Y130146D01*
X18375Y130823D01*
X17823Y131375D01*
X17146Y131766D01*
X16500Y131939D01*
D02*
G37*
G36*
X15500D02*
X14854Y131766D01*
X14177Y131375D01*
X13625Y130823D01*
X13234Y130146D01*
X13061Y129500D01*
X15500D01*
Y131939D01*
D02*
G37*
G36*
X155941Y130901D02*
X154500D01*
Y129460D01*
X155124Y129718D01*
X155682Y130277D01*
X155941Y130901D01*
D02*
G37*
G36*
X153500D02*
X152059D01*
X152318Y130277D01*
X152876Y129718D01*
X153500Y129460D01*
Y130901D01*
D02*
G37*
G36*
X59941Y130000D02*
X58500D01*
Y128559D01*
X59124Y128818D01*
X59682Y129376D01*
X59941Y130000D01*
D02*
G37*
G36*
X57500D02*
X56059D01*
X56318Y129376D01*
X56876Y128818D01*
X57500Y128559D01*
Y130000D01*
D02*
G37*
G36*
X18939Y128500D02*
X16500D01*
Y126061D01*
X17146Y126234D01*
X17823Y126625D01*
X18375Y127177D01*
X18766Y127854D01*
X18939Y128500D01*
D02*
G37*
G36*
X15500D02*
X13061D01*
X13234Y127854D01*
X13625Y127177D01*
X14177Y126625D01*
X14854Y126234D01*
X15500Y126061D01*
Y128500D01*
D02*
G37*
G36*
X83046Y126650D02*
X83000D01*
Y123000D01*
X86650D01*
Y123046D01*
X86367Y124102D01*
X85821Y125048D01*
X85048Y125821D01*
X84102Y126367D01*
X83046Y126650D01*
D02*
G37*
G36*
X82000D02*
X81954D01*
X80898Y126367D01*
X79952Y125821D01*
X79180Y125048D01*
X78633Y124102D01*
X78350Y123046D01*
Y123000D01*
X82000D01*
Y126650D01*
D02*
G37*
G36*
X173000Y121867D02*
Y120000D01*
X174867D01*
X174516Y120847D01*
X173847Y121516D01*
X173000Y121867D01*
D02*
G37*
G36*
X172000D02*
X171153Y121516D01*
X170484Y120847D01*
X170133Y120000D01*
X172000D01*
Y121867D01*
D02*
G37*
G36*
X73018Y126437D02*
X71982D01*
X70980Y126169D01*
X70083Y125650D01*
X69350Y124917D01*
X68831Y124020D01*
X68563Y123018D01*
Y121982D01*
X68831Y120980D01*
X69350Y120083D01*
X70083Y119350D01*
X70980Y118831D01*
X71982Y118563D01*
X73018D01*
X74020Y118831D01*
X74917Y119350D01*
X75650Y120083D01*
X76169Y120980D01*
X76437Y121982D01*
Y123018D01*
X76169Y124020D01*
X75650Y124917D01*
X74917Y125650D01*
X74020Y126169D01*
X73018Y126437D01*
D02*
G37*
G36*
X63018D02*
X61982D01*
X60980Y126169D01*
X60083Y125650D01*
X59350Y124917D01*
X58831Y124020D01*
X58563Y123018D01*
Y121982D01*
X58831Y120980D01*
X59350Y120083D01*
X60083Y119350D01*
X60980Y118831D01*
X61982Y118563D01*
X63018D01*
X64020Y118831D01*
X64917Y119350D01*
X65650Y120083D01*
X66169Y120980D01*
X66437Y121982D01*
Y123018D01*
X66169Y124020D01*
X65650Y124917D01*
X64917Y125650D01*
X64020Y126169D01*
X63018Y126437D01*
D02*
G37*
G36*
X53018D02*
X51982D01*
X50980Y126169D01*
X50083Y125650D01*
X49350Y124917D01*
X48831Y124020D01*
X48563Y123018D01*
Y121982D01*
X48831Y120980D01*
X49350Y120083D01*
X50083Y119350D01*
X50980Y118831D01*
X51982Y118563D01*
X53018D01*
X54020Y118831D01*
X54917Y119350D01*
X55650Y120083D01*
X56169Y120980D01*
X56437Y121982D01*
Y123018D01*
X56169Y124020D01*
X55650Y124917D01*
X54917Y125650D01*
X54020Y126169D01*
X53018Y126437D01*
D02*
G37*
G36*
X86650Y122000D02*
X83000D01*
Y118350D01*
X83046D01*
X84102Y118633D01*
X85048Y119179D01*
X85821Y119952D01*
X86367Y120898D01*
X86650Y121954D01*
Y122000D01*
D02*
G37*
G36*
X82000D02*
X78350D01*
Y121954D01*
X78633Y120898D01*
X79180Y119952D01*
X79952Y119179D01*
X80898Y118633D01*
X81954Y118350D01*
X82000D01*
Y122000D01*
D02*
G37*
G36*
X164000Y118941D02*
Y117500D01*
X165441D01*
X165182Y118124D01*
X164624Y118682D01*
X164000Y118941D01*
D02*
G37*
G36*
X163000D02*
X162376Y118682D01*
X161818Y118124D01*
X161559Y117500D01*
X163000D01*
Y118941D01*
D02*
G37*
G36*
X174867Y119000D02*
X173000D01*
Y117133D01*
X173847Y117484D01*
X174516Y118153D01*
X174867Y119000D01*
D02*
G37*
G36*
X172000D02*
X170133D01*
X170484Y118153D01*
X171153Y117484D01*
X172000Y117133D01*
Y119000D01*
D02*
G37*
G36*
X58500Y117441D02*
Y116000D01*
X59941D01*
X59682Y116624D01*
X59124Y117182D01*
X58500Y117441D01*
D02*
G37*
G36*
X57500D02*
X56876Y117182D01*
X56318Y116624D01*
X56059Y116000D01*
X57500D01*
Y117441D01*
D02*
G37*
G36*
X125767Y116609D02*
X124326D01*
X124584Y115985D01*
X125143Y115427D01*
X125767Y115168D01*
Y116609D01*
D02*
G37*
G36*
X165441Y116500D02*
X164000D01*
Y115059D01*
X164624Y115318D01*
X165182Y115876D01*
X165441Y116500D01*
D02*
G37*
G36*
X163000D02*
X161559D01*
X161818Y115876D01*
X162376Y115318D01*
X163000Y115059D01*
Y116500D01*
D02*
G37*
G36*
X59941Y115000D02*
X58500D01*
Y113559D01*
X59124Y113818D01*
X59682Y114376D01*
X59941Y115000D01*
D02*
G37*
G36*
X57500D02*
X56059D01*
X56318Y114376D01*
X56876Y113818D01*
X57500Y113559D01*
Y115000D01*
D02*
G37*
G36*
X224500Y112441D02*
X223876Y112182D01*
X223318Y111624D01*
X223059Y111000D01*
X224500D01*
Y112441D01*
D02*
G37*
G36*
X161500D02*
Y111000D01*
X162941D01*
X162682Y111624D01*
X162124Y112182D01*
X161500Y112441D01*
D02*
G37*
G36*
X160500D02*
X159876Y112182D01*
X159318Y111624D01*
X159059Y111000D01*
X160500D01*
Y112441D01*
D02*
G37*
G36*
X224500Y110000D02*
X223059D01*
X223318Y109376D01*
X223876Y108818D01*
X224500Y108559D01*
Y110000D01*
D02*
G37*
G36*
X162941D02*
X161500D01*
Y108559D01*
X162124Y108818D01*
X162682Y109376D01*
X162941Y110000D01*
D02*
G37*
G36*
X160500D02*
X159059D01*
X159318Y109376D01*
X159876Y108818D01*
X160500Y108559D01*
Y110000D01*
D02*
G37*
G36*
X83046Y111650D02*
X83000D01*
Y108000D01*
X86650D01*
Y108046D01*
X86367Y109102D01*
X85821Y110048D01*
X85048Y110820D01*
X84102Y111367D01*
X83046Y111650D01*
D02*
G37*
G36*
X82000D02*
X81954D01*
X80898Y111367D01*
X79952Y110820D01*
X79180Y110048D01*
X78633Y109102D01*
X78350Y108046D01*
Y108000D01*
X82000D01*
Y111650D01*
D02*
G37*
G36*
X157000Y106941D02*
Y105500D01*
X158441D01*
X158182Y106124D01*
X157624Y106682D01*
X157000Y106941D01*
D02*
G37*
G36*
X156000D02*
X155376Y106682D01*
X154818Y106124D01*
X154559Y105500D01*
X156000D01*
Y106941D01*
D02*
G37*
G36*
X73018Y111437D02*
X71982D01*
X70980Y111169D01*
X70083Y110650D01*
X69350Y109917D01*
X68831Y109020D01*
X68563Y108018D01*
Y106982D01*
X68831Y105980D01*
X69350Y105083D01*
X70083Y104350D01*
X70980Y103831D01*
X71982Y103563D01*
X73018D01*
X74020Y103831D01*
X74917Y104350D01*
X75650Y105083D01*
X76169Y105980D01*
X76437Y106982D01*
Y108018D01*
X76169Y109020D01*
X75650Y109917D01*
X74917Y110650D01*
X74020Y111169D01*
X73018Y111437D01*
D02*
G37*
G36*
X63018D02*
X61982D01*
X60980Y111169D01*
X60083Y110650D01*
X59350Y109917D01*
X58831Y109020D01*
X58563Y108018D01*
Y106982D01*
X58831Y105980D01*
X59350Y105083D01*
X60083Y104350D01*
X60980Y103831D01*
X61982Y103563D01*
X63018D01*
X64020Y103831D01*
X64917Y104350D01*
X65650Y105083D01*
X66169Y105980D01*
X66437Y106982D01*
Y108018D01*
X66169Y109020D01*
X65650Y109917D01*
X64917Y110650D01*
X64020Y111169D01*
X63018Y111437D01*
D02*
G37*
G36*
X53018D02*
X51982D01*
X50980Y111169D01*
X50083Y110650D01*
X49350Y109917D01*
X48831Y109020D01*
X48563Y108018D01*
Y106982D01*
X48831Y105980D01*
X49350Y105083D01*
X50083Y104350D01*
X50980Y103831D01*
X51982Y103563D01*
X53018D01*
X54020Y103831D01*
X54917Y104350D01*
X55650Y105083D01*
X56169Y105980D01*
X56437Y106982D01*
Y108018D01*
X56169Y109020D01*
X55650Y109917D01*
X54917Y110650D01*
X54020Y111169D01*
X53018Y111437D01*
D02*
G37*
G36*
X86650Y107000D02*
X83000D01*
Y103350D01*
X83046D01*
X84102Y103633D01*
X85048Y104180D01*
X85821Y104952D01*
X86367Y105898D01*
X86650Y106954D01*
Y107000D01*
D02*
G37*
G36*
X82000D02*
X78350D01*
Y106954D01*
X78633Y105898D01*
X79180Y104952D01*
X79952Y104180D01*
X80898Y103633D01*
X81954Y103350D01*
X82000D01*
Y107000D01*
D02*
G37*
G36*
X158441Y104500D02*
X157000D01*
Y103059D01*
X157624Y103318D01*
X158182Y103876D01*
X158441Y104500D01*
D02*
G37*
G36*
X156000D02*
X154559D01*
X154818Y103876D01*
X155376Y103318D01*
X156000Y103059D01*
Y104500D01*
D02*
G37*
G36*
X178500Y104441D02*
Y103000D01*
X179941D01*
X179682Y103624D01*
X179124Y104182D01*
X178500Y104441D01*
D02*
G37*
G36*
X177500D02*
X176876Y104182D01*
X176318Y103624D01*
X176059Y103000D01*
X177500D01*
Y104441D01*
D02*
G37*
G36*
X187444Y103638D02*
X185578D01*
X185928Y102791D01*
X186598Y102122D01*
X187444Y101771D01*
Y103638D01*
D02*
G37*
G36*
X179941Y102000D02*
X178500D01*
Y100559D01*
X179124Y100818D01*
X179682Y101376D01*
X179941Y102000D01*
D02*
G37*
G36*
X177500D02*
X176059D01*
X176318Y101376D01*
X176876Y100818D01*
X177500Y100559D01*
Y102000D01*
D02*
G37*
G36*
X58500Y101941D02*
Y100500D01*
X59941D01*
X59682Y101124D01*
X59124Y101682D01*
X58500Y101941D01*
D02*
G37*
G36*
X57500D02*
X56876Y101682D01*
X56318Y101124D01*
X56059Y100500D01*
X57500D01*
Y101941D01*
D02*
G37*
G36*
X202662Y110846D02*
X201957D01*
X201306Y110577D01*
X200807Y110078D01*
X200538Y109427D01*
Y109077D01*
X200506Y109046D01*
X200202Y108590D01*
X200095Y108052D01*
Y107247D01*
X196241Y103393D01*
X193099D01*
X193002Y103490D01*
X192351Y103760D01*
X191646D01*
X191050Y103513D01*
X191037Y103516D01*
X190773Y103638D01*
X188444D01*
Y101771D01*
X189292Y102122D01*
X189439Y102270D01*
X190227Y101944D01*
Y101636D01*
X190497Y100985D01*
X190995Y100486D01*
X191646Y100216D01*
X192351D01*
X193002Y100486D01*
X193099Y100583D01*
X196823D01*
X197360Y100690D01*
X197816Y100995D01*
X202494Y105672D01*
X203397Y105714D01*
X203695Y105484D01*
Y104488D01*
X203318Y104111D01*
X202968D01*
X202316Y103842D01*
X201818Y103343D01*
X201548Y102692D01*
Y101987D01*
X201818Y101336D01*
X202316Y100838D01*
X202968Y100568D01*
X203673D01*
X204324Y100838D01*
X204822Y101336D01*
X205038Y101858D01*
X205728Y102548D01*
X205867Y102640D01*
X206624Y102527D01*
X206804Y102438D01*
X206899Y102208D01*
X206755Y101859D01*
Y101155D01*
X207025Y100503D01*
X207523Y100005D01*
X208174Y99735D01*
X208879D01*
X209530Y100005D01*
X210029Y100503D01*
X210298Y101155D01*
Y101859D01*
X210029Y102511D01*
X209895Y102644D01*
Y105167D01*
X209956Y105228D01*
X210225Y105879D01*
Y106584D01*
X209956Y107235D01*
X209457Y107733D01*
X208806Y108003D01*
X208101D01*
X207450Y107733D01*
X206601Y107928D01*
X206103Y108426D01*
X205452Y108696D01*
X204809D01*
X204744Y108698D01*
X204081Y109272D01*
Y109427D01*
X203811Y110078D01*
X203313Y110577D01*
X202662Y110846D01*
D02*
G37*
G36*
X171500Y100941D02*
Y99500D01*
X172941D01*
X172682Y100124D01*
X172124Y100682D01*
X171500Y100941D01*
D02*
G37*
G36*
X170500D02*
X169876Y100682D01*
X169318Y100124D01*
X169059Y99500D01*
X170500D01*
Y100941D01*
D02*
G37*
G36*
X59941Y99500D02*
X58500D01*
Y98059D01*
X59124Y98318D01*
X59682Y98876D01*
X59941Y99500D01*
D02*
G37*
G36*
X57500D02*
X56059D01*
X56318Y98876D01*
X56876Y98318D01*
X57500Y98059D01*
Y99500D01*
D02*
G37*
G36*
X164500Y99441D02*
Y98000D01*
X165941D01*
X165682Y98624D01*
X165124Y99182D01*
X164500Y99441D01*
D02*
G37*
G36*
X172941Y98500D02*
X171500D01*
Y97059D01*
X172124Y97318D01*
X172682Y97876D01*
X172941Y98500D01*
D02*
G37*
G36*
X170500D02*
X169059D01*
X169318Y97876D01*
X169876Y97318D01*
X170500Y97059D01*
Y98500D01*
D02*
G37*
G36*
X165941Y97000D02*
X164500D01*
Y95559D01*
X165124Y95818D01*
X165682Y96376D01*
X165941Y97000D01*
D02*
G37*
G36*
X163500D02*
X162059D01*
X162318Y96376D01*
X162876Y95818D01*
X163500Y95559D01*
Y97000D01*
D02*
G37*
G36*
X148000Y95441D02*
X147376Y95182D01*
X146818Y94624D01*
X146559Y94000D01*
X148000D01*
Y95441D01*
D02*
G37*
G36*
X83046Y96650D02*
X83000D01*
Y93000D01*
X86650D01*
Y93046D01*
X86367Y94102D01*
X85821Y95048D01*
X85048Y95820D01*
X84102Y96367D01*
X83046Y96650D01*
D02*
G37*
G36*
X82000D02*
X81954D01*
X80898Y96367D01*
X79952Y95820D01*
X79180Y95048D01*
X78633Y94102D01*
X78350Y93046D01*
Y93000D01*
X82000D01*
Y96650D01*
D02*
G37*
G36*
X143500Y93941D02*
Y92500D01*
X144941D01*
X144682Y93124D01*
X144124Y93682D01*
X143500Y93941D01*
D02*
G37*
G36*
X142500D02*
X141876Y93682D01*
X141318Y93124D01*
X141059Y92500D01*
X142500D01*
Y93941D01*
D02*
G37*
G36*
X158441Y91500D02*
X157000D01*
Y90059D01*
X157624Y90318D01*
X158182Y90876D01*
X158441Y91500D01*
D02*
G37*
G36*
X178811Y90441D02*
X178187Y90182D01*
X177629Y89624D01*
X177370Y89000D01*
X178811D01*
Y90441D01*
D02*
G37*
G36*
X73018Y96437D02*
X71982D01*
X70980Y96169D01*
X70083Y95650D01*
X69350Y94917D01*
X68831Y94020D01*
X68563Y93018D01*
Y91982D01*
X68831Y90980D01*
X69350Y90083D01*
X70083Y89350D01*
X70980Y88831D01*
X71982Y88563D01*
X73018D01*
X74020Y88831D01*
X74917Y89350D01*
X75650Y90083D01*
X76169Y90980D01*
X76437Y91982D01*
Y93018D01*
X76169Y94020D01*
X75650Y94917D01*
X74917Y95650D01*
X74020Y96169D01*
X73018Y96437D01*
D02*
G37*
G36*
X63018D02*
X61982D01*
X60980Y96169D01*
X60083Y95650D01*
X59350Y94917D01*
X58831Y94020D01*
X58563Y93018D01*
Y91982D01*
X58831Y90980D01*
X59350Y90083D01*
X60083Y89350D01*
X60980Y88831D01*
X61982Y88563D01*
X63018D01*
X64020Y88831D01*
X64917Y89350D01*
X65650Y90083D01*
X66169Y90980D01*
X66437Y91982D01*
Y93018D01*
X66169Y94020D01*
X65650Y94917D01*
X64917Y95650D01*
X64020Y96169D01*
X63018Y96437D01*
D02*
G37*
G36*
X86650Y92000D02*
X83000D01*
Y88350D01*
X83046D01*
X84102Y88633D01*
X85048Y89179D01*
X85821Y89952D01*
X86367Y90898D01*
X86650Y91954D01*
Y92000D01*
D02*
G37*
G36*
X82000D02*
X78350D01*
Y91954D01*
X78633Y90898D01*
X79180Y89952D01*
X79952Y89179D01*
X80898Y88633D01*
X81954Y88350D01*
X82000D01*
Y92000D01*
D02*
G37*
G36*
X58500Y87441D02*
Y86000D01*
X59941D01*
X59682Y86624D01*
X59124Y87182D01*
X58500Y87441D01*
D02*
G37*
G36*
X57500D02*
X56876Y87182D01*
X56318Y86624D01*
X56059Y86000D01*
X57500D01*
Y87441D01*
D02*
G37*
G36*
X59941Y85000D02*
X58500D01*
Y83559D01*
X59124Y83818D01*
X59682Y84376D01*
X59941Y85000D01*
D02*
G37*
G36*
X57500D02*
X56059D01*
X56318Y84376D01*
X56876Y83818D01*
X57500Y83559D01*
Y85000D01*
D02*
G37*
G36*
X171937Y84441D02*
Y83000D01*
X173378D01*
X173119Y83624D01*
X172561Y84182D01*
X171937Y84441D01*
D02*
G37*
G36*
X170937D02*
X170313Y84182D01*
X169755Y83624D01*
X169496Y83000D01*
X170937D01*
Y84441D01*
D02*
G37*
G36*
X173378Y82000D02*
X171937D01*
Y80559D01*
X172561Y80818D01*
X173119Y81376D01*
X173378Y82000D01*
D02*
G37*
G36*
X170937D02*
X169496D01*
X169755Y81376D01*
X170313Y80818D01*
X170937Y80559D01*
Y82000D01*
D02*
G37*
G36*
X83046Y81650D02*
X83000D01*
Y78000D01*
X86650D01*
Y78046D01*
X86367Y79102D01*
X85821Y80048D01*
X85048Y80821D01*
X84102Y81367D01*
X83046Y81650D01*
D02*
G37*
G36*
X82000D02*
X81954D01*
X80898Y81367D01*
X79952Y80821D01*
X79180Y80048D01*
X78633Y79102D01*
X78350Y78046D01*
Y78000D01*
X82000D01*
Y81650D01*
D02*
G37*
G36*
X73018Y81437D02*
X71982D01*
X70980Y81169D01*
X70083Y80650D01*
X69350Y79917D01*
X68831Y79020D01*
X68563Y78018D01*
Y76982D01*
X68831Y75980D01*
X69350Y75083D01*
X70083Y74350D01*
X70980Y73831D01*
X71982Y73563D01*
X73018D01*
X74020Y73831D01*
X74917Y74350D01*
X75650Y75083D01*
X76169Y75980D01*
X76437Y76982D01*
Y78018D01*
X76169Y79020D01*
X75650Y79917D01*
X74917Y80650D01*
X74020Y81169D01*
X73018Y81437D01*
D02*
G37*
G36*
X63018D02*
X61982D01*
X60980Y81169D01*
X60083Y80650D01*
X59350Y79917D01*
X58831Y79020D01*
X58563Y78018D01*
Y76982D01*
X58831Y75980D01*
X59350Y75083D01*
X60083Y74350D01*
X60980Y73831D01*
X61982Y73563D01*
X63018D01*
X64020Y73831D01*
X64917Y74350D01*
X65650Y75083D01*
X66169Y75980D01*
X66437Y76982D01*
Y78018D01*
X66169Y79020D01*
X65650Y79917D01*
X64917Y80650D01*
X64020Y81169D01*
X63018Y81437D01*
D02*
G37*
G36*
X53018D02*
X51982D01*
X50980Y81169D01*
X50083Y80650D01*
X49350Y79917D01*
X48831Y79020D01*
X48563Y78018D01*
Y76982D01*
X48831Y75980D01*
X49350Y75083D01*
X50083Y74350D01*
X50980Y73831D01*
X51982Y73563D01*
X53018D01*
X54020Y73831D01*
X54917Y74350D01*
X55650Y75083D01*
X56169Y75980D01*
X56437Y76982D01*
Y78018D01*
X56169Y79020D01*
X55650Y79917D01*
X54917Y80650D01*
X54020Y81169D01*
X53018Y81437D01*
D02*
G37*
G36*
X86650Y77000D02*
X83000D01*
Y73350D01*
X83046D01*
X84102Y73633D01*
X85048Y74180D01*
X85821Y74952D01*
X86367Y75898D01*
X86650Y76954D01*
Y77000D01*
D02*
G37*
G36*
X82000D02*
X78350D01*
Y76954D01*
X78633Y75898D01*
X79180Y74952D01*
X79952Y74180D01*
X80898Y73633D01*
X81954Y73350D01*
X82000D01*
Y77000D01*
D02*
G37*
G36*
X58500Y71941D02*
Y70500D01*
X59941D01*
X59682Y71124D01*
X59124Y71682D01*
X58500Y71941D01*
D02*
G37*
G36*
X57500D02*
X56876Y71682D01*
X56318Y71124D01*
X56059Y70500D01*
X57500D01*
Y71941D01*
D02*
G37*
G36*
X59941Y69500D02*
X58500D01*
Y68059D01*
X59124Y68318D01*
X59682Y68876D01*
X59941Y69500D01*
D02*
G37*
G36*
X57500D02*
X56059D01*
X56318Y68876D01*
X56876Y68318D01*
X57500Y68059D01*
Y69500D01*
D02*
G37*
G36*
X8204Y69150D02*
X8157D01*
Y65500D01*
X11807D01*
Y65546D01*
X11524Y66602D01*
X10978Y67548D01*
X10205Y68321D01*
X9259Y68867D01*
X8204Y69150D01*
D02*
G37*
G36*
X7158D02*
X7111D01*
X6056Y68867D01*
X5110Y68321D01*
X4337Y67548D01*
X3791Y66602D01*
X3508Y65546D01*
Y65500D01*
X7158D01*
Y69150D01*
D02*
G37*
G36*
X83046Y66650D02*
X83000D01*
Y63000D01*
X86650D01*
Y63046D01*
X86367Y64102D01*
X85821Y65048D01*
X85048Y65820D01*
X84102Y66367D01*
X83046Y66650D01*
D02*
G37*
G36*
X82000D02*
X81954D01*
X80898Y66367D01*
X79952Y65820D01*
X79180Y65048D01*
X78633Y64102D01*
X78350Y63046D01*
Y63000D01*
X82000D01*
Y66650D01*
D02*
G37*
G36*
X21437Y68937D02*
X13563D01*
Y61063D01*
X21437D01*
Y68937D01*
D02*
G37*
G36*
X11807Y64500D02*
X8157D01*
Y60850D01*
X8204D01*
X9259Y61133D01*
X10205Y61680D01*
X10978Y62452D01*
X11524Y63398D01*
X11807Y64454D01*
Y64500D01*
D02*
G37*
G36*
X7158D02*
X3508D01*
Y64454D01*
X3791Y63398D01*
X4337Y62452D01*
X5110Y61680D01*
X6056Y61133D01*
X7111Y60850D01*
X7158D01*
Y64500D01*
D02*
G37*
G36*
X103500Y61941D02*
Y60500D01*
X104941D01*
X104682Y61124D01*
X104124Y61682D01*
X103500Y61941D01*
D02*
G37*
G36*
X102500D02*
X101876Y61682D01*
X101318Y61124D01*
X101059Y60500D01*
X102500D01*
Y61941D01*
D02*
G37*
G36*
X73018Y66437D02*
X71982D01*
X70980Y66169D01*
X70083Y65650D01*
X69350Y64917D01*
X68831Y64020D01*
X68563Y63018D01*
Y61982D01*
X68831Y60980D01*
X69350Y60083D01*
X70083Y59350D01*
X70980Y58831D01*
X71982Y58563D01*
X73018D01*
X74020Y58831D01*
X74917Y59350D01*
X75650Y60083D01*
X76169Y60980D01*
X76437Y61982D01*
Y63018D01*
X76169Y64020D01*
X75650Y64917D01*
X74917Y65650D01*
X74020Y66169D01*
X73018Y66437D01*
D02*
G37*
G36*
X63018D02*
X61982D01*
X60980Y66169D01*
X60083Y65650D01*
X59350Y64917D01*
X58831Y64020D01*
X58563Y63018D01*
Y61982D01*
X58831Y60980D01*
X59350Y60083D01*
X60083Y59350D01*
X60980Y58831D01*
X61982Y58563D01*
X63018D01*
X64020Y58831D01*
X64917Y59350D01*
X65650Y60083D01*
X66169Y60980D01*
X66437Y61982D01*
Y63018D01*
X66169Y64020D01*
X65650Y64917D01*
X64917Y65650D01*
X64020Y66169D01*
X63018Y66437D01*
D02*
G37*
G36*
X53018D02*
X51982D01*
X50980Y66169D01*
X50083Y65650D01*
X49350Y64917D01*
X48831Y64020D01*
X48563Y63018D01*
Y61982D01*
X48831Y60980D01*
X49350Y60083D01*
X50083Y59350D01*
X50980Y58831D01*
X51982Y58563D01*
X53018D01*
X54020Y58831D01*
X54917Y59350D01*
X55650Y60083D01*
X56169Y60980D01*
X56437Y61982D01*
Y63018D01*
X56169Y64020D01*
X55650Y64917D01*
X54917Y65650D01*
X54020Y66169D01*
X53018Y66437D01*
D02*
G37*
G36*
X86650Y62000D02*
X83000D01*
Y58350D01*
X83046D01*
X84102Y58633D01*
X85048Y59180D01*
X85821Y59952D01*
X86367Y60898D01*
X86650Y61954D01*
Y62000D01*
D02*
G37*
G36*
X82000D02*
X78350D01*
Y61954D01*
X78633Y60898D01*
X79180Y59952D01*
X79952Y59180D01*
X80898Y58633D01*
X81954Y58350D01*
X82000D01*
Y62000D01*
D02*
G37*
G36*
X104941Y59500D02*
X103500D01*
Y58059D01*
X104124Y58318D01*
X104682Y58876D01*
X104941Y59500D01*
D02*
G37*
G36*
X102500D02*
X101059D01*
X101318Y58876D01*
X101876Y58318D01*
X102500Y58059D01*
Y59500D01*
D02*
G37*
G36*
X116500Y56367D02*
Y54500D01*
X118367D01*
X118016Y55347D01*
X117347Y56016D01*
X116500Y56367D01*
D02*
G37*
G36*
X115500D02*
X114653Y56016D01*
X113984Y55347D01*
X113633Y54500D01*
X115500D01*
Y56367D01*
D02*
G37*
G36*
X219706Y56810D02*
X219685D01*
Y53358D01*
X223138D01*
Y53378D01*
X222869Y54383D01*
X222348Y55285D01*
X221612Y56021D01*
X220711Y56541D01*
X219706Y56810D01*
D02*
G37*
G36*
X218685D02*
X218665D01*
X217660Y56541D01*
X216758Y56021D01*
X216022Y55285D01*
X215502Y54383D01*
X215233Y53378D01*
Y53358D01*
X218685D01*
Y56810D01*
D02*
G37*
G36*
X223138Y52358D02*
X219685D01*
Y48905D01*
X219706D01*
X220711Y49174D01*
X221612Y49695D01*
X222348Y50431D01*
X222869Y51332D01*
X223138Y52337D01*
Y52358D01*
D02*
G37*
G36*
X218685D02*
X215233D01*
Y52337D01*
X215502Y51332D01*
X216022Y50431D01*
X216758Y49695D01*
X217660Y49174D01*
X218665Y48905D01*
X218685D01*
Y52358D01*
D02*
G37*
G36*
X221138Y34505D02*
X219669D01*
Y20200D01*
X224132D01*
Y31511D01*
X224030Y32286D01*
X223731Y33008D01*
X223255Y33628D01*
X222635Y34104D01*
X221913Y34403D01*
X221138Y34505D01*
D02*
G37*
G36*
X8669D02*
X7201D01*
X6426Y34403D01*
X5704Y34104D01*
X5084Y33628D01*
X4608Y33008D01*
X4309Y32286D01*
X4207Y31511D01*
Y20200D01*
X8669D01*
Y34505D01*
D02*
G37*
%LPD*%
G36*
X66952Y285150D02*
X67850Y284631D01*
X68851Y284363D01*
X69888D01*
X70889Y284631D01*
X71705Y285102D01*
X72361Y284912D01*
X72492Y284858D01*
Y245781D01*
X72171Y245460D01*
X71867Y245004D01*
X71760Y244466D01*
Y182703D01*
X71032Y182401D01*
X65905Y187529D01*
Y285083D01*
X66692Y285409D01*
X66952Y285150D01*
D02*
G37*
%LPC*%
G36*
X69351Y280241D02*
Y278800D01*
X70792D01*
X70533Y279424D01*
X69975Y279982D01*
X69351Y280241D01*
D02*
G37*
G36*
X68351D02*
X67727Y279982D01*
X67169Y279424D01*
X66910Y278800D01*
X68351D01*
Y280241D01*
D02*
G37*
G36*
X70792Y277800D02*
X69351D01*
Y276359D01*
X69975Y276618D01*
X70533Y277176D01*
X70792Y277800D01*
D02*
G37*
G36*
X68351D02*
X66910D01*
X67169Y277176D01*
X67727Y276618D01*
X68351Y276359D01*
Y277800D01*
D02*
G37*
G36*
X200500Y82441D02*
Y81000D01*
X201941D01*
X201682Y81624D01*
X201124Y82182D01*
X200500Y82441D01*
D02*
G37*
G36*
X199500D02*
X198876Y82182D01*
X198318Y81624D01*
X198059Y81000D01*
X199500D01*
Y82441D01*
D02*
G37*
G36*
X201941Y80000D02*
X200500D01*
Y78559D01*
X201124Y78818D01*
X201682Y79376D01*
X201941Y80000D01*
D02*
G37*
G36*
X199500D02*
X198059D01*
X198318Y79376D01*
X198876Y78818D01*
X199500Y78559D01*
Y80000D01*
D02*
G37*
G36*
X195334Y65744D02*
Y64303D01*
X196775D01*
X196516Y64927D01*
X195958Y65485D01*
X195334Y65744D01*
D02*
G37*
G36*
X194334D02*
X193710Y65485D01*
X193152Y64927D01*
X192894Y64303D01*
X194334D01*
Y65744D01*
D02*
G37*
G36*
X196775Y63303D02*
X195334D01*
Y61862D01*
X195958Y62121D01*
X196516Y62679D01*
X196775Y63303D01*
D02*
G37*
G36*
X194334D02*
X192894D01*
X193152Y62679D01*
X193710Y62121D01*
X194334Y61862D01*
Y63303D01*
D02*
G37*
G36*
X184500Y60441D02*
Y59000D01*
X185941D01*
X185682Y59624D01*
X185124Y60182D01*
X184500Y60441D01*
D02*
G37*
G36*
X183500D02*
X182876Y60182D01*
X182318Y59624D01*
X182059Y59000D01*
X183500D01*
Y60441D01*
D02*
G37*
G36*
X185941Y58000D02*
X184500D01*
Y56559D01*
X185124Y56818D01*
X185682Y57376D01*
X185941Y58000D01*
D02*
G37*
G36*
X183500D02*
X182059D01*
X182318Y57376D01*
X182876Y56818D01*
X183500Y56559D01*
Y58000D01*
D02*
G37*
%LPD*%
D13*
X85382Y142618D02*
X91917Y136083D01*
X84470Y142618D02*
X85382D01*
X81763Y145325D02*
X84470Y142618D01*
X81657Y145325D02*
X81763D01*
X91917Y136083D02*
X103500Y124500D01*
X91917Y136083D02*
X91917D01*
X103500Y101500D02*
Y124500D01*
X112500Y62500D02*
X131449D01*
X82500D02*
X112500D01*
Y57500D02*
X116000Y54000D01*
X112500Y57500D02*
Y62500D01*
X140621Y76726D02*
X149793Y85898D01*
X150515D01*
X149047Y89047D02*
X167500Y107500D01*
X150515Y85898D02*
X168755Y104138D01*
X140621Y71672D02*
Y76726D01*
X135047Y89047D02*
X149047D01*
X131449Y62500D02*
X140621Y71672D01*
X131500Y85500D02*
X135047Y89047D01*
X168755Y104138D02*
X187944D01*
X167500Y107500D02*
X192000D01*
X200228Y115728D01*
X211283D01*
X119500Y85500D02*
X131500D01*
X131000Y66783D02*
Y85000D01*
X131500Y85500D01*
X211405Y115607D02*
X212470D01*
X212546Y115532D01*
X211283Y115728D02*
X211405Y115607D01*
X103500Y101500D02*
X119500Y85500D01*
D38*
X29169Y19700D02*
D03*
X19169D02*
D03*
X69169D02*
D03*
X59169D02*
D03*
X49169D02*
D03*
X99169D02*
D03*
X89169D02*
D03*
X129169D02*
D03*
X119169D02*
D03*
X159169D02*
D03*
X149169D02*
D03*
X189169D02*
D03*
X179169D02*
D03*
X219169D02*
D03*
X209169D02*
D03*
X79169D02*
D03*
X39169D02*
D03*
X9169D02*
D03*
X199169D02*
D03*
X169169D02*
D03*
X139169D02*
D03*
X109169D02*
D03*
D39*
X182000Y375500D02*
X192000D01*
X172000D02*
X182000D01*
X122000D02*
X132000D01*
X192000D02*
X202000D01*
X102008D02*
X112000D01*
X132000D02*
X172000D01*
X112000D02*
X122000D01*
X102000Y375492D02*
X102008Y375500D01*
X202000D02*
X212000D01*
X46316Y144390D02*
X75354D01*
X79537Y140207D01*
X79686D01*
X82318Y137575D01*
X82500D01*
X202000Y205500D02*
X212000D01*
X224365D01*
X162000D02*
X172000D01*
X182000D01*
X192000D02*
X202000D01*
X182000D02*
X192000D01*
X102000D02*
X112000D01*
X122000D01*
X132000D01*
X142000D01*
X152000D01*
X162000D01*
X224365D02*
Y367560D01*
Y197578D02*
Y205500D01*
X214405Y383616D02*
X222133Y375887D01*
X210797Y383616D02*
X214405D01*
X209223Y385190D02*
X210797Y383616D01*
X20744Y385190D02*
X209223D01*
X222133Y369791D02*
X224365Y367560D01*
X222133Y369791D02*
Y375887D01*
X7658Y372103D02*
X20744Y385190D01*
X219169Y52874D02*
X224365Y58069D01*
Y130653D01*
X214913Y140104D02*
X224365Y130653D01*
X214913Y140104D02*
Y187935D01*
X222000Y195000D02*
Y195213D01*
X224365Y197578D01*
X219169Y52842D02*
X219185Y52858D01*
X219169Y19700D02*
Y52842D01*
X214913Y187935D02*
X221978Y195000D01*
X222000D01*
X7658Y290158D02*
Y372103D01*
Y105731D02*
X46316Y144390D01*
X7658Y129000D02*
Y290158D01*
Y105731D02*
Y129000D01*
X82500Y77500D02*
Y92500D01*
Y107500D02*
Y122500D01*
Y137500D01*
Y92500D02*
Y107500D01*
X7658Y64894D02*
Y65000D01*
Y105731D01*
Y290158D02*
X15800Y298300D01*
X25369D01*
X82500Y62500D02*
Y77500D01*
X7658Y64894D02*
X9169Y63382D01*
Y19700D02*
Y63382D01*
D40*
X204978Y103785D02*
X205100D01*
X205338Y97500D02*
X205886Y96952D01*
X203533Y102340D02*
X204978Y103785D01*
X208490Y101543D02*
Y106195D01*
X205886Y96952D02*
X207097D01*
X208490Y101543D02*
X208526Y101507D01*
X208454Y106231D02*
X208490Y106195D01*
X203320Y102340D02*
X203533D01*
X207097Y96952D02*
X207247Y96802D01*
X192000Y97500D02*
X205338D01*
X120865Y134602D02*
X133388D01*
X135853Y132138D02*
X139584D01*
X134956Y130250D02*
X135431Y129776D01*
X133388Y134602D02*
X135853Y132138D01*
X134908Y130250D02*
X134956D01*
X135431Y129776D02*
X140562D01*
X89688Y165779D02*
X120865Y134602D01*
X88057Y161843D02*
X120057Y129842D01*
X87241Y159874D02*
X119241Y127874D01*
X85611Y155937D02*
X117611Y123937D01*
X86426Y157905D02*
X118426Y125906D01*
X88872Y163811D02*
X120872Y131811D01*
X83980Y152000D02*
X115991Y119989D01*
X120057Y129842D02*
X132531D01*
X84795Y153969D02*
X116795Y121968D01*
X119241Y127874D02*
X131268D01*
X118426Y125906D02*
X130378D01*
X134142Y122142D01*
X128191Y121968D02*
X130688Y119471D01*
X134610Y127764D02*
X143104D01*
X132531Y129842D02*
X134610Y127764D01*
X116795Y121968D02*
X128191D01*
X117611Y123937D02*
X129563D01*
X131268Y127874D02*
X134142Y125000D01*
X129563Y123937D02*
X134500Y119000D01*
X133347Y131811D02*
X134908Y130250D01*
X115991Y119989D02*
X126727D01*
X120872Y131811D02*
X133347D01*
X126727Y119989D02*
X133311Y113406D01*
X39520Y153969D02*
X84795D01*
X38705Y152000D02*
X83980D01*
X40336Y155937D02*
X85611D01*
X41151Y157905D02*
X86426D01*
X41966Y159874D02*
X87241D01*
X44223Y163811D02*
X88872D01*
X42782Y161843D02*
X88057D01*
X141156Y130369D02*
X143017D01*
X143168Y130520D01*
X140562Y129776D02*
X141156Y130369D01*
X141207Y118026D02*
X143233D01*
X143384Y117875D01*
X141886Y120718D02*
X142099D01*
X140462Y122142D02*
X141886Y120718D01*
X134142Y122142D02*
X140462D01*
X139922Y119311D02*
X141207Y118026D01*
X144153Y125000D02*
X144756Y125603D01*
X144938D01*
X149027Y181473D02*
Y189473D01*
X163500Y167000D02*
X188000Y142500D01*
Y115768D02*
Y142500D01*
X163500Y167000D02*
X163500D01*
X149027Y181473D02*
X163500Y167000D01*
X188000Y115768D02*
X189181Y114587D01*
Y112572D02*
Y114587D01*
Y112572D02*
X189332Y112421D01*
X197000Y116438D02*
Y133287D01*
X192000Y128000D02*
Y165500D01*
X205500Y179000D01*
X181941Y110059D02*
X190621D01*
X197000Y116438D01*
X185500Y116500D02*
Y142216D01*
X144000Y183716D02*
X185500Y142216D01*
X144000Y183716D02*
Y184500D01*
Y194500D02*
X149027Y189473D01*
X182461Y131603D02*
Y140885D01*
X69500Y51000D02*
X124513D01*
X150966Y77453D01*
X59169Y40669D02*
X69500Y51000D01*
X114969Y40468D02*
X127901D01*
X107343Y42500D02*
X127148D01*
X76437Y48437D02*
X124734D01*
X96000Y44500D02*
X126365D01*
X69169Y41169D02*
X76437Y48437D01*
X109169Y34669D02*
X114969Y40468D01*
X87968Y46468D02*
X125549D01*
X99169Y34326D02*
X107343Y42500D01*
X79169Y37669D02*
X87968Y46468D01*
X89169Y37669D02*
X96000Y44500D01*
X155705Y79408D02*
Y81559D01*
X152964Y82295D02*
X152979Y82279D01*
X152964Y82295D02*
Y84727D01*
X158000Y78919D02*
Y83940D01*
X152964Y84727D02*
X162575Y94338D01*
X155476Y81788D02*
X155705Y81559D01*
X158000Y83940D02*
X158067Y84007D01*
X155326Y83724D02*
X155476Y83574D01*
Y81788D02*
Y83574D01*
X149784Y81713D02*
X149996D01*
X150246Y81463D01*
X150966Y77453D02*
Y80771D01*
X150246Y81463D02*
X150274D01*
X150966Y80771D01*
X59169Y19700D02*
Y40669D01*
X162575Y94338D02*
X165338D01*
X124734Y48437D02*
X155705Y79408D01*
X129169Y36169D02*
X157000Y64000D01*
X128716Y38500D02*
X157238Y67022D01*
X127148Y42500D02*
X156789Y72140D01*
X127901Y40468D02*
X157210Y69778D01*
X129169Y19700D02*
Y36169D01*
X157238Y67022D02*
X162500D01*
X157000Y64000D02*
X166791D01*
X126365Y44500D02*
X160450Y78585D01*
X157210Y69778D02*
X162500D01*
X125549Y46468D02*
X158000Y78919D01*
X156789Y72140D02*
X160450D01*
X69169Y19700D02*
Y41169D01*
X79169Y19700D02*
Y37669D01*
X165338Y94338D02*
X175000Y104000D01*
X160450Y78585D02*
Y82500D01*
X89169Y19700D02*
Y37669D01*
X120082Y34559D02*
X124023Y38500D01*
X120082Y20613D02*
Y34559D01*
X124023Y38500D02*
X128716D01*
X119169Y19700D02*
X120082Y20613D01*
X109169Y19700D02*
Y34669D01*
X99169Y19700D02*
Y34326D01*
X167632Y61500D02*
X171429Y65297D01*
X139169Y36169D02*
X164500Y61500D01*
X167632D01*
X139169Y19700D02*
Y36169D01*
X171429Y65297D02*
Y68518D01*
X149169Y19700D02*
Y35669D01*
X173398Y59898D01*
Y67022D01*
X159169Y19700D02*
Y37669D01*
X175366Y53866D01*
Y66207D01*
X179035Y19834D02*
X179169Y19700D01*
X177335Y64835D02*
X180735Y68235D01*
X179303Y63803D02*
X184000Y68500D01*
X171429Y68518D02*
X171437Y68525D01*
X179035Y37268D02*
X179303Y37535D01*
X175366Y66207D02*
X177830Y68670D01*
X173398Y67022D02*
X174042Y67667D01*
X179303Y37535D02*
Y63803D01*
X177335Y45835D02*
Y64835D01*
X169169Y37669D02*
X177335Y45835D01*
X179035Y19834D02*
Y37268D01*
X169169Y19700D02*
Y37669D01*
X174042Y68347D02*
X174193Y68498D01*
X174042Y67667D02*
Y68347D01*
X184000Y68500D02*
Y70500D01*
X180735Y69593D02*
X180886Y69744D01*
X180735Y68235D02*
Y69593D01*
X180886Y72500D02*
X181000Y72614D01*
Y85168D01*
X189169Y19700D02*
Y70085D01*
X190500Y71416D01*
X194834Y77185D02*
X195315D01*
X199169Y73331D01*
Y19700D02*
Y73331D01*
X204522Y85021D02*
X205100Y84443D01*
Y61359D02*
Y84443D01*
X208000Y71416D02*
Y86500D01*
X207500Y87000D02*
X208000Y86500D01*
X205100Y61359D02*
X209169Y57289D01*
Y19700D02*
Y57289D01*
X201500Y106666D02*
Y108052D01*
X202309Y108862D01*
Y109075D01*
X196823Y101988D02*
X201500Y106666D01*
X205100Y103785D02*
Y106924D01*
X191998Y101988D02*
X196823D01*
X190045Y94214D02*
X210430D01*
X215310Y99094D01*
X191775Y90277D02*
X212212D01*
X181000Y85168D02*
X190045Y94214D01*
X212212Y90277D02*
X219640Y97705D01*
X185000Y86384D02*
X190861Y92245D01*
X211397D01*
X187362Y85864D02*
X191775Y90277D01*
X211397Y92245D02*
X217278Y98126D01*
X133311Y113406D02*
X143000D01*
X164043Y111043D02*
X172500Y119500D01*
X132332Y111043D02*
X164043D01*
X126267Y117109D02*
X132332Y111043D01*
X165962Y119500D02*
X172500D01*
X142000Y137138D02*
X148325D01*
X165962Y119500D01*
X172034Y151311D02*
X182461Y140885D01*
X173012Y134162D02*
X173799Y134950D01*
X176500Y144000D02*
X179705Y140795D01*
X173012Y131603D02*
Y134162D01*
X173799Y134950D02*
Y143978D01*
X179705Y131603D02*
Y140795D01*
X172500Y119500D02*
X181941Y110059D01*
X179311Y95504D02*
X187944Y104138D01*
X179311Y88500D02*
Y95504D01*
X209500Y134172D02*
X217672Y126000D01*
X209500Y134172D02*
Y190500D01*
X217672Y116908D02*
Y126000D01*
X215310Y114546D02*
X217672Y116908D01*
X215310Y99094D02*
Y114546D01*
X219640Y116093D02*
Y128194D01*
X217278Y113731D02*
X219640Y116093D01*
X217278Y98126D02*
Y113731D01*
X219640Y97705D02*
Y112752D01*
X219047Y128787D02*
X219640Y128194D01*
X219047Y128787D02*
Y129000D01*
X187362Y79470D02*
Y85864D01*
X185000Y81910D02*
Y86384D01*
X187000Y72500D02*
Y79107D01*
X187362Y79470D01*
X164362Y132389D02*
Y132638D01*
Y132389D02*
X165138Y131614D01*
Y131401D02*
Y131614D01*
X167315Y133685D02*
X167677D01*
X169862Y131500D01*
X155532Y141469D02*
X164362Y132638D01*
X157563Y143437D02*
X167315Y133685D01*
X120382Y143437D02*
X157563D01*
X134142Y125000D02*
X144153D01*
X138933Y119311D02*
X139922D01*
X126267Y108733D02*
X143000Y92000D01*
X27141Y378300D02*
X52873Y352568D01*
X83361Y173653D02*
X92949D01*
X90503Y167748D02*
X118751Y139500D01*
X64500Y186947D02*
X81730Y169717D01*
X85244Y175622D02*
X93764D01*
X39595Y162246D02*
X41966Y159874D01*
X52873Y193006D02*
Y352568D01*
X77102Y183764D02*
Y237250D01*
X92134Y171685D02*
X120382Y143437D01*
X75133Y181881D02*
X83361Y173653D01*
X55000Y193663D02*
X80915Y167748D01*
X80099Y165779D02*
X89688D01*
X91318Y169717D02*
X119566Y141469D01*
X89662Y179559D02*
X95395D01*
X31721Y158984D02*
X38705Y152000D01*
X81730Y169717D02*
X91318D01*
X52873Y193006D02*
X80099Y165779D01*
X41563Y163061D02*
X42782Y161843D01*
X95395Y179559D02*
X123643Y151311D01*
X35658Y160615D02*
X40336Y155937D01*
X93764Y175622D02*
X122012Y147374D01*
X94580Y177591D02*
X122828Y149343D01*
X55000Y193663D02*
Y286000D01*
X73165Y181066D02*
Y244466D01*
X64500Y186947D02*
Y309202D01*
X43532Y164503D02*
X44223Y163811D01*
X79070Y184580D02*
Y193772D01*
X86059Y177591D02*
X94580D01*
X73165Y181066D02*
X82546Y171685D01*
X85369Y183851D02*
X89662Y179559D01*
X77102Y183764D02*
X85244Y175622D01*
X92949Y173653D02*
X121197Y145405D01*
X79070Y184580D02*
X86059Y177591D01*
X80915Y167748D02*
X90503D01*
X37626Y161430D02*
X41151Y157905D01*
X43532Y164503D02*
Y351909D01*
X82546Y171685D02*
X92134D01*
X85369Y183851D02*
Y188300D01*
X33689Y159800D02*
X39520Y153969D01*
X122012Y147374D02*
X170404D01*
X122828Y149343D02*
X171219D01*
X121197Y145405D02*
X169032D01*
X123643Y151311D02*
X172034D01*
X118751Y139500D02*
X154000D01*
X119566Y141469D02*
X155532D01*
X171219Y149343D02*
X176500Y144062D01*
X170404Y147374D02*
X173799Y143978D01*
X169032Y145405D02*
X171437Y143000D01*
X154000Y139500D02*
X162000Y131500D01*
X176500Y144000D02*
Y144062D01*
X54842Y286158D02*
X55000Y286000D01*
X54842Y309544D02*
X83598Y338300D01*
X54842Y286158D02*
Y309544D01*
X83598Y338300D02*
X85369D01*
X83598Y328300D02*
X85369D01*
X64500Y309202D02*
X83598Y328300D01*
X77834Y237983D02*
Y292536D01*
X77102Y237250D02*
X77834Y237983D01*
X75133Y181881D02*
Y240858D01*
X75865Y241591D02*
Y300568D01*
X75133Y240858D02*
X75865Y241591D01*
X73897Y245199D02*
Y308599D01*
X73165Y244466D02*
X73897Y245199D01*
Y308599D02*
X83598Y318300D01*
X75865Y300568D02*
X83598Y308300D01*
X77834Y292536D02*
X83598Y298300D01*
Y198300D02*
X85369D01*
X79070Y193772D02*
X83598Y198300D01*
Y318300D02*
X85369D01*
X83598Y308300D02*
X85369D01*
X83598Y298300D02*
X85369D01*
X138622Y119000D02*
X138933Y119311D01*
X134500Y119000D02*
X138622D01*
X37626Y161430D02*
Y327815D01*
X35658Y160615D02*
Y319783D01*
X41563Y163061D02*
Y343878D01*
X39595Y162246D02*
Y335846D01*
X33689Y159800D02*
Y281752D01*
X31721Y158984D02*
Y273720D01*
X27141Y278300D02*
X31721Y273720D01*
X27141Y288300D02*
X33689Y281752D01*
X27141Y348300D02*
X39595Y335846D01*
X27141Y368300D02*
X43532Y351909D01*
X27141Y358300D02*
X41563Y343878D01*
X27141Y338300D02*
X37626Y327815D01*
X27141Y328300D02*
X35658Y319783D01*
X25369Y378300D02*
X27141D01*
X25369Y368300D02*
X27141D01*
X25369Y358300D02*
X27141D01*
X25369Y348300D02*
X27141D01*
X25369Y338300D02*
X27141D01*
X25369Y328300D02*
X27141D01*
X126267Y108733D02*
Y117109D01*
X25369Y288300D02*
X27141D01*
X25369Y278300D02*
X27141D01*
D41*
X47500Y137500D02*
X52500D01*
X27500Y117500D02*
X47500Y137500D01*
X7658Y129000D02*
X16000D01*
X35000Y47500D02*
Y80000D01*
X47500Y92500D02*
X52500D01*
X35000Y80000D02*
X47500Y92500D01*
X27500Y21369D02*
X29169Y19700D01*
X27500Y21369D02*
Y117500D01*
X35000Y47500D02*
X47201Y35299D01*
Y21668D02*
Y35299D01*
Y21668D02*
X49169Y19700D01*
D42*
X184000Y184500D02*
D03*
X174000D02*
D03*
X164000D02*
D03*
X154000D02*
D03*
X144000D02*
D03*
X134000D02*
D03*
X124000D02*
D03*
Y194500D02*
D03*
X134000D02*
D03*
X144000D02*
D03*
X154000D02*
D03*
X164000D02*
D03*
X174000D02*
D03*
X184000D02*
D03*
X222000Y195000D02*
D03*
Y185000D02*
D03*
Y175000D02*
D03*
Y165000D02*
D03*
Y155000D02*
D03*
D43*
X52500Y92500D02*
D03*
X62500D02*
D03*
Y122500D02*
D03*
X52500D02*
D03*
X62500Y62500D02*
D03*
X52500D02*
D03*
X62500Y77500D02*
D03*
X52500D02*
D03*
X62500Y137500D02*
D03*
X52500D02*
D03*
X62500Y107500D02*
D03*
X52500D02*
D03*
X82500D02*
D03*
X72500D02*
D03*
X82500Y92500D02*
D03*
X72500D02*
D03*
X82500Y137500D02*
D03*
X72500D02*
D03*
X82500Y77500D02*
D03*
X72500D02*
D03*
X82500Y62500D02*
D03*
X72500D02*
D03*
X82500Y122500D02*
D03*
X72500D02*
D03*
X59369Y288300D02*
D03*
X69369D02*
D03*
X7658Y65000D02*
D03*
X152004Y375500D02*
D03*
X192000D02*
D03*
X182000D02*
D03*
X172000D02*
D03*
X162000D02*
D03*
X142000D02*
D03*
X132000D02*
D03*
X122000D02*
D03*
X112000D02*
D03*
X102000Y375492D02*
D03*
X172000Y205500D02*
D03*
X192000D02*
D03*
X182000D02*
D03*
X212000D02*
D03*
X202000Y375500D02*
D03*
X212000D02*
D03*
Y365500D02*
D03*
X192000D02*
D03*
X182000D02*
D03*
X172000D02*
D03*
X122000D02*
D03*
X132000D02*
D03*
X142000D02*
D03*
X152000D02*
D03*
X162000D02*
D03*
X112000D02*
D03*
X102000D02*
D03*
X202000D02*
D03*
Y345500D02*
D03*
X102000D02*
D03*
X112000D02*
D03*
X162000D02*
D03*
X152000D02*
D03*
X142000D02*
D03*
X132000D02*
D03*
X122000D02*
D03*
X172000D02*
D03*
X182000D02*
D03*
X192000D02*
D03*
X212000D02*
D03*
Y355500D02*
D03*
X192000D02*
D03*
X182000D02*
D03*
X172000D02*
D03*
X122000D02*
D03*
X132000D02*
D03*
X142000D02*
D03*
X152000D02*
D03*
X162000D02*
D03*
X112000D02*
D03*
X102000D02*
D03*
X202000D02*
D03*
Y325500D02*
D03*
X102000D02*
D03*
X112000D02*
D03*
X162000D02*
D03*
X152000D02*
D03*
X142000D02*
D03*
X132000D02*
D03*
X122000D02*
D03*
X172000D02*
D03*
X182000D02*
D03*
X192000D02*
D03*
X212000D02*
D03*
Y335500D02*
D03*
X192000D02*
D03*
X182000D02*
D03*
X172000D02*
D03*
X122000D02*
D03*
X132000D02*
D03*
X142000D02*
D03*
X152000D02*
D03*
X162000D02*
D03*
X112000D02*
D03*
X102000D02*
D03*
X202000D02*
D03*
Y305500D02*
D03*
X102000D02*
D03*
X112000D02*
D03*
X162000D02*
D03*
X152000D02*
D03*
X142000D02*
D03*
X132000D02*
D03*
X122000D02*
D03*
X172000D02*
D03*
X182000D02*
D03*
X192000D02*
D03*
X212000D02*
D03*
Y315500D02*
D03*
X192000D02*
D03*
X182000D02*
D03*
X172000D02*
D03*
X122000D02*
D03*
X132000D02*
D03*
X142000D02*
D03*
X152000D02*
D03*
X162000D02*
D03*
X112000D02*
D03*
X102000D02*
D03*
X202000D02*
D03*
Y285500D02*
D03*
X102000D02*
D03*
X112000D02*
D03*
X162000D02*
D03*
X152000D02*
D03*
X142000D02*
D03*
X132000D02*
D03*
X122000D02*
D03*
X172000D02*
D03*
X182000D02*
D03*
X192000D02*
D03*
X212000D02*
D03*
Y295500D02*
D03*
X192000D02*
D03*
X182000D02*
D03*
X172000D02*
D03*
X122000D02*
D03*
X132000D02*
D03*
X142000D02*
D03*
X152000D02*
D03*
X162000D02*
D03*
X112000D02*
D03*
X102000D02*
D03*
X202000D02*
D03*
Y265500D02*
D03*
X102000D02*
D03*
X112000D02*
D03*
X162000D02*
D03*
X152000D02*
D03*
X142000D02*
D03*
X132000D02*
D03*
X122000D02*
D03*
X172000D02*
D03*
X182000D02*
D03*
X192000D02*
D03*
X212000D02*
D03*
Y275500D02*
D03*
X192000D02*
D03*
X182000D02*
D03*
X172000D02*
D03*
X122000D02*
D03*
X132000D02*
D03*
X142000D02*
D03*
X152000D02*
D03*
X162000D02*
D03*
X112000D02*
D03*
X102000D02*
D03*
X202000D02*
D03*
Y245500D02*
D03*
X102000D02*
D03*
X112000D02*
D03*
X162000D02*
D03*
X152000D02*
D03*
X142000D02*
D03*
X132000D02*
D03*
X122000D02*
D03*
X172000D02*
D03*
X182000D02*
D03*
X192000D02*
D03*
X212000D02*
D03*
Y255500D02*
D03*
X192000D02*
D03*
X182000D02*
D03*
X172000D02*
D03*
X122000D02*
D03*
X132000D02*
D03*
X142000D02*
D03*
X152000D02*
D03*
X162000D02*
D03*
X112000D02*
D03*
X102000D02*
D03*
X202000D02*
D03*
Y225500D02*
D03*
X102000D02*
D03*
X112000D02*
D03*
X162000D02*
D03*
X152000D02*
D03*
X142000D02*
D03*
X132000D02*
D03*
X122000D02*
D03*
X172000D02*
D03*
X182000D02*
D03*
X192000D02*
D03*
X212000D02*
D03*
Y235500D02*
D03*
X192000D02*
D03*
X182000D02*
D03*
X172000D02*
D03*
X122000D02*
D03*
X132000D02*
D03*
X142000D02*
D03*
X152000D02*
D03*
X162000D02*
D03*
X112000D02*
D03*
X102000D02*
D03*
X202000D02*
D03*
Y215500D02*
D03*
X102000D02*
D03*
X112000D02*
D03*
X162000D02*
D03*
X152000D02*
D03*
X142000D02*
D03*
X132000D02*
D03*
X122000D02*
D03*
X172000D02*
D03*
X182000D02*
D03*
X192000D02*
D03*
X212000D02*
D03*
X122000Y205500D02*
D03*
X132000D02*
D03*
X142000D02*
D03*
X152000D02*
D03*
X162000D02*
D03*
X112000D02*
D03*
X102000D02*
D03*
X202000D02*
D03*
D44*
X85369Y328300D02*
D03*
Y338300D02*
D03*
Y348300D02*
D03*
Y358300D02*
D03*
Y368300D02*
D03*
Y378300D02*
D03*
Y318300D02*
D03*
Y308300D02*
D03*
Y298300D02*
D03*
Y288300D02*
D03*
Y278300D02*
D03*
Y268300D02*
D03*
Y258300D02*
D03*
Y248300D02*
D03*
Y238300D02*
D03*
Y228300D02*
D03*
Y218300D02*
D03*
Y208300D02*
D03*
Y198300D02*
D03*
X25369Y378300D02*
D03*
Y368300D02*
D03*
Y358300D02*
D03*
Y348300D02*
D03*
Y338300D02*
D03*
Y328300D02*
D03*
Y318300D02*
D03*
Y308300D02*
D03*
Y298300D02*
D03*
Y288300D02*
D03*
Y278300D02*
D03*
Y268300D02*
D03*
Y258300D02*
D03*
Y248300D02*
D03*
Y238300D02*
D03*
Y228300D02*
D03*
Y218300D02*
D03*
Y208300D02*
D03*
Y198300D02*
D03*
Y188300D02*
D03*
D45*
X85369D02*
D03*
D46*
X17500Y65000D02*
D03*
D47*
X222000Y145000D02*
D03*
D48*
X208454Y106231D02*
D03*
X203320Y102340D02*
D03*
X207247Y96802D02*
D03*
X208526Y101507D02*
D03*
X225000Y110500D02*
D03*
X198000Y179000D02*
D03*
X204500Y170000D02*
D03*
X215500Y160000D02*
D03*
X115000Y180000D02*
D03*
X222000Y218500D02*
D03*
Y367000D02*
D03*
X207500Y383500D02*
D03*
X106500Y384000D02*
D03*
X93500Y372500D02*
D03*
X62000Y364000D02*
D03*
X15500Y368500D02*
D03*
X23500Y179500D02*
D03*
X63000Y170500D02*
D03*
X60000Y196225D02*
D03*
X68851Y278300D02*
D03*
X48500Y318500D02*
D03*
X59916Y308500D02*
D03*
X57000Y318500D02*
D03*
X59916Y264000D02*
D03*
X48000Y259000D02*
D03*
X123643Y137138D02*
D03*
X139584Y132138D02*
D03*
X58000Y130500D02*
D03*
Y115500D02*
D03*
Y100000D02*
D03*
Y85500D02*
D03*
Y70000D02*
D03*
X103000Y60000D02*
D03*
X200000Y80500D02*
D03*
X154000Y131401D02*
D03*
X171437Y82500D02*
D03*
X148500Y93500D02*
D03*
X156500Y92000D02*
D03*
X143384Y117875D02*
D03*
X142099Y120718D02*
D03*
X144938Y125603D02*
D03*
X161000Y110500D02*
D03*
X163500Y117000D02*
D03*
X178000Y102500D02*
D03*
X171000Y99000D02*
D03*
X164000Y97500D02*
D03*
X156500Y105000D02*
D03*
X184000Y58500D02*
D03*
X194834Y63803D02*
D03*
X197000Y133287D02*
D03*
X192000Y128000D02*
D03*
X182461Y131603D02*
D03*
X158067Y84007D02*
D03*
X152979Y82279D02*
D03*
X155326Y83724D02*
D03*
X149784Y81713D02*
D03*
X160450Y82500D02*
D03*
Y72140D02*
D03*
X162500Y69778D02*
D03*
Y67022D02*
D03*
X166791Y64000D02*
D03*
X171437Y68525D02*
D03*
X174193Y68498D02*
D03*
X177830Y68670D02*
D03*
X180886Y69744D02*
D03*
Y72500D02*
D03*
X184000Y70500D02*
D03*
X190500Y71416D02*
D03*
X194834Y77185D02*
D03*
X204522Y85021D02*
D03*
X207500Y87000D02*
D03*
X202309Y109075D02*
D03*
X205100Y106924D02*
D03*
X130688Y119471D02*
D03*
X143000Y113406D02*
D03*
X142000Y137138D02*
D03*
X179705Y131603D02*
D03*
X173012D02*
D03*
X189332Y112421D02*
D03*
X179311Y88500D02*
D03*
X191998Y101988D02*
D03*
X185500Y116500D02*
D03*
X209500Y190500D02*
D03*
X219640Y112752D02*
D03*
X219047Y129000D02*
D03*
X185000Y81910D02*
D03*
X187000Y72500D02*
D03*
X165138Y131401D02*
D03*
X169862Y131500D02*
D03*
X143104Y127764D02*
D03*
X143000Y92000D02*
D03*
X208000Y71416D02*
D03*
X192000Y97500D02*
D03*
X171437Y143000D02*
D03*
X162000Y131500D02*
D03*
X143168Y130520D02*
D03*
X126267Y117109D02*
D03*
D49*
X81657Y145325D02*
D03*
X116000Y54000D02*
D03*
X172500Y119500D02*
D03*
X187944Y104138D02*
D03*
X205500Y179000D02*
D03*
X131000Y66783D02*
D03*
X212546Y115532D02*
D03*
X167500Y107500D02*
D03*
D50*
X219185Y52858D02*
D03*
D51*
X16000Y129000D02*
D03*
M02*
