M48
;Layer_Color=9474304
;FILE_FORMAT=2:5
INCH,TZ
;TYPE=PLATED
T1F00S00C0.01181
T2F00S00C0.01575
T3F00S00C0.01968
T4F00S00C0.03150
T5F00S00C0.03346
T6F00S00C0.03543
T7F00S00C0.03937
%
T01
X162500Y67022
Y69778
X160450Y72140
Y82500
X158067Y84007
X156500Y92000
X164000Y97500
X171000Y99000
X178000Y102500
X191998Y101988
X192000Y97500
X207247Y96802
X208526Y101507
X208454Y106231
X205100Y106924
X202309Y109075
X203320Y102340
X204522Y85021
X207500Y87000
X200000Y80500
X194834Y77185
X190500Y71416
X187000Y72500
X184000Y70500
X180886Y69744
Y72500
X177830Y68670
X174193Y68498
X171437Y68525
X166791Y64000
X184000Y58500
X194834Y63803
X208000Y71416
X185000Y81910
X179311Y88500
X171437Y82500
X156500Y105000
X161000Y110500
X225000
X148500Y93500
X143000Y92000
X149784Y81713
X152979Y82279
X155326Y83724
X103000Y60000
X58000Y70000
Y85500
Y100000
Y115500
Y130500
X63000Y170500
X60000Y196225
X23500Y179500
X115000Y180000
X123643Y137138
X142000
X139584Y132138
X143168Y130520
X143104Y127764
X144938Y125603
X142099Y120718
X143384Y117875
X143000Y113406
X130688Y119471
X126267Y117109
X154000Y131401
X59916Y264000
X48000Y259000
X222000Y218500
X209500Y190500
X198000Y179000
X204500Y170000
X215500Y160000
X219047Y129000
X219640Y112752
X189332Y112421
X185500Y116500
X192000Y128000
X197000Y133287
X182461Y131603
X179705
X173012
X169862Y131500
X165138Y131401
X162000Y131500
X163500Y117000
X171437Y143000
X222000Y367000
X207500Y383500
X106500Y384000
X93500Y372500
X62000Y364000
X57000Y318500
X48500
X59916Y308500
X68851Y278300
X15500Y368500
T02
X167500Y107500
X187944Y104138
X131000Y66783
X116000Y54000
X81657Y145325
X172500Y119500
X212546Y115532
X205500Y179000
T03
X16000Y129000
T04
X219185Y52858
X17500Y65000
X7658
X25369Y188300
Y198300
Y208300
Y218300
Y228300
Y238300
Y248300
Y258300
Y268300
X85369
Y258300
Y248300
Y238300
Y228300
Y218300
Y208300
Y198300
Y188300
Y278300
Y288300
Y298300
Y308300
Y318300
Y328300
Y338300
Y348300
Y358300
Y368300
Y378300
X25369
Y368300
Y358300
Y348300
Y338300
Y328300
Y318300
Y308300
Y298300
Y288300
Y278300
X59369Y288300
X69369
T05
X72500Y62500
X82500
Y77500
X72500
Y92500
X82500
Y107500
X72500
Y122500
X82500
Y137500
X72500
T06
X52500Y62500
X62500
Y77500
X52500
Y92500
X62500
Y107500
X52500
Y122500
X62500
Y137500
X52500
T07
X102000Y205500
Y215500
Y225500
X112000
X122000
X132000
X142000
X152000
Y235500
Y245500
X142000
X132000
X122000
X112000
X102000
Y255500
Y265500
X112000
X122000
X132000
X142000
X152000
Y255500
X142000
X132000
X122000
X112000
Y235500
X122000
X132000
X142000
Y215500
X152000
Y205500
X142000
X132000
Y215500
X122000
X112000
Y205500
X122000
X124000Y194500
Y184500
X134000
X144000
X154000
Y194500
X144000
X134000
X102000Y235500
X162000
Y245500
X172000
X182000
X192000
X202000
X212000
Y255500
Y265500
X202000
X192000
X182000
X172000
X162000
Y255500
X172000
X182000
X192000
X202000
Y235500
Y225500
X192000
X182000
X172000
X162000
Y215500
X172000
Y205500
X182000
X192000
Y215500
X202000
X212000
Y205500
X202000
X184000Y194500
Y184500
X174000
X164000
Y194500
X174000
X162000Y205500
X182000Y215500
Y235500
X192000
X212000
Y225500
X222000Y195000
Y185000
Y175000
Y165000
Y155000
Y145000
X172000Y235500
Y275500
Y285500
X162000
Y295500
Y305500
X172000
X182000
X192000
X202000
X212000
Y315500
Y325500
X202000
X192000
X182000
X172000
X162000
Y335500
Y345500
X172000
X182000
X192000
X202000
X212000
Y355500
Y365500
Y375500
X202000
X192000
X182000
X172000
X162000
Y365500
X172000
X182000
X192000
X202000
Y355500
X192000
X182000
X172000
X162000
X172000Y335500
X182000
X192000
X202000
X212000
X202000Y315500
X192000
X182000
X172000
X162000
X172000Y295500
X182000
Y285500
X192000
X202000
X212000
Y295500
X202000
X192000
Y275500
X182000
X162000
X202000
X212000
X152000
Y285500
X142000
X132000
X122000
X112000
X102000
Y295500
Y305500
X112000
X122000
X132000
X142000
X152000
Y315500
Y325500
X142000
X132000
X122000
X112000
X102000
Y335500
Y345500
X112000
X122000
X132000
X142000
X152000
Y355500
Y365500
X142000
Y375500
X132000
X122000
X112000
Y365500
X122000
X132000
Y355500
X122000
X112000
X102000
Y365500
Y375492
X112000Y335500
X122000
X132000
X142000
X152000
X142000Y355500
X152004Y375500
X142000Y315500
X132000
X122000
X112000
X102000
X112000Y295500
X122000
X132000
X142000
X152000
X142000Y275500
X132000
X122000
X112000
X102000
M30
