M48
;Layer_Color=9474304
;FILE_FORMAT=2:5
INCH,TZ
;TYPE=PLATED
T1F00S00C0.01181
T2F00S00C0.03150
T3F00S00C0.03346
T4F00S00C0.03543
T5F00S00C0.03937
%
T01
X222600Y56600
X201168Y54918
X188900Y66700
X180300Y75300
X97200Y43700
X84200Y40100
X74452Y37200
X44000Y44100
X29800Y84000
X31000Y101800
X33187Y104388
X35550Y106011
X37018Y108344
X38600Y110600
X39700Y113176
X48079Y127100
Y138100
X50700Y140200
X43296Y136170
X40300Y163086
X44800Y196200
X55400Y211769
X76020Y205057
X77989Y202100
X80351Y190251
X74600Y190357
X71844Y190100
X68647Y186020
X62952Y190107
X80351Y178296
X78600Y170100
X75100Y166800
X86762Y163038
X86768Y158492
X78600Y154674
X72600Y142800
X66867Y143152
X58674Y154674
X61900Y121100
X64600Y122000
X66954Y123433
X69520Y124438
X71427Y126428
X73400Y128600
X77141Y131541
X79830Y130890
X84001Y128201
X87680Y123354
X90600Y123218
X115768Y129082
X117808Y130935
X119862Y132864
X121804Y134846
X124042Y136454
X128147Y139595
X135954Y136604
X133985Y133200
X131452Y131606
X106765Y142863
X106108Y151249
X105400Y154300
X106840Y156990
X107445Y159725
X107500Y164662
Y168400
X92000Y169700
X97811Y191807
X99944Y190063
X102700Y190107
Y201810
X109500Y201800
X122693Y166154
X123133Y162936
X117268Y158681
X158600Y160900
X172600Y151400
X168300Y141800
X185300Y147300
X201900Y147429
Y156500
X140900Y184200
X80700Y229100
X60224Y117900
X64100Y82100
X173300Y82300
X164000Y91600
X221400Y156400
X219000Y258100
X12000Y256600
T02
X219200Y42100
X211300Y61400
Y71400
X151300
Y61400
X9300Y38800
X9858Y117900
X19700
X151300Y121400
Y131400
Y141400
Y151400
Y161400
Y171400
Y181400
Y191400
Y201400
Y211400
Y221400
Y231400
X211300
Y221400
Y211400
Y201400
Y191400
Y181400
Y171400
Y161400
Y151400
Y141400
Y131400
Y121400
Y111400
Y101400
Y91400
Y81400
X151300
Y91400
Y101400
Y111400
X139800Y151400
Y161400
X151300Y241400
Y251400
X211300
Y241400
T03
X20700Y81900
Y91900
X38200
Y81900
X55700
Y91900
X73200
Y81900
X90700
Y91900
X108200
Y81900
T04
X73200Y61900
Y71900
X90700
Y61900
X108200
Y71900
X55700
Y61900
X38200
Y71900
X20700
Y61900
T05
X67221Y246297
X77221
X57221
X47221
X37221
X27221
M30
